<?xml version="1.0" encoding="utf-8"?>
<!-- Generator: Adobe Illustrator 24.0.1, SVG Export Plug-In . SVG Version: 6.00 Build 0)  -->
<svg version="1.1" id="Layer_1" xmlns="http://www.w3.org/2000/svg" xmlns:xlink="http://www.w3.org/1999/xlink" x="0px" y="0px"
	 viewBox="0 0 246 55" style="enable-background:new 0 0 246 55;" xml:space="preserve">
<style type="text/css">
	.st0{fill:#C0C6D9;}
</style>
<path class="st0" d="M4.5,18.3c0-0.2,0.1-0.4,0.2-0.7c0.3-1.2,0.9-2.1,1.7-3l7.9-7.9c1.2-1.2,2.6-1.8,4.3-1.8h6.5
	c1.7,0,3.2,0.6,4.3,1.7l9.6,9.6c0.2,0.2,0.3,0.6,0.3,0.8v11c-0.1,0.1-0.3,0.2-0.5,0.4l-9.2,9.2c-1.3,1.3-2.8,2-4.7,2h-7.4
	c-1,0-1.5,0.5-1.5,1.5v6.1c0,0.9-0.3,1.6-1.1,1.9h-0.6c-0.3-0.2-0.7-0.4-0.9-0.6c-2.3-2.3-4.7-4.6-7-7c-0.9-0.9-1.5-1.9-1.8-3.1
	c0-0.2-0.1-0.4-0.1-0.7C4.5,37.7,4.5,18.3,4.5,18.3z M21.8,16.5h-4.4c-0.9,0-1.4,0.5-1.4,1.4v8.8c0,0.9,0.5,1.4,1.4,1.4h8.8
	c1,0,1.4-0.4,1.4-1.4v-8.8c0-0.9-0.5-1.4-1.4-1.4C26.2,16.5,21.8,16.5,21.8,16.5z M41.7,49.2c-0.3-0.1-0.7-0.2-1-0.4
	c-0.9-0.5-1.4-1.3-1.4-2.4V28.1h11c0.4,0,0.5,0.1,0.5,0.5v17.8c0,1.4-0.8,2.5-2.2,2.8c-0.1,0-0.2,0.1-0.3,0.1
	C46.1,49.2,43.9,49.2,41.7,49.2z M241.9,41.1h-5.7V14.5h5.7V41.1z M175.8,34.2l1.8-8.1c0.9-3.7,2-7.4,2.9-11.1
	c0.1-0.3,0.2-0.4,0.6-0.4h5c0.2,0,0.4,0,0.5,0.3c1.3,4.8,2.7,9.6,4,14.4c0.4,1.5,0.6,3.1,1,4.7c0.9-6.5,2.6-12.9,3.9-19.4h6.6
	c-2.2,8.9-4.5,17.7-6.7,26.5h-6.9c-1.6-5.8-3.2-11.5-4.8-17.2c-0.3,1.1-0.5,2.3-0.8,3.5c-1.3,4.5-2.6,8.9-3.8,13.4
	c-0.1,0.3-0.2,0.4-0.5,0.4h-6.1c-0.4,0-0.4-0.2-0.5-0.5c-1.6-6.3-3.2-12.5-4.7-18.8c-0.6-2.3-1.1-4.5-1.7-6.8c0-0.2-0.1-0.3-0.1-0.5
	h6.1c0.3,0,0.5,0.1,0.6,0.4c1.1,5.4,2.3,10.8,3.4,16.2C175.5,32.1,175.6,33.1,175.8,34.2z M73.9,32.4V41h-6.6V14.5h0.4
	c4.5,0,9,0,13.5,0.1c1,0,2.1,0.2,3.1,0.4c2.7,0.7,4.4,2.3,5.2,5c0.7,2.2,0.7,4.4,0,6.5c-1.1,3.2-3.4,4.9-6.6,5.5
	c-1.7,0.3-3.4,0.3-5.1,0.4C76.5,32.5,75.2,32.4,73.9,32.4z M73.9,27.5h4.2c0.6,0,1.2,0,1.7-0.1c2.2-0.3,3.2-1.2,3.5-3.1
	c0.1-0.4,0.1-0.9,0-1.3c0-1.9-1-3-2.8-3.4c-0.3-0.1-0.7-0.1-1-0.1c-1.8,0-3.6,0-5.3-0.1h-0.3L73.9,27.5L73.9,27.5z M221.8,32.5
	h-14.1c-0.3,1.9,1,4,2.7,4.6c1.3,0.5,2.7,0.4,4-0.2c1-0.4,1.5-0.9,2.7-3c1.4,0.7,2.8,1.4,4.3,2.2c-1.7,2.9-4.1,4.8-7.4,5.5
	c-2,0.4-4,0.3-6-0.3c-3.4-1.1-5.3-3.5-6-7c-0.5-2.7-0.3-5.3,0.8-7.9c1.5-3.5,4.2-5.2,7.8-5.6c1.9-0.2,3.8,0,5.6,0.8
	c2.9,1.4,4.4,3.7,5.1,6.8C221.6,29.8,221.7,31.1,221.8,32.5L221.8,32.5z M215.7,28.8c-0.2-2.6-1.8-4.1-4.2-3.9
	c-2,0.1-3.8,2.1-3.7,3.9H215.7z M126.3,30.9c-0.1,3.3-0.9,6-3,8.1c-1.4,1.4-3.1,2.1-5,2.5c-2.5,0.4-4.9,0.3-7.2-0.6
	c-3.3-1.3-5.1-3.8-5.7-7.2c-0.4-2-0.3-4,0.3-6c1.2-3.9,4-6.1,8-6.6c1.9-0.3,3.8-0.2,5.6,0.3c3.7,1.1,5.8,3.6,6.7,7.3
	C126.2,29.5,126.3,30.4,126.3,30.9L126.3,30.9z M110.9,31.2c0.2,0.9,0.3,1.8,0.6,2.7c0.7,2,2.2,3.2,4.2,3.2s3.6-1,4.3-3
	c0.7-2.1,0.7-4.2-0.2-6.2c-0.7-1.6-1.9-2.4-3.6-2.5c-1.9-0.1-3.4,0.5-4.3,2.2C111.2,28.8,111,30,110.9,31.2z M128,21.9h3.1v-3.3
	c0.1-2.2,1.2-3.5,3.4-4.2c1.6-0.5,3.2-0.4,4.7-0.1c0.4,0,0.7,0.1,1.1,0.2v4.3H139c-1.9,0-2.3,0.4-2.3,2.3c0,1-0.1,0.8,0.8,0.8h3v3.5
	h-3.8v15.7H131V25.5h-3.1C128,24.3,128,23.1,128,21.9z M164.7,21.9v3.5h-3.8v9.8c0.1,0.8,0.5,1.2,1.3,1.2h2.2v3.9
	c0,0.3-0.1,0.5-0.5,0.6c-1.8,0.3-3.6,0.4-5.3,0c-2.1-0.5-3.3-1.9-3.4-4c-0.1-1.1-0.1-2.2-0.1-3.3v-8.3h-2.3c-0.4,0-0.5-0.1-0.5-0.5
	v-3h2.8v-6.1h5.8v6.1C162.2,21.9,163.4,21.9,164.7,21.9z M225.2,14.6h5.7v26.5h-5.7V14.6z M98.1,41.1h-5.7V21.5H98v2.1
	c1.7-1.5,3.6-2.1,5.7-2.3v5.1c-0.9,0.2-1.9,0.3-2.8,0.5h-0.1c-1.9,0.4-2.5,1.1-2.5,3.1v10.5C98.1,40.7,98.1,40.9,98.1,41.1z
	 M149.2,41.1h-5.6V22c0-0.4,0.1-0.5,0.5-0.5h5.2C149.2,28,149.2,34.5,149.2,41.1L149.2,41.1z M149.2,18.9h-5.6v-4.4h5.6V18.9z"/>
</svg>
