<svg xmlns="http://www.w3.org/2000/svg" viewBox="0 0 295 126.7" xml:space="preserve"><path d="M68.1 41.4c2.7.6 4.3 2.3 5.5 4.7.9 1.9 2.1 3.7 3.1 5.6.7 1.3.4 1.8-1 2-3.7.5-6.4 2.3-8.4 5.4-1.4 2.2-2.9 4.4-4.4 6.5s-3.7 3.1-6.3 2.7c-2.6-.4-4.4-2-5.1-4.6-.5-1.8-.3-3.5.8-5.1 3.3-4.9 6.6-9.7 9.8-14.6 1-1.5 2.6-2.1 4.3-2.6h1.7zm15.1 23.4c-.4 1.1-.7 2.4-1.4 3.3-3.1 4.8-6.3 9.5-9.6 14.2-2.9 4.1-8.5 3.9-11-.5l-3.9-6.9c-.7-1.2-.4-1.8 1-2 3.7-.5 6.6-2.3 8.6-5.5 1.4-2.2 2.8-4.3 4.4-6.4 1.5-2.1 3.6-3.1 6.2-2.7 2.5.4 4.2 1.9 5 4.3.2.6.2 1.3.3 2 .3.1.4.2.4.2zm87.1-6.8c5.9-2.9 7.7-2.8 10.4.7.3-.3.6-.5.9-.8 1.7-1.6 3.7-2.1 5.9-1.8 2.2.3 3.8 1.9 3.9 4.2.1 4.1 0 8.2.1 12.4 0 .7-.3.9-1 1-3.7.3-3.7.3-3.7-3.3v-7.3c0-2.1-.8-3-2.5-3-1.9.1-3.3 1.4-3.3 3.1 0 3-.1 6 0 8.9 0 1.1-.2 1.5-1.4 1.5-3.2 0-3.2 0-3.2-3.2v-7.3c0-2.1-.8-3.1-2.6-3.1-2 0-3.5 1.4-3.5 3.2 0 3-.1 6 0 8.9 0 1.1-.4 1.5-1.5 1.4-3.1 0-3.1 0-3.1-3.2 0-4.2.1-8.4 0-12.5 0-1.2.4-1.6 1.5-1.5.4.1.8.1 1.3 0 1 0 2 .1 1.8 1.7zm-65.7 8.5c.3.3.7.5 1 .8 2.3 1.9 5 2.5 7.9 2.2.6-.1 1.1-.3 1.7-.6 1.6-1 1.6-2.8-.1-3.7-1.2-.6-2.6-.9-3.9-1.3-1.5-.5-3.1-.8-4.6-1.4-2.3-1-3.8-2.6-4-5.3-.2-2.9 1-5.1 3.5-6.6 4-2.3 10.8-1.6 14.3 1.4.5.5.7.8.2 1.4-.1.1-.2.2-.2.3-.6.8-1.1 2-1.9 2.3-.7.2-1.7-.7-2.6-1.1-1.7-.9-3.6-1.1-5.5-.9-1.4.1-2.4.9-2.5 2-.2 1.4.8 1.9 1.9 2.2 1.4.4 2.8.7 4.2 1.1 1.2.4 2.5.7 3.6 1.2 2.7 1.2 4.1 3.1 4 6.2-.1 3-1.4 5.4-4.2 6.4-5.1 2-10 1.4-14.5-1.8-.8-.6-1.1-1.1-.4-2 .7-.8 1.2-1.7 1.8-2.5 0-.1.1-.1.3-.3zm101.5-2c.5-3.3-.7-4.9-3.8-4.6-1.7.1-3.3.9-5.2 1.5-.3-.5-.8-1.3-1.2-2.2-.1-.2.2-.8.5-1 3.6-2.4 7.4-2.9 11.4-1.2 2 .8 3 2.6 3 4.7.1 3.7 0 7.3.1 11 0 .9-.4 1.1-1.1 1.1-.7 0-1.5-.1-2.2 0-.9.1-1.4-.2-1.3-1.4-1.9 1.5-3.9 2.1-6.1 1.9-2.7-.2-4.8-2-5.4-4.5-.5-2.6.5-5 2.7-6.1 2.5-1.1 5-1 7.5.3.4 0 .7.2 1.1.5zm-3 1.4c-.7.1-1 .1-1.3.1-1.4.2-2.4 1.2-2.5 2.4-.1 1.2.8 2.3 2.3 2.4 1.2.1 2.4-.2 3.5-.5.9-.2 1-1.1 1-1.9 0-.9-.3-1.5-1.1-1.8-.6-.4-1.4-.6-1.9-.7zm-53.4.6c0 3.8 3.9 4.8 9.3 2.3.3.4.6.8.8 1.2 1.2 1.8 1.2 2-.7 2.9-3.1 1.4-6.2 1.7-9.4.4-3.5-1.5-5.2-4.6-5.1-9 .1-3.5 2.3-6.7 5.7-7.9 3.5-1.3 7.3-.4 9.6 2.3 1.7 1.9 2.3 4.2 2.2 6.7 0 .9-.6 1-1.3 1h-9.7c-.4.1-.9.1-1.4.1zm-.1-3.3h8c-.3-2.3-1.9-3.7-4.1-3.6-2.3.1-3.8 1.5-3.9 3.6zm91.2 5.8c.2.3.4.6.7 1 1.3 1.9 1.3 2.1-.8 3-3 1.4-6.2 1.6-9.3.3-3.5-1.5-5.2-4.6-5.1-9 .1-3.5 2.4-6.6 5.7-7.8 3.5-1.3 7.3-.4 9.6 2.3 1.7 1.9 2.2 4.2 2.2 6.7 0 .9-.6.9-1.3.9h-9.9c-1.4 0-1.6.3-.9 1.6.9 1.7 3 2.8 5.1 2.3 1.3-.2 2.5-.8 4-1.3zm-9.5-5.7h7.9c0-2.1-1.6-3.6-3.8-3.7-2.3-.1-4 1.4-4.1 3.7zm-96.8 2.5c0-1.3-.1-2.6 0-4 .1-1-.3-1.5-1.3-1.3-1.3.2-1.7-.4-1.6-1.6.1-.3.1-.7 0-1-.1-1.1.3-1.6 1.4-1.4 1.1.2 1.6-.3 1.4-1.4V55c0-3.5.2-3.7 3.7-3.2.3.1.8.6.8.9.1.9.1 1.8.1 2.7 0 .8.2 1.1 1.1 1.1 2.6.1 2.5.1 2.5 2.7 0 1.1-.4 1.5-1.5 1.4H140c-.7 0-1 .3-1 1v6.5c.1 1.6.7 2.1 2.3 1.8.7-.1.9.1 1.1.7 1 2.6.4 3.5-2.3 3.6-1 0-2 0-2.9-.3-1.8-.5-2.7-1.9-2.8-3.8v-.3c.1-1.4.1-2.7.1-4zm81.7 0v-4c0-.9-.2-1.4-1.2-1.3-1.4.2-1.8-.5-1.7-1.8.1-.3 0-.6 0-.9-.1-1 .3-1.6 1.4-1.4 1.3.2 1.5-.4 1.5-1.6 0-3.7-.8-3.1 3.4-3.2.9 0 1.4.3 1.3 1.3v.6c.1.9-.2 2 .2 2.6.4.5 1.6.2 2.4.4.4.1.6.6.9.9.1.1 0 .4 0 .6 0 2.6.3 2.5-2.3 2.5-.8 0-1.2.3-1.2 1.2.1 2.1 0 4.2 0 6.3 0 1.7.7 2.1 2.3 2 .3 0 .9.3 1 .5 1.1 2.5.5 3.5-2.3 3.7h-1.7c-2.5-.2-4-1.8-4-4.2v-4.2zm-86.8-.8v7.3c0 1-.3 1.4-1.3 1.4-3.3 0-3.3.1-3.3-3.3V57.9c0-1 .3-1.4 1.4-1.4 3.3 0 3.3-.1 3.3 3.2-.1 1.7-.1 3.5-.1 5.3zm.3-14c0 1.6-1 2.7-2.7 2.7-1.6 0-2.7-1.1-2.7-2.7 0-1.5 1.2-2.7 2.7-2.7 1.6 0 2.7 1.1 2.7 2.7z" fill="#c0c6d9"/></svg>