<svg version="1.1" id="Layer_1" xmlns="http://www.w3.org/2000/svg" x="0" y="0" viewBox="0 0 295 126.7" xml:space="preserve"><style>.st0{fill:#c0c6d9}</style><path class="st0" d="M246.9 46.5c-1.1 0-1.9.9-1.9 1.9v8.7c-2-1.8-4.6-2.8-7.5-2.8-6.2 0-11.2 5-11.2 11.2s5 11.2 11.2 11.2 11.2-5 11.2-11.2V48.4c.1-1-.7-1.9-1.8-1.9m-1.9 19c0 4.1-3.3 7.5-7.5 7.5-4.1 0-7.5-3.3-7.5-7.5s3.3-7.5 7.5-7.5c4.2.1 7.5 3.5 7.5 7.5m-35.8 0c0-6.2-5-11.2-11.2-11.2s-11.2 5-11.2 11.2 5 11.2 11.2 11.2c2.9 0 5.5-1.1 7.5-2.8v.9c0 1.1.9 1.9 1.9 1.9 1.1 0 1.9-.9 1.9-1.9l-.1-9.3zM198 73c-4.1 0-7.5-3.3-7.5-7.5s3.3-7.5 7.5-7.5 7.5 3.3 7.5 7.5c-.1 4.2-3.4 7.5-7.5 7.5m-17-18.7c-1.1 0-1.9.9-1.9 1.9v9.4c0 4.1-3.3 7.5-7.5 7.5-4.1 0-7.5-3.3-7.5-7.5v-9.4c0-1.1-.9-1.9-1.9-1.9-1.1 0-1.9.9-1.9 1.9v9.4c0 5.5 4 10.2 9.4 11.1v6.1c0 1.1.9 1.9 1.9 1.9 1.1 0 1.9-.9 1.9-1.9v-6.1c5.3-.9 9.4-5.5 9.4-11.1v-9.4c-.1-1-.9-1.9-1.9-1.9m45.3 1.6c0-.1 0-.2-.1-.3-.1-.3-.2-.5-.4-.7s-.4-.3-.6-.4c-.2-.1-.5-.2-.7-.2-3.1 0-5.9 1.2-8 3.4-2.1 2.1-3.2 4.9-3.2 7.9V75c0 1.1.9 1.9 1.9 1.9S217 76 217 75v-9.4c0-4.1 3.3-7.5 7.5-7.5 1 0 1.9-.9 1.9-1.9-.1-.1-.1-.2-.1-.3m-98.1-1.6c-1.1 0-1.9.9-1.9 1.9v18.7c0 1.1.9 1.9 1.9 1.9 1.1 0 1.9-.9 1.9-1.9V56.2c-.1-1.1-.9-1.9-1.9-1.9m-6.9.2c-.9-.5-2.1-.1-2.6.9L111 70.7l-7.7-15.3c-.5-.9-1.6-1.3-2.6-.9-.9.5-1.3 1.6-.9 2.6l9.4 18.7c.3.6 1 1.1 1.7 1.1s1.4-.4 1.7-1.1l9.4-18.7c.6-1 .3-2.1-.7-2.6m33.3-8c-1.1 0-1.9.9-1.9 1.9v8.7c-2-1.8-4.6-2.8-7.5-2.8-6.2 0-11.2 5-11.2 11.2s5 11.2 11.2 11.2 11.2-5 11.2-11.2V48.4c0-1-.8-1.9-1.8-1.9m-2 19c0 4.1-3.3 7.5-7.5 7.5-4.1 0-7.5-3.3-7.5-7.5s3.3-7.5 7.5-7.5c4.2.1 7.5 3.5 7.5 7.5M67.8 41.6c2 0 3.8.2 5.7.7.5.1 1-.2 1.2-.6.2-.6-.1-1.2-.7-1.3-2-.5-4-.7-6.1-.7s-4.1.3-6 .7c-.6.1-.9.8-.7 1.3s.7.7 1.2.6c1.6-.5 3.5-.7 5.4-.7M80 44.3c-.1.4.1.8.5 1 6.8 4.3 11.3 12 11.1 20.8-.4 12.6-10.8 22.9-23.4 23.1C54.9 89.4 44 78.6 44 65.4c0-8.5 4.5-16 11.2-20.2.3-.2.5-.6.5-1-.1-.7-.9-1.1-1.5-.7-7.6 4.8-12.6 13.4-12.1 23.1.6 13.2 11.3 23.9 24.5 24.5 14.8.7 27-11.1 27-25.8 0-9.2-4.8-17.2-12-21.8-.6-.3-1.4.1-1.6.8"/><path class="st0" d="M58.9 52c-.6-3.9-1.2-7.9-1.8-11.1-1.5.1-3-.9-3.4-2.5-.5-1.8.6-3.6 2.5-4.1 1.7-.4 3.5.7 4 2.4.4 1.5-.3 3.1-1.7 3.8l4 10.5c-1.2.2-2.4.6-3.6 1zm14.2-1 4-10.5c-1.4-.7-2.1-2.3-1.7-3.8.5-1.8 2.4-2.9 4.2-2.3 1.6.5 2.6 2.2 2.3 3.8-.3 1.7-1.8 2.8-3.4 2.7-.5 3.3-1.1 7.3-1.8 11.2-1.1-.5-2.3-.8-3.6-1.1z"/><path class="st0" d="m86.5 64.2.6-4.7c.1-.5-.1-1-.5-1.4-2.2-2.1-4.8-3.8-7.6-5.1-1.8-.9-3.8-1.6-5.9-2-1.3-.3-2.6-.4-3.8-.5h-1.5c-1.6 0-3.1.1-4.6.4-3.2.6-6.3 1.7-9.1 3.3-1.8 1.1-3.5 2.4-5.1 3.8-.4.4-.6.9-.5 1.4L51 79.1c4 4.9 10.1 8 16.8 8 6.8 0 12.9-3.1 16.8-8l.4-3c2.3-1.2 3.7-3.7 3.7-6.5 0-2-.8-4-2.2-5.4zM65.4 75c-.7.4-1.6.6-2.5.6-3.1 0-5.5-2.5-5.5-5.9s2.4-5.9 5.5-5.9c1.4 0 2.6.5 3.5 1.3 1.2 1.1 1.9 2.7 1.9 4.5.1 2.4-1.1 4.4-2.9 5.4zm18.9 0c-.7.4-1.6.6-2.5.6-3.1 0-5.5-2.5-5.5-5.9s2.4-5.9 5.5-5.9c1.4 0 2.6.5 3.5 1.3 1.2 1.1 1.9 2.7 1.9 4.5.2 2.4-1 4.4-2.9 5.4z"/><path class="st0" d="M82.3 67.5c-.4-.5-.9-.8-1.4-.8-.6 0-1 .2-1.4.8-.4.6-.6 1.2-.6 2s.2 1.5.6 2.1.8.8 1.4.9c.6 0 1.1-.3 1.5-.8s.6-1.2.6-2c-.1-1-.3-1.6-.7-2.2m-1.1 1.8c-.4 0-.7-.3-.7-.7 0-.4.3-.7.7-.7.4 0 .7.3.7.7s-.3.7-.7.7m-17.8-1.8c-.4-.5-.9-.8-1.4-.8-.6 0-1 .2-1.4.8-.4.6-.6 1.2-.6 2s.2 1.5.6 2.1c.4.6.8.8 1.4.9.6 0 1.1-.3 1.5-.8s.6-1.2.6-2c-.2-1-.3-1.6-.7-2.2m-1.1 1.8c-.4 0-.7-.3-.7-.7 0-.4.3-.7.7-.7s.7.3.7.7-.3.7-.7.7"/></svg>