<svg width="160" height="64" viewBox="0 0 160 64" fill="none" xmlns="http://www.w3.org/2000/svg">
<path d="M30.603 26.5949H26.3357L23.3153 34.8801L20.2396 26.5949H16L21.6528 40.2003H24.9779L30.603 26.5949Z" fill="#748FB5"/>
<path d="M43.5936 32.8018C43.5936 29.1719 40.7118 26.3178 37.0264 26.3178C33.0639 26.3178 29.9604 29.3658 29.9604 33.3283C29.9604 37.3739 33.1193 40.4774 37.1095 40.4774C39.9359 40.4774 42.2081 39.4244 43.2056 37.6233L40.1576 35.7668C39.6865 36.598 38.4119 37.1522 37.1926 37.1522C35.3361 37.1522 34.0615 36.1824 33.7012 34.3259H43.4827C43.5659 33.7994 43.5936 33.2729 43.5936 32.8018ZM33.7567 31.832C34.1169 30.3634 35.1976 29.4767 36.8324 29.4767C38.2733 29.4767 39.5203 30.4742 39.6865 31.832H33.7567Z" fill="#748FB5"/>
<path d="M48.9915 20.8036H45.0845V40.2003H48.9915V20.8036Z" fill="#748FB5"/>
<path d="M57.4243 26.3178C53.4064 26.3178 50.3584 29.3658 50.3584 33.4114C50.3584 37.457 53.4064 40.4774 57.4243 40.4774C61.4145 40.4774 64.4903 37.457 64.4903 33.4114C64.4903 29.3658 61.4145 26.3178 57.4243 26.3178ZM57.4243 30.0586C59.2532 30.0586 60.6663 31.4718 60.6663 33.4114C60.6663 35.2957 59.2532 36.7366 57.4243 36.7366C55.5678 36.7366 54.1823 35.2957 54.1823 33.4114C54.1823 31.4718 55.5678 30.0586 57.4243 30.0586Z" fill="#748FB5"/>
<path d="M78.8293 36.5703L75.3656 35.0186C74.8392 36.0993 73.7585 36.7366 72.4284 36.7366C70.4888 36.7366 69.1033 35.2957 69.1033 33.4114C69.1033 31.4995 70.4888 30.0586 72.4284 30.0586C73.6199 30.0586 74.6175 30.6405 75.1163 31.5549L78.4137 29.6706C77.333 27.6478 75.0885 26.3178 72.4284 26.3178C68.3551 26.3178 65.2793 29.3658 65.2793 33.4114C65.2793 37.457 68.3551 40.4774 72.4284 40.4774C75.3379 40.4774 77.8041 38.9257 78.8293 36.5703Z" fill="#748FB5"/>
<path d="M81.9913 20C80.6889 20 79.6082 21.0807 79.6082 22.3553C79.6082 23.6577 80.6889 24.7383 81.9913 24.7383C83.2936 24.7383 84.3743 23.6577 84.3743 22.3553C84.3743 21.0807 83.2936 20 81.9913 20ZM80.0516 26.5949V40.2003H83.9586V26.5949H80.0516Z" fill="#748FB5"/>
<path d="M94.6604 36.5703C94.3556 36.6812 93.8291 36.7643 93.4412 36.7643C92.3051 36.7643 91.3352 35.9607 91.3352 34.6861V30.308H94.6881V26.5949H91.3352V23.0203H87.4282V26.5949H84.9066V30.308H87.4282V34.8801C87.4282 38.3992 89.6727 40.422 92.8593 40.422C93.5797 40.422 94.3556 40.2834 94.8544 40.034L94.6604 36.5703Z" fill="#748FB5"/>
<path d="M105.425 26.5949L102.405 34.5475L99.3844 26.5949H95.1726L100.41 39.0919L97.8881 44.717H102.072L109.637 26.5949H105.425Z" fill="#748FB5"/>
<path fill-rule="evenodd" clip-rule="evenodd" d="M121 17C119.895 17 119 17.8954 119 19V39C119 43.4183 122.582 47 127 47H141C145.418 47 149 43.4183 149 39V25C149 20.5817 145.418 17 141 17H121ZM127 28.7888C127 25.0758 130.159 22 133.955 22C137.779 22 140.91 25.0758 140.91 28.7888C140.91 30.0635 140.439 31.7815 139.386 33.4718L134.288 41.6738H129.605L133.706 35.1898C133.539 35.2175 133.373 35.2175 133.207 35.2175C129.66 35.2175 127 32.5019 127 28.7888ZM130.99 28.8166C130.99 30.4514 132.293 31.7538 133.983 31.7538C135.618 31.7538 136.892 30.4514 136.892 28.8166C136.892 27.1817 135.59 25.9071 133.955 25.9071C132.293 25.9071 130.99 27.1817 130.99 28.8166Z" fill="#748FB5"/>
</svg>
