<?xml version="1.0" encoding="utf-8"?>
<!-- Generator: Adobe Illustrator 16.0.0, SVG Export Plug-In . SVG Version: 6.00 Build 0)  -->
<!DOCTYPE svg PUBLIC "-//W3C//DTD SVG 1.1//EN" "http://www.w3.org/Graphics/SVG/1.1/DTD/svg11.dtd">
<svg version="1.1" xmlns="http://www.w3.org/2000/svg" xmlns:xlink="http://www.w3.org/1999/xlink" x="0px" y="0px" width="160px"
	 height="64px" viewBox="0 0 160 64" enable-background="new 0 0 160 64" xml:space="preserve">
<g id="Layer_1" display="none">
	<path display="inline" fill="#748FB5" d="M30.603,26.595h-4.267l-3.021,8.285l-3.076-8.285H16L21.653,40.2h3.325L30.603,26.595z"/>
	<path display="inline" fill="#748FB5" d="M43.594,32.802c0-3.63-2.882-6.484-6.567-6.484c-3.962,0-7.066,3.048-7.066,7.01
		c0,4.046,3.159,7.149,7.149,7.149c2.827,0,5.099-1.054,6.096-2.854l-3.048-1.856c-0.471,0.831-1.746,1.386-2.965,1.386
		c-1.856,0-3.131-0.97-3.491-2.826h9.782C43.566,33.799,43.594,33.273,43.594,32.802z M33.757,31.832
		c0.36-1.469,1.441-2.355,3.076-2.355c1.441,0,2.688,0.998,2.854,2.355H33.757z"/>
	<path display="inline" fill="#748FB5" d="M48.992,20.804h-3.907V40.2h3.907V20.804z"/>
	<path display="inline" fill="#748FB5" d="M57.424,26.318c-4.018,0-7.066,3.048-7.066,7.093c0,4.046,3.048,7.066,7.066,7.066
		c3.99,0,7.066-3.021,7.066-7.066C64.49,29.366,61.415,26.318,57.424,26.318z M57.424,30.059c1.829,0,3.242,1.413,3.242,3.353
		c0,1.885-1.413,3.325-3.242,3.325c-1.856,0-3.242-1.44-3.242-3.325C54.182,31.472,55.568,30.059,57.424,30.059z"/>
	<path display="inline" fill="#748FB5" d="M78.829,36.57l-3.463-1.552c-0.526,1.081-1.607,1.718-2.938,1.718
		c-1.939,0-3.325-1.44-3.325-3.325c0-1.912,1.385-3.353,3.325-3.353c1.192,0,2.189,0.582,2.688,1.496l3.297-1.884
		c-1.081-2.022-3.325-3.353-5.985-3.353c-4.073,0-7.149,3.048-7.149,7.093c0,4.046,3.076,7.066,7.149,7.066
		C75.338,40.478,77.804,38.926,78.829,36.57z"/>
	<path display="inline" fill="#748FB5" d="M81.991,20c-1.302,0-2.383,1.081-2.383,2.355c0,1.302,1.081,2.383,2.383,2.383
		s2.384-1.081,2.384-2.383C84.375,21.081,83.293,20,81.991,20z M80.052,26.595V40.2h3.907V26.595H80.052z"/>
	<path display="inline" fill="#748FB5" d="M94.66,36.57c-0.305,0.111-0.831,0.193-1.219,0.193c-1.137,0-2.106-0.803-2.106-2.078
		v-4.377h3.353v-3.713h-3.353v-3.574h-3.907v3.574h-2.521v3.713h2.521v4.572c0,3.52,2.245,5.542,5.432,5.542
		c0.721,0,1.496-0.139,1.995-0.388L94.66,36.57z"/>
	<path display="inline" fill="#748FB5" d="M105.425,26.595l-3.021,7.952l-3.02-7.952h-4.213l5.238,12.497l-2.521,5.625h4.184
		l7.564-18.122H105.425z"/>
	<path display="inline" fill="#748FB5" d="M121,17c-1.105,0-2,0.896-2,2v20c0,4.418,3.582,8,8,8h14c4.418,0,8-3.582,8-8V25
		c0-4.418-3.582-8-8-8H121z M127,28.789c0-3.713,3.159-6.789,6.955-6.789c3.824,0,6.955,3.076,6.955,6.789
		c0,1.274-0.471,2.992-1.523,4.683l-5.099,8.202h-4.683l4.101-6.484c-0.167,0.028-0.333,0.028-0.499,0.028
		C129.66,35.218,127,32.502,127,28.789z M130.99,28.816c0,1.635,1.303,2.938,2.992,2.938c1.636,0,2.91-1.303,2.91-2.938
		s-1.303-2.909-2.938-2.909C132.293,25.907,130.99,27.182,130.99,28.816z"/>
</g>
<g id="Layer_2">
	<path fill="#748FB5" d="M48.82,36.354l3.251-0.887c0.054,0.715,0.388,1.381,0.931,1.852c0.636,0.527,1.447,0.795,2.272,0.749
		c0.615,0.035,1.225-0.131,1.736-0.474c0.192-0.127,0.35-0.301,0.459-0.504c0.11-0.203,0.167-0.431,0.169-0.662
		c0.001-0.191-0.041-0.38-0.121-0.554c-0.081-0.173-0.199-0.327-0.346-0.45c-0.401-0.316-0.879-0.52-1.385-0.588l-2.334-0.523
		c-1.2-0.222-2.298-0.82-3.133-1.71c-0.722-0.807-1.114-1.856-1.096-2.939c-0.001-0.676,0.15-1.343,0.44-1.954
		c0.291-0.61,0.715-1.147,1.24-1.573c1.137-0.988,2.604-1.513,4.111-1.472c0.766-0.009,1.528,0.097,2.263,0.313
		c0.59,0.167,1.149,0.427,1.655,0.772c0.417,0.3,0.787,0.66,1.096,1.07c0.273,0.35,0.5,0.732,0.677,1.139
		c0.14,0.336,0.239,0.687,0.295,1.046l-3.089,0.888c-0.035-0.255-0.109-0.503-0.221-0.734c-0.128-0.266-0.292-0.514-0.488-0.735
		c-0.242-0.267-0.544-0.471-0.881-0.596c-0.417-0.16-0.86-0.238-1.307-0.229c-0.588-0.021-1.164,0.166-1.626,0.53
		c-0.198,0.146-0.36,0.336-0.472,0.555c-0.112,0.219-0.172,0.461-0.175,0.707c-0.002,0.194,0.036,0.387,0.11,0.567
		c0.075,0.18,0.186,0.342,0.326,0.477c0.321,0.306,0.729,0.507,1.167,0.576l2.378,0.488c1.241,0.203,2.389,0.785,3.287,1.664
		c0.75,0.777,1.161,1.819,1.143,2.898c0,0.65-0.126,1.294-0.373,1.896c-0.255,0.622-0.618,1.194-1.072,1.689
		c-0.515,0.547-1.146,0.971-1.848,1.242c-0.815,0.323-1.686,0.484-2.563,0.472c-0.986,0.016-1.966-0.157-2.887-0.507
		c-0.761-0.279-1.449-0.726-2.013-1.307c-0.451-0.477-0.829-1.018-1.121-1.605C49.034,37.442,48.879,36.906,48.82,36.354z"/>
	<path fill="#748FB5" d="M61.163,28.453v-3.295h0.808c0.334,0.024,0.669-0.024,0.982-0.142s0.598-0.301,0.833-0.54
		c0.426-0.498,0.646-1.139,0.615-1.793v-2.38h3.394v4.854h3.266v3.295h-3.266v7.331c-0.025,0.272,0.004,0.547,0.087,0.807
		c0.083,0.262,0.217,0.502,0.394,0.71c0.428,0.349,0.976,0.517,1.526,0.468c0.435,0.002,0.868-0.041,1.294-0.127v3.078
		c-0.74,0.262-1.524,0.379-2.309,0.344c-0.632,0.035-1.264-0.058-1.859-0.271c-0.595-0.215-1.141-0.547-1.604-0.977
		c-0.436-0.457-0.772-1-0.99-1.592c-0.217-0.593-0.312-1.223-0.275-1.854v-7.917H61.163z"/>
	<path fill="#748FB5" d="M71.992,36.657c-0.027-0.603,0.076-1.204,0.302-1.764c0.226-0.561,0.57-1.065,1.008-1.481
		c0.963-0.85,2.164-1.385,3.441-1.532l4.04-0.615c0.778-0.098,1.167-0.452,1.167-1.061c0.008-0.308-0.055-0.613-0.184-0.894
		c-0.129-0.28-0.32-0.526-0.56-0.721c-0.646-0.464-1.437-0.687-2.23-0.627c-0.831-0.043-1.646,0.239-2.271,0.786
		c-0.564,0.523-0.911,1.238-0.973,2.004l-3.412-0.756c0.071-0.731,0.286-1.441,0.632-2.089c0.346-0.648,0.817-1.222,1.386-1.688
		c1.285-1.066,2.92-1.619,4.588-1.553c1.059-0.019,2.11,0.146,3.111,0.487c0.805,0.268,1.532,0.728,2.12,1.339
		c0.513,0.553,0.905,1.205,1.156,1.915c0.257,0.744,0.384,1.526,0.376,2.313v7.63c-0.014,0.845,0.055,1.689,0.204,2.521H82.35
		c-0.152-0.656-0.213-1.33-0.18-2.002c-0.473,0.732-1.117,1.338-1.876,1.766c-0.909,0.507-1.94,0.758-2.981,0.726
		c-1.416,0.063-2.799-0.435-3.85-1.384c-0.468-0.417-0.841-0.929-1.095-1.501C72.114,37.903,71.986,37.284,71.992,36.657z
		 M75.732,36.389c-0.004,0.269,0.047,0.536,0.152,0.784c0.105,0.248,0.261,0.471,0.457,0.655c0.228,0.204,0.495,0.362,0.784,0.464
		c0.289,0.101,0.596,0.144,0.902,0.126c0.508,0.006,1.015-0.065,1.502-0.214c0.451-0.141,0.873-0.365,1.242-0.661
		c0.398-0.334,0.699-0.771,0.87-1.261c0.219-0.62,0.323-1.274,0.309-1.932v-0.71l-4.103,0.628c-0.566,0.074-1.101,0.312-1.535,0.685
		c-0.195,0.183-0.348,0.405-0.448,0.653c-0.1,0.247-0.146,0.514-0.133,0.779V36.389z"/>
	<path fill="#748FB5" d="M88.218,40.874V25.158h3.615v1.958c0.446-0.78,1.126-1.402,1.942-1.78c0.84-0.417,1.764-0.634,2.701-0.635
		c1.002-0.019,1.99,0.221,2.873,0.696c0.832,0.453,1.494,1.165,1.885,2.027c0.517-0.878,1.267-1.596,2.166-2.077
		c0.898-0.48,1.912-0.704,2.931-0.646c0.692-0.005,1.382,0.115,2.032,0.354c0.639,0.239,1.226,0.598,1.73,1.056
		c0.557,0.521,0.98,1.167,1.236,1.883c0.316,0.858,0.471,1.767,0.456,2.68v10.198h-3.519v-9.63c0.043-0.852-0.226-1.691-0.756-2.36
		c-0.287-0.308-0.64-0.548-1.031-0.702c-0.394-0.153-0.815-0.217-1.235-0.186c-0.442-0.015-0.882,0.067-1.289,0.241
		s-0.771,0.435-1.063,0.765c-0.61,0.685-0.936,1.578-0.906,2.495v9.377h-3.74v-9.63c0.04-0.848-0.225-1.683-0.748-2.352
		c-0.286-0.312-0.641-0.555-1.034-0.71c-0.394-0.155-0.817-0.219-1.239-0.187c-0.445-0.018-0.886,0.061-1.295,0.231
		c-0.41,0.17-0.777,0.428-1.076,0.755c-0.607,0.694-0.926,1.596-0.89,2.518v9.378L88.218,40.874z"/>
	<path fill="#748FB5" d="M114.48,47.009V25.158h3.646v2.105c0.46-0.766,1.133-1.382,1.937-1.773
		c0.946-0.478,1.994-0.716,3.054-0.695c1.004-0.048,2.006,0.133,2.93,0.53c0.923,0.397,1.744,0.999,2.399,1.76
		c1.342,1.669,2.031,3.768,1.939,5.906c0.086,2.165-0.637,4.284-2.027,5.947c-0.662,0.766-1.488,1.372-2.418,1.776
		c-0.93,0.403-1.938,0.594-2.951,0.555c-0.99,0.02-1.973-0.188-2.872-0.607c-0.757-0.342-1.41-0.875-1.898-1.547v7.891
		L114.48,47.009z M118.189,32.994c-0.063,1.308,0.357,2.593,1.181,3.61c0.371,0.443,0.836,0.797,1.362,1.034
		s1.101,0.353,1.678,0.337c0.578,0.018,1.154-0.098,1.683-0.334c0.528-0.235,0.996-0.588,1.37-1.029
		c0.826-1.02,1.246-2.308,1.182-3.618c0.062-1.287-0.356-2.553-1.174-3.552c-0.377-0.439-0.849-0.788-1.379-1.021
		c-0.529-0.233-1.105-0.344-1.685-0.325c-0.576-0.016-1.149,0.098-1.675,0.333c-0.526,0.235-0.994,0.585-1.365,1.024
		c-0.817,0.994-1.237,2.253-1.178,3.539V32.994z"/>
	<path fill="#748FB5" d="M130.658,36.354l3.251-0.887c0.054,0.715,0.389,1.381,0.931,1.852c0.637,0.527,1.448,0.795,2.273,0.749
		c0.615,0.035,1.225-0.132,1.736-0.474c0.192-0.127,0.35-0.301,0.459-0.504c0.11-0.203,0.168-0.431,0.17-0.662
		c0-0.191-0.041-0.38-0.121-0.554c-0.082-0.173-0.199-0.327-0.346-0.45c-0.4-0.316-0.88-0.52-1.386-0.588l-2.334-0.523
		c-1.2-0.222-2.298-0.82-3.132-1.71c-0.723-0.807-1.115-1.856-1.098-2.939c0-0.676,0.15-1.343,0.44-1.954
		c0.291-0.61,0.715-1.147,1.24-1.573c1.138-0.988,2.604-1.513,4.11-1.472c0.767-0.009,1.528,0.097,2.264,0.313
		c0.59,0.166,1.148,0.427,1.654,0.772c0.418,0.3,0.787,0.661,1.098,1.07c0.271,0.35,0.499,0.732,0.676,1.139
		c0.139,0.336,0.238,0.687,0.295,1.046l-3.089,0.888c-0.034-0.255-0.108-0.503-0.22-0.734c-0.129-0.266-0.295-0.513-0.489-0.735
		c-0.242-0.267-0.544-0.471-0.881-0.596c-0.417-0.16-0.861-0.238-1.308-0.229c-0.586-0.021-1.162,0.166-1.625,0.53
		c-0.197,0.146-0.359,0.335-0.472,0.555c-0.112,0.219-0.173,0.461-0.175,0.707c-0.002,0.194,0.035,0.387,0.109,0.567
		c0.076,0.18,0.187,0.342,0.326,0.477c0.322,0.306,0.729,0.507,1.168,0.576l2.377,0.488c1.242,0.203,2.391,0.785,3.289,1.664
		c0.748,0.777,1.16,1.819,1.142,2.898c0,0.65-0.127,1.294-0.373,1.896c-0.255,0.623-0.618,1.194-1.072,1.689
		c-0.515,0.547-1.146,0.971-1.848,1.242c-0.813,0.323-1.685,0.484-2.562,0.472c-0.986,0.016-1.968-0.156-2.889-0.507
		c-0.762-0.279-1.449-0.726-2.012-1.307c-0.451-0.477-0.829-1.018-1.121-1.605C130.874,37.442,130.719,36.905,130.658,36.354z"/>
	<path fill="#748FB5" d="M21.659,24.871c0.016-0.043,0.028-0.087,0.035-0.132c0.114-0.807,0.529-1.54,1.163-2.053
		c0.449-0.357,0.986-0.587,1.554-0.667c0.038-0.005,0.075-0.015,0.11-0.028c0.112-0.011,0.224-0.017,0.336-0.017
		c0.774-0.005,1.523,0.274,2.106,0.783c0.583,0.509,0.958,1.214,1.057,1.981c0.01,0.122,0.067,0.235,0.157,0.316
		c0.091,0.082,0.209,0.126,0.331,0.125h0.116c0.122,0.002,0.241-0.042,0.331-0.124c0.091-0.082,0.147-0.195,0.157-0.317
		c0.094-0.765,0.466-1.469,1.045-1.979c0.58-0.51,1.326-0.789,2.097-0.785c0.774-0.005,1.523,0.274,2.106,0.783
		c0.583,0.509,0.959,1.214,1.057,1.981c0.01,0.122,0.066,0.235,0.157,0.316c0.091,0.082,0.209,0.126,0.331,0.125h0.09
		c0.123,0.002,0.241-0.042,0.332-0.124c0.091-0.082,0.147-0.195,0.157-0.317c0.098-0.764,0.471-1.465,1.049-1.974
		c0.579-0.509,1.323-0.79,2.093-0.79c0.833,0,1.632,0.325,2.228,0.907c0.583,0.596,0.91,1.396,0.909,2.229
		c0,0.77-0.281,1.513-0.791,2.091c-0.509,0.578-1.212,0.95-1.977,1.047c-0.122,0.01-0.236,0.066-0.317,0.157
		c-0.083,0.091-0.127,0.209-0.125,0.332v0.089c-0.002,0.122,0.043,0.24,0.125,0.331c0.082,0.09,0.195,0.146,0.317,0.157
		c0.768,0.098,1.474,0.473,1.983,1.055c0.51,0.582,0.789,1.331,0.784,2.103c0.004,0.771-0.276,1.517-0.786,2.096
		c-0.51,0.578-1.215,0.949-1.981,1.043c-0.122,0.01-0.236,0.066-0.317,0.156c-0.083,0.091-0.127,0.209-0.125,0.332v0.116
		c-0.001,0.122,0.043,0.24,0.125,0.331c0.082,0.09,0.195,0.146,0.317,0.156c0.768,0.099,1.474,0.474,1.983,1.056
		c0.51,0.581,0.789,1.33,0.784,2.103c0,0.104-0.005,0.207-0.015,0.309c-0.017,0.043-0.028,0.087-0.036,0.133
		c-0.113,0.807-0.528,1.54-1.162,2.053c-0.449,0.357-0.986,0.587-1.555,0.666c-0.037,0.006-0.074,0.015-0.109,0.026
		c-0.112,0.013-0.225,0.019-0.337,0.019c-0.774,0.004-1.523-0.274-2.105-0.783c-0.583-0.51-0.958-1.214-1.057-1.98
		c-0.011-0.122-0.067-0.235-0.157-0.317c-0.091-0.081-0.209-0.126-0.331-0.124h-0.117c-0.123-0.002-0.241,0.042-0.332,0.124
		c-0.09,0.082-0.146,0.195-0.157,0.317c-0.094,0.765-0.466,1.469-1.045,1.979s-1.326,0.789-2.097,0.785
		c-0.774,0.004-1.523-0.274-2.106-0.783c-0.583-0.51-0.958-1.214-1.057-1.98c-0.01-0.122-0.067-0.235-0.157-0.317
		c-0.091-0.081-0.209-0.126-0.331-0.124h-0.09c-0.123-0.002-0.241,0.042-0.332,0.124s-0.147,0.195-0.157,0.317
		c-0.097,0.764-0.47,1.465-1.048,1.974c-0.579,0.509-1.323,0.79-2.094,0.79c-0.834,0.001-1.636-0.325-2.233-0.908
		c-0.583-0.596-0.91-1.396-0.909-2.229c0-0.771,0.281-1.514,0.791-2.092c0.509-0.578,1.212-0.95,1.977-1.047
		c0.122-0.01,0.236-0.066,0.318-0.156c0.082-0.092,0.126-0.209,0.125-0.332v-0.09c0.001-0.122-0.043-0.24-0.125-0.33
		c-0.082-0.091-0.195-0.146-0.317-0.157c-0.768-0.099-1.473-0.474-1.983-1.056c-0.51-0.581-0.789-1.33-0.784-2.103
		c-0.003-0.771,0.276-1.517,0.786-2.095s1.215-0.95,1.981-1.044c0.122-0.01,0.236-0.065,0.318-0.156
		c0.082-0.09,0.126-0.209,0.125-0.332v-0.116c0.001-0.122-0.043-0.24-0.125-0.331c-0.082-0.09-0.195-0.146-0.317-0.157
		c-0.768-0.098-1.473-0.474-1.983-1.056c-0.51-0.582-0.789-1.33-0.784-2.103c0-0.104,0.005-0.206,0.016-0.308H21.659z
		 M24.413,20.995c-0.039-0.01-0.079-0.017-0.119-0.021c-1.059,0.147-2.022,0.688-2.699,1.515c-0.511,0.608-0.84,1.348-0.948,2.134
		c0.003,0.034,0.008,0.068,0.016,0.101c-0.014,0.136-0.021,0.272-0.021,0.408c0.006,0.756,0.215,1.497,0.603,2.146
		c0.388,0.649,0.943,1.183,1.606,1.547c-0.664,0.364-1.218,0.898-1.607,1.547c-0.388,0.649-0.596,1.39-0.603,2.146
		c0.006,0.757,0.215,1.497,0.603,2.146c0.388,0.648,0.943,1.183,1.606,1.547c-0.667,0.359-1.226,0.892-1.615,1.542
		c-0.389,0.65-0.594,1.394-0.595,2.151c0,0.117,0.005,0.232,0.014,0.349c-0.013,0.054-0.017,0.108-0.012,0.163
		c0.123,0.924,0.549,1.779,1.21,2.437c0.658,0.661,1.515,1.085,2.439,1.209c0.055,0.005,0.11,0,0.165-0.013
		c0.115,0.01,0.231,0.014,0.349,0.014c0.758,0,1.502-0.205,2.153-0.594s1.185-0.945,1.544-1.612
		c0.364,0.663,0.898,1.217,1.548,1.604c0.65,0.389,1.392,0.596,2.149,0.602c0.757-0.006,1.499-0.213,2.149-0.602
		c0.65-0.388,1.185-0.941,1.549-1.604c0.364,0.663,0.899,1.217,1.549,1.604c0.65,0.389,1.392,0.596,2.148,0.602
		c0.134,0,0.27-0.006,0.397-0.018c0.039,0.01,0.079,0.016,0.119,0.02c1.057-0.148,2.019-0.688,2.694-1.514
		c0.511-0.608,0.84-1.348,0.949-2.135c-0.002-0.034-0.008-0.068-0.016-0.102c0.014-0.135,0.02-0.269,0.02-0.408
		c-0.006-0.756-0.214-1.496-0.602-2.146s-0.943-1.183-1.606-1.547c0.664-0.364,1.218-0.897,1.606-1.547s0.596-1.391,0.602-2.146
		c-0.006-0.756-0.214-1.497-0.602-2.146s-0.943-1.183-1.606-1.547c0.667-0.359,1.226-0.893,1.614-1.542
		c0.389-0.65,0.594-1.394,0.594-2.151c0-0.117-0.004-0.234-0.013-0.349c0.012-0.054,0.016-0.108,0.013-0.163
		c-0.123-0.924-0.549-1.78-1.211-2.437c-0.657-0.661-1.514-1.086-2.438-1.209c-0.055-0.004-0.11,0-0.164,0.013
		c-0.115-0.01-0.232-0.014-0.35-0.014c-0.758,0-1.502,0.206-2.153,0.594c-0.651,0.388-1.184,0.945-1.543,1.612
		C35.535,22.52,35,21.966,34.35,21.578c-0.65-0.388-1.392-0.596-2.149-0.602c-0.757,0.006-1.499,0.214-2.149,0.602
		c-0.649,0.388-1.184,0.941-1.548,1.604c-0.364-0.663-0.899-1.217-1.549-1.605c-0.65-0.388-1.392-0.596-2.149-0.602
		c-0.134,0-0.269,0.006-0.396,0.019H24.413z"/>
	<path fill="#748FB5" d="M40.138,44.853l-0.083-0.006c-0.034,0-0.069-0.008-0.104-0.012c-0.117,0.008-0.235,0.012-0.353,0.012
		c-0.911-0.001-1.804-0.254-2.58-0.73c-0.413-0.252-0.788-0.563-1.114-0.92c-0.469,0.516-1.041,0.929-1.677,1.213
		c-0.637,0.284-1.327,0.434-2.024,0.438c-0.911-0.001-1.804-0.254-2.58-0.73c-0.412-0.252-0.786-0.561-1.111-0.918
		c-0.323,0.357-0.695,0.666-1.106,0.918c-0.782,0.479-1.681,0.73-2.598,0.73c-0.104,0-0.209,0-0.313-0.01
		c-0.086,0.011-0.174,0.013-0.261,0.006h-0.022h-0.022c-0.551-0.074-1.086-0.238-1.583-0.487c-0.483-0.242-0.924-0.562-1.305-0.944
		c-0.383-0.38-0.703-0.82-0.944-1.303c-0.25-0.496-0.415-1.03-0.488-1.581v-0.022v-0.022c-0.006-0.087-0.005-0.173,0.005-0.26
		c-0.006-0.104-0.009-0.209-0.009-0.312c0-0.916,0.252-1.814,0.731-2.595c0.251-0.411,0.561-0.784,0.919-1.106
		c-0.358-0.324-0.667-0.697-0.919-1.109c-0.477-0.775-0.73-1.667-0.731-2.577c0.004-0.696,0.154-1.385,0.438-2.021
		c0.285-0.636,0.698-1.207,1.214-1.675c-0.358-0.326-0.668-0.7-0.921-1.113c-0.477-0.775-0.73-1.667-0.731-2.576
		c0-0.125,0.004-0.25,0.015-0.375c-0.004-0.025-0.006-0.05-0.008-0.075l-0.006-0.083l0.011-0.083
		c0.128-0.931,0.517-1.807,1.122-2.527c0.8-0.98,1.941-1.621,3.195-1.793l0.083-0.012l0.083,0.006c0.034,0,0.068,0.007,0.103,0.012
		c0.117-0.008,0.236-0.013,0.353-0.013c0.911,0.001,1.804,0.254,2.581,0.731c0.413,0.252,0.788,0.563,1.113,0.92
		c0.469-0.516,1.04-0.929,1.677-1.213s1.327-0.434,2.024-0.438c0.911,0.001,1.804,0.254,2.58,0.731
		c0.412,0.252,0.786,0.561,1.112,0.917c0.323-0.357,0.695-0.666,1.106-0.917c0.782-0.478,1.681-0.731,2.597-0.731
		c0.104,0,0.209,0,0.313,0.01c0.087-0.011,0.174-0.012,0.261-0.005h0.021h0.022c0.551,0.074,1.086,0.238,1.583,0.487
		c0.483,0.242,0.924,0.561,1.306,0.944c0.384,0.38,0.703,0.82,0.944,1.303c0.249,0.496,0.414,1.03,0.487,1.581v0.022v0.022
		c0.006,0.087,0.004,0.174-0.006,0.26c0.006,0.104,0.01,0.208,0.01,0.312c0,0.916-0.253,1.813-0.732,2.594
		c-0.251,0.411-0.561,0.783-0.918,1.105c0.357,0.325,0.667,0.699,0.918,1.11c0.477,0.775,0.73,1.667,0.732,2.576
		c-0.004,0.697-0.154,1.386-0.438,2.021c-0.284,0.637-0.698,1.207-1.214,1.676c0.358,0.325,0.668,0.699,0.921,1.112
		c0.477,0.774,0.73,1.667,0.732,2.577c0,0.125-0.004,0.25-0.015,0.374c0,0.024,0.006,0.051,0.008,0.076l0.006,0.083l-0.012,0.082
		c-0.128,0.931-0.516,1.807-1.121,2.527c-0.8,0.979-1.942,1.62-3.196,1.793L40.138,44.853z M37.168,40.211
		c0.075,0.577,0.359,1.106,0.798,1.489c0.439,0.381,1.004,0.59,1.586,0.584c0.064,0,0.126,0,0.189-0.008
		c0.042-0.01,0.084-0.02,0.127-0.026h0.023c0.427-0.06,0.83-0.233,1.167-0.501c0.479-0.387,0.792-0.94,0.877-1.549v-0.022
		c0.009-0.054,0.021-0.106,0.035-0.157c0-0.052,0.006-0.104,0.006-0.154c0.005-0.582-0.203-1.146-0.586-1.586
		c-0.383-0.438-0.913-0.723-1.491-0.797c-0.312-0.033-0.601-0.18-0.811-0.414c-0.209-0.233-0.324-0.536-0.322-0.85v-0.117
		c-0.002-0.307,0.107-0.604,0.31-0.835s0.482-0.381,0.787-0.42h0.022h0.023c0.573-0.075,1.098-0.355,1.479-0.79
		c0.38-0.434,0.589-0.991,0.586-1.568c0.005-0.582-0.203-1.146-0.586-1.585c-0.382-0.439-0.913-0.723-1.491-0.798
		c-0.312-0.032-0.601-0.18-0.811-0.413c-0.209-0.234-0.324-0.537-0.322-0.851v-0.089c-0.003-0.307,0.107-0.604,0.31-0.835
		c0.202-0.231,0.481-0.381,0.787-0.42h0.022h0.023c0.57-0.081,1.093-0.363,1.472-0.796s0.59-0.987,0.593-1.563
		c0.001-0.626-0.242-1.228-0.68-1.677c-0.449-0.437-1.052-0.68-1.679-0.679c-0.578-0.002-1.136,0.206-1.571,0.586
		c-0.435,0.379-0.716,0.905-0.791,1.477v0.023v0.022c-0.039,0.304-0.189,0.584-0.42,0.786s-0.529,0.312-0.836,0.309h-0.09
		c-0.314,0.002-0.618-0.113-0.852-0.322s-0.381-0.498-0.414-0.81c-0.075-0.578-0.359-1.107-0.799-1.489
		c-0.44-0.382-1.004-0.59-1.587-0.585c-0.578-0.002-1.136,0.206-1.571,0.585c-0.435,0.38-0.716,0.905-0.791,1.477v0.023v0.022
		c-0.039,0.305-0.189,0.584-0.42,0.786c-0.231,0.202-0.529,0.312-0.836,0.31h-0.116c-0.314,0.002-0.618-0.113-0.852-0.322
		c-0.234-0.209-0.382-0.498-0.415-0.81c-0.075-0.577-0.359-1.107-0.799-1.489c-0.439-0.382-1.004-0.59-1.586-0.585
		c-0.063,0-0.127,0-0.189,0.008c-0.042,0.011-0.084,0.02-0.127,0.027h-0.023c-0.427,0.06-0.83,0.232-1.167,0.501
		c-0.479,0.386-0.793,0.94-0.877,1.549v0.022c-0.009,0.053-0.021,0.106-0.035,0.158c0,0.051-0.004,0.103-0.004,0.154
		c-0.005,0.582,0.203,1.146,0.585,1.584s0.913,0.723,1.49,0.798c0.313,0.032,0.601,0.18,0.811,0.413
		c0.209,0.234,0.325,0.537,0.323,0.85v0.117c0.002,0.307-0.107,0.604-0.31,0.835c-0.202,0.231-0.481,0.381-0.786,0.42h-0.023h-0.023
		c-0.573,0.075-1.099,0.355-1.479,0.79c-0.38,0.434-0.588,0.993-0.586,1.569c-0.005,0.582,0.203,1.146,0.585,1.584
		c0.383,0.439,0.913,0.724,1.491,0.798c0.312,0.033,0.601,0.181,0.811,0.414c0.209,0.234,0.324,0.537,0.322,0.85v0.09
		c0.003,0.307-0.107,0.604-0.309,0.836c-0.202,0.23-0.481,0.381-0.786,0.42h-0.023h-0.023c-0.57,0.08-1.093,0.363-1.472,0.796
		s-0.59,0.987-0.593,1.563c-0.002,0.626,0.242,1.228,0.679,1.677c0.449,0.437,1.052,0.68,1.679,0.678
		c0.576-0.004,1.131-0.214,1.564-0.593c0.433-0.378,0.716-0.899,0.797-1.47v-0.023l0.004-0.023c0.04-0.304,0.189-0.583,0.42-0.784
		c0.232-0.202,0.529-0.312,0.836-0.31h0.09c0.314-0.002,0.618,0.113,0.852,0.322s0.382,0.498,0.414,0.81
		c0.075,0.577,0.359,1.106,0.799,1.489c0.44,0.382,1.004,0.59,1.587,0.584c0.578,0.003,1.136-0.205,1.571-0.586
		c0.435-0.379,0.716-0.904,0.791-1.477v-0.023l0.004-0.021c0.039-0.305,0.189-0.584,0.42-0.786s0.529-0.312,0.836-0.31h0.117
		c0.313,0,0.615,0.116,0.847,0.326C36.99,39.612,37.136,39.899,37.168,40.211z"/>
	<path fill="#748FB5" d="M32.215,35.579c-0.567,0.002-1.129-0.109-1.653-0.326c-0.524-0.216-1-0.534-1.399-0.936
		c-0.402-0.399-0.721-0.875-0.938-1.398s-0.328-1.085-0.326-1.651c0-0.254,0.101-0.498,0.28-0.677c0.18-0.179,0.423-0.28,0.678-0.28
		c0.254,0,0.498,0.101,0.677,0.28c0.18,0.18,0.28,0.423,0.28,0.677c0.001,0.635,0.254,1.245,0.705,1.695
		c0.45,0.449,1.06,0.701,1.696,0.702c0.636-0.001,1.247-0.253,1.697-0.702c0.45-0.45,0.703-1.06,0.704-1.695
		c0-0.126,0.024-0.25,0.073-0.367c0.048-0.116,0.119-0.222,0.208-0.311s0.195-0.16,0.311-0.208c0.116-0.048,0.241-0.073,0.367-0.073
		c0.254,0,0.498,0.101,0.677,0.28c0.18,0.18,0.281,0.423,0.281,0.677c0.001,0.566-0.109,1.127-0.327,1.651
		c-0.217,0.523-0.536,0.999-0.938,1.398c-0.4,0.401-0.876,0.719-1.4,0.936S32.782,35.581,32.215,35.579z"/>
</g>
</svg>
