<svg width="807" height="716" fill="none" xmlns="http://www.w3.org/2000/svg"><g opacity=".1" fill="#000"><path d="M0 214.5a1.5 1.5 0 1 1-3 0 1.5 1.5 0 0 1 3 0zM20 214.5a1.5 1.5 0 1 1-3 0 1.5 1.5 0 0 1 3 0zM0 234.5a1.5 1.5 0 1 1-3 0 1.5 1.5 0 0 1 3 0zM20 234.5a1.5 1.5 0 1 1-3 0 1.5 1.5 0 0 1 3 0zM0 254.5a1.5 1.5 0 1 1-3 0 1.5 1.5 0 0 1 3 0zM20 254.5a1.5 1.5 0 1 1-3 0 1.5 1.5 0 0 1 3 0zM0 274.5a1.5 1.5 0 1 1-3 0 1.5 1.5 0 0 1 3 0zM20 274.5a1.5 1.5 0 1 1-3 0 1.5 1.5 0 0 1 3 0zM0 294.5a1.5 1.5 0 1 1-3 0 1.5 1.5 0 0 1 3 0zM20 294.5a1.5 1.5 0 1 1-3 0 1.5 1.5 0 0 1 3 0zM0 314.5a1.5 1.5 0 1 1-3 0 1.5 1.5 0 0 1 3 0zM20 314.5a1.5 1.5 0 1 1-3 0 1.5 1.5 0 0 1 3 0zM0 334.5a1.5 1.5 0 1 1-3 0 1.5 1.5 0 0 1 3 0zM20 334.5a1.5 1.5 0 1 1-3 0 1.5 1.5 0 0 1 3 0zM0 354.5a1.5 1.5 0 1 1-3 0 1.5 1.5 0 0 1 3 0zM20 354.5a1.5 1.5 0 1 1-3 0 1.5 1.5 0 0 1 3 0zM0 374.5a1.5 1.5 0 1 1-3 0 1.5 1.5 0 0 1 3 0zM20 374.5a1.5 1.5 0 1 1-3 0 1.5 1.5 0 0 1 3 0zM0 394.5a1.5 1.5 0 1 1-3 0 1.5 1.5 0 0 1 3 0zM20 394.5a1.5 1.5 0 1 1-3 0 1.5 1.5 0 0 1 3 0zM0 414.5a1.5 1.5 0 1 1-3 0 1.5 1.5 0 0 1 3 0zM20 414.5a1.5 1.5 0 1 1-3 0 1.5 1.5 0 0 1 3 0zM0 434.5a1.5 1.5 0 1 1-3 0 1.5 1.5 0 0 1 3 0zM20 434.5a1.5 1.5 0 1 1-3 0 1.5 1.5 0 0 1 3 0zM40 214.5a1.5 1.5 0 1 1-3 0 1.5 1.5 0 0 1 3 0zM60 214.5a1.5 1.5 0 1 1-3 0 1.5 1.5 0 0 1 3 0zM80 214.5a1.5 1.5 0 1 1-3 0 1.5 1.5 0 0 1 3 0zM100 214.5a1.5 1.5 0 1 1-3 0 1.5 1.5 0 0 1 3 0zM120 214.5a1.5 1.5 0 1 1-3.001-.001 1.5 1.5 0 0 1 3.001.001zM140 214.5a1.5 1.5 0 1 1-3.001-.001 1.5 1.5 0 0 1 3.001.001zM160 214.5a1.5 1.5 0 1 1-3.001-.001 1.5 1.5 0 0 1 3.001.001zM180 214.5a1.5 1.5 0 1 1-3.001-.001 1.5 1.5 0 0 1 3.001.001zM200 214.5a1.5 1.5 0 1 1-3.001-.001 1.5 1.5 0 0 1 3.001.001zM220 214.5a1.5 1.5 0 1 1-3.001-.001 1.5 1.5 0 0 1 3.001.001zM240 214.5a1.5 1.5 0 1 1-3.001-.001 1.5 1.5 0 0 1 3.001.001zM260 214.5a1.5 1.5 0 1 1-3.001-.001 1.5 1.5 0 0 1 3.001.001zM280 214.5a1.5 1.5 0 1 1-3.001-.001 1.5 1.5 0 0 1 3.001.001zM300 214.5a1.5 1.5 0 1 1-3.001-.001 1.5 1.5 0 0 1 3.001.001zM320 214.5a1.5 1.5 0 1 1-3.001-.001 1.5 1.5 0 0 1 3.001.001zM40 234.5a1.5 1.5 0 1 1-3 0 1.5 1.5 0 0 1 3 0zM60 234.5a1.5 1.5 0 1 1-3 0 1.5 1.5 0 0 1 3 0zM80 234.5a1.5 1.5 0 1 1-3 0 1.5 1.5 0 0 1 3 0zM100 234.5a1.5 1.5 0 1 1-3 0 1.5 1.5 0 0 1 3 0zM120 234.5a1.5 1.5 0 1 1-3.001-.001 1.5 1.5 0 0 1 3.001.001zM140 234.5a1.5 1.5 0 1 1-3.001-.001 1.5 1.5 0 0 1 3.001.001zM160 234.5a1.5 1.5 0 1 1-3.001-.001 1.5 1.5 0 0 1 3.001.001zM180 234.5a1.5 1.5 0 1 1-3.001-.001 1.5 1.5 0 0 1 3.001.001zM200 234.5a1.5 1.5 0 1 1-3.001-.001 1.5 1.5 0 0 1 3.001.001zM220 234.5a1.5 1.5 0 1 1-3.001-.001 1.5 1.5 0 0 1 3.001.001zM240 234.5a1.5 1.5 0 1 1-3.001-.001 1.5 1.5 0 0 1 3.001.001zM260 234.5a1.5 1.5 0 1 1-3.001-.001 1.5 1.5 0 0 1 3.001.001zM280 234.5a1.5 1.5 0 1 1-3.001-.001 1.5 1.5 0 0 1 3.001.001zM300 234.5a1.5 1.5 0 1 1-3.001-.001 1.5 1.5 0 0 1 3.001.001zM320 234.5a1.5 1.5 0 1 1-3.001-.001 1.5 1.5 0 0 1 3.001.001zM40 254.5a1.5 1.5 0 1 1-3 0 1.5 1.5 0 0 1 3 0zM60 254.5a1.5 1.5 0 1 1-3 0 1.5 1.5 0 0 1 3 0zM80 254.5a1.5 1.5 0 1 1-3 0 1.5 1.5 0 0 1 3 0zM100 254.5a1.5 1.5 0 1 1-3 0 1.5 1.5 0 0 1 3 0zM120 254.5a1.5 1.5 0 1 1-3.001-.001 1.5 1.5 0 0 1 3.001.001zM140 254.5a1.5 1.5 0 1 1-3.001-.001 1.5 1.5 0 0 1 3.001.001zM160 254.5a1.5 1.5 0 1 1-3.001-.001 1.5 1.5 0 0 1 3.001.001zM180 254.5a1.5 1.5 0 1 1-3.001-.001 1.5 1.5 0 0 1 3.001.001zM200 254.5a1.5 1.5 0 1 1-3.001-.001 1.5 1.5 0 0 1 3.001.001zM220 254.5a1.5 1.5 0 1 1-3.001-.001 1.5 1.5 0 0 1 3.001.001zM240 254.5a1.5 1.5 0 1 1-3.001-.001 1.5 1.5 0 0 1 3.001.001zM260 254.5a1.5 1.5 0 1 1-3.001-.001 1.5 1.5 0 0 1 3.001.001zM280 254.5a1.5 1.5 0 1 1-3.001-.001 1.5 1.5 0 0 1 3.001.001zM300 254.5a1.5 1.5 0 1 1-3.001-.001 1.5 1.5 0 0 1 3.001.001zM320 254.5a1.5 1.5 0 1 1-3.001-.001 1.5 1.5 0 0 1 3.001.001zM40 274.5a1.5 1.5 0 1 1-3 0 1.5 1.5 0 0 1 3 0zM60 274.5a1.5 1.5 0 1 1-3 0 1.5 1.5 0 0 1 3 0zM80 274.5a1.5 1.5 0 1 1-3 0 1.5 1.5 0 0 1 3 0zM100 274.5a1.5 1.5 0 1 1-3 0 1.5 1.5 0 0 1 3 0zM120 274.5a1.5 1.5 0 1 1-3.001-.001 1.5 1.5 0 0 1 3.001.001zM140 274.5a1.5 1.5 0 1 1-3.001-.001 1.5 1.5 0 0 1 3.001.001zM160 274.5a1.5 1.5 0 1 1-3.001-.001 1.5 1.5 0 0 1 3.001.001zM180 274.5a1.5 1.5 0 1 1-3.001-.001 1.5 1.5 0 0 1 3.001.001zM200 274.5a1.5 1.5 0 1 1-3.001-.001 1.5 1.5 0 0 1 3.001.001zM220 274.5a1.5 1.5 0 1 1-3.001-.001 1.5 1.5 0 0 1 3.001.001zM240 274.5a1.5 1.5 0 1 1-3.001-.001 1.5 1.5 0 0 1 3.001.001zM260 274.5a1.5 1.5 0 1 1-3.001-.001 1.5 1.5 0 0 1 3.001.001zM280 274.5a1.5 1.5 0 1 1-3.001-.001 1.5 1.5 0 0 1 3.001.001zM300 274.5a1.5 1.5 0 1 1-3.001-.001 1.5 1.5 0 0 1 3.001.001zM320 274.5a1.5 1.5 0 1 1-3.001-.001 1.5 1.5 0 0 1 3.001.001zM40 294.5a1.5 1.5 0 1 1-3 0 1.5 1.5 0 0 1 3 0zM60 294.5a1.5 1.5 0 1 1-3 0 1.5 1.5 0 0 1 3 0zM80 294.5a1.5 1.5 0 1 1-3 0 1.5 1.5 0 0 1 3 0zM100 294.5a1.5 1.5 0 1 1-3 0 1.5 1.5 0 0 1 3 0zM120 294.5a1.5 1.5 0 1 1-3.001-.001 1.5 1.5 0 0 1 3.001.001zM140 294.5a1.5 1.5 0 1 1-3.001-.001 1.5 1.5 0 0 1 3.001.001zM160 294.5a1.5 1.5 0 1 1-3.001-.001 1.5 1.5 0 0 1 3.001.001zM180 294.5a1.5 1.5 0 1 1-3.001-.001 1.5 1.5 0 0 1 3.001.001zM200 294.5a1.5 1.5 0 1 1-3.001-.001 1.5 1.5 0 0 1 3.001.001zM220 294.5a1.5 1.5 0 1 1-3.001-.001 1.5 1.5 0 0 1 3.001.001zM240 294.5a1.5 1.5 0 1 1-3.001-.001 1.5 1.5 0 0 1 3.001.001zM260 294.5a1.5 1.5 0 1 1-3.001-.001 1.5 1.5 0 0 1 3.001.001zM280 294.5a1.5 1.5 0 1 1-3.001-.001 1.5 1.5 0 0 1 3.001.001zM300 294.5a1.5 1.5 0 1 1-3.001-.001 1.5 1.5 0 0 1 3.001.001zM320 294.5a1.5 1.5 0 1 1-3.001-.001 1.5 1.5 0 0 1 3.001.001zM40 314.5a1.5 1.5 0 1 1-3 0 1.5 1.5 0 0 1 3 0zM60 314.5a1.5 1.5 0 1 1-3 0 1.5 1.5 0 0 1 3 0zM80 314.5a1.5 1.5 0 1 1-3 0 1.5 1.5 0 0 1 3 0zM100 314.5a1.5 1.5 0 1 1-3 0 1.5 1.5 0 0 1 3 0zM120 314.5a1.5 1.5 0 1 1-3.001-.001 1.5 1.5 0 0 1 3.001.001zM140 314.5a1.5 1.5 0 1 1-3.001-.001 1.5 1.5 0 0 1 3.001.001zM160 314.5a1.5 1.5 0 1 1-3.001-.001 1.5 1.5 0 0 1 3.001.001zM180 314.5a1.5 1.5 0 1 1-3.001-.001 1.5 1.5 0 0 1 3.001.001zM200 314.5a1.5 1.5 0 1 1-3.001-.001 1.5 1.5 0 0 1 3.001.001zM220 314.5a1.5 1.5 0 1 1-3.001-.001 1.5 1.5 0 0 1 3.001.001zM240 314.5a1.5 1.5 0 1 1-3.001-.001 1.5 1.5 0 0 1 3.001.001zM260 314.5a1.5 1.5 0 1 1-3.001-.001 1.5 1.5 0 0 1 3.001.001zM280 314.5a1.5 1.5 0 1 1-3.001-.001 1.5 1.5 0 0 1 3.001.001zM300 314.5a1.5 1.5 0 1 1-3.001-.001 1.5 1.5 0 0 1 3.001.001zM320 314.5a1.5 1.5 0 1 1-3.001-.001 1.5 1.5 0 0 1 3.001.001zM40 334.5a1.5 1.5 0 1 1-3 0 1.5 1.5 0 0 1 3 0zM60 334.5a1.5 1.5 0 1 1-3 0 1.5 1.5 0 0 1 3 0zM80 334.5a1.5 1.5 0 1 1-3 0 1.5 1.5 0 0 1 3 0zM100 334.5a1.5 1.5 0 1 1-3 0 1.5 1.5 0 0 1 3 0zM120 334.5a1.5 1.5 0 1 1-3.001-.001 1.5 1.5 0 0 1 3.001.001zM140 334.5a1.5 1.5 0 1 1-3.001-.001 1.5 1.5 0 0 1 3.001.001zM160 334.5a1.5 1.5 0 1 1-3.001-.001 1.5 1.5 0 0 1 3.001.001zM180 334.5a1.5 1.5 0 1 1-3.001-.001 1.5 1.5 0 0 1 3.001.001zM200 334.5a1.5 1.5 0 1 1-3.001-.001 1.5 1.5 0 0 1 3.001.001zM220 334.5a1.5 1.5 0 1 1-3.001-.001 1.5 1.5 0 0 1 3.001.001zM240 334.5a1.5 1.5 0 1 1-3.001-.001 1.5 1.5 0 0 1 3.001.001zM260 334.5a1.5 1.5 0 1 1-3.001-.001 1.5 1.5 0 0 1 3.001.001zM280 334.5a1.5 1.5 0 1 1-3.001-.001 1.5 1.5 0 0 1 3.001.001zM300 334.5a1.5 1.5 0 1 1-3.001-.001 1.5 1.5 0 0 1 3.001.001zM320 334.5a1.5 1.5 0 1 1-3.001-.001 1.5 1.5 0 0 1 3.001.001zM40 354.5a1.5 1.5 0 1 1-3 0 1.5 1.5 0 0 1 3 0zM60 354.5a1.5 1.5 0 1 1-3 0 1.5 1.5 0 0 1 3 0zM80 354.5a1.5 1.5 0 1 1-3 0 1.5 1.5 0 0 1 3 0zM100 354.5a1.5 1.5 0 1 1-3 0 1.5 1.5 0 0 1 3 0zM120 354.5a1.5 1.5 0 1 1-3.001-.001 1.5 1.5 0 0 1 3.001.001zM140 354.5a1.5 1.5 0 1 1-3.001-.001 1.5 1.5 0 0 1 3.001.001zM160 354.5a1.5 1.5 0 1 1-3.001-.001 1.5 1.5 0 0 1 3.001.001zM180 354.5a1.5 1.5 0 1 1-3.001-.001 1.5 1.5 0 0 1 3.001.001zM200 354.5a1.5 1.5 0 1 1-3.001-.001 1.5 1.5 0 0 1 3.001.001zM220 354.5a1.5 1.5 0 1 1-3.001-.001 1.5 1.5 0 0 1 3.001.001zM240 354.5a1.5 1.5 0 1 1-3.001-.001 1.5 1.5 0 0 1 3.001.001zM260 354.5a1.5 1.5 0 1 1-3.001-.001 1.5 1.5 0 0 1 3.001.001zM280 354.5a1.5 1.5 0 1 1-3.001-.001 1.5 1.5 0 0 1 3.001.001zM300 354.5a1.5 1.5 0 1 1-3.001-.001 1.5 1.5 0 0 1 3.001.001zM320 354.5a1.5 1.5 0 1 1-3.001-.001 1.5 1.5 0 0 1 3.001.001zM40 374.5a1.5 1.5 0 1 1-3 0 1.5 1.5 0 0 1 3 0zM60 374.5a1.5 1.5 0 1 1-3 0 1.5 1.5 0 0 1 3 0zM80 374.5a1.5 1.5 0 1 1-3 0 1.5 1.5 0 0 1 3 0zM100 374.5a1.5 1.5 0 1 1-3 0 1.5 1.5 0 0 1 3 0zM120 374.5a1.5 1.5 0 1 1-3.001-.001 1.5 1.5 0 0 1 3.001.001zM140 374.5a1.5 1.5 0 1 1-3.001-.001 1.5 1.5 0 0 1 3.001.001zM160 374.5a1.5 1.5 0 1 1-3.001-.001 1.5 1.5 0 0 1 3.001.001zM180 374.5a1.5 1.5 0 1 1-3.001-.001 1.5 1.5 0 0 1 3.001.001zM200 374.5a1.5 1.5 0 1 1-3.001-.001 1.5 1.5 0 0 1 3.001.001zM220 374.5a1.5 1.5 0 1 1-3.001-.001 1.5 1.5 0 0 1 3.001.001zM240 374.5a1.5 1.5 0 1 1-3.001-.001 1.5 1.5 0 0 1 3.001.001zM260 374.5a1.5 1.5 0 1 1-3.001-.001 1.5 1.5 0 0 1 3.001.001zM280 374.5a1.5 1.5 0 1 1-3.001-.001 1.5 1.5 0 0 1 3.001.001zM300 374.5a1.5 1.5 0 1 1-3.001-.001 1.5 1.5 0 0 1 3.001.001zM320 374.5a1.5 1.5 0 1 1-3.001-.001 1.5 1.5 0 0 1 3.001.001zM40 394.5a1.5 1.5 0 1 1-3 0 1.5 1.5 0 0 1 3 0zM60 394.5a1.5 1.5 0 1 1-3 0 1.5 1.5 0 0 1 3 0zM80 394.5a1.5 1.5 0 1 1-3 0 1.5 1.5 0 0 1 3 0zM100 394.5a1.5 1.5 0 1 1-3 0 1.5 1.5 0 0 1 3 0zM120 394.5a1.5 1.5 0 1 1-3.001-.001 1.5 1.5 0 0 1 3.001.001zM140 394.5a1.5 1.5 0 1 1-3.001-.001 1.5 1.5 0 0 1 3.001.001zM160 394.5a1.5 1.5 0 1 1-3.001-.001 1.5 1.5 0 0 1 3.001.001zM180 394.5a1.5 1.5 0 1 1-3.001-.001 1.5 1.5 0 0 1 3.001.001zM200 394.5a1.5 1.5 0 1 1-3.001-.001 1.5 1.5 0 0 1 3.001.001zM220 394.5a1.5 1.5 0 1 1-3.001-.001 1.5 1.5 0 0 1 3.001.001zM240 394.5a1.5 1.5 0 1 1-3.001-.001 1.5 1.5 0 0 1 3.001.001zM260 394.5a1.5 1.5 0 1 1-3.001-.001 1.5 1.5 0 0 1 3.001.001zM280 394.5a1.5 1.5 0 1 1-3.001-.001 1.5 1.5 0 0 1 3.001.001zM300 394.5a1.5 1.5 0 1 1-3.001-.001 1.5 1.5 0 0 1 3.001.001zM320 394.5a1.5 1.5 0 1 1-3.001-.001 1.5 1.5 0 0 1 3.001.001zM40 414.5a1.5 1.5 0 1 1-3 0 1.5 1.5 0 0 1 3 0zM60 414.5a1.5 1.5 0 1 1-3 0 1.5 1.5 0 0 1 3 0zM80 414.5a1.5 1.5 0 1 1-3 0 1.5 1.5 0 0 1 3 0zM100 414.5a1.5 1.5 0 1 1-3 0 1.5 1.5 0 0 1 3 0zM120 414.5a1.5 1.5 0 1 1-3.001-.001 1.5 1.5 0 0 1 3.001.001zM140 414.5a1.5 1.5 0 1 1-3.001-.001 1.5 1.5 0 0 1 3.001.001zM160 414.5a1.5 1.5 0 1 1-3.001-.001 1.5 1.5 0 0 1 3.001.001zM180 414.5a1.5 1.5 0 1 1-3.001-.001 1.5 1.5 0 0 1 3.001.001zM200 414.5a1.5 1.5 0 1 1-3.001-.001 1.5 1.5 0 0 1 3.001.001zM220 414.5a1.5 1.5 0 1 1-3.001-.001 1.5 1.5 0 0 1 3.001.001zM240 414.5a1.5 1.5 0 1 1-3.001-.001 1.5 1.5 0 0 1 3.001.001zM260 414.5a1.5 1.5 0 1 1-3.001-.001 1.5 1.5 0 0 1 3.001.001zM280 414.5a1.5 1.5 0 1 1-3.001-.001 1.5 1.5 0 0 1 3.001.001zM300 414.5a1.5 1.5 0 1 1-3.001-.001 1.5 1.5 0 0 1 3.001.001zM320 414.5a1.5 1.5 0 1 1-3.001-.001 1.5 1.5 0 0 1 3.001.001zM40 434.5a1.5 1.5 0 1 1-3 0 1.5 1.5 0 0 1 3 0zM60 434.5a1.5 1.5 0 1 1-3 0 1.5 1.5 0 0 1 3 0zM80 434.5a1.5 1.5 0 1 1-3 0 1.5 1.5 0 0 1 3 0zM100 434.5a1.5 1.5 0 1 1-3 0 1.5 1.5 0 0 1 3 0zM120 434.5a1.5 1.5 0 1 1-3.001-.001 1.5 1.5 0 0 1 3.001.001zM140 434.5a1.5 1.5 0 1 1-3.001-.001 1.5 1.5 0 0 1 3.001.001zM160 434.5a1.5 1.5 0 1 1-3.001-.001 1.5 1.5 0 0 1 3.001.001zM180 434.5a1.5 1.5 0 1 1-3.001-.001 1.5 1.5 0 0 1 3.001.001zM200 434.5a1.5 1.5 0 1 1-3.001-.001 1.5 1.5 0 0 1 3.001.001zM220 434.5a1.5 1.5 0 1 1-3.001-.001 1.5 1.5 0 0 1 3.001.001zM240 434.5a1.5 1.5 0 1 1-3.001-.001 1.5 1.5 0 0 1 3.001.001zM260 434.5a1.5 1.5 0 1 1-3.001-.001 1.5 1.5 0 0 1 3.001.001zM280 434.5a1.5 1.5 0 1 1-3.001-.001 1.5 1.5 0 0 1 3.001.001zM300 434.5a1.5 1.5 0 1 1-3.001-.001 1.5 1.5 0 0 1 3.001.001zM320 434.5a1.5 1.5 0 1 1-3.001-.001 1.5 1.5 0 0 1 3.001.001zM340 214.5a1.5 1.5 0 1 1-3.001-.001 1.5 1.5 0 0 1 3.001.001zM360 214.5a1.5 1.5 0 1 1-3.001-.001 1.5 1.5 0 0 1 3.001.001zM380 214.5a1.5 1.5 0 1 1-3.001-.001 1.5 1.5 0 0 1 3.001.001zM400 214.5a1.5 1.5 0 1 1-3.001-.001 1.5 1.5 0 0 1 3.001.001zM420 214.5a1.5 1.5 0 1 1-3.001-.001 1.5 1.5 0 0 1 3.001.001zM440 214.5a1.5 1.5 0 1 1-3.001-.001 1.5 1.5 0 0 1 3.001.001zM460 214.5a1.5 1.5 0 1 1-3.001-.001 1.5 1.5 0 0 1 3.001.001zM480 214.5a1.5 1.5 0 1 1-3.001-.001 1.5 1.5 0 0 1 3.001.001zM500 214.5a1.5 1.5 0 1 1-3.001-.001 1.5 1.5 0 0 1 3.001.001zM520 214.5a1.5 1.5 0 1 1-3.001-.001 1.5 1.5 0 0 1 3.001.001zM540 214.5a1.5 1.5 0 1 1-3.001-.001 1.5 1.5 0 0 1 3.001.001zM560 214.5a1.5 1.5 0 1 1-3.001-.001 1.5 1.5 0 0 1 3.001.001zM580 214.5a1.5 1.5 0 1 1-3.001-.001 1.5 1.5 0 0 1 3.001.001zM600 214.5a1.5 1.5 0 1 1-3.001-.001 1.5 1.5 0 0 1 3.001.001zM620 214.5a1.5 1.5 0 1 1-3.001-.001 1.5 1.5 0 0 1 3.001.001zM340 234.5a1.5 1.5 0 1 1-3.001-.001 1.5 1.5 0 0 1 3.001.001zM360 234.5a1.5 1.5 0 1 1-3.001-.001 1.5 1.5 0 0 1 3.001.001zM380 234.5a1.5 1.5 0 1 1-3.001-.001 1.5 1.5 0 0 1 3.001.001zM400 234.5a1.5 1.5 0 1 1-3.001-.001 1.5 1.5 0 0 1 3.001.001zM420 234.5a1.5 1.5 0 1 1-3.001-.001 1.5 1.5 0 0 1 3.001.001zM440 234.5a1.5 1.5 0 1 1-3.001-.001 1.5 1.5 0 0 1 3.001.001zM460 234.5a1.5 1.5 0 1 1-3.001-.001 1.5 1.5 0 0 1 3.001.001zM480 234.5a1.5 1.5 0 1 1-3.001-.001 1.5 1.5 0 0 1 3.001.001zM500 234.5a1.5 1.5 0 1 1-3.001-.001 1.5 1.5 0 0 1 3.001.001zM520 234.5a1.5 1.5 0 1 1-3.001-.001 1.5 1.5 0 0 1 3.001.001zM540 234.5a1.5 1.5 0 1 1-3.001-.001 1.5 1.5 0 0 1 3.001.001zM560 234.5a1.5 1.5 0 1 1-3.001-.001 1.5 1.5 0 0 1 3.001.001zM580 234.5a1.5 1.5 0 1 1-3.001-.001 1.5 1.5 0 0 1 3.001.001zM600 234.5a1.5 1.5 0 1 1-3.001-.001 1.5 1.5 0 0 1 3.001.001zM620 234.5a1.5 1.5 0 1 1-3.001-.001 1.5 1.5 0 0 1 3.001.001zM340 254.5a1.5 1.5 0 1 1-3.001-.001 1.5 1.5 0 0 1 3.001.001zM360 254.5a1.5 1.5 0 1 1-3.001-.001 1.5 1.5 0 0 1 3.001.001zM380 254.5a1.5 1.5 0 1 1-3.001-.001 1.5 1.5 0 0 1 3.001.001zM400 254.5a1.5 1.5 0 1 1-3.001-.001 1.5 1.5 0 0 1 3.001.001zM420 254.5a1.5 1.5 0 1 1-3.001-.001 1.5 1.5 0 0 1 3.001.001zM440 254.5a1.5 1.5 0 1 1-3.001-.001 1.5 1.5 0 0 1 3.001.001zM460 254.5a1.5 1.5 0 1 1-3.001-.001 1.5 1.5 0 0 1 3.001.001zM480 254.5a1.5 1.5 0 1 1-3.001-.001 1.5 1.5 0 0 1 3.001.001zM500 254.5a1.5 1.5 0 1 1-3.001-.001 1.5 1.5 0 0 1 3.001.001zM520 254.5a1.5 1.5 0 1 1-3.001-.001 1.5 1.5 0 0 1 3.001.001zM540 254.5a1.5 1.5 0 1 1-3.001-.001 1.5 1.5 0 0 1 3.001.001zM560 254.5a1.5 1.5 0 1 1-3.001-.001 1.5 1.5 0 0 1 3.001.001zM580 254.5a1.5 1.5 0 1 1-3.001-.001 1.5 1.5 0 0 1 3.001.001zM600 254.5a1.5 1.5 0 1 1-3.001-.001 1.5 1.5 0 0 1 3.001.001zM620 254.5a1.5 1.5 0 1 1-3.001-.001 1.5 1.5 0 0 1 3.001.001zM340 274.5a1.5 1.5 0 1 1-3.001-.001 1.5 1.5 0 0 1 3.001.001zM360 274.5a1.5 1.5 0 1 1-3.001-.001 1.5 1.5 0 0 1 3.001.001zM380 274.5a1.5 1.5 0 1 1-3.001-.001 1.5 1.5 0 0 1 3.001.001zM400 274.5a1.5 1.5 0 1 1-3.001-.001 1.5 1.5 0 0 1 3.001.001zM420 274.5a1.5 1.5 0 1 1-3.001-.001 1.5 1.5 0 0 1 3.001.001zM440 274.5a1.5 1.5 0 1 1-3.001-.001 1.5 1.5 0 0 1 3.001.001zM460 274.5a1.5 1.5 0 1 1-3.001-.001 1.5 1.5 0 0 1 3.001.001zM480 274.5a1.5 1.5 0 1 1-3.001-.001 1.5 1.5 0 0 1 3.001.001zM500 274.5a1.5 1.5 0 1 1-3.001-.001 1.5 1.5 0 0 1 3.001.001zM520 274.5a1.5 1.5 0 1 1-3.001-.001 1.5 1.5 0 0 1 3.001.001zM540 274.5a1.5 1.5 0 1 1-3.001-.001 1.5 1.5 0 0 1 3.001.001zM560 274.5a1.5 1.5 0 1 1-3.001-.001 1.5 1.5 0 0 1 3.001.001zM580 274.5a1.5 1.5 0 1 1-3.001-.001 1.5 1.5 0 0 1 3.001.001zM600 274.5a1.5 1.5 0 1 1-3.001-.001 1.5 1.5 0 0 1 3.001.001zM620 274.5a1.5 1.5 0 1 1-3.001-.001 1.5 1.5 0 0 1 3.001.001zM340 294.5a1.5 1.5 0 1 1-3.001-.001 1.5 1.5 0 0 1 3.001.001zM360 294.5a1.5 1.5 0 1 1-3.001-.001 1.5 1.5 0 0 1 3.001.001zM380 294.5a1.5 1.5 0 1 1-3.001-.001 1.5 1.5 0 0 1 3.001.001zM400 294.5a1.5 1.5 0 1 1-3.001-.001 1.5 1.5 0 0 1 3.001.001zM420 294.5a1.5 1.5 0 1 1-3.001-.001 1.5 1.5 0 0 1 3.001.001zM440 294.5a1.5 1.5 0 1 1-3.001-.001 1.5 1.5 0 0 1 3.001.001zM460 294.5a1.5 1.5 0 1 1-3.001-.001 1.5 1.5 0 0 1 3.001.001zM480 294.5a1.5 1.5 0 1 1-3.001-.001 1.5 1.5 0 0 1 3.001.001zM500 294.5a1.5 1.5 0 1 1-3.001-.001 1.5 1.5 0 0 1 3.001.001zM520 294.5a1.5 1.5 0 1 1-3.001-.001 1.5 1.5 0 0 1 3.001.001zM540 294.5a1.5 1.5 0 1 1-3.001-.001 1.5 1.5 0 0 1 3.001.001zM560 294.5a1.5 1.5 0 1 1-3.001-.001 1.5 1.5 0 0 1 3.001.001zM580 294.5a1.5 1.5 0 1 1-3.001-.001 1.5 1.5 0 0 1 3.001.001zM600 294.5a1.5 1.5 0 1 1-3.001-.001 1.5 1.5 0 0 1 3.001.001zM620 294.5a1.5 1.5 0 1 1-3.001-.001 1.5 1.5 0 0 1 3.001.001zM340 314.5a1.5 1.5 0 1 1-3.001-.001 1.5 1.5 0 0 1 3.001.001zM360 314.5a1.5 1.5 0 1 1-3.001-.001 1.5 1.5 0 0 1 3.001.001zM380 314.5a1.5 1.5 0 1 1-3.001-.001 1.5 1.5 0 0 1 3.001.001zM400 314.5a1.5 1.5 0 1 1-3.001-.001 1.5 1.5 0 0 1 3.001.001zM420 314.5a1.5 1.5 0 1 1-3.001-.001 1.5 1.5 0 0 1 3.001.001zM440 314.5a1.5 1.5 0 1 1-3.001-.001 1.5 1.5 0 0 1 3.001.001zM460 314.5a1.5 1.5 0 1 1-3.001-.001 1.5 1.5 0 0 1 3.001.001zM480 314.5a1.5 1.5 0 1 1-3.001-.001 1.5 1.5 0 0 1 3.001.001zM500 314.5a1.5 1.5 0 1 1-3.001-.001 1.5 1.5 0 0 1 3.001.001zM520 314.5a1.5 1.5 0 1 1-3.001-.001 1.5 1.5 0 0 1 3.001.001zM540 314.5a1.5 1.5 0 1 1-3.001-.001 1.5 1.5 0 0 1 3.001.001zM560 314.5a1.5 1.5 0 1 1-3.001-.001 1.5 1.5 0 0 1 3.001.001zM580 314.5a1.5 1.5 0 1 1-3.001-.001 1.5 1.5 0 0 1 3.001.001zM600 314.5a1.5 1.5 0 1 1-3.001-.001 1.5 1.5 0 0 1 3.001.001zM620 314.5a1.5 1.5 0 1 1-3.001-.001 1.5 1.5 0 0 1 3.001.001zM340 334.5a1.5 1.5 0 1 1-3.001-.001 1.5 1.5 0 0 1 3.001.001zM360 334.5a1.5 1.5 0 1 1-3.001-.001 1.5 1.5 0 0 1 3.001.001zM380 334.5a1.5 1.5 0 1 1-3.001-.001 1.5 1.5 0 0 1 3.001.001zM400 334.5a1.5 1.5 0 1 1-3.001-.001 1.5 1.5 0 0 1 3.001.001zM420 334.5a1.5 1.5 0 1 1-3.001-.001 1.5 1.5 0 0 1 3.001.001zM440 334.5a1.5 1.5 0 1 1-3.001-.001 1.5 1.5 0 0 1 3.001.001zM460 334.5a1.5 1.5 0 1 1-3.001-.001 1.5 1.5 0 0 1 3.001.001zM480 334.5a1.5 1.5 0 1 1-3.001-.001 1.5 1.5 0 0 1 3.001.001zM500 334.5a1.5 1.5 0 1 1-3.001-.001 1.5 1.5 0 0 1 3.001.001zM520 334.5a1.5 1.5 0 1 1-3.001-.001 1.5 1.5 0 0 1 3.001.001zM540 334.5a1.5 1.5 0 1 1-3.001-.001 1.5 1.5 0 0 1 3.001.001zM560 334.5a1.5 1.5 0 1 1-3.001-.001 1.5 1.5 0 0 1 3.001.001zM580 334.5a1.5 1.5 0 1 1-3.001-.001 1.5 1.5 0 0 1 3.001.001zM600 334.5a1.5 1.5 0 1 1-3.001-.001 1.5 1.5 0 0 1 3.001.001zM620 334.5a1.5 1.5 0 1 1-3.001-.001 1.5 1.5 0 0 1 3.001.001zM340 354.5a1.5 1.5 0 1 1-3.001-.001 1.5 1.5 0 0 1 3.001.001zM360 354.5a1.5 1.5 0 1 1-3.001-.001 1.5 1.5 0 0 1 3.001.001zM380 354.5a1.5 1.5 0 1 1-3.001-.001 1.5 1.5 0 0 1 3.001.001zM400 354.5a1.5 1.5 0 1 1-3.001-.001 1.5 1.5 0 0 1 3.001.001zM420 354.5a1.5 1.5 0 1 1-3.001-.001 1.5 1.5 0 0 1 3.001.001zM440 354.5a1.5 1.5 0 1 1-3.001-.001 1.5 1.5 0 0 1 3.001.001zM460 354.5a1.5 1.5 0 1 1-3.001-.001 1.5 1.5 0 0 1 3.001.001zM480 354.5a1.5 1.5 0 1 1-3.001-.001 1.5 1.5 0 0 1 3.001.001zM500 354.5a1.5 1.5 0 1 1-3.001-.001 1.5 1.5 0 0 1 3.001.001zM520 354.5a1.5 1.5 0 1 1-3.001-.001 1.5 1.5 0 0 1 3.001.001zM540 354.5a1.5 1.5 0 1 1-3.001-.001 1.5 1.5 0 0 1 3.001.001zM560 354.5a1.5 1.5 0 1 1-3.001-.001 1.5 1.5 0 0 1 3.001.001zM580 354.5a1.5 1.5 0 1 1-3.001-.001 1.5 1.5 0 0 1 3.001.001zM600 354.5a1.5 1.5 0 1 1-3.001-.001 1.5 1.5 0 0 1 3.001.001zM620 354.5a1.5 1.5 0 1 1-3.001-.001 1.5 1.5 0 0 1 3.001.001zM340 374.5a1.5 1.5 0 1 1-3.001-.001 1.5 1.5 0 0 1 3.001.001zM360 374.5a1.5 1.5 0 1 1-3.001-.001 1.5 1.5 0 0 1 3.001.001zM380 374.5a1.5 1.5 0 1 1-3.001-.001 1.5 1.5 0 0 1 3.001.001zM400 374.5a1.5 1.5 0 1 1-3.001-.001 1.5 1.5 0 0 1 3.001.001zM420 374.5a1.5 1.5 0 1 1-3.001-.001 1.5 1.5 0 0 1 3.001.001zM440 374.5a1.5 1.5 0 1 1-3.001-.001 1.5 1.5 0 0 1 3.001.001zM460 374.5a1.5 1.5 0 1 1-3.001-.001 1.5 1.5 0 0 1 3.001.001zM480 374.5a1.5 1.5 0 1 1-3.001-.001 1.5 1.5 0 0 1 3.001.001zM500 374.5a1.5 1.5 0 1 1-3.001-.001 1.5 1.5 0 0 1 3.001.001zM520 374.5a1.5 1.5 0 1 1-3.001-.001 1.5 1.5 0 0 1 3.001.001zM540 374.5a1.5 1.5 0 1 1-3.001-.001 1.5 1.5 0 0 1 3.001.001zM560 374.5a1.5 1.5 0 1 1-3.001-.001 1.5 1.5 0 0 1 3.001.001zM580 374.5a1.5 1.5 0 1 1-3.001-.001 1.5 1.5 0 0 1 3.001.001zM600 374.5a1.5 1.5 0 1 1-3.001-.001 1.5 1.5 0 0 1 3.001.001zM620 374.5a1.5 1.5 0 1 1-3.001-.001 1.5 1.5 0 0 1 3.001.001zM340 394.5a1.5 1.5 0 1 1-3.001-.001 1.5 1.5 0 0 1 3.001.001zM360 394.5a1.5 1.5 0 1 1-3.001-.001 1.5 1.5 0 0 1 3.001.001zM380 394.5a1.5 1.5 0 1 1-3.001-.001 1.5 1.5 0 0 1 3.001.001zM400 394.5a1.5 1.5 0 1 1-3.001-.001 1.5 1.5 0 0 1 3.001.001zM420 394.5a1.5 1.5 0 1 1-3.001-.001 1.5 1.5 0 0 1 3.001.001zM440 394.5a1.5 1.5 0 1 1-3.001-.001 1.5 1.5 0 0 1 3.001.001zM460 394.5a1.5 1.5 0 1 1-3.001-.001 1.5 1.5 0 0 1 3.001.001zM480 394.5a1.5 1.5 0 1 1-3.001-.001 1.5 1.5 0 0 1 3.001.001zM500 394.5a1.5 1.5 0 1 1-3.001-.001 1.5 1.5 0 0 1 3.001.001zM520 394.5a1.5 1.5 0 1 1-3.001-.001 1.5 1.5 0 0 1 3.001.001zM540 394.5a1.5 1.5 0 1 1-3.001-.001 1.5 1.5 0 0 1 3.001.001zM560 394.5a1.5 1.5 0 1 1-3.001-.001 1.5 1.5 0 0 1 3.001.001zM580 394.5a1.5 1.5 0 1 1-3.001-.001 1.5 1.5 0 0 1 3.001.001zM600 394.5a1.5 1.5 0 1 1-3.001-.001 1.5 1.5 0 0 1 3.001.001zM620 394.5a1.5 1.5 0 1 1-3.001-.001 1.5 1.5 0 0 1 3.001.001zM340 414.5a1.5 1.5 0 1 1-3.001-.001 1.5 1.5 0 0 1 3.001.001zM360 414.5a1.5 1.5 0 1 1-3.001-.001 1.5 1.5 0 0 1 3.001.001zM380 414.5a1.5 1.5 0 1 1-3.001-.001 1.5 1.5 0 0 1 3.001.001zM400 414.5a1.5 1.5 0 1 1-3.001-.001 1.5 1.5 0 0 1 3.001.001zM420 414.5a1.5 1.5 0 1 1-3.001-.001 1.5 1.5 0 0 1 3.001.001zM440 414.5a1.5 1.5 0 1 1-3.001-.001 1.5 1.5 0 0 1 3.001.001zM460 414.5a1.5 1.5 0 1 1-3.001-.001 1.5 1.5 0 0 1 3.001.001zM480 414.5a1.5 1.5 0 1 1-3.001-.001 1.5 1.5 0 0 1 3.001.001zM500 414.5a1.5 1.5 0 1 1-3.001-.001 1.5 1.5 0 0 1 3.001.001zM520 414.5a1.5 1.5 0 1 1-3.001-.001 1.5 1.5 0 0 1 3.001.001zM540 414.5a1.5 1.5 0 1 1-3.001-.001 1.5 1.5 0 0 1 3.001.001zM560 414.5a1.5 1.5 0 1 1-3.001-.001 1.5 1.5 0 0 1 3.001.001zM580 414.5a1.5 1.5 0 1 1-3.001-.001 1.5 1.5 0 0 1 3.001.001zM600 414.5a1.5 1.5 0 1 1-3.001-.001 1.5 1.5 0 0 1 3.001.001zM620 414.5a1.5 1.5 0 1 1-3.001-.001 1.5 1.5 0 0 1 3.001.001zM340 434.5a1.5 1.5 0 1 1-3.001-.001 1.5 1.5 0 0 1 3.001.001zM360 434.5a1.5 1.5 0 1 1-3.001-.001 1.5 1.5 0 0 1 3.001.001zM380 434.5a1.5 1.5 0 1 1-3.001-.001 1.5 1.5 0 0 1 3.001.001zM400 434.5a1.5 1.5 0 1 1-3.001-.001 1.5 1.5 0 0 1 3.001.001zM420 434.5a1.5 1.5 0 1 1-3.001-.001 1.5 1.5 0 0 1 3.001.001zM440 434.5a1.5 1.5 0 1 1-3.001-.001 1.5 1.5 0 0 1 3.001.001zM460 434.5a1.5 1.5 0 1 1-3.001-.001 1.5 1.5 0 0 1 3.001.001zM480 434.5a1.5 1.5 0 1 1-3.001-.001 1.5 1.5 0 0 1 3.001.001zM500 434.5a1.5 1.5 0 1 1-3.001-.001 1.5 1.5 0 0 1 3.001.001zM520 434.5a1.5 1.5 0 1 1-3.001-.001 1.5 1.5 0 0 1 3.001.001zM540 434.5a1.5 1.5 0 1 1-3.001-.001 1.5 1.5 0 0 1 3.001.001zM560 434.5a1.5 1.5 0 1 1-3.001-.001 1.5 1.5 0 0 1 3.001.001zM580 434.5a1.5 1.5 0 1 1-3.001-.001 1.5 1.5 0 0 1 3.001.001zM600 434.5a1.5 1.5 0 1 1-3.001-.001 1.5 1.5 0 0 1 3.001.001zM620 434.5a1.5 1.5 0 1 1-3.001-.001 1.5 1.5 0 0 1 3.001.001zM640 214.5a1.5 1.5 0 1 1-3.001-.001 1.5 1.5 0 0 1 3.001.001zM660 214.5a1.5 1.5 0 1 1-3.001-.001 1.5 1.5 0 0 1 3.001.001zM680 214.5a1.5 1.5 0 1 1-3.001-.001 1.5 1.5 0 0 1 3.001.001zM700 214.5a1.5 1.5 0 1 1-3.001-.001 1.5 1.5 0 0 1 3.001.001zM720 214.5a1.5 1.5 0 1 1-3.001-.001 1.5 1.5 0 0 1 3.001.001zM740 214.5a1.5 1.5 0 1 1-3.001-.001 1.5 1.5 0 0 1 3.001.001zM760 214.5a1.5 1.5 0 1 1-3.001-.001 1.5 1.5 0 0 1 3.001.001zM780 214.5a1.5 1.5 0 1 1-3.001-.001 1.5 1.5 0 0 1 3.001.001zM800 214.5a1.5 1.5 0 1 1-3.001-.001 1.5 1.5 0 0 1 3.001.001zM640 234.5a1.5 1.5 0 1 1-3.001-.001 1.5 1.5 0 0 1 3.001.001zM660 234.5a1.5 1.5 0 1 1-3.001-.001 1.5 1.5 0 0 1 3.001.001zM680 234.5a1.5 1.5 0 1 1-3.001-.001 1.5 1.5 0 0 1 3.001.001zM700 234.5a1.5 1.5 0 1 1-3.001-.001 1.5 1.5 0 0 1 3.001.001zM720 234.5a1.5 1.5 0 1 1-3.001-.001 1.5 1.5 0 0 1 3.001.001zM740 234.5a1.5 1.5 0 1 1-3.001-.001 1.5 1.5 0 0 1 3.001.001zM760 234.5a1.5 1.5 0 1 1-3.001-.001 1.5 1.5 0 0 1 3.001.001zM780 234.5a1.5 1.5 0 1 1-3.001-.001 1.5 1.5 0 0 1 3.001.001zM800 234.5a1.5 1.5 0 1 1-3.001-.001 1.5 1.5 0 0 1 3.001.001zM640 254.5a1.5 1.5 0 1 1-3.001-.001 1.5 1.5 0 0 1 3.001.001zM660 254.5a1.5 1.5 0 1 1-3.001-.001 1.5 1.5 0 0 1 3.001.001zM680 254.5a1.5 1.5 0 1 1-3.001-.001 1.5 1.5 0 0 1 3.001.001zM700 254.5a1.5 1.5 0 1 1-3.001-.001 1.5 1.5 0 0 1 3.001.001zM720 254.5a1.5 1.5 0 1 1-3.001-.001 1.5 1.5 0 0 1 3.001.001zM740 254.5a1.5 1.5 0 1 1-3.001-.001 1.5 1.5 0 0 1 3.001.001zM760 254.5a1.5 1.5 0 1 1-3.001-.001 1.5 1.5 0 0 1 3.001.001zM780 254.5a1.5 1.5 0 1 1-3.001-.001 1.5 1.5 0 0 1 3.001.001zM800 254.5a1.5 1.5 0 1 1-3.001-.001 1.5 1.5 0 0 1 3.001.001zM640 274.5a1.5 1.5 0 1 1-3.001-.001 1.5 1.5 0 0 1 3.001.001zM660 274.5a1.5 1.5 0 1 1-3.001-.001 1.5 1.5 0 0 1 3.001.001zM680 274.5a1.5 1.5 0 1 1-3.001-.001 1.5 1.5 0 0 1 3.001.001zM700 274.5a1.5 1.5 0 1 1-3.001-.001 1.5 1.5 0 0 1 3.001.001zM720 274.5a1.5 1.5 0 1 1-3.001-.001 1.5 1.5 0 0 1 3.001.001zM740 274.5a1.5 1.5 0 1 1-3.001-.001 1.5 1.5 0 0 1 3.001.001zM760 274.5a1.5 1.5 0 1 1-3.001-.001 1.5 1.5 0 0 1 3.001.001zM780 274.5a1.5 1.5 0 1 1-3.001-.001 1.5 1.5 0 0 1 3.001.001zM800 274.5a1.5 1.5 0 1 1-3.001-.001 1.5 1.5 0 0 1 3.001.001zM640 294.5a1.5 1.5 0 1 1-3.001-.001 1.5 1.5 0 0 1 3.001.001zM660 294.5a1.5 1.5 0 1 1-3.001-.001 1.5 1.5 0 0 1 3.001.001zM680 294.5a1.5 1.5 0 1 1-3.001-.001 1.5 1.5 0 0 1 3.001.001zM700 294.5a1.5 1.5 0 1 1-3.001-.001 1.5 1.5 0 0 1 3.001.001zM720 294.5a1.5 1.5 0 1 1-3.001-.001 1.5 1.5 0 0 1 3.001.001zM740 294.5a1.5 1.5 0 1 1-3.001-.001 1.5 1.5 0 0 1 3.001.001zM760 294.5a1.5 1.5 0 1 1-3.001-.001 1.5 1.5 0 0 1 3.001.001zM780 294.5a1.5 1.5 0 1 1-3.001-.001 1.5 1.5 0 0 1 3.001.001zM800 294.5a1.5 1.5 0 1 1-3.001-.001 1.5 1.5 0 0 1 3.001.001zM640 314.5a1.5 1.5 0 1 1-3.001-.001 1.5 1.5 0 0 1 3.001.001zM660 314.5a1.5 1.5 0 1 1-3.001-.001 1.5 1.5 0 0 1 3.001.001zM680 314.5a1.5 1.5 0 1 1-3.001-.001 1.5 1.5 0 0 1 3.001.001zM700 314.5a1.5 1.5 0 1 1-3.001-.001 1.5 1.5 0 0 1 3.001.001zM720 314.5a1.5 1.5 0 1 1-3.001-.001 1.5 1.5 0 0 1 3.001.001zM740 314.5a1.5 1.5 0 1 1-3.001-.001 1.5 1.5 0 0 1 3.001.001zM760 314.5a1.5 1.5 0 1 1-3.001-.001 1.5 1.5 0 0 1 3.001.001zM780 314.5a1.5 1.5 0 1 1-3.001-.001 1.5 1.5 0 0 1 3.001.001zM800 314.5a1.5 1.5 0 1 1-3.001-.001 1.5 1.5 0 0 1 3.001.001zM640 334.5a1.5 1.5 0 1 1-3.001-.001 1.5 1.5 0 0 1 3.001.001zM660 334.5a1.5 1.5 0 1 1-3.001-.001 1.5 1.5 0 0 1 3.001.001zM680 334.5a1.5 1.5 0 1 1-3.001-.001 1.5 1.5 0 0 1 3.001.001zM700 334.5a1.5 1.5 0 1 1-3.001-.001 1.5 1.5 0 0 1 3.001.001zM720 334.5a1.5 1.5 0 1 1-3.001-.001 1.5 1.5 0 0 1 3.001.001zM740 334.5a1.5 1.5 0 1 1-3.001-.001 1.5 1.5 0 0 1 3.001.001zM760 334.5a1.5 1.5 0 1 1-3.001-.001 1.5 1.5 0 0 1 3.001.001zM780 334.5a1.5 1.5 0 1 1-3.001-.001 1.5 1.5 0 0 1 3.001.001zM800 334.5a1.5 1.5 0 1 1-3.001-.001 1.5 1.5 0 0 1 3.001.001zM640 354.5a1.5 1.5 0 1 1-3.001-.001 1.5 1.5 0 0 1 3.001.001zM660 354.5a1.5 1.5 0 1 1-3.001-.001 1.5 1.5 0 0 1 3.001.001zM680 354.5a1.5 1.5 0 1 1-3.001-.001 1.5 1.5 0 0 1 3.001.001zM700 354.5a1.5 1.5 0 1 1-3.001-.001 1.5 1.5 0 0 1 3.001.001zM720 354.5a1.5 1.5 0 1 1-3.001-.001 1.5 1.5 0 0 1 3.001.001zM740 354.5a1.5 1.5 0 1 1-3.001-.001 1.5 1.5 0 0 1 3.001.001zM760 354.5a1.5 1.5 0 1 1-3.001-.001 1.5 1.5 0 0 1 3.001.001zM780 354.5a1.5 1.5 0 1 1-3.001-.001 1.5 1.5 0 0 1 3.001.001zM800 354.5a1.5 1.5 0 1 1-3.001-.001 1.5 1.5 0 0 1 3.001.001zM640 374.5a1.5 1.5 0 1 1-3.001-.001 1.5 1.5 0 0 1 3.001.001zM660 374.5a1.5 1.5 0 1 1-3.001-.001 1.5 1.5 0 0 1 3.001.001zM680 374.5a1.5 1.5 0 1 1-3.001-.001 1.5 1.5 0 0 1 3.001.001zM700 374.5a1.5 1.5 0 1 1-3.001-.001 1.5 1.5 0 0 1 3.001.001zM720 374.5a1.5 1.5 0 1 1-3.001-.001 1.5 1.5 0 0 1 3.001.001zM740 374.5a1.5 1.5 0 1 1-3.001-.001 1.5 1.5 0 0 1 3.001.001zM760 374.5a1.5 1.5 0 1 1-3.001-.001 1.5 1.5 0 0 1 3.001.001zM780 374.5a1.5 1.5 0 1 1-3.001-.001 1.5 1.5 0 0 1 3.001.001zM800 374.5a1.5 1.5 0 1 1-3.001-.001 1.5 1.5 0 0 1 3.001.001zM640 394.5a1.5 1.5 0 1 1-3.001-.001 1.5 1.5 0 0 1 3.001.001zM660 394.5a1.5 1.5 0 1 1-3.001-.001 1.5 1.5 0 0 1 3.001.001zM680 394.5a1.5 1.5 0 1 1-3.001-.001 1.5 1.5 0 0 1 3.001.001zM700 394.5a1.5 1.5 0 1 1-3.001-.001 1.5 1.5 0 0 1 3.001.001zM720 394.5a1.5 1.5 0 1 1-3.001-.001 1.5 1.5 0 0 1 3.001.001zM740 394.5a1.5 1.5 0 1 1-3.001-.001 1.5 1.5 0 0 1 3.001.001zM760 394.5a1.5 1.5 0 1 1-3.001-.001 1.5 1.5 0 0 1 3.001.001zM780 394.5a1.5 1.5 0 1 1-3.001-.001 1.5 1.5 0 0 1 3.001.001zM800 394.5a1.5 1.5 0 1 1-3.001-.001 1.5 1.5 0 0 1 3.001.001zM640 414.5a1.5 1.5 0 1 1-3.001-.001 1.5 1.5 0 0 1 3.001.001zM660 414.5a1.5 1.5 0 1 1-3.001-.001 1.5 1.5 0 0 1 3.001.001zM680 414.5a1.5 1.5 0 1 1-3.001-.001 1.5 1.5 0 0 1 3.001.001zM700 414.5a1.5 1.5 0 1 1-3.001-.001 1.5 1.5 0 0 1 3.001.001zM720 414.5a1.5 1.5 0 1 1-3.001-.001 1.5 1.5 0 0 1 3.001.001zM740 414.5a1.5 1.5 0 1 1-3.001-.001 1.5 1.5 0 0 1 3.001.001zM760 414.5a1.5 1.5 0 1 1-3.001-.001 1.5 1.5 0 0 1 3.001.001zM780 414.5a1.5 1.5 0 1 1-3.001-.001 1.5 1.5 0 0 1 3.001.001zM800 414.5a1.5 1.5 0 1 1-3.001-.001 1.5 1.5 0 0 1 3.001.001zM640 434.5a1.5 1.5 0 1 1-3.001-.001 1.5 1.5 0 0 1 3.001.001zM660 434.5a1.5 1.5 0 1 1-3.001-.001 1.5 1.5 0 0 1 3.001.001zM680 434.5a1.5 1.5 0 1 1-3.001-.001 1.5 1.5 0 0 1 3.001.001zM700 434.5a1.5 1.5 0 1 1-3.001-.001 1.5 1.5 0 0 1 3.001.001zM720 434.5a1.5 1.5 0 1 1-3.001-.001 1.5 1.5 0 0 1 3.001.001zM740 434.5a1.5 1.5 0 1 1-3.001-.001 1.5 1.5 0 0 1 3.001.001zM760 434.5a1.5 1.5 0 1 1-3.001-.001 1.5 1.5 0 0 1 3.001.001zM780 434.5a1.5 1.5 0 1 1-3.001-.001 1.5 1.5 0 0 1 3.001.001zM800 434.5a1.5 1.5 0 1 1-3.001-.001 1.5 1.5 0 0 1 3.001.001zM0 454.5a1.5 1.5 0 1 1-3 0 1.5 1.5 0 0 1 3 0zM20 454.5a1.5 1.5 0 1 1-3 0 1.5 1.5 0 0 1 3 0zM0 474.5a1.5 1.5 0 1 1-3 0 1.5 1.5 0 0 1 3 0zM20 474.5a1.5 1.5 0 1 1-3 0 1.5 1.5 0 0 1 3 0zM0 494.5a1.5 1.5 0 1 1-3 0 1.5 1.5 0 0 1 3 0zM20 494.5a1.5 1.5 0 1 1-3 0 1.5 1.5 0 0 1 3 0zM0 514.5a1.5 1.5 0 1 1-3 0 1.5 1.5 0 0 1 3 0zM20 514.5a1.5 1.5 0 1 1-3 0 1.5 1.5 0 0 1 3 0zM0 534.5a1.5 1.5 0 1 1-3 0 1.5 1.5 0 0 1 3 0zM20 534.5a1.5 1.5 0 1 1-3 0 1.5 1.5 0 0 1 3 0zM20 554.5a1.5 1.5 0 1 1-3 0 1.5 1.5 0 0 1 3 0zM40 454.5a1.5 1.5 0 1 1-3 0 1.5 1.5 0 0 1 3 0zM60 454.5a1.5 1.5 0 1 1-3 0 1.5 1.5 0 0 1 3 0zM80 454.5a1.5 1.5 0 1 1-3 0 1.5 1.5 0 0 1 3 0zM100 454.5a1.5 1.5 0 1 1-3 0 1.5 1.5 0 0 1 3 0zM120 454.5a1.5 1.5 0 1 1-3.001-.001 1.5 1.5 0 0 1 3.001.001zM140 454.5a1.5 1.5 0 1 1-3.001-.001 1.5 1.5 0 0 1 3.001.001zM160 454.5a1.5 1.5 0 1 1-3.001-.001 1.5 1.5 0 0 1 3.001.001zM180 454.5a1.5 1.5 0 1 1-3.001-.001 1.5 1.5 0 0 1 3.001.001zM200 454.5a1.5 1.5 0 1 1-3.001-.001 1.5 1.5 0 0 1 3.001.001zM220 454.5a1.5 1.5 0 1 1-3.001-.001 1.5 1.5 0 0 1 3.001.001zM240 454.5a1.5 1.5 0 1 1-3.001-.001 1.5 1.5 0 0 1 3.001.001zM260 454.5a1.5 1.5 0 1 1-3.001-.001 1.5 1.5 0 0 1 3.001.001zM280 454.5a1.5 1.5 0 1 1-3.001-.001 1.5 1.5 0 0 1 3.001.001zM300 454.5a1.5 1.5 0 1 1-3.001-.001 1.5 1.5 0 0 1 3.001.001zM320 454.5a1.5 1.5 0 1 1-3.001-.001 1.5 1.5 0 0 1 3.001.001zM40 474.5a1.5 1.5 0 1 1-3 0 1.5 1.5 0 0 1 3 0zM60 474.5a1.5 1.5 0 1 1-3 0 1.5 1.5 0 0 1 3 0zM80 474.5a1.5 1.5 0 1 1-3 0 1.5 1.5 0 0 1 3 0zM100 474.5a1.5 1.5 0 1 1-3 0 1.5 1.5 0 0 1 3 0zM120 474.5a1.5 1.5 0 1 1-3.001-.001 1.5 1.5 0 0 1 3.001.001zM140 474.5a1.5 1.5 0 1 1-3.001-.001 1.5 1.5 0 0 1 3.001.001zM160 474.5a1.5 1.5 0 1 1-3.001-.001 1.5 1.5 0 0 1 3.001.001zM180 474.5a1.5 1.5 0 1 1-3.001-.001 1.5 1.5 0 0 1 3.001.001zM200 474.5a1.5 1.5 0 1 1-3.001-.001 1.5 1.5 0 0 1 3.001.001zM220 474.5a1.5 1.5 0 1 1-3.001-.001 1.5 1.5 0 0 1 3.001.001zM240 474.5a1.5 1.5 0 1 1-3.001-.001 1.5 1.5 0 0 1 3.001.001zM260 474.5a1.5 1.5 0 1 1-3.001-.001 1.5 1.5 0 0 1 3.001.001zM280 474.5a1.5 1.5 0 1 1-3.001-.001 1.5 1.5 0 0 1 3.001.001zM300 474.5a1.5 1.5 0 1 1-3.001-.001 1.5 1.5 0 0 1 3.001.001zM320 474.5a1.5 1.5 0 1 1-3.001-.001 1.5 1.5 0 0 1 3.001.001zM40 494.5a1.5 1.5 0 1 1-3 0 1.5 1.5 0 0 1 3 0zM60 494.5a1.5 1.5 0 1 1-3 0 1.5 1.5 0 0 1 3 0zM80 494.5a1.5 1.5 0 1 1-3 0 1.5 1.5 0 0 1 3 0zM100 494.5a1.5 1.5 0 1 1-3 0 1.5 1.5 0 0 1 3 0zM120 494.5a1.5 1.5 0 1 1-3.001-.001 1.5 1.5 0 0 1 3.001.001zM140 494.5a1.5 1.5 0 1 1-3.001-.001 1.5 1.5 0 0 1 3.001.001zM160 494.5a1.5 1.5 0 1 1-3.001-.001 1.5 1.5 0 0 1 3.001.001zM180 494.5a1.5 1.5 0 1 1-3.001-.001 1.5 1.5 0 0 1 3.001.001zM200 494.5a1.5 1.5 0 1 1-3.001-.001 1.5 1.5 0 0 1 3.001.001zM220 494.5a1.5 1.5 0 1 1-3.001-.001 1.5 1.5 0 0 1 3.001.001zM240 494.5a1.5 1.5 0 1 1-3.001-.001 1.5 1.5 0 0 1 3.001.001zM260 494.5a1.5 1.5 0 1 1-3.001-.001 1.5 1.5 0 0 1 3.001.001zM280 494.5a1.5 1.5 0 1 1-3.001-.001 1.5 1.5 0 0 1 3.001.001zM300 494.5a1.5 1.5 0 1 1-3.001-.001 1.5 1.5 0 0 1 3.001.001zM320 494.5a1.5 1.5 0 1 1-3.001-.001 1.5 1.5 0 0 1 3.001.001zM40 514.5a1.5 1.5 0 1 1-3 0 1.5 1.5 0 0 1 3 0zM60 514.5a1.5 1.5 0 1 1-3 0 1.5 1.5 0 0 1 3 0zM80 514.5a1.5 1.5 0 1 1-3 0 1.5 1.5 0 0 1 3 0zM100 514.5a1.5 1.5 0 1 1-3 0 1.5 1.5 0 0 1 3 0zM120 514.5a1.5 1.5 0 1 1-3.001-.001 1.5 1.5 0 0 1 3.001.001zM140 514.5a1.5 1.5 0 1 1-3.001-.001 1.5 1.5 0 0 1 3.001.001zM160 514.5a1.5 1.5 0 1 1-3.001-.001 1.5 1.5 0 0 1 3.001.001zM180 514.5a1.5 1.5 0 1 1-3.001-.001 1.5 1.5 0 0 1 3.001.001zM200 514.5a1.5 1.5 0 1 1-3.001-.001 1.5 1.5 0 0 1 3.001.001zM220 514.5a1.5 1.5 0 1 1-3.001-.001 1.5 1.5 0 0 1 3.001.001zM240 514.5a1.5 1.5 0 1 1-3.001-.001 1.5 1.5 0 0 1 3.001.001zM260 514.5a1.5 1.5 0 1 1-3.001-.001 1.5 1.5 0 0 1 3.001.001zM280 514.5a1.5 1.5 0 1 1-3.001-.001 1.5 1.5 0 0 1 3.001.001zM300 514.5a1.5 1.5 0 1 1-3.001-.001 1.5 1.5 0 0 1 3.001.001zM320 514.5a1.5 1.5 0 1 1-3.001-.001 1.5 1.5 0 0 1 3.001.001zM40 534.5a1.5 1.5 0 1 1-3 0 1.5 1.5 0 0 1 3 0zM60 534.5a1.5 1.5 0 1 1-3 0 1.5 1.5 0 0 1 3 0zM80 534.5a1.5 1.5 0 1 1-3 0 1.5 1.5 0 0 1 3 0zM100 534.5a1.5 1.5 0 1 1-3 0 1.5 1.5 0 0 1 3 0zM120 534.5a1.5 1.5 0 1 1-3.001-.001 1.5 1.5 0 0 1 3.001.001zM140 534.5a1.5 1.5 0 1 1-3.001-.001 1.5 1.5 0 0 1 3.001.001zM160 534.5a1.5 1.5 0 1 1-3.001-.001 1.5 1.5 0 0 1 3.001.001zM180 534.5a1.5 1.5 0 1 1-3.001-.001 1.5 1.5 0 0 1 3.001.001zM200 534.5a1.5 1.5 0 1 1-3.001-.001 1.5 1.5 0 0 1 3.001.001zM220 534.5a1.5 1.5 0 1 1-3.001-.001 1.5 1.5 0 0 1 3.001.001zM240 534.5a1.5 1.5 0 1 1-3.001-.001 1.5 1.5 0 0 1 3.001.001zM260 534.5a1.5 1.5 0 1 1-3.001-.001 1.5 1.5 0 0 1 3.001.001zM280 534.5a1.5 1.5 0 1 1-3.001-.001 1.5 1.5 0 0 1 3.001.001zM300 534.5a1.5 1.5 0 1 1-3.001-.001 1.5 1.5 0 0 1 3.001.001zM320 534.5a1.5 1.5 0 1 1-3.001-.001 1.5 1.5 0 0 1 3.001.001zM40 554.5a1.5 1.5 0 1 1-3 0 1.5 1.5 0 0 1 3 0zM60 554.5a1.5 1.5 0 1 1-3 0 1.5 1.5 0 0 1 3 0zM80 554.5a1.5 1.5 0 1 1-3 0 1.5 1.5 0 0 1 3 0zM100 554.5a1.5 1.5 0 1 1-3 0 1.5 1.5 0 0 1 3 0zM120 554.5a1.5 1.5 0 1 1-3.001-.001 1.5 1.5 0 0 1 3.001.001zM140 554.5a1.5 1.5 0 1 1-3.001-.001 1.5 1.5 0 0 1 3.001.001zM160 554.5a1.5 1.5 0 1 1-3.001-.001 1.5 1.5 0 0 1 3.001.001zM180 554.5a1.5 1.5 0 1 1-3.001-.001 1.5 1.5 0 0 1 3.001.001zM200 554.5a1.5 1.5 0 1 1-3.001-.001 1.5 1.5 0 0 1 3.001.001zM220 554.5a1.5 1.5 0 1 1-3.001-.001 1.5 1.5 0 0 1 3.001.001zM240 554.5a1.5 1.5 0 1 1-3.001-.001 1.5 1.5 0 0 1 3.001.001zM260 554.5a1.5 1.5 0 1 1-3.001-.001 1.5 1.5 0 0 1 3.001.001zM280 554.5a1.5 1.5 0 1 1-3.001-.001 1.5 1.5 0 0 1 3.001.001zM300 554.5a1.5 1.5 0 1 1-3.001-.001 1.5 1.5 0 0 1 3.001.001zM320 554.5a1.5 1.5 0 1 1-3.001-.001 1.5 1.5 0 0 1 3.001.001zM40 574.5a1.5 1.5 0 1 1-3 0 1.5 1.5 0 0 1 3 0zM60 574.5a1.5 1.5 0 1 1-3 0 1.5 1.5 0 0 1 3 0zM80 574.5a1.5 1.5 0 1 1-3 0 1.5 1.5 0 0 1 3 0zM100 574.5a1.5 1.5 0 1 1-3 0 1.5 1.5 0 0 1 3 0zM120 574.5a1.5 1.5 0 1 1-3.001-.001 1.5 1.5 0 0 1 3.001.001zM140 574.5a1.5 1.5 0 1 1-3.001-.001 1.5 1.5 0 0 1 3.001.001zM160 574.5a1.5 1.5 0 1 1-3.001-.001 1.5 1.5 0 0 1 3.001.001zM180 574.5a1.5 1.5 0 1 1-3.001-.001 1.5 1.5 0 0 1 3.001.001zM200 574.5a1.5 1.5 0 1 1-3.001-.001 1.5 1.5 0 0 1 3.001.001zM220 574.5a1.5 1.5 0 1 1-3.001-.001 1.5 1.5 0 0 1 3.001.001zM240 574.5a1.5 1.5 0 1 1-3.001-.001 1.5 1.5 0 0 1 3.001.001zM260 574.5a1.5 1.5 0 1 1-3.001-.001 1.5 1.5 0 0 1 3.001.001zM280 574.5a1.5 1.5 0 1 1-3.001-.001 1.5 1.5 0 0 1 3.001.001zM300 574.5a1.5 1.5 0 1 1-3.001-.001 1.5 1.5 0 0 1 3.001.001zM320 574.5a1.5 1.5 0 1 1-3.001-.001 1.5 1.5 0 0 1 3.001.001zM60 594.5a1.5 1.5 0 1 1-3 0 1.5 1.5 0 0 1 3 0zM80 594.5a1.5 1.5 0 1 1-3 0 1.5 1.5 0 0 1 3 0zM100 594.5a1.5 1.5 0 1 1-3 0 1.5 1.5 0 0 1 3 0zM120 594.5a1.5 1.5 0 1 1-3.001-.001 1.5 1.5 0 0 1 3.001.001zM140 594.5a1.5 1.5 0 1 1-3.001-.001 1.5 1.5 0 0 1 3.001.001zM160 594.5a1.5 1.5 0 1 1-3.001-.001 1.5 1.5 0 0 1 3.001.001zM180 594.5a1.5 1.5 0 1 1-3.001-.001 1.5 1.5 0 0 1 3.001.001zM200 594.5a1.5 1.5 0 1 1-3.001-.001 1.5 1.5 0 0 1 3.001.001zM220 594.5a1.5 1.5 0 1 1-3.001-.001 1.5 1.5 0 0 1 3.001.001zM240 594.5a1.5 1.5 0 1 1-3.001-.001 1.5 1.5 0 0 1 3.001.001zM260 594.5a1.5 1.5 0 1 1-3.001-.001 1.5 1.5 0 0 1 3.001.001zM280 594.5a1.5 1.5 0 1 1-3.001-.001 1.5 1.5 0 0 1 3.001.001zM300 594.5a1.5 1.5 0 1 1-3.001-.001 1.5 1.5 0 0 1 3.001.001zM320 594.5a1.5 1.5 0 1 1-3.001-.001 1.5 1.5 0 0 1 3.001.001zM60 614.5a1.5 1.5 0 1 1-3 0 1.5 1.5 0 0 1 3 0zM80 614.5a1.5 1.5 0 1 1-3 0 1.5 1.5 0 0 1 3 0zM100 614.5a1.5 1.5 0 1 1-3 0 1.5 1.5 0 0 1 3 0zM120 614.5a1.5 1.5 0 1 1-3.001-.001 1.5 1.5 0 0 1 3.001.001zM140 614.5a1.5 1.5 0 1 1-3.001-.001 1.5 1.5 0 0 1 3.001.001zM160 614.5a1.5 1.5 0 1 1-3.001-.001 1.5 1.5 0 0 1 3.001.001zM180 614.5a1.5 1.5 0 1 1-3.001-.001 1.5 1.5 0 0 1 3.001.001zM200 614.5a1.5 1.5 0 1 1-3.001-.001 1.5 1.5 0 0 1 3.001.001zM220 614.5a1.5 1.5 0 1 1-3.001-.001 1.5 1.5 0 0 1 3.001.001zM240 614.5a1.5 1.5 0 1 1-3.001-.001 1.5 1.5 0 0 1 3.001.001zM260 614.5a1.5 1.5 0 1 1-3.001-.001 1.5 1.5 0 0 1 3.001.001zM280 614.5a1.5 1.5 0 1 1-3.001-.001 1.5 1.5 0 0 1 3.001.001zM300 614.5a1.5 1.5 0 1 1-3.001-.001 1.5 1.5 0 0 1 3.001.001zM320 614.5a1.5 1.5 0 1 1-3.001-.001 1.5 1.5 0 0 1 3.001.001zM60 634.5a1.5 1.5 0 1 1-3 0 1.5 1.5 0 0 1 3 0zM80 634.5a1.5 1.5 0 1 1-3 0 1.5 1.5 0 0 1 3 0zM100 634.5a1.5 1.5 0 1 1-3 0 1.5 1.5 0 0 1 3 0zM120 634.5a1.5 1.5 0 1 1-3.001-.001 1.5 1.5 0 0 1 3.001.001zM140 634.5a1.5 1.5 0 1 1-3.001-.001 1.5 1.5 0 0 1 3.001.001zM160 634.5a1.5 1.5 0 1 1-3.001-.001 1.5 1.5 0 0 1 3.001.001zM180 634.5a1.5 1.5 0 1 1-3.001-.001 1.5 1.5 0 0 1 3.001.001zM200 634.5a1.5 1.5 0 1 1-3.001-.001 1.5 1.5 0 0 1 3.001.001zM220 634.5a1.5 1.5 0 1 1-3.001-.001 1.5 1.5 0 0 1 3.001.001zM240 634.5a1.5 1.5 0 1 1-3.001-.001 1.5 1.5 0 0 1 3.001.001zM260 634.5a1.5 1.5 0 1 1-3.001-.001 1.5 1.5 0 0 1 3.001.001zM280 634.5a1.5 1.5 0 1 1-3.001-.001 1.5 1.5 0 0 1 3.001.001zM300 634.5a1.5 1.5 0 1 1-3.001-.001 1.5 1.5 0 0 1 3.001.001zM320 634.5a1.5 1.5 0 1 1-3.001-.001 1.5 1.5 0 0 1 3.001.001zM80 654.5a1.5 1.5 0 1 1-3 0 1.5 1.5 0 0 1 3 0zM100 654.5a1.5 1.5 0 1 1-3 0 1.5 1.5 0 0 1 3 0zM120 654.5a1.5 1.5 0 1 1-3.001-.001 1.5 1.5 0 0 1 3.001.001zM140 654.5a1.5 1.5 0 1 1-3.001-.001 1.5 1.5 0 0 1 3.001.001zM160 654.5a1.5 1.5 0 1 1-3.001-.001 1.5 1.5 0 0 1 3.001.001zM180 654.5a1.5 1.5 0 1 1-3.001-.001 1.5 1.5 0 0 1 3.001.001zM200 654.5a1.5 1.5 0 1 1-3.001-.001 1.5 1.5 0 0 1 3.001.001zM220 654.5a1.5 1.5 0 1 1-3.001-.001 1.5 1.5 0 0 1 3.001.001zM240 654.5a1.5 1.5 0 1 1-3.001-.001 1.5 1.5 0 0 1 3.001.001zM260 654.5a1.5 1.5 0 1 1-3.001-.001 1.5 1.5 0 0 1 3.001.001zM280 654.5a1.5 1.5 0 1 1-3.001-.001 1.5 1.5 0 0 1 3.001.001zM300 654.5a1.5 1.5 0 1 1-3.001-.001 1.5 1.5 0 0 1 3.001.001zM320 654.5a1.5 1.5 0 1 1-3.001-.001 1.5 1.5 0 0 1 3.001.001zM100 674.5a1.5 1.5 0 1 1-3 0 1.5 1.5 0 0 1 3 0zM120 674.5a1.5 1.5 0 1 1-3.001-.001 1.5 1.5 0 0 1 3.001.001zM140 674.5a1.5 1.5 0 1 1-3.001-.001 1.5 1.5 0 0 1 3.001.001zM160 674.5a1.5 1.5 0 1 1-3.001-.001 1.5 1.5 0 0 1 3.001.001zM180 674.5a1.5 1.5 0 1 1-3.001-.001 1.5 1.5 0 0 1 3.001.001zM200 674.5a1.5 1.5 0 1 1-3.001-.001 1.5 1.5 0 0 1 3.001.001zM220 674.5a1.5 1.5 0 1 1-3.001-.001 1.5 1.5 0 0 1 3.001.001zM240 674.5a1.5 1.5 0 1 1-3.001-.001 1.5 1.5 0 0 1 3.001.001zM260 674.5a1.5 1.5 0 1 1-3.001-.001 1.5 1.5 0 0 1 3.001.001zM280 674.5a1.5 1.5 0 1 1-3.001-.001 1.5 1.5 0 0 1 3.001.001zM300 674.5a1.5 1.5 0 1 1-3.001-.001 1.5 1.5 0 0 1 3.001.001zM320 674.5a1.5 1.5 0 1 1-3.001-.001 1.5 1.5 0 0 1 3.001.001zM340 454.5a1.5 1.5 0 1 1-3.001-.001 1.5 1.5 0 0 1 3.001.001zM360 454.5a1.5 1.5 0 1 1-3.001-.001 1.5 1.5 0 0 1 3.001.001zM380 454.5a1.5 1.5 0 1 1-3.001-.001 1.5 1.5 0 0 1 3.001.001zM400 454.5a1.5 1.5 0 1 1-3.001-.001 1.5 1.5 0 0 1 3.001.001zM420 454.5a1.5 1.5 0 1 1-3.001-.001 1.5 1.5 0 0 1 3.001.001zM440 454.5a1.5 1.5 0 1 1-3.001-.001 1.5 1.5 0 0 1 3.001.001zM460 454.5a1.5 1.5 0 1 1-3.001-.001 1.5 1.5 0 0 1 3.001.001zM480 454.5a1.5 1.5 0 1 1-3.001-.001 1.5 1.5 0 0 1 3.001.001zM500 454.5a1.5 1.5 0 1 1-3.001-.001 1.5 1.5 0 0 1 3.001.001zM520 454.5a1.5 1.5 0 1 1-3.001-.001 1.5 1.5 0 0 1 3.001.001zM540 454.5a1.5 1.5 0 1 1-3.001-.001 1.5 1.5 0 0 1 3.001.001zM560 454.5a1.5 1.5 0 1 1-3.001-.001 1.5 1.5 0 0 1 3.001.001zM580 454.5a1.5 1.5 0 1 1-3.001-.001 1.5 1.5 0 0 1 3.001.001zM600 454.5a1.5 1.5 0 1 1-3.001-.001 1.5 1.5 0 0 1 3.001.001zM620 454.5a1.5 1.5 0 1 1-3.001-.001 1.5 1.5 0 0 1 3.001.001zM340 474.5a1.5 1.5 0 1 1-3.001-.001 1.5 1.5 0 0 1 3.001.001zM360 474.5a1.5 1.5 0 1 1-3.001-.001 1.5 1.5 0 0 1 3.001.001zM380 474.5a1.5 1.5 0 1 1-3.001-.001 1.5 1.5 0 0 1 3.001.001zM400 474.5a1.5 1.5 0 1 1-3.001-.001 1.5 1.5 0 0 1 3.001.001zM420 474.5a1.5 1.5 0 1 1-3.001-.001 1.5 1.5 0 0 1 3.001.001zM440 474.5a1.5 1.5 0 1 1-3.001-.001 1.5 1.5 0 0 1 3.001.001zM460 474.5a1.5 1.5 0 1 1-3.001-.001 1.5 1.5 0 0 1 3.001.001zM480 474.5a1.5 1.5 0 1 1-3.001-.001 1.5 1.5 0 0 1 3.001.001zM500 474.5a1.5 1.5 0 1 1-3.001-.001 1.5 1.5 0 0 1 3.001.001zM520 474.5a1.5 1.5 0 1 1-3.001-.001 1.5 1.5 0 0 1 3.001.001zM540 474.5a1.5 1.5 0 1 1-3.001-.001 1.5 1.5 0 0 1 3.001.001zM560 474.5a1.5 1.5 0 1 1-3.001-.001 1.5 1.5 0 0 1 3.001.001zM580 474.5a1.5 1.5 0 1 1-3.001-.001 1.5 1.5 0 0 1 3.001.001zM600 474.5a1.5 1.5 0 1 1-3.001-.001 1.5 1.5 0 0 1 3.001.001zM620 474.5a1.5 1.5 0 1 1-3.001-.001 1.5 1.5 0 0 1 3.001.001zM340 494.5a1.5 1.5 0 1 1-3.001-.001 1.5 1.5 0 0 1 3.001.001zM360 494.5a1.5 1.5 0 1 1-3.001-.001 1.5 1.5 0 0 1 3.001.001zM380 494.5a1.5 1.5 0 1 1-3.001-.001 1.5 1.5 0 0 1 3.001.001zM400 494.5a1.5 1.5 0 1 1-3.001-.001 1.5 1.5 0 0 1 3.001.001zM420 494.5a1.5 1.5 0 1 1-3.001-.001 1.5 1.5 0 0 1 3.001.001zM440 494.5a1.5 1.5 0 1 1-3.001-.001 1.5 1.5 0 0 1 3.001.001zM460 494.5a1.5 1.5 0 1 1-3.001-.001 1.5 1.5 0 0 1 3.001.001zM480 494.5a1.5 1.5 0 1 1-3.001-.001 1.5 1.5 0 0 1 3.001.001zM500 494.5a1.5 1.5 0 1 1-3.001-.001 1.5 1.5 0 0 1 3.001.001zM520 494.5a1.5 1.5 0 1 1-3.001-.001 1.5 1.5 0 0 1 3.001.001zM540 494.5a1.5 1.5 0 1 1-3.001-.001 1.5 1.5 0 0 1 3.001.001zM560 494.5a1.5 1.5 0 1 1-3.001-.001 1.5 1.5 0 0 1 3.001.001zM580 494.5a1.5 1.5 0 1 1-3.001-.001 1.5 1.5 0 0 1 3.001.001zM600 494.5a1.5 1.5 0 1 1-3.001-.001 1.5 1.5 0 0 1 3.001.001zM620 494.5a1.5 1.5 0 1 1-3.001-.001 1.5 1.5 0 0 1 3.001.001zM340 514.5a1.5 1.5 0 1 1-3.001-.001 1.5 1.5 0 0 1 3.001.001zM360 514.5a1.5 1.5 0 1 1-3.001-.001 1.5 1.5 0 0 1 3.001.001zM380 514.5a1.5 1.5 0 1 1-3.001-.001 1.5 1.5 0 0 1 3.001.001zM400 514.5a1.5 1.5 0 1 1-3.001-.001 1.5 1.5 0 0 1 3.001.001zM420 514.5a1.5 1.5 0 1 1-3.001-.001 1.5 1.5 0 0 1 3.001.001zM440 514.5a1.5 1.5 0 1 1-3.001-.001 1.5 1.5 0 0 1 3.001.001zM460 514.5a1.5 1.5 0 1 1-3.001-.001 1.5 1.5 0 0 1 3.001.001zM480 514.5a1.5 1.5 0 1 1-3.001-.001 1.5 1.5 0 0 1 3.001.001zM500 514.5a1.5 1.5 0 1 1-3.001-.001 1.5 1.5 0 0 1 3.001.001zM520 514.5a1.5 1.5 0 1 1-3.001-.001 1.5 1.5 0 0 1 3.001.001zM540 514.5a1.5 1.5 0 1 1-3.001-.001 1.5 1.5 0 0 1 3.001.001zM560 514.5a1.5 1.5 0 1 1-3.001-.001 1.5 1.5 0 0 1 3.001.001zM580 514.5a1.5 1.5 0 1 1-3.001-.001 1.5 1.5 0 0 1 3.001.001zM600 514.5a1.5 1.5 0 1 1-3.001-.001 1.5 1.5 0 0 1 3.001.001zM620 514.5a1.5 1.5 0 1 1-3.001-.001 1.5 1.5 0 0 1 3.001.001zM340 534.5a1.5 1.5 0 1 1-3.001-.001 1.5 1.5 0 0 1 3.001.001zM360 534.5a1.5 1.5 0 1 1-3.001-.001 1.5 1.5 0 0 1 3.001.001zM380 534.5a1.5 1.5 0 1 1-3.001-.001 1.5 1.5 0 0 1 3.001.001zM400 534.5a1.5 1.5 0 1 1-3.001-.001 1.5 1.5 0 0 1 3.001.001zM420 534.5a1.5 1.5 0 1 1-3.001-.001 1.5 1.5 0 0 1 3.001.001zM440 534.5a1.5 1.5 0 1 1-3.001-.001 1.5 1.5 0 0 1 3.001.001zM460 534.5a1.5 1.5 0 1 1-3.001-.001 1.5 1.5 0 0 1 3.001.001zM480 534.5a1.5 1.5 0 1 1-3.001-.001 1.5 1.5 0 0 1 3.001.001zM500 534.5a1.5 1.5 0 1 1-3.001-.001 1.5 1.5 0 0 1 3.001.001zM520 534.5a1.5 1.5 0 1 1-3.001-.001 1.5 1.5 0 0 1 3.001.001zM540 534.5a1.5 1.5 0 1 1-3.001-.001 1.5 1.5 0 0 1 3.001.001zM560 534.5a1.5 1.5 0 1 1-3.001-.001 1.5 1.5 0 0 1 3.001.001zM580 534.5a1.5 1.5 0 1 1-3.001-.001 1.5 1.5 0 0 1 3.001.001zM600 534.5a1.5 1.5 0 1 1-3.001-.001 1.5 1.5 0 0 1 3.001.001zM620 534.5a1.5 1.5 0 1 1-3.001-.001 1.5 1.5 0 0 1 3.001.001zM340 554.5a1.5 1.5 0 1 1-3.001-.001 1.5 1.5 0 0 1 3.001.001zM360 554.5a1.5 1.5 0 1 1-3.001-.001 1.5 1.5 0 0 1 3.001.001zM380 554.5a1.5 1.5 0 1 1-3.001-.001 1.5 1.5 0 0 1 3.001.001zM400 554.5a1.5 1.5 0 1 1-3.001-.001 1.5 1.5 0 0 1 3.001.001zM420 554.5a1.5 1.5 0 1 1-3.001-.001 1.5 1.5 0 0 1 3.001.001zM440 554.5a1.5 1.5 0 1 1-3.001-.001 1.5 1.5 0 0 1 3.001.001zM460 554.5a1.5 1.5 0 1 1-3.001-.001 1.5 1.5 0 0 1 3.001.001zM480 554.5a1.5 1.5 0 1 1-3.001-.001 1.5 1.5 0 0 1 3.001.001zM500 554.5a1.5 1.5 0 1 1-3.001-.001 1.5 1.5 0 0 1 3.001.001zM520 554.5a1.5 1.5 0 1 1-3.001-.001 1.5 1.5 0 0 1 3.001.001zM540 554.5a1.5 1.5 0 1 1-3.001-.001 1.5 1.5 0 0 1 3.001.001zM560 554.5a1.5 1.5 0 1 1-3.001-.001 1.5 1.5 0 0 1 3.001.001zM580 554.5a1.5 1.5 0 1 1-3.001-.001 1.5 1.5 0 0 1 3.001.001zM600 554.5a1.5 1.5 0 1 1-3.001-.001 1.5 1.5 0 0 1 3.001.001zM620 554.5a1.5 1.5 0 1 1-3.001-.001 1.5 1.5 0 0 1 3.001.001zM340 574.5a1.5 1.5 0 1 1-3.001-.001 1.5 1.5 0 0 1 3.001.001zM360 574.5a1.5 1.5 0 1 1-3.001-.001 1.5 1.5 0 0 1 3.001.001zM380 574.5a1.5 1.5 0 1 1-3.001-.001 1.5 1.5 0 0 1 3.001.001zM400 574.5a1.5 1.5 0 1 1-3.001-.001 1.5 1.5 0 0 1 3.001.001zM420 574.5a1.5 1.5 0 1 1-3.001-.001 1.5 1.5 0 0 1 3.001.001zM440 574.5a1.5 1.5 0 1 1-3.001-.001 1.5 1.5 0 0 1 3.001.001zM460 574.5a1.5 1.5 0 1 1-3.001-.001 1.5 1.5 0 0 1 3.001.001zM480 574.5a1.5 1.5 0 1 1-3.001-.001 1.5 1.5 0 0 1 3.001.001zM500 574.5a1.5 1.5 0 1 1-3.001-.001 1.5 1.5 0 0 1 3.001.001zM520 574.5a1.5 1.5 0 1 1-3.001-.001 1.5 1.5 0 0 1 3.001.001zM540 574.5a1.5 1.5 0 1 1-3.001-.001 1.5 1.5 0 0 1 3.001.001zM560 574.5a1.5 1.5 0 1 1-3.001-.001 1.5 1.5 0 0 1 3.001.001zM580 574.5a1.5 1.5 0 1 1-3.001-.001 1.5 1.5 0 0 1 3.001.001zM600 574.5a1.5 1.5 0 1 1-3.001-.001 1.5 1.5 0 0 1 3.001.001zM620 574.5a1.5 1.5 0 1 1-3.001-.001 1.5 1.5 0 0 1 3.001.001zM340 594.5a1.5 1.5 0 1 1-3.001-.001 1.5 1.5 0 0 1 3.001.001zM360 594.5a1.5 1.5 0 1 1-3.001-.001 1.5 1.5 0 0 1 3.001.001zM380 594.5a1.5 1.5 0 1 1-3.001-.001 1.5 1.5 0 0 1 3.001.001zM400 594.5a1.5 1.5 0 1 1-3.001-.001 1.5 1.5 0 0 1 3.001.001zM420 594.5a1.5 1.5 0 1 1-3.001-.001 1.5 1.5 0 0 1 3.001.001zM440 594.5a1.5 1.5 0 1 1-3.001-.001 1.5 1.5 0 0 1 3.001.001zM460 594.5a1.5 1.5 0 1 1-3.001-.001 1.5 1.5 0 0 1 3.001.001zM480 594.5a1.5 1.5 0 1 1-3.001-.001 1.5 1.5 0 0 1 3.001.001zM500 594.5a1.5 1.5 0 1 1-3.001-.001 1.5 1.5 0 0 1 3.001.001zM520 594.5a1.5 1.5 0 1 1-3.001-.001 1.5 1.5 0 0 1 3.001.001zM540 594.5a1.5 1.5 0 1 1-3.001-.001 1.5 1.5 0 0 1 3.001.001zM560 594.5a1.5 1.5 0 1 1-3.001-.001 1.5 1.5 0 0 1 3.001.001zM580 594.5a1.5 1.5 0 1 1-3.001-.001 1.5 1.5 0 0 1 3.001.001zM600 594.5a1.5 1.5 0 1 1-3.001-.001 1.5 1.5 0 0 1 3.001.001zM620 594.5a1.5 1.5 0 1 1-3.001-.001 1.5 1.5 0 0 1 3.001.001zM340 614.5a1.5 1.5 0 1 1-3.001-.001 1.5 1.5 0 0 1 3.001.001zM360 614.5a1.5 1.5 0 1 1-3.001-.001 1.5 1.5 0 0 1 3.001.001zM380 614.5a1.5 1.5 0 1 1-3.001-.001 1.5 1.5 0 0 1 3.001.001zM400 614.5a1.5 1.5 0 1 1-3.001-.001 1.5 1.5 0 0 1 3.001.001zM420 614.5a1.5 1.5 0 1 1-3.001-.001 1.5 1.5 0 0 1 3.001.001zM440 614.5a1.5 1.5 0 1 1-3.001-.001 1.5 1.5 0 0 1 3.001.001zM460 614.5a1.5 1.5 0 1 1-3.001-.001 1.5 1.5 0 0 1 3.001.001zM480 614.5a1.5 1.5 0 1 1-3.001-.001 1.5 1.5 0 0 1 3.001.001zM500 614.5a1.5 1.5 0 1 1-3.001-.001 1.5 1.5 0 0 1 3.001.001zM520 614.5a1.5 1.5 0 1 1-3.001-.001 1.5 1.5 0 0 1 3.001.001zM540 614.5a1.5 1.5 0 1 1-3.001-.001 1.5 1.5 0 0 1 3.001.001zM560 614.5a1.5 1.5 0 1 1-3.001-.001 1.5 1.5 0 0 1 3.001.001zM580 614.5a1.5 1.5 0 1 1-3.001-.001 1.5 1.5 0 0 1 3.001.001zM600 614.5a1.5 1.5 0 1 1-3.001-.001 1.5 1.5 0 0 1 3.001.001zM620 614.5a1.5 1.5 0 1 1-3.001-.001 1.5 1.5 0 0 1 3.001.001zM340 634.5a1.5 1.5 0 1 1-3.001-.001 1.5 1.5 0 0 1 3.001.001zM360 634.5a1.5 1.5 0 1 1-3.001-.001 1.5 1.5 0 0 1 3.001.001zM380 634.5a1.5 1.5 0 1 1-3.001-.001 1.5 1.5 0 0 1 3.001.001zM400 634.5a1.5 1.5 0 1 1-3.001-.001 1.5 1.5 0 0 1 3.001.001zM420 634.5a1.5 1.5 0 1 1-3.001-.001 1.5 1.5 0 0 1 3.001.001zM440 634.5a1.5 1.5 0 1 1-3.001-.001 1.5 1.5 0 0 1 3.001.001zM460 634.5a1.5 1.5 0 1 1-3.001-.001 1.5 1.5 0 0 1 3.001.001zM480 634.5a1.5 1.5 0 1 1-3.001-.001 1.5 1.5 0 0 1 3.001.001zM500 634.5a1.5 1.5 0 1 1-3.001-.001 1.5 1.5 0 0 1 3.001.001zM520 634.5a1.5 1.5 0 1 1-3.001-.001 1.5 1.5 0 0 1 3.001.001zM540 634.5a1.5 1.5 0 1 1-3.001-.001 1.5 1.5 0 0 1 3.001.001zM560 634.5a1.5 1.5 0 1 1-3.001-.001 1.5 1.5 0 0 1 3.001.001zM580 634.5a1.5 1.5 0 1 1-3.001-.001 1.5 1.5 0 0 1 3.001.001zM600 634.5a1.5 1.5 0 1 1-3.001-.001 1.5 1.5 0 0 1 3.001.001zM620 634.5a1.5 1.5 0 1 1-3.001-.001 1.5 1.5 0 0 1 3.001.001zM340 654.5a1.5 1.5 0 1 1-3.001-.001 1.5 1.5 0 0 1 3.001.001zM360 654.5a1.5 1.5 0 1 1-3.001-.001 1.5 1.5 0 0 1 3.001.001zM380 654.5a1.5 1.5 0 1 1-3.001-.001 1.5 1.5 0 0 1 3.001.001zM400 654.5a1.5 1.5 0 1 1-3.001-.001 1.5 1.5 0 0 1 3.001.001zM420 654.5a1.5 1.5 0 1 1-3.001-.001 1.5 1.5 0 0 1 3.001.001zM440 654.5a1.5 1.5 0 1 1-3.001-.001 1.5 1.5 0 0 1 3.001.001zM460 654.5a1.5 1.5 0 1 1-3.001-.001 1.5 1.5 0 0 1 3.001.001zM480 654.5a1.5 1.5 0 1 1-3.001-.001 1.5 1.5 0 0 1 3.001.001zM500 654.5a1.5 1.5 0 1 1-3.001-.001 1.5 1.5 0 0 1 3.001.001zM520 654.5a1.5 1.5 0 1 1-3.001-.001 1.5 1.5 0 0 1 3.001.001zM540 654.5a1.5 1.5 0 1 1-3.001-.001 1.5 1.5 0 0 1 3.001.001zM560 654.5a1.5 1.5 0 1 1-3.001-.001 1.5 1.5 0 0 1 3.001.001zM580 654.5a1.5 1.5 0 1 1-3.001-.001 1.5 1.5 0 0 1 3.001.001zM600 654.5a1.5 1.5 0 1 1-3.001-.001 1.5 1.5 0 0 1 3.001.001zM620 654.5a1.5 1.5 0 1 1-3.001-.001 1.5 1.5 0 0 1 3.001.001zM340 674.5a1.5 1.5 0 1 1-3.001-.001 1.5 1.5 0 0 1 3.001.001zM360 674.5a1.5 1.5 0 1 1-3.001-.001 1.5 1.5 0 0 1 3.001.001zM380 674.5a1.5 1.5 0 1 1-3.001-.001 1.5 1.5 0 0 1 3.001.001zM400 674.5a1.5 1.5 0 1 1-3.001-.001 1.5 1.5 0 0 1 3.001.001zM420 674.5a1.5 1.5 0 1 1-3.001-.001 1.5 1.5 0 0 1 3.001.001zM440 674.5a1.5 1.5 0 1 1-3.001-.001 1.5 1.5 0 0 1 3.001.001zM460 674.5a1.5 1.5 0 1 1-3.001-.001 1.5 1.5 0 0 1 3.001.001zM480 674.5a1.5 1.5 0 1 1-3.001-.001 1.5 1.5 0 0 1 3.001.001zM500 674.5a1.5 1.5 0 1 1-3.001-.001 1.5 1.5 0 0 1 3.001.001zM520 674.5a1.5 1.5 0 1 1-3.001-.001 1.5 1.5 0 0 1 3.001.001zM540 674.5a1.5 1.5 0 1 1-3.001-.001 1.5 1.5 0 0 1 3.001.001zM560 674.5a1.5 1.5 0 1 1-3.001-.001 1.5 1.5 0 0 1 3.001.001zM580 674.5a1.5 1.5 0 1 1-3.001-.001 1.5 1.5 0 0 1 3.001.001zM600 674.5a1.5 1.5 0 1 1-3.001-.001 1.5 1.5 0 0 1 3.001.001zM620 674.5a1.5 1.5 0 1 1-3.001-.001 1.5 1.5 0 0 1 3.001.001zM640 454.5a1.5 1.5 0 1 1-3.001-.001 1.5 1.5 0 0 1 3.001.001zM660 454.5a1.5 1.5 0 1 1-3.001-.001 1.5 1.5 0 0 1 3.001.001zM680 454.5a1.5 1.5 0 1 1-3.001-.001 1.5 1.5 0 0 1 3.001.001zM700 454.5a1.5 1.5 0 1 1-3.001-.001 1.5 1.5 0 0 1 3.001.001zM720 454.5a1.5 1.5 0 1 1-3.001-.001 1.5 1.5 0 0 1 3.001.001zM740 454.5a1.5 1.5 0 1 1-3.001-.001 1.5 1.5 0 0 1 3.001.001zM760 454.5a1.5 1.5 0 1 1-3.001-.001 1.5 1.5 0 0 1 3.001.001zM780 454.5a1.5 1.5 0 1 1-3.001-.001 1.5 1.5 0 0 1 3.001.001zM800 454.5a1.5 1.5 0 1 1-3.001-.001 1.5 1.5 0 0 1 3.001.001zM640 474.5a1.5 1.5 0 1 1-3.001-.001 1.5 1.5 0 0 1 3.001.001zM660 474.5a1.5 1.5 0 1 1-3.001-.001 1.5 1.5 0 0 1 3.001.001zM680 474.5a1.5 1.5 0 1 1-3.001-.001 1.5 1.5 0 0 1 3.001.001zM700 474.5a1.5 1.5 0 1 1-3.001-.001 1.5 1.5 0 0 1 3.001.001zM720 474.5a1.5 1.5 0 1 1-3.001-.001 1.5 1.5 0 0 1 3.001.001zM740 474.5a1.5 1.5 0 1 1-3.001-.001 1.5 1.5 0 0 1 3.001.001zM760 474.5a1.5 1.5 0 1 1-3.001-.001 1.5 1.5 0 0 1 3.001.001zM780 474.5a1.5 1.5 0 1 1-3.001-.001 1.5 1.5 0 0 1 3.001.001zM800 474.5a1.5 1.5 0 1 1-3.001-.001 1.5 1.5 0 0 1 3.001.001zM640 494.5a1.5 1.5 0 1 1-3.001-.001 1.5 1.5 0 0 1 3.001.001zM660 494.5a1.5 1.5 0 1 1-3.001-.001 1.5 1.5 0 0 1 3.001.001zM680 494.5a1.5 1.5 0 1 1-3.001-.001 1.5 1.5 0 0 1 3.001.001zM700 494.5a1.5 1.5 0 1 1-3.001-.001 1.5 1.5 0 0 1 3.001.001zM720 494.5a1.5 1.5 0 1 1-3.001-.001 1.5 1.5 0 0 1 3.001.001zM740 494.5a1.5 1.5 0 1 1-3.001-.001 1.5 1.5 0 0 1 3.001.001zM760 494.5a1.5 1.5 0 1 1-3.001-.001 1.5 1.5 0 0 1 3.001.001zM780 494.5a1.5 1.5 0 1 1-3.001-.001 1.5 1.5 0 0 1 3.001.001zM800 494.5a1.5 1.5 0 1 1-3.001-.001 1.5 1.5 0 0 1 3.001.001zM640 514.5a1.5 1.5 0 1 1-3.001-.001 1.5 1.5 0 0 1 3.001.001zM660 514.5a1.5 1.5 0 1 1-3.001-.001 1.5 1.5 0 0 1 3.001.001zM680 514.5a1.5 1.5 0 1 1-3.001-.001 1.5 1.5 0 0 1 3.001.001zM700 514.5a1.5 1.5 0 1 1-3.001-.001 1.5 1.5 0 0 1 3.001.001zM720 514.5a1.5 1.5 0 1 1-3.001-.001 1.5 1.5 0 0 1 3.001.001zM740 514.5a1.5 1.5 0 1 1-3.001-.001 1.5 1.5 0 0 1 3.001.001zM760 514.5a1.5 1.5 0 1 1-3.001-.001 1.5 1.5 0 0 1 3.001.001zM780 514.5a1.5 1.5 0 1 1-3.001-.001 1.5 1.5 0 0 1 3.001.001zM800 514.5a1.5 1.5 0 1 1-3.001-.001 1.5 1.5 0 0 1 3.001.001zM640 534.5a1.5 1.5 0 1 1-3.001-.001 1.5 1.5 0 0 1 3.001.001zM660 534.5a1.5 1.5 0 1 1-3.001-.001 1.5 1.5 0 0 1 3.001.001zM680 534.5a1.5 1.5 0 1 1-3.001-.001 1.5 1.5 0 0 1 3.001.001zM700 534.5a1.5 1.5 0 1 1-3.001-.001 1.5 1.5 0 0 1 3.001.001zM720 534.5a1.5 1.5 0 1 1-3.001-.001 1.5 1.5 0 0 1 3.001.001zM740 534.5a1.5 1.5 0 1 1-3.001-.001 1.5 1.5 0 0 1 3.001.001zM760 534.5a1.5 1.5 0 1 1-3.001-.001 1.5 1.5 0 0 1 3.001.001zM780 534.5a1.5 1.5 0 1 1-3.001-.001 1.5 1.5 0 0 1 3.001.001zM800 534.5a1.5 1.5 0 1 1-3.001-.001 1.5 1.5 0 0 1 3.001.001zM640 554.5a1.5 1.5 0 1 1-3.001-.001 1.5 1.5 0 0 1 3.001.001zM660 554.5a1.5 1.5 0 1 1-3.001-.001 1.5 1.5 0 0 1 3.001.001zM680 554.5a1.5 1.5 0 1 1-3.001-.001 1.5 1.5 0 0 1 3.001.001zM700 554.5a1.5 1.5 0 1 1-3.001-.001 1.5 1.5 0 0 1 3.001.001zM720 554.5a1.5 1.5 0 1 1-3.001-.001 1.5 1.5 0 0 1 3.001.001zM740 554.5a1.5 1.5 0 1 1-3.001-.001 1.5 1.5 0 0 1 3.001.001zM760 554.5a1.5 1.5 0 1 1-3.001-.001 1.5 1.5 0 0 1 3.001.001zM780 554.5a1.5 1.5 0 1 1-3.001-.001 1.5 1.5 0 0 1 3.001.001zM800 554.5a1.5 1.5 0 1 1-3.001-.001 1.5 1.5 0 0 1 3.001.001zM640 574.5a1.5 1.5 0 1 1-3.001-.001 1.5 1.5 0 0 1 3.001.001zM660 574.5a1.5 1.5 0 1 1-3.001-.001 1.5 1.5 0 0 1 3.001.001zM680 574.5a1.5 1.5 0 1 1-3.001-.001 1.5 1.5 0 0 1 3.001.001zM700 574.5a1.5 1.5 0 1 1-3.001-.001 1.5 1.5 0 0 1 3.001.001zM720 574.5a1.5 1.5 0 1 1-3.001-.001 1.5 1.5 0 0 1 3.001.001zM740 574.5a1.5 1.5 0 1 1-3.001-.001 1.5 1.5 0 0 1 3.001.001zM760 574.5a1.5 1.5 0 1 1-3.001-.001 1.5 1.5 0 0 1 3.001.001zM780 574.5a1.5 1.5 0 1 1-3.001-.001 1.5 1.5 0 0 1 3.001.001zM800 574.5a1.5 1.5 0 1 1-3.001-.001 1.5 1.5 0 0 1 3.001.001zM640 594.5a1.5 1.5 0 1 1-3.001-.001 1.5 1.5 0 0 1 3.001.001zM660 594.5a1.5 1.5 0 1 1-3.001-.001 1.5 1.5 0 0 1 3.001.001zM680 594.5a1.5 1.5 0 1 1-3.001-.001 1.5 1.5 0 0 1 3.001.001zM700 594.5a1.5 1.5 0 1 1-3.001-.001 1.5 1.5 0 0 1 3.001.001zM720 594.5a1.5 1.5 0 1 1-3.001-.001 1.5 1.5 0 0 1 3.001.001zM740 594.5a1.5 1.5 0 1 1-3.001-.001 1.5 1.5 0 0 1 3.001.001zM760 594.5a1.5 1.5 0 1 1-3.001-.001 1.5 1.5 0 0 1 3.001.001zM780 594.5a1.5 1.5 0 1 1-3.001-.001 1.5 1.5 0 0 1 3.001.001zM640 614.5a1.5 1.5 0 1 1-3.001-.001 1.5 1.5 0 0 1 3.001.001zM660 614.5a1.5 1.5 0 1 1-3.001-.001 1.5 1.5 0 0 1 3.001.001zM680 614.5a1.5 1.5 0 1 1-3.001-.001 1.5 1.5 0 0 1 3.001.001zM700 614.5a1.5 1.5 0 1 1-3.001-.001 1.5 1.5 0 0 1 3.001.001zM720 614.5a1.5 1.5 0 1 1-3.001-.001 1.5 1.5 0 0 1 3.001.001zM740 614.5a1.5 1.5 0 1 1-3.001-.001 1.5 1.5 0 0 1 3.001.001zM640 634.5a1.5 1.5 0 1 1-3.001-.001 1.5 1.5 0 0 1 3.001.001zM660 634.5a1.5 1.5 0 1 1-3.001-.001 1.5 1.5 0 0 1 3.001.001zM680 634.5a1.5 1.5 0 1 1-3.001-.001 1.5 1.5 0 0 1 3.001.001zM700 634.5a1.5 1.5 0 1 1-3.001-.001 1.5 1.5 0 0 1 3.001.001zM640 654.5a1.5 1.5 0 1 1-3.001-.001 1.5 1.5 0 0 1 3.001.001zM660 654.5a1.5 1.5 0 1 1-3.001-.001 1.5 1.5 0 0 1 3.001.001zM120 694.5a1.5 1.5 0 1 1-3.001-.001 1.5 1.5 0 0 1 3.001.001zM140 694.5a1.5 1.5 0 1 1-3.001-.001 1.5 1.5 0 0 1 3.001.001zM160 694.5a1.5 1.5 0 1 1-3.001-.001 1.5 1.5 0 0 1 3.001.001zM180 694.5a1.5 1.5 0 1 1-3.001-.001 1.5 1.5 0 0 1 3.001.001zM200 694.5a1.5 1.5 0 1 1-3.001-.001 1.5 1.5 0 0 1 3.001.001zM220 694.5a1.5 1.5 0 1 1-3.001-.001 1.5 1.5 0 0 1 3.001.001zM240 694.5a1.5 1.5 0 1 1-3.001-.001 1.5 1.5 0 0 1 3.001.001zM260 694.5a1.5 1.5 0 1 1-3.001-.001 1.5 1.5 0 0 1 3.001.001zM280 694.5a1.5 1.5 0 1 1-3.001-.001 1.5 1.5 0 0 1 3.001.001zM300 694.5a1.5 1.5 0 1 1-3.001-.001 1.5 1.5 0 0 1 3.001.001zM320 694.5a1.5 1.5 0 1 1-3.001-.001 1.5 1.5 0 0 1 3.001.001zM340 694.5a1.5 1.5 0 1 1-3.001-.001 1.5 1.5 0 0 1 3.001.001zM360 694.5a1.5 1.5 0 1 1-3.001-.001 1.5 1.5 0 0 1 3.001.001zM380 694.5a1.5 1.5 0 1 1-3.001-.001 1.5 1.5 0 0 1 3.001.001zM400 694.5a1.5 1.5 0 1 1-3.001-.001 1.5 1.5 0 0 1 3.001.001zM420 694.5a1.5 1.5 0 1 1-3.001-.001 1.5 1.5 0 0 1 3.001.001zM440 694.5a1.5 1.5 0 1 1-3.001-.001 1.5 1.5 0 0 1 3.001.001zM460 694.5a1.5 1.5 0 1 1-3.001-.001 1.5 1.5 0 0 1 3.001.001zM480 694.5a1.5 1.5 0 1 1-3.001-.001 1.5 1.5 0 0 1 3.001.001zM500 694.5a1.5 1.5 0 1 1-3.001-.001 1.5 1.5 0 0 1 3.001.001zM520 694.5a1.5 1.5 0 1 1-3.001-.001 1.5 1.5 0 0 1 3.001.001zM540 694.5a1.5 1.5 0 1 1-3.001-.001 1.5 1.5 0 0 1 3.001.001zM560 694.5a1.5 1.5 0 1 1-3.001-.001 1.5 1.5 0 0 1 3.001.001zM20 134.5a1.5 1.5 0 1 1-3 0 1.5 1.5 0 0 1 3 0zM0 154.5a1.5 1.5 0 1 1-3 0 1.5 1.5 0 0 1 3 0zM20 154.5a1.5 1.5 0 1 1-3 0 1.5 1.5 0 0 1 3 0zM0 174.5a1.5 1.5 0 1 1-3 0 1.5 1.5 0 0 1 3 0zM20 174.5a1.5 1.5 0 1 1-3 0 1.5 1.5 0 0 1 3 0zM0 194.5a1.5 1.5 0 1 1-3 0 1.5 1.5 0 0 1 3 0zM20 194.5a1.5 1.5 0 1 1-3 0 1.5 1.5 0 0 1 3 0zM220 14.5a1.5 1.5 0 1 1-3 0 1.5 1.5 0 0 1 3 0zM240 14.5a1.5 1.5 0 1 1-3 0 1.5 1.5 0 0 1 3 0zM260 14.5a1.5 1.5 0 1 1-3 0 1.5 1.5 0 0 1 3 0zM280 14.5a1.5 1.5 0 1 1-3 0 1.5 1.5 0 0 1 3 0zM300 14.5a1.5 1.5 0 1 1-3 0 1.5 1.5 0 0 1 3 0zM320 14.5a1.5 1.5 0 1 1-3 0 1.5 1.5 0 0 1 3 0zM100 34.5a1.5 1.5 0 1 1-3 0 1.5 1.5 0 0 1 3 0zM120 34.5a1.5 1.5 0 1 1-3 0 1.5 1.5 0 0 1 3 0zM140 34.5a1.5 1.5 0 1 1-3 0 1.5 1.5 0 0 1 3 0zM160 34.5a1.5 1.5 0 1 1-3 0 1.5 1.5 0 0 1 3 0zM180 34.5a1.5 1.5 0 1 1-3 0 1.5 1.5 0 0 1 3 0zM200 34.5a1.5 1.5 0 1 1-3 0 1.5 1.5 0 0 1 3 0zM220 34.5a1.5 1.5 0 1 1-3 0 1.5 1.5 0 0 1 3 0zM240 34.5a1.5 1.5 0 1 1-3 0 1.5 1.5 0 0 1 3 0zM260 34.5a1.5 1.5 0 1 1-3 0 1.5 1.5 0 0 1 3 0zM280 34.5a1.5 1.5 0 1 1-3 0 1.5 1.5 0 0 1 3 0zM300 34.5a1.5 1.5 0 1 1-3 0 1.5 1.5 0 0 1 3 0zM320 34.5a1.5 1.5 0 1 1-3 0 1.5 1.5 0 0 1 3 0zM80 54.5a1.5 1.5 0 1 1-3 0 1.5 1.5 0 0 1 3 0zM100 54.5a1.5 1.5 0 1 1-3 0 1.5 1.5 0 0 1 3 0zM120 54.5a1.5 1.5 0 1 1-3 0 1.5 1.5 0 0 1 3 0zM140 54.5a1.5 1.5 0 1 1-3 0 1.5 1.5 0 0 1 3 0zM160 54.5a1.5 1.5 0 1 1-3 0 1.5 1.5 0 0 1 3 0zM180 54.5a1.5 1.5 0 1 1-3 0 1.5 1.5 0 0 1 3 0zM200 54.5a1.5 1.5 0 1 1-3 0 1.5 1.5 0 0 1 3 0zM220 54.5a1.5 1.5 0 1 1-3 0 1.5 1.5 0 0 1 3 0zM240 54.5a1.5 1.5 0 1 1-3 0 1.5 1.5 0 0 1 3 0zM260 54.5a1.5 1.5 0 1 1-3 0 1.5 1.5 0 0 1 3 0zM280 54.5a1.5 1.5 0 1 1-3 0 1.5 1.5 0 0 1 3 0zM300 54.5a1.5 1.5 0 1 1-3 0 1.5 1.5 0 0 1 3 0zM320 54.5a1.5 1.5 0 1 1-3 0 1.5 1.5 0 0 1 3 0zM60 74.5a1.5 1.5 0 1 1-3 0 1.5 1.5 0 0 1 3 0zM80 74.5a1.5 1.5 0 1 1-3 0 1.5 1.5 0 0 1 3 0zM100 74.5a1.5 1.5 0 1 1-3 0 1.5 1.5 0 0 1 3 0zM120 74.5a1.5 1.5 0 1 1-3 0 1.5 1.5 0 0 1 3 0zM140 74.5a1.5 1.5 0 1 1-3 0 1.5 1.5 0 0 1 3 0zM160 74.5a1.5 1.5 0 1 1-3 0 1.5 1.5 0 0 1 3 0zM180 74.5a1.5 1.5 0 1 1-3 0 1.5 1.5 0 0 1 3 0zM200 74.5a1.5 1.5 0 1 1-3 0 1.5 1.5 0 0 1 3 0zM220 74.5a1.5 1.5 0 1 1-3 0 1.5 1.5 0 0 1 3 0zM240 74.5a1.5 1.5 0 1 1-3 0 1.5 1.5 0 0 1 3 0zM260 74.5a1.5 1.5 0 1 1-3 0 1.5 1.5 0 0 1 3 0zM280 74.5a1.5 1.5 0 1 1-3 0 1.5 1.5 0 0 1 3 0zM300 74.5a1.5 1.5 0 1 1-3 0 1.5 1.5 0 0 1 3 0zM320 74.5a1.5 1.5 0 1 1-3 0 1.5 1.5 0 0 1 3 0zM60 94.5a1.5 1.5 0 1 1-3 0 1.5 1.5 0 0 1 3 0zM80 94.5a1.5 1.5 0 1 1-3 0 1.5 1.5 0 0 1 3 0zM100 94.5a1.5 1.5 0 1 1-3 0 1.5 1.5 0 0 1 3 0zM120 94.5a1.5 1.5 0 1 1-3 0 1.5 1.5 0 0 1 3 0zM140 94.5a1.5 1.5 0 1 1-3 0 1.5 1.5 0 0 1 3 0zM160 94.5a1.5 1.5 0 1 1-3 0 1.5 1.5 0 0 1 3 0zM180 94.5a1.5 1.5 0 1 1-3 0 1.5 1.5 0 0 1 3 0zM200 94.5a1.5 1.5 0 1 1-3 0 1.5 1.5 0 0 1 3 0zM220 94.5a1.5 1.5 0 1 1-3 0 1.5 1.5 0 0 1 3 0zM240 94.5a1.5 1.5 0 1 1-3 0 1.5 1.5 0 0 1 3 0zM260 94.5a1.5 1.5 0 1 1-3 0 1.5 1.5 0 0 1 3 0zM280 94.5a1.5 1.5 0 1 1-3 0 1.5 1.5 0 0 1 3 0zM300 94.5a1.5 1.5 0 1 1-3 0 1.5 1.5 0 0 1 3 0zM320 94.5a1.5 1.5 0 1 1-3 0 1.5 1.5 0 0 1 3 0zM40 114.5a1.5 1.5 0 1 1-3 0 1.5 1.5 0 0 1 3 0zM60 114.5a1.5 1.5 0 1 1-3 0 1.5 1.5 0 0 1 3 0zM80 114.5a1.5 1.5 0 1 1-3 0 1.5 1.5 0 0 1 3 0zM100 114.5a1.5 1.5 0 1 1-3 0 1.5 1.5 0 0 1 3 0zM120 114.5a1.5 1.5 0 1 1-3.001-.001 1.5 1.5 0 0 1 3.001.001zM140 114.5a1.5 1.5 0 1 1-3.001-.001 1.5 1.5 0 0 1 3.001.001zM160 114.5a1.5 1.5 0 1 1-3.001-.001 1.5 1.5 0 0 1 3.001.001zM180 114.5a1.5 1.5 0 1 1-3.001-.001 1.5 1.5 0 0 1 3.001.001zM200 114.5a1.5 1.5 0 1 1-3.001-.001 1.5 1.5 0 0 1 3.001.001zM220 114.5a1.5 1.5 0 1 1-3.001-.001 1.5 1.5 0 0 1 3.001.001zM240 114.5a1.5 1.5 0 1 1-3.001-.001 1.5 1.5 0 0 1 3.001.001zM260 114.5a1.5 1.5 0 1 1-3.001-.001 1.5 1.5 0 0 1 3.001.001zM280 114.5a1.5 1.5 0 1 1-3.001-.001 1.5 1.5 0 0 1 3.001.001zM300 114.5a1.5 1.5 0 1 1-3.001-.001 1.5 1.5 0 0 1 3.001.001zM320 114.5a1.5 1.5 0 1 1-3.001-.001 1.5 1.5 0 0 1 3.001.001zM40 134.5a1.5 1.5 0 1 1-3 0 1.5 1.5 0 0 1 3 0zM60 134.5a1.5 1.5 0 1 1-3 0 1.5 1.5 0 0 1 3 0zM80 134.5a1.5 1.5 0 1 1-3 0 1.5 1.5 0 0 1 3 0zM100 134.5a1.5 1.5 0 1 1-3 0 1.5 1.5 0 0 1 3 0zM120 134.5a1.5 1.5 0 1 1-3.001-.001 1.5 1.5 0 0 1 3.001.001zM140 134.5a1.5 1.5 0 1 1-3.001-.001 1.5 1.5 0 0 1 3.001.001zM160 134.5a1.5 1.5 0 1 1-3.001-.001 1.5 1.5 0 0 1 3.001.001zM180 134.5a1.5 1.5 0 1 1-3.001-.001 1.5 1.5 0 0 1 3.001.001zM200 134.5a1.5 1.5 0 1 1-3.001-.001 1.5 1.5 0 0 1 3.001.001zM220 134.5a1.5 1.5 0 1 1-3.001-.001 1.5 1.5 0 0 1 3.001.001zM240 134.5a1.5 1.5 0 1 1-3.001-.001 1.5 1.5 0 0 1 3.001.001zM260 134.5a1.5 1.5 0 1 1-3.001-.001 1.5 1.5 0 0 1 3.001.001zM280 134.5a1.5 1.5 0 1 1-3.001-.001 1.5 1.5 0 0 1 3.001.001zM300 134.5a1.5 1.5 0 1 1-3.001-.001 1.5 1.5 0 0 1 3.001.001zM320 134.5a1.5 1.5 0 1 1-3.001-.001 1.5 1.5 0 0 1 3.001.001zM40 154.5a1.5 1.5 0 1 1-3 0 1.5 1.5 0 0 1 3 0zM60 154.5a1.5 1.5 0 1 1-3 0 1.5 1.5 0 0 1 3 0zM80 154.5a1.5 1.5 0 1 1-3 0 1.5 1.5 0 0 1 3 0zM100 154.5a1.5 1.5 0 1 1-3 0 1.5 1.5 0 0 1 3 0zM120 154.5a1.5 1.5 0 1 1-3.001-.001 1.5 1.5 0 0 1 3.001.001zM140 154.5a1.5 1.5 0 1 1-3.001-.001 1.5 1.5 0 0 1 3.001.001zM160 154.5a1.5 1.5 0 1 1-3.001-.001 1.5 1.5 0 0 1 3.001.001zM180 154.5a1.5 1.5 0 1 1-3.001-.001 1.5 1.5 0 0 1 3.001.001zM200 154.5a1.5 1.5 0 1 1-3.001-.001 1.5 1.5 0 0 1 3.001.001zM220 154.5a1.5 1.5 0 1 1-3.001-.001 1.5 1.5 0 0 1 3.001.001zM240 154.5a1.5 1.5 0 1 1-3.001-.001 1.5 1.5 0 0 1 3.001.001zM260 154.5a1.5 1.5 0 1 1-3.001-.001 1.5 1.5 0 0 1 3.001.001zM280 154.5a1.5 1.5 0 1 1-3.001-.001 1.5 1.5 0 0 1 3.001.001zM300 154.5a1.5 1.5 0 1 1-3.001-.001 1.5 1.5 0 0 1 3.001.001zM320 154.5a1.5 1.5 0 1 1-3.001-.001 1.5 1.5 0 0 1 3.001.001zM40 174.5a1.5 1.5 0 1 1-3 0 1.5 1.5 0 0 1 3 0zM60 174.5a1.5 1.5 0 1 1-3 0 1.5 1.5 0 0 1 3 0zM80 174.5a1.5 1.5 0 1 1-3 0 1.5 1.5 0 0 1 3 0zM100 174.5a1.5 1.5 0 1 1-3 0 1.5 1.5 0 0 1 3 0zM120 174.5a1.5 1.5 0 1 1-3.001-.001 1.5 1.5 0 0 1 3.001.001zM140 174.5a1.5 1.5 0 1 1-3.001-.001 1.5 1.5 0 0 1 3.001.001zM160 174.5a1.5 1.5 0 1 1-3.001-.001 1.5 1.5 0 0 1 3.001.001zM180 174.5a1.5 1.5 0 1 1-3.001-.001 1.5 1.5 0 0 1 3.001.001zM200 174.5a1.5 1.5 0 1 1-3.001-.001 1.5 1.5 0 0 1 3.001.001zM220 174.5a1.5 1.5 0 1 1-3.001-.001 1.5 1.5 0 0 1 3.001.001zM240 174.5a1.5 1.5 0 1 1-3.001-.001 1.5 1.5 0 0 1 3.001.001zM260 174.5a1.5 1.5 0 1 1-3.001-.001 1.5 1.5 0 0 1 3.001.001zM280 174.5a1.5 1.5 0 1 1-3.001-.001 1.5 1.5 0 0 1 3.001.001zM300 174.5a1.5 1.5 0 1 1-3.001-.001 1.5 1.5 0 0 1 3.001.001zM320 174.5a1.5 1.5 0 1 1-3.001-.001 1.5 1.5 0 0 1 3.001.001zM40 194.5a1.5 1.5 0 1 1-3 0 1.5 1.5 0 0 1 3 0zM60 194.5a1.5 1.5 0 1 1-3 0 1.5 1.5 0 0 1 3 0zM80 194.5a1.5 1.5 0 1 1-3 0 1.5 1.5 0 0 1 3 0zM100 194.5a1.5 1.5 0 1 1-3 0 1.5 1.5 0 0 1 3 0zM120 194.5a1.5 1.5 0 1 1-3.001-.001 1.5 1.5 0 0 1 3.001.001zM140 194.5a1.5 1.5 0 1 1-3.001-.001 1.5 1.5 0 0 1 3.001.001zM160 194.5a1.5 1.5 0 1 1-3.001-.001 1.5 1.5 0 0 1 3.001.001zM180 194.5a1.5 1.5 0 1 1-3.001-.001 1.5 1.5 0 0 1 3.001.001zM200 194.5a1.5 1.5 0 1 1-3.001-.001 1.5 1.5 0 0 1 3.001.001zM220 194.5a1.5 1.5 0 1 1-3.001-.001 1.5 1.5 0 0 1 3.001.001zM240 194.5a1.5 1.5 0 1 1-3.001-.001 1.5 1.5 0 0 1 3.001.001zM260 194.5a1.5 1.5 0 1 1-3.001-.001 1.5 1.5 0 0 1 3.001.001zM280 194.5a1.5 1.5 0 1 1-3.001-.001 1.5 1.5 0 0 1 3.001.001zM300 194.5a1.5 1.5 0 1 1-3.001-.001 1.5 1.5 0 0 1 3.001.001zM320 194.5a1.5 1.5 0 1 1-3.001-.001 1.5 1.5 0 0 1 3.001.001zM340 14.5a1.5 1.5 0 1 1-3 0 1.5 1.5 0 0 1 3 0zM360 14.5a1.5 1.5 0 1 1-3 0 1.5 1.5 0 0 1 3 0zM380 14.5a1.5 1.5 0 1 1-3 0 1.5 1.5 0 0 1 3 0zM400 14.5a1.5 1.5 0 1 1-3 0 1.5 1.5 0 0 1 3 0zM420 14.5a1.5 1.5 0 1 1-3 0 1.5 1.5 0 0 1 3 0zM440 14.5a1.5 1.5 0 1 1-3 0 1.5 1.5 0 0 1 3 0zM460 14.5a1.5 1.5 0 1 1-3 0 1.5 1.5 0 0 1 3 0zM480 14.5a1.5 1.5 0 1 1-3 0 1.5 1.5 0 0 1 3 0zM500 14.5a1.5 1.5 0 1 1-3 0 1.5 1.5 0 0 1 3 0zM520 14.5a1.5 1.5 0 1 1-3 0 1.5 1.5 0 0 1 3 0zM540 14.5a1.5 1.5 0 1 1-3 0 1.5 1.5 0 0 1 3 0zM560 14.5a1.5 1.5 0 1 1-3 0 1.5 1.5 0 0 1 3 0zM580 14.5a1.5 1.5 0 1 1-3 0 1.5 1.5 0 0 1 3 0zM600 14.5a1.5 1.5 0 1 1-3 0 1.5 1.5 0 0 1 3 0zM620 14.5a1.5 1.5 0 1 1-3 0 1.5 1.5 0 0 1 3 0zM340 34.5a1.5 1.5 0 1 1-3 0 1.5 1.5 0 0 1 3 0zM360 34.5a1.5 1.5 0 1 1-3 0 1.5 1.5 0 0 1 3 0zM380 34.5a1.5 1.5 0 1 1-3 0 1.5 1.5 0 0 1 3 0zM400 34.5a1.5 1.5 0 1 1-3 0 1.5 1.5 0 0 1 3 0zM420 34.5a1.5 1.5 0 1 1-3 0 1.5 1.5 0 0 1 3 0zM440 34.5a1.5 1.5 0 1 1-3 0 1.5 1.5 0 0 1 3 0zM460 34.5a1.5 1.5 0 1 1-3 0 1.5 1.5 0 0 1 3 0zM480 34.5a1.5 1.5 0 1 1-3 0 1.5 1.5 0 0 1 3 0zM500 34.5a1.5 1.5 0 1 1-3 0 1.5 1.5 0 0 1 3 0zM520 34.5a1.5 1.5 0 1 1-3 0 1.5 1.5 0 0 1 3 0zM540 34.5a1.5 1.5 0 1 1-3 0 1.5 1.5 0 0 1 3 0zM560 34.5a1.5 1.5 0 1 1-3 0 1.5 1.5 0 0 1 3 0zM580 34.5a1.5 1.5 0 1 1-3 0 1.5 1.5 0 0 1 3 0zM600 34.5a1.5 1.5 0 1 1-3 0 1.5 1.5 0 0 1 3 0zM620 34.5a1.5 1.5 0 1 1-3 0 1.5 1.5 0 0 1 3 0zM340 54.5a1.5 1.5 0 1 1-3 0 1.5 1.5 0 0 1 3 0zM360 54.5a1.5 1.5 0 1 1-3 0 1.5 1.5 0 0 1 3 0zM380 54.5a1.5 1.5 0 1 1-3 0 1.5 1.5 0 0 1 3 0zM400 54.5a1.5 1.5 0 1 1-3 0 1.5 1.5 0 0 1 3 0zM420 54.5a1.5 1.5 0 1 1-3 0 1.5 1.5 0 0 1 3 0zM440 54.5a1.5 1.5 0 1 1-3 0 1.5 1.5 0 0 1 3 0zM460 54.5a1.5 1.5 0 1 1-3 0 1.5 1.5 0 0 1 3 0zM480 54.5a1.5 1.5 0 1 1-3 0 1.5 1.5 0 0 1 3 0zM500 54.5a1.5 1.5 0 1 1-3 0 1.5 1.5 0 0 1 3 0zM520 54.5a1.5 1.5 0 1 1-3 0 1.5 1.5 0 0 1 3 0zM540 54.5a1.5 1.5 0 1 1-3 0 1.5 1.5 0 0 1 3 0zM560 54.5a1.5 1.5 0 1 1-3 0 1.5 1.5 0 0 1 3 0zM580 54.5a1.5 1.5 0 1 1-3 0 1.5 1.5 0 0 1 3 0zM600 54.5a1.5 1.5 0 1 1-3 0 1.5 1.5 0 0 1 3 0zM620 54.5a1.5 1.5 0 1 1-3 0 1.5 1.5 0 0 1 3 0zM340 74.5a1.5 1.5 0 1 1-3 0 1.5 1.5 0 0 1 3 0zM360 74.5a1.5 1.5 0 1 1-3 0 1.5 1.5 0 0 1 3 0zM380 74.5a1.5 1.5 0 1 1-3 0 1.5 1.5 0 0 1 3 0zM400 74.5a1.5 1.5 0 1 1-3 0 1.5 1.5 0 0 1 3 0zM420 74.5a1.5 1.5 0 1 1-3 0 1.5 1.5 0 0 1 3 0zM440 74.5a1.5 1.5 0 1 1-3 0 1.5 1.5 0 0 1 3 0zM460 74.5a1.5 1.5 0 1 1-3 0 1.5 1.5 0 0 1 3 0zM480 74.5a1.5 1.5 0 1 1-3 0 1.5 1.5 0 0 1 3 0zM500 74.5a1.5 1.5 0 1 1-3 0 1.5 1.5 0 0 1 3 0zM520 74.5a1.5 1.5 0 1 1-3 0 1.5 1.5 0 0 1 3 0zM540 74.5a1.5 1.5 0 1 1-3 0 1.5 1.5 0 0 1 3 0zM560 74.5a1.5 1.5 0 1 1-3 0 1.5 1.5 0 0 1 3 0zM580 74.5a1.5 1.5 0 1 1-3 0 1.5 1.5 0 0 1 3 0zM600 74.5a1.5 1.5 0 1 1-3 0 1.5 1.5 0 0 1 3 0zM620 74.5a1.5 1.5 0 1 1-3 0 1.5 1.5 0 0 1 3 0zM340 94.5a1.5 1.5 0 1 1-3 0 1.5 1.5 0 0 1 3 0zM360 94.5a1.5 1.5 0 1 1-3 0 1.5 1.5 0 0 1 3 0zM380 94.5a1.5 1.5 0 1 1-3 0 1.5 1.5 0 0 1 3 0zM400 94.5a1.5 1.5 0 1 1-3 0 1.5 1.5 0 0 1 3 0zM420 94.5a1.5 1.5 0 1 1-3 0 1.5 1.5 0 0 1 3 0zM440 94.5a1.5 1.5 0 1 1-3 0 1.5 1.5 0 0 1 3 0zM460 94.5a1.5 1.5 0 1 1-3 0 1.5 1.5 0 0 1 3 0zM480 94.5a1.5 1.5 0 1 1-3 0 1.5 1.5 0 0 1 3 0zM500 94.5a1.5 1.5 0 1 1-3 0 1.5 1.5 0 0 1 3 0zM520 94.5a1.5 1.5 0 1 1-3 0 1.5 1.5 0 0 1 3 0zM540 94.5a1.5 1.5 0 1 1-3 0 1.5 1.5 0 0 1 3 0zM560 94.5a1.5 1.5 0 1 1-3 0 1.5 1.5 0 0 1 3 0zM580 94.5a1.5 1.5 0 1 1-3 0 1.5 1.5 0 0 1 3 0zM600 94.5a1.5 1.5 0 1 1-3 0 1.5 1.5 0 0 1 3 0zM620 94.5a1.5 1.5 0 1 1-3 0 1.5 1.5 0 0 1 3 0zM340 114.5a1.5 1.5 0 1 1-3.001-.001 1.5 1.5 0 0 1 3.001.001zM360 114.5a1.5 1.5 0 1 1-3.001-.001 1.5 1.5 0 0 1 3.001.001zM380 114.5a1.5 1.5 0 1 1-3.001-.001 1.5 1.5 0 0 1 3.001.001zM400 114.5a1.5 1.5 0 1 1-3.001-.001 1.5 1.5 0 0 1 3.001.001zM420 114.5a1.5 1.5 0 1 1-3.001-.001 1.5 1.5 0 0 1 3.001.001zM440 114.5a1.5 1.5 0 1 1-3.001-.001 1.5 1.5 0 0 1 3.001.001zM460 114.5a1.5 1.5 0 1 1-3.001-.001 1.5 1.5 0 0 1 3.001.001zM480 114.5a1.5 1.5 0 1 1-3.001-.001 1.5 1.5 0 0 1 3.001.001zM500 114.5a1.5 1.5 0 1 1-3.001-.001 1.5 1.5 0 0 1 3.001.001zM520 114.5a1.5 1.5 0 1 1-3.001-.001 1.5 1.5 0 0 1 3.001.001zM540 114.5a1.5 1.5 0 1 1-3.001-.001 1.5 1.5 0 0 1 3.001.001zM560 114.5a1.5 1.5 0 1 1-3.001-.001 1.5 1.5 0 0 1 3.001.001zM580 114.5a1.5 1.5 0 1 1-3.001-.001 1.5 1.5 0 0 1 3.001.001zM600 114.5a1.5 1.5 0 1 1-3.001-.001 1.5 1.5 0 0 1 3.001.001zM620 114.5a1.5 1.5 0 1 1-3.001-.001 1.5 1.5 0 0 1 3.001.001zM340 134.5a1.5 1.5 0 1 1-3.001-.001 1.5 1.5 0 0 1 3.001.001zM360 134.5a1.5 1.5 0 1 1-3.001-.001 1.5 1.5 0 0 1 3.001.001zM380 134.5a1.5 1.5 0 1 1-3.001-.001 1.5 1.5 0 0 1 3.001.001zM400 134.5a1.5 1.5 0 1 1-3.001-.001 1.5 1.5 0 0 1 3.001.001zM420 134.5a1.5 1.5 0 1 1-3.001-.001 1.5 1.5 0 0 1 3.001.001zM440 134.5a1.5 1.5 0 1 1-3.001-.001 1.5 1.5 0 0 1 3.001.001zM460 134.5a1.5 1.5 0 1 1-3.001-.001 1.5 1.5 0 0 1 3.001.001zM480 134.5a1.5 1.5 0 1 1-3.001-.001 1.5 1.5 0 0 1 3.001.001zM500 134.5a1.5 1.5 0 1 1-3.001-.001 1.5 1.5 0 0 1 3.001.001zM520 134.5a1.5 1.5 0 1 1-3.001-.001 1.5 1.5 0 0 1 3.001.001zM540 134.5a1.5 1.5 0 1 1-3.001-.001 1.5 1.5 0 0 1 3.001.001zM560 134.5a1.5 1.5 0 1 1-3.001-.001 1.5 1.5 0 0 1 3.001.001zM580 134.5a1.5 1.5 0 1 1-3.001-.001 1.5 1.5 0 0 1 3.001.001zM600 134.5a1.5 1.5 0 1 1-3.001-.001 1.5 1.5 0 0 1 3.001.001zM620 134.5a1.5 1.5 0 1 1-3.001-.001 1.5 1.5 0 0 1 3.001.001zM340 154.5a1.5 1.5 0 1 1-3.001-.001 1.5 1.5 0 0 1 3.001.001zM360 154.5a1.5 1.5 0 1 1-3.001-.001 1.5 1.5 0 0 1 3.001.001zM380 154.5a1.5 1.5 0 1 1-3.001-.001 1.5 1.5 0 0 1 3.001.001zM400 154.5a1.5 1.5 0 1 1-3.001-.001 1.5 1.5 0 0 1 3.001.001zM420 154.5a1.5 1.5 0 1 1-3.001-.001 1.5 1.5 0 0 1 3.001.001zM440 154.5a1.5 1.5 0 1 1-3.001-.001 1.5 1.5 0 0 1 3.001.001zM460 154.5a1.5 1.5 0 1 1-3.001-.001 1.5 1.5 0 0 1 3.001.001zM480 154.5a1.5 1.5 0 1 1-3.001-.001 1.5 1.5 0 0 1 3.001.001zM500 154.5a1.5 1.5 0 1 1-3.001-.001 1.5 1.5 0 0 1 3.001.001zM520 154.5a1.5 1.5 0 1 1-3.001-.001 1.5 1.5 0 0 1 3.001.001zM540 154.5a1.5 1.5 0 1 1-3.001-.001 1.5 1.5 0 0 1 3.001.001zM560 154.5a1.5 1.5 0 1 1-3.001-.001 1.5 1.5 0 0 1 3.001.001zM580 154.5a1.5 1.5 0 1 1-3.001-.001 1.5 1.5 0 0 1 3.001.001zM600 154.5a1.5 1.5 0 1 1-3.001-.001 1.5 1.5 0 0 1 3.001.001zM620 154.5a1.5 1.5 0 1 1-3.001-.001 1.5 1.5 0 0 1 3.001.001zM340 174.5a1.5 1.5 0 1 1-3.001-.001 1.5 1.5 0 0 1 3.001.001zM360 174.5a1.5 1.5 0 1 1-3.001-.001 1.5 1.5 0 0 1 3.001.001zM380 174.5a1.5 1.5 0 1 1-3.001-.001 1.5 1.5 0 0 1 3.001.001zM400 174.5a1.5 1.5 0 1 1-3.001-.001 1.5 1.5 0 0 1 3.001.001zM420 174.5a1.5 1.5 0 1 1-3.001-.001 1.5 1.5 0 0 1 3.001.001zM440 174.5a1.5 1.5 0 1 1-3.001-.001 1.5 1.5 0 0 1 3.001.001zM460 174.5a1.5 1.5 0 1 1-3.001-.001 1.5 1.5 0 0 1 3.001.001zM480 174.5a1.5 1.5 0 1 1-3.001-.001 1.5 1.5 0 0 1 3.001.001zM500 174.5a1.5 1.5 0 1 1-3.001-.001 1.5 1.5 0 0 1 3.001.001zM520 174.5a1.5 1.5 0 1 1-3.001-.001 1.5 1.5 0 0 1 3.001.001zM540 174.5a1.5 1.5 0 1 1-3.001-.001 1.5 1.5 0 0 1 3.001.001zM560 174.5a1.5 1.5 0 1 1-3.001-.001 1.5 1.5 0 0 1 3.001.001zM580 174.5a1.5 1.5 0 1 1-3.001-.001 1.5 1.5 0 0 1 3.001.001zM600 174.5a1.5 1.5 0 1 1-3.001-.001 1.5 1.5 0 0 1 3.001.001zM620 174.5a1.5 1.5 0 1 1-3.001-.001 1.5 1.5 0 0 1 3.001.001zM340 194.5a1.5 1.5 0 1 1-3.001-.001 1.5 1.5 0 0 1 3.001.001zM360 194.5a1.5 1.5 0 1 1-3.001-.001 1.5 1.5 0 0 1 3.001.001zM380 194.5a1.5 1.5 0 1 1-3.001-.001 1.5 1.5 0 0 1 3.001.001zM400 194.5a1.5 1.5 0 1 1-3.001-.001 1.5 1.5 0 0 1 3.001.001zM420 194.5a1.5 1.5 0 1 1-3.001-.001 1.5 1.5 0 0 1 3.001.001zM440 194.5a1.5 1.5 0 1 1-3.001-.001 1.5 1.5 0 0 1 3.001.001zM460 194.5a1.5 1.5 0 1 1-3.001-.001 1.5 1.5 0 0 1 3.001.001zM480 194.5a1.5 1.5 0 1 1-3.001-.001 1.5 1.5 0 0 1 3.001.001zM500 194.5a1.5 1.5 0 1 1-3.001-.001 1.5 1.5 0 0 1 3.001.001zM520 194.5a1.5 1.5 0 1 1-3.001-.001 1.5 1.5 0 0 1 3.001.001zM540 194.5a1.5 1.5 0 1 1-3.001-.001 1.5 1.5 0 0 1 3.001.001zM560 194.5a1.5 1.5 0 1 1-3.001-.001 1.5 1.5 0 0 1 3.001.001zM580 194.5a1.5 1.5 0 1 1-3.001-.001 1.5 1.5 0 0 1 3.001.001zM600 194.5a1.5 1.5 0 1 1-3.001-.001 1.5 1.5 0 0 1 3.001.001zM620 194.5a1.5 1.5 0 1 1-3.001-.001 1.5 1.5 0 0 1 3.001.001zM640 14.5a1.5 1.5 0 1 1-3 0 1.5 1.5 0 0 1 3 0zM660 14.5a1.5 1.5 0 1 1-3 0 1.5 1.5 0 0 1 3 0zM680 14.5a1.5 1.5 0 1 1-3 0 1.5 1.5 0 0 1 3 0zM700 14.5a1.5 1.5 0 1 1-3 0 1.5 1.5 0 0 1 3 0zM720 14.5a1.5 1.5 0 1 1-3 0 1.5 1.5 0 0 1 3 0zM740 14.5a1.5 1.5 0 1 1-3 0 1.5 1.5 0 0 1 3 0zM760 14.5a1.5 1.5 0 1 1-3 0 1.5 1.5 0 0 1 3 0zM640 34.5a1.5 1.5 0 1 1-3 0 1.5 1.5 0 0 1 3 0zM660 34.5a1.5 1.5 0 1 1-3 0 1.5 1.5 0 0 1 3 0zM680 34.5a1.5 1.5 0 1 1-3 0 1.5 1.5 0 0 1 3 0zM700 34.5a1.5 1.5 0 1 1-3 0 1.5 1.5 0 0 1 3 0zM720 34.5a1.5 1.5 0 1 1-3 0 1.5 1.5 0 0 1 3 0zM740 34.5a1.5 1.5 0 1 1-3 0 1.5 1.5 0 0 1 3 0zM760 34.5a1.5 1.5 0 1 1-3 0 1.5 1.5 0 0 1 3 0zM780 34.5a1.5 1.5 0 1 1-3 0 1.5 1.5 0 0 1 3 0zM640 54.5a1.5 1.5 0 1 1-3 0 1.5 1.5 0 0 1 3 0zM660 54.5a1.5 1.5 0 1 1-3 0 1.5 1.5 0 0 1 3 0zM680 54.5a1.5 1.5 0 1 1-3 0 1.5 1.5 0 0 1 3 0zM700 54.5a1.5 1.5 0 1 1-3 0 1.5 1.5 0 0 1 3 0zM720 54.5a1.5 1.5 0 1 1-3 0 1.5 1.5 0 0 1 3 0zM740 54.5a1.5 1.5 0 1 1-3 0 1.5 1.5 0 0 1 3 0zM760 54.5a1.5 1.5 0 1 1-3 0 1.5 1.5 0 0 1 3 0zM780 54.5a1.5 1.5 0 1 1-3 0 1.5 1.5 0 0 1 3 0zM800 54.5a1.5 1.5 0 1 1-3 0 1.5 1.5 0 0 1 3 0zM640 74.5a1.5 1.5 0 1 1-3 0 1.5 1.5 0 0 1 3 0zM660 74.5a1.5 1.5 0 1 1-3 0 1.5 1.5 0 0 1 3 0zM680 74.5a1.5 1.5 0 1 1-3 0 1.5 1.5 0 0 1 3 0zM700 74.5a1.5 1.5 0 1 1-3 0 1.5 1.5 0 0 1 3 0zM720 74.5a1.5 1.5 0 1 1-3 0 1.5 1.5 0 0 1 3 0zM740 74.5a1.5 1.5 0 1 1-3 0 1.5 1.5 0 0 1 3 0zM760 74.5a1.5 1.5 0 1 1-3 0 1.5 1.5 0 0 1 3 0zM780 74.5a1.5 1.5 0 1 1-3 0 1.5 1.5 0 0 1 3 0zM800 74.5a1.5 1.5 0 1 1-3 0 1.5 1.5 0 0 1 3 0zM640 94.5a1.5 1.5 0 1 1-3 0 1.5 1.5 0 0 1 3 0zM660 94.5a1.5 1.5 0 1 1-3 0 1.5 1.5 0 0 1 3 0zM680 94.5a1.5 1.5 0 1 1-3 0 1.5 1.5 0 0 1 3 0zM700 94.5a1.5 1.5 0 1 1-3 0 1.5 1.5 0 0 1 3 0zM720 94.5a1.5 1.5 0 1 1-3 0 1.5 1.5 0 0 1 3 0zM740 94.5a1.5 1.5 0 1 1-3 0 1.5 1.5 0 0 1 3 0zM760 94.5a1.5 1.5 0 1 1-3 0 1.5 1.5 0 0 1 3 0zM780 94.5a1.5 1.5 0 1 1-3 0 1.5 1.5 0 0 1 3 0zM800 94.5a1.5 1.5 0 1 1-3 0 1.5 1.5 0 0 1 3 0zM640 114.5a1.5 1.5 0 1 1-3.001-.001 1.5 1.5 0 0 1 3.001.001zM660 114.5a1.5 1.5 0 1 1-3.001-.001 1.5 1.5 0 0 1 3.001.001zM680 114.5a1.5 1.5 0 1 1-3.001-.001 1.5 1.5 0 0 1 3.001.001zM700 114.5a1.5 1.5 0 1 1-3.001-.001 1.5 1.5 0 0 1 3.001.001zM720 114.5a1.5 1.5 0 1 1-3.001-.001 1.5 1.5 0 0 1 3.001.001zM740 114.5a1.5 1.5 0 1 1-3.001-.001 1.5 1.5 0 0 1 3.001.001zM760 114.5a1.5 1.5 0 1 1-3.001-.001 1.5 1.5 0 0 1 3.001.001zM780 114.5a1.5 1.5 0 1 1-3.001-.001 1.5 1.5 0 0 1 3.001.001zM800 114.5a1.5 1.5 0 1 1-3.001-.001 1.5 1.5 0 0 1 3.001.001zM640 134.5a1.5 1.5 0 1 1-3.001-.001 1.5 1.5 0 0 1 3.001.001zM660 134.5a1.5 1.5 0 1 1-3.001-.001 1.5 1.5 0 0 1 3.001.001zM680 134.5a1.5 1.5 0 1 1-3.001-.001 1.5 1.5 0 0 1 3.001.001zM700 134.5a1.5 1.5 0 1 1-3.001-.001 1.5 1.5 0 0 1 3.001.001zM720 134.5a1.5 1.5 0 1 1-3.001-.001 1.5 1.5 0 0 1 3.001.001zM740 134.5a1.5 1.5 0 1 1-3.001-.001 1.5 1.5 0 0 1 3.001.001zM760 134.5a1.5 1.5 0 1 1-3.001-.001 1.5 1.5 0 0 1 3.001.001zM780 134.5a1.5 1.5 0 1 1-3.001-.001 1.5 1.5 0 0 1 3.001.001zM800 134.5a1.5 1.5 0 1 1-3.001-.001 1.5 1.5 0 0 1 3.001.001zM640 154.5a1.5 1.5 0 1 1-3.001-.001 1.5 1.5 0 0 1 3.001.001zM660 154.5a1.5 1.5 0 1 1-3.001-.001 1.5 1.5 0 0 1 3.001.001zM680 154.5a1.5 1.5 0 1 1-3.001-.001 1.5 1.5 0 0 1 3.001.001zM700 154.5a1.5 1.5 0 1 1-3.001-.001 1.5 1.5 0 0 1 3.001.001zM720 154.5a1.5 1.5 0 1 1-3.001-.001 1.5 1.5 0 0 1 3.001.001zM740 154.5a1.5 1.5 0 1 1-3.001-.001 1.5 1.5 0 0 1 3.001.001zM760 154.5a1.5 1.5 0 1 1-3.001-.001 1.5 1.5 0 0 1 3.001.001zM780 154.5a1.5 1.5 0 1 1-3.001-.001 1.5 1.5 0 0 1 3.001.001zM800 154.5a1.5 1.5 0 1 1-3.001-.001 1.5 1.5 0 0 1 3.001.001zM640 174.5a1.5 1.5 0 1 1-3.001-.001 1.5 1.5 0 0 1 3.001.001zM660 174.5a1.5 1.5 0 1 1-3.001-.001 1.5 1.5 0 0 1 3.001.001zM680 174.5a1.5 1.5 0 1 1-3.001-.001 1.5 1.5 0 0 1 3.001.001zM700 174.5a1.5 1.5 0 1 1-3.001-.001 1.5 1.5 0 0 1 3.001.001zM720 174.5a1.5 1.5 0 1 1-3.001-.001 1.5 1.5 0 0 1 3.001.001zM740 174.5a1.5 1.5 0 1 1-3.001-.001 1.5 1.5 0 0 1 3.001.001zM760 174.5a1.5 1.5 0 1 1-3.001-.001 1.5 1.5 0 0 1 3.001.001zM780 174.5a1.5 1.5 0 1 1-3.001-.001 1.5 1.5 0 0 1 3.001.001zM800 174.5a1.5 1.5 0 1 1-3.001-.001 1.5 1.5 0 0 1 3.001.001zM640 194.5a1.5 1.5 0 1 1-3.001-.001 1.5 1.5 0 0 1 3.001.001zM660 194.5a1.5 1.5 0 1 1-3.001-.001 1.5 1.5 0 0 1 3.001.001zM680 194.5a1.5 1.5 0 1 1-3.001-.001 1.5 1.5 0 0 1 3.001.001zM700 194.5a1.5 1.5 0 1 1-3.001-.001 1.5 1.5 0 0 1 3.001.001zM720 194.5a1.5 1.5 0 1 1-3.001-.001 1.5 1.5 0 0 1 3.001.001zM740 194.5a1.5 1.5 0 1 1-3.001-.001 1.5 1.5 0 0 1 3.001.001zM760 194.5a1.5 1.5 0 1 1-3.001-.001 1.5 1.5 0 0 1 3.001.001zM780 194.5a1.5 1.5 0 1 1-3.001-.001 1.5 1.5 0 0 1 3.001.001zM800 194.5a1.5 1.5 0 1 1-3.001-.001 1.5 1.5 0 0 1 3.001.001zM-20 214.5a1.5 1.5 0 1 1-3 0 1.5 1.5 0 0 1 3 0zM-20 234.5a1.5 1.5 0 1 1-3 0 1.5 1.5 0 0 1 3 0zM-20 254.5a1.5 1.5 0 1 1-3 0 1.5 1.5 0 0 1 3 0zM-20 274.5a1.5 1.5 0 1 1-3 0 1.5 1.5 0 0 1 3 0zM-20 294.5a1.5 1.5 0 1 1-3 0 1.5 1.5 0 0 1 3 0zM-20 314.5a1.5 1.5 0 1 1-3 0 1.5 1.5 0 0 1 3 0zM-20 334.5a1.5 1.5 0 1 1-3 0 1.5 1.5 0 0 1 3 0zM-20 354.5a1.5 1.5 0 1 1-3 0 1.5 1.5 0 0 1 3 0zM-20 374.5a1.5 1.5 0 1 1-3 0 1.5 1.5 0 0 1 3 0zM-20 394.5a1.5 1.5 0 1 1-3 0 1.5 1.5 0 0 1 3 0zM-20 414.5a1.5 1.5 0 1 1-3 0 1.5 1.5 0 0 1 3 0zM-20 434.5a1.5 1.5 0 1 1-3 0 1.5 1.5 0 0 1 3 0zM-20 454.5a1.5 1.5 0 1 1-3 0 1.5 1.5 0 0 1 3 0zM-20 474.5a1.5 1.5 0 1 1-3 0 1.5 1.5 0 0 1 3 0zM-20 494.5a1.5 1.5 0 1 1-3 0 1.5 1.5 0 0 1 3 0zM-20 514.5a1.5 1.5 0 1 1-3 0 1.5 1.5 0 0 1 3 0zM-20 174.5a1.5 1.5 0 1 1-3 0 1.5 1.5 0 0 1 3 0zM-20 194.5a1.5 1.5 0 1 1-3 0 1.5 1.5 0 0 1 3 0z"/></g><path d="M398.176 522.576c-25.723-96 31.248-194.676 127.248-220.4 96-25.723 194.676 31.248 220.399 127.248 25.724 96-31.247 194.676-127.247 220.399-96 25.724-194.676-31.247-220.4-127.247z" fill="url(#paint0_linear)" filter="url(#filter0_di)"/><path d="M131.764 467.713c-28.588-106.693 34.728-216.361 141.421-244.949 106.693-28.588 216.361 34.728 244.949 141.421 28.589 106.693-34.728 216.361-141.421 244.949-106.693 28.589-216.361-34.728-244.949-141.421z" fill="url(#paint1_linear)" filter="url(#filter1_di)"/><path d="M516.058 217.028c-17.153-64.016 20.837-129.816 84.853-146.97 64.016-17.152 129.816 20.837 146.969 84.853 17.153 64.016-20.837 129.817-84.852 146.97-64.016 17.153-129.817-20.837-146.97-84.853z" fill="url(#paint2_linear)" filter="url(#filter2_di)"/><path d="M68.53 207.014c-8.577-32.008 10.418-64.908 42.425-73.485 32.008-8.576 64.909 10.419 73.485 42.426 8.577 32.008-10.418 64.909-42.426 73.485-32.008 8.577-64.908-10.418-73.485-42.426z" fill="url(#paint3_linear)" filter="url(#filter3_di)"/><path d="M425.412 125.267c-10.721-40.01 13.023-81.135 53.033-91.856 40.01-10.72 81.135 13.023 91.855 53.033 10.721 40.01-13.023 81.135-53.033 91.856-40.01 10.721-81.135-13.023-91.855-53.033z" fill="url(#paint4_linear)" filter="url(#filter4_di)"/><path d="M41.764 96.507c-4.288-16.004 5.21-32.454 21.214-36.743 16.004-4.288 32.454 5.21 36.742 21.214 4.288 16.004-5.21 32.454-21.213 36.742-16.004 4.288-32.454-5.209-36.743-21.213z" fill="url(#paint5_linear)" filter="url(#filter5_di)"/><path d="M702.765 265.507c-4.289-16.004 5.209-32.454 21.213-36.742 16.004-4.289 32.454 5.209 36.742 21.213 4.288 16.004-5.209 32.454-21.213 36.742-16.004 4.288-32.454-5.209-36.742-21.213z" fill="url(#paint6_linear)" filter="url(#filter6_di)"/><defs><filter id="filter0_di" x="347" y="266" width="450" height="450" filterUnits="userSpaceOnUse" color-interpolation-filters="sRGB"><feFlood flood-opacity="0" result="BackgroundImageFix"/><feColorMatrix in="SourceAlpha" values="0 0 0 0 0 0 0 0 0 0 0 0 0 0 0 0 0 0 127 0"/><feOffset dy="15"/><feGaussianBlur stdDeviation="22.5"/><feColorMatrix values="0 0 0 0 0.992157 0 0 0 0 0.443137 0 0 0 0 0.686275 0 0 0 0.5 0"/><feBlend in2="BackgroundImageFix" result="effect1_dropShadow"/><feBlend in="SourceGraphic" in2="effect1_dropShadow" result="shape"/><feColorMatrix in="SourceAlpha" values="0 0 0 0 0 0 0 0 0 0 0 0 0 0 0 0 0 0 127 0" result="hardAlpha"/><feOffset/><feGaussianBlur stdDeviation="5"/><feComposite in2="hardAlpha" operator="arithmetic" k2="-1" k3="1"/><feColorMatrix values="0 0 0 0 1 0 0 0 0 1 0 0 0 0 1 0 0 0 0.25 0"/><feBlend in2="shape" result="effect2_innerShadow"/></filter><filter id="filter1_di" x="79.899" y="185.899" width="490.099" height="490.099" filterUnits="userSpaceOnUse" color-interpolation-filters="sRGB"><feFlood flood-opacity="0" result="BackgroundImageFix"/><feColorMatrix in="SourceAlpha" values="0 0 0 0 0 0 0 0 0 0 0 0 0 0 0 0 0 0 127 0"/><feOffset dy="15"/><feGaussianBlur stdDeviation="22.5"/><feColorMatrix values="0 0 0 0 0.992157 0 0 0 0 0.443137 0 0 0 0 0.686275 0 0 0 0.5 0"/><feBlend in2="BackgroundImageFix" result="effect1_dropShadow"/><feBlend in="SourceGraphic" in2="effect1_dropShadow" result="shape"/><feColorMatrix in="SourceAlpha" values="0 0 0 0 0 0 0 0 0 0 0 0 0 0 0 0 0 0 127 0" result="hardAlpha"/><feOffset/><feGaussianBlur stdDeviation="5"/><feComposite in2="hardAlpha" operator="arithmetic" k2="-1" k3="1"/><feColorMatrix values="0 0 0 0 1 0 0 0 0 1 0 0 0 0 1 0 0 0 0.25 0"/><feBlend in2="shape" result="effect2_innerShadow"/></filter><filter id="filter2_di" x="466.939" y="35.94" width="330.06" height="330.06" filterUnits="userSpaceOnUse" color-interpolation-filters="sRGB"><feFlood flood-opacity="0" result="BackgroundImageFix"/><feColorMatrix in="SourceAlpha" values="0 0 0 0 0 0 0 0 0 0 0 0 0 0 0 0 0 0 127 0"/><feOffset dy="15"/><feGaussianBlur stdDeviation="22.5"/><feColorMatrix values="0 0 0 0 0.992157 0 0 0 0 0.443137 0 0 0 0 0.686275 0 0 0 0.5 0"/><feBlend in2="BackgroundImageFix" result="effect1_dropShadow"/><feBlend in="SourceGraphic" in2="effect1_dropShadow" result="shape"/><feColorMatrix in="SourceAlpha" values="0 0 0 0 0 0 0 0 0 0 0 0 0 0 0 0 0 0 127 0" result="hardAlpha"/><feOffset/><feGaussianBlur stdDeviation="5"/><feComposite in2="hardAlpha" operator="arithmetic" k2="-1" k3="1"/><feColorMatrix values="0 0 0 0 1 0 0 0 0 1 0 0 0 0 1 0 0 0 0.25 0"/><feBlend in2="shape" result="effect2_innerShadow"/></filter><filter id="filter3_di" x="21.47" y="101.47" width="210.03" height="210.03" filterUnits="userSpaceOnUse" color-interpolation-filters="sRGB"><feFlood flood-opacity="0" result="BackgroundImageFix"/><feColorMatrix in="SourceAlpha" values="0 0 0 0 0 0 0 0 0 0 0 0 0 0 0 0 0 0 127 0"/><feOffset dy="15"/><feGaussianBlur stdDeviation="22.5"/><feColorMatrix values="0 0 0 0 0.992157 0 0 0 0 0.443137 0 0 0 0 0.686275 0 0 0 0.5 0"/><feBlend in2="BackgroundImageFix" result="effect1_dropShadow"/><feBlend in="SourceGraphic" in2="effect1_dropShadow" result="shape"/><feColorMatrix in="SourceAlpha" values="0 0 0 0 0 0 0 0 0 0 0 0 0 0 0 0 0 0 127 0" result="hardAlpha"/><feOffset/><feGaussianBlur stdDeviation="5"/><feComposite in2="hardAlpha" operator="arithmetic" k2="-1" k3="1"/><feColorMatrix values="0 0 0 0 1 0 0 0 0 1 0 0 0 0 1 0 0 0 0.25 0"/><feBlend in2="shape" result="effect2_innerShadow"/></filter><filter id="filter4_di" x="377.837" y=".837" width="240.037" height="240.037" filterUnits="userSpaceOnUse" color-interpolation-filters="sRGB"><feFlood flood-opacity="0" result="BackgroundImageFix"/><feColorMatrix in="SourceAlpha" values="0 0 0 0 0 0 0 0 0 0 0 0 0 0 0 0 0 0 127 0"/><feOffset dy="15"/><feGaussianBlur stdDeviation="22.5"/><feColorMatrix values="0 0 0 0 0.992157 0 0 0 0 0.443137 0 0 0 0 0.686275 0 0 0 0.5 0"/><feBlend in2="BackgroundImageFix" result="effect1_dropShadow"/><feBlend in="SourceGraphic" in2="effect1_dropShadow" result="shape"/><feColorMatrix in="SourceAlpha" values="0 0 0 0 0 0 0 0 0 0 0 0 0 0 0 0 0 0 127 0" result="hardAlpha"/><feOffset/><feGaussianBlur stdDeviation="5"/><feComposite in2="hardAlpha" operator="arithmetic" k2="-1" k3="1"/><feColorMatrix values="0 0 0 0 1 0 0 0 0 1 0 0 0 0 1 0 0 0 0.25 0"/><feBlend in2="shape" result="effect2_innerShadow"/></filter><filter id="filter5_di" x="-4.265" y="28.735" width="150.015" height="150.015" filterUnits="userSpaceOnUse" color-interpolation-filters="sRGB"><feFlood flood-opacity="0" result="BackgroundImageFix"/><feColorMatrix in="SourceAlpha" values="0 0 0 0 0 0 0 0 0 0 0 0 0 0 0 0 0 0 127 0"/><feOffset dy="15"/><feGaussianBlur stdDeviation="22.5"/><feColorMatrix values="0 0 0 0 0.992157 0 0 0 0 0.443137 0 0 0 0 0.686275 0 0 0 0.5 0"/><feBlend in2="BackgroundImageFix" result="effect1_dropShadow"/><feBlend in="SourceGraphic" in2="effect1_dropShadow" result="shape"/><feColorMatrix in="SourceAlpha" values="0 0 0 0 0 0 0 0 0 0 0 0 0 0 0 0 0 0 127 0" result="hardAlpha"/><feOffset/><feGaussianBlur stdDeviation="5"/><feComposite in2="hardAlpha" operator="arithmetic" k2="-1" k3="1"/><feColorMatrix values="0 0 0 0 1 0 0 0 0 1 0 0 0 0 1 0 0 0 0.25 0"/><feBlend in2="shape" result="effect2_innerShadow"/></filter><filter id="filter6_di" x="656.735" y="197.735" width="150.015" height="150.015" filterUnits="userSpaceOnUse" color-interpolation-filters="sRGB"><feFlood flood-opacity="0" result="BackgroundImageFix"/><feColorMatrix in="SourceAlpha" values="0 0 0 0 0 0 0 0 0 0 0 0 0 0 0 0 0 0 127 0"/><feOffset dy="15"/><feGaussianBlur stdDeviation="22.5"/><feColorMatrix values="0 0 0 0 0.992157 0 0 0 0 0.443137 0 0 0 0 0.686275 0 0 0 0.5 0"/><feBlend in2="BackgroundImageFix" result="effect1_dropShadow"/><feBlend in="SourceGraphic" in2="effect1_dropShadow" result="shape"/><feColorMatrix in="SourceAlpha" values="0 0 0 0 0 0 0 0 0 0 0 0 0 0 0 0 0 0 127 0" result="hardAlpha"/><feOffset/><feGaussianBlur stdDeviation="5"/><feComposite in2="hardAlpha" operator="arithmetic" k2="-1" k3="1"/><feColorMatrix values="0 0 0 0 1 0 0 0 0 1 0 0 0 0 1 0 0 0 0.25 0"/><feBlend in2="shape" result="effect2_innerShadow"/></filter><linearGradient id="paint0_linear" x1="512.061" y1="312.586" x2="663.227" y2="618.849" gradientUnits="userSpaceOnUse"><stop stop-color="#FF9EC9"/><stop offset="1" stop-color="#FD71AF"/></linearGradient><linearGradient id="paint1_linear" x1="258.333" y1="234.333" x2="426.337" y2="574.709" gradientUnits="userSpaceOnUse"><stop stop-color="#FF9EC9"/><stop offset="1" stop-color="#FD71AF"/></linearGradient><linearGradient id="paint2_linear" x1="592" y1="77" x2="692.802" y2="281.226" gradientUnits="userSpaceOnUse"><stop stop-color="#FF9EC9"/><stop offset="1" stop-color="#FD71AF"/></linearGradient><linearGradient id="paint3_linear" x1="106.5" y1="137" x2="156.901" y2="239.113" gradientUnits="userSpaceOnUse"><stop stop-color="#FF9EC9"/><stop offset="1" stop-color="#FD71AF"/></linearGradient><linearGradient id="paint4_linear" x1="472.875" y1="37.749" x2="535.876" y2="165.391" gradientUnits="userSpaceOnUse"><stop stop-color="#FF9EC9"/><stop offset="1" stop-color="#FD71AF"/></linearGradient><linearGradient id="paint5_linear" x1="60.75" y1="61.5" x2="85.951" y2="112.556" gradientUnits="userSpaceOnUse"><stop stop-color="#FF9EC9"/><stop offset="1" stop-color="#FD71AF"/></linearGradient><linearGradient id="paint6_linear" x1="721.75" y1="230.5" x2="746.951" y2="281.556" gradientUnits="userSpaceOnUse"><stop stop-color="#FF9EC9"/><stop offset="1" stop-color="#FD71AF"/></linearGradient></defs></svg>