<svg width="819" height="707" fill="none" xmlns="http://www.w3.org/2000/svg"><g opacity=".1" fill="#000"><path d="M0 205.5a1.5 1.5 0 1 1-3 0 1.5 1.5 0 0 1 3 0zM20 205.5a1.5 1.5 0 1 1-3 0 1.5 1.5 0 0 1 3 0zM0 225.5a1.5 1.5 0 1 1-3 0 1.5 1.5 0 0 1 3 0zM20 225.5a1.5 1.5 0 1 1-3 0 1.5 1.5 0 0 1 3 0zM0 245.5a1.5 1.5 0 1 1-3 0 1.5 1.5 0 0 1 3 0zM20 245.5a1.5 1.5 0 1 1-3 0 1.5 1.5 0 0 1 3 0zM0 265.5a1.5 1.5 0 1 1-3 0 1.5 1.5 0 0 1 3 0zM20 265.5a1.5 1.5 0 1 1-3 0 1.5 1.5 0 0 1 3 0zM0 285.5a1.5 1.5 0 1 1-3 0 1.5 1.5 0 0 1 3 0zM20 285.5a1.5 1.5 0 1 1-3 0 1.5 1.5 0 0 1 3 0zM0 305.5a1.5 1.5 0 1 1-3 0 1.5 1.5 0 0 1 3 0zM20 305.5a1.5 1.5 0 1 1-3 0 1.5 1.5 0 0 1 3 0zM0 325.5a1.5 1.5 0 1 1-3 0 1.5 1.5 0 0 1 3 0zM20 325.5a1.5 1.5 0 1 1-3 0 1.5 1.5 0 0 1 3 0zM0 345.5a1.5 1.5 0 1 1-3 0 1.5 1.5 0 0 1 3 0zM20 345.5a1.5 1.5 0 1 1-3 0 1.5 1.5 0 0 1 3 0zM0 365.5a1.5 1.5 0 1 1-3 0 1.5 1.5 0 0 1 3 0zM20 365.5a1.5 1.5 0 1 1-3 0 1.5 1.5 0 0 1 3 0zM0 385.5a1.5 1.5 0 1 1-3 0 1.5 1.5 0 0 1 3 0zM20 385.5a1.5 1.5 0 1 1-3 0 1.5 1.5 0 0 1 3 0zM0 405.5a1.5 1.5 0 1 1-3 0 1.5 1.5 0 0 1 3 0zM20 405.5a1.5 1.5 0 1 1-3 0 1.5 1.5 0 0 1 3 0zM0 425.5a1.5 1.5 0 1 1-3 0 1.5 1.5 0 0 1 3 0zM20 425.5a1.5 1.5 0 1 1-3 0 1.5 1.5 0 0 1 3 0zM40 205.5a1.5 1.5 0 1 1-3 0 1.5 1.5 0 0 1 3 0zM60 205.5a1.5 1.5 0 1 1-3 0 1.5 1.5 0 0 1 3 0zM80 205.5a1.5 1.5 0 1 1-3 0 1.5 1.5 0 0 1 3 0zM100 205.5a1.5 1.5 0 1 1-3 0 1.5 1.5 0 0 1 3 0zM120 205.5a1.5 1.5 0 1 1-3.001-.001 1.5 1.5 0 0 1 3.001.001zM140 205.5a1.5 1.5 0 1 1-3.001-.001 1.5 1.5 0 0 1 3.001.001zM160 205.5a1.5 1.5 0 1 1-3.001-.001 1.5 1.5 0 0 1 3.001.001zM180 205.5a1.5 1.5 0 1 1-3.001-.001 1.5 1.5 0 0 1 3.001.001zM200 205.5a1.5 1.5 0 1 1-3.001-.001 1.5 1.5 0 0 1 3.001.001zM220 205.5a1.5 1.5 0 1 1-3.001-.001 1.5 1.5 0 0 1 3.001.001zM240 205.5a1.5 1.5 0 1 1-3.001-.001 1.5 1.5 0 0 1 3.001.001zM260 205.5a1.5 1.5 0 1 1-3.001-.001 1.5 1.5 0 0 1 3.001.001zM280 205.5a1.5 1.5 0 1 1-3.001-.001 1.5 1.5 0 0 1 3.001.001zM300 205.5a1.5 1.5 0 1 1-3.001-.001 1.5 1.5 0 0 1 3.001.001zM320 205.5a1.5 1.5 0 1 1-3.001-.001 1.5 1.5 0 0 1 3.001.001zM40 225.5a1.5 1.5 0 1 1-3 0 1.5 1.5 0 0 1 3 0zM60 225.5a1.5 1.5 0 1 1-3 0 1.5 1.5 0 0 1 3 0zM80 225.5a1.5 1.5 0 1 1-3 0 1.5 1.5 0 0 1 3 0zM100 225.5a1.5 1.5 0 1 1-3 0 1.5 1.5 0 0 1 3 0zM120 225.5a1.5 1.5 0 1 1-3.001-.001 1.5 1.5 0 0 1 3.001.001zM140 225.5a1.5 1.5 0 1 1-3.001-.001 1.5 1.5 0 0 1 3.001.001zM160 225.5a1.5 1.5 0 1 1-3.001-.001 1.5 1.5 0 0 1 3.001.001zM180 225.5a1.5 1.5 0 1 1-3.001-.001 1.5 1.5 0 0 1 3.001.001zM200 225.5a1.5 1.5 0 1 1-3.001-.001 1.5 1.5 0 0 1 3.001.001zM220 225.5a1.5 1.5 0 1 1-3.001-.001 1.5 1.5 0 0 1 3.001.001zM240 225.5a1.5 1.5 0 1 1-3.001-.001 1.5 1.5 0 0 1 3.001.001zM260 225.5a1.5 1.5 0 1 1-3.001-.001 1.5 1.5 0 0 1 3.001.001zM280 225.5a1.5 1.5 0 1 1-3.001-.001 1.5 1.5 0 0 1 3.001.001zM300 225.5a1.5 1.5 0 1 1-3.001-.001 1.5 1.5 0 0 1 3.001.001zM320 225.5a1.5 1.5 0 1 1-3.001-.001 1.5 1.5 0 0 1 3.001.001zM40 245.5a1.5 1.5 0 1 1-3 0 1.5 1.5 0 0 1 3 0zM60 245.5a1.5 1.5 0 1 1-3 0 1.5 1.5 0 0 1 3 0zM80 245.5a1.5 1.5 0 1 1-3 0 1.5 1.5 0 0 1 3 0zM100 245.5a1.5 1.5 0 1 1-3 0 1.5 1.5 0 0 1 3 0zM120 245.5a1.5 1.5 0 1 1-3.001-.001 1.5 1.5 0 0 1 3.001.001zM140 245.5a1.5 1.5 0 1 1-3.001-.001 1.5 1.5 0 0 1 3.001.001zM160 245.5a1.5 1.5 0 1 1-3.001-.001 1.5 1.5 0 0 1 3.001.001zM180 245.5a1.5 1.5 0 1 1-3.001-.001 1.5 1.5 0 0 1 3.001.001zM200 245.5a1.5 1.5 0 1 1-3.001-.001 1.5 1.5 0 0 1 3.001.001zM220 245.5a1.5 1.5 0 1 1-3.001-.001 1.5 1.5 0 0 1 3.001.001zM240 245.5a1.5 1.5 0 1 1-3.001-.001 1.5 1.5 0 0 1 3.001.001zM260 245.5a1.5 1.5 0 1 1-3.001-.001 1.5 1.5 0 0 1 3.001.001zM280 245.5a1.5 1.5 0 1 1-3.001-.001 1.5 1.5 0 0 1 3.001.001zM300 245.5a1.5 1.5 0 1 1-3.001-.001 1.5 1.5 0 0 1 3.001.001zM320 245.5a1.5 1.5 0 1 1-3.001-.001 1.5 1.5 0 0 1 3.001.001zM40 265.5a1.5 1.5 0 1 1-3 0 1.5 1.5 0 0 1 3 0zM60 265.5a1.5 1.5 0 1 1-3 0 1.5 1.5 0 0 1 3 0zM80 265.5a1.5 1.5 0 1 1-3 0 1.5 1.5 0 0 1 3 0zM100 265.5a1.5 1.5 0 1 1-3 0 1.5 1.5 0 0 1 3 0zM120 265.5a1.5 1.5 0 1 1-3.001-.001 1.5 1.5 0 0 1 3.001.001zM140 265.5a1.5 1.5 0 1 1-3.001-.001 1.5 1.5 0 0 1 3.001.001zM160 265.5a1.5 1.5 0 1 1-3.001-.001 1.5 1.5 0 0 1 3.001.001zM180 265.5a1.5 1.5 0 1 1-3.001-.001 1.5 1.5 0 0 1 3.001.001zM200 265.5a1.5 1.5 0 1 1-3.001-.001 1.5 1.5 0 0 1 3.001.001zM220 265.5a1.5 1.5 0 1 1-3.001-.001 1.5 1.5 0 0 1 3.001.001zM240 265.5a1.5 1.5 0 1 1-3.001-.001 1.5 1.5 0 0 1 3.001.001zM260 265.5a1.5 1.5 0 1 1-3.001-.001 1.5 1.5 0 0 1 3.001.001zM280 265.5a1.5 1.5 0 1 1-3.001-.001 1.5 1.5 0 0 1 3.001.001zM300 265.5a1.5 1.5 0 1 1-3.001-.001 1.5 1.5 0 0 1 3.001.001zM320 265.5a1.5 1.5 0 1 1-3.001-.001 1.5 1.5 0 0 1 3.001.001zM40 285.5a1.5 1.5 0 1 1-3 0 1.5 1.5 0 0 1 3 0zM60 285.5a1.5 1.5 0 1 1-3 0 1.5 1.5 0 0 1 3 0zM80 285.5a1.5 1.5 0 1 1-3 0 1.5 1.5 0 0 1 3 0zM100 285.5a1.5 1.5 0 1 1-3 0 1.5 1.5 0 0 1 3 0zM120 285.5a1.5 1.5 0 1 1-3.001-.001 1.5 1.5 0 0 1 3.001.001zM140 285.5a1.5 1.5 0 1 1-3.001-.001 1.5 1.5 0 0 1 3.001.001zM160 285.5a1.5 1.5 0 1 1-3.001-.001 1.5 1.5 0 0 1 3.001.001zM180 285.5a1.5 1.5 0 1 1-3.001-.001 1.5 1.5 0 0 1 3.001.001zM200 285.5a1.5 1.5 0 1 1-3.001-.001 1.5 1.5 0 0 1 3.001.001zM220 285.5a1.5 1.5 0 1 1-3.001-.001 1.5 1.5 0 0 1 3.001.001zM240 285.5a1.5 1.5 0 1 1-3.001-.001 1.5 1.5 0 0 1 3.001.001zM260 285.5a1.5 1.5 0 1 1-3.001-.001 1.5 1.5 0 0 1 3.001.001zM280 285.5a1.5 1.5 0 1 1-3.001-.001 1.5 1.5 0 0 1 3.001.001zM300 285.5a1.5 1.5 0 1 1-3.001-.001 1.5 1.5 0 0 1 3.001.001zM320 285.5a1.5 1.5 0 1 1-3.001-.001 1.5 1.5 0 0 1 3.001.001zM40 305.5a1.5 1.5 0 1 1-3 0 1.5 1.5 0 0 1 3 0zM60 305.5a1.5 1.5 0 1 1-3 0 1.5 1.5 0 0 1 3 0zM80 305.5a1.5 1.5 0 1 1-3 0 1.5 1.5 0 0 1 3 0zM100 305.5a1.5 1.5 0 1 1-3 0 1.5 1.5 0 0 1 3 0zM120 305.5a1.5 1.5 0 1 1-3.001-.001 1.5 1.5 0 0 1 3.001.001zM140 305.5a1.5 1.5 0 1 1-3.001-.001 1.5 1.5 0 0 1 3.001.001zM160 305.5a1.5 1.5 0 1 1-3.001-.001 1.5 1.5 0 0 1 3.001.001zM180 305.5a1.5 1.5 0 1 1-3.001-.001 1.5 1.5 0 0 1 3.001.001zM200 305.5a1.5 1.5 0 1 1-3.001-.001 1.5 1.5 0 0 1 3.001.001zM220 305.5a1.5 1.5 0 1 1-3.001-.001 1.5 1.5 0 0 1 3.001.001zM240 305.5a1.5 1.5 0 1 1-3.001-.001 1.5 1.5 0 0 1 3.001.001zM260 305.5a1.5 1.5 0 1 1-3.001-.001 1.5 1.5 0 0 1 3.001.001zM280 305.5a1.5 1.5 0 1 1-3.001-.001 1.5 1.5 0 0 1 3.001.001zM300 305.5a1.5 1.5 0 1 1-3.001-.001 1.5 1.5 0 0 1 3.001.001zM320 305.5a1.5 1.5 0 1 1-3.001-.001 1.5 1.5 0 0 1 3.001.001zM40 325.5a1.5 1.5 0 1 1-3 0 1.5 1.5 0 0 1 3 0zM60 325.5a1.5 1.5 0 1 1-3 0 1.5 1.5 0 0 1 3 0zM80 325.5a1.5 1.5 0 1 1-3 0 1.5 1.5 0 0 1 3 0zM100 325.5a1.5 1.5 0 1 1-3 0 1.5 1.5 0 0 1 3 0zM120 325.5a1.5 1.5 0 1 1-3.001-.001 1.5 1.5 0 0 1 3.001.001zM140 325.5a1.5 1.5 0 1 1-3.001-.001 1.5 1.5 0 0 1 3.001.001zM160 325.5a1.5 1.5 0 1 1-3.001-.001 1.5 1.5 0 0 1 3.001.001zM180 325.5a1.5 1.5 0 1 1-3.001-.001 1.5 1.5 0 0 1 3.001.001zM200 325.5a1.5 1.5 0 1 1-3.001-.001 1.5 1.5 0 0 1 3.001.001zM220 325.5a1.5 1.5 0 1 1-3.001-.001 1.5 1.5 0 0 1 3.001.001zM240 325.5a1.5 1.5 0 1 1-3.001-.001 1.5 1.5 0 0 1 3.001.001zM260 325.5a1.5 1.5 0 1 1-3.001-.001 1.5 1.5 0 0 1 3.001.001zM280 325.5a1.5 1.5 0 1 1-3.001-.001 1.5 1.5 0 0 1 3.001.001zM300 325.5a1.5 1.5 0 1 1-3.001-.001 1.5 1.5 0 0 1 3.001.001zM320 325.5a1.5 1.5 0 1 1-3.001-.001 1.5 1.5 0 0 1 3.001.001zM40 345.5a1.5 1.5 0 1 1-3 0 1.5 1.5 0 0 1 3 0zM60 345.5a1.5 1.5 0 1 1-3 0 1.5 1.5 0 0 1 3 0zM80 345.5a1.5 1.5 0 1 1-3 0 1.5 1.5 0 0 1 3 0zM100 345.5a1.5 1.5 0 1 1-3 0 1.5 1.5 0 0 1 3 0zM120 345.5a1.5 1.5 0 1 1-3.001-.001 1.5 1.5 0 0 1 3.001.001zM140 345.5a1.5 1.5 0 1 1-3.001-.001 1.5 1.5 0 0 1 3.001.001zM160 345.5a1.5 1.5 0 1 1-3.001-.001 1.5 1.5 0 0 1 3.001.001zM180 345.5a1.5 1.5 0 1 1-3.001-.001 1.5 1.5 0 0 1 3.001.001zM200 345.5a1.5 1.5 0 1 1-3.001-.001 1.5 1.5 0 0 1 3.001.001zM220 345.5a1.5 1.5 0 1 1-3.001-.001 1.5 1.5 0 0 1 3.001.001zM240 345.5a1.5 1.5 0 1 1-3.001-.001 1.5 1.5 0 0 1 3.001.001zM260 345.5a1.5 1.5 0 1 1-3.001-.001 1.5 1.5 0 0 1 3.001.001zM280 345.5a1.5 1.5 0 1 1-3.001-.001 1.5 1.5 0 0 1 3.001.001zM300 345.5a1.5 1.5 0 1 1-3.001-.001 1.5 1.5 0 0 1 3.001.001zM320 345.5a1.5 1.5 0 1 1-3.001-.001 1.5 1.5 0 0 1 3.001.001zM40 365.5a1.5 1.5 0 1 1-3 0 1.5 1.5 0 0 1 3 0zM60 365.5a1.5 1.5 0 1 1-3 0 1.5 1.5 0 0 1 3 0zM80 365.5a1.5 1.5 0 1 1-3 0 1.5 1.5 0 0 1 3 0zM100 365.5a1.5 1.5 0 1 1-3 0 1.5 1.5 0 0 1 3 0zM120 365.5a1.5 1.5 0 1 1-3.001-.001 1.5 1.5 0 0 1 3.001.001zM140 365.5a1.5 1.5 0 1 1-3.001-.001 1.5 1.5 0 0 1 3.001.001zM160 365.5a1.5 1.5 0 1 1-3.001-.001 1.5 1.5 0 0 1 3.001.001zM180 365.5a1.5 1.5 0 1 1-3.001-.001 1.5 1.5 0 0 1 3.001.001zM200 365.5a1.5 1.5 0 1 1-3.001-.001 1.5 1.5 0 0 1 3.001.001zM220 365.5a1.5 1.5 0 1 1-3.001-.001 1.5 1.5 0 0 1 3.001.001zM240 365.5a1.5 1.5 0 1 1-3.001-.001 1.5 1.5 0 0 1 3.001.001zM260 365.5a1.5 1.5 0 1 1-3.001-.001 1.5 1.5 0 0 1 3.001.001zM280 365.5a1.5 1.5 0 1 1-3.001-.001 1.5 1.5 0 0 1 3.001.001zM300 365.5a1.5 1.5 0 1 1-3.001-.001 1.5 1.5 0 0 1 3.001.001zM320 365.5a1.5 1.5 0 1 1-3.001-.001 1.5 1.5 0 0 1 3.001.001zM40 385.5a1.5 1.5 0 1 1-3 0 1.5 1.5 0 0 1 3 0zM60 385.5a1.5 1.5 0 1 1-3 0 1.5 1.5 0 0 1 3 0zM80 385.5a1.5 1.5 0 1 1-3 0 1.5 1.5 0 0 1 3 0zM100 385.5a1.5 1.5 0 1 1-3 0 1.5 1.5 0 0 1 3 0zM120 385.5a1.5 1.5 0 1 1-3.001-.001 1.5 1.5 0 0 1 3.001.001zM140 385.5a1.5 1.5 0 1 1-3.001-.001 1.5 1.5 0 0 1 3.001.001zM160 385.5a1.5 1.5 0 1 1-3.001-.001 1.5 1.5 0 0 1 3.001.001zM180 385.5a1.5 1.5 0 1 1-3.001-.001 1.5 1.5 0 0 1 3.001.001zM200 385.5a1.5 1.5 0 1 1-3.001-.001 1.5 1.5 0 0 1 3.001.001zM220 385.5a1.5 1.5 0 1 1-3.001-.001 1.5 1.5 0 0 1 3.001.001zM240 385.5a1.5 1.5 0 1 1-3.001-.001 1.5 1.5 0 0 1 3.001.001zM260 385.5a1.5 1.5 0 1 1-3.001-.001 1.5 1.5 0 0 1 3.001.001zM280 385.5a1.5 1.5 0 1 1-3.001-.001 1.5 1.5 0 0 1 3.001.001zM300 385.5a1.5 1.5 0 1 1-3.001-.001 1.5 1.5 0 0 1 3.001.001zM320 385.5a1.5 1.5 0 1 1-3.001-.001 1.5 1.5 0 0 1 3.001.001zM40 405.5a1.5 1.5 0 1 1-3 0 1.5 1.5 0 0 1 3 0zM60 405.5a1.5 1.5 0 1 1-3 0 1.5 1.5 0 0 1 3 0zM80 405.5a1.5 1.5 0 1 1-3 0 1.5 1.5 0 0 1 3 0zM100 405.5a1.5 1.5 0 1 1-3 0 1.5 1.5 0 0 1 3 0zM120 405.5a1.5 1.5 0 1 1-3.001-.001 1.5 1.5 0 0 1 3.001.001zM140 405.5a1.5 1.5 0 1 1-3.001-.001 1.5 1.5 0 0 1 3.001.001zM160 405.5a1.5 1.5 0 1 1-3.001-.001 1.5 1.5 0 0 1 3.001.001zM180 405.5a1.5 1.5 0 1 1-3.001-.001 1.5 1.5 0 0 1 3.001.001zM200 405.5a1.5 1.5 0 1 1-3.001-.001 1.5 1.5 0 0 1 3.001.001zM220 405.5a1.5 1.5 0 1 1-3.001-.001 1.5 1.5 0 0 1 3.001.001zM240 405.5a1.5 1.5 0 1 1-3.001-.001 1.5 1.5 0 0 1 3.001.001zM260 405.5a1.5 1.5 0 1 1-3.001-.001 1.5 1.5 0 0 1 3.001.001zM280 405.5a1.5 1.5 0 1 1-3.001-.001 1.5 1.5 0 0 1 3.001.001zM300 405.5a1.5 1.5 0 1 1-3.001-.001 1.5 1.5 0 0 1 3.001.001zM320 405.5a1.5 1.5 0 1 1-3.001-.001 1.5 1.5 0 0 1 3.001.001zM40 425.5a1.5 1.5 0 1 1-3 0 1.5 1.5 0 0 1 3 0zM60 425.5a1.5 1.5 0 1 1-3 0 1.5 1.5 0 0 1 3 0zM80 425.5a1.5 1.5 0 1 1-3 0 1.5 1.5 0 0 1 3 0zM100 425.5a1.5 1.5 0 1 1-3 0 1.5 1.5 0 0 1 3 0zM120 425.5a1.5 1.5 0 1 1-3.001-.001 1.5 1.5 0 0 1 3.001.001zM140 425.5a1.5 1.5 0 1 1-3.001-.001 1.5 1.5 0 0 1 3.001.001zM160 425.5a1.5 1.5 0 1 1-3.001-.001 1.5 1.5 0 0 1 3.001.001zM180 425.5a1.5 1.5 0 1 1-3.001-.001 1.5 1.5 0 0 1 3.001.001zM200 425.5a1.5 1.5 0 1 1-3.001-.001 1.5 1.5 0 0 1 3.001.001zM220 425.5a1.5 1.5 0 1 1-3.001-.001 1.5 1.5 0 0 1 3.001.001zM240 425.5a1.5 1.5 0 1 1-3.001-.001 1.5 1.5 0 0 1 3.001.001zM260 425.5a1.5 1.5 0 1 1-3.001-.001 1.5 1.5 0 0 1 3.001.001zM280 425.5a1.5 1.5 0 1 1-3.001-.001 1.5 1.5 0 0 1 3.001.001zM300 425.5a1.5 1.5 0 1 1-3.001-.001 1.5 1.5 0 0 1 3.001.001zM320 425.5a1.5 1.5 0 1 1-3.001-.001 1.5 1.5 0 0 1 3.001.001zM340 205.5a1.5 1.5 0 1 1-3.001-.001 1.5 1.5 0 0 1 3.001.001zM360 205.5a1.5 1.5 0 1 1-3.001-.001 1.5 1.5 0 0 1 3.001.001zM380 205.5a1.5 1.5 0 1 1-3.001-.001 1.5 1.5 0 0 1 3.001.001zM400 205.5a1.5 1.5 0 1 1-3.001-.001 1.5 1.5 0 0 1 3.001.001zM420 205.5a1.5 1.5 0 1 1-3.001-.001 1.5 1.5 0 0 1 3.001.001zM440 205.5a1.5 1.5 0 1 1-3.001-.001 1.5 1.5 0 0 1 3.001.001zM460 205.5a1.5 1.5 0 1 1-3.001-.001 1.5 1.5 0 0 1 3.001.001zM480 205.5a1.5 1.5 0 1 1-3.001-.001 1.5 1.5 0 0 1 3.001.001zM500 205.5a1.5 1.5 0 1 1-3.001-.001 1.5 1.5 0 0 1 3.001.001zM520 205.5a1.5 1.5 0 1 1-3.001-.001 1.5 1.5 0 0 1 3.001.001zM540 205.5a1.5 1.5 0 1 1-3.001-.001 1.5 1.5 0 0 1 3.001.001zM560 205.5a1.5 1.5 0 1 1-3.001-.001 1.5 1.5 0 0 1 3.001.001zM580 205.5a1.5 1.5 0 1 1-3.001-.001 1.5 1.5 0 0 1 3.001.001zM600 205.5a1.5 1.5 0 1 1-3.001-.001 1.5 1.5 0 0 1 3.001.001zM620 205.5a1.5 1.5 0 1 1-3.001-.001 1.5 1.5 0 0 1 3.001.001zM340 225.5a1.5 1.5 0 1 1-3.001-.001 1.5 1.5 0 0 1 3.001.001zM360 225.5a1.5 1.5 0 1 1-3.001-.001 1.5 1.5 0 0 1 3.001.001zM380 225.5a1.5 1.5 0 1 1-3.001-.001 1.5 1.5 0 0 1 3.001.001zM400 225.5a1.5 1.5 0 1 1-3.001-.001 1.5 1.5 0 0 1 3.001.001zM420 225.5a1.5 1.5 0 1 1-3.001-.001 1.5 1.5 0 0 1 3.001.001zM440 225.5a1.5 1.5 0 1 1-3.001-.001 1.5 1.5 0 0 1 3.001.001zM460 225.5a1.5 1.5 0 1 1-3.001-.001 1.5 1.5 0 0 1 3.001.001zM480 225.5a1.5 1.5 0 1 1-3.001-.001 1.5 1.5 0 0 1 3.001.001zM500 225.5a1.5 1.5 0 1 1-3.001-.001 1.5 1.5 0 0 1 3.001.001zM520 225.5a1.5 1.5 0 1 1-3.001-.001 1.5 1.5 0 0 1 3.001.001zM540 225.5a1.5 1.5 0 1 1-3.001-.001 1.5 1.5 0 0 1 3.001.001zM560 225.5a1.5 1.5 0 1 1-3.001-.001 1.5 1.5 0 0 1 3.001.001zM580 225.5a1.5 1.5 0 1 1-3.001-.001 1.5 1.5 0 0 1 3.001.001zM600 225.5a1.5 1.5 0 1 1-3.001-.001 1.5 1.5 0 0 1 3.001.001zM620 225.5a1.5 1.5 0 1 1-3.001-.001 1.5 1.5 0 0 1 3.001.001zM340 245.5a1.5 1.5 0 1 1-3.001-.001 1.5 1.5 0 0 1 3.001.001zM360 245.5a1.5 1.5 0 1 1-3.001-.001 1.5 1.5 0 0 1 3.001.001zM380 245.5a1.5 1.5 0 1 1-3.001-.001 1.5 1.5 0 0 1 3.001.001zM400 245.5a1.5 1.5 0 1 1-3.001-.001 1.5 1.5 0 0 1 3.001.001zM420 245.5a1.5 1.5 0 1 1-3.001-.001 1.5 1.5 0 0 1 3.001.001zM440 245.5a1.5 1.5 0 1 1-3.001-.001 1.5 1.5 0 0 1 3.001.001zM460 245.5a1.5 1.5 0 1 1-3.001-.001 1.5 1.5 0 0 1 3.001.001zM480 245.5a1.5 1.5 0 1 1-3.001-.001 1.5 1.5 0 0 1 3.001.001zM500 245.5a1.5 1.5 0 1 1-3.001-.001 1.5 1.5 0 0 1 3.001.001zM520 245.5a1.5 1.5 0 1 1-3.001-.001 1.5 1.5 0 0 1 3.001.001zM540 245.5a1.5 1.5 0 1 1-3.001-.001 1.5 1.5 0 0 1 3.001.001zM560 245.5a1.5 1.5 0 1 1-3.001-.001 1.5 1.5 0 0 1 3.001.001zM580 245.5a1.5 1.5 0 1 1-3.001-.001 1.5 1.5 0 0 1 3.001.001zM600 245.5a1.5 1.5 0 1 1-3.001-.001 1.5 1.5 0 0 1 3.001.001zM620 245.5a1.5 1.5 0 1 1-3.001-.001 1.5 1.5 0 0 1 3.001.001zM340 265.5a1.5 1.5 0 1 1-3.001-.001 1.5 1.5 0 0 1 3.001.001zM360 265.5a1.5 1.5 0 1 1-3.001-.001 1.5 1.5 0 0 1 3.001.001zM380 265.5a1.5 1.5 0 1 1-3.001-.001 1.5 1.5 0 0 1 3.001.001zM400 265.5a1.5 1.5 0 1 1-3.001-.001 1.5 1.5 0 0 1 3.001.001zM420 265.5a1.5 1.5 0 1 1-3.001-.001 1.5 1.5 0 0 1 3.001.001zM440 265.5a1.5 1.5 0 1 1-3.001-.001 1.5 1.5 0 0 1 3.001.001zM460 265.5a1.5 1.5 0 1 1-3.001-.001 1.5 1.5 0 0 1 3.001.001zM480 265.5a1.5 1.5 0 1 1-3.001-.001 1.5 1.5 0 0 1 3.001.001zM500 265.5a1.5 1.5 0 1 1-3.001-.001 1.5 1.5 0 0 1 3.001.001zM520 265.5a1.5 1.5 0 1 1-3.001-.001 1.5 1.5 0 0 1 3.001.001zM540 265.5a1.5 1.5 0 1 1-3.001-.001 1.5 1.5 0 0 1 3.001.001zM560 265.5a1.5 1.5 0 1 1-3.001-.001 1.5 1.5 0 0 1 3.001.001zM580 265.5a1.5 1.5 0 1 1-3.001-.001 1.5 1.5 0 0 1 3.001.001zM600 265.5a1.5 1.5 0 1 1-3.001-.001 1.5 1.5 0 0 1 3.001.001zM620 265.5a1.5 1.5 0 1 1-3.001-.001 1.5 1.5 0 0 1 3.001.001zM340 285.5a1.5 1.5 0 1 1-3.001-.001 1.5 1.5 0 0 1 3.001.001zM360 285.5a1.5 1.5 0 1 1-3.001-.001 1.5 1.5 0 0 1 3.001.001zM380 285.5a1.5 1.5 0 1 1-3.001-.001 1.5 1.5 0 0 1 3.001.001zM400 285.5a1.5 1.5 0 1 1-3.001-.001 1.5 1.5 0 0 1 3.001.001zM420 285.5a1.5 1.5 0 1 1-3.001-.001 1.5 1.5 0 0 1 3.001.001zM440 285.5a1.5 1.5 0 1 1-3.001-.001 1.5 1.5 0 0 1 3.001.001zM460 285.5a1.5 1.5 0 1 1-3.001-.001 1.5 1.5 0 0 1 3.001.001zM480 285.5a1.5 1.5 0 1 1-3.001-.001 1.5 1.5 0 0 1 3.001.001zM500 285.5a1.5 1.5 0 1 1-3.001-.001 1.5 1.5 0 0 1 3.001.001zM520 285.5a1.5 1.5 0 1 1-3.001-.001 1.5 1.5 0 0 1 3.001.001zM540 285.5a1.5 1.5 0 1 1-3.001-.001 1.5 1.5 0 0 1 3.001.001zM560 285.5a1.5 1.5 0 1 1-3.001-.001 1.5 1.5 0 0 1 3.001.001zM580 285.5a1.5 1.5 0 1 1-3.001-.001 1.5 1.5 0 0 1 3.001.001zM600 285.5a1.5 1.5 0 1 1-3.001-.001 1.5 1.5 0 0 1 3.001.001zM620 285.5a1.5 1.5 0 1 1-3.001-.001 1.5 1.5 0 0 1 3.001.001zM340 305.5a1.5 1.5 0 1 1-3.001-.001 1.5 1.5 0 0 1 3.001.001zM360 305.5a1.5 1.5 0 1 1-3.001-.001 1.5 1.5 0 0 1 3.001.001zM380 305.5a1.5 1.5 0 1 1-3.001-.001 1.5 1.5 0 0 1 3.001.001zM400 305.5a1.5 1.5 0 1 1-3.001-.001 1.5 1.5 0 0 1 3.001.001zM420 305.5a1.5 1.5 0 1 1-3.001-.001 1.5 1.5 0 0 1 3.001.001zM440 305.5a1.5 1.5 0 1 1-3.001-.001 1.5 1.5 0 0 1 3.001.001zM460 305.5a1.5 1.5 0 1 1-3.001-.001 1.5 1.5 0 0 1 3.001.001zM480 305.5a1.5 1.5 0 1 1-3.001-.001 1.5 1.5 0 0 1 3.001.001zM500 305.5a1.5 1.5 0 1 1-3.001-.001 1.5 1.5 0 0 1 3.001.001zM520 305.5a1.5 1.5 0 1 1-3.001-.001 1.5 1.5 0 0 1 3.001.001zM540 305.5a1.5 1.5 0 1 1-3.001-.001 1.5 1.5 0 0 1 3.001.001zM560 305.5a1.5 1.5 0 1 1-3.001-.001 1.5 1.5 0 0 1 3.001.001zM580 305.5a1.5 1.5 0 1 1-3.001-.001 1.5 1.5 0 0 1 3.001.001zM600 305.5a1.5 1.5 0 1 1-3.001-.001 1.5 1.5 0 0 1 3.001.001zM620 305.5a1.5 1.5 0 1 1-3.001-.001 1.5 1.5 0 0 1 3.001.001zM340 325.5a1.5 1.5 0 1 1-3.001-.001 1.5 1.5 0 0 1 3.001.001zM360 325.5a1.5 1.5 0 1 1-3.001-.001 1.5 1.5 0 0 1 3.001.001zM380 325.5a1.5 1.5 0 1 1-3.001-.001 1.5 1.5 0 0 1 3.001.001zM400 325.5a1.5 1.5 0 1 1-3.001-.001 1.5 1.5 0 0 1 3.001.001zM420 325.5a1.5 1.5 0 1 1-3.001-.001 1.5 1.5 0 0 1 3.001.001zM440 325.5a1.5 1.5 0 1 1-3.001-.001 1.5 1.5 0 0 1 3.001.001zM460 325.5a1.5 1.5 0 1 1-3.001-.001 1.5 1.5 0 0 1 3.001.001zM480 325.5a1.5 1.5 0 1 1-3.001-.001 1.5 1.5 0 0 1 3.001.001zM500 325.5a1.5 1.5 0 1 1-3.001-.001 1.5 1.5 0 0 1 3.001.001zM520 325.5a1.5 1.5 0 1 1-3.001-.001 1.5 1.5 0 0 1 3.001.001zM540 325.5a1.5 1.5 0 1 1-3.001-.001 1.5 1.5 0 0 1 3.001.001zM560 325.5a1.5 1.5 0 1 1-3.001-.001 1.5 1.5 0 0 1 3.001.001zM580 325.5a1.5 1.5 0 1 1-3.001-.001 1.5 1.5 0 0 1 3.001.001zM600 325.5a1.5 1.5 0 1 1-3.001-.001 1.5 1.5 0 0 1 3.001.001zM620 325.5a1.5 1.5 0 1 1-3.001-.001 1.5 1.5 0 0 1 3.001.001zM340 345.5a1.5 1.5 0 1 1-3.001-.001 1.5 1.5 0 0 1 3.001.001zM360 345.5a1.5 1.5 0 1 1-3.001-.001 1.5 1.5 0 0 1 3.001.001zM380 345.5a1.5 1.5 0 1 1-3.001-.001 1.5 1.5 0 0 1 3.001.001zM400 345.5a1.5 1.5 0 1 1-3.001-.001 1.5 1.5 0 0 1 3.001.001zM420 345.5a1.5 1.5 0 1 1-3.001-.001 1.5 1.5 0 0 1 3.001.001zM440 345.5a1.5 1.5 0 1 1-3.001-.001 1.5 1.5 0 0 1 3.001.001zM460 345.5a1.5 1.5 0 1 1-3.001-.001 1.5 1.5 0 0 1 3.001.001zM480 345.5a1.5 1.5 0 1 1-3.001-.001 1.5 1.5 0 0 1 3.001.001zM500 345.5a1.5 1.5 0 1 1-3.001-.001 1.5 1.5 0 0 1 3.001.001zM520 345.5a1.5 1.5 0 1 1-3.001-.001 1.5 1.5 0 0 1 3.001.001zM540 345.5a1.5 1.5 0 1 1-3.001-.001 1.5 1.5 0 0 1 3.001.001zM560 345.5a1.5 1.5 0 1 1-3.001-.001 1.5 1.5 0 0 1 3.001.001zM580 345.5a1.5 1.5 0 1 1-3.001-.001 1.5 1.5 0 0 1 3.001.001zM600 345.5a1.5 1.5 0 1 1-3.001-.001 1.5 1.5 0 0 1 3.001.001zM620 345.5a1.5 1.5 0 1 1-3.001-.001 1.5 1.5 0 0 1 3.001.001zM340 365.5a1.5 1.5 0 1 1-3.001-.001 1.5 1.5 0 0 1 3.001.001zM360 365.5a1.5 1.5 0 1 1-3.001-.001 1.5 1.5 0 0 1 3.001.001zM380 365.5a1.5 1.5 0 1 1-3.001-.001 1.5 1.5 0 0 1 3.001.001zM400 365.5a1.5 1.5 0 1 1-3.001-.001 1.5 1.5 0 0 1 3.001.001zM420 365.5a1.5 1.5 0 1 1-3.001-.001 1.5 1.5 0 0 1 3.001.001zM440 365.5a1.5 1.5 0 1 1-3.001-.001 1.5 1.5 0 0 1 3.001.001zM460 365.5a1.5 1.5 0 1 1-3.001-.001 1.5 1.5 0 0 1 3.001.001zM480 365.5a1.5 1.5 0 1 1-3.001-.001 1.5 1.5 0 0 1 3.001.001zM500 365.5a1.5 1.5 0 1 1-3.001-.001 1.5 1.5 0 0 1 3.001.001zM520 365.5a1.5 1.5 0 1 1-3.001-.001 1.5 1.5 0 0 1 3.001.001zM540 365.5a1.5 1.5 0 1 1-3.001-.001 1.5 1.5 0 0 1 3.001.001zM560 365.5a1.5 1.5 0 1 1-3.001-.001 1.5 1.5 0 0 1 3.001.001zM580 365.5a1.5 1.5 0 1 1-3.001-.001 1.5 1.5 0 0 1 3.001.001zM600 365.5a1.5 1.5 0 1 1-3.001-.001 1.5 1.5 0 0 1 3.001.001zM620 365.5a1.5 1.5 0 1 1-3.001-.001 1.5 1.5 0 0 1 3.001.001zM340 385.5a1.5 1.5 0 1 1-3.001-.001 1.5 1.5 0 0 1 3.001.001zM360 385.5a1.5 1.5 0 1 1-3.001-.001 1.5 1.5 0 0 1 3.001.001zM380 385.5a1.5 1.5 0 1 1-3.001-.001 1.5 1.5 0 0 1 3.001.001zM400 385.5a1.5 1.5 0 1 1-3.001-.001 1.5 1.5 0 0 1 3.001.001zM420 385.5a1.5 1.5 0 1 1-3.001-.001 1.5 1.5 0 0 1 3.001.001zM440 385.5a1.5 1.5 0 1 1-3.001-.001 1.5 1.5 0 0 1 3.001.001zM460 385.5a1.5 1.5 0 1 1-3.001-.001 1.5 1.5 0 0 1 3.001.001zM480 385.5a1.5 1.5 0 1 1-3.001-.001 1.5 1.5 0 0 1 3.001.001zM500 385.5a1.5 1.5 0 1 1-3.001-.001 1.5 1.5 0 0 1 3.001.001zM520 385.5a1.5 1.5 0 1 1-3.001-.001 1.5 1.5 0 0 1 3.001.001zM540 385.5a1.5 1.5 0 1 1-3.001-.001 1.5 1.5 0 0 1 3.001.001zM560 385.5a1.5 1.5 0 1 1-3.001-.001 1.5 1.5 0 0 1 3.001.001zM580 385.5a1.5 1.5 0 1 1-3.001-.001 1.5 1.5 0 0 1 3.001.001zM600 385.5a1.5 1.5 0 1 1-3.001-.001 1.5 1.5 0 0 1 3.001.001zM620 385.5a1.5 1.5 0 1 1-3.001-.001 1.5 1.5 0 0 1 3.001.001zM340 405.5a1.5 1.5 0 1 1-3.001-.001 1.5 1.5 0 0 1 3.001.001zM360 405.5a1.5 1.5 0 1 1-3.001-.001 1.5 1.5 0 0 1 3.001.001zM380 405.5a1.5 1.5 0 1 1-3.001-.001 1.5 1.5 0 0 1 3.001.001zM400 405.5a1.5 1.5 0 1 1-3.001-.001 1.5 1.5 0 0 1 3.001.001zM420 405.5a1.5 1.5 0 1 1-3.001-.001 1.5 1.5 0 0 1 3.001.001zM440 405.5a1.5 1.5 0 1 1-3.001-.001 1.5 1.5 0 0 1 3.001.001zM460 405.5a1.5 1.5 0 1 1-3.001-.001 1.5 1.5 0 0 1 3.001.001zM480 405.5a1.5 1.5 0 1 1-3.001-.001 1.5 1.5 0 0 1 3.001.001zM500 405.5a1.5 1.5 0 1 1-3.001-.001 1.5 1.5 0 0 1 3.001.001zM520 405.5a1.5 1.5 0 1 1-3.001-.001 1.5 1.5 0 0 1 3.001.001zM540 405.5a1.5 1.5 0 1 1-3.001-.001 1.5 1.5 0 0 1 3.001.001zM560 405.5a1.5 1.5 0 1 1-3.001-.001 1.5 1.5 0 0 1 3.001.001zM580 405.5a1.5 1.5 0 1 1-3.001-.001 1.5 1.5 0 0 1 3.001.001zM600 405.5a1.5 1.5 0 1 1-3.001-.001 1.5 1.5 0 0 1 3.001.001zM620 405.5a1.5 1.5 0 1 1-3.001-.001 1.5 1.5 0 0 1 3.001.001zM340 425.5a1.5 1.5 0 1 1-3.001-.001 1.5 1.5 0 0 1 3.001.001zM360 425.5a1.5 1.5 0 1 1-3.001-.001 1.5 1.5 0 0 1 3.001.001zM380 425.5a1.5 1.5 0 1 1-3.001-.001 1.5 1.5 0 0 1 3.001.001zM400 425.5a1.5 1.5 0 1 1-3.001-.001 1.5 1.5 0 0 1 3.001.001zM420 425.5a1.5 1.5 0 1 1-3.001-.001 1.5 1.5 0 0 1 3.001.001zM440 425.5a1.5 1.5 0 1 1-3.001-.001 1.5 1.5 0 0 1 3.001.001zM460 425.5a1.5 1.5 0 1 1-3.001-.001 1.5 1.5 0 0 1 3.001.001zM480 425.5a1.5 1.5 0 1 1-3.001-.001 1.5 1.5 0 0 1 3.001.001zM500 425.5a1.5 1.5 0 1 1-3.001-.001 1.5 1.5 0 0 1 3.001.001zM520 425.5a1.5 1.5 0 1 1-3.001-.001 1.5 1.5 0 0 1 3.001.001zM540 425.5a1.5 1.5 0 1 1-3.001-.001 1.5 1.5 0 0 1 3.001.001zM560 425.5a1.5 1.5 0 1 1-3.001-.001 1.5 1.5 0 0 1 3.001.001zM580 425.5a1.5 1.5 0 1 1-3.001-.001 1.5 1.5 0 0 1 3.001.001zM600 425.5a1.5 1.5 0 1 1-3.001-.001 1.5 1.5 0 0 1 3.001.001zM620 425.5a1.5 1.5 0 1 1-3.001-.001 1.5 1.5 0 0 1 3.001.001zM640 205.5a1.5 1.5 0 1 1-3.001-.001 1.5 1.5 0 0 1 3.001.001zM660 205.5a1.5 1.5 0 1 1-3.001-.001 1.5 1.5 0 0 1 3.001.001zM680 205.5a1.5 1.5 0 1 1-3.001-.001 1.5 1.5 0 0 1 3.001.001zM700 205.5a1.5 1.5 0 1 1-3.001-.001 1.5 1.5 0 0 1 3.001.001zM720 205.5a1.5 1.5 0 1 1-3.001-.001 1.5 1.5 0 0 1 3.001.001zM740 205.5a1.5 1.5 0 1 1-3.001-.001 1.5 1.5 0 0 1 3.001.001zM760 205.5a1.5 1.5 0 1 1-3.001-.001 1.5 1.5 0 0 1 3.001.001zM780 205.5a1.5 1.5 0 1 1-3.001-.001 1.5 1.5 0 0 1 3.001.001zM800 205.5a1.5 1.5 0 1 1-3.001-.001 1.5 1.5 0 0 1 3.001.001zM640 225.5a1.5 1.5 0 1 1-3.001-.001 1.5 1.5 0 0 1 3.001.001zM660 225.5a1.5 1.5 0 1 1-3.001-.001 1.5 1.5 0 0 1 3.001.001zM680 225.5a1.5 1.5 0 1 1-3.001-.001 1.5 1.5 0 0 1 3.001.001zM700 225.5a1.5 1.5 0 1 1-3.001-.001 1.5 1.5 0 0 1 3.001.001zM720 225.5a1.5 1.5 0 1 1-3.001-.001 1.5 1.5 0 0 1 3.001.001zM740 225.5a1.5 1.5 0 1 1-3.001-.001 1.5 1.5 0 0 1 3.001.001zM760 225.5a1.5 1.5 0 1 1-3.001-.001 1.5 1.5 0 0 1 3.001.001zM780 225.5a1.5 1.5 0 1 1-3.001-.001 1.5 1.5 0 0 1 3.001.001zM800 225.5a1.5 1.5 0 1 1-3.001-.001 1.5 1.5 0 0 1 3.001.001zM640 245.5a1.5 1.5 0 1 1-3.001-.001 1.5 1.5 0 0 1 3.001.001zM660 245.5a1.5 1.5 0 1 1-3.001-.001 1.5 1.5 0 0 1 3.001.001zM680 245.5a1.5 1.5 0 1 1-3.001-.001 1.5 1.5 0 0 1 3.001.001zM700 245.5a1.5 1.5 0 1 1-3.001-.001 1.5 1.5 0 0 1 3.001.001zM720 245.5a1.5 1.5 0 1 1-3.001-.001 1.5 1.5 0 0 1 3.001.001zM740 245.5a1.5 1.5 0 1 1-3.001-.001 1.5 1.5 0 0 1 3.001.001zM760 245.5a1.5 1.5 0 1 1-3.001-.001 1.5 1.5 0 0 1 3.001.001zM780 245.5a1.5 1.5 0 1 1-3.001-.001 1.5 1.5 0 0 1 3.001.001zM800 245.5a1.5 1.5 0 1 1-3.001-.001 1.5 1.5 0 0 1 3.001.001zM640 265.5a1.5 1.5 0 1 1-3.001-.001 1.5 1.5 0 0 1 3.001.001zM660 265.5a1.5 1.5 0 1 1-3.001-.001 1.5 1.5 0 0 1 3.001.001zM680 265.5a1.5 1.5 0 1 1-3.001-.001 1.5 1.5 0 0 1 3.001.001zM700 265.5a1.5 1.5 0 1 1-3.001-.001 1.5 1.5 0 0 1 3.001.001zM720 265.5a1.5 1.5 0 1 1-3.001-.001 1.5 1.5 0 0 1 3.001.001zM740 265.5a1.5 1.5 0 1 1-3.001-.001 1.5 1.5 0 0 1 3.001.001zM760 265.5a1.5 1.5 0 1 1-3.001-.001 1.5 1.5 0 0 1 3.001.001zM780 265.5a1.5 1.5 0 1 1-3.001-.001 1.5 1.5 0 0 1 3.001.001zM800 265.5a1.5 1.5 0 1 1-3.001-.001 1.5 1.5 0 0 1 3.001.001zM640 285.5a1.5 1.5 0 1 1-3.001-.001 1.5 1.5 0 0 1 3.001.001zM660 285.5a1.5 1.5 0 1 1-3.001-.001 1.5 1.5 0 0 1 3.001.001zM680 285.5a1.5 1.5 0 1 1-3.001-.001 1.5 1.5 0 0 1 3.001.001zM700 285.5a1.5 1.5 0 1 1-3.001-.001 1.5 1.5 0 0 1 3.001.001zM720 285.5a1.5 1.5 0 1 1-3.001-.001 1.5 1.5 0 0 1 3.001.001zM740 285.5a1.5 1.5 0 1 1-3.001-.001 1.5 1.5 0 0 1 3.001.001zM760 285.5a1.5 1.5 0 1 1-3.001-.001 1.5 1.5 0 0 1 3.001.001zM780 285.5a1.5 1.5 0 1 1-3.001-.001 1.5 1.5 0 0 1 3.001.001zM800 285.5a1.5 1.5 0 1 1-3.001-.001 1.5 1.5 0 0 1 3.001.001zM640 305.5a1.5 1.5 0 1 1-3.001-.001 1.5 1.5 0 0 1 3.001.001zM660 305.5a1.5 1.5 0 1 1-3.001-.001 1.5 1.5 0 0 1 3.001.001zM680 305.5a1.5 1.5 0 1 1-3.001-.001 1.5 1.5 0 0 1 3.001.001zM700 305.5a1.5 1.5 0 1 1-3.001-.001 1.5 1.5 0 0 1 3.001.001zM720 305.5a1.5 1.5 0 1 1-3.001-.001 1.5 1.5 0 0 1 3.001.001zM740 305.5a1.5 1.5 0 1 1-3.001-.001 1.5 1.5 0 0 1 3.001.001zM760 305.5a1.5 1.5 0 1 1-3.001-.001 1.5 1.5 0 0 1 3.001.001zM780 305.5a1.5 1.5 0 1 1-3.001-.001 1.5 1.5 0 0 1 3.001.001zM800 305.5a1.5 1.5 0 1 1-3.001-.001 1.5 1.5 0 0 1 3.001.001zM640 325.5a1.5 1.5 0 1 1-3.001-.001 1.5 1.5 0 0 1 3.001.001zM660 325.5a1.5 1.5 0 1 1-3.001-.001 1.5 1.5 0 0 1 3.001.001zM680 325.5a1.5 1.5 0 1 1-3.001-.001 1.5 1.5 0 0 1 3.001.001zM700 325.5a1.5 1.5 0 1 1-3.001-.001 1.5 1.5 0 0 1 3.001.001zM720 325.5a1.5 1.5 0 1 1-3.001-.001 1.5 1.5 0 0 1 3.001.001zM740 325.5a1.5 1.5 0 1 1-3.001-.001 1.5 1.5 0 0 1 3.001.001zM760 325.5a1.5 1.5 0 1 1-3.001-.001 1.5 1.5 0 0 1 3.001.001zM780 325.5a1.5 1.5 0 1 1-3.001-.001 1.5 1.5 0 0 1 3.001.001zM800 325.5a1.5 1.5 0 1 1-3.001-.001 1.5 1.5 0 0 1 3.001.001zM640 345.5a1.5 1.5 0 1 1-3.001-.001 1.5 1.5 0 0 1 3.001.001zM660 345.5a1.5 1.5 0 1 1-3.001-.001 1.5 1.5 0 0 1 3.001.001zM680 345.5a1.5 1.5 0 1 1-3.001-.001 1.5 1.5 0 0 1 3.001.001zM700 345.5a1.5 1.5 0 1 1-3.001-.001 1.5 1.5 0 0 1 3.001.001zM720 345.5a1.5 1.5 0 1 1-3.001-.001 1.5 1.5 0 0 1 3.001.001zM740 345.5a1.5 1.5 0 1 1-3.001-.001 1.5 1.5 0 0 1 3.001.001zM760 345.5a1.5 1.5 0 1 1-3.001-.001 1.5 1.5 0 0 1 3.001.001zM780 345.5a1.5 1.5 0 1 1-3.001-.001 1.5 1.5 0 0 1 3.001.001zM800 345.5a1.5 1.5 0 1 1-3.001-.001 1.5 1.5 0 0 1 3.001.001zM640 365.5a1.5 1.5 0 1 1-3.001-.001 1.5 1.5 0 0 1 3.001.001zM660 365.5a1.5 1.5 0 1 1-3.001-.001 1.5 1.5 0 0 1 3.001.001zM680 365.5a1.5 1.5 0 1 1-3.001-.001 1.5 1.5 0 0 1 3.001.001zM700 365.5a1.5 1.5 0 1 1-3.001-.001 1.5 1.5 0 0 1 3.001.001zM720 365.5a1.5 1.5 0 1 1-3.001-.001 1.5 1.5 0 0 1 3.001.001zM740 365.5a1.5 1.5 0 1 1-3.001-.001 1.5 1.5 0 0 1 3.001.001zM760 365.5a1.5 1.5 0 1 1-3.001-.001 1.5 1.5 0 0 1 3.001.001zM780 365.5a1.5 1.5 0 1 1-3.001-.001 1.5 1.5 0 0 1 3.001.001zM800 365.5a1.5 1.5 0 1 1-3.001-.001 1.5 1.5 0 0 1 3.001.001zM640 385.5a1.5 1.5 0 1 1-3.001-.001 1.5 1.5 0 0 1 3.001.001zM660 385.5a1.5 1.5 0 1 1-3.001-.001 1.5 1.5 0 0 1 3.001.001zM680 385.5a1.5 1.5 0 1 1-3.001-.001 1.5 1.5 0 0 1 3.001.001zM700 385.5a1.5 1.5 0 1 1-3.001-.001 1.5 1.5 0 0 1 3.001.001zM720 385.5a1.5 1.5 0 1 1-3.001-.001 1.5 1.5 0 0 1 3.001.001zM740 385.5a1.5 1.5 0 1 1-3.001-.001 1.5 1.5 0 0 1 3.001.001zM760 385.5a1.5 1.5 0 1 1-3.001-.001 1.5 1.5 0 0 1 3.001.001zM780 385.5a1.5 1.5 0 1 1-3.001-.001 1.5 1.5 0 0 1 3.001.001zM800 385.5a1.5 1.5 0 1 1-3.001-.001 1.5 1.5 0 0 1 3.001.001zM640 405.5a1.5 1.5 0 1 1-3.001-.001 1.5 1.5 0 0 1 3.001.001zM660 405.5a1.5 1.5 0 1 1-3.001-.001 1.5 1.5 0 0 1 3.001.001zM680 405.5a1.5 1.5 0 1 1-3.001-.001 1.5 1.5 0 0 1 3.001.001zM700 405.5a1.5 1.5 0 1 1-3.001-.001 1.5 1.5 0 0 1 3.001.001zM720 405.5a1.5 1.5 0 1 1-3.001-.001 1.5 1.5 0 0 1 3.001.001zM740 405.5a1.5 1.5 0 1 1-3.001-.001 1.5 1.5 0 0 1 3.001.001zM760 405.5a1.5 1.5 0 1 1-3.001-.001 1.5 1.5 0 0 1 3.001.001zM780 405.5a1.5 1.5 0 1 1-3.001-.001 1.5 1.5 0 0 1 3.001.001zM800 405.5a1.5 1.5 0 1 1-3.001-.001 1.5 1.5 0 0 1 3.001.001zM640 425.5a1.5 1.5 0 1 1-3.001-.001 1.5 1.5 0 0 1 3.001.001zM660 425.5a1.5 1.5 0 1 1-3.001-.001 1.5 1.5 0 0 1 3.001.001zM680 425.5a1.5 1.5 0 1 1-3.001-.001 1.5 1.5 0 0 1 3.001.001zM700 425.5a1.5 1.5 0 1 1-3.001-.001 1.5 1.5 0 0 1 3.001.001zM720 425.5a1.5 1.5 0 1 1-3.001-.001 1.5 1.5 0 0 1 3.001.001zM740 425.5a1.5 1.5 0 1 1-3.001-.001 1.5 1.5 0 0 1 3.001.001zM760 425.5a1.5 1.5 0 1 1-3.001-.001 1.5 1.5 0 0 1 3.001.001zM780 425.5a1.5 1.5 0 1 1-3.001-.001 1.5 1.5 0 0 1 3.001.001zM800 425.5a1.5 1.5 0 1 1-3.001-.001 1.5 1.5 0 0 1 3.001.001zM0 445.5a1.5 1.5 0 1 1-3 0 1.5 1.5 0 0 1 3 0zM20 445.5a1.5 1.5 0 1 1-3 0 1.5 1.5 0 0 1 3 0zM0 465.5a1.5 1.5 0 1 1-3 0 1.5 1.5 0 0 1 3 0zM20 465.5a1.5 1.5 0 1 1-3 0 1.5 1.5 0 0 1 3 0zM0 485.5a1.5 1.5 0 1 1-3 0 1.5 1.5 0 0 1 3 0zM20 485.5a1.5 1.5 0 1 1-3 0 1.5 1.5 0 0 1 3 0zM0 505.5a1.5 1.5 0 1 1-3 0 1.5 1.5 0 0 1 3 0zM20 505.5a1.5 1.5 0 1 1-3 0 1.5 1.5 0 0 1 3 0zM0 525.5a1.5 1.5 0 1 1-3 0 1.5 1.5 0 0 1 3 0zM20 525.5a1.5 1.5 0 1 1-3 0 1.5 1.5 0 0 1 3 0zM20 545.5a1.5 1.5 0 1 1-3 0 1.5 1.5 0 0 1 3 0zM40 445.5a1.5 1.5 0 1 1-3 0 1.5 1.5 0 0 1 3 0zM60 445.5a1.5 1.5 0 1 1-3 0 1.5 1.5 0 0 1 3 0zM80 445.5a1.5 1.5 0 1 1-3 0 1.5 1.5 0 0 1 3 0zM100 445.5a1.5 1.5 0 1 1-3 0 1.5 1.5 0 0 1 3 0zM120 445.5a1.5 1.5 0 1 1-3.001-.001 1.5 1.5 0 0 1 3.001.001zM140 445.5a1.5 1.5 0 1 1-3.001-.001 1.5 1.5 0 0 1 3.001.001zM160 445.5a1.5 1.5 0 1 1-3.001-.001 1.5 1.5 0 0 1 3.001.001zM180 445.5a1.5 1.5 0 1 1-3.001-.001 1.5 1.5 0 0 1 3.001.001zM200 445.5a1.5 1.5 0 1 1-3.001-.001 1.5 1.5 0 0 1 3.001.001zM220 445.5a1.5 1.5 0 1 1-3.001-.001 1.5 1.5 0 0 1 3.001.001zM240 445.5a1.5 1.5 0 1 1-3.001-.001 1.5 1.5 0 0 1 3.001.001zM260 445.5a1.5 1.5 0 1 1-3.001-.001 1.5 1.5 0 0 1 3.001.001zM280 445.5a1.5 1.5 0 1 1-3.001-.001 1.5 1.5 0 0 1 3.001.001zM300 445.5a1.5 1.5 0 1 1-3.001-.001 1.5 1.5 0 0 1 3.001.001zM320 445.5a1.5 1.5 0 1 1-3.001-.001 1.5 1.5 0 0 1 3.001.001zM40 465.5a1.5 1.5 0 1 1-3 0 1.5 1.5 0 0 1 3 0zM60 465.5a1.5 1.5 0 1 1-3 0 1.5 1.5 0 0 1 3 0zM80 465.5a1.5 1.5 0 1 1-3 0 1.5 1.5 0 0 1 3 0zM100 465.5a1.5 1.5 0 1 1-3 0 1.5 1.5 0 0 1 3 0zM120 465.5a1.5 1.5 0 1 1-3.001-.001 1.5 1.5 0 0 1 3.001.001zM140 465.5a1.5 1.5 0 1 1-3.001-.001 1.5 1.5 0 0 1 3.001.001zM160 465.5a1.5 1.5 0 1 1-3.001-.001 1.5 1.5 0 0 1 3.001.001zM180 465.5a1.5 1.5 0 1 1-3.001-.001 1.5 1.5 0 0 1 3.001.001zM200 465.5a1.5 1.5 0 1 1-3.001-.001 1.5 1.5 0 0 1 3.001.001zM220 465.5a1.5 1.5 0 1 1-3.001-.001 1.5 1.5 0 0 1 3.001.001zM240 465.5a1.5 1.5 0 1 1-3.001-.001 1.5 1.5 0 0 1 3.001.001zM260 465.5a1.5 1.5 0 1 1-3.001-.001 1.5 1.5 0 0 1 3.001.001zM280 465.5a1.5 1.5 0 1 1-3.001-.001 1.5 1.5 0 0 1 3.001.001zM300 465.5a1.5 1.5 0 1 1-3.001-.001 1.5 1.5 0 0 1 3.001.001zM320 465.5a1.5 1.5 0 1 1-3.001-.001 1.5 1.5 0 0 1 3.001.001zM40 485.5a1.5 1.5 0 1 1-3 0 1.5 1.5 0 0 1 3 0zM60 485.5a1.5 1.5 0 1 1-3 0 1.5 1.5 0 0 1 3 0zM80 485.5a1.5 1.5 0 1 1-3 0 1.5 1.5 0 0 1 3 0zM100 485.5a1.5 1.5 0 1 1-3 0 1.5 1.5 0 0 1 3 0zM120 485.5a1.5 1.5 0 1 1-3.001-.001 1.5 1.5 0 0 1 3.001.001zM140 485.5a1.5 1.5 0 1 1-3.001-.001 1.5 1.5 0 0 1 3.001.001zM160 485.5a1.5 1.5 0 1 1-3.001-.001 1.5 1.5 0 0 1 3.001.001zM180 485.5a1.5 1.5 0 1 1-3.001-.001 1.5 1.5 0 0 1 3.001.001zM200 485.5a1.5 1.5 0 1 1-3.001-.001 1.5 1.5 0 0 1 3.001.001zM220 485.5a1.5 1.5 0 1 1-3.001-.001 1.5 1.5 0 0 1 3.001.001zM240 485.5a1.5 1.5 0 1 1-3.001-.001 1.5 1.5 0 0 1 3.001.001zM260 485.5a1.5 1.5 0 1 1-3.001-.001 1.5 1.5 0 0 1 3.001.001zM280 485.5a1.5 1.5 0 1 1-3.001-.001 1.5 1.5 0 0 1 3.001.001zM300 485.5a1.5 1.5 0 1 1-3.001-.001 1.5 1.5 0 0 1 3.001.001zM320 485.5a1.5 1.5 0 1 1-3.001-.001 1.5 1.5 0 0 1 3.001.001zM40 505.5a1.5 1.5 0 1 1-3 0 1.5 1.5 0 0 1 3 0zM60 505.5a1.5 1.5 0 1 1-3 0 1.5 1.5 0 0 1 3 0zM80 505.5a1.5 1.5 0 1 1-3 0 1.5 1.5 0 0 1 3 0zM100 505.5a1.5 1.5 0 1 1-3 0 1.5 1.5 0 0 1 3 0zM120 505.5a1.5 1.5 0 1 1-3.001-.001 1.5 1.5 0 0 1 3.001.001zM140 505.5a1.5 1.5 0 1 1-3.001-.001 1.5 1.5 0 0 1 3.001.001zM160 505.5a1.5 1.5 0 1 1-3.001-.001 1.5 1.5 0 0 1 3.001.001zM180 505.5a1.5 1.5 0 1 1-3.001-.001 1.5 1.5 0 0 1 3.001.001zM200 505.5a1.5 1.5 0 1 1-3.001-.001 1.5 1.5 0 0 1 3.001.001zM220 505.5a1.5 1.5 0 1 1-3.001-.001 1.5 1.5 0 0 1 3.001.001zM240 505.5a1.5 1.5 0 1 1-3.001-.001 1.5 1.5 0 0 1 3.001.001zM260 505.5a1.5 1.5 0 1 1-3.001-.001 1.5 1.5 0 0 1 3.001.001zM280 505.5a1.5 1.5 0 1 1-3.001-.001 1.5 1.5 0 0 1 3.001.001zM300 505.5a1.5 1.5 0 1 1-3.001-.001 1.5 1.5 0 0 1 3.001.001zM320 505.5a1.5 1.5 0 1 1-3.001-.001 1.5 1.5 0 0 1 3.001.001zM40 525.5a1.5 1.5 0 1 1-3 0 1.5 1.5 0 0 1 3 0zM60 525.5a1.5 1.5 0 1 1-3 0 1.5 1.5 0 0 1 3 0zM80 525.5a1.5 1.5 0 1 1-3 0 1.5 1.5 0 0 1 3 0zM100 525.5a1.5 1.5 0 1 1-3 0 1.5 1.5 0 0 1 3 0zM120 525.5a1.5 1.5 0 1 1-3.001-.001 1.5 1.5 0 0 1 3.001.001zM140 525.5a1.5 1.5 0 1 1-3.001-.001 1.5 1.5 0 0 1 3.001.001zM160 525.5a1.5 1.5 0 1 1-3.001-.001 1.5 1.5 0 0 1 3.001.001zM180 525.5a1.5 1.5 0 1 1-3.001-.001 1.5 1.5 0 0 1 3.001.001zM200 525.5a1.5 1.5 0 1 1-3.001-.001 1.5 1.5 0 0 1 3.001.001zM220 525.5a1.5 1.5 0 1 1-3.001-.001 1.5 1.5 0 0 1 3.001.001zM240 525.5a1.5 1.5 0 1 1-3.001-.001 1.5 1.5 0 0 1 3.001.001zM260 525.5a1.5 1.5 0 1 1-3.001-.001 1.5 1.5 0 0 1 3.001.001zM280 525.5a1.5 1.5 0 1 1-3.001-.001 1.5 1.5 0 0 1 3.001.001zM300 525.5a1.5 1.5 0 1 1-3.001-.001 1.5 1.5 0 0 1 3.001.001zM320 525.5a1.5 1.5 0 1 1-3.001-.001 1.5 1.5 0 0 1 3.001.001zM40 545.5a1.5 1.5 0 1 1-3 0 1.5 1.5 0 0 1 3 0zM60 545.5a1.5 1.5 0 1 1-3 0 1.5 1.5 0 0 1 3 0zM80 545.5a1.5 1.5 0 1 1-3 0 1.5 1.5 0 0 1 3 0zM100 545.5a1.5 1.5 0 1 1-3 0 1.5 1.5 0 0 1 3 0zM120 545.5a1.5 1.5 0 1 1-3.001-.001 1.5 1.5 0 0 1 3.001.001zM140 545.5a1.5 1.5 0 1 1-3.001-.001 1.5 1.5 0 0 1 3.001.001zM160 545.5a1.5 1.5 0 1 1-3.001-.001 1.5 1.5 0 0 1 3.001.001zM180 545.5a1.5 1.5 0 1 1-3.001-.001 1.5 1.5 0 0 1 3.001.001zM200 545.5a1.5 1.5 0 1 1-3.001-.001 1.5 1.5 0 0 1 3.001.001zM220 545.5a1.5 1.5 0 1 1-3.001-.001 1.5 1.5 0 0 1 3.001.001zM240 545.5a1.5 1.5 0 1 1-3.001-.001 1.5 1.5 0 0 1 3.001.001zM260 545.5a1.5 1.5 0 1 1-3.001-.001 1.5 1.5 0 0 1 3.001.001zM280 545.5a1.5 1.5 0 1 1-3.001-.001 1.5 1.5 0 0 1 3.001.001zM300 545.5a1.5 1.5 0 1 1-3.001-.001 1.5 1.5 0 0 1 3.001.001zM320 545.5a1.5 1.5 0 1 1-3.001-.001 1.5 1.5 0 0 1 3.001.001zM40 565.5a1.5 1.5 0 1 1-3 0 1.5 1.5 0 0 1 3 0zM60 565.5a1.5 1.5 0 1 1-3 0 1.5 1.5 0 0 1 3 0zM80 565.5a1.5 1.5 0 1 1-3 0 1.5 1.5 0 0 1 3 0zM100 565.5a1.5 1.5 0 1 1-3 0 1.5 1.5 0 0 1 3 0zM120 565.5a1.5 1.5 0 1 1-3.001-.001 1.5 1.5 0 0 1 3.001.001zM140 565.5a1.5 1.5 0 1 1-3.001-.001 1.5 1.5 0 0 1 3.001.001zM160 565.5a1.5 1.5 0 1 1-3.001-.001 1.5 1.5 0 0 1 3.001.001zM180 565.5a1.5 1.5 0 1 1-3.001-.001 1.5 1.5 0 0 1 3.001.001zM200 565.5a1.5 1.5 0 1 1-3.001-.001 1.5 1.5 0 0 1 3.001.001zM220 565.5a1.5 1.5 0 1 1-3.001-.001 1.5 1.5 0 0 1 3.001.001zM240 565.5a1.5 1.5 0 1 1-3.001-.001 1.5 1.5 0 0 1 3.001.001zM260 565.5a1.5 1.5 0 1 1-3.001-.001 1.5 1.5 0 0 1 3.001.001zM280 565.5a1.5 1.5 0 1 1-3.001-.001 1.5 1.5 0 0 1 3.001.001zM300 565.5a1.5 1.5 0 1 1-3.001-.001 1.5 1.5 0 0 1 3.001.001zM320 565.5a1.5 1.5 0 1 1-3.001-.001 1.5 1.5 0 0 1 3.001.001zM60 585.5a1.5 1.5 0 1 1-3 0 1.5 1.5 0 0 1 3 0zM80 585.5a1.5 1.5 0 1 1-3 0 1.5 1.5 0 0 1 3 0zM100 585.5a1.5 1.5 0 1 1-3 0 1.5 1.5 0 0 1 3 0zM120 585.5a1.5 1.5 0 1 1-3.001-.001 1.5 1.5 0 0 1 3.001.001zM140 585.5a1.5 1.5 0 1 1-3.001-.001 1.5 1.5 0 0 1 3.001.001zM160 585.5a1.5 1.5 0 1 1-3.001-.001 1.5 1.5 0 0 1 3.001.001zM180 585.5a1.5 1.5 0 1 1-3.001-.001 1.5 1.5 0 0 1 3.001.001zM200 585.5a1.5 1.5 0 1 1-3.001-.001 1.5 1.5 0 0 1 3.001.001zM220 585.5a1.5 1.5 0 1 1-3.001-.001 1.5 1.5 0 0 1 3.001.001zM240 585.5a1.5 1.5 0 1 1-3.001-.001 1.5 1.5 0 0 1 3.001.001zM260 585.5a1.5 1.5 0 1 1-3.001-.001 1.5 1.5 0 0 1 3.001.001zM280 585.5a1.5 1.5 0 1 1-3.001-.001 1.5 1.5 0 0 1 3.001.001zM300 585.5a1.5 1.5 0 1 1-3.001-.001 1.5 1.5 0 0 1 3.001.001zM320 585.5a1.5 1.5 0 1 1-3.001-.001 1.5 1.5 0 0 1 3.001.001zM60 605.5a1.5 1.5 0 1 1-3 0 1.5 1.5 0 0 1 3 0zM80 605.5a1.5 1.5 0 1 1-3 0 1.5 1.5 0 0 1 3 0zM100 605.5a1.5 1.5 0 1 1-3 0 1.5 1.5 0 0 1 3 0zM120 605.5a1.5 1.5 0 1 1-3.001-.001 1.5 1.5 0 0 1 3.001.001zM140 605.5a1.5 1.5 0 1 1-3.001-.001 1.5 1.5 0 0 1 3.001.001zM160 605.5a1.5 1.5 0 1 1-3.001-.001 1.5 1.5 0 0 1 3.001.001zM180 605.5a1.5 1.5 0 1 1-3.001-.001 1.5 1.5 0 0 1 3.001.001zM200 605.5a1.5 1.5 0 1 1-3.001-.001 1.5 1.5 0 0 1 3.001.001zM220 605.5a1.5 1.5 0 1 1-3.001-.001 1.5 1.5 0 0 1 3.001.001zM240 605.5a1.5 1.5 0 1 1-3.001-.001 1.5 1.5 0 0 1 3.001.001zM260 605.5a1.5 1.5 0 1 1-3.001-.001 1.5 1.5 0 0 1 3.001.001zM280 605.5a1.5 1.5 0 1 1-3.001-.001 1.5 1.5 0 0 1 3.001.001zM300 605.5a1.5 1.5 0 1 1-3.001-.001 1.5 1.5 0 0 1 3.001.001zM320 605.5a1.5 1.5 0 1 1-3.001-.001 1.5 1.5 0 0 1 3.001.001zM60 625.5a1.5 1.5 0 1 1-3 0 1.5 1.5 0 0 1 3 0zM80 625.5a1.5 1.5 0 1 1-3 0 1.5 1.5 0 0 1 3 0zM100 625.5a1.5 1.5 0 1 1-3 0 1.5 1.5 0 0 1 3 0zM120 625.5a1.5 1.5 0 1 1-3.001-.001 1.5 1.5 0 0 1 3.001.001zM140 625.5a1.5 1.5 0 1 1-3.001-.001 1.5 1.5 0 0 1 3.001.001zM160 625.5a1.5 1.5 0 1 1-3.001-.001 1.5 1.5 0 0 1 3.001.001zM180 625.5a1.5 1.5 0 1 1-3.001-.001 1.5 1.5 0 0 1 3.001.001zM200 625.5a1.5 1.5 0 1 1-3.001-.001 1.5 1.5 0 0 1 3.001.001zM220 625.5a1.5 1.5 0 1 1-3.001-.001 1.5 1.5 0 0 1 3.001.001zM240 625.5a1.5 1.5 0 1 1-3.001-.001 1.5 1.5 0 0 1 3.001.001zM260 625.5a1.5 1.5 0 1 1-3.001-.001 1.5 1.5 0 0 1 3.001.001zM280 625.5a1.5 1.5 0 1 1-3.001-.001 1.5 1.5 0 0 1 3.001.001zM300 625.5a1.5 1.5 0 1 1-3.001-.001 1.5 1.5 0 0 1 3.001.001zM320 625.5a1.5 1.5 0 1 1-3.001-.001 1.5 1.5 0 0 1 3.001.001zM80 645.5a1.5 1.5 0 1 1-3 0 1.5 1.5 0 0 1 3 0zM100 645.5a1.5 1.5 0 1 1-3 0 1.5 1.5 0 0 1 3 0zM120 645.5a1.5 1.5 0 1 1-3.001-.001 1.5 1.5 0 0 1 3.001.001zM140 645.5a1.5 1.5 0 1 1-3.001-.001 1.5 1.5 0 0 1 3.001.001zM160 645.5a1.5 1.5 0 1 1-3.001-.001 1.5 1.5 0 0 1 3.001.001zM180 645.5a1.5 1.5 0 1 1-3.001-.001 1.5 1.5 0 0 1 3.001.001zM200 645.5a1.5 1.5 0 1 1-3.001-.001 1.5 1.5 0 0 1 3.001.001zM220 645.5a1.5 1.5 0 1 1-3.001-.001 1.5 1.5 0 0 1 3.001.001zM240 645.5a1.5 1.5 0 1 1-3.001-.001 1.5 1.5 0 0 1 3.001.001zM260 645.5a1.5 1.5 0 1 1-3.001-.001 1.5 1.5 0 0 1 3.001.001zM280 645.5a1.5 1.5 0 1 1-3.001-.001 1.5 1.5 0 0 1 3.001.001zM300 645.5a1.5 1.5 0 1 1-3.001-.001 1.5 1.5 0 0 1 3.001.001zM320 645.5a1.5 1.5 0 1 1-3.001-.001 1.5 1.5 0 0 1 3.001.001zM100 665.5a1.5 1.5 0 1 1-3 0 1.5 1.5 0 0 1 3 0zM120 665.5a1.5 1.5 0 1 1-3.001-.001 1.5 1.5 0 0 1 3.001.001zM140 665.5a1.5 1.5 0 1 1-3.001-.001 1.5 1.5 0 0 1 3.001.001zM160 665.5a1.5 1.5 0 1 1-3.001-.001 1.5 1.5 0 0 1 3.001.001zM180 665.5a1.5 1.5 0 1 1-3.001-.001 1.5 1.5 0 0 1 3.001.001zM200 665.5a1.5 1.5 0 1 1-3.001-.001 1.5 1.5 0 0 1 3.001.001zM220 665.5a1.5 1.5 0 1 1-3.001-.001 1.5 1.5 0 0 1 3.001.001zM240 665.5a1.5 1.5 0 1 1-3.001-.001 1.5 1.5 0 0 1 3.001.001zM260 665.5a1.5 1.5 0 1 1-3.001-.001 1.5 1.5 0 0 1 3.001.001zM280 665.5a1.5 1.5 0 1 1-3.001-.001 1.5 1.5 0 0 1 3.001.001zM300 665.5a1.5 1.5 0 1 1-3.001-.001 1.5 1.5 0 0 1 3.001.001zM320 665.5a1.5 1.5 0 1 1-3.001-.001 1.5 1.5 0 0 1 3.001.001zM340 445.5a1.5 1.5 0 1 1-3.001-.001 1.5 1.5 0 0 1 3.001.001zM360 445.5a1.5 1.5 0 1 1-3.001-.001 1.5 1.5 0 0 1 3.001.001zM380 445.5a1.5 1.5 0 1 1-3.001-.001 1.5 1.5 0 0 1 3.001.001zM400 445.5a1.5 1.5 0 1 1-3.001-.001 1.5 1.5 0 0 1 3.001.001zM420 445.5a1.5 1.5 0 1 1-3.001-.001 1.5 1.5 0 0 1 3.001.001zM440 445.5a1.5 1.5 0 1 1-3.001-.001 1.5 1.5 0 0 1 3.001.001zM460 445.5a1.5 1.5 0 1 1-3.001-.001 1.5 1.5 0 0 1 3.001.001zM480 445.5a1.5 1.5 0 1 1-3.001-.001 1.5 1.5 0 0 1 3.001.001zM500 445.5a1.5 1.5 0 1 1-3.001-.001 1.5 1.5 0 0 1 3.001.001zM520 445.5a1.5 1.5 0 1 1-3.001-.001 1.5 1.5 0 0 1 3.001.001zM540 445.5a1.5 1.5 0 1 1-3.001-.001 1.5 1.5 0 0 1 3.001.001zM560 445.5a1.5 1.5 0 1 1-3.001-.001 1.5 1.5 0 0 1 3.001.001zM580 445.5a1.5 1.5 0 1 1-3.001-.001 1.5 1.5 0 0 1 3.001.001zM600 445.5a1.5 1.5 0 1 1-3.001-.001 1.5 1.5 0 0 1 3.001.001zM620 445.5a1.5 1.5 0 1 1-3.001-.001 1.5 1.5 0 0 1 3.001.001zM340 465.5a1.5 1.5 0 1 1-3.001-.001 1.5 1.5 0 0 1 3.001.001zM360 465.5a1.5 1.5 0 1 1-3.001-.001 1.5 1.5 0 0 1 3.001.001zM380 465.5a1.5 1.5 0 1 1-3.001-.001 1.5 1.5 0 0 1 3.001.001zM400 465.5a1.5 1.5 0 1 1-3.001-.001 1.5 1.5 0 0 1 3.001.001zM420 465.5a1.5 1.5 0 1 1-3.001-.001 1.5 1.5 0 0 1 3.001.001zM440 465.5a1.5 1.5 0 1 1-3.001-.001 1.5 1.5 0 0 1 3.001.001zM460 465.5a1.5 1.5 0 1 1-3.001-.001 1.5 1.5 0 0 1 3.001.001zM480 465.5a1.5 1.5 0 1 1-3.001-.001 1.5 1.5 0 0 1 3.001.001zM500 465.5a1.5 1.5 0 1 1-3.001-.001 1.5 1.5 0 0 1 3.001.001zM520 465.5a1.5 1.5 0 1 1-3.001-.001 1.5 1.5 0 0 1 3.001.001zM540 465.5a1.5 1.5 0 1 1-3.001-.001 1.5 1.5 0 0 1 3.001.001zM560 465.5a1.5 1.5 0 1 1-3.001-.001 1.5 1.5 0 0 1 3.001.001zM580 465.5a1.5 1.5 0 1 1-3.001-.001 1.5 1.5 0 0 1 3.001.001zM600 465.5a1.5 1.5 0 1 1-3.001-.001 1.5 1.5 0 0 1 3.001.001zM620 465.5a1.5 1.5 0 1 1-3.001-.001 1.5 1.5 0 0 1 3.001.001zM340 485.5a1.5 1.5 0 1 1-3.001-.001 1.5 1.5 0 0 1 3.001.001zM360 485.5a1.5 1.5 0 1 1-3.001-.001 1.5 1.5 0 0 1 3.001.001zM380 485.5a1.5 1.5 0 1 1-3.001-.001 1.5 1.5 0 0 1 3.001.001zM400 485.5a1.5 1.5 0 1 1-3.001-.001 1.5 1.5 0 0 1 3.001.001zM420 485.5a1.5 1.5 0 1 1-3.001-.001 1.5 1.5 0 0 1 3.001.001zM440 485.5a1.5 1.5 0 1 1-3.001-.001 1.5 1.5 0 0 1 3.001.001zM460 485.5a1.5 1.5 0 1 1-3.001-.001 1.5 1.5 0 0 1 3.001.001zM480 485.5a1.5 1.5 0 1 1-3.001-.001 1.5 1.5 0 0 1 3.001.001zM500 485.5a1.5 1.5 0 1 1-3.001-.001 1.5 1.5 0 0 1 3.001.001zM520 485.5a1.5 1.5 0 1 1-3.001-.001 1.5 1.5 0 0 1 3.001.001zM540 485.5a1.5 1.5 0 1 1-3.001-.001 1.5 1.5 0 0 1 3.001.001zM560 485.5a1.5 1.5 0 1 1-3.001-.001 1.5 1.5 0 0 1 3.001.001zM580 485.5a1.5 1.5 0 1 1-3.001-.001 1.5 1.5 0 0 1 3.001.001zM600 485.5a1.5 1.5 0 1 1-3.001-.001 1.5 1.5 0 0 1 3.001.001zM620 485.5a1.5 1.5 0 1 1-3.001-.001 1.5 1.5 0 0 1 3.001.001zM340 505.5a1.5 1.5 0 1 1-3.001-.001 1.5 1.5 0 0 1 3.001.001zM360 505.5a1.5 1.5 0 1 1-3.001-.001 1.5 1.5 0 0 1 3.001.001zM380 505.5a1.5 1.5 0 1 1-3.001-.001 1.5 1.5 0 0 1 3.001.001zM400 505.5a1.5 1.5 0 1 1-3.001-.001 1.5 1.5 0 0 1 3.001.001zM420 505.5a1.5 1.5 0 1 1-3.001-.001 1.5 1.5 0 0 1 3.001.001zM440 505.5a1.5 1.5 0 1 1-3.001-.001 1.5 1.5 0 0 1 3.001.001zM460 505.5a1.5 1.5 0 1 1-3.001-.001 1.5 1.5 0 0 1 3.001.001zM480 505.5a1.5 1.5 0 1 1-3.001-.001 1.5 1.5 0 0 1 3.001.001zM500 505.5a1.5 1.5 0 1 1-3.001-.001 1.5 1.5 0 0 1 3.001.001zM520 505.5a1.5 1.5 0 1 1-3.001-.001 1.5 1.5 0 0 1 3.001.001zM540 505.5a1.5 1.5 0 1 1-3.001-.001 1.5 1.5 0 0 1 3.001.001zM560 505.5a1.5 1.5 0 1 1-3.001-.001 1.5 1.5 0 0 1 3.001.001zM580 505.5a1.5 1.5 0 1 1-3.001-.001 1.5 1.5 0 0 1 3.001.001zM600 505.5a1.5 1.5 0 1 1-3.001-.001 1.5 1.5 0 0 1 3.001.001zM620 505.5a1.5 1.5 0 1 1-3.001-.001 1.5 1.5 0 0 1 3.001.001zM340 525.5a1.5 1.5 0 1 1-3.001-.001 1.5 1.5 0 0 1 3.001.001zM360 525.5a1.5 1.5 0 1 1-3.001-.001 1.5 1.5 0 0 1 3.001.001zM380 525.5a1.5 1.5 0 1 1-3.001-.001 1.5 1.5 0 0 1 3.001.001zM400 525.5a1.5 1.5 0 1 1-3.001-.001 1.5 1.5 0 0 1 3.001.001zM420 525.5a1.5 1.5 0 1 1-3.001-.001 1.5 1.5 0 0 1 3.001.001zM440 525.5a1.5 1.5 0 1 1-3.001-.001 1.5 1.5 0 0 1 3.001.001zM460 525.5a1.5 1.5 0 1 1-3.001-.001 1.5 1.5 0 0 1 3.001.001zM480 525.5a1.5 1.5 0 1 1-3.001-.001 1.5 1.5 0 0 1 3.001.001zM500 525.5a1.5 1.5 0 1 1-3.001-.001 1.5 1.5 0 0 1 3.001.001zM520 525.5a1.5 1.5 0 1 1-3.001-.001 1.5 1.5 0 0 1 3.001.001zM540 525.5a1.5 1.5 0 1 1-3.001-.001 1.5 1.5 0 0 1 3.001.001zM560 525.5a1.5 1.5 0 1 1-3.001-.001 1.5 1.5 0 0 1 3.001.001zM580 525.5a1.5 1.5 0 1 1-3.001-.001 1.5 1.5 0 0 1 3.001.001zM600 525.5a1.5 1.5 0 1 1-3.001-.001 1.5 1.5 0 0 1 3.001.001zM620 525.5a1.5 1.5 0 1 1-3.001-.001 1.5 1.5 0 0 1 3.001.001zM340 545.5a1.5 1.5 0 1 1-3.001-.001 1.5 1.5 0 0 1 3.001.001zM360 545.5a1.5 1.5 0 1 1-3.001-.001 1.5 1.5 0 0 1 3.001.001zM380 545.5a1.5 1.5 0 1 1-3.001-.001 1.5 1.5 0 0 1 3.001.001zM400 545.5a1.5 1.5 0 1 1-3.001-.001 1.5 1.5 0 0 1 3.001.001zM420 545.5a1.5 1.5 0 1 1-3.001-.001 1.5 1.5 0 0 1 3.001.001zM440 545.5a1.5 1.5 0 1 1-3.001-.001 1.5 1.5 0 0 1 3.001.001zM460 545.5a1.5 1.5 0 1 1-3.001-.001 1.5 1.5 0 0 1 3.001.001zM480 545.5a1.5 1.5 0 1 1-3.001-.001 1.5 1.5 0 0 1 3.001.001zM500 545.5a1.5 1.5 0 1 1-3.001-.001 1.5 1.5 0 0 1 3.001.001zM520 545.5a1.5 1.5 0 1 1-3.001-.001 1.5 1.5 0 0 1 3.001.001zM540 545.5a1.5 1.5 0 1 1-3.001-.001 1.5 1.5 0 0 1 3.001.001zM560 545.5a1.5 1.5 0 1 1-3.001-.001 1.5 1.5 0 0 1 3.001.001zM580 545.5a1.5 1.5 0 1 1-3.001-.001 1.5 1.5 0 0 1 3.001.001zM600 545.5a1.5 1.5 0 1 1-3.001-.001 1.5 1.5 0 0 1 3.001.001zM620 545.5a1.5 1.5 0 1 1-3.001-.001 1.5 1.5 0 0 1 3.001.001zM340 565.5a1.5 1.5 0 1 1-3.001-.001 1.5 1.5 0 0 1 3.001.001zM360 565.5a1.5 1.5 0 1 1-3.001-.001 1.5 1.5 0 0 1 3.001.001zM380 565.5a1.5 1.5 0 1 1-3.001-.001 1.5 1.5 0 0 1 3.001.001zM400 565.5a1.5 1.5 0 1 1-3.001-.001 1.5 1.5 0 0 1 3.001.001zM420 565.5a1.5 1.5 0 1 1-3.001-.001 1.5 1.5 0 0 1 3.001.001zM440 565.5a1.5 1.5 0 1 1-3.001-.001 1.5 1.5 0 0 1 3.001.001zM460 565.5a1.5 1.5 0 1 1-3.001-.001 1.5 1.5 0 0 1 3.001.001zM480 565.5a1.5 1.5 0 1 1-3.001-.001 1.5 1.5 0 0 1 3.001.001zM500 565.5a1.5 1.5 0 1 1-3.001-.001 1.5 1.5 0 0 1 3.001.001zM520 565.5a1.5 1.5 0 1 1-3.001-.001 1.5 1.5 0 0 1 3.001.001zM540 565.5a1.5 1.5 0 1 1-3.001-.001 1.5 1.5 0 0 1 3.001.001zM560 565.5a1.5 1.5 0 1 1-3.001-.001 1.5 1.5 0 0 1 3.001.001zM580 565.5a1.5 1.5 0 1 1-3.001-.001 1.5 1.5 0 0 1 3.001.001zM600 565.5a1.5 1.5 0 1 1-3.001-.001 1.5 1.5 0 0 1 3.001.001zM620 565.5a1.5 1.5 0 1 1-3.001-.001 1.5 1.5 0 0 1 3.001.001zM340 585.5a1.5 1.5 0 1 1-3.001-.001 1.5 1.5 0 0 1 3.001.001zM360 585.5a1.5 1.5 0 1 1-3.001-.001 1.5 1.5 0 0 1 3.001.001zM380 585.5a1.5 1.5 0 1 1-3.001-.001 1.5 1.5 0 0 1 3.001.001zM400 585.5a1.5 1.5 0 1 1-3.001-.001 1.5 1.5 0 0 1 3.001.001zM420 585.5a1.5 1.5 0 1 1-3.001-.001 1.5 1.5 0 0 1 3.001.001zM440 585.5a1.5 1.5 0 1 1-3.001-.001 1.5 1.5 0 0 1 3.001.001zM460 585.5a1.5 1.5 0 1 1-3.001-.001 1.5 1.5 0 0 1 3.001.001zM480 585.5a1.5 1.5 0 1 1-3.001-.001 1.5 1.5 0 0 1 3.001.001zM500 585.5a1.5 1.5 0 1 1-3.001-.001 1.5 1.5 0 0 1 3.001.001zM520 585.5a1.5 1.5 0 1 1-3.001-.001 1.5 1.5 0 0 1 3.001.001zM540 585.5a1.5 1.5 0 1 1-3.001-.001 1.5 1.5 0 0 1 3.001.001zM560 585.5a1.5 1.5 0 1 1-3.001-.001 1.5 1.5 0 0 1 3.001.001zM580 585.5a1.5 1.5 0 1 1-3.001-.001 1.5 1.5 0 0 1 3.001.001zM600 585.5a1.5 1.5 0 1 1-3.001-.001 1.5 1.5 0 0 1 3.001.001zM620 585.5a1.5 1.5 0 1 1-3.001-.001 1.5 1.5 0 0 1 3.001.001zM340 605.5a1.5 1.5 0 1 1-3.001-.001 1.5 1.5 0 0 1 3.001.001zM360 605.5a1.5 1.5 0 1 1-3.001-.001 1.5 1.5 0 0 1 3.001.001zM380 605.5a1.5 1.5 0 1 1-3.001-.001 1.5 1.5 0 0 1 3.001.001zM400 605.5a1.5 1.5 0 1 1-3.001-.001 1.5 1.5 0 0 1 3.001.001zM420 605.5a1.5 1.5 0 1 1-3.001-.001 1.5 1.5 0 0 1 3.001.001zM440 605.5a1.5 1.5 0 1 1-3.001-.001 1.5 1.5 0 0 1 3.001.001zM460 605.5a1.5 1.5 0 1 1-3.001-.001 1.5 1.5 0 0 1 3.001.001zM480 605.5a1.5 1.5 0 1 1-3.001-.001 1.5 1.5 0 0 1 3.001.001zM500 605.5a1.5 1.5 0 1 1-3.001-.001 1.5 1.5 0 0 1 3.001.001zM520 605.5a1.5 1.5 0 1 1-3.001-.001 1.5 1.5 0 0 1 3.001.001zM540 605.5a1.5 1.5 0 1 1-3.001-.001 1.5 1.5 0 0 1 3.001.001zM560 605.5a1.5 1.5 0 1 1-3.001-.001 1.5 1.5 0 0 1 3.001.001zM580 605.5a1.5 1.5 0 1 1-3.001-.001 1.5 1.5 0 0 1 3.001.001zM600 605.5a1.5 1.5 0 1 1-3.001-.001 1.5 1.5 0 0 1 3.001.001zM620 605.5a1.5 1.5 0 1 1-3.001-.001 1.5 1.5 0 0 1 3.001.001zM340 625.5a1.5 1.5 0 1 1-3.001-.001 1.5 1.5 0 0 1 3.001.001zM360 625.5a1.5 1.5 0 1 1-3.001-.001 1.5 1.5 0 0 1 3.001.001zM380 625.5a1.5 1.5 0 1 1-3.001-.001 1.5 1.5 0 0 1 3.001.001zM400 625.5a1.5 1.5 0 1 1-3.001-.001 1.5 1.5 0 0 1 3.001.001zM420 625.5a1.5 1.5 0 1 1-3.001-.001 1.5 1.5 0 0 1 3.001.001zM440 625.5a1.5 1.5 0 1 1-3.001-.001 1.5 1.5 0 0 1 3.001.001zM460 625.5a1.5 1.5 0 1 1-3.001-.001 1.5 1.5 0 0 1 3.001.001zM480 625.5a1.5 1.5 0 1 1-3.001-.001 1.5 1.5 0 0 1 3.001.001zM500 625.5a1.5 1.5 0 1 1-3.001-.001 1.5 1.5 0 0 1 3.001.001zM520 625.5a1.5 1.5 0 1 1-3.001-.001 1.5 1.5 0 0 1 3.001.001zM540 625.5a1.5 1.5 0 1 1-3.001-.001 1.5 1.5 0 0 1 3.001.001zM560 625.5a1.5 1.5 0 1 1-3.001-.001 1.5 1.5 0 0 1 3.001.001zM580 625.5a1.5 1.5 0 1 1-3.001-.001 1.5 1.5 0 0 1 3.001.001zM600 625.5a1.5 1.5 0 1 1-3.001-.001 1.5 1.5 0 0 1 3.001.001zM620 625.5a1.5 1.5 0 1 1-3.001-.001 1.5 1.5 0 0 1 3.001.001zM340 645.5a1.5 1.5 0 1 1-3.001-.001 1.5 1.5 0 0 1 3.001.001zM360 645.5a1.5 1.5 0 1 1-3.001-.001 1.5 1.5 0 0 1 3.001.001zM380 645.5a1.5 1.5 0 1 1-3.001-.001 1.5 1.5 0 0 1 3.001.001zM400 645.5a1.5 1.5 0 1 1-3.001-.001 1.5 1.5 0 0 1 3.001.001zM420 645.5a1.5 1.5 0 1 1-3.001-.001 1.5 1.5 0 0 1 3.001.001zM440 645.5a1.5 1.5 0 1 1-3.001-.001 1.5 1.5 0 0 1 3.001.001zM460 645.5a1.5 1.5 0 1 1-3.001-.001 1.5 1.5 0 0 1 3.001.001zM480 645.5a1.5 1.5 0 1 1-3.001-.001 1.5 1.5 0 0 1 3.001.001zM500 645.5a1.5 1.5 0 1 1-3.001-.001 1.5 1.5 0 0 1 3.001.001zM520 645.5a1.5 1.5 0 1 1-3.001-.001 1.5 1.5 0 0 1 3.001.001zM540 645.5a1.5 1.5 0 1 1-3.001-.001 1.5 1.5 0 0 1 3.001.001zM560 645.5a1.5 1.5 0 1 1-3.001-.001 1.5 1.5 0 0 1 3.001.001zM580 645.5a1.5 1.5 0 1 1-3.001-.001 1.5 1.5 0 0 1 3.001.001zM600 645.5a1.5 1.5 0 1 1-3.001-.001 1.5 1.5 0 0 1 3.001.001zM620 645.5a1.5 1.5 0 1 1-3.001-.001 1.5 1.5 0 0 1 3.001.001zM340 665.5a1.5 1.5 0 1 1-3.001-.001 1.5 1.5 0 0 1 3.001.001zM360 665.5a1.5 1.5 0 1 1-3.001-.001 1.5 1.5 0 0 1 3.001.001zM380 665.5a1.5 1.5 0 1 1-3.001-.001 1.5 1.5 0 0 1 3.001.001zM400 665.5a1.5 1.5 0 1 1-3.001-.001 1.5 1.5 0 0 1 3.001.001zM420 665.5a1.5 1.5 0 1 1-3.001-.001 1.5 1.5 0 0 1 3.001.001zM440 665.5a1.5 1.5 0 1 1-3.001-.001 1.5 1.5 0 0 1 3.001.001zM460 665.5a1.5 1.5 0 1 1-3.001-.001 1.5 1.5 0 0 1 3.001.001zM480 665.5a1.5 1.5 0 1 1-3.001-.001 1.5 1.5 0 0 1 3.001.001zM500 665.5a1.5 1.5 0 1 1-3.001-.001 1.5 1.5 0 0 1 3.001.001zM520 665.5a1.5 1.5 0 1 1-3.001-.001 1.5 1.5 0 0 1 3.001.001zM540 665.5a1.5 1.5 0 1 1-3.001-.001 1.5 1.5 0 0 1 3.001.001zM560 665.5a1.5 1.5 0 1 1-3.001-.001 1.5 1.5 0 0 1 3.001.001zM580 665.5a1.5 1.5 0 1 1-3.001-.001 1.5 1.5 0 0 1 3.001.001zM600 665.5a1.5 1.5 0 1 1-3.001-.001 1.5 1.5 0 0 1 3.001.001zM620 665.5a1.5 1.5 0 1 1-3.001-.001 1.5 1.5 0 0 1 3.001.001zM640 445.5a1.5 1.5 0 1 1-3.001-.001 1.5 1.5 0 0 1 3.001.001zM660 445.5a1.5 1.5 0 1 1-3.001-.001 1.5 1.5 0 0 1 3.001.001zM680 445.5a1.5 1.5 0 1 1-3.001-.001 1.5 1.5 0 0 1 3.001.001zM700 445.5a1.5 1.5 0 1 1-3.001-.001 1.5 1.5 0 0 1 3.001.001zM720 445.5a1.5 1.5 0 1 1-3.001-.001 1.5 1.5 0 0 1 3.001.001zM740 445.5a1.5 1.5 0 1 1-3.001-.001 1.5 1.5 0 0 1 3.001.001zM760 445.5a1.5 1.5 0 1 1-3.001-.001 1.5 1.5 0 0 1 3.001.001zM780 445.5a1.5 1.5 0 1 1-3.001-.001 1.5 1.5 0 0 1 3.001.001zM800 445.5a1.5 1.5 0 1 1-3.001-.001 1.5 1.5 0 0 1 3.001.001zM640 465.5a1.5 1.5 0 1 1-3.001-.001 1.5 1.5 0 0 1 3.001.001zM660 465.5a1.5 1.5 0 1 1-3.001-.001 1.5 1.5 0 0 1 3.001.001zM680 465.5a1.5 1.5 0 1 1-3.001-.001 1.5 1.5 0 0 1 3.001.001zM700 465.5a1.5 1.5 0 1 1-3.001-.001 1.5 1.5 0 0 1 3.001.001zM720 465.5a1.5 1.5 0 1 1-3.001-.001 1.5 1.5 0 0 1 3.001.001zM740 465.5a1.5 1.5 0 1 1-3.001-.001 1.5 1.5 0 0 1 3.001.001zM760 465.5a1.5 1.5 0 1 1-3.001-.001 1.5 1.5 0 0 1 3.001.001zM780 465.5a1.5 1.5 0 1 1-3.001-.001 1.5 1.5 0 0 1 3.001.001zM800 465.5a1.5 1.5 0 1 1-3.001-.001 1.5 1.5 0 0 1 3.001.001zM640 485.5a1.5 1.5 0 1 1-3.001-.001 1.5 1.5 0 0 1 3.001.001zM660 485.5a1.5 1.5 0 1 1-3.001-.001 1.5 1.5 0 0 1 3.001.001zM680 485.5a1.5 1.5 0 1 1-3.001-.001 1.5 1.5 0 0 1 3.001.001zM700 485.5a1.5 1.5 0 1 1-3.001-.001 1.5 1.5 0 0 1 3.001.001zM720 485.5a1.5 1.5 0 1 1-3.001-.001 1.5 1.5 0 0 1 3.001.001zM740 485.5a1.5 1.5 0 1 1-3.001-.001 1.5 1.5 0 0 1 3.001.001zM760 485.5a1.5 1.5 0 1 1-3.001-.001 1.5 1.5 0 0 1 3.001.001zM780 485.5a1.5 1.5 0 1 1-3.001-.001 1.5 1.5 0 0 1 3.001.001zM800 485.5a1.5 1.5 0 1 1-3.001-.001 1.5 1.5 0 0 1 3.001.001zM640 505.5a1.5 1.5 0 1 1-3.001-.001 1.5 1.5 0 0 1 3.001.001zM660 505.5a1.5 1.5 0 1 1-3.001-.001 1.5 1.5 0 0 1 3.001.001zM680 505.5a1.5 1.5 0 1 1-3.001-.001 1.5 1.5 0 0 1 3.001.001zM700 505.5a1.5 1.5 0 1 1-3.001-.001 1.5 1.5 0 0 1 3.001.001zM720 505.5a1.5 1.5 0 1 1-3.001-.001 1.5 1.5 0 0 1 3.001.001zM740 505.5a1.5 1.5 0 1 1-3.001-.001 1.5 1.5 0 0 1 3.001.001zM760 505.5a1.5 1.5 0 1 1-3.001-.001 1.5 1.5 0 0 1 3.001.001zM780 505.5a1.5 1.5 0 1 1-3.001-.001 1.5 1.5 0 0 1 3.001.001zM800 505.5a1.5 1.5 0 1 1-3.001-.001 1.5 1.5 0 0 1 3.001.001zM640 525.5a1.5 1.5 0 1 1-3.001-.001 1.5 1.5 0 0 1 3.001.001zM660 525.5a1.5 1.5 0 1 1-3.001-.001 1.5 1.5 0 0 1 3.001.001zM680 525.5a1.5 1.5 0 1 1-3.001-.001 1.5 1.5 0 0 1 3.001.001zM700 525.5a1.5 1.5 0 1 1-3.001-.001 1.5 1.5 0 0 1 3.001.001zM720 525.5a1.5 1.5 0 1 1-3.001-.001 1.5 1.5 0 0 1 3.001.001zM740 525.5a1.5 1.5 0 1 1-3.001-.001 1.5 1.5 0 0 1 3.001.001zM760 525.5a1.5 1.5 0 1 1-3.001-.001 1.5 1.5 0 0 1 3.001.001zM780 525.5a1.5 1.5 0 1 1-3.001-.001 1.5 1.5 0 0 1 3.001.001zM800 525.5a1.5 1.5 0 1 1-3.001-.001 1.5 1.5 0 0 1 3.001.001zM640 545.5a1.5 1.5 0 1 1-3.001-.001 1.5 1.5 0 0 1 3.001.001zM660 545.5a1.5 1.5 0 1 1-3.001-.001 1.5 1.5 0 0 1 3.001.001zM680 545.5a1.5 1.5 0 1 1-3.001-.001 1.5 1.5 0 0 1 3.001.001zM700 545.5a1.5 1.5 0 1 1-3.001-.001 1.5 1.5 0 0 1 3.001.001zM720 545.5a1.5 1.5 0 1 1-3.001-.001 1.5 1.5 0 0 1 3.001.001zM740 545.5a1.5 1.5 0 1 1-3.001-.001 1.5 1.5 0 0 1 3.001.001zM760 545.5a1.5 1.5 0 1 1-3.001-.001 1.5 1.5 0 0 1 3.001.001zM780 545.5a1.5 1.5 0 1 1-3.001-.001 1.5 1.5 0 0 1 3.001.001zM800 545.5a1.5 1.5 0 1 1-3.001-.001 1.5 1.5 0 0 1 3.001.001zM640 565.5a1.5 1.5 0 1 1-3.001-.001 1.5 1.5 0 0 1 3.001.001zM660 565.5a1.5 1.5 0 1 1-3.001-.001 1.5 1.5 0 0 1 3.001.001zM680 565.5a1.5 1.5 0 1 1-3.001-.001 1.5 1.5 0 0 1 3.001.001zM700 565.5a1.5 1.5 0 1 1-3.001-.001 1.5 1.5 0 0 1 3.001.001zM720 565.5a1.5 1.5 0 1 1-3.001-.001 1.5 1.5 0 0 1 3.001.001zM740 565.5a1.5 1.5 0 1 1-3.001-.001 1.5 1.5 0 0 1 3.001.001zM760 565.5a1.5 1.5 0 1 1-3.001-.001 1.5 1.5 0 0 1 3.001.001zM780 565.5a1.5 1.5 0 1 1-3.001-.001 1.5 1.5 0 0 1 3.001.001zM800 565.5a1.5 1.5 0 1 1-3.001-.001 1.5 1.5 0 0 1 3.001.001zM640 585.5a1.5 1.5 0 1 1-3.001-.001 1.5 1.5 0 0 1 3.001.001zM660 585.5a1.5 1.5 0 1 1-3.001-.001 1.5 1.5 0 0 1 3.001.001zM680 585.5a1.5 1.5 0 1 1-3.001-.001 1.5 1.5 0 0 1 3.001.001zM700 585.5a1.5 1.5 0 1 1-3.001-.001 1.5 1.5 0 0 1 3.001.001zM720 585.5a1.5 1.5 0 1 1-3.001-.001 1.5 1.5 0 0 1 3.001.001zM740 585.5a1.5 1.5 0 1 1-3.001-.001 1.5 1.5 0 0 1 3.001.001zM760 585.5a1.5 1.5 0 1 1-3.001-.001 1.5 1.5 0 0 1 3.001.001zM780 585.5a1.5 1.5 0 1 1-3.001-.001 1.5 1.5 0 0 1 3.001.001zM640 605.5a1.5 1.5 0 1 1-3.001-.001 1.5 1.5 0 0 1 3.001.001zM660 605.5a1.5 1.5 0 1 1-3.001-.001 1.5 1.5 0 0 1 3.001.001zM680 605.5a1.5 1.5 0 1 1-3.001-.001 1.5 1.5 0 0 1 3.001.001zM700 605.5a1.5 1.5 0 1 1-3.001-.001 1.5 1.5 0 0 1 3.001.001zM720 605.5a1.5 1.5 0 1 1-3.001-.001 1.5 1.5 0 0 1 3.001.001zM740 605.5a1.5 1.5 0 1 1-3.001-.001 1.5 1.5 0 0 1 3.001.001zM640 625.5a1.5 1.5 0 1 1-3.001-.001 1.5 1.5 0 0 1 3.001.001zM660 625.5a1.5 1.5 0 1 1-3.001-.001 1.5 1.5 0 0 1 3.001.001zM680 625.5a1.5 1.5 0 1 1-3.001-.001 1.5 1.5 0 0 1 3.001.001zM700 625.5a1.5 1.5 0 1 1-3.001-.001 1.5 1.5 0 0 1 3.001.001zM640 645.5a1.5 1.5 0 1 1-3.001-.001 1.5 1.5 0 0 1 3.001.001zM660 645.5a1.5 1.5 0 1 1-3.001-.001 1.5 1.5 0 0 1 3.001.001zM120 685.5a1.5 1.5 0 1 1-3.001-.001 1.5 1.5 0 0 1 3.001.001zM140 685.5a1.5 1.5 0 1 1-3.001-.001 1.5 1.5 0 0 1 3.001.001zM160 685.5a1.5 1.5 0 1 1-3.001-.001 1.5 1.5 0 0 1 3.001.001zM180 685.5a1.5 1.5 0 1 1-3.001-.001 1.5 1.5 0 0 1 3.001.001zM200 685.5a1.5 1.5 0 1 1-3.001-.001 1.5 1.5 0 0 1 3.001.001zM220 685.5a1.5 1.5 0 1 1-3.001-.001 1.5 1.5 0 0 1 3.001.001zM240 685.5a1.5 1.5 0 1 1-3.001-.001 1.5 1.5 0 0 1 3.001.001zM260 685.5a1.5 1.5 0 1 1-3.001-.001 1.5 1.5 0 0 1 3.001.001zM280 685.5a1.5 1.5 0 1 1-3.001-.001 1.5 1.5 0 0 1 3.001.001zM300 685.5a1.5 1.5 0 1 1-3.001-.001 1.5 1.5 0 0 1 3.001.001zM320 685.5a1.5 1.5 0 1 1-3.001-.001 1.5 1.5 0 0 1 3.001.001zM340 685.5a1.5 1.5 0 1 1-3.001-.001 1.5 1.5 0 0 1 3.001.001zM360 685.5a1.5 1.5 0 1 1-3.001-.001 1.5 1.5 0 0 1 3.001.001zM380 685.5a1.5 1.5 0 1 1-3.001-.001 1.5 1.5 0 0 1 3.001.001zM400 685.5a1.5 1.5 0 1 1-3.001-.001 1.5 1.5 0 0 1 3.001.001zM420 685.5a1.5 1.5 0 1 1-3.001-.001 1.5 1.5 0 0 1 3.001.001zM440 685.5a1.5 1.5 0 1 1-3.001-.001 1.5 1.5 0 0 1 3.001.001zM460 685.5a1.5 1.5 0 1 1-3.001-.001 1.5 1.5 0 0 1 3.001.001zM480 685.5a1.5 1.5 0 1 1-3.001-.001 1.5 1.5 0 0 1 3.001.001zM500 685.5a1.5 1.5 0 1 1-3.001-.001 1.5 1.5 0 0 1 3.001.001zM520 685.5a1.5 1.5 0 1 1-3.001-.001 1.5 1.5 0 0 1 3.001.001zM540 685.5a1.5 1.5 0 1 1-3.001-.001 1.5 1.5 0 0 1 3.001.001zM560 685.5a1.5 1.5 0 1 1-3.001-.001 1.5 1.5 0 0 1 3.001.001zM20 125.5a1.5 1.5 0 1 1-3 0 1.5 1.5 0 0 1 3 0zM0 145.5a1.5 1.5 0 1 1-3 0 1.5 1.5 0 0 1 3 0zM20 145.5a1.5 1.5 0 1 1-3 0 1.5 1.5 0 0 1 3 0zM0 165.5a1.5 1.5 0 1 1-3 0 1.5 1.5 0 0 1 3 0zM20 165.5a1.5 1.5 0 1 1-3 0 1.5 1.5 0 0 1 3 0zM0 185.5a1.5 1.5 0 1 1-3 0 1.5 1.5 0 0 1 3 0zM20 185.5a1.5 1.5 0 1 1-3 0 1.5 1.5 0 0 1 3 0zM220 5.5a1.5 1.5 0 1 1-3 0 1.5 1.5 0 0 1 3 0zM240 5.5a1.5 1.5 0 1 1-3 0 1.5 1.5 0 0 1 3 0zM260 5.5a1.5 1.5 0 1 1-3 0 1.5 1.5 0 0 1 3 0zM280 5.5a1.5 1.5 0 1 1-3 0 1.5 1.5 0 0 1 3 0zM300 5.5a1.5 1.5 0 1 1-3 0 1.5 1.5 0 0 1 3 0zM320 5.5a1.5 1.5 0 1 1-3 0 1.5 1.5 0 0 1 3 0zM100 25.5a1.5 1.5 0 1 1-3 0 1.5 1.5 0 0 1 3 0zM120 25.5a1.5 1.5 0 1 1-3 0 1.5 1.5 0 0 1 3 0zM140 25.5a1.5 1.5 0 1 1-3 0 1.5 1.5 0 0 1 3 0zM160 25.5a1.5 1.5 0 1 1-3 0 1.5 1.5 0 0 1 3 0zM180 25.5a1.5 1.5 0 1 1-3 0 1.5 1.5 0 0 1 3 0zM200 25.5a1.5 1.5 0 1 1-3 0 1.5 1.5 0 0 1 3 0zM220 25.5a1.5 1.5 0 1 1-3 0 1.5 1.5 0 0 1 3 0zM240 25.5a1.5 1.5 0 1 1-3 0 1.5 1.5 0 0 1 3 0zM260 25.5a1.5 1.5 0 1 1-3 0 1.5 1.5 0 0 1 3 0zM280 25.5a1.5 1.5 0 1 1-3 0 1.5 1.5 0 0 1 3 0zM300 25.5a1.5 1.5 0 1 1-3 0 1.5 1.5 0 0 1 3 0zM320 25.5a1.5 1.5 0 1 1-3 0 1.5 1.5 0 0 1 3 0zM80 45.5a1.5 1.5 0 1 1-3 0 1.5 1.5 0 0 1 3 0zM100 45.5a1.5 1.5 0 1 1-3 0 1.5 1.5 0 0 1 3 0zM120 45.5a1.5 1.5 0 1 1-3 0 1.5 1.5 0 0 1 3 0zM140 45.5a1.5 1.5 0 1 1-3 0 1.5 1.5 0 0 1 3 0zM160 45.5a1.5 1.5 0 1 1-3 0 1.5 1.5 0 0 1 3 0zM180 45.5a1.5 1.5 0 1 1-3 0 1.5 1.5 0 0 1 3 0zM200 45.5a1.5 1.5 0 1 1-3 0 1.5 1.5 0 0 1 3 0zM220 45.5a1.5 1.5 0 1 1-3 0 1.5 1.5 0 0 1 3 0zM240 45.5a1.5 1.5 0 1 1-3 0 1.5 1.5 0 0 1 3 0zM260 45.5a1.5 1.5 0 1 1-3 0 1.5 1.5 0 0 1 3 0zM280 45.5a1.5 1.5 0 1 1-3 0 1.5 1.5 0 0 1 3 0zM300 45.5a1.5 1.5 0 1 1-3 0 1.5 1.5 0 0 1 3 0zM320 45.5a1.5 1.5 0 1 1-3 0 1.5 1.5 0 0 1 3 0zM60 65.5a1.5 1.5 0 1 1-3 0 1.5 1.5 0 0 1 3 0zM80 65.5a1.5 1.5 0 1 1-3 0 1.5 1.5 0 0 1 3 0zM100 65.5a1.5 1.5 0 1 1-3 0 1.5 1.5 0 0 1 3 0zM120 65.5a1.5 1.5 0 1 1-3 0 1.5 1.5 0 0 1 3 0zM140 65.5a1.5 1.5 0 1 1-3 0 1.5 1.5 0 0 1 3 0zM160 65.5a1.5 1.5 0 1 1-3 0 1.5 1.5 0 0 1 3 0zM180 65.5a1.5 1.5 0 1 1-3 0 1.5 1.5 0 0 1 3 0zM200 65.5a1.5 1.5 0 1 1-3 0 1.5 1.5 0 0 1 3 0zM220 65.5a1.5 1.5 0 1 1-3 0 1.5 1.5 0 0 1 3 0zM240 65.5a1.5 1.5 0 1 1-3 0 1.5 1.5 0 0 1 3 0zM260 65.5a1.5 1.5 0 1 1-3 0 1.5 1.5 0 0 1 3 0zM280 65.5a1.5 1.5 0 1 1-3 0 1.5 1.5 0 0 1 3 0zM300 65.5a1.5 1.5 0 1 1-3 0 1.5 1.5 0 0 1 3 0zM320 65.5a1.5 1.5 0 1 1-3 0 1.5 1.5 0 0 1 3 0zM60 85.5a1.5 1.5 0 1 1-3 0 1.5 1.5 0 0 1 3 0zM80 85.5a1.5 1.5 0 1 1-3 0 1.5 1.5 0 0 1 3 0zM100 85.5a1.5 1.5 0 1 1-3 0 1.5 1.5 0 0 1 3 0zM120 85.5a1.5 1.5 0 1 1-3 0 1.5 1.5 0 0 1 3 0zM140 85.5a1.5 1.5 0 1 1-3 0 1.5 1.5 0 0 1 3 0zM160 85.5a1.5 1.5 0 1 1-3 0 1.5 1.5 0 0 1 3 0zM180 85.5a1.5 1.5 0 1 1-3 0 1.5 1.5 0 0 1 3 0zM200 85.5a1.5 1.5 0 1 1-3 0 1.5 1.5 0 0 1 3 0zM220 85.5a1.5 1.5 0 1 1-3 0 1.5 1.5 0 0 1 3 0zM240 85.5a1.5 1.5 0 1 1-3 0 1.5 1.5 0 0 1 3 0zM260 85.5a1.5 1.5 0 1 1-3 0 1.5 1.5 0 0 1 3 0zM280 85.5a1.5 1.5 0 1 1-3 0 1.5 1.5 0 0 1 3 0zM300 85.5a1.5 1.5 0 1 1-3 0 1.5 1.5 0 0 1 3 0zM320 85.5a1.5 1.5 0 1 1-3 0 1.5 1.5 0 0 1 3 0zM40 105.5a1.5 1.5 0 1 1-3 0 1.5 1.5 0 0 1 3 0zM60 105.5a1.5 1.5 0 1 1-3 0 1.5 1.5 0 0 1 3 0zM80 105.5a1.5 1.5 0 1 1-3 0 1.5 1.5 0 0 1 3 0zM100 105.5a1.5 1.5 0 1 1-3 0 1.5 1.5 0 0 1 3 0zM120 105.5a1.5 1.5 0 1 1-3.001-.001 1.5 1.5 0 0 1 3.001.001zM140 105.5a1.5 1.5 0 1 1-3.001-.001 1.5 1.5 0 0 1 3.001.001zM160 105.5a1.5 1.5 0 1 1-3.001-.001 1.5 1.5 0 0 1 3.001.001zM180 105.5a1.5 1.5 0 1 1-3.001-.001 1.5 1.5 0 0 1 3.001.001zM200 105.5a1.5 1.5 0 1 1-3.001-.001 1.5 1.5 0 0 1 3.001.001zM220 105.5a1.5 1.5 0 1 1-3.001-.001 1.5 1.5 0 0 1 3.001.001zM240 105.5a1.5 1.5 0 1 1-3.001-.001 1.5 1.5 0 0 1 3.001.001zM260 105.5a1.5 1.5 0 1 1-3.001-.001 1.5 1.5 0 0 1 3.001.001zM280 105.5a1.5 1.5 0 1 1-3.001-.001 1.5 1.5 0 0 1 3.001.001zM300 105.5a1.5 1.5 0 1 1-3.001-.001 1.5 1.5 0 0 1 3.001.001zM320 105.5a1.5 1.5 0 1 1-3.001-.001 1.5 1.5 0 0 1 3.001.001zM40 125.5a1.5 1.5 0 1 1-3 0 1.5 1.5 0 0 1 3 0zM60 125.5a1.5 1.5 0 1 1-3 0 1.5 1.5 0 0 1 3 0zM80 125.5a1.5 1.5 0 1 1-3 0 1.5 1.5 0 0 1 3 0zM100 125.5a1.5 1.5 0 1 1-3 0 1.5 1.5 0 0 1 3 0zM120 125.5a1.5 1.5 0 1 1-3.001-.001 1.5 1.5 0 0 1 3.001.001zM140 125.5a1.5 1.5 0 1 1-3.001-.001 1.5 1.5 0 0 1 3.001.001zM160 125.5a1.5 1.5 0 1 1-3.001-.001 1.5 1.5 0 0 1 3.001.001zM180 125.5a1.5 1.5 0 1 1-3.001-.001 1.5 1.5 0 0 1 3.001.001zM200 125.5a1.5 1.5 0 1 1-3.001-.001 1.5 1.5 0 0 1 3.001.001zM220 125.5a1.5 1.5 0 1 1-3.001-.001 1.5 1.5 0 0 1 3.001.001zM240 125.5a1.5 1.5 0 1 1-3.001-.001 1.5 1.5 0 0 1 3.001.001zM260 125.5a1.5 1.5 0 1 1-3.001-.001 1.5 1.5 0 0 1 3.001.001zM280 125.5a1.5 1.5 0 1 1-3.001-.001 1.5 1.5 0 0 1 3.001.001zM300 125.5a1.5 1.5 0 1 1-3.001-.001 1.5 1.5 0 0 1 3.001.001zM320 125.5a1.5 1.5 0 1 1-3.001-.001 1.5 1.5 0 0 1 3.001.001zM40 145.5a1.5 1.5 0 1 1-3 0 1.5 1.5 0 0 1 3 0zM60 145.5a1.5 1.5 0 1 1-3 0 1.5 1.5 0 0 1 3 0zM80 145.5a1.5 1.5 0 1 1-3 0 1.5 1.5 0 0 1 3 0zM100 145.5a1.5 1.5 0 1 1-3 0 1.5 1.5 0 0 1 3 0zM120 145.5a1.5 1.5 0 1 1-3.001-.001 1.5 1.5 0 0 1 3.001.001zM140 145.5a1.5 1.5 0 1 1-3.001-.001 1.5 1.5 0 0 1 3.001.001zM160 145.5a1.5 1.5 0 1 1-3.001-.001 1.5 1.5 0 0 1 3.001.001zM180 145.5a1.5 1.5 0 1 1-3.001-.001 1.5 1.5 0 0 1 3.001.001zM200 145.5a1.5 1.5 0 1 1-3.001-.001 1.5 1.5 0 0 1 3.001.001zM220 145.5a1.5 1.5 0 1 1-3.001-.001 1.5 1.5 0 0 1 3.001.001zM240 145.5a1.5 1.5 0 1 1-3.001-.001 1.5 1.5 0 0 1 3.001.001zM260 145.5a1.5 1.5 0 1 1-3.001-.001 1.5 1.5 0 0 1 3.001.001zM280 145.5a1.5 1.5 0 1 1-3.001-.001 1.5 1.5 0 0 1 3.001.001zM300 145.5a1.5 1.5 0 1 1-3.001-.001 1.5 1.5 0 0 1 3.001.001zM320 145.5a1.5 1.5 0 1 1-3.001-.001 1.5 1.5 0 0 1 3.001.001zM40 165.5a1.5 1.5 0 1 1-3 0 1.5 1.5 0 0 1 3 0zM60 165.5a1.5 1.5 0 1 1-3 0 1.5 1.5 0 0 1 3 0zM80 165.5a1.5 1.5 0 1 1-3 0 1.5 1.5 0 0 1 3 0zM100 165.5a1.5 1.5 0 1 1-3 0 1.5 1.5 0 0 1 3 0zM120 165.5a1.5 1.5 0 1 1-3.001-.001 1.5 1.5 0 0 1 3.001.001zM140 165.5a1.5 1.5 0 1 1-3.001-.001 1.5 1.5 0 0 1 3.001.001zM160 165.5a1.5 1.5 0 1 1-3.001-.001 1.5 1.5 0 0 1 3.001.001zM180 165.5a1.5 1.5 0 1 1-3.001-.001 1.5 1.5 0 0 1 3.001.001zM200 165.5a1.5 1.5 0 1 1-3.001-.001 1.5 1.5 0 0 1 3.001.001zM220 165.5a1.5 1.5 0 1 1-3.001-.001 1.5 1.5 0 0 1 3.001.001zM240 165.5a1.5 1.5 0 1 1-3.001-.001 1.5 1.5 0 0 1 3.001.001zM260 165.5a1.5 1.5 0 1 1-3.001-.001 1.5 1.5 0 0 1 3.001.001zM280 165.5a1.5 1.5 0 1 1-3.001-.001 1.5 1.5 0 0 1 3.001.001zM300 165.5a1.5 1.5 0 1 1-3.001-.001 1.5 1.5 0 0 1 3.001.001zM320 165.5a1.5 1.5 0 1 1-3.001-.001 1.5 1.5 0 0 1 3.001.001zM40 185.5a1.5 1.5 0 1 1-3 0 1.5 1.5 0 0 1 3 0zM60 185.5a1.5 1.5 0 1 1-3 0 1.5 1.5 0 0 1 3 0zM80 185.5a1.5 1.5 0 1 1-3 0 1.5 1.5 0 0 1 3 0zM100 185.5a1.5 1.5 0 1 1-3 0 1.5 1.5 0 0 1 3 0zM120 185.5a1.5 1.5 0 1 1-3.001-.001 1.5 1.5 0 0 1 3.001.001zM140 185.5a1.5 1.5 0 1 1-3.001-.001 1.5 1.5 0 0 1 3.001.001zM160 185.5a1.5 1.5 0 1 1-3.001-.001 1.5 1.5 0 0 1 3.001.001zM180 185.5a1.5 1.5 0 1 1-3.001-.001 1.5 1.5 0 0 1 3.001.001zM200 185.5a1.5 1.5 0 1 1-3.001-.001 1.5 1.5 0 0 1 3.001.001zM220 185.5a1.5 1.5 0 1 1-3.001-.001 1.5 1.5 0 0 1 3.001.001zM240 185.5a1.5 1.5 0 1 1-3.001-.001 1.5 1.5 0 0 1 3.001.001zM260 185.5a1.5 1.5 0 1 1-3.001-.001 1.5 1.5 0 0 1 3.001.001zM280 185.5a1.5 1.5 0 1 1-3.001-.001 1.5 1.5 0 0 1 3.001.001zM300 185.5a1.5 1.5 0 1 1-3.001-.001 1.5 1.5 0 0 1 3.001.001zM320 185.5a1.5 1.5 0 1 1-3.001-.001 1.5 1.5 0 0 1 3.001.001zM340 5.5a1.5 1.5 0 1 1-3 0 1.5 1.5 0 0 1 3 0zM360 5.5a1.5 1.5 0 1 1-3 0 1.5 1.5 0 0 1 3 0zM380 5.5a1.5 1.5 0 1 1-3 0 1.5 1.5 0 0 1 3 0zM400 5.5a1.5 1.5 0 1 1-3 0 1.5 1.5 0 0 1 3 0zM420 5.5a1.5 1.5 0 1 1-3 0 1.5 1.5 0 0 1 3 0zM440 5.5a1.5 1.5 0 1 1-3 0 1.5 1.5 0 0 1 3 0zM460 5.5a1.5 1.5 0 1 1-3 0 1.5 1.5 0 0 1 3 0zM480 5.5a1.5 1.5 0 1 1-3 0 1.5 1.5 0 0 1 3 0zM500 5.5a1.5 1.5 0 1 1-3 0 1.5 1.5 0 0 1 3 0zM520 5.5a1.5 1.5 0 1 1-3 0 1.5 1.5 0 0 1 3 0zM540 5.5a1.5 1.5 0 1 1-3 0 1.5 1.5 0 0 1 3 0zM560 5.5a1.5 1.5 0 1 1-3 0 1.5 1.5 0 0 1 3 0zM580 5.5a1.5 1.5 0 1 1-3 0 1.5 1.5 0 0 1 3 0zM600 5.5a1.5 1.5 0 1 1-3 0 1.5 1.5 0 0 1 3 0zM620 5.5a1.5 1.5 0 1 1-3 0 1.5 1.5 0 0 1 3 0zM340 25.5a1.5 1.5 0 1 1-3 0 1.5 1.5 0 0 1 3 0zM360 25.5a1.5 1.5 0 1 1-3 0 1.5 1.5 0 0 1 3 0zM380 25.5a1.5 1.5 0 1 1-3 0 1.5 1.5 0 0 1 3 0zM400 25.5a1.5 1.5 0 1 1-3 0 1.5 1.5 0 0 1 3 0zM420 25.5a1.5 1.5 0 1 1-3 0 1.5 1.5 0 0 1 3 0zM440 25.5a1.5 1.5 0 1 1-3 0 1.5 1.5 0 0 1 3 0zM460 25.5a1.5 1.5 0 1 1-3 0 1.5 1.5 0 0 1 3 0zM480 25.5a1.5 1.5 0 1 1-3 0 1.5 1.5 0 0 1 3 0zM500 25.5a1.5 1.5 0 1 1-3 0 1.5 1.5 0 0 1 3 0zM520 25.5a1.5 1.5 0 1 1-3 0 1.5 1.5 0 0 1 3 0zM540 25.5a1.5 1.5 0 1 1-3 0 1.5 1.5 0 0 1 3 0zM560 25.5a1.5 1.5 0 1 1-3 0 1.5 1.5 0 0 1 3 0zM580 25.5a1.5 1.5 0 1 1-3 0 1.5 1.5 0 0 1 3 0zM600 25.5a1.5 1.5 0 1 1-3 0 1.5 1.5 0 0 1 3 0zM620 25.5a1.5 1.5 0 1 1-3 0 1.5 1.5 0 0 1 3 0zM340 45.5a1.5 1.5 0 1 1-3 0 1.5 1.5 0 0 1 3 0zM360 45.5a1.5 1.5 0 1 1-3 0 1.5 1.5 0 0 1 3 0zM380 45.5a1.5 1.5 0 1 1-3 0 1.5 1.5 0 0 1 3 0zM400 45.5a1.5 1.5 0 1 1-3 0 1.5 1.5 0 0 1 3 0zM420 45.5a1.5 1.5 0 1 1-3 0 1.5 1.5 0 0 1 3 0zM440 45.5a1.5 1.5 0 1 1-3 0 1.5 1.5 0 0 1 3 0zM460 45.5a1.5 1.5 0 1 1-3 0 1.5 1.5 0 0 1 3 0zM480 45.5a1.5 1.5 0 1 1-3 0 1.5 1.5 0 0 1 3 0zM500 45.5a1.5 1.5 0 1 1-3 0 1.5 1.5 0 0 1 3 0zM520 45.5a1.5 1.5 0 1 1-3 0 1.5 1.5 0 0 1 3 0zM540 45.5a1.5 1.5 0 1 1-3 0 1.5 1.5 0 0 1 3 0zM560 45.5a1.5 1.5 0 1 1-3 0 1.5 1.5 0 0 1 3 0zM580 45.5a1.5 1.5 0 1 1-3 0 1.5 1.5 0 0 1 3 0zM600 45.5a1.5 1.5 0 1 1-3 0 1.5 1.5 0 0 1 3 0zM620 45.5a1.5 1.5 0 1 1-3 0 1.5 1.5 0 0 1 3 0zM340 65.5a1.5 1.5 0 1 1-3 0 1.5 1.5 0 0 1 3 0zM360 65.5a1.5 1.5 0 1 1-3 0 1.5 1.5 0 0 1 3 0zM380 65.5a1.5 1.5 0 1 1-3 0 1.5 1.5 0 0 1 3 0zM400 65.5a1.5 1.5 0 1 1-3 0 1.5 1.5 0 0 1 3 0zM420 65.5a1.5 1.5 0 1 1-3 0 1.5 1.5 0 0 1 3 0zM440 65.5a1.5 1.5 0 1 1-3 0 1.5 1.5 0 0 1 3 0zM460 65.5a1.5 1.5 0 1 1-3 0 1.5 1.5 0 0 1 3 0zM480 65.5a1.5 1.5 0 1 1-3 0 1.5 1.5 0 0 1 3 0zM500 65.5a1.5 1.5 0 1 1-3 0 1.5 1.5 0 0 1 3 0zM520 65.5a1.5 1.5 0 1 1-3 0 1.5 1.5 0 0 1 3 0zM540 65.5a1.5 1.5 0 1 1-3 0 1.5 1.5 0 0 1 3 0zM560 65.5a1.5 1.5 0 1 1-3 0 1.5 1.5 0 0 1 3 0zM580 65.5a1.5 1.5 0 1 1-3 0 1.5 1.5 0 0 1 3 0zM600 65.5a1.5 1.5 0 1 1-3 0 1.5 1.5 0 0 1 3 0zM620 65.5a1.5 1.5 0 1 1-3 0 1.5 1.5 0 0 1 3 0zM340 85.5a1.5 1.5 0 1 1-3 0 1.5 1.5 0 0 1 3 0zM360 85.5a1.5 1.5 0 1 1-3 0 1.5 1.5 0 0 1 3 0zM380 85.5a1.5 1.5 0 1 1-3 0 1.5 1.5 0 0 1 3 0zM400 85.5a1.5 1.5 0 1 1-3 0 1.5 1.5 0 0 1 3 0zM420 85.5a1.5 1.5 0 1 1-3 0 1.5 1.5 0 0 1 3 0zM440 85.5a1.5 1.5 0 1 1-3 0 1.5 1.5 0 0 1 3 0zM460 85.5a1.5 1.5 0 1 1-3 0 1.5 1.5 0 0 1 3 0zM480 85.5a1.5 1.5 0 1 1-3 0 1.5 1.5 0 0 1 3 0zM500 85.5a1.5 1.5 0 1 1-3 0 1.5 1.5 0 0 1 3 0zM520 85.5a1.5 1.5 0 1 1-3 0 1.5 1.5 0 0 1 3 0zM540 85.5a1.5 1.5 0 1 1-3 0 1.5 1.5 0 0 1 3 0zM560 85.5a1.5 1.5 0 1 1-3 0 1.5 1.5 0 0 1 3 0zM580 85.5a1.5 1.5 0 1 1-3 0 1.5 1.5 0 0 1 3 0zM600 85.5a1.5 1.5 0 1 1-3 0 1.5 1.5 0 0 1 3 0zM620 85.5a1.5 1.5 0 1 1-3 0 1.5 1.5 0 0 1 3 0zM340 105.5a1.5 1.5 0 1 1-3.001-.001 1.5 1.5 0 0 1 3.001.001zM360 105.5a1.5 1.5 0 1 1-3.001-.001 1.5 1.5 0 0 1 3.001.001zM380 105.5a1.5 1.5 0 1 1-3.001-.001 1.5 1.5 0 0 1 3.001.001zM400 105.5a1.5 1.5 0 1 1-3.001-.001 1.5 1.5 0 0 1 3.001.001zM420 105.5a1.5 1.5 0 1 1-3.001-.001 1.5 1.5 0 0 1 3.001.001zM440 105.5a1.5 1.5 0 1 1-3.001-.001 1.5 1.5 0 0 1 3.001.001zM460 105.5a1.5 1.5 0 1 1-3.001-.001 1.5 1.5 0 0 1 3.001.001zM480 105.5a1.5 1.5 0 1 1-3.001-.001 1.5 1.5 0 0 1 3.001.001zM500 105.5a1.5 1.5 0 1 1-3.001-.001 1.5 1.5 0 0 1 3.001.001zM520 105.5a1.5 1.5 0 1 1-3.001-.001 1.5 1.5 0 0 1 3.001.001zM540 105.5a1.5 1.5 0 1 1-3.001-.001 1.5 1.5 0 0 1 3.001.001zM560 105.5a1.5 1.5 0 1 1-3.001-.001 1.5 1.5 0 0 1 3.001.001zM580 105.5a1.5 1.5 0 1 1-3.001-.001 1.5 1.5 0 0 1 3.001.001zM600 105.5a1.5 1.5 0 1 1-3.001-.001 1.5 1.5 0 0 1 3.001.001zM620 105.5a1.5 1.5 0 1 1-3.001-.001 1.5 1.5 0 0 1 3.001.001zM340 125.5a1.5 1.5 0 1 1-3.001-.001 1.5 1.5 0 0 1 3.001.001zM360 125.5a1.5 1.5 0 1 1-3.001-.001 1.5 1.5 0 0 1 3.001.001zM380 125.5a1.5 1.5 0 1 1-3.001-.001 1.5 1.5 0 0 1 3.001.001zM400 125.5a1.5 1.5 0 1 1-3.001-.001 1.5 1.5 0 0 1 3.001.001zM420 125.5a1.5 1.5 0 1 1-3.001-.001 1.5 1.5 0 0 1 3.001.001zM440 125.5a1.5 1.5 0 1 1-3.001-.001 1.5 1.5 0 0 1 3.001.001zM460 125.5a1.5 1.5 0 1 1-3.001-.001 1.5 1.5 0 0 1 3.001.001zM480 125.5a1.5 1.5 0 1 1-3.001-.001 1.5 1.5 0 0 1 3.001.001zM500 125.5a1.5 1.5 0 1 1-3.001-.001 1.5 1.5 0 0 1 3.001.001zM520 125.5a1.5 1.5 0 1 1-3.001-.001 1.5 1.5 0 0 1 3.001.001zM540 125.5a1.5 1.5 0 1 1-3.001-.001 1.5 1.5 0 0 1 3.001.001zM560 125.5a1.5 1.5 0 1 1-3.001-.001 1.5 1.5 0 0 1 3.001.001zM580 125.5a1.5 1.5 0 1 1-3.001-.001 1.5 1.5 0 0 1 3.001.001zM600 125.5a1.5 1.5 0 1 1-3.001-.001 1.5 1.5 0 0 1 3.001.001zM620 125.5a1.5 1.5 0 1 1-3.001-.001 1.5 1.5 0 0 1 3.001.001zM340 145.5a1.5 1.5 0 1 1-3.001-.001 1.5 1.5 0 0 1 3.001.001zM360 145.5a1.5 1.5 0 1 1-3.001-.001 1.5 1.5 0 0 1 3.001.001zM380 145.5a1.5 1.5 0 1 1-3.001-.001 1.5 1.5 0 0 1 3.001.001zM400 145.5a1.5 1.5 0 1 1-3.001-.001 1.5 1.5 0 0 1 3.001.001zM420 145.5a1.5 1.5 0 1 1-3.001-.001 1.5 1.5 0 0 1 3.001.001zM440 145.5a1.5 1.5 0 1 1-3.001-.001 1.5 1.5 0 0 1 3.001.001zM460 145.5a1.5 1.5 0 1 1-3.001-.001 1.5 1.5 0 0 1 3.001.001zM480 145.5a1.5 1.5 0 1 1-3.001-.001 1.5 1.5 0 0 1 3.001.001zM500 145.5a1.5 1.5 0 1 1-3.001-.001 1.5 1.5 0 0 1 3.001.001zM520 145.5a1.5 1.5 0 1 1-3.001-.001 1.5 1.5 0 0 1 3.001.001zM540 145.5a1.5 1.5 0 1 1-3.001-.001 1.5 1.5 0 0 1 3.001.001zM560 145.5a1.5 1.5 0 1 1-3.001-.001 1.5 1.5 0 0 1 3.001.001zM580 145.5a1.5 1.5 0 1 1-3.001-.001 1.5 1.5 0 0 1 3.001.001zM600 145.5a1.5 1.5 0 1 1-3.001-.001 1.5 1.5 0 0 1 3.001.001zM620 145.5a1.5 1.5 0 1 1-3.001-.001 1.5 1.5 0 0 1 3.001.001zM340 165.5a1.5 1.5 0 1 1-3.001-.001 1.5 1.5 0 0 1 3.001.001zM360 165.5a1.5 1.5 0 1 1-3.001-.001 1.5 1.5 0 0 1 3.001.001zM380 165.5a1.5 1.5 0 1 1-3.001-.001 1.5 1.5 0 0 1 3.001.001zM400 165.5a1.5 1.5 0 1 1-3.001-.001 1.5 1.5 0 0 1 3.001.001zM420 165.5a1.5 1.5 0 1 1-3.001-.001 1.5 1.5 0 0 1 3.001.001zM440 165.5a1.5 1.5 0 1 1-3.001-.001 1.5 1.5 0 0 1 3.001.001zM460 165.5a1.5 1.5 0 1 1-3.001-.001 1.5 1.5 0 0 1 3.001.001zM480 165.5a1.5 1.5 0 1 1-3.001-.001 1.5 1.5 0 0 1 3.001.001zM500 165.5a1.5 1.5 0 1 1-3.001-.001 1.5 1.5 0 0 1 3.001.001zM520 165.5a1.5 1.5 0 1 1-3.001-.001 1.5 1.5 0 0 1 3.001.001zM540 165.5a1.5 1.5 0 1 1-3.001-.001 1.5 1.5 0 0 1 3.001.001zM560 165.5a1.5 1.5 0 1 1-3.001-.001 1.5 1.5 0 0 1 3.001.001zM580 165.5a1.5 1.5 0 1 1-3.001-.001 1.5 1.5 0 0 1 3.001.001zM600 165.5a1.5 1.5 0 1 1-3.001-.001 1.5 1.5 0 0 1 3.001.001zM620 165.5a1.5 1.5 0 1 1-3.001-.001 1.5 1.5 0 0 1 3.001.001zM340 185.5a1.5 1.5 0 1 1-3.001-.001 1.5 1.5 0 0 1 3.001.001zM360 185.5a1.5 1.5 0 1 1-3.001-.001 1.5 1.5 0 0 1 3.001.001zM380 185.5a1.5 1.5 0 1 1-3.001-.001 1.5 1.5 0 0 1 3.001.001zM400 185.5a1.5 1.5 0 1 1-3.001-.001 1.5 1.5 0 0 1 3.001.001zM420 185.5a1.5 1.5 0 1 1-3.001-.001 1.5 1.5 0 0 1 3.001.001zM440 185.5a1.5 1.5 0 1 1-3.001-.001 1.5 1.5 0 0 1 3.001.001zM460 185.5a1.5 1.5 0 1 1-3.001-.001 1.5 1.5 0 0 1 3.001.001zM480 185.5a1.5 1.5 0 1 1-3.001-.001 1.5 1.5 0 0 1 3.001.001zM500 185.5a1.5 1.5 0 1 1-3.001-.001 1.5 1.5 0 0 1 3.001.001zM520 185.5a1.5 1.5 0 1 1-3.001-.001 1.5 1.5 0 0 1 3.001.001zM540 185.5a1.5 1.5 0 1 1-3.001-.001 1.5 1.5 0 0 1 3.001.001zM560 185.5a1.5 1.5 0 1 1-3.001-.001 1.5 1.5 0 0 1 3.001.001zM580 185.5a1.5 1.5 0 1 1-3.001-.001 1.5 1.5 0 0 1 3.001.001zM600 185.5a1.5 1.5 0 1 1-3.001-.001 1.5 1.5 0 0 1 3.001.001zM620 185.5a1.5 1.5 0 1 1-3.001-.001 1.5 1.5 0 0 1 3.001.001zM640 5.5a1.5 1.5 0 1 1-3 0 1.5 1.5 0 0 1 3 0zM660 5.5a1.5 1.5 0 1 1-3 0 1.5 1.5 0 0 1 3 0zM680 5.5a1.5 1.5 0 1 1-3 0 1.5 1.5 0 0 1 3 0zM700 5.5a1.5 1.5 0 1 1-3 0 1.5 1.5 0 0 1 3 0zM720 5.5a1.5 1.5 0 1 1-3 0 1.5 1.5 0 0 1 3 0zM740 5.5a1.5 1.5 0 1 1-3 0 1.5 1.5 0 0 1 3 0zM760 5.5a1.5 1.5 0 1 1-3 0 1.5 1.5 0 0 1 3 0zM640 25.5a1.5 1.5 0 1 1-3 0 1.5 1.5 0 0 1 3 0zM660 25.5a1.5 1.5 0 1 1-3 0 1.5 1.5 0 0 1 3 0zM680 25.5a1.5 1.5 0 1 1-3 0 1.5 1.5 0 0 1 3 0zM700 25.5a1.5 1.5 0 1 1-3 0 1.5 1.5 0 0 1 3 0zM720 25.5a1.5 1.5 0 1 1-3 0 1.5 1.5 0 0 1 3 0zM740 25.5a1.5 1.5 0 1 1-3 0 1.5 1.5 0 0 1 3 0zM760 25.5a1.5 1.5 0 1 1-3 0 1.5 1.5 0 0 1 3 0zM780 25.5a1.5 1.5 0 1 1-3 0 1.5 1.5 0 0 1 3 0zM640 45.5a1.5 1.5 0 1 1-3 0 1.5 1.5 0 0 1 3 0zM660 45.5a1.5 1.5 0 1 1-3 0 1.5 1.5 0 0 1 3 0zM680 45.5a1.5 1.5 0 1 1-3 0 1.5 1.5 0 0 1 3 0zM700 45.5a1.5 1.5 0 1 1-3 0 1.5 1.5 0 0 1 3 0zM720 45.5a1.5 1.5 0 1 1-3 0 1.5 1.5 0 0 1 3 0zM740 45.5a1.5 1.5 0 1 1-3 0 1.5 1.5 0 0 1 3 0zM760 45.5a1.5 1.5 0 1 1-3 0 1.5 1.5 0 0 1 3 0zM780 45.5a1.5 1.5 0 1 1-3 0 1.5 1.5 0 0 1 3 0zM800 45.5a1.5 1.5 0 1 1-3 0 1.5 1.5 0 0 1 3 0zM640 65.5a1.5 1.5 0 1 1-3 0 1.5 1.5 0 0 1 3 0zM660 65.5a1.5 1.5 0 1 1-3 0 1.5 1.5 0 0 1 3 0zM680 65.5a1.5 1.5 0 1 1-3 0 1.5 1.5 0 0 1 3 0zM700 65.5a1.5 1.5 0 1 1-3 0 1.5 1.5 0 0 1 3 0zM720 65.5a1.5 1.5 0 1 1-3 0 1.5 1.5 0 0 1 3 0zM740 65.5a1.5 1.5 0 1 1-3 0 1.5 1.5 0 0 1 3 0zM760 65.5a1.5 1.5 0 1 1-3 0 1.5 1.5 0 0 1 3 0zM780 65.5a1.5 1.5 0 1 1-3 0 1.5 1.5 0 0 1 3 0zM800 65.5a1.5 1.5 0 1 1-3 0 1.5 1.5 0 0 1 3 0zM640 85.5a1.5 1.5 0 1 1-3 0 1.5 1.5 0 0 1 3 0zM660 85.5a1.5 1.5 0 1 1-3 0 1.5 1.5 0 0 1 3 0zM680 85.5a1.5 1.5 0 1 1-3 0 1.5 1.5 0 0 1 3 0zM700 85.5a1.5 1.5 0 1 1-3 0 1.5 1.5 0 0 1 3 0zM720 85.5a1.5 1.5 0 1 1-3 0 1.5 1.5 0 0 1 3 0zM740 85.5a1.5 1.5 0 1 1-3 0 1.5 1.5 0 0 1 3 0zM760 85.5a1.5 1.5 0 1 1-3 0 1.5 1.5 0 0 1 3 0zM780 85.5a1.5 1.5 0 1 1-3 0 1.5 1.5 0 0 1 3 0zM800 85.5a1.5 1.5 0 1 1-3 0 1.5 1.5 0 0 1 3 0zM640 105.5a1.5 1.5 0 1 1-3.001-.001 1.5 1.5 0 0 1 3.001.001zM660 105.5a1.5 1.5 0 1 1-3.001-.001 1.5 1.5 0 0 1 3.001.001zM680 105.5a1.5 1.5 0 1 1-3.001-.001 1.5 1.5 0 0 1 3.001.001zM700 105.5a1.5 1.5 0 1 1-3.001-.001 1.5 1.5 0 0 1 3.001.001zM720 105.5a1.5 1.5 0 1 1-3.001-.001 1.5 1.5 0 0 1 3.001.001zM740 105.5a1.5 1.5 0 1 1-3.001-.001 1.5 1.5 0 0 1 3.001.001zM760 105.5a1.5 1.5 0 1 1-3.001-.001 1.5 1.5 0 0 1 3.001.001zM780 105.5a1.5 1.5 0 1 1-3.001-.001 1.5 1.5 0 0 1 3.001.001zM800 105.5a1.5 1.5 0 1 1-3.001-.001 1.5 1.5 0 0 1 3.001.001zM640 125.5a1.5 1.5 0 1 1-3.001-.001 1.5 1.5 0 0 1 3.001.001zM660 125.5a1.5 1.5 0 1 1-3.001-.001 1.5 1.5 0 0 1 3.001.001zM680 125.5a1.5 1.5 0 1 1-3.001-.001 1.5 1.5 0 0 1 3.001.001zM700 125.5a1.5 1.5 0 1 1-3.001-.001 1.5 1.5 0 0 1 3.001.001zM720 125.5a1.5 1.5 0 1 1-3.001-.001 1.5 1.5 0 0 1 3.001.001zM740 125.5a1.5 1.5 0 1 1-3.001-.001 1.5 1.5 0 0 1 3.001.001zM760 125.5a1.5 1.5 0 1 1-3.001-.001 1.5 1.5 0 0 1 3.001.001zM780 125.5a1.5 1.5 0 1 1-3.001-.001 1.5 1.5 0 0 1 3.001.001zM800 125.5a1.5 1.5 0 1 1-3.001-.001 1.5 1.5 0 0 1 3.001.001zM640 145.5a1.5 1.5 0 1 1-3.001-.001 1.5 1.5 0 0 1 3.001.001zM660 145.5a1.5 1.5 0 1 1-3.001-.001 1.5 1.5 0 0 1 3.001.001zM680 145.5a1.5 1.5 0 1 1-3.001-.001 1.5 1.5 0 0 1 3.001.001zM700 145.5a1.5 1.5 0 1 1-3.001-.001 1.5 1.5 0 0 1 3.001.001zM720 145.5a1.5 1.5 0 1 1-3.001-.001 1.5 1.5 0 0 1 3.001.001zM740 145.5a1.5 1.5 0 1 1-3.001-.001 1.5 1.5 0 0 1 3.001.001zM760 145.5a1.5 1.5 0 1 1-3.001-.001 1.5 1.5 0 0 1 3.001.001zM780 145.5a1.5 1.5 0 1 1-3.001-.001 1.5 1.5 0 0 1 3.001.001zM800 145.5a1.5 1.5 0 1 1-3.001-.001 1.5 1.5 0 0 1 3.001.001zM640 165.5a1.5 1.5 0 1 1-3.001-.001 1.5 1.5 0 0 1 3.001.001zM660 165.5a1.5 1.5 0 1 1-3.001-.001 1.5 1.5 0 0 1 3.001.001zM680 165.5a1.5 1.5 0 1 1-3.001-.001 1.5 1.5 0 0 1 3.001.001zM700 165.5a1.5 1.5 0 1 1-3.001-.001 1.5 1.5 0 0 1 3.001.001zM720 165.5a1.5 1.5 0 1 1-3.001-.001 1.5 1.5 0 0 1 3.001.001zM740 165.5a1.5 1.5 0 1 1-3.001-.001 1.5 1.5 0 0 1 3.001.001zM760 165.5a1.5 1.5 0 1 1-3.001-.001 1.5 1.5 0 0 1 3.001.001zM780 165.5a1.5 1.5 0 1 1-3.001-.001 1.5 1.5 0 0 1 3.001.001zM800 165.5a1.5 1.5 0 1 1-3.001-.001 1.5 1.5 0 0 1 3.001.001zM640 185.5a1.5 1.5 0 1 1-3.001-.001 1.5 1.5 0 0 1 3.001.001zM660 185.5a1.5 1.5 0 1 1-3.001-.001 1.5 1.5 0 0 1 3.001.001zM680 185.5a1.5 1.5 0 1 1-3.001-.001 1.5 1.5 0 0 1 3.001.001zM700 185.5a1.5 1.5 0 1 1-3.001-.001 1.5 1.5 0 0 1 3.001.001zM720 185.5a1.5 1.5 0 1 1-3.001-.001 1.5 1.5 0 0 1 3.001.001zM740 185.5a1.5 1.5 0 1 1-3.001-.001 1.5 1.5 0 0 1 3.001.001zM760 185.5a1.5 1.5 0 1 1-3.001-.001 1.5 1.5 0 0 1 3.001.001zM780 185.5a1.5 1.5 0 1 1-3.001-.001 1.5 1.5 0 0 1 3.001.001zM800 185.5a1.5 1.5 0 1 1-3.001-.001 1.5 1.5 0 0 1 3.001.001zM-20 205.5a1.5 1.5 0 1 1-3 0 1.5 1.5 0 0 1 3 0zM-20 225.5a1.5 1.5 0 1 1-3 0 1.5 1.5 0 0 1 3 0zM-20 245.5a1.5 1.5 0 1 1-3 0 1.5 1.5 0 0 1 3 0zM-20 265.5a1.5 1.5 0 1 1-3 0 1.5 1.5 0 0 1 3 0zM-20 285.5a1.5 1.5 0 1 1-3 0 1.5 1.5 0 0 1 3 0zM-20 305.5a1.5 1.5 0 1 1-3 0 1.5 1.5 0 0 1 3 0zM-20 325.5a1.5 1.5 0 1 1-3 0 1.5 1.5 0 0 1 3 0zM-20 345.5a1.5 1.5 0 1 1-3 0 1.5 1.5 0 0 1 3 0zM-20 365.5a1.5 1.5 0 1 1-3 0 1.5 1.5 0 0 1 3 0zM-20 385.5a1.5 1.5 0 1 1-3 0 1.5 1.5 0 0 1 3 0zM-20 405.5a1.5 1.5 0 1 1-3 0 1.5 1.5 0 0 1 3 0zM-20 425.5a1.5 1.5 0 1 1-3 0 1.5 1.5 0 0 1 3 0zM-20 445.5a1.5 1.5 0 1 1-3 0 1.5 1.5 0 0 1 3 0zM-20 465.5a1.5 1.5 0 1 1-3 0 1.5 1.5 0 0 1 3 0zM-20 485.5a1.5 1.5 0 1 1-3 0 1.5 1.5 0 0 1 3 0zM-20 505.5a1.5 1.5 0 1 1-3 0 1.5 1.5 0 0 1 3 0zM-20 165.5a1.5 1.5 0 1 1-3 0 1.5 1.5 0 0 1 3 0zM-20 185.5a1.5 1.5 0 1 1-3 0 1.5 1.5 0 0 1 3 0z"/></g><path d="M287.779 242.638c-15.739-58.742 19.12-119.12 77.862-134.86l212.721-56.999c58.742-15.74 119.12 19.12 134.86 77.862l56.999 212.721c15.739 58.742-19.12 119.12-77.862 134.86l-212.721 56.999c-58.742 15.739-119.12-19.12-134.86-77.862l-56.999-212.721z" fill="url(#paint0_linear)" filter="url(#filter0_di)"/><path d="M80.294 190.108C67.429 142.096 95.92 92.746 143.933 79.881L317.8 33.294c48.012-12.865 97.362 15.627 110.227 63.64L474.614 270.8c12.865 48.012-15.627 97.362-63.639 110.227l-173.867 46.587c-48.012 12.865-97.362-15.627-110.227-63.639L80.294 190.108z" fill="url(#paint1_linear)" filter="url(#filter1_di)"/><path d="M266.529 486.072c-8.576-32.008 10.419-64.908 42.426-73.485l115.912-31.058c32.008-8.576 64.908 10.419 73.484 42.426l31.059 115.912c8.576 32.008-10.419 64.908-42.427 73.484L371.072 644.41c-32.008 8.576-64.908-10.419-73.485-42.427l-31.058-115.911z" fill="url(#paint2_linear)" filter="url(#filter2_di)"/><path d="M67.764 534.036c-4.288-16.004 5.21-32.454 21.214-36.742l57.955-15.529c16.004-4.289 32.454 5.209 36.743 21.213l15.529 57.955c4.288 16.004-5.209 32.454-21.213 36.743l-57.956 15.529c-16.004 4.288-32.454-5.209-36.742-21.213l-15.53-57.956z" fill="url(#paint3_linear)" filter="url(#filter3_di)"/><path d="M44.882 418.018c-2.144-8.002 2.605-16.227 10.607-18.371l28.978-7.765c8.002-2.144 16.227 2.605 18.371 10.607l7.764 28.977c2.145 8.002-2.604 16.227-10.606 18.372l-28.978 7.764c-8.002 2.144-16.227-2.604-18.371-10.606l-7.765-28.978z" fill="url(#paint4_linear)" filter="url(#filter4_di)"/><path d="M694.882 153.017c-2.144-8.002 2.605-16.227 10.607-18.371l28.978-7.765c8.002-2.144 16.227 2.605 18.371 10.607l7.764 28.977c2.145 8.002-2.604 16.227-10.606 18.372l-28.978 7.764c-8.002 2.144-16.227-2.604-18.371-10.606l-7.765-28.978z" fill="url(#paint5_linear)" filter="url(#filter5_di)"/><defs><filter id="filter0_di" x="239" y="17" width="580" height="580" filterUnits="userSpaceOnUse" color-interpolation-filters="sRGB"><feFlood flood-opacity="0" result="BackgroundImageFix"/><feColorMatrix in="SourceAlpha" values="0 0 0 0 0 0 0 0 0 0 0 0 0 0 0 0 0 0 127 0"/><feOffset dy="15"/><feGaussianBlur stdDeviation="22.5"/><feColorMatrix values="0 0 0 0 0.36597 0 0 0 0 0.297014 0 0 0 0 0.783333 0 0 0 0.5 0"/><feBlend in2="BackgroundImageFix" result="effect1_dropShadow"/><feBlend in="SourceGraphic" in2="effect1_dropShadow" result="shape"/><feColorMatrix in="SourceAlpha" values="0 0 0 0 0 0 0 0 0 0 0 0 0 0 0 0 0 0 127 0" result="hardAlpha"/><feOffset/><feGaussianBlur stdDeviation="5"/><feComposite in2="hardAlpha" operator="arithmetic" k2="-1" k3="1"/><feColorMatrix values="0 0 0 0 1 0 0 0 0 1 0 0 0 0 1 0 0 0 0.25 0"/><feBlend in2="shape" result="effect2_innerShadow"/></filter><filter id="filter1_di" x="32.205" y=".205" width="490.499" height="490.499" filterUnits="userSpaceOnUse" color-interpolation-filters="sRGB"><feFlood flood-opacity="0" result="BackgroundImageFix"/><feColorMatrix in="SourceAlpha" values="0 0 0 0 0 0 0 0 0 0 0 0 0 0 0 0 0 0 127 0"/><feOffset dy="15"/><feGaussianBlur stdDeviation="22.5"/><feColorMatrix values="0 0 0 0 0.36597 0 0 0 0 0.297014 0 0 0 0 0.783333 0 0 0 0.5 0"/><feBlend in2="BackgroundImageFix" result="effect1_dropShadow"/><feBlend in="SourceGraphic" in2="effect1_dropShadow" result="shape"/><feColorMatrix in="SourceAlpha" values="0 0 0 0 0 0 0 0 0 0 0 0 0 0 0 0 0 0 127 0" result="hardAlpha"/><feOffset/><feGaussianBlur stdDeviation="5"/><feComposite in2="hardAlpha" operator="arithmetic" k2="-1" k3="1"/><feColorMatrix values="0 0 0 0 1 0 0 0 0 1 0 0 0 0 1 0 0 0 0.25 0"/><feBlend in2="shape" result="effect2_innerShadow"/></filter><filter id="filter2_di" x="219.47" y="349.47" width="356.999" height="356.999" filterUnits="userSpaceOnUse" color-interpolation-filters="sRGB"><feFlood flood-opacity="0" result="BackgroundImageFix"/><feColorMatrix in="SourceAlpha" values="0 0 0 0 0 0 0 0 0 0 0 0 0 0 0 0 0 0 127 0"/><feOffset dy="15"/><feGaussianBlur stdDeviation="22.5"/><feColorMatrix values="0 0 0 0 0.36597 0 0 0 0 0.297014 0 0 0 0 0.783333 0 0 0 0.5 0"/><feBlend in2="BackgroundImageFix" result="effect1_dropShadow"/><feBlend in="SourceGraphic" in2="effect1_dropShadow" result="shape"/><feColorMatrix in="SourceAlpha" values="0 0 0 0 0 0 0 0 0 0 0 0 0 0 0 0 0 0 127 0" result="hardAlpha"/><feOffset/><feGaussianBlur stdDeviation="5"/><feComposite in2="hardAlpha" operator="arithmetic" k2="-1" k3="1"/><feColorMatrix values="0 0 0 0 1 0 0 0 0 1 0 0 0 0 1 0 0 0 0.25 0"/><feBlend in2="shape" result="effect2_innerShadow"/></filter><filter id="filter3_di" x="21.735" y="450.735" width="223.5" height="223.5" filterUnits="userSpaceOnUse" color-interpolation-filters="sRGB"><feFlood flood-opacity="0" result="BackgroundImageFix"/><feColorMatrix in="SourceAlpha" values="0 0 0 0 0 0 0 0 0 0 0 0 0 0 0 0 0 0 127 0"/><feOffset dy="15"/><feGaussianBlur stdDeviation="22.5"/><feColorMatrix values="0 0 0 0 0.36597 0 0 0 0 0.297014 0 0 0 0 0.783333 0 0 0 0.5 0"/><feBlend in2="BackgroundImageFix" result="effect1_dropShadow"/><feBlend in="SourceGraphic" in2="effect1_dropShadow" result="shape"/><feColorMatrix in="SourceAlpha" values="0 0 0 0 0 0 0 0 0 0 0 0 0 0 0 0 0 0 127 0" result="hardAlpha"/><feOffset/><feGaussianBlur stdDeviation="5"/><feComposite in2="hardAlpha" operator="arithmetic" k2="-1" k3="1"/><feColorMatrix values="0 0 0 0 1 0 0 0 0 1 0 0 0 0 1 0 0 0 0.25 0"/><feBlend in2="shape" result="effect2_innerShadow"/></filter><filter id="filter4_di" x="-.633" y="361.367" width="156.75" height="156.75" filterUnits="userSpaceOnUse" color-interpolation-filters="sRGB"><feFlood flood-opacity="0" result="BackgroundImageFix"/><feColorMatrix in="SourceAlpha" values="0 0 0 0 0 0 0 0 0 0 0 0 0 0 0 0 0 0 127 0"/><feOffset dy="15"/><feGaussianBlur stdDeviation="22.5"/><feColorMatrix values="0 0 0 0 0.36597 0 0 0 0 0.297014 0 0 0 0 0.783333 0 0 0 0.5 0"/><feBlend in2="BackgroundImageFix" result="effect1_dropShadow"/><feBlend in="SourceGraphic" in2="effect1_dropShadow" result="shape"/><feColorMatrix in="SourceAlpha" values="0 0 0 0 0 0 0 0 0 0 0 0 0 0 0 0 0 0 127 0" result="hardAlpha"/><feOffset/><feGaussianBlur stdDeviation="5"/><feComposite in2="hardAlpha" operator="arithmetic" k2="-1" k3="1"/><feColorMatrix values="0 0 0 0 1 0 0 0 0 1 0 0 0 0 1 0 0 0 0.25 0"/><feBlend in2="shape" result="effect2_innerShadow"/></filter><filter id="filter5_di" x="649.367" y="96.366" width="156.75" height="156.75" filterUnits="userSpaceOnUse" color-interpolation-filters="sRGB"><feFlood flood-opacity="0" result="BackgroundImageFix"/><feColorMatrix in="SourceAlpha" values="0 0 0 0 0 0 0 0 0 0 0 0 0 0 0 0 0 0 127 0"/><feOffset dy="15"/><feGaussianBlur stdDeviation="22.5"/><feColorMatrix values="0 0 0 0 0.36597 0 0 0 0 0.297014 0 0 0 0 0.783333 0 0 0 0.5 0"/><feBlend in2="BackgroundImageFix" result="effect1_dropShadow"/><feBlend in="SourceGraphic" in2="effect1_dropShadow" result="shape"/><feColorMatrix in="SourceAlpha" values="0 0 0 0 0 0 0 0 0 0 0 0 0 0 0 0 0 0 127 0" result="hardAlpha"/><feOffset/><feGaussianBlur stdDeviation="5"/><feComposite in2="hardAlpha" operator="arithmetic" k2="-1" k3="1"/><feColorMatrix values="0 0 0 0 1 0 0 0 0 1 0 0 0 0 1 0 0 0 0.25 0"/><feBlend in2="shape" result="effect2_innerShadow"/></filter><linearGradient id="paint0_linear" x1="464.824" y1="92.018" x2="614.16" y2="477.614" gradientUnits="userSpaceOnUse"><stop stop-color="#9F8FFF"/><stop offset="1" stop-color="#7B68EE"/></linearGradient><linearGradient id="paint1_linear" x1="225" y1="67" x2="347.059" y2="382.165" gradientUnits="userSpaceOnUse"><stop stop-color="#9F8FFF"/><stop offset="1" stop-color="#7B68EE"/></linearGradient><linearGradient id="paint2_linear" x1="363" y1="404" x2="444.373" y2="614.11" gradientUnits="userSpaceOnUse"><stop stop-color="#9F8FFF"/><stop offset="1" stop-color="#7B68EE"/></linearGradient><linearGradient id="paint3_linear" x1="116" y1="493" x2="156.686" y2="598.055" gradientUnits="userSpaceOnUse"><stop stop-color="#9F8FFF"/><stop offset="1" stop-color="#7B68EE"/></linearGradient><linearGradient id="paint4_linear" x1="69" y1="397.5" x2="89.343" y2="450.027" gradientUnits="userSpaceOnUse"><stop stop-color="#9F8FFF"/><stop offset="1" stop-color="#7B68EE"/></linearGradient><linearGradient id="paint5_linear" x1="719" y1="132.499" x2="739.343" y2="185.026" gradientUnits="userSpaceOnUse"><stop stop-color="#9F8FFF"/><stop offset="1" stop-color="#7B68EE"/></linearGradient></defs></svg>