<svg width="827" height="727" fill="none" xmlns="http://www.w3.org/2000/svg"><g opacity=".1" fill="#000"><path d="M0 216.5a1.5 1.5 0 1 1-3 0 1.5 1.5 0 0 1 3 0zM20 216.5a1.5 1.5 0 1 1-3 0 1.5 1.5 0 0 1 3 0zM0 236.5a1.5 1.5 0 1 1-3 0 1.5 1.5 0 0 1 3 0zM20 236.5a1.5 1.5 0 1 1-3 0 1.5 1.5 0 0 1 3 0zM0 256.5a1.5 1.5 0 1 1-3 0 1.5 1.5 0 0 1 3 0zM20 256.5a1.5 1.5 0 1 1-3 0 1.5 1.5 0 0 1 3 0zM0 276.5a1.5 1.5 0 1 1-3 0 1.5 1.5 0 0 1 3 0zM20 276.5a1.5 1.5 0 1 1-3 0 1.5 1.5 0 0 1 3 0zM0 296.5a1.5 1.5 0 1 1-3 0 1.5 1.5 0 0 1 3 0zM20 296.5a1.5 1.5 0 1 1-3 0 1.5 1.5 0 0 1 3 0zM0 316.5a1.5 1.5 0 1 1-3 0 1.5 1.5 0 0 1 3 0zM20 316.5a1.5 1.5 0 1 1-3 0 1.5 1.5 0 0 1 3 0zM0 336.5a1.5 1.5 0 1 1-3 0 1.5 1.5 0 0 1 3 0zM20 336.5a1.5 1.5 0 1 1-3 0 1.5 1.5 0 0 1 3 0zM0 356.5a1.5 1.5 0 1 1-3 0 1.5 1.5 0 0 1 3 0zM20 356.5a1.5 1.5 0 1 1-3 0 1.5 1.5 0 0 1 3 0zM0 376.5a1.5 1.5 0 1 1-3 0 1.5 1.5 0 0 1 3 0zM20 376.5a1.5 1.5 0 1 1-3 0 1.5 1.5 0 0 1 3 0zM0 396.5a1.5 1.5 0 1 1-3 0 1.5 1.5 0 0 1 3 0zM20 396.5a1.5 1.5 0 1 1-3 0 1.5 1.5 0 0 1 3 0zM0 416.5a1.5 1.5 0 1 1-3 0 1.5 1.5 0 0 1 3 0zM20 416.5a1.5 1.5 0 1 1-3 0 1.5 1.5 0 0 1 3 0zM0 436.5a1.5 1.5 0 1 1-3 0 1.5 1.5 0 0 1 3 0zM20 436.5a1.5 1.5 0 1 1-3 0 1.5 1.5 0 0 1 3 0zM40 216.5a1.5 1.5 0 1 1-3 0 1.5 1.5 0 0 1 3 0zM60 216.5a1.5 1.5 0 1 1-3 0 1.5 1.5 0 0 1 3 0zM80 216.5a1.5 1.5 0 1 1-3 0 1.5 1.5 0 0 1 3 0zM100 216.5a1.5 1.5 0 1 1-3 0 1.5 1.5 0 0 1 3 0zM120 216.5a1.5 1.5 0 1 1-3.001-.001 1.5 1.5 0 0 1 3.001.001zM140 216.5a1.5 1.5 0 1 1-3.001-.001 1.5 1.5 0 0 1 3.001.001zM160 216.5a1.5 1.5 0 1 1-3.001-.001 1.5 1.5 0 0 1 3.001.001zM180 216.5a1.5 1.5 0 1 1-3.001-.001 1.5 1.5 0 0 1 3.001.001zM200 216.5a1.5 1.5 0 1 1-3.001-.001 1.5 1.5 0 0 1 3.001.001zM220 216.5a1.5 1.5 0 1 1-3.001-.001 1.5 1.5 0 0 1 3.001.001zM240 216.5a1.5 1.5 0 1 1-3.001-.001 1.5 1.5 0 0 1 3.001.001zM260 216.5a1.5 1.5 0 1 1-3.001-.001 1.5 1.5 0 0 1 3.001.001zM280 216.5a1.5 1.5 0 1 1-3.001-.001 1.5 1.5 0 0 1 3.001.001zM300 216.5a1.5 1.5 0 1 1-3.001-.001 1.5 1.5 0 0 1 3.001.001zM320 216.5a1.5 1.5 0 1 1-3.001-.001 1.5 1.5 0 0 1 3.001.001zM40 236.5a1.5 1.5 0 1 1-3 0 1.5 1.5 0 0 1 3 0zM60 236.5a1.5 1.5 0 1 1-3 0 1.5 1.5 0 0 1 3 0zM80 236.5a1.5 1.5 0 1 1-3 0 1.5 1.5 0 0 1 3 0zM100 236.5a1.5 1.5 0 1 1-3 0 1.5 1.5 0 0 1 3 0zM120 236.5a1.5 1.5 0 1 1-3.001-.001 1.5 1.5 0 0 1 3.001.001zM140 236.5a1.5 1.5 0 1 1-3.001-.001 1.5 1.5 0 0 1 3.001.001zM160 236.5a1.5 1.5 0 1 1-3.001-.001 1.5 1.5 0 0 1 3.001.001zM180 236.5a1.5 1.5 0 1 1-3.001-.001 1.5 1.5 0 0 1 3.001.001zM200 236.5a1.5 1.5 0 1 1-3.001-.001 1.5 1.5 0 0 1 3.001.001zM220 236.5a1.5 1.5 0 1 1-3.001-.001 1.5 1.5 0 0 1 3.001.001zM240 236.5a1.5 1.5 0 1 1-3.001-.001 1.5 1.5 0 0 1 3.001.001zM260 236.5a1.5 1.5 0 1 1-3.001-.001 1.5 1.5 0 0 1 3.001.001zM280 236.5a1.5 1.5 0 1 1-3.001-.001 1.5 1.5 0 0 1 3.001.001zM300 236.5a1.5 1.5 0 1 1-3.001-.001 1.5 1.5 0 0 1 3.001.001zM320 236.5a1.5 1.5 0 1 1-3.001-.001 1.5 1.5 0 0 1 3.001.001zM40 256.5a1.5 1.5 0 1 1-3 0 1.5 1.5 0 0 1 3 0zM60 256.5a1.5 1.5 0 1 1-3 0 1.5 1.5 0 0 1 3 0zM80 256.5a1.5 1.5 0 1 1-3 0 1.5 1.5 0 0 1 3 0zM100 256.5a1.5 1.5 0 1 1-3 0 1.5 1.5 0 0 1 3 0zM120 256.5a1.5 1.5 0 1 1-3.001-.001 1.5 1.5 0 0 1 3.001.001zM140 256.5a1.5 1.5 0 1 1-3.001-.001 1.5 1.5 0 0 1 3.001.001zM160 256.5a1.5 1.5 0 1 1-3.001-.001 1.5 1.5 0 0 1 3.001.001zM180 256.5a1.5 1.5 0 1 1-3.001-.001 1.5 1.5 0 0 1 3.001.001zM200 256.5a1.5 1.5 0 1 1-3.001-.001 1.5 1.5 0 0 1 3.001.001zM220 256.5a1.5 1.5 0 1 1-3.001-.001 1.5 1.5 0 0 1 3.001.001zM240 256.5a1.5 1.5 0 1 1-3.001-.001 1.5 1.5 0 0 1 3.001.001zM260 256.5a1.5 1.5 0 1 1-3.001-.001 1.5 1.5 0 0 1 3.001.001zM280 256.5a1.5 1.5 0 1 1-3.001-.001 1.5 1.5 0 0 1 3.001.001zM300 256.5a1.5 1.5 0 1 1-3.001-.001 1.5 1.5 0 0 1 3.001.001zM320 256.5a1.5 1.5 0 1 1-3.001-.001 1.5 1.5 0 0 1 3.001.001zM40 276.5a1.5 1.5 0 1 1-3 0 1.5 1.5 0 0 1 3 0zM60 276.5a1.5 1.5 0 1 1-3 0 1.5 1.5 0 0 1 3 0zM80 276.5a1.5 1.5 0 1 1-3 0 1.5 1.5 0 0 1 3 0zM100 276.5a1.5 1.5 0 1 1-3 0 1.5 1.5 0 0 1 3 0zM120 276.5a1.5 1.5 0 1 1-3.001-.001 1.5 1.5 0 0 1 3.001.001zM140 276.5a1.5 1.5 0 1 1-3.001-.001 1.5 1.5 0 0 1 3.001.001zM160 276.5a1.5 1.5 0 1 1-3.001-.001 1.5 1.5 0 0 1 3.001.001zM180 276.5a1.5 1.5 0 1 1-3.001-.001 1.5 1.5 0 0 1 3.001.001zM200 276.5a1.5 1.5 0 1 1-3.001-.001 1.5 1.5 0 0 1 3.001.001zM220 276.5a1.5 1.5 0 1 1-3.001-.001 1.5 1.5 0 0 1 3.001.001zM240 276.5a1.5 1.5 0 1 1-3.001-.001 1.5 1.5 0 0 1 3.001.001zM260 276.5a1.5 1.5 0 1 1-3.001-.001 1.5 1.5 0 0 1 3.001.001zM280 276.5a1.5 1.5 0 1 1-3.001-.001 1.5 1.5 0 0 1 3.001.001zM300 276.5a1.5 1.5 0 1 1-3.001-.001 1.5 1.5 0 0 1 3.001.001zM320 276.5a1.5 1.5 0 1 1-3.001-.001 1.5 1.5 0 0 1 3.001.001zM40 296.5a1.5 1.5 0 1 1-3 0 1.5 1.5 0 0 1 3 0zM60 296.5a1.5 1.5 0 1 1-3 0 1.5 1.5 0 0 1 3 0zM80 296.5a1.5 1.5 0 1 1-3 0 1.5 1.5 0 0 1 3 0zM100 296.5a1.5 1.5 0 1 1-3 0 1.5 1.5 0 0 1 3 0zM120 296.5a1.5 1.5 0 1 1-3.001-.001 1.5 1.5 0 0 1 3.001.001zM140 296.5a1.5 1.5 0 1 1-3.001-.001 1.5 1.5 0 0 1 3.001.001zM160 296.5a1.5 1.5 0 1 1-3.001-.001 1.5 1.5 0 0 1 3.001.001zM180 296.5a1.5 1.5 0 1 1-3.001-.001 1.5 1.5 0 0 1 3.001.001zM200 296.5a1.5 1.5 0 1 1-3.001-.001 1.5 1.5 0 0 1 3.001.001zM220 296.5a1.5 1.5 0 1 1-3.001-.001 1.5 1.5 0 0 1 3.001.001zM240 296.5a1.5 1.5 0 1 1-3.001-.001 1.5 1.5 0 0 1 3.001.001zM260 296.5a1.5 1.5 0 1 1-3.001-.001 1.5 1.5 0 0 1 3.001.001zM280 296.5a1.5 1.5 0 1 1-3.001-.001 1.5 1.5 0 0 1 3.001.001zM300 296.5a1.5 1.5 0 1 1-3.001-.001 1.5 1.5 0 0 1 3.001.001zM320 296.5a1.5 1.5 0 1 1-3.001-.001 1.5 1.5 0 0 1 3.001.001zM40 316.5a1.5 1.5 0 1 1-3 0 1.5 1.5 0 0 1 3 0zM60 316.5a1.5 1.5 0 1 1-3 0 1.5 1.5 0 0 1 3 0zM80 316.5a1.5 1.5 0 1 1-3 0 1.5 1.5 0 0 1 3 0zM100 316.5a1.5 1.5 0 1 1-3 0 1.5 1.5 0 0 1 3 0zM120 316.5a1.5 1.5 0 1 1-3.001-.001 1.5 1.5 0 0 1 3.001.001zM140 316.5a1.5 1.5 0 1 1-3.001-.001 1.5 1.5 0 0 1 3.001.001zM160 316.5a1.5 1.5 0 1 1-3.001-.001 1.5 1.5 0 0 1 3.001.001zM180 316.5a1.5 1.5 0 1 1-3.001-.001 1.5 1.5 0 0 1 3.001.001zM200 316.5a1.5 1.5 0 1 1-3.001-.001 1.5 1.5 0 0 1 3.001.001zM220 316.5a1.5 1.5 0 1 1-3.001-.001 1.5 1.5 0 0 1 3.001.001zM240 316.5a1.5 1.5 0 1 1-3.001-.001 1.5 1.5 0 0 1 3.001.001zM260 316.5a1.5 1.5 0 1 1-3.001-.001 1.5 1.5 0 0 1 3.001.001zM280 316.5a1.5 1.5 0 1 1-3.001-.001 1.5 1.5 0 0 1 3.001.001zM300 316.5a1.5 1.5 0 1 1-3.001-.001 1.5 1.5 0 0 1 3.001.001zM320 316.5a1.5 1.5 0 1 1-3.001-.001 1.5 1.5 0 0 1 3.001.001zM40 336.5a1.5 1.5 0 1 1-3 0 1.5 1.5 0 0 1 3 0zM60 336.5a1.5 1.5 0 1 1-3 0 1.5 1.5 0 0 1 3 0zM80 336.5a1.5 1.5 0 1 1-3 0 1.5 1.5 0 0 1 3 0zM100 336.5a1.5 1.5 0 1 1-3 0 1.5 1.5 0 0 1 3 0zM120 336.5a1.5 1.5 0 1 1-3.001-.001 1.5 1.5 0 0 1 3.001.001zM140 336.5a1.5 1.5 0 1 1-3.001-.001 1.5 1.5 0 0 1 3.001.001zM160 336.5a1.5 1.5 0 1 1-3.001-.001 1.5 1.5 0 0 1 3.001.001zM180 336.5a1.5 1.5 0 1 1-3.001-.001 1.5 1.5 0 0 1 3.001.001zM200 336.5a1.5 1.5 0 1 1-3.001-.001 1.5 1.5 0 0 1 3.001.001zM220 336.5a1.5 1.5 0 1 1-3.001-.001 1.5 1.5 0 0 1 3.001.001zM240 336.5a1.5 1.5 0 1 1-3.001-.001 1.5 1.5 0 0 1 3.001.001zM260 336.5a1.5 1.5 0 1 1-3.001-.001 1.5 1.5 0 0 1 3.001.001zM280 336.5a1.5 1.5 0 1 1-3.001-.001 1.5 1.5 0 0 1 3.001.001zM300 336.5a1.5 1.5 0 1 1-3.001-.001 1.5 1.5 0 0 1 3.001.001zM320 336.5a1.5 1.5 0 1 1-3.001-.001 1.5 1.5 0 0 1 3.001.001zM40 356.5a1.5 1.5 0 1 1-3 0 1.5 1.5 0 0 1 3 0zM60 356.5a1.5 1.5 0 1 1-3 0 1.5 1.5 0 0 1 3 0zM80 356.5a1.5 1.5 0 1 1-3 0 1.5 1.5 0 0 1 3 0zM100 356.5a1.5 1.5 0 1 1-3 0 1.5 1.5 0 0 1 3 0zM120 356.5a1.5 1.5 0 1 1-3.001-.001 1.5 1.5 0 0 1 3.001.001zM140 356.5a1.5 1.5 0 1 1-3.001-.001 1.5 1.5 0 0 1 3.001.001zM160 356.5a1.5 1.5 0 1 1-3.001-.001 1.5 1.5 0 0 1 3.001.001zM180 356.5a1.5 1.5 0 1 1-3.001-.001 1.5 1.5 0 0 1 3.001.001zM200 356.5a1.5 1.5 0 1 1-3.001-.001 1.5 1.5 0 0 1 3.001.001zM220 356.5a1.5 1.5 0 1 1-3.001-.001 1.5 1.5 0 0 1 3.001.001zM240 356.5a1.5 1.5 0 1 1-3.001-.001 1.5 1.5 0 0 1 3.001.001zM260 356.5a1.5 1.5 0 1 1-3.001-.001 1.5 1.5 0 0 1 3.001.001zM280 356.5a1.5 1.5 0 1 1-3.001-.001 1.5 1.5 0 0 1 3.001.001zM300 356.5a1.5 1.5 0 1 1-3.001-.001 1.5 1.5 0 0 1 3.001.001zM320 356.5a1.5 1.5 0 1 1-3.001-.001 1.5 1.5 0 0 1 3.001.001zM40 376.5a1.5 1.5 0 1 1-3 0 1.5 1.5 0 0 1 3 0zM60 376.5a1.5 1.5 0 1 1-3 0 1.5 1.5 0 0 1 3 0zM80 376.5a1.5 1.5 0 1 1-3 0 1.5 1.5 0 0 1 3 0zM100 376.5a1.5 1.5 0 1 1-3 0 1.5 1.5 0 0 1 3 0zM120 376.5a1.5 1.5 0 1 1-3.001-.001 1.5 1.5 0 0 1 3.001.001zM140 376.5a1.5 1.5 0 1 1-3.001-.001 1.5 1.5 0 0 1 3.001.001zM160 376.5a1.5 1.5 0 1 1-3.001-.001 1.5 1.5 0 0 1 3.001.001zM180 376.5a1.5 1.5 0 1 1-3.001-.001 1.5 1.5 0 0 1 3.001.001zM200 376.5a1.5 1.5 0 1 1-3.001-.001 1.5 1.5 0 0 1 3.001.001zM220 376.5a1.5 1.5 0 1 1-3.001-.001 1.5 1.5 0 0 1 3.001.001zM240 376.5a1.5 1.5 0 1 1-3.001-.001 1.5 1.5 0 0 1 3.001.001zM260 376.5a1.5 1.5 0 1 1-3.001-.001 1.5 1.5 0 0 1 3.001.001zM280 376.5a1.5 1.5 0 1 1-3.001-.001 1.5 1.5 0 0 1 3.001.001zM300 376.5a1.5 1.5 0 1 1-3.001-.001 1.5 1.5 0 0 1 3.001.001zM320 376.5a1.5 1.5 0 1 1-3.001-.001 1.5 1.5 0 0 1 3.001.001zM40 396.5a1.5 1.5 0 1 1-3 0 1.5 1.5 0 0 1 3 0zM60 396.5a1.5 1.5 0 1 1-3 0 1.5 1.5 0 0 1 3 0zM80 396.5a1.5 1.5 0 1 1-3 0 1.5 1.5 0 0 1 3 0zM100 396.5a1.5 1.5 0 1 1-3 0 1.5 1.5 0 0 1 3 0zM120 396.5a1.5 1.5 0 1 1-3.001-.001 1.5 1.5 0 0 1 3.001.001zM140 396.5a1.5 1.5 0 1 1-3.001-.001 1.5 1.5 0 0 1 3.001.001zM160 396.5a1.5 1.5 0 1 1-3.001-.001 1.5 1.5 0 0 1 3.001.001zM180 396.5a1.5 1.5 0 1 1-3.001-.001 1.5 1.5 0 0 1 3.001.001zM200 396.5a1.5 1.5 0 1 1-3.001-.001 1.5 1.5 0 0 1 3.001.001zM220 396.5a1.5 1.5 0 1 1-3.001-.001 1.5 1.5 0 0 1 3.001.001zM240 396.5a1.5 1.5 0 1 1-3.001-.001 1.5 1.5 0 0 1 3.001.001zM260 396.5a1.5 1.5 0 1 1-3.001-.001 1.5 1.5 0 0 1 3.001.001zM280 396.5a1.5 1.5 0 1 1-3.001-.001 1.5 1.5 0 0 1 3.001.001zM300 396.5a1.5 1.5 0 1 1-3.001-.001 1.5 1.5 0 0 1 3.001.001zM320 396.5a1.5 1.5 0 1 1-3.001-.001 1.5 1.5 0 0 1 3.001.001zM40 416.5a1.5 1.5 0 1 1-3 0 1.5 1.5 0 0 1 3 0zM60 416.5a1.5 1.5 0 1 1-3 0 1.5 1.5 0 0 1 3 0zM80 416.5a1.5 1.5 0 1 1-3 0 1.5 1.5 0 0 1 3 0zM100 416.5a1.5 1.5 0 1 1-3 0 1.5 1.5 0 0 1 3 0zM120 416.5a1.5 1.5 0 1 1-3.001-.001 1.5 1.5 0 0 1 3.001.001zM140 416.5a1.5 1.5 0 1 1-3.001-.001 1.5 1.5 0 0 1 3.001.001zM160 416.5a1.5 1.5 0 1 1-3.001-.001 1.5 1.5 0 0 1 3.001.001zM180 416.5a1.5 1.5 0 1 1-3.001-.001 1.5 1.5 0 0 1 3.001.001zM200 416.5a1.5 1.5 0 1 1-3.001-.001 1.5 1.5 0 0 1 3.001.001zM220 416.5a1.5 1.5 0 1 1-3.001-.001 1.5 1.5 0 0 1 3.001.001zM240 416.5a1.5 1.5 0 1 1-3.001-.001 1.5 1.5 0 0 1 3.001.001zM260 416.5a1.5 1.5 0 1 1-3.001-.001 1.5 1.5 0 0 1 3.001.001zM280 416.5a1.5 1.5 0 1 1-3.001-.001 1.5 1.5 0 0 1 3.001.001zM300 416.5a1.5 1.5 0 1 1-3.001-.001 1.5 1.5 0 0 1 3.001.001zM320 416.5a1.5 1.5 0 1 1-3.001-.001 1.5 1.5 0 0 1 3.001.001zM40 436.5a1.5 1.5 0 1 1-3 0 1.5 1.5 0 0 1 3 0zM60 436.5a1.5 1.5 0 1 1-3 0 1.5 1.5 0 0 1 3 0zM80 436.5a1.5 1.5 0 1 1-3 0 1.5 1.5 0 0 1 3 0zM100 436.5a1.5 1.5 0 1 1-3 0 1.5 1.5 0 0 1 3 0zM120 436.5a1.5 1.5 0 1 1-3.001-.001 1.5 1.5 0 0 1 3.001.001zM140 436.5a1.5 1.5 0 1 1-3.001-.001 1.5 1.5 0 0 1 3.001.001zM160 436.5a1.5 1.5 0 1 1-3.001-.001 1.5 1.5 0 0 1 3.001.001zM180 436.5a1.5 1.5 0 1 1-3.001-.001 1.5 1.5 0 0 1 3.001.001zM200 436.5a1.5 1.5 0 1 1-3.001-.001 1.5 1.5 0 0 1 3.001.001zM220 436.5a1.5 1.5 0 1 1-3.001-.001 1.5 1.5 0 0 1 3.001.001zM240 436.5a1.5 1.5 0 1 1-3.001-.001 1.5 1.5 0 0 1 3.001.001zM260 436.5a1.5 1.5 0 1 1-3.001-.001 1.5 1.5 0 0 1 3.001.001zM280 436.5a1.5 1.5 0 1 1-3.001-.001 1.5 1.5 0 0 1 3.001.001zM300 436.5a1.5 1.5 0 1 1-3.001-.001 1.5 1.5 0 0 1 3.001.001zM320 436.5a1.5 1.5 0 1 1-3.001-.001 1.5 1.5 0 0 1 3.001.001zM340 216.5a1.5 1.5 0 1 1-3.001-.001 1.5 1.5 0 0 1 3.001.001zM360 216.5a1.5 1.5 0 1 1-3.001-.001 1.5 1.5 0 0 1 3.001.001zM380 216.5a1.5 1.5 0 1 1-3.001-.001 1.5 1.5 0 0 1 3.001.001zM400 216.5a1.5 1.5 0 1 1-3.001-.001 1.5 1.5 0 0 1 3.001.001zM420 216.5a1.5 1.5 0 1 1-3.001-.001 1.5 1.5 0 0 1 3.001.001zM440 216.5a1.5 1.5 0 1 1-3.001-.001 1.5 1.5 0 0 1 3.001.001zM460 216.5a1.5 1.5 0 1 1-3.001-.001 1.5 1.5 0 0 1 3.001.001zM480 216.5a1.5 1.5 0 1 1-3.001-.001 1.5 1.5 0 0 1 3.001.001zM500 216.5a1.5 1.5 0 1 1-3.001-.001 1.5 1.5 0 0 1 3.001.001zM520 216.5a1.5 1.5 0 1 1-3.001-.001 1.5 1.5 0 0 1 3.001.001zM540 216.5a1.5 1.5 0 1 1-3.001-.001 1.5 1.5 0 0 1 3.001.001zM560 216.5a1.5 1.5 0 1 1-3.001-.001 1.5 1.5 0 0 1 3.001.001zM580 216.5a1.5 1.5 0 1 1-3.001-.001 1.5 1.5 0 0 1 3.001.001zM600 216.5a1.5 1.5 0 1 1-3.001-.001 1.5 1.5 0 0 1 3.001.001zM620 216.5a1.5 1.5 0 1 1-3.001-.001 1.5 1.5 0 0 1 3.001.001zM340 236.5a1.5 1.5 0 1 1-3.001-.001 1.5 1.5 0 0 1 3.001.001zM360 236.5a1.5 1.5 0 1 1-3.001-.001 1.5 1.5 0 0 1 3.001.001zM380 236.5a1.5 1.5 0 1 1-3.001-.001 1.5 1.5 0 0 1 3.001.001zM400 236.5a1.5 1.5 0 1 1-3.001-.001 1.5 1.5 0 0 1 3.001.001zM420 236.5a1.5 1.5 0 1 1-3.001-.001 1.5 1.5 0 0 1 3.001.001zM440 236.5a1.5 1.5 0 1 1-3.001-.001 1.5 1.5 0 0 1 3.001.001zM460 236.5a1.5 1.5 0 1 1-3.001-.001 1.5 1.5 0 0 1 3.001.001zM480 236.5a1.5 1.5 0 1 1-3.001-.001 1.5 1.5 0 0 1 3.001.001zM500 236.5a1.5 1.5 0 1 1-3.001-.001 1.5 1.5 0 0 1 3.001.001zM520 236.5a1.5 1.5 0 1 1-3.001-.001 1.5 1.5 0 0 1 3.001.001zM540 236.5a1.5 1.5 0 1 1-3.001-.001 1.5 1.5 0 0 1 3.001.001zM560 236.5a1.5 1.5 0 1 1-3.001-.001 1.5 1.5 0 0 1 3.001.001zM580 236.5a1.5 1.5 0 1 1-3.001-.001 1.5 1.5 0 0 1 3.001.001zM600 236.5a1.5 1.5 0 1 1-3.001-.001 1.5 1.5 0 0 1 3.001.001zM620 236.5a1.5 1.5 0 1 1-3.001-.001 1.5 1.5 0 0 1 3.001.001zM340 256.5a1.5 1.5 0 1 1-3.001-.001 1.5 1.5 0 0 1 3.001.001zM360 256.5a1.5 1.5 0 1 1-3.001-.001 1.5 1.5 0 0 1 3.001.001zM380 256.5a1.5 1.5 0 1 1-3.001-.001 1.5 1.5 0 0 1 3.001.001zM400 256.5a1.5 1.5 0 1 1-3.001-.001 1.5 1.5 0 0 1 3.001.001zM420 256.5a1.5 1.5 0 1 1-3.001-.001 1.5 1.5 0 0 1 3.001.001zM440 256.5a1.5 1.5 0 1 1-3.001-.001 1.5 1.5 0 0 1 3.001.001zM460 256.5a1.5 1.5 0 1 1-3.001-.001 1.5 1.5 0 0 1 3.001.001zM480 256.5a1.5 1.5 0 1 1-3.001-.001 1.5 1.5 0 0 1 3.001.001zM500 256.5a1.5 1.5 0 1 1-3.001-.001 1.5 1.5 0 0 1 3.001.001zM520 256.5a1.5 1.5 0 1 1-3.001-.001 1.5 1.5 0 0 1 3.001.001zM540 256.5a1.5 1.5 0 1 1-3.001-.001 1.5 1.5 0 0 1 3.001.001zM560 256.5a1.5 1.5 0 1 1-3.001-.001 1.5 1.5 0 0 1 3.001.001zM580 256.5a1.5 1.5 0 1 1-3.001-.001 1.5 1.5 0 0 1 3.001.001zM600 256.5a1.5 1.5 0 1 1-3.001-.001 1.5 1.5 0 0 1 3.001.001zM620 256.5a1.5 1.5 0 1 1-3.001-.001 1.5 1.5 0 0 1 3.001.001zM340 276.5a1.5 1.5 0 1 1-3.001-.001 1.5 1.5 0 0 1 3.001.001zM360 276.5a1.5 1.5 0 1 1-3.001-.001 1.5 1.5 0 0 1 3.001.001zM380 276.5a1.5 1.5 0 1 1-3.001-.001 1.5 1.5 0 0 1 3.001.001zM400 276.5a1.5 1.5 0 1 1-3.001-.001 1.5 1.5 0 0 1 3.001.001zM420 276.5a1.5 1.5 0 1 1-3.001-.001 1.5 1.5 0 0 1 3.001.001zM440 276.5a1.5 1.5 0 1 1-3.001-.001 1.5 1.5 0 0 1 3.001.001zM460 276.5a1.5 1.5 0 1 1-3.001-.001 1.5 1.5 0 0 1 3.001.001zM480 276.5a1.5 1.5 0 1 1-3.001-.001 1.5 1.5 0 0 1 3.001.001zM500 276.5a1.5 1.5 0 1 1-3.001-.001 1.5 1.5 0 0 1 3.001.001zM520 276.5a1.5 1.5 0 1 1-3.001-.001 1.5 1.5 0 0 1 3.001.001zM540 276.5a1.5 1.5 0 1 1-3.001-.001 1.5 1.5 0 0 1 3.001.001zM560 276.5a1.5 1.5 0 1 1-3.001-.001 1.5 1.5 0 0 1 3.001.001zM580 276.5a1.5 1.5 0 1 1-3.001-.001 1.5 1.5 0 0 1 3.001.001zM600 276.5a1.5 1.5 0 1 1-3.001-.001 1.5 1.5 0 0 1 3.001.001zM620 276.5a1.5 1.5 0 1 1-3.001-.001 1.5 1.5 0 0 1 3.001.001zM340 296.5a1.5 1.5 0 1 1-3.001-.001 1.5 1.5 0 0 1 3.001.001zM360 296.5a1.5 1.5 0 1 1-3.001-.001 1.5 1.5 0 0 1 3.001.001zM380 296.5a1.5 1.5 0 1 1-3.001-.001 1.5 1.5 0 0 1 3.001.001zM400 296.5a1.5 1.5 0 1 1-3.001-.001 1.5 1.5 0 0 1 3.001.001zM420 296.5a1.5 1.5 0 1 1-3.001-.001 1.5 1.5 0 0 1 3.001.001zM440 296.5a1.5 1.5 0 1 1-3.001-.001 1.5 1.5 0 0 1 3.001.001zM460 296.5a1.5 1.5 0 1 1-3.001-.001 1.5 1.5 0 0 1 3.001.001zM480 296.5a1.5 1.5 0 1 1-3.001-.001 1.5 1.5 0 0 1 3.001.001zM500 296.5a1.5 1.5 0 1 1-3.001-.001 1.5 1.5 0 0 1 3.001.001zM520 296.5a1.5 1.5 0 1 1-3.001-.001 1.5 1.5 0 0 1 3.001.001zM540 296.5a1.5 1.5 0 1 1-3.001-.001 1.5 1.5 0 0 1 3.001.001zM560 296.5a1.5 1.5 0 1 1-3.001-.001 1.5 1.5 0 0 1 3.001.001zM580 296.5a1.5 1.5 0 1 1-3.001-.001 1.5 1.5 0 0 1 3.001.001zM600 296.5a1.5 1.5 0 1 1-3.001-.001 1.5 1.5 0 0 1 3.001.001zM620 296.5a1.5 1.5 0 1 1-3.001-.001 1.5 1.5 0 0 1 3.001.001zM340 316.5a1.5 1.5 0 1 1-3.001-.001 1.5 1.5 0 0 1 3.001.001zM360 316.5a1.5 1.5 0 1 1-3.001-.001 1.5 1.5 0 0 1 3.001.001zM380 316.5a1.5 1.5 0 1 1-3.001-.001 1.5 1.5 0 0 1 3.001.001zM400 316.5a1.5 1.5 0 1 1-3.001-.001 1.5 1.5 0 0 1 3.001.001zM420 316.5a1.5 1.5 0 1 1-3.001-.001 1.5 1.5 0 0 1 3.001.001zM440 316.5a1.5 1.5 0 1 1-3.001-.001 1.5 1.5 0 0 1 3.001.001zM460 316.5a1.5 1.5 0 1 1-3.001-.001 1.5 1.5 0 0 1 3.001.001zM480 316.5a1.5 1.5 0 1 1-3.001-.001 1.5 1.5 0 0 1 3.001.001zM500 316.5a1.5 1.5 0 1 1-3.001-.001 1.5 1.5 0 0 1 3.001.001zM520 316.5a1.5 1.5 0 1 1-3.001-.001 1.5 1.5 0 0 1 3.001.001zM540 316.5a1.5 1.5 0 1 1-3.001-.001 1.5 1.5 0 0 1 3.001.001zM560 316.5a1.5 1.5 0 1 1-3.001-.001 1.5 1.5 0 0 1 3.001.001zM580 316.5a1.5 1.5 0 1 1-3.001-.001 1.5 1.5 0 0 1 3.001.001zM600 316.5a1.5 1.5 0 1 1-3.001-.001 1.5 1.5 0 0 1 3.001.001zM620 316.5a1.5 1.5 0 1 1-3.001-.001 1.5 1.5 0 0 1 3.001.001zM340 336.5a1.5 1.5 0 1 1-3.001-.001 1.5 1.5 0 0 1 3.001.001zM360 336.5a1.5 1.5 0 1 1-3.001-.001 1.5 1.5 0 0 1 3.001.001zM380 336.5a1.5 1.5 0 1 1-3.001-.001 1.5 1.5 0 0 1 3.001.001zM400 336.5a1.5 1.5 0 1 1-3.001-.001 1.5 1.5 0 0 1 3.001.001zM420 336.5a1.5 1.5 0 1 1-3.001-.001 1.5 1.5 0 0 1 3.001.001zM440 336.5a1.5 1.5 0 1 1-3.001-.001 1.5 1.5 0 0 1 3.001.001zM460 336.5a1.5 1.5 0 1 1-3.001-.001 1.5 1.5 0 0 1 3.001.001zM480 336.5a1.5 1.5 0 1 1-3.001-.001 1.5 1.5 0 0 1 3.001.001zM500 336.5a1.5 1.5 0 1 1-3.001-.001 1.5 1.5 0 0 1 3.001.001zM520 336.5a1.5 1.5 0 1 1-3.001-.001 1.5 1.5 0 0 1 3.001.001zM540 336.5a1.5 1.5 0 1 1-3.001-.001 1.5 1.5 0 0 1 3.001.001zM560 336.5a1.5 1.5 0 1 1-3.001-.001 1.5 1.5 0 0 1 3.001.001zM580 336.5a1.5 1.5 0 1 1-3.001-.001 1.5 1.5 0 0 1 3.001.001zM600 336.5a1.5 1.5 0 1 1-3.001-.001 1.5 1.5 0 0 1 3.001.001zM620 336.5a1.5 1.5 0 1 1-3.001-.001 1.5 1.5 0 0 1 3.001.001zM340 356.5a1.5 1.5 0 1 1-3.001-.001 1.5 1.5 0 0 1 3.001.001zM360 356.5a1.5 1.5 0 1 1-3.001-.001 1.5 1.5 0 0 1 3.001.001zM380 356.5a1.5 1.5 0 1 1-3.001-.001 1.5 1.5 0 0 1 3.001.001zM400 356.5a1.5 1.5 0 1 1-3.001-.001 1.5 1.5 0 0 1 3.001.001zM420 356.5a1.5 1.5 0 1 1-3.001-.001 1.5 1.5 0 0 1 3.001.001zM440 356.5a1.5 1.5 0 1 1-3.001-.001 1.5 1.5 0 0 1 3.001.001zM460 356.5a1.5 1.5 0 1 1-3.001-.001 1.5 1.5 0 0 1 3.001.001zM480 356.5a1.5 1.5 0 1 1-3.001-.001 1.5 1.5 0 0 1 3.001.001zM500 356.5a1.5 1.5 0 1 1-3.001-.001 1.5 1.5 0 0 1 3.001.001zM520 356.5a1.5 1.5 0 1 1-3.001-.001 1.5 1.5 0 0 1 3.001.001zM540 356.5a1.5 1.5 0 1 1-3.001-.001 1.5 1.5 0 0 1 3.001.001zM560 356.5a1.5 1.5 0 1 1-3.001-.001 1.5 1.5 0 0 1 3.001.001zM580 356.5a1.5 1.5 0 1 1-3.001-.001 1.5 1.5 0 0 1 3.001.001zM600 356.5a1.5 1.5 0 1 1-3.001-.001 1.5 1.5 0 0 1 3.001.001zM620 356.5a1.5 1.5 0 1 1-3.001-.001 1.5 1.5 0 0 1 3.001.001zM340 376.5a1.5 1.5 0 1 1-3.001-.001 1.5 1.5 0 0 1 3.001.001zM360 376.5a1.5 1.5 0 1 1-3.001-.001 1.5 1.5 0 0 1 3.001.001zM380 376.5a1.5 1.5 0 1 1-3.001-.001 1.5 1.5 0 0 1 3.001.001zM400 376.5a1.5 1.5 0 1 1-3.001-.001 1.5 1.5 0 0 1 3.001.001zM420 376.5a1.5 1.5 0 1 1-3.001-.001 1.5 1.5 0 0 1 3.001.001zM440 376.5a1.5 1.5 0 1 1-3.001-.001 1.5 1.5 0 0 1 3.001.001zM460 376.5a1.5 1.5 0 1 1-3.001-.001 1.5 1.5 0 0 1 3.001.001zM480 376.5a1.5 1.5 0 1 1-3.001-.001 1.5 1.5 0 0 1 3.001.001zM500 376.5a1.5 1.5 0 1 1-3.001-.001 1.5 1.5 0 0 1 3.001.001zM520 376.5a1.5 1.5 0 1 1-3.001-.001 1.5 1.5 0 0 1 3.001.001zM540 376.5a1.5 1.5 0 1 1-3.001-.001 1.5 1.5 0 0 1 3.001.001zM560 376.5a1.5 1.5 0 1 1-3.001-.001 1.5 1.5 0 0 1 3.001.001zM580 376.5a1.5 1.5 0 1 1-3.001-.001 1.5 1.5 0 0 1 3.001.001zM600 376.5a1.5 1.5 0 1 1-3.001-.001 1.5 1.5 0 0 1 3.001.001zM620 376.5a1.5 1.5 0 1 1-3.001-.001 1.5 1.5 0 0 1 3.001.001zM340 396.5a1.5 1.5 0 1 1-3.001-.001 1.5 1.5 0 0 1 3.001.001zM360 396.5a1.5 1.5 0 1 1-3.001-.001 1.5 1.5 0 0 1 3.001.001zM380 396.5a1.5 1.5 0 1 1-3.001-.001 1.5 1.5 0 0 1 3.001.001zM400 396.5a1.5 1.5 0 1 1-3.001-.001 1.5 1.5 0 0 1 3.001.001zM420 396.5a1.5 1.5 0 1 1-3.001-.001 1.5 1.5 0 0 1 3.001.001zM440 396.5a1.5 1.5 0 1 1-3.001-.001 1.5 1.5 0 0 1 3.001.001zM460 396.5a1.5 1.5 0 1 1-3.001-.001 1.5 1.5 0 0 1 3.001.001zM480 396.5a1.5 1.5 0 1 1-3.001-.001 1.5 1.5 0 0 1 3.001.001zM500 396.5a1.5 1.5 0 1 1-3.001-.001 1.5 1.5 0 0 1 3.001.001zM520 396.5a1.5 1.5 0 1 1-3.001-.001 1.5 1.5 0 0 1 3.001.001zM540 396.5a1.5 1.5 0 1 1-3.001-.001 1.5 1.5 0 0 1 3.001.001zM560 396.5a1.5 1.5 0 1 1-3.001-.001 1.5 1.5 0 0 1 3.001.001zM580 396.5a1.5 1.5 0 1 1-3.001-.001 1.5 1.5 0 0 1 3.001.001zM600 396.5a1.5 1.5 0 1 1-3.001-.001 1.5 1.5 0 0 1 3.001.001zM620 396.5a1.5 1.5 0 1 1-3.001-.001 1.5 1.5 0 0 1 3.001.001zM340 416.5a1.5 1.5 0 1 1-3.001-.001 1.5 1.5 0 0 1 3.001.001zM360 416.5a1.5 1.5 0 1 1-3.001-.001 1.5 1.5 0 0 1 3.001.001zM380 416.5a1.5 1.5 0 1 1-3.001-.001 1.5 1.5 0 0 1 3.001.001zM400 416.5a1.5 1.5 0 1 1-3.001-.001 1.5 1.5 0 0 1 3.001.001zM420 416.5a1.5 1.5 0 1 1-3.001-.001 1.5 1.5 0 0 1 3.001.001zM440 416.5a1.5 1.5 0 1 1-3.001-.001 1.5 1.5 0 0 1 3.001.001zM460 416.5a1.5 1.5 0 1 1-3.001-.001 1.5 1.5 0 0 1 3.001.001zM480 416.5a1.5 1.5 0 1 1-3.001-.001 1.5 1.5 0 0 1 3.001.001zM500 416.5a1.5 1.5 0 1 1-3.001-.001 1.5 1.5 0 0 1 3.001.001zM520 416.5a1.5 1.5 0 1 1-3.001-.001 1.5 1.5 0 0 1 3.001.001zM540 416.5a1.5 1.5 0 1 1-3.001-.001 1.5 1.5 0 0 1 3.001.001zM560 416.5a1.5 1.5 0 1 1-3.001-.001 1.5 1.5 0 0 1 3.001.001zM580 416.5a1.5 1.5 0 1 1-3.001-.001 1.5 1.5 0 0 1 3.001.001zM600 416.5a1.5 1.5 0 1 1-3.001-.001 1.5 1.5 0 0 1 3.001.001zM620 416.5a1.5 1.5 0 1 1-3.001-.001 1.5 1.5 0 0 1 3.001.001zM340 436.5a1.5 1.5 0 1 1-3.001-.001 1.5 1.5 0 0 1 3.001.001zM360 436.5a1.5 1.5 0 1 1-3.001-.001 1.5 1.5 0 0 1 3.001.001zM380 436.5a1.5 1.5 0 1 1-3.001-.001 1.5 1.5 0 0 1 3.001.001zM400 436.5a1.5 1.5 0 1 1-3.001-.001 1.5 1.5 0 0 1 3.001.001zM420 436.5a1.5 1.5 0 1 1-3.001-.001 1.5 1.5 0 0 1 3.001.001zM440 436.5a1.5 1.5 0 1 1-3.001-.001 1.5 1.5 0 0 1 3.001.001zM460 436.5a1.5 1.5 0 1 1-3.001-.001 1.5 1.5 0 0 1 3.001.001zM480 436.5a1.5 1.5 0 1 1-3.001-.001 1.5 1.5 0 0 1 3.001.001zM500 436.5a1.5 1.5 0 1 1-3.001-.001 1.5 1.5 0 0 1 3.001.001zM520 436.5a1.5 1.5 0 1 1-3.001-.001 1.5 1.5 0 0 1 3.001.001zM540 436.5a1.5 1.5 0 1 1-3.001-.001 1.5 1.5 0 0 1 3.001.001zM560 436.5a1.5 1.5 0 1 1-3.001-.001 1.5 1.5 0 0 1 3.001.001zM580 436.5a1.5 1.5 0 1 1-3.001-.001 1.5 1.5 0 0 1 3.001.001zM600 436.5a1.5 1.5 0 1 1-3.001-.001 1.5 1.5 0 0 1 3.001.001zM620 436.5a1.5 1.5 0 1 1-3.001-.001 1.5 1.5 0 0 1 3.001.001zM640 216.5a1.5 1.5 0 1 1-3.001-.001 1.5 1.5 0 0 1 3.001.001zM660 216.5a1.5 1.5 0 1 1-3.001-.001 1.5 1.5 0 0 1 3.001.001zM680 216.5a1.5 1.5 0 1 1-3.001-.001 1.5 1.5 0 0 1 3.001.001zM700 216.5a1.5 1.5 0 1 1-3.001-.001 1.5 1.5 0 0 1 3.001.001zM720 216.5a1.5 1.5 0 1 1-3.001-.001 1.5 1.5 0 0 1 3.001.001zM740 216.5a1.5 1.5 0 1 1-3.001-.001 1.5 1.5 0 0 1 3.001.001zM760 216.5a1.5 1.5 0 1 1-3.001-.001 1.5 1.5 0 0 1 3.001.001zM780 216.5a1.5 1.5 0 1 1-3.001-.001 1.5 1.5 0 0 1 3.001.001zM800 216.5a1.5 1.5 0 1 1-3.001-.001 1.5 1.5 0 0 1 3.001.001zM640 236.5a1.5 1.5 0 1 1-3.001-.001 1.5 1.5 0 0 1 3.001.001zM660 236.5a1.5 1.5 0 1 1-3.001-.001 1.5 1.5 0 0 1 3.001.001zM680 236.5a1.5 1.5 0 1 1-3.001-.001 1.5 1.5 0 0 1 3.001.001zM700 236.5a1.5 1.5 0 1 1-3.001-.001 1.5 1.5 0 0 1 3.001.001zM720 236.5a1.5 1.5 0 1 1-3.001-.001 1.5 1.5 0 0 1 3.001.001zM740 236.5a1.5 1.5 0 1 1-3.001-.001 1.5 1.5 0 0 1 3.001.001zM760 236.5a1.5 1.5 0 1 1-3.001-.001 1.5 1.5 0 0 1 3.001.001zM780 236.5a1.5 1.5 0 1 1-3.001-.001 1.5 1.5 0 0 1 3.001.001zM800 236.5a1.5 1.5 0 1 1-3.001-.001 1.5 1.5 0 0 1 3.001.001zM640 256.5a1.5 1.5 0 1 1-3.001-.001 1.5 1.5 0 0 1 3.001.001zM660 256.5a1.5 1.5 0 1 1-3.001-.001 1.5 1.5 0 0 1 3.001.001zM680 256.5a1.5 1.5 0 1 1-3.001-.001 1.5 1.5 0 0 1 3.001.001zM700 256.5a1.5 1.5 0 1 1-3.001-.001 1.5 1.5 0 0 1 3.001.001zM720 256.5a1.5 1.5 0 1 1-3.001-.001 1.5 1.5 0 0 1 3.001.001zM740 256.5a1.5 1.5 0 1 1-3.001-.001 1.5 1.5 0 0 1 3.001.001zM760 256.5a1.5 1.5 0 1 1-3.001-.001 1.5 1.5 0 0 1 3.001.001zM780 256.5a1.5 1.5 0 1 1-3.001-.001 1.5 1.5 0 0 1 3.001.001zM800 256.5a1.5 1.5 0 1 1-3.001-.001 1.5 1.5 0 0 1 3.001.001zM640 276.5a1.5 1.5 0 1 1-3.001-.001 1.5 1.5 0 0 1 3.001.001zM660 276.5a1.5 1.5 0 1 1-3.001-.001 1.5 1.5 0 0 1 3.001.001zM680 276.5a1.5 1.5 0 1 1-3.001-.001 1.5 1.5 0 0 1 3.001.001zM700 276.5a1.5 1.5 0 1 1-3.001-.001 1.5 1.5 0 0 1 3.001.001zM720 276.5a1.5 1.5 0 1 1-3.001-.001 1.5 1.5 0 0 1 3.001.001zM740 276.5a1.5 1.5 0 1 1-3.001-.001 1.5 1.5 0 0 1 3.001.001zM760 276.5a1.5 1.5 0 1 1-3.001-.001 1.5 1.5 0 0 1 3.001.001zM780 276.5a1.5 1.5 0 1 1-3.001-.001 1.5 1.5 0 0 1 3.001.001zM800 276.5a1.5 1.5 0 1 1-3.001-.001 1.5 1.5 0 0 1 3.001.001zM640 296.5a1.5 1.5 0 1 1-3.001-.001 1.5 1.5 0 0 1 3.001.001zM660 296.5a1.5 1.5 0 1 1-3.001-.001 1.5 1.5 0 0 1 3.001.001zM680 296.5a1.5 1.5 0 1 1-3.001-.001 1.5 1.5 0 0 1 3.001.001zM700 296.5a1.5 1.5 0 1 1-3.001-.001 1.5 1.5 0 0 1 3.001.001zM720 296.5a1.5 1.5 0 1 1-3.001-.001 1.5 1.5 0 0 1 3.001.001zM740 296.5a1.5 1.5 0 1 1-3.001-.001 1.5 1.5 0 0 1 3.001.001zM760 296.5a1.5 1.5 0 1 1-3.001-.001 1.5 1.5 0 0 1 3.001.001zM780 296.5a1.5 1.5 0 1 1-3.001-.001 1.5 1.5 0 0 1 3.001.001zM800 296.5a1.5 1.5 0 1 1-3.001-.001 1.5 1.5 0 0 1 3.001.001zM640 316.5a1.5 1.5 0 1 1-3.001-.001 1.5 1.5 0 0 1 3.001.001zM660 316.5a1.5 1.5 0 1 1-3.001-.001 1.5 1.5 0 0 1 3.001.001zM680 316.5a1.5 1.5 0 1 1-3.001-.001 1.5 1.5 0 0 1 3.001.001zM700 316.5a1.5 1.5 0 1 1-3.001-.001 1.5 1.5 0 0 1 3.001.001zM720 316.5a1.5 1.5 0 1 1-3.001-.001 1.5 1.5 0 0 1 3.001.001zM740 316.5a1.5 1.5 0 1 1-3.001-.001 1.5 1.5 0 0 1 3.001.001zM760 316.5a1.5 1.5 0 1 1-3.001-.001 1.5 1.5 0 0 1 3.001.001zM780 316.5a1.5 1.5 0 1 1-3.001-.001 1.5 1.5 0 0 1 3.001.001zM800 316.5a1.5 1.5 0 1 1-3.001-.001 1.5 1.5 0 0 1 3.001.001zM640 336.5a1.5 1.5 0 1 1-3.001-.001 1.5 1.5 0 0 1 3.001.001zM660 336.5a1.5 1.5 0 1 1-3.001-.001 1.5 1.5 0 0 1 3.001.001zM680 336.5a1.5 1.5 0 1 1-3.001-.001 1.5 1.5 0 0 1 3.001.001zM700 336.5a1.5 1.5 0 1 1-3.001-.001 1.5 1.5 0 0 1 3.001.001zM720 336.5a1.5 1.5 0 1 1-3.001-.001 1.5 1.5 0 0 1 3.001.001zM740 336.5a1.5 1.5 0 1 1-3.001-.001 1.5 1.5 0 0 1 3.001.001zM760 336.5a1.5 1.5 0 1 1-3.001-.001 1.5 1.5 0 0 1 3.001.001zM780 336.5a1.5 1.5 0 1 1-3.001-.001 1.5 1.5 0 0 1 3.001.001zM800 336.5a1.5 1.5 0 1 1-3.001-.001 1.5 1.5 0 0 1 3.001.001zM640 356.5a1.5 1.5 0 1 1-3.001-.001 1.5 1.5 0 0 1 3.001.001zM660 356.5a1.5 1.5 0 1 1-3.001-.001 1.5 1.5 0 0 1 3.001.001zM680 356.5a1.5 1.5 0 1 1-3.001-.001 1.5 1.5 0 0 1 3.001.001zM700 356.5a1.5 1.5 0 1 1-3.001-.001 1.5 1.5 0 0 1 3.001.001zM720 356.5a1.5 1.5 0 1 1-3.001-.001 1.5 1.5 0 0 1 3.001.001zM740 356.5a1.5 1.5 0 1 1-3.001-.001 1.5 1.5 0 0 1 3.001.001zM760 356.5a1.5 1.5 0 1 1-3.001-.001 1.5 1.5 0 0 1 3.001.001zM780 356.5a1.5 1.5 0 1 1-3.001-.001 1.5 1.5 0 0 1 3.001.001zM800 356.5a1.5 1.5 0 1 1-3.001-.001 1.5 1.5 0 0 1 3.001.001zM640 376.5a1.5 1.5 0 1 1-3.001-.001 1.5 1.5 0 0 1 3.001.001zM660 376.5a1.5 1.5 0 1 1-3.001-.001 1.5 1.5 0 0 1 3.001.001zM680 376.5a1.5 1.5 0 1 1-3.001-.001 1.5 1.5 0 0 1 3.001.001zM700 376.5a1.5 1.5 0 1 1-3.001-.001 1.5 1.5 0 0 1 3.001.001zM720 376.5a1.5 1.5 0 1 1-3.001-.001 1.5 1.5 0 0 1 3.001.001zM740 376.5a1.5 1.5 0 1 1-3.001-.001 1.5 1.5 0 0 1 3.001.001zM760 376.5a1.5 1.5 0 1 1-3.001-.001 1.5 1.5 0 0 1 3.001.001zM780 376.5a1.5 1.5 0 1 1-3.001-.001 1.5 1.5 0 0 1 3.001.001zM800 376.5a1.5 1.5 0 1 1-3.001-.001 1.5 1.5 0 0 1 3.001.001zM640 396.5a1.5 1.5 0 1 1-3.001-.001 1.5 1.5 0 0 1 3.001.001zM660 396.5a1.5 1.5 0 1 1-3.001-.001 1.5 1.5 0 0 1 3.001.001zM680 396.5a1.5 1.5 0 1 1-3.001-.001 1.5 1.5 0 0 1 3.001.001zM700 396.5a1.5 1.5 0 1 1-3.001-.001 1.5 1.5 0 0 1 3.001.001zM720 396.5a1.5 1.5 0 1 1-3.001-.001 1.5 1.5 0 0 1 3.001.001zM740 396.5a1.5 1.5 0 1 1-3.001-.001 1.5 1.5 0 0 1 3.001.001zM760 396.5a1.5 1.5 0 1 1-3.001-.001 1.5 1.5 0 0 1 3.001.001zM780 396.5a1.5 1.5 0 1 1-3.001-.001 1.5 1.5 0 0 1 3.001.001zM800 396.5a1.5 1.5 0 1 1-3.001-.001 1.5 1.5 0 0 1 3.001.001zM640 416.5a1.5 1.5 0 1 1-3.001-.001 1.5 1.5 0 0 1 3.001.001zM660 416.5a1.5 1.5 0 1 1-3.001-.001 1.5 1.5 0 0 1 3.001.001zM680 416.5a1.5 1.5 0 1 1-3.001-.001 1.5 1.5 0 0 1 3.001.001zM700 416.5a1.5 1.5 0 1 1-3.001-.001 1.5 1.5 0 0 1 3.001.001zM720 416.5a1.5 1.5 0 1 1-3.001-.001 1.5 1.5 0 0 1 3.001.001zM740 416.5a1.5 1.5 0 1 1-3.001-.001 1.5 1.5 0 0 1 3.001.001zM760 416.5a1.5 1.5 0 1 1-3.001-.001 1.5 1.5 0 0 1 3.001.001zM780 416.5a1.5 1.5 0 1 1-3.001-.001 1.5 1.5 0 0 1 3.001.001zM800 416.5a1.5 1.5 0 1 1-3.001-.001 1.5 1.5 0 0 1 3.001.001zM640 436.5a1.5 1.5 0 1 1-3.001-.001 1.5 1.5 0 0 1 3.001.001zM660 436.5a1.5 1.5 0 1 1-3.001-.001 1.5 1.5 0 0 1 3.001.001zM680 436.5a1.5 1.5 0 1 1-3.001-.001 1.5 1.5 0 0 1 3.001.001zM700 436.5a1.5 1.5 0 1 1-3.001-.001 1.5 1.5 0 0 1 3.001.001zM720 436.5a1.5 1.5 0 1 1-3.001-.001 1.5 1.5 0 0 1 3.001.001zM740 436.5a1.5 1.5 0 1 1-3.001-.001 1.5 1.5 0 0 1 3.001.001zM760 436.5a1.5 1.5 0 1 1-3.001-.001 1.5 1.5 0 0 1 3.001.001zM780 436.5a1.5 1.5 0 1 1-3.001-.001 1.5 1.5 0 0 1 3.001.001zM800 436.5a1.5 1.5 0 1 1-3.001-.001 1.5 1.5 0 0 1 3.001.001zM0 456.5a1.5 1.5 0 1 1-3 0 1.5 1.5 0 0 1 3 0zM20 456.5a1.5 1.5 0 1 1-3 0 1.5 1.5 0 0 1 3 0zM0 476.5a1.5 1.5 0 1 1-3 0 1.5 1.5 0 0 1 3 0zM20 476.5a1.5 1.5 0 1 1-3 0 1.5 1.5 0 0 1 3 0zM0 496.5a1.5 1.5 0 1 1-3 0 1.5 1.5 0 0 1 3 0zM20 496.5a1.5 1.5 0 1 1-3 0 1.5 1.5 0 0 1 3 0zM0 516.5a1.5 1.5 0 1 1-3 0 1.5 1.5 0 0 1 3 0zM20 516.5a1.5 1.5 0 1 1-3 0 1.5 1.5 0 0 1 3 0zM0 536.5a1.5 1.5 0 1 1-3 0 1.5 1.5 0 0 1 3 0zM20 536.5a1.5 1.5 0 1 1-3 0 1.5 1.5 0 0 1 3 0zM20 556.5a1.5 1.5 0 1 1-3 0 1.5 1.5 0 0 1 3 0zM40 456.5a1.5 1.5 0 1 1-3 0 1.5 1.5 0 0 1 3 0zM60 456.5a1.5 1.5 0 1 1-3 0 1.5 1.5 0 0 1 3 0zM80 456.5a1.5 1.5 0 1 1-3 0 1.5 1.5 0 0 1 3 0zM100 456.5a1.5 1.5 0 1 1-3 0 1.5 1.5 0 0 1 3 0zM120 456.5a1.5 1.5 0 1 1-3.001-.001 1.5 1.5 0 0 1 3.001.001zM140 456.5a1.5 1.5 0 1 1-3.001-.001 1.5 1.5 0 0 1 3.001.001zM160 456.5a1.5 1.5 0 1 1-3.001-.001 1.5 1.5 0 0 1 3.001.001zM180 456.5a1.5 1.5 0 1 1-3.001-.001 1.5 1.5 0 0 1 3.001.001zM200 456.5a1.5 1.5 0 1 1-3.001-.001 1.5 1.5 0 0 1 3.001.001zM220 456.5a1.5 1.5 0 1 1-3.001-.001 1.5 1.5 0 0 1 3.001.001zM240 456.5a1.5 1.5 0 1 1-3.001-.001 1.5 1.5 0 0 1 3.001.001zM260 456.5a1.5 1.5 0 1 1-3.001-.001 1.5 1.5 0 0 1 3.001.001zM280 456.5a1.5 1.5 0 1 1-3.001-.001 1.5 1.5 0 0 1 3.001.001zM300 456.5a1.5 1.5 0 1 1-3.001-.001 1.5 1.5 0 0 1 3.001.001zM320 456.5a1.5 1.5 0 1 1-3.001-.001 1.5 1.5 0 0 1 3.001.001zM40 476.5a1.5 1.5 0 1 1-3 0 1.5 1.5 0 0 1 3 0zM60 476.5a1.5 1.5 0 1 1-3 0 1.5 1.5 0 0 1 3 0zM80 476.5a1.5 1.5 0 1 1-3 0 1.5 1.5 0 0 1 3 0zM100 476.5a1.5 1.5 0 1 1-3 0 1.5 1.5 0 0 1 3 0zM120 476.5a1.5 1.5 0 1 1-3.001-.001 1.5 1.5 0 0 1 3.001.001zM140 476.5a1.5 1.5 0 1 1-3.001-.001 1.5 1.5 0 0 1 3.001.001zM160 476.5a1.5 1.5 0 1 1-3.001-.001 1.5 1.5 0 0 1 3.001.001zM180 476.5a1.5 1.5 0 1 1-3.001-.001 1.5 1.5 0 0 1 3.001.001zM200 476.5a1.5 1.5 0 1 1-3.001-.001 1.5 1.5 0 0 1 3.001.001zM220 476.5a1.5 1.5 0 1 1-3.001-.001 1.5 1.5 0 0 1 3.001.001zM240 476.5a1.5 1.5 0 1 1-3.001-.001 1.5 1.5 0 0 1 3.001.001zM260 476.5a1.5 1.5 0 1 1-3.001-.001 1.5 1.5 0 0 1 3.001.001zM280 476.5a1.5 1.5 0 1 1-3.001-.001 1.5 1.5 0 0 1 3.001.001zM300 476.5a1.5 1.5 0 1 1-3.001-.001 1.5 1.5 0 0 1 3.001.001zM320 476.5a1.5 1.5 0 1 1-3.001-.001 1.5 1.5 0 0 1 3.001.001zM40 496.5a1.5 1.5 0 1 1-3 0 1.5 1.5 0 0 1 3 0zM60 496.5a1.5 1.5 0 1 1-3 0 1.5 1.5 0 0 1 3 0zM80 496.5a1.5 1.5 0 1 1-3 0 1.5 1.5 0 0 1 3 0zM100 496.5a1.5 1.5 0 1 1-3 0 1.5 1.5 0 0 1 3 0zM120 496.5a1.5 1.5 0 1 1-3.001-.001 1.5 1.5 0 0 1 3.001.001zM140 496.5a1.5 1.5 0 1 1-3.001-.001 1.5 1.5 0 0 1 3.001.001zM160 496.5a1.5 1.5 0 1 1-3.001-.001 1.5 1.5 0 0 1 3.001.001zM180 496.5a1.5 1.5 0 1 1-3.001-.001 1.5 1.5 0 0 1 3.001.001zM200 496.5a1.5 1.5 0 1 1-3.001-.001 1.5 1.5 0 0 1 3.001.001zM220 496.5a1.5 1.5 0 1 1-3.001-.001 1.5 1.5 0 0 1 3.001.001zM240 496.5a1.5 1.5 0 1 1-3.001-.001 1.5 1.5 0 0 1 3.001.001zM260 496.5a1.5 1.5 0 1 1-3.001-.001 1.5 1.5 0 0 1 3.001.001zM280 496.5a1.5 1.5 0 1 1-3.001-.001 1.5 1.5 0 0 1 3.001.001zM300 496.5a1.5 1.5 0 1 1-3.001-.001 1.5 1.5 0 0 1 3.001.001zM320 496.5a1.5 1.5 0 1 1-3.001-.001 1.5 1.5 0 0 1 3.001.001zM40 516.5a1.5 1.5 0 1 1-3 0 1.5 1.5 0 0 1 3 0zM60 516.5a1.5 1.5 0 1 1-3 0 1.5 1.5 0 0 1 3 0zM80 516.5a1.5 1.5 0 1 1-3 0 1.5 1.5 0 0 1 3 0zM100 516.5a1.5 1.5 0 1 1-3 0 1.5 1.5 0 0 1 3 0zM120 516.5a1.5 1.5 0 1 1-3.001-.001 1.5 1.5 0 0 1 3.001.001zM140 516.5a1.5 1.5 0 1 1-3.001-.001 1.5 1.5 0 0 1 3.001.001zM160 516.5a1.5 1.5 0 1 1-3.001-.001 1.5 1.5 0 0 1 3.001.001zM180 516.5a1.5 1.5 0 1 1-3.001-.001 1.5 1.5 0 0 1 3.001.001zM200 516.5a1.5 1.5 0 1 1-3.001-.001 1.5 1.5 0 0 1 3.001.001zM220 516.5a1.5 1.5 0 1 1-3.001-.001 1.5 1.5 0 0 1 3.001.001zM240 516.5a1.5 1.5 0 1 1-3.001-.001 1.5 1.5 0 0 1 3.001.001zM260 516.5a1.5 1.5 0 1 1-3.001-.001 1.5 1.5 0 0 1 3.001.001zM280 516.5a1.5 1.5 0 1 1-3.001-.001 1.5 1.5 0 0 1 3.001.001zM300 516.5a1.5 1.5 0 1 1-3.001-.001 1.5 1.5 0 0 1 3.001.001zM320 516.5a1.5 1.5 0 1 1-3.001-.001 1.5 1.5 0 0 1 3.001.001zM40 536.5a1.5 1.5 0 1 1-3 0 1.5 1.5 0 0 1 3 0zM60 536.5a1.5 1.5 0 1 1-3 0 1.5 1.5 0 0 1 3 0zM80 536.5a1.5 1.5 0 1 1-3 0 1.5 1.5 0 0 1 3 0zM100 536.5a1.5 1.5 0 1 1-3 0 1.5 1.5 0 0 1 3 0zM120 536.5a1.5 1.5 0 1 1-3.001-.001 1.5 1.5 0 0 1 3.001.001zM140 536.5a1.5 1.5 0 1 1-3.001-.001 1.5 1.5 0 0 1 3.001.001zM160 536.5a1.5 1.5 0 1 1-3.001-.001 1.5 1.5 0 0 1 3.001.001zM180 536.5a1.5 1.5 0 1 1-3.001-.001 1.5 1.5 0 0 1 3.001.001zM200 536.5a1.5 1.5 0 1 1-3.001-.001 1.5 1.5 0 0 1 3.001.001zM220 536.5a1.5 1.5 0 1 1-3.001-.001 1.5 1.5 0 0 1 3.001.001zM240 536.5a1.5 1.5 0 1 1-3.001-.001 1.5 1.5 0 0 1 3.001.001zM260 536.5a1.5 1.5 0 1 1-3.001-.001 1.5 1.5 0 0 1 3.001.001zM280 536.5a1.5 1.5 0 1 1-3.001-.001 1.5 1.5 0 0 1 3.001.001zM300 536.5a1.5 1.5 0 1 1-3.001-.001 1.5 1.5 0 0 1 3.001.001zM320 536.5a1.5 1.5 0 1 1-3.001-.001 1.5 1.5 0 0 1 3.001.001zM40 556.5a1.5 1.5 0 1 1-3 0 1.5 1.5 0 0 1 3 0zM60 556.5a1.5 1.5 0 1 1-3 0 1.5 1.5 0 0 1 3 0zM80 556.5a1.5 1.5 0 1 1-3 0 1.5 1.5 0 0 1 3 0zM100 556.5a1.5 1.5 0 1 1-3 0 1.5 1.5 0 0 1 3 0zM120 556.5a1.5 1.5 0 1 1-3.001-.001 1.5 1.5 0 0 1 3.001.001zM140 556.5a1.5 1.5 0 1 1-3.001-.001 1.5 1.5 0 0 1 3.001.001zM160 556.5a1.5 1.5 0 1 1-3.001-.001 1.5 1.5 0 0 1 3.001.001zM180 556.5a1.5 1.5 0 1 1-3.001-.001 1.5 1.5 0 0 1 3.001.001zM200 556.5a1.5 1.5 0 1 1-3.001-.001 1.5 1.5 0 0 1 3.001.001zM220 556.5a1.5 1.5 0 1 1-3.001-.001 1.5 1.5 0 0 1 3.001.001zM240 556.5a1.5 1.5 0 1 1-3.001-.001 1.5 1.5 0 0 1 3.001.001zM260 556.5a1.5 1.5 0 1 1-3.001-.001 1.5 1.5 0 0 1 3.001.001zM280 556.5a1.5 1.5 0 1 1-3.001-.001 1.5 1.5 0 0 1 3.001.001zM300 556.5a1.5 1.5 0 1 1-3.001-.001 1.5 1.5 0 0 1 3.001.001zM320 556.5a1.5 1.5 0 1 1-3.001-.001 1.5 1.5 0 0 1 3.001.001zM40 576.5a1.5 1.5 0 1 1-3 0 1.5 1.5 0 0 1 3 0zM60 576.5a1.5 1.5 0 1 1-3 0 1.5 1.5 0 0 1 3 0zM80 576.5a1.5 1.5 0 1 1-3 0 1.5 1.5 0 0 1 3 0zM100 576.5a1.5 1.5 0 1 1-3 0 1.5 1.5 0 0 1 3 0zM120 576.5a1.5 1.5 0 1 1-3.001-.001 1.5 1.5 0 0 1 3.001.001zM140 576.5a1.5 1.5 0 1 1-3.001-.001 1.5 1.5 0 0 1 3.001.001zM160 576.5a1.5 1.5 0 1 1-3.001-.001 1.5 1.5 0 0 1 3.001.001zM180 576.5a1.5 1.5 0 1 1-3.001-.001 1.5 1.5 0 0 1 3.001.001zM200 576.5a1.5 1.5 0 1 1-3.001-.001 1.5 1.5 0 0 1 3.001.001zM220 576.5a1.5 1.5 0 1 1-3.001-.001 1.5 1.5 0 0 1 3.001.001zM240 576.5a1.5 1.5 0 1 1-3.001-.001 1.5 1.5 0 0 1 3.001.001zM260 576.5a1.5 1.5 0 1 1-3.001-.001 1.5 1.5 0 0 1 3.001.001zM280 576.5a1.5 1.5 0 1 1-3.001-.001 1.5 1.5 0 0 1 3.001.001zM300 576.5a1.5 1.5 0 1 1-3.001-.001 1.5 1.5 0 0 1 3.001.001zM320 576.5a1.5 1.5 0 1 1-3.001-.001 1.5 1.5 0 0 1 3.001.001zM60 596.5a1.5 1.5 0 1 1-3 0 1.5 1.5 0 0 1 3 0zM80 596.5a1.5 1.5 0 1 1-3 0 1.5 1.5 0 0 1 3 0zM100 596.5a1.5 1.5 0 1 1-3 0 1.5 1.5 0 0 1 3 0zM120 596.5a1.5 1.5 0 1 1-3.001-.001 1.5 1.5 0 0 1 3.001.001zM140 596.5a1.5 1.5 0 1 1-3.001-.001 1.5 1.5 0 0 1 3.001.001zM160 596.5a1.5 1.5 0 1 1-3.001-.001 1.5 1.5 0 0 1 3.001.001zM180 596.5a1.5 1.5 0 1 1-3.001-.001 1.5 1.5 0 0 1 3.001.001zM200 596.5a1.5 1.5 0 1 1-3.001-.001 1.5 1.5 0 0 1 3.001.001zM220 596.5a1.5 1.5 0 1 1-3.001-.001 1.5 1.5 0 0 1 3.001.001zM240 596.5a1.5 1.5 0 1 1-3.001-.001 1.5 1.5 0 0 1 3.001.001zM260 596.5a1.5 1.5 0 1 1-3.001-.001 1.5 1.5 0 0 1 3.001.001zM280 596.5a1.5 1.5 0 1 1-3.001-.001 1.5 1.5 0 0 1 3.001.001zM300 596.5a1.5 1.5 0 1 1-3.001-.001 1.5 1.5 0 0 1 3.001.001zM320 596.5a1.5 1.5 0 1 1-3.001-.001 1.5 1.5 0 0 1 3.001.001zM60 616.5a1.5 1.5 0 1 1-3 0 1.5 1.5 0 0 1 3 0zM80 616.5a1.5 1.5 0 1 1-3 0 1.5 1.5 0 0 1 3 0zM100 616.5a1.5 1.5 0 1 1-3 0 1.5 1.5 0 0 1 3 0zM120 616.5a1.5 1.5 0 1 1-3.001-.001 1.5 1.5 0 0 1 3.001.001zM140 616.5a1.5 1.5 0 1 1-3.001-.001 1.5 1.5 0 0 1 3.001.001zM160 616.5a1.5 1.5 0 1 1-3.001-.001 1.5 1.5 0 0 1 3.001.001zM180 616.5a1.5 1.5 0 1 1-3.001-.001 1.5 1.5 0 0 1 3.001.001zM200 616.5a1.5 1.5 0 1 1-3.001-.001 1.5 1.5 0 0 1 3.001.001zM220 616.5a1.5 1.5 0 1 1-3.001-.001 1.5 1.5 0 0 1 3.001.001zM240 616.5a1.5 1.5 0 1 1-3.001-.001 1.5 1.5 0 0 1 3.001.001zM260 616.5a1.5 1.5 0 1 1-3.001-.001 1.5 1.5 0 0 1 3.001.001zM280 616.5a1.5 1.5 0 1 1-3.001-.001 1.5 1.5 0 0 1 3.001.001zM300 616.5a1.5 1.5 0 1 1-3.001-.001 1.5 1.5 0 0 1 3.001.001zM320 616.5a1.5 1.5 0 1 1-3.001-.001 1.5 1.5 0 0 1 3.001.001zM60 636.5a1.5 1.5 0 1 1-3 0 1.5 1.5 0 0 1 3 0zM80 636.5a1.5 1.5 0 1 1-3 0 1.5 1.5 0 0 1 3 0zM100 636.5a1.5 1.5 0 1 1-3 0 1.5 1.5 0 0 1 3 0zM120 636.5a1.5 1.5 0 1 1-3.001-.001 1.5 1.5 0 0 1 3.001.001zM140 636.5a1.5 1.5 0 1 1-3.001-.001 1.5 1.5 0 0 1 3.001.001zM160 636.5a1.5 1.5 0 1 1-3.001-.001 1.5 1.5 0 0 1 3.001.001zM180 636.5a1.5 1.5 0 1 1-3.001-.001 1.5 1.5 0 0 1 3.001.001zM200 636.5a1.5 1.5 0 1 1-3.001-.001 1.5 1.5 0 0 1 3.001.001zM220 636.5a1.5 1.5 0 1 1-3.001-.001 1.5 1.5 0 0 1 3.001.001zM240 636.5a1.5 1.5 0 1 1-3.001-.001 1.5 1.5 0 0 1 3.001.001zM260 636.5a1.5 1.5 0 1 1-3.001-.001 1.5 1.5 0 0 1 3.001.001zM280 636.5a1.5 1.5 0 1 1-3.001-.001 1.5 1.5 0 0 1 3.001.001zM300 636.5a1.5 1.5 0 1 1-3.001-.001 1.5 1.5 0 0 1 3.001.001zM320 636.5a1.5 1.5 0 1 1-3.001-.001 1.5 1.5 0 0 1 3.001.001zM80 656.5a1.5 1.5 0 1 1-3 0 1.5 1.5 0 0 1 3 0zM100 656.5a1.5 1.5 0 1 1-3 0 1.5 1.5 0 0 1 3 0zM120 656.5a1.5 1.5 0 1 1-3.001-.001 1.5 1.5 0 0 1 3.001.001zM140 656.5a1.5 1.5 0 1 1-3.001-.001 1.5 1.5 0 0 1 3.001.001zM160 656.5a1.5 1.5 0 1 1-3.001-.001 1.5 1.5 0 0 1 3.001.001zM180 656.5a1.5 1.5 0 1 1-3.001-.001 1.5 1.5 0 0 1 3.001.001zM200 656.5a1.5 1.5 0 1 1-3.001-.001 1.5 1.5 0 0 1 3.001.001zM220 656.5a1.5 1.5 0 1 1-3.001-.001 1.5 1.5 0 0 1 3.001.001zM240 656.5a1.5 1.5 0 1 1-3.001-.001 1.5 1.5 0 0 1 3.001.001zM260 656.5a1.5 1.5 0 1 1-3.001-.001 1.5 1.5 0 0 1 3.001.001zM280 656.5a1.5 1.5 0 1 1-3.001-.001 1.5 1.5 0 0 1 3.001.001zM300 656.5a1.5 1.5 0 1 1-3.001-.001 1.5 1.5 0 0 1 3.001.001zM320 656.5a1.5 1.5 0 1 1-3.001-.001 1.5 1.5 0 0 1 3.001.001zM100 676.5a1.5 1.5 0 1 1-3 0 1.5 1.5 0 0 1 3 0zM120 676.5a1.5 1.5 0 1 1-3.001-.001 1.5 1.5 0 0 1 3.001.001zM140 676.5a1.5 1.5 0 1 1-3.001-.001 1.5 1.5 0 0 1 3.001.001zM160 676.5a1.5 1.5 0 1 1-3.001-.001 1.5 1.5 0 0 1 3.001.001zM180 676.5a1.5 1.5 0 1 1-3.001-.001 1.5 1.5 0 0 1 3.001.001zM200 676.5a1.5 1.5 0 1 1-3.001-.001 1.5 1.5 0 0 1 3.001.001zM220 676.5a1.5 1.5 0 1 1-3.001-.001 1.5 1.5 0 0 1 3.001.001zM240 676.5a1.5 1.5 0 1 1-3.001-.001 1.5 1.5 0 0 1 3.001.001zM260 676.5a1.5 1.5 0 1 1-3.001-.001 1.5 1.5 0 0 1 3.001.001zM280 676.5a1.5 1.5 0 1 1-3.001-.001 1.5 1.5 0 0 1 3.001.001zM300 676.5a1.5 1.5 0 1 1-3.001-.001 1.5 1.5 0 0 1 3.001.001zM320 676.5a1.5 1.5 0 1 1-3.001-.001 1.5 1.5 0 0 1 3.001.001zM340 456.5a1.5 1.5 0 1 1-3.001-.001 1.5 1.5 0 0 1 3.001.001zM360 456.5a1.5 1.5 0 1 1-3.001-.001 1.5 1.5 0 0 1 3.001.001zM380 456.5a1.5 1.5 0 1 1-3.001-.001 1.5 1.5 0 0 1 3.001.001zM400 456.5a1.5 1.5 0 1 1-3.001-.001 1.5 1.5 0 0 1 3.001.001zM420 456.5a1.5 1.5 0 1 1-3.001-.001 1.5 1.5 0 0 1 3.001.001zM440 456.5a1.5 1.5 0 1 1-3.001-.001 1.5 1.5 0 0 1 3.001.001zM460 456.5a1.5 1.5 0 1 1-3.001-.001 1.5 1.5 0 0 1 3.001.001zM480 456.5a1.5 1.5 0 1 1-3.001-.001 1.5 1.5 0 0 1 3.001.001zM500 456.5a1.5 1.5 0 1 1-3.001-.001 1.5 1.5 0 0 1 3.001.001zM520 456.5a1.5 1.5 0 1 1-3.001-.001 1.5 1.5 0 0 1 3.001.001zM540 456.5a1.5 1.5 0 1 1-3.001-.001 1.5 1.5 0 0 1 3.001.001zM560 456.5a1.5 1.5 0 1 1-3.001-.001 1.5 1.5 0 0 1 3.001.001zM580 456.5a1.5 1.5 0 1 1-3.001-.001 1.5 1.5 0 0 1 3.001.001zM600 456.5a1.5 1.5 0 1 1-3.001-.001 1.5 1.5 0 0 1 3.001.001zM620 456.5a1.5 1.5 0 1 1-3.001-.001 1.5 1.5 0 0 1 3.001.001zM340 476.5a1.5 1.5 0 1 1-3.001-.001 1.5 1.5 0 0 1 3.001.001zM360 476.5a1.5 1.5 0 1 1-3.001-.001 1.5 1.5 0 0 1 3.001.001zM380 476.5a1.5 1.5 0 1 1-3.001-.001 1.5 1.5 0 0 1 3.001.001zM400 476.5a1.5 1.5 0 1 1-3.001-.001 1.5 1.5 0 0 1 3.001.001zM420 476.5a1.5 1.5 0 1 1-3.001-.001 1.5 1.5 0 0 1 3.001.001zM440 476.5a1.5 1.5 0 1 1-3.001-.001 1.5 1.5 0 0 1 3.001.001zM460 476.5a1.5 1.5 0 1 1-3.001-.001 1.5 1.5 0 0 1 3.001.001zM480 476.5a1.5 1.5 0 1 1-3.001-.001 1.5 1.5 0 0 1 3.001.001zM500 476.5a1.5 1.5 0 1 1-3.001-.001 1.5 1.5 0 0 1 3.001.001zM520 476.5a1.5 1.5 0 1 1-3.001-.001 1.5 1.5 0 0 1 3.001.001zM540 476.5a1.5 1.5 0 1 1-3.001-.001 1.5 1.5 0 0 1 3.001.001zM560 476.5a1.5 1.5 0 1 1-3.001-.001 1.5 1.5 0 0 1 3.001.001zM580 476.5a1.5 1.5 0 1 1-3.001-.001 1.5 1.5 0 0 1 3.001.001zM600 476.5a1.5 1.5 0 1 1-3.001-.001 1.5 1.5 0 0 1 3.001.001zM620 476.5a1.5 1.5 0 1 1-3.001-.001 1.5 1.5 0 0 1 3.001.001zM340 496.5a1.5 1.5 0 1 1-3.001-.001 1.5 1.5 0 0 1 3.001.001zM360 496.5a1.5 1.5 0 1 1-3.001-.001 1.5 1.5 0 0 1 3.001.001zM380 496.5a1.5 1.5 0 1 1-3.001-.001 1.5 1.5 0 0 1 3.001.001zM400 496.5a1.5 1.5 0 1 1-3.001-.001 1.5 1.5 0 0 1 3.001.001zM420 496.5a1.5 1.5 0 1 1-3.001-.001 1.5 1.5 0 0 1 3.001.001zM440 496.5a1.5 1.5 0 1 1-3.001-.001 1.5 1.5 0 0 1 3.001.001zM460 496.5a1.5 1.5 0 1 1-3.001-.001 1.5 1.5 0 0 1 3.001.001zM480 496.5a1.5 1.5 0 1 1-3.001-.001 1.5 1.5 0 0 1 3.001.001zM500 496.5a1.5 1.5 0 1 1-3.001-.001 1.5 1.5 0 0 1 3.001.001zM520 496.5a1.5 1.5 0 1 1-3.001-.001 1.5 1.5 0 0 1 3.001.001zM540 496.5a1.5 1.5 0 1 1-3.001-.001 1.5 1.5 0 0 1 3.001.001zM560 496.5a1.5 1.5 0 1 1-3.001-.001 1.5 1.5 0 0 1 3.001.001zM580 496.5a1.5 1.5 0 1 1-3.001-.001 1.5 1.5 0 0 1 3.001.001zM600 496.5a1.5 1.5 0 1 1-3.001-.001 1.5 1.5 0 0 1 3.001.001zM620 496.5a1.5 1.5 0 1 1-3.001-.001 1.5 1.5 0 0 1 3.001.001zM340 516.5a1.5 1.5 0 1 1-3.001-.001 1.5 1.5 0 0 1 3.001.001zM360 516.5a1.5 1.5 0 1 1-3.001-.001 1.5 1.5 0 0 1 3.001.001zM380 516.5a1.5 1.5 0 1 1-3.001-.001 1.5 1.5 0 0 1 3.001.001zM400 516.5a1.5 1.5 0 1 1-3.001-.001 1.5 1.5 0 0 1 3.001.001zM420 516.5a1.5 1.5 0 1 1-3.001-.001 1.5 1.5 0 0 1 3.001.001zM440 516.5a1.5 1.5 0 1 1-3.001-.001 1.5 1.5 0 0 1 3.001.001zM460 516.5a1.5 1.5 0 1 1-3.001-.001 1.5 1.5 0 0 1 3.001.001zM480 516.5a1.5 1.5 0 1 1-3.001-.001 1.5 1.5 0 0 1 3.001.001zM500 516.5a1.5 1.5 0 1 1-3.001-.001 1.5 1.5 0 0 1 3.001.001zM520 516.5a1.5 1.5 0 1 1-3.001-.001 1.5 1.5 0 0 1 3.001.001zM540 516.5a1.5 1.5 0 1 1-3.001-.001 1.5 1.5 0 0 1 3.001.001zM560 516.5a1.5 1.5 0 1 1-3.001-.001 1.5 1.5 0 0 1 3.001.001zM580 516.5a1.5 1.5 0 1 1-3.001-.001 1.5 1.5 0 0 1 3.001.001zM600 516.5a1.5 1.5 0 1 1-3.001-.001 1.5 1.5 0 0 1 3.001.001zM620 516.5a1.5 1.5 0 1 1-3.001-.001 1.5 1.5 0 0 1 3.001.001zM340 536.5a1.5 1.5 0 1 1-3.001-.001 1.5 1.5 0 0 1 3.001.001zM360 536.5a1.5 1.5 0 1 1-3.001-.001 1.5 1.5 0 0 1 3.001.001zM380 536.5a1.5 1.5 0 1 1-3.001-.001 1.5 1.5 0 0 1 3.001.001zM400 536.5a1.5 1.5 0 1 1-3.001-.001 1.5 1.5 0 0 1 3.001.001zM420 536.5a1.5 1.5 0 1 1-3.001-.001 1.5 1.5 0 0 1 3.001.001zM440 536.5a1.5 1.5 0 1 1-3.001-.001 1.5 1.5 0 0 1 3.001.001zM460 536.5a1.5 1.5 0 1 1-3.001-.001 1.5 1.5 0 0 1 3.001.001zM480 536.5a1.5 1.5 0 1 1-3.001-.001 1.5 1.5 0 0 1 3.001.001zM500 536.5a1.5 1.5 0 1 1-3.001-.001 1.5 1.5 0 0 1 3.001.001zM520 536.5a1.5 1.5 0 1 1-3.001-.001 1.5 1.5 0 0 1 3.001.001zM540 536.5a1.5 1.5 0 1 1-3.001-.001 1.5 1.5 0 0 1 3.001.001zM560 536.5a1.5 1.5 0 1 1-3.001-.001 1.5 1.5 0 0 1 3.001.001zM580 536.5a1.5 1.5 0 1 1-3.001-.001 1.5 1.5 0 0 1 3.001.001zM600 536.5a1.5 1.5 0 1 1-3.001-.001 1.5 1.5 0 0 1 3.001.001zM620 536.5a1.5 1.5 0 1 1-3.001-.001 1.5 1.5 0 0 1 3.001.001zM340 556.5a1.5 1.5 0 1 1-3.001-.001 1.5 1.5 0 0 1 3.001.001zM360 556.5a1.5 1.5 0 1 1-3.001-.001 1.5 1.5 0 0 1 3.001.001zM380 556.5a1.5 1.5 0 1 1-3.001-.001 1.5 1.5 0 0 1 3.001.001zM400 556.5a1.5 1.5 0 1 1-3.001-.001 1.5 1.5 0 0 1 3.001.001zM420 556.5a1.5 1.5 0 1 1-3.001-.001 1.5 1.5 0 0 1 3.001.001zM440 556.5a1.5 1.5 0 1 1-3.001-.001 1.5 1.5 0 0 1 3.001.001zM460 556.5a1.5 1.5 0 1 1-3.001-.001 1.5 1.5 0 0 1 3.001.001zM480 556.5a1.5 1.5 0 1 1-3.001-.001 1.5 1.5 0 0 1 3.001.001zM500 556.5a1.5 1.5 0 1 1-3.001-.001 1.5 1.5 0 0 1 3.001.001zM520 556.5a1.5 1.5 0 1 1-3.001-.001 1.5 1.5 0 0 1 3.001.001zM540 556.5a1.5 1.5 0 1 1-3.001-.001 1.5 1.5 0 0 1 3.001.001zM560 556.5a1.5 1.5 0 1 1-3.001-.001 1.5 1.5 0 0 1 3.001.001zM580 556.5a1.5 1.5 0 1 1-3.001-.001 1.5 1.5 0 0 1 3.001.001zM600 556.5a1.5 1.5 0 1 1-3.001-.001 1.5 1.5 0 0 1 3.001.001zM620 556.5a1.5 1.5 0 1 1-3.001-.001 1.5 1.5 0 0 1 3.001.001zM340 576.5a1.5 1.5 0 1 1-3.001-.001 1.5 1.5 0 0 1 3.001.001zM360 576.5a1.5 1.5 0 1 1-3.001-.001 1.5 1.5 0 0 1 3.001.001zM380 576.5a1.5 1.5 0 1 1-3.001-.001 1.5 1.5 0 0 1 3.001.001zM400 576.5a1.5 1.5 0 1 1-3.001-.001 1.5 1.5 0 0 1 3.001.001zM420 576.5a1.5 1.5 0 1 1-3.001-.001 1.5 1.5 0 0 1 3.001.001zM440 576.5a1.5 1.5 0 1 1-3.001-.001 1.5 1.5 0 0 1 3.001.001zM460 576.5a1.5 1.5 0 1 1-3.001-.001 1.5 1.5 0 0 1 3.001.001zM480 576.5a1.5 1.5 0 1 1-3.001-.001 1.5 1.5 0 0 1 3.001.001zM500 576.5a1.5 1.5 0 1 1-3.001-.001 1.5 1.5 0 0 1 3.001.001zM520 576.5a1.5 1.5 0 1 1-3.001-.001 1.5 1.5 0 0 1 3.001.001zM540 576.5a1.5 1.5 0 1 1-3.001-.001 1.5 1.5 0 0 1 3.001.001zM560 576.5a1.5 1.5 0 1 1-3.001-.001 1.5 1.5 0 0 1 3.001.001zM580 576.5a1.5 1.5 0 1 1-3.001-.001 1.5 1.5 0 0 1 3.001.001zM600 576.5a1.5 1.5 0 1 1-3.001-.001 1.5 1.5 0 0 1 3.001.001zM620 576.5a1.5 1.5 0 1 1-3.001-.001 1.5 1.5 0 0 1 3.001.001zM340 596.5a1.5 1.5 0 1 1-3.001-.001 1.5 1.5 0 0 1 3.001.001zM360 596.5a1.5 1.5 0 1 1-3.001-.001 1.5 1.5 0 0 1 3.001.001zM380 596.5a1.5 1.5 0 1 1-3.001-.001 1.5 1.5 0 0 1 3.001.001zM400 596.5a1.5 1.5 0 1 1-3.001-.001 1.5 1.5 0 0 1 3.001.001zM420 596.5a1.5 1.5 0 1 1-3.001-.001 1.5 1.5 0 0 1 3.001.001zM440 596.5a1.5 1.5 0 1 1-3.001-.001 1.5 1.5 0 0 1 3.001.001zM460 596.5a1.5 1.5 0 1 1-3.001-.001 1.5 1.5 0 0 1 3.001.001zM480 596.5a1.5 1.5 0 1 1-3.001-.001 1.5 1.5 0 0 1 3.001.001zM500 596.5a1.5 1.5 0 1 1-3.001-.001 1.5 1.5 0 0 1 3.001.001zM520 596.5a1.5 1.5 0 1 1-3.001-.001 1.5 1.5 0 0 1 3.001.001zM540 596.5a1.5 1.5 0 1 1-3.001-.001 1.5 1.5 0 0 1 3.001.001zM560 596.5a1.5 1.5 0 1 1-3.001-.001 1.5 1.5 0 0 1 3.001.001zM580 596.5a1.5 1.5 0 1 1-3.001-.001 1.5 1.5 0 0 1 3.001.001zM600 596.5a1.5 1.5 0 1 1-3.001-.001 1.5 1.5 0 0 1 3.001.001zM620 596.5a1.5 1.5 0 1 1-3.001-.001 1.5 1.5 0 0 1 3.001.001zM340 616.5a1.5 1.5 0 1 1-3.001-.001 1.5 1.5 0 0 1 3.001.001zM360 616.5a1.5 1.5 0 1 1-3.001-.001 1.5 1.5 0 0 1 3.001.001zM380 616.5a1.5 1.5 0 1 1-3.001-.001 1.5 1.5 0 0 1 3.001.001zM400 616.5a1.5 1.5 0 1 1-3.001-.001 1.5 1.5 0 0 1 3.001.001zM420 616.5a1.5 1.5 0 1 1-3.001-.001 1.5 1.5 0 0 1 3.001.001zM440 616.5a1.5 1.5 0 1 1-3.001-.001 1.5 1.5 0 0 1 3.001.001zM460 616.5a1.5 1.5 0 1 1-3.001-.001 1.5 1.5 0 0 1 3.001.001zM480 616.5a1.5 1.5 0 1 1-3.001-.001 1.5 1.5 0 0 1 3.001.001zM500 616.5a1.5 1.5 0 1 1-3.001-.001 1.5 1.5 0 0 1 3.001.001zM520 616.5a1.5 1.5 0 1 1-3.001-.001 1.5 1.5 0 0 1 3.001.001zM540 616.5a1.5 1.5 0 1 1-3.001-.001 1.5 1.5 0 0 1 3.001.001zM560 616.5a1.5 1.5 0 1 1-3.001-.001 1.5 1.5 0 0 1 3.001.001zM580 616.5a1.5 1.5 0 1 1-3.001-.001 1.5 1.5 0 0 1 3.001.001zM600 616.5a1.5 1.5 0 1 1-3.001-.001 1.5 1.5 0 0 1 3.001.001zM620 616.5a1.5 1.5 0 1 1-3.001-.001 1.5 1.5 0 0 1 3.001.001zM340 636.5a1.5 1.5 0 1 1-3.001-.001 1.5 1.5 0 0 1 3.001.001zM360 636.5a1.5 1.5 0 1 1-3.001-.001 1.5 1.5 0 0 1 3.001.001zM380 636.5a1.5 1.5 0 1 1-3.001-.001 1.5 1.5 0 0 1 3.001.001zM400 636.5a1.5 1.5 0 1 1-3.001-.001 1.5 1.5 0 0 1 3.001.001zM420 636.5a1.5 1.5 0 1 1-3.001-.001 1.5 1.5 0 0 1 3.001.001zM440 636.5a1.5 1.5 0 1 1-3.001-.001 1.5 1.5 0 0 1 3.001.001zM460 636.5a1.5 1.5 0 1 1-3.001-.001 1.5 1.5 0 0 1 3.001.001zM480 636.5a1.5 1.5 0 1 1-3.001-.001 1.5 1.5 0 0 1 3.001.001zM500 636.5a1.5 1.5 0 1 1-3.001-.001 1.5 1.5 0 0 1 3.001.001zM520 636.5a1.5 1.5 0 1 1-3.001-.001 1.5 1.5 0 0 1 3.001.001zM540 636.5a1.5 1.5 0 1 1-3.001-.001 1.5 1.5 0 0 1 3.001.001zM560 636.5a1.5 1.5 0 1 1-3.001-.001 1.5 1.5 0 0 1 3.001.001zM580 636.5a1.5 1.5 0 1 1-3.001-.001 1.5 1.5 0 0 1 3.001.001zM600 636.5a1.5 1.5 0 1 1-3.001-.001 1.5 1.5 0 0 1 3.001.001zM620 636.5a1.5 1.5 0 1 1-3.001-.001 1.5 1.5 0 0 1 3.001.001zM340 656.5a1.5 1.5 0 1 1-3.001-.001 1.5 1.5 0 0 1 3.001.001zM360 656.5a1.5 1.5 0 1 1-3.001-.001 1.5 1.5 0 0 1 3.001.001zM380 656.5a1.5 1.5 0 1 1-3.001-.001 1.5 1.5 0 0 1 3.001.001zM400 656.5a1.5 1.5 0 1 1-3.001-.001 1.5 1.5 0 0 1 3.001.001zM420 656.5a1.5 1.5 0 1 1-3.001-.001 1.5 1.5 0 0 1 3.001.001zM440 656.5a1.5 1.5 0 1 1-3.001-.001 1.5 1.5 0 0 1 3.001.001zM460 656.5a1.5 1.5 0 1 1-3.001-.001 1.5 1.5 0 0 1 3.001.001zM480 656.5a1.5 1.5 0 1 1-3.001-.001 1.5 1.5 0 0 1 3.001.001zM500 656.5a1.5 1.5 0 1 1-3.001-.001 1.5 1.5 0 0 1 3.001.001zM520 656.5a1.5 1.5 0 1 1-3.001-.001 1.5 1.5 0 0 1 3.001.001zM540 656.5a1.5 1.5 0 1 1-3.001-.001 1.5 1.5 0 0 1 3.001.001zM560 656.5a1.5 1.5 0 1 1-3.001-.001 1.5 1.5 0 0 1 3.001.001zM580 656.5a1.5 1.5 0 1 1-3.001-.001 1.5 1.5 0 0 1 3.001.001zM600 656.5a1.5 1.5 0 1 1-3.001-.001 1.5 1.5 0 0 1 3.001.001zM620 656.5a1.5 1.5 0 1 1-3.001-.001 1.5 1.5 0 0 1 3.001.001zM340 676.5a1.5 1.5 0 1 1-3.001-.001 1.5 1.5 0 0 1 3.001.001zM360 676.5a1.5 1.5 0 1 1-3.001-.001 1.5 1.5 0 0 1 3.001.001zM380 676.5a1.5 1.5 0 1 1-3.001-.001 1.5 1.5 0 0 1 3.001.001zM400 676.5a1.5 1.5 0 1 1-3.001-.001 1.5 1.5 0 0 1 3.001.001zM420 676.5a1.5 1.5 0 1 1-3.001-.001 1.5 1.5 0 0 1 3.001.001zM440 676.5a1.5 1.5 0 1 1-3.001-.001 1.5 1.5 0 0 1 3.001.001zM460 676.5a1.5 1.5 0 1 1-3.001-.001 1.5 1.5 0 0 1 3.001.001zM480 676.5a1.5 1.5 0 1 1-3.001-.001 1.5 1.5 0 0 1 3.001.001zM500 676.5a1.5 1.5 0 1 1-3.001-.001 1.5 1.5 0 0 1 3.001.001zM520 676.5a1.5 1.5 0 1 1-3.001-.001 1.5 1.5 0 0 1 3.001.001zM540 676.5a1.5 1.5 0 1 1-3.001-.001 1.5 1.5 0 0 1 3.001.001zM560 676.5a1.5 1.5 0 1 1-3.001-.001 1.5 1.5 0 0 1 3.001.001zM580 676.5a1.5 1.5 0 1 1-3.001-.001 1.5 1.5 0 0 1 3.001.001zM600 676.5a1.5 1.5 0 1 1-3.001-.001 1.5 1.5 0 0 1 3.001.001zM620 676.5a1.5 1.5 0 1 1-3.001-.001 1.5 1.5 0 0 1 3.001.001zM640 456.5a1.5 1.5 0 1 1-3.001-.001 1.5 1.5 0 0 1 3.001.001zM660 456.5a1.5 1.5 0 1 1-3.001-.001 1.5 1.5 0 0 1 3.001.001zM680 456.5a1.5 1.5 0 1 1-3.001-.001 1.5 1.5 0 0 1 3.001.001zM700 456.5a1.5 1.5 0 1 1-3.001-.001 1.5 1.5 0 0 1 3.001.001zM720 456.5a1.5 1.5 0 1 1-3.001-.001 1.5 1.5 0 0 1 3.001.001zM740 456.5a1.5 1.5 0 1 1-3.001-.001 1.5 1.5 0 0 1 3.001.001zM760 456.5a1.5 1.5 0 1 1-3.001-.001 1.5 1.5 0 0 1 3.001.001zM780 456.5a1.5 1.5 0 1 1-3.001-.001 1.5 1.5 0 0 1 3.001.001zM800 456.5a1.5 1.5 0 1 1-3.001-.001 1.5 1.5 0 0 1 3.001.001zM640 476.5a1.5 1.5 0 1 1-3.001-.001 1.5 1.5 0 0 1 3.001.001zM660 476.5a1.5 1.5 0 1 1-3.001-.001 1.5 1.5 0 0 1 3.001.001zM680 476.5a1.5 1.5 0 1 1-3.001-.001 1.5 1.5 0 0 1 3.001.001zM700 476.5a1.5 1.5 0 1 1-3.001-.001 1.5 1.5 0 0 1 3.001.001zM720 476.5a1.5 1.5 0 1 1-3.001-.001 1.5 1.5 0 0 1 3.001.001zM740 476.5a1.5 1.5 0 1 1-3.001-.001 1.5 1.5 0 0 1 3.001.001zM760 476.5a1.5 1.5 0 1 1-3.001-.001 1.5 1.5 0 0 1 3.001.001zM780 476.5a1.5 1.5 0 1 1-3.001-.001 1.5 1.5 0 0 1 3.001.001zM800 476.5a1.5 1.5 0 1 1-3.001-.001 1.5 1.5 0 0 1 3.001.001zM640 496.5a1.5 1.5 0 1 1-3.001-.001 1.5 1.5 0 0 1 3.001.001zM660 496.5a1.5 1.5 0 1 1-3.001-.001 1.5 1.5 0 0 1 3.001.001zM680 496.5a1.5 1.5 0 1 1-3.001-.001 1.5 1.5 0 0 1 3.001.001zM700 496.5a1.5 1.5 0 1 1-3.001-.001 1.5 1.5 0 0 1 3.001.001zM720 496.5a1.5 1.5 0 1 1-3.001-.001 1.5 1.5 0 0 1 3.001.001zM740 496.5a1.5 1.5 0 1 1-3.001-.001 1.5 1.5 0 0 1 3.001.001zM760 496.5a1.5 1.5 0 1 1-3.001-.001 1.5 1.5 0 0 1 3.001.001zM780 496.5a1.5 1.5 0 1 1-3.001-.001 1.5 1.5 0 0 1 3.001.001zM800 496.5a1.5 1.5 0 1 1-3.001-.001 1.5 1.5 0 0 1 3.001.001zM640 516.5a1.5 1.5 0 1 1-3.001-.001 1.5 1.5 0 0 1 3.001.001zM660 516.5a1.5 1.5 0 1 1-3.001-.001 1.5 1.5 0 0 1 3.001.001zM680 516.5a1.5 1.5 0 1 1-3.001-.001 1.5 1.5 0 0 1 3.001.001zM700 516.5a1.5 1.5 0 1 1-3.001-.001 1.5 1.5 0 0 1 3.001.001zM720 516.5a1.5 1.5 0 1 1-3.001-.001 1.5 1.5 0 0 1 3.001.001zM740 516.5a1.5 1.5 0 1 1-3.001-.001 1.5 1.5 0 0 1 3.001.001zM760 516.5a1.5 1.5 0 1 1-3.001-.001 1.5 1.5 0 0 1 3.001.001zM780 516.5a1.5 1.5 0 1 1-3.001-.001 1.5 1.5 0 0 1 3.001.001zM800 516.5a1.5 1.5 0 1 1-3.001-.001 1.5 1.5 0 0 1 3.001.001zM640 536.5a1.5 1.5 0 1 1-3.001-.001 1.5 1.5 0 0 1 3.001.001zM660 536.5a1.5 1.5 0 1 1-3.001-.001 1.5 1.5 0 0 1 3.001.001zM680 536.5a1.5 1.5 0 1 1-3.001-.001 1.5 1.5 0 0 1 3.001.001zM700 536.5a1.5 1.5 0 1 1-3.001-.001 1.5 1.5 0 0 1 3.001.001zM720 536.5a1.5 1.5 0 1 1-3.001-.001 1.5 1.5 0 0 1 3.001.001zM740 536.5a1.5 1.5 0 1 1-3.001-.001 1.5 1.5 0 0 1 3.001.001zM760 536.5a1.5 1.5 0 1 1-3.001-.001 1.5 1.5 0 0 1 3.001.001zM780 536.5a1.5 1.5 0 1 1-3.001-.001 1.5 1.5 0 0 1 3.001.001zM800 536.5a1.5 1.5 0 1 1-3.001-.001 1.5 1.5 0 0 1 3.001.001zM640 556.5a1.5 1.5 0 1 1-3.001-.001 1.5 1.5 0 0 1 3.001.001zM660 556.5a1.5 1.5 0 1 1-3.001-.001 1.5 1.5 0 0 1 3.001.001zM680 556.5a1.5 1.5 0 1 1-3.001-.001 1.5 1.5 0 0 1 3.001.001zM700 556.5a1.5 1.5 0 1 1-3.001-.001 1.5 1.5 0 0 1 3.001.001zM720 556.5a1.5 1.5 0 1 1-3.001-.001 1.5 1.5 0 0 1 3.001.001zM740 556.5a1.5 1.5 0 1 1-3.001-.001 1.5 1.5 0 0 1 3.001.001zM760 556.5a1.5 1.5 0 1 1-3.001-.001 1.5 1.5 0 0 1 3.001.001zM780 556.5a1.5 1.5 0 1 1-3.001-.001 1.5 1.5 0 0 1 3.001.001zM800 556.5a1.5 1.5 0 1 1-3.001-.001 1.5 1.5 0 0 1 3.001.001zM640 576.5a1.5 1.5 0 1 1-3.001-.001 1.5 1.5 0 0 1 3.001.001zM660 576.5a1.5 1.5 0 1 1-3.001-.001 1.5 1.5 0 0 1 3.001.001zM680 576.5a1.5 1.5 0 1 1-3.001-.001 1.5 1.5 0 0 1 3.001.001zM700 576.5a1.5 1.5 0 1 1-3.001-.001 1.5 1.5 0 0 1 3.001.001zM720 576.5a1.5 1.5 0 1 1-3.001-.001 1.5 1.5 0 0 1 3.001.001zM740 576.5a1.5 1.5 0 1 1-3.001-.001 1.5 1.5 0 0 1 3.001.001zM760 576.5a1.5 1.5 0 1 1-3.001-.001 1.5 1.5 0 0 1 3.001.001zM780 576.5a1.5 1.5 0 1 1-3.001-.001 1.5 1.5 0 0 1 3.001.001zM800 576.5a1.5 1.5 0 1 1-3.001-.001 1.5 1.5 0 0 1 3.001.001zM640 596.5a1.5 1.5 0 1 1-3.001-.001 1.5 1.5 0 0 1 3.001.001zM660 596.5a1.5 1.5 0 1 1-3.001-.001 1.5 1.5 0 0 1 3.001.001zM680 596.5a1.5 1.5 0 1 1-3.001-.001 1.5 1.5 0 0 1 3.001.001zM700 596.5a1.5 1.5 0 1 1-3.001-.001 1.5 1.5 0 0 1 3.001.001zM720 596.5a1.5 1.5 0 1 1-3.001-.001 1.5 1.5 0 0 1 3.001.001zM740 596.5a1.5 1.5 0 1 1-3.001-.001 1.5 1.5 0 0 1 3.001.001zM760 596.5a1.5 1.5 0 1 1-3.001-.001 1.5 1.5 0 0 1 3.001.001zM780 596.5a1.5 1.5 0 1 1-3.001-.001 1.5 1.5 0 0 1 3.001.001zM640 616.5a1.5 1.5 0 1 1-3.001-.001 1.5 1.5 0 0 1 3.001.001zM660 616.5a1.5 1.5 0 1 1-3.001-.001 1.5 1.5 0 0 1 3.001.001zM680 616.5a1.5 1.5 0 1 1-3.001-.001 1.5 1.5 0 0 1 3.001.001zM700 616.5a1.5 1.5 0 1 1-3.001-.001 1.5 1.5 0 0 1 3.001.001zM720 616.5a1.5 1.5 0 1 1-3.001-.001 1.5 1.5 0 0 1 3.001.001zM740 616.5a1.5 1.5 0 1 1-3.001-.001 1.5 1.5 0 0 1 3.001.001zM640 636.5a1.5 1.5 0 1 1-3.001-.001 1.5 1.5 0 0 1 3.001.001zM660 636.5a1.5 1.5 0 1 1-3.001-.001 1.5 1.5 0 0 1 3.001.001zM680 636.5a1.5 1.5 0 1 1-3.001-.001 1.5 1.5 0 0 1 3.001.001zM700 636.5a1.5 1.5 0 1 1-3.001-.001 1.5 1.5 0 0 1 3.001.001zM640 656.5a1.5 1.5 0 1 1-3.001-.001 1.5 1.5 0 0 1 3.001.001zM660 656.5a1.5 1.5 0 1 1-3.001-.001 1.5 1.5 0 0 1 3.001.001zM120 696.5a1.5 1.5 0 1 1-3.001-.001 1.5 1.5 0 0 1 3.001.001zM140 696.5a1.5 1.5 0 1 1-3.001-.001 1.5 1.5 0 0 1 3.001.001zM160 696.5a1.5 1.5 0 1 1-3.001-.001 1.5 1.5 0 0 1 3.001.001zM180 696.5a1.5 1.5 0 1 1-3.001-.001 1.5 1.5 0 0 1 3.001.001zM200 696.5a1.5 1.5 0 1 1-3.001-.001 1.5 1.5 0 0 1 3.001.001zM220 696.5a1.5 1.5 0 1 1-3.001-.001 1.5 1.5 0 0 1 3.001.001zM240 696.5a1.5 1.5 0 1 1-3.001-.001 1.5 1.5 0 0 1 3.001.001zM260 696.5a1.5 1.5 0 1 1-3.001-.001 1.5 1.5 0 0 1 3.001.001zM280 696.5a1.5 1.5 0 1 1-3.001-.001 1.5 1.5 0 0 1 3.001.001zM300 696.5a1.5 1.5 0 1 1-3.001-.001 1.5 1.5 0 0 1 3.001.001zM320 696.5a1.5 1.5 0 1 1-3.001-.001 1.5 1.5 0 0 1 3.001.001zM340 696.5a1.5 1.5 0 1 1-3.001-.001 1.5 1.5 0 0 1 3.001.001zM360 696.5a1.5 1.5 0 1 1-3.001-.001 1.5 1.5 0 0 1 3.001.001zM380 696.5a1.5 1.5 0 1 1-3.001-.001 1.5 1.5 0 0 1 3.001.001zM400 696.5a1.5 1.5 0 1 1-3.001-.001 1.5 1.5 0 0 1 3.001.001zM420 696.5a1.5 1.5 0 1 1-3.001-.001 1.5 1.5 0 0 1 3.001.001zM440 696.5a1.5 1.5 0 1 1-3.001-.001 1.5 1.5 0 0 1 3.001.001zM460 696.5a1.5 1.5 0 1 1-3.001-.001 1.5 1.5 0 0 1 3.001.001zM480 696.5a1.5 1.5 0 1 1-3.001-.001 1.5 1.5 0 0 1 3.001.001zM500 696.5a1.5 1.5 0 1 1-3.001-.001 1.5 1.5 0 0 1 3.001.001zM520 696.5a1.5 1.5 0 1 1-3.001-.001 1.5 1.5 0 0 1 3.001.001zM540 696.5a1.5 1.5 0 1 1-3.001-.001 1.5 1.5 0 0 1 3.001.001zM560 696.5a1.5 1.5 0 1 1-3.001-.001 1.5 1.5 0 0 1 3.001.001zM20 136.5a1.5 1.5 0 1 1-3 0 1.5 1.5 0 0 1 3 0zM0 156.5a1.5 1.5 0 1 1-3 0 1.5 1.5 0 0 1 3 0zM20 156.5a1.5 1.5 0 1 1-3 0 1.5 1.5 0 0 1 3 0zM0 176.5a1.5 1.5 0 1 1-3 0 1.5 1.5 0 0 1 3 0zM20 176.5a1.5 1.5 0 1 1-3 0 1.5 1.5 0 0 1 3 0zM0 196.5a1.5 1.5 0 1 1-3 0 1.5 1.5 0 0 1 3 0zM20 196.5a1.5 1.5 0 1 1-3 0 1.5 1.5 0 0 1 3 0zM220 16.5a1.5 1.5 0 1 1-3 0 1.5 1.5 0 0 1 3 0zM240 16.5a1.5 1.5 0 1 1-3 0 1.5 1.5 0 0 1 3 0zM260 16.5a1.5 1.5 0 1 1-3 0 1.5 1.5 0 0 1 3 0zM280 16.5a1.5 1.5 0 1 1-3 0 1.5 1.5 0 0 1 3 0zM300 16.5a1.5 1.5 0 1 1-3 0 1.5 1.5 0 0 1 3 0zM320 16.5a1.5 1.5 0 1 1-3 0 1.5 1.5 0 0 1 3 0zM100 36.5a1.5 1.5 0 1 1-3 0 1.5 1.5 0 0 1 3 0zM120 36.5a1.5 1.5 0 1 1-3 0 1.5 1.5 0 0 1 3 0zM140 36.5a1.5 1.5 0 1 1-3 0 1.5 1.5 0 0 1 3 0zM160 36.5a1.5 1.5 0 1 1-3 0 1.5 1.5 0 0 1 3 0zM180 36.5a1.5 1.5 0 1 1-3 0 1.5 1.5 0 0 1 3 0zM200 36.5a1.5 1.5 0 1 1-3 0 1.5 1.5 0 0 1 3 0zM220 36.5a1.5 1.5 0 1 1-3 0 1.5 1.5 0 0 1 3 0zM240 36.5a1.5 1.5 0 1 1-3 0 1.5 1.5 0 0 1 3 0zM260 36.5a1.5 1.5 0 1 1-3 0 1.5 1.5 0 0 1 3 0zM280 36.5a1.5 1.5 0 1 1-3 0 1.5 1.5 0 0 1 3 0zM300 36.5a1.5 1.5 0 1 1-3 0 1.5 1.5 0 0 1 3 0zM320 36.5a1.5 1.5 0 1 1-3 0 1.5 1.5 0 0 1 3 0zM80 56.5a1.5 1.5 0 1 1-3 0 1.5 1.5 0 0 1 3 0zM100 56.5a1.5 1.5 0 1 1-3 0 1.5 1.5 0 0 1 3 0zM120 56.5a1.5 1.5 0 1 1-3 0 1.5 1.5 0 0 1 3 0zM140 56.5a1.5 1.5 0 1 1-3 0 1.5 1.5 0 0 1 3 0zM160 56.5a1.5 1.5 0 1 1-3 0 1.5 1.5 0 0 1 3 0zM180 56.5a1.5 1.5 0 1 1-3 0 1.5 1.5 0 0 1 3 0zM200 56.5a1.5 1.5 0 1 1-3 0 1.5 1.5 0 0 1 3 0zM220 56.5a1.5 1.5 0 1 1-3 0 1.5 1.5 0 0 1 3 0zM240 56.5a1.5 1.5 0 1 1-3 0 1.5 1.5 0 0 1 3 0zM260 56.5a1.5 1.5 0 1 1-3 0 1.5 1.5 0 0 1 3 0zM280 56.5a1.5 1.5 0 1 1-3 0 1.5 1.5 0 0 1 3 0zM300 56.5a1.5 1.5 0 1 1-3 0 1.5 1.5 0 0 1 3 0zM320 56.5a1.5 1.5 0 1 1-3 0 1.5 1.5 0 0 1 3 0zM60 76.5a1.5 1.5 0 1 1-3 0 1.5 1.5 0 0 1 3 0zM80 76.5a1.5 1.5 0 1 1-3 0 1.5 1.5 0 0 1 3 0zM100 76.5a1.5 1.5 0 1 1-3 0 1.5 1.5 0 0 1 3 0zM120 76.5a1.5 1.5 0 1 1-3 0 1.5 1.5 0 0 1 3 0zM140 76.5a1.5 1.5 0 1 1-3 0 1.5 1.5 0 0 1 3 0zM160 76.5a1.5 1.5 0 1 1-3 0 1.5 1.5 0 0 1 3 0zM180 76.5a1.5 1.5 0 1 1-3 0 1.5 1.5 0 0 1 3 0zM200 76.5a1.5 1.5 0 1 1-3 0 1.5 1.5 0 0 1 3 0zM220 76.5a1.5 1.5 0 1 1-3 0 1.5 1.5 0 0 1 3 0zM240 76.5a1.5 1.5 0 1 1-3 0 1.5 1.5 0 0 1 3 0zM260 76.5a1.5 1.5 0 1 1-3 0 1.5 1.5 0 0 1 3 0zM280 76.5a1.5 1.5 0 1 1-3 0 1.5 1.5 0 0 1 3 0zM300 76.5a1.5 1.5 0 1 1-3 0 1.5 1.5 0 0 1 3 0zM320 76.5a1.5 1.5 0 1 1-3 0 1.5 1.5 0 0 1 3 0zM60 96.5a1.5 1.5 0 1 1-3 0 1.5 1.5 0 0 1 3 0zM80 96.5a1.5 1.5 0 1 1-3 0 1.5 1.5 0 0 1 3 0zM100 96.5a1.5 1.5 0 1 1-3 0 1.5 1.5 0 0 1 3 0zM120 96.5a1.5 1.5 0 1 1-3 0 1.5 1.5 0 0 1 3 0zM140 96.5a1.5 1.5 0 1 1-3 0 1.5 1.5 0 0 1 3 0zM160 96.5a1.5 1.5 0 1 1-3 0 1.5 1.5 0 0 1 3 0zM180 96.5a1.5 1.5 0 1 1-3 0 1.5 1.5 0 0 1 3 0zM200 96.5a1.5 1.5 0 1 1-3 0 1.5 1.5 0 0 1 3 0zM220 96.5a1.5 1.5 0 1 1-3 0 1.5 1.5 0 0 1 3 0zM240 96.5a1.5 1.5 0 1 1-3 0 1.5 1.5 0 0 1 3 0zM260 96.5a1.5 1.5 0 1 1-3 0 1.5 1.5 0 0 1 3 0zM280 96.5a1.5 1.5 0 1 1-3 0 1.5 1.5 0 0 1 3 0zM300 96.5a1.5 1.5 0 1 1-3 0 1.5 1.5 0 0 1 3 0zM320 96.5a1.5 1.5 0 1 1-3 0 1.5 1.5 0 0 1 3 0zM40 116.5a1.5 1.5 0 1 1-3 0 1.5 1.5 0 0 1 3 0zM60 116.5a1.5 1.5 0 1 1-3 0 1.5 1.5 0 0 1 3 0zM80 116.5a1.5 1.5 0 1 1-3 0 1.5 1.5 0 0 1 3 0zM100 116.5a1.5 1.5 0 1 1-3 0 1.5 1.5 0 0 1 3 0zM120 116.5a1.5 1.5 0 1 1-3.001-.001 1.5 1.5 0 0 1 3.001.001zM140 116.5a1.5 1.5 0 1 1-3.001-.001 1.5 1.5 0 0 1 3.001.001zM160 116.5a1.5 1.5 0 1 1-3.001-.001 1.5 1.5 0 0 1 3.001.001zM180 116.5a1.5 1.5 0 1 1-3.001-.001 1.5 1.5 0 0 1 3.001.001zM200 116.5a1.5 1.5 0 1 1-3.001-.001 1.5 1.5 0 0 1 3.001.001zM220 116.5a1.5 1.5 0 1 1-3.001-.001 1.5 1.5 0 0 1 3.001.001zM240 116.5a1.5 1.5 0 1 1-3.001-.001 1.5 1.5 0 0 1 3.001.001zM260 116.5a1.5 1.5 0 1 1-3.001-.001 1.5 1.5 0 0 1 3.001.001zM280 116.5a1.5 1.5 0 1 1-3.001-.001 1.5 1.5 0 0 1 3.001.001zM300 116.5a1.5 1.5 0 1 1-3.001-.001 1.5 1.5 0 0 1 3.001.001zM320 116.5a1.5 1.5 0 1 1-3.001-.001 1.5 1.5 0 0 1 3.001.001zM40 136.5a1.5 1.5 0 1 1-3 0 1.5 1.5 0 0 1 3 0zM60 136.5a1.5 1.5 0 1 1-3 0 1.5 1.5 0 0 1 3 0zM80 136.5a1.5 1.5 0 1 1-3 0 1.5 1.5 0 0 1 3 0zM100 136.5a1.5 1.5 0 1 1-3 0 1.5 1.5 0 0 1 3 0zM120 136.5a1.5 1.5 0 1 1-3.001-.001 1.5 1.5 0 0 1 3.001.001zM140 136.5a1.5 1.5 0 1 1-3.001-.001 1.5 1.5 0 0 1 3.001.001zM160 136.5a1.5 1.5 0 1 1-3.001-.001 1.5 1.5 0 0 1 3.001.001zM180 136.5a1.5 1.5 0 1 1-3.001-.001 1.5 1.5 0 0 1 3.001.001zM200 136.5a1.5 1.5 0 1 1-3.001-.001 1.5 1.5 0 0 1 3.001.001zM220 136.5a1.5 1.5 0 1 1-3.001-.001 1.5 1.5 0 0 1 3.001.001zM240 136.5a1.5 1.5 0 1 1-3.001-.001 1.5 1.5 0 0 1 3.001.001zM260 136.5a1.5 1.5 0 1 1-3.001-.001 1.5 1.5 0 0 1 3.001.001zM280 136.5a1.5 1.5 0 1 1-3.001-.001 1.5 1.5 0 0 1 3.001.001zM300 136.5a1.5 1.5 0 1 1-3.001-.001 1.5 1.5 0 0 1 3.001.001zM320 136.5a1.5 1.5 0 1 1-3.001-.001 1.5 1.5 0 0 1 3.001.001zM40 156.5a1.5 1.5 0 1 1-3 0 1.5 1.5 0 0 1 3 0zM60 156.5a1.5 1.5 0 1 1-3 0 1.5 1.5 0 0 1 3 0zM80 156.5a1.5 1.5 0 1 1-3 0 1.5 1.5 0 0 1 3 0zM100 156.5a1.5 1.5 0 1 1-3 0 1.5 1.5 0 0 1 3 0zM120 156.5a1.5 1.5 0 1 1-3.001-.001 1.5 1.5 0 0 1 3.001.001zM140 156.5a1.5 1.5 0 1 1-3.001-.001 1.5 1.5 0 0 1 3.001.001zM160 156.5a1.5 1.5 0 1 1-3.001-.001 1.5 1.5 0 0 1 3.001.001zM180 156.5a1.5 1.5 0 1 1-3.001-.001 1.5 1.5 0 0 1 3.001.001zM200 156.5a1.5 1.5 0 1 1-3.001-.001 1.5 1.5 0 0 1 3.001.001zM220 156.5a1.5 1.5 0 1 1-3.001-.001 1.5 1.5 0 0 1 3.001.001zM240 156.5a1.5 1.5 0 1 1-3.001-.001 1.5 1.5 0 0 1 3.001.001zM260 156.5a1.5 1.5 0 1 1-3.001-.001 1.5 1.5 0 0 1 3.001.001zM280 156.5a1.5 1.5 0 1 1-3.001-.001 1.5 1.5 0 0 1 3.001.001zM300 156.5a1.5 1.5 0 1 1-3.001-.001 1.5 1.5 0 0 1 3.001.001zM320 156.5a1.5 1.5 0 1 1-3.001-.001 1.5 1.5 0 0 1 3.001.001zM40 176.5a1.5 1.5 0 1 1-3 0 1.5 1.5 0 0 1 3 0zM60 176.5a1.5 1.5 0 1 1-3 0 1.5 1.5 0 0 1 3 0zM80 176.5a1.5 1.5 0 1 1-3 0 1.5 1.5 0 0 1 3 0zM100 176.5a1.5 1.5 0 1 1-3 0 1.5 1.5 0 0 1 3 0zM120 176.5a1.5 1.5 0 1 1-3.001-.001 1.5 1.5 0 0 1 3.001.001zM140 176.5a1.5 1.5 0 1 1-3.001-.001 1.5 1.5 0 0 1 3.001.001zM160 176.5a1.5 1.5 0 1 1-3.001-.001 1.5 1.5 0 0 1 3.001.001zM180 176.5a1.5 1.5 0 1 1-3.001-.001 1.5 1.5 0 0 1 3.001.001zM200 176.5a1.5 1.5 0 1 1-3.001-.001 1.5 1.5 0 0 1 3.001.001zM220 176.5a1.5 1.5 0 1 1-3.001-.001 1.5 1.5 0 0 1 3.001.001zM240 176.5a1.5 1.5 0 1 1-3.001-.001 1.5 1.5 0 0 1 3.001.001zM260 176.5a1.5 1.5 0 1 1-3.001-.001 1.5 1.5 0 0 1 3.001.001zM280 176.5a1.5 1.5 0 1 1-3.001-.001 1.5 1.5 0 0 1 3.001.001zM300 176.5a1.5 1.5 0 1 1-3.001-.001 1.5 1.5 0 0 1 3.001.001zM320 176.5a1.5 1.5 0 1 1-3.001-.001 1.5 1.5 0 0 1 3.001.001zM40 196.5a1.5 1.5 0 1 1-3 0 1.5 1.5 0 0 1 3 0zM60 196.5a1.5 1.5 0 1 1-3 0 1.5 1.5 0 0 1 3 0zM80 196.5a1.5 1.5 0 1 1-3 0 1.5 1.5 0 0 1 3 0zM100 196.5a1.5 1.5 0 1 1-3 0 1.5 1.5 0 0 1 3 0zM120 196.5a1.5 1.5 0 1 1-3.001-.001 1.5 1.5 0 0 1 3.001.001zM140 196.5a1.5 1.5 0 1 1-3.001-.001 1.5 1.5 0 0 1 3.001.001zM160 196.5a1.5 1.5 0 1 1-3.001-.001 1.5 1.5 0 0 1 3.001.001zM180 196.5a1.5 1.5 0 1 1-3.001-.001 1.5 1.5 0 0 1 3.001.001zM200 196.5a1.5 1.5 0 1 1-3.001-.001 1.5 1.5 0 0 1 3.001.001zM220 196.5a1.5 1.5 0 1 1-3.001-.001 1.5 1.5 0 0 1 3.001.001zM240 196.5a1.5 1.5 0 1 1-3.001-.001 1.5 1.5 0 0 1 3.001.001zM260 196.5a1.5 1.5 0 1 1-3.001-.001 1.5 1.5 0 0 1 3.001.001zM280 196.5a1.5 1.5 0 1 1-3.001-.001 1.5 1.5 0 0 1 3.001.001zM300 196.5a1.5 1.5 0 1 1-3.001-.001 1.5 1.5 0 0 1 3.001.001zM320 196.5a1.5 1.5 0 1 1-3.001-.001 1.5 1.5 0 0 1 3.001.001zM340 16.5a1.5 1.5 0 1 1-3 0 1.5 1.5 0 0 1 3 0zM360 16.5a1.5 1.5 0 1 1-3 0 1.5 1.5 0 0 1 3 0zM380 16.5a1.5 1.5 0 1 1-3 0 1.5 1.5 0 0 1 3 0zM400 16.5a1.5 1.5 0 1 1-3 0 1.5 1.5 0 0 1 3 0zM420 16.5a1.5 1.5 0 1 1-3 0 1.5 1.5 0 0 1 3 0zM440 16.5a1.5 1.5 0 1 1-3 0 1.5 1.5 0 0 1 3 0zM460 16.5a1.5 1.5 0 1 1-3 0 1.5 1.5 0 0 1 3 0zM480 16.5a1.5 1.5 0 1 1-3 0 1.5 1.5 0 0 1 3 0zM500 16.5a1.5 1.5 0 1 1-3 0 1.5 1.5 0 0 1 3 0zM520 16.5a1.5 1.5 0 1 1-3 0 1.5 1.5 0 0 1 3 0zM540 16.5a1.5 1.5 0 1 1-3 0 1.5 1.5 0 0 1 3 0zM560 16.5a1.5 1.5 0 1 1-3 0 1.5 1.5 0 0 1 3 0zM580 16.5a1.5 1.5 0 1 1-3 0 1.5 1.5 0 0 1 3 0zM600 16.5a1.5 1.5 0 1 1-3 0 1.5 1.5 0 0 1 3 0zM620 16.5a1.5 1.5 0 1 1-3 0 1.5 1.5 0 0 1 3 0zM340 36.5a1.5 1.5 0 1 1-3 0 1.5 1.5 0 0 1 3 0zM360 36.5a1.5 1.5 0 1 1-3 0 1.5 1.5 0 0 1 3 0zM380 36.5a1.5 1.5 0 1 1-3 0 1.5 1.5 0 0 1 3 0zM400 36.5a1.5 1.5 0 1 1-3 0 1.5 1.5 0 0 1 3 0zM420 36.5a1.5 1.5 0 1 1-3 0 1.5 1.5 0 0 1 3 0zM440 36.5a1.5 1.5 0 1 1-3 0 1.5 1.5 0 0 1 3 0zM460 36.5a1.5 1.5 0 1 1-3 0 1.5 1.5 0 0 1 3 0zM480 36.5a1.5 1.5 0 1 1-3 0 1.5 1.5 0 0 1 3 0zM500 36.5a1.5 1.5 0 1 1-3 0 1.5 1.5 0 0 1 3 0zM520 36.5a1.5 1.5 0 1 1-3 0 1.5 1.5 0 0 1 3 0zM540 36.5a1.5 1.5 0 1 1-3 0 1.5 1.5 0 0 1 3 0zM560 36.5a1.5 1.5 0 1 1-3 0 1.5 1.5 0 0 1 3 0zM580 36.5a1.5 1.5 0 1 1-3 0 1.5 1.5 0 0 1 3 0zM600 36.5a1.5 1.5 0 1 1-3 0 1.5 1.5 0 0 1 3 0zM620 36.5a1.5 1.5 0 1 1-3 0 1.5 1.5 0 0 1 3 0zM340 56.5a1.5 1.5 0 1 1-3 0 1.5 1.5 0 0 1 3 0zM360 56.5a1.5 1.5 0 1 1-3 0 1.5 1.5 0 0 1 3 0zM380 56.5a1.5 1.5 0 1 1-3 0 1.5 1.5 0 0 1 3 0zM400 56.5a1.5 1.5 0 1 1-3 0 1.5 1.5 0 0 1 3 0zM420 56.5a1.5 1.5 0 1 1-3 0 1.5 1.5 0 0 1 3 0zM440 56.5a1.5 1.5 0 1 1-3 0 1.5 1.5 0 0 1 3 0zM460 56.5a1.5 1.5 0 1 1-3 0 1.5 1.5 0 0 1 3 0zM480 56.5a1.5 1.5 0 1 1-3 0 1.5 1.5 0 0 1 3 0zM500 56.5a1.5 1.5 0 1 1-3 0 1.5 1.5 0 0 1 3 0zM520 56.5a1.5 1.5 0 1 1-3 0 1.5 1.5 0 0 1 3 0zM540 56.5a1.5 1.5 0 1 1-3 0 1.5 1.5 0 0 1 3 0zM560 56.5a1.5 1.5 0 1 1-3 0 1.5 1.5 0 0 1 3 0zM580 56.5a1.5 1.5 0 1 1-3 0 1.5 1.5 0 0 1 3 0zM600 56.5a1.5 1.5 0 1 1-3 0 1.5 1.5 0 0 1 3 0zM620 56.5a1.5 1.5 0 1 1-3 0 1.5 1.5 0 0 1 3 0zM340 76.5a1.5 1.5 0 1 1-3 0 1.5 1.5 0 0 1 3 0zM360 76.5a1.5 1.5 0 1 1-3 0 1.5 1.5 0 0 1 3 0zM380 76.5a1.5 1.5 0 1 1-3 0 1.5 1.5 0 0 1 3 0zM400 76.5a1.5 1.5 0 1 1-3 0 1.5 1.5 0 0 1 3 0zM420 76.5a1.5 1.5 0 1 1-3 0 1.5 1.5 0 0 1 3 0zM440 76.5a1.5 1.5 0 1 1-3 0 1.5 1.5 0 0 1 3 0zM460 76.5a1.5 1.5 0 1 1-3 0 1.5 1.5 0 0 1 3 0zM480 76.5a1.5 1.5 0 1 1-3 0 1.5 1.5 0 0 1 3 0zM500 76.5a1.5 1.5 0 1 1-3 0 1.5 1.5 0 0 1 3 0zM520 76.5a1.5 1.5 0 1 1-3 0 1.5 1.5 0 0 1 3 0zM540 76.5a1.5 1.5 0 1 1-3 0 1.5 1.5 0 0 1 3 0zM560 76.5a1.5 1.5 0 1 1-3 0 1.5 1.5 0 0 1 3 0zM580 76.5a1.5 1.5 0 1 1-3 0 1.5 1.5 0 0 1 3 0zM600 76.5a1.5 1.5 0 1 1-3 0 1.5 1.5 0 0 1 3 0zM620 76.5a1.5 1.5 0 1 1-3 0 1.5 1.5 0 0 1 3 0zM340 96.5a1.5 1.5 0 1 1-3 0 1.5 1.5 0 0 1 3 0zM360 96.5a1.5 1.5 0 1 1-3 0 1.5 1.5 0 0 1 3 0zM380 96.5a1.5 1.5 0 1 1-3 0 1.5 1.5 0 0 1 3 0zM400 96.5a1.5 1.5 0 1 1-3 0 1.5 1.5 0 0 1 3 0zM420 96.5a1.5 1.5 0 1 1-3 0 1.5 1.5 0 0 1 3 0zM440 96.5a1.5 1.5 0 1 1-3 0 1.5 1.5 0 0 1 3 0zM460 96.5a1.5 1.5 0 1 1-3 0 1.5 1.5 0 0 1 3 0zM480 96.5a1.5 1.5 0 1 1-3 0 1.5 1.5 0 0 1 3 0zM500 96.5a1.5 1.5 0 1 1-3 0 1.5 1.5 0 0 1 3 0zM520 96.5a1.5 1.5 0 1 1-3 0 1.5 1.5 0 0 1 3 0zM540 96.5a1.5 1.5 0 1 1-3 0 1.5 1.5 0 0 1 3 0zM560 96.5a1.5 1.5 0 1 1-3 0 1.5 1.5 0 0 1 3 0zM580 96.5a1.5 1.5 0 1 1-3 0 1.5 1.5 0 0 1 3 0zM600 96.5a1.5 1.5 0 1 1-3 0 1.5 1.5 0 0 1 3 0zM620 96.5a1.5 1.5 0 1 1-3 0 1.5 1.5 0 0 1 3 0zM340 116.5a1.5 1.5 0 1 1-3.001-.001 1.5 1.5 0 0 1 3.001.001zM360 116.5a1.5 1.5 0 1 1-3.001-.001 1.5 1.5 0 0 1 3.001.001zM380 116.5a1.5 1.5 0 1 1-3.001-.001 1.5 1.5 0 0 1 3.001.001zM400 116.5a1.5 1.5 0 1 1-3.001-.001 1.5 1.5 0 0 1 3.001.001zM420 116.5a1.5 1.5 0 1 1-3.001-.001 1.5 1.5 0 0 1 3.001.001zM440 116.5a1.5 1.5 0 1 1-3.001-.001 1.5 1.5 0 0 1 3.001.001zM460 116.5a1.5 1.5 0 1 1-3.001-.001 1.5 1.5 0 0 1 3.001.001zM480 116.5a1.5 1.5 0 1 1-3.001-.001 1.5 1.5 0 0 1 3.001.001zM500 116.5a1.5 1.5 0 1 1-3.001-.001 1.5 1.5 0 0 1 3.001.001zM520 116.5a1.5 1.5 0 1 1-3.001-.001 1.5 1.5 0 0 1 3.001.001zM540 116.5a1.5 1.5 0 1 1-3.001-.001 1.5 1.5 0 0 1 3.001.001zM560 116.5a1.5 1.5 0 1 1-3.001-.001 1.5 1.5 0 0 1 3.001.001zM580 116.5a1.5 1.5 0 1 1-3.001-.001 1.5 1.5 0 0 1 3.001.001zM600 116.5a1.5 1.5 0 1 1-3.001-.001 1.5 1.5 0 0 1 3.001.001zM620 116.5a1.5 1.5 0 1 1-3.001-.001 1.5 1.5 0 0 1 3.001.001zM340 136.5a1.5 1.5 0 1 1-3.001-.001 1.5 1.5 0 0 1 3.001.001zM360 136.5a1.5 1.5 0 1 1-3.001-.001 1.5 1.5 0 0 1 3.001.001zM380 136.5a1.5 1.5 0 1 1-3.001-.001 1.5 1.5 0 0 1 3.001.001zM400 136.5a1.5 1.5 0 1 1-3.001-.001 1.5 1.5 0 0 1 3.001.001zM420 136.5a1.5 1.5 0 1 1-3.001-.001 1.5 1.5 0 0 1 3.001.001zM440 136.5a1.5 1.5 0 1 1-3.001-.001 1.5 1.5 0 0 1 3.001.001zM460 136.5a1.5 1.5 0 1 1-3.001-.001 1.5 1.5 0 0 1 3.001.001zM480 136.5a1.5 1.5 0 1 1-3.001-.001 1.5 1.5 0 0 1 3.001.001zM500 136.5a1.5 1.5 0 1 1-3.001-.001 1.5 1.5 0 0 1 3.001.001zM520 136.5a1.5 1.5 0 1 1-3.001-.001 1.5 1.5 0 0 1 3.001.001zM540 136.5a1.5 1.5 0 1 1-3.001-.001 1.5 1.5 0 0 1 3.001.001zM560 136.5a1.5 1.5 0 1 1-3.001-.001 1.5 1.5 0 0 1 3.001.001zM580 136.5a1.5 1.5 0 1 1-3.001-.001 1.5 1.5 0 0 1 3.001.001zM600 136.5a1.5 1.5 0 1 1-3.001-.001 1.5 1.5 0 0 1 3.001.001zM620 136.5a1.5 1.5 0 1 1-3.001-.001 1.5 1.5 0 0 1 3.001.001zM340 156.5a1.5 1.5 0 1 1-3.001-.001 1.5 1.5 0 0 1 3.001.001zM360 156.5a1.5 1.5 0 1 1-3.001-.001 1.5 1.5 0 0 1 3.001.001zM380 156.5a1.5 1.5 0 1 1-3.001-.001 1.5 1.5 0 0 1 3.001.001zM400 156.5a1.5 1.5 0 1 1-3.001-.001 1.5 1.5 0 0 1 3.001.001zM420 156.5a1.5 1.5 0 1 1-3.001-.001 1.5 1.5 0 0 1 3.001.001zM440 156.5a1.5 1.5 0 1 1-3.001-.001 1.5 1.5 0 0 1 3.001.001zM460 156.5a1.5 1.5 0 1 1-3.001-.001 1.5 1.5 0 0 1 3.001.001zM480 156.5a1.5 1.5 0 1 1-3.001-.001 1.5 1.5 0 0 1 3.001.001zM500 156.5a1.5 1.5 0 1 1-3.001-.001 1.5 1.5 0 0 1 3.001.001zM520 156.5a1.5 1.5 0 1 1-3.001-.001 1.5 1.5 0 0 1 3.001.001zM540 156.5a1.5 1.5 0 1 1-3.001-.001 1.5 1.5 0 0 1 3.001.001zM560 156.5a1.5 1.5 0 1 1-3.001-.001 1.5 1.5 0 0 1 3.001.001zM580 156.5a1.5 1.5 0 1 1-3.001-.001 1.5 1.5 0 0 1 3.001.001zM600 156.5a1.5 1.5 0 1 1-3.001-.001 1.5 1.5 0 0 1 3.001.001zM620 156.5a1.5 1.5 0 1 1-3.001-.001 1.5 1.5 0 0 1 3.001.001zM340 176.5a1.5 1.5 0 1 1-3.001-.001 1.5 1.5 0 0 1 3.001.001zM360 176.5a1.5 1.5 0 1 1-3.001-.001 1.5 1.5 0 0 1 3.001.001zM380 176.5a1.5 1.5 0 1 1-3.001-.001 1.5 1.5 0 0 1 3.001.001zM400 176.5a1.5 1.5 0 1 1-3.001-.001 1.5 1.5 0 0 1 3.001.001zM420 176.5a1.5 1.5 0 1 1-3.001-.001 1.5 1.5 0 0 1 3.001.001zM440 176.5a1.5 1.5 0 1 1-3.001-.001 1.5 1.5 0 0 1 3.001.001zM460 176.5a1.5 1.5 0 1 1-3.001-.001 1.5 1.5 0 0 1 3.001.001zM480 176.5a1.5 1.5 0 1 1-3.001-.001 1.5 1.5 0 0 1 3.001.001zM500 176.5a1.5 1.5 0 1 1-3.001-.001 1.5 1.5 0 0 1 3.001.001zM520 176.5a1.5 1.5 0 1 1-3.001-.001 1.5 1.5 0 0 1 3.001.001zM540 176.5a1.5 1.5 0 1 1-3.001-.001 1.5 1.5 0 0 1 3.001.001zM560 176.5a1.5 1.5 0 1 1-3.001-.001 1.5 1.5 0 0 1 3.001.001zM580 176.5a1.5 1.5 0 1 1-3.001-.001 1.5 1.5 0 0 1 3.001.001zM600 176.5a1.5 1.5 0 1 1-3.001-.001 1.5 1.5 0 0 1 3.001.001zM620 176.5a1.5 1.5 0 1 1-3.001-.001 1.5 1.5 0 0 1 3.001.001zM340 196.5a1.5 1.5 0 1 1-3.001-.001 1.5 1.5 0 0 1 3.001.001zM360 196.5a1.5 1.5 0 1 1-3.001-.001 1.5 1.5 0 0 1 3.001.001zM380 196.5a1.5 1.5 0 1 1-3.001-.001 1.5 1.5 0 0 1 3.001.001zM400 196.5a1.5 1.5 0 1 1-3.001-.001 1.5 1.5 0 0 1 3.001.001zM420 196.5a1.5 1.5 0 1 1-3.001-.001 1.5 1.5 0 0 1 3.001.001zM440 196.5a1.5 1.5 0 1 1-3.001-.001 1.5 1.5 0 0 1 3.001.001zM460 196.5a1.5 1.5 0 1 1-3.001-.001 1.5 1.5 0 0 1 3.001.001zM480 196.5a1.5 1.5 0 1 1-3.001-.001 1.5 1.5 0 0 1 3.001.001zM500 196.5a1.5 1.5 0 1 1-3.001-.001 1.5 1.5 0 0 1 3.001.001zM520 196.5a1.5 1.5 0 1 1-3.001-.001 1.5 1.5 0 0 1 3.001.001zM540 196.5a1.5 1.5 0 1 1-3.001-.001 1.5 1.5 0 0 1 3.001.001zM560 196.5a1.5 1.5 0 1 1-3.001-.001 1.5 1.5 0 0 1 3.001.001zM580 196.5a1.5 1.5 0 1 1-3.001-.001 1.5 1.5 0 0 1 3.001.001zM600 196.5a1.5 1.5 0 1 1-3.001-.001 1.5 1.5 0 0 1 3.001.001zM620 196.5a1.5 1.5 0 1 1-3.001-.001 1.5 1.5 0 0 1 3.001.001zM640 16.5a1.5 1.5 0 1 1-3 0 1.5 1.5 0 0 1 3 0zM660 16.5a1.5 1.5 0 1 1-3 0 1.5 1.5 0 0 1 3 0zM680 16.5a1.5 1.5 0 1 1-3 0 1.5 1.5 0 0 1 3 0zM700 16.5a1.5 1.5 0 1 1-3 0 1.5 1.5 0 0 1 3 0zM720 16.5a1.5 1.5 0 1 1-3 0 1.5 1.5 0 0 1 3 0zM740 16.5a1.5 1.5 0 1 1-3 0 1.5 1.5 0 0 1 3 0zM760 16.5a1.5 1.5 0 1 1-3 0 1.5 1.5 0 0 1 3 0zM640 36.5a1.5 1.5 0 1 1-3 0 1.5 1.5 0 0 1 3 0zM660 36.5a1.5 1.5 0 1 1-3 0 1.5 1.5 0 0 1 3 0zM680 36.5a1.5 1.5 0 1 1-3 0 1.5 1.5 0 0 1 3 0zM700 36.5a1.5 1.5 0 1 1-3 0 1.5 1.5 0 0 1 3 0zM720 36.5a1.5 1.5 0 1 1-3 0 1.5 1.5 0 0 1 3 0zM740 36.5a1.5 1.5 0 1 1-3 0 1.5 1.5 0 0 1 3 0zM760 36.5a1.5 1.5 0 1 1-3 0 1.5 1.5 0 0 1 3 0zM780 36.5a1.5 1.5 0 1 1-3 0 1.5 1.5 0 0 1 3 0zM640 56.5a1.5 1.5 0 1 1-3 0 1.5 1.5 0 0 1 3 0zM660 56.5a1.5 1.5 0 1 1-3 0 1.5 1.5 0 0 1 3 0zM680 56.5a1.5 1.5 0 1 1-3 0 1.5 1.5 0 0 1 3 0zM700 56.5a1.5 1.5 0 1 1-3 0 1.5 1.5 0 0 1 3 0zM720 56.5a1.5 1.5 0 1 1-3 0 1.5 1.5 0 0 1 3 0zM740 56.5a1.5 1.5 0 1 1-3 0 1.5 1.5 0 0 1 3 0zM760 56.5a1.5 1.5 0 1 1-3 0 1.5 1.5 0 0 1 3 0zM780 56.5a1.5 1.5 0 1 1-3 0 1.5 1.5 0 0 1 3 0zM800 56.5a1.5 1.5 0 1 1-3 0 1.5 1.5 0 0 1 3 0zM640 76.5a1.5 1.5 0 1 1-3 0 1.5 1.5 0 0 1 3 0zM660 76.5a1.5 1.5 0 1 1-3 0 1.5 1.5 0 0 1 3 0zM680 76.5a1.5 1.5 0 1 1-3 0 1.5 1.5 0 0 1 3 0zM700 76.5a1.5 1.5 0 1 1-3 0 1.5 1.5 0 0 1 3 0zM720 76.5a1.5 1.5 0 1 1-3 0 1.5 1.5 0 0 1 3 0zM740 76.5a1.5 1.5 0 1 1-3 0 1.5 1.5 0 0 1 3 0zM760 76.5a1.5 1.5 0 1 1-3 0 1.5 1.5 0 0 1 3 0zM780 76.5a1.5 1.5 0 1 1-3 0 1.5 1.5 0 0 1 3 0zM800 76.5a1.5 1.5 0 1 1-3 0 1.5 1.5 0 0 1 3 0zM640 96.5a1.5 1.5 0 1 1-3 0 1.5 1.5 0 0 1 3 0zM660 96.5a1.5 1.5 0 1 1-3 0 1.5 1.5 0 0 1 3 0zM680 96.5a1.5 1.5 0 1 1-3 0 1.5 1.5 0 0 1 3 0zM700 96.5a1.5 1.5 0 1 1-3 0 1.5 1.5 0 0 1 3 0zM720 96.5a1.5 1.5 0 1 1-3 0 1.5 1.5 0 0 1 3 0zM740 96.5a1.5 1.5 0 1 1-3 0 1.5 1.5 0 0 1 3 0zM760 96.5a1.5 1.5 0 1 1-3 0 1.5 1.5 0 0 1 3 0zM780 96.5a1.5 1.5 0 1 1-3 0 1.5 1.5 0 0 1 3 0zM800 96.5a1.5 1.5 0 1 1-3 0 1.5 1.5 0 0 1 3 0zM640 116.5a1.5 1.5 0 1 1-3.001-.001 1.5 1.5 0 0 1 3.001.001zM660 116.5a1.5 1.5 0 1 1-3.001-.001 1.5 1.5 0 0 1 3.001.001zM680 116.5a1.5 1.5 0 1 1-3.001-.001 1.5 1.5 0 0 1 3.001.001zM700 116.5a1.5 1.5 0 1 1-3.001-.001 1.5 1.5 0 0 1 3.001.001zM720 116.5a1.5 1.5 0 1 1-3.001-.001 1.5 1.5 0 0 1 3.001.001zM740 116.5a1.5 1.5 0 1 1-3.001-.001 1.5 1.5 0 0 1 3.001.001zM760 116.5a1.5 1.5 0 1 1-3.001-.001 1.5 1.5 0 0 1 3.001.001zM780 116.5a1.5 1.5 0 1 1-3.001-.001 1.5 1.5 0 0 1 3.001.001zM800 116.5a1.5 1.5 0 1 1-3.001-.001 1.5 1.5 0 0 1 3.001.001zM640 136.5a1.5 1.5 0 1 1-3.001-.001 1.5 1.5 0 0 1 3.001.001zM660 136.5a1.5 1.5 0 1 1-3.001-.001 1.5 1.5 0 0 1 3.001.001zM680 136.5a1.5 1.5 0 1 1-3.001-.001 1.5 1.5 0 0 1 3.001.001zM700 136.5a1.5 1.5 0 1 1-3.001-.001 1.5 1.5 0 0 1 3.001.001zM720 136.5a1.5 1.5 0 1 1-3.001-.001 1.5 1.5 0 0 1 3.001.001zM740 136.5a1.5 1.5 0 1 1-3.001-.001 1.5 1.5 0 0 1 3.001.001zM760 136.5a1.5 1.5 0 1 1-3.001-.001 1.5 1.5 0 0 1 3.001.001zM780 136.5a1.5 1.5 0 1 1-3.001-.001 1.5 1.5 0 0 1 3.001.001zM800 136.5a1.5 1.5 0 1 1-3.001-.001 1.5 1.5 0 0 1 3.001.001zM640 156.5a1.5 1.5 0 1 1-3.001-.001 1.5 1.5 0 0 1 3.001.001zM660 156.5a1.5 1.5 0 1 1-3.001-.001 1.5 1.5 0 0 1 3.001.001zM680 156.5a1.5 1.5 0 1 1-3.001-.001 1.5 1.5 0 0 1 3.001.001zM700 156.5a1.5 1.5 0 1 1-3.001-.001 1.5 1.5 0 0 1 3.001.001zM720 156.5a1.5 1.5 0 1 1-3.001-.001 1.5 1.5 0 0 1 3.001.001zM740 156.5a1.5 1.5 0 1 1-3.001-.001 1.5 1.5 0 0 1 3.001.001zM760 156.5a1.5 1.5 0 1 1-3.001-.001 1.5 1.5 0 0 1 3.001.001zM780 156.5a1.5 1.5 0 1 1-3.001-.001 1.5 1.5 0 0 1 3.001.001zM800 156.5a1.5 1.5 0 1 1-3.001-.001 1.5 1.5 0 0 1 3.001.001zM640 176.5a1.5 1.5 0 1 1-3.001-.001 1.5 1.5 0 0 1 3.001.001zM660 176.5a1.5 1.5 0 1 1-3.001-.001 1.5 1.5 0 0 1 3.001.001zM680 176.5a1.5 1.5 0 1 1-3.001-.001 1.5 1.5 0 0 1 3.001.001zM700 176.5a1.5 1.5 0 1 1-3.001-.001 1.5 1.5 0 0 1 3.001.001zM720 176.5a1.5 1.5 0 1 1-3.001-.001 1.5 1.5 0 0 1 3.001.001zM740 176.5a1.5 1.5 0 1 1-3.001-.001 1.5 1.5 0 0 1 3.001.001zM760 176.5a1.5 1.5 0 1 1-3.001-.001 1.5 1.5 0 0 1 3.001.001zM780 176.5a1.5 1.5 0 1 1-3.001-.001 1.5 1.5 0 0 1 3.001.001zM800 176.5a1.5 1.5 0 1 1-3.001-.001 1.5 1.5 0 0 1 3.001.001zM640 196.5a1.5 1.5 0 1 1-3.001-.001 1.5 1.5 0 0 1 3.001.001zM660 196.5a1.5 1.5 0 1 1-3.001-.001 1.5 1.5 0 0 1 3.001.001zM680 196.5a1.5 1.5 0 1 1-3.001-.001 1.5 1.5 0 0 1 3.001.001zM700 196.5a1.5 1.5 0 1 1-3.001-.001 1.5 1.5 0 0 1 3.001.001zM720 196.5a1.5 1.5 0 1 1-3.001-.001 1.5 1.5 0 0 1 3.001.001zM740 196.5a1.5 1.5 0 1 1-3.001-.001 1.5 1.5 0 0 1 3.001.001zM760 196.5a1.5 1.5 0 1 1-3.001-.001 1.5 1.5 0 0 1 3.001.001zM780 196.5a1.5 1.5 0 1 1-3.001-.001 1.5 1.5 0 0 1 3.001.001zM800 196.5a1.5 1.5 0 1 1-3.001-.001 1.5 1.5 0 0 1 3.001.001zM-20 216.5a1.5 1.5 0 1 1-3 0 1.5 1.5 0 0 1 3 0zM-20 236.5a1.5 1.5 0 1 1-3 0 1.5 1.5 0 0 1 3 0zM-20 256.5a1.5 1.5 0 1 1-3 0 1.5 1.5 0 0 1 3 0zM-20 276.5a1.5 1.5 0 1 1-3 0 1.5 1.5 0 0 1 3 0zM-20 296.5a1.5 1.5 0 1 1-3 0 1.5 1.5 0 0 1 3 0zM-20 316.5a1.5 1.5 0 1 1-3 0 1.5 1.5 0 0 1 3 0zM-20 336.5a1.5 1.5 0 1 1-3 0 1.5 1.5 0 0 1 3 0zM-20 356.5a1.5 1.5 0 1 1-3 0 1.5 1.5 0 0 1 3 0zM-20 376.5a1.5 1.5 0 1 1-3 0 1.5 1.5 0 0 1 3 0zM-20 396.5a1.5 1.5 0 1 1-3 0 1.5 1.5 0 0 1 3 0zM-20 416.5a1.5 1.5 0 1 1-3 0 1.5 1.5 0 0 1 3 0zM-20 436.5a1.5 1.5 0 1 1-3 0 1.5 1.5 0 0 1 3 0zM-20 456.5a1.5 1.5 0 1 1-3 0 1.5 1.5 0 0 1 3 0zM-20 476.5a1.5 1.5 0 1 1-3 0 1.5 1.5 0 0 1 3 0zM-20 496.5a1.5 1.5 0 1 1-3 0 1.5 1.5 0 0 1 3 0zM-20 516.5a1.5 1.5 0 1 1-3 0 1.5 1.5 0 0 1 3 0zM-20 176.5a1.5 1.5 0 1 1-3 0 1.5 1.5 0 0 1 3 0zM-20 196.5a1.5 1.5 0 1 1-3 0 1.5 1.5 0 0 1 3 0z"/></g><path d="M176.167 74.101l31.523 30.326c3.927 3.778 2.222 10.396-3.041 11.806l-43.66 11.699c-5.263 1.41-10.049-3.469-8.537-8.704l12.137-42.025c1.462-5.062 7.781-6.755 11.578-3.102z" fill="url(#paint0_linear)" filter="url(#filter0_di)"/><path d="M233.334 68.202l63.046 60.652c7.854 7.556 4.444 20.792-6.082 23.612l-87.32 23.398c-10.527 2.82-20.098-6.938-17.074-17.408l24.274-84.05c2.923-10.123 15.562-13.51 23.156-6.204z" fill="url(#paint1_linear)" filter="url(#filter1_di)"/><path d="M714.339 435.202l63.047 60.652c7.853 7.555 4.444 20.791-6.083 23.612l-87.32 23.397c-10.527 2.821-20.098-6.937-17.074-17.407l24.274-84.05c2.924-10.124 15.562-13.51 23.156-6.204z" fill="url(#paint2_linear)" filter="url(#filter2_di)"/><path d="M503.336 45.807l252.185 242.609c31.415 30.221 17.776 83.166-24.33 94.448l-349.28 93.59c-42.107 11.282-80.391-27.75-68.295-69.63L410.71 70.626c11.695-40.496 62.249-54.042 92.626-24.82z" fill="url(#paint3_linear)" filter="url(#filter3_di)"/><path d="M594.84 396.504l157.616 151.631c19.634 18.888 11.11 51.979-15.207 59.03l-218.3 58.494c-26.316 7.051-50.244-17.344-42.684-43.519l60.684-210.124c7.31-25.31 38.906-33.776 57.891-15.512z" fill="url(#paint4_linear)" filter="url(#filter4_di)"/><path d="M194.836 310.504l157.615 151.631c19.635 18.888 11.111 51.979-15.206 59.03l-218.3 58.494c-26.317 7.051-50.244-17.344-42.684-43.519l60.684-210.124c7.309-25.31 38.905-33.776 57.891-15.512z" fill="url(#paint5_linear)" filter="url(#filter5_di)"/><path d="M156.167 542.101l31.523 30.326c3.927 3.778 2.222 10.396-3.041 11.806l-43.66 11.699c-5.264 1.41-10.049-3.469-8.537-8.704l12.137-42.025c1.461-5.062 7.781-6.755 11.578-3.102z" fill="url(#paint6_linear)" filter="url(#filter6_di)"/><defs><filter id="filter0_di" x="107.169" y="42.142" width="147.673" height="146.036" filterUnits="userSpaceOnUse" color-interpolation-filters="sRGB"><feFlood flood-opacity="0" result="BackgroundImageFix"/><feColorMatrix in="SourceAlpha" values="0 0 0 0 0 0 0 0 0 0 0 0 0 0 0 0 0 0 127 0"/><feOffset dy="15"/><feGaussianBlur stdDeviation="22.5"/><feColorMatrix values="0 0 0 0 0.152941 0 0 0 0 0.682353 0 0 0 0 0.376471 0 0 0 0.5 0"/><feBlend in2="BackgroundImageFix" result="effect1_dropShadow"/><feBlend in="SourceGraphic" in2="effect1_dropShadow" result="shape"/><feColorMatrix in="SourceAlpha" values="0 0 0 0 0 0 0 0 0 0 0 0 0 0 0 0 0 0 127 0" result="hardAlpha"/><feOffset/><feGaussianBlur stdDeviation="5"/><feComposite in2="hardAlpha" operator="arithmetic" k2="-1" k3="1"/><feColorMatrix values="0 0 0 0 1 0 0 0 0 1 0 0 0 0 1 0 0 0 0.25 0"/><feBlend in2="shape" result="effect2_innerShadow"/></filter><filter id="filter1_di" x="140.337" y="34.283" width="205.345" height="202.073" filterUnits="userSpaceOnUse" color-interpolation-filters="sRGB"><feFlood flood-opacity="0" result="BackgroundImageFix"/><feColorMatrix in="SourceAlpha" values="0 0 0 0 0 0 0 0 0 0 0 0 0 0 0 0 0 0 127 0"/><feOffset dy="15"/><feGaussianBlur stdDeviation="22.5"/><feColorMatrix values="0 0 0 0 0.152941 0 0 0 0 0.682353 0 0 0 0 0.376471 0 0 0 0.5 0"/><feBlend in2="BackgroundImageFix" result="effect1_dropShadow"/><feBlend in="SourceGraphic" in2="effect1_dropShadow" result="shape"/><feColorMatrix in="SourceAlpha" values="0 0 0 0 0 0 0 0 0 0 0 0 0 0 0 0 0 0 127 0" result="hardAlpha"/><feOffset/><feGaussianBlur stdDeviation="5"/><feComposite in2="hardAlpha" operator="arithmetic" k2="-1" k3="1"/><feColorMatrix values="0 0 0 0 1 0 0 0 0 1 0 0 0 0 1 0 0 0 0.25 0"/><feBlend in2="shape" result="effect2_innerShadow"/></filter><filter id="filter2_di" x="621.343" y="401.283" width="205.345" height="202.073" filterUnits="userSpaceOnUse" color-interpolation-filters="sRGB"><feFlood flood-opacity="0" result="BackgroundImageFix"/><feColorMatrix in="SourceAlpha" values="0 0 0 0 0 0 0 0 0 0 0 0 0 0 0 0 0 0 127 0"/><feOffset dy="15"/><feGaussianBlur stdDeviation="22.5"/><feColorMatrix values="0 0 0 0 0.152941 0 0 0 0 0.682353 0 0 0 0 0.376471 0 0 0 0.5 0"/><feBlend in2="BackgroundImageFix" result="effect1_dropShadow"/><feBlend in="SourceGraphic" in2="effect1_dropShadow" result="shape"/><feColorMatrix in="SourceAlpha" values="0 0 0 0 0 0 0 0 0 0 0 0 0 0 0 0 0 0 127 0" result="hardAlpha"/><feOffset/><feGaussianBlur stdDeviation="5"/><feComposite in2="hardAlpha" operator="arithmetic" k2="-1" k3="1"/><feColorMatrix values="0 0 0 0 1 0 0 0 0 1 0 0 0 0 1 0 0 0 0.25 0"/><feBlend in2="shape" result="effect2_innerShadow"/></filter><filter id="filter3_di" x="266.35" y=".132" width="551.381" height="538.292" filterUnits="userSpaceOnUse" color-interpolation-filters="sRGB"><feFlood flood-opacity="0" result="BackgroundImageFix"/><feColorMatrix in="SourceAlpha" values="0 0 0 0 0 0 0 0 0 0 0 0 0 0 0 0 0 0 127 0"/><feOffset dy="15"/><feGaussianBlur stdDeviation="22.5"/><feColorMatrix values="0 0 0 0 0.152941 0 0 0 0 0.682353 0 0 0 0 0.376471 0 0 0 0.5 0"/><feBlend in2="BackgroundImageFix" result="effect1_dropShadow"/><feBlend in="SourceGraphic" in2="effect1_dropShadow" result="shape"/><feColorMatrix in="SourceAlpha" values="0 0 0 0 0 0 0 0 0 0 0 0 0 0 0 0 0 0 127 0" result="hardAlpha"/><feOffset/><feGaussianBlur stdDeviation="5"/><feComposite in2="hardAlpha" operator="arithmetic" k2="-1" k3="1"/><feColorMatrix values="0 0 0 0 1 0 0 0 0 1 0 0 0 0 1 0 0 0 0.25 0"/><feBlend in2="shape" result="effect2_innerShadow"/></filter><filter id="filter4_di" x="429.849" y="356.708" width="378.363" height="370.182" filterUnits="userSpaceOnUse" color-interpolation-filters="sRGB"><feFlood flood-opacity="0" result="BackgroundImageFix"/><feColorMatrix in="SourceAlpha" values="0 0 0 0 0 0 0 0 0 0 0 0 0 0 0 0 0 0 127 0"/><feOffset dy="15"/><feGaussianBlur stdDeviation="22.5"/><feColorMatrix values="0 0 0 0 0.152941 0 0 0 0 0.682353 0 0 0 0 0.376471 0 0 0 0.5 0"/><feBlend in2="BackgroundImageFix" result="effect1_dropShadow"/><feBlend in="SourceGraphic" in2="effect1_dropShadow" result="shape"/><feColorMatrix in="SourceAlpha" values="0 0 0 0 0 0 0 0 0 0 0 0 0 0 0 0 0 0 127 0" result="hardAlpha"/><feOffset/><feGaussianBlur stdDeviation="5"/><feComposite in2="hardAlpha" operator="arithmetic" k2="-1" k3="1"/><feColorMatrix values="0 0 0 0 1 0 0 0 0 1 0 0 0 0 1 0 0 0 0.25 0"/><feBlend in2="shape" result="effect2_innerShadow"/></filter><filter id="filter5_di" x="29.844" y="270.708" width="378.363" height="370.182" filterUnits="userSpaceOnUse" color-interpolation-filters="sRGB"><feFlood flood-opacity="0" result="BackgroundImageFix"/><feColorMatrix in="SourceAlpha" values="0 0 0 0 0 0 0 0 0 0 0 0 0 0 0 0 0 0 127 0"/><feOffset dy="15"/><feGaussianBlur stdDeviation="22.5"/><feColorMatrix values="0 0 0 0 0.152941 0 0 0 0 0.682353 0 0 0 0 0.376471 0 0 0 0.5 0"/><feBlend in2="BackgroundImageFix" result="effect1_dropShadow"/><feBlend in="SourceGraphic" in2="effect1_dropShadow" result="shape"/><feColorMatrix in="SourceAlpha" values="0 0 0 0 0 0 0 0 0 0 0 0 0 0 0 0 0 0 127 0" result="hardAlpha"/><feOffset/><feGaussianBlur stdDeviation="5"/><feComposite in2="hardAlpha" operator="arithmetic" k2="-1" k3="1"/><feColorMatrix values="0 0 0 0 1 0 0 0 0 1 0 0 0 0 1 0 0 0 0.25 0"/><feBlend in2="shape" result="effect2_innerShadow"/></filter><filter id="filter6_di" x="87.168" y="510.142" width="147.673" height="146.036" filterUnits="userSpaceOnUse" color-interpolation-filters="sRGB"><feFlood flood-opacity="0" result="BackgroundImageFix"/><feColorMatrix in="SourceAlpha" values="0 0 0 0 0 0 0 0 0 0 0 0 0 0 0 0 0 0 127 0"/><feOffset dy="15"/><feGaussianBlur stdDeviation="22.5"/><feColorMatrix values="0 0 0 0 0.152941 0 0 0 0 0.682353 0 0 0 0 0.376471 0 0 0 0.5 0"/><feBlend in2="BackgroundImageFix" result="effect1_dropShadow"/><feBlend in="SourceGraphic" in2="effect1_dropShadow" result="shape"/><feColorMatrix in="SourceAlpha" values="0 0 0 0 0 0 0 0 0 0 0 0 0 0 0 0 0 0 127 0" result="hardAlpha"/><feOffset/><feGaussianBlur stdDeviation="5"/><feComposite in2="hardAlpha" operator="arithmetic" k2="-1" k3="1"/><feColorMatrix values="0 0 0 0 1 0 0 0 0 1 0 0 0 0 1 0 0 0 0.25 0"/><feBlend in2="shape" result="effect2_innerShadow"/></filter><linearGradient id="paint0_linear" x1="169.49" y1="72.337" x2="173.858" y2="122.857" gradientUnits="userSpaceOnUse"><stop stop-color="#5DDD93"/><stop offset="1" stop-color="#27AE60"/></linearGradient><linearGradient id="paint1_linear" x1="219.979" y1="64.674" x2="228.715" y2="165.714" gradientUnits="userSpaceOnUse"><stop stop-color="#5DDD93"/><stop offset="1" stop-color="#27AE60"/></linearGradient><linearGradient id="paint2_linear" x1="700.984" y1="431.674" x2="709.72" y2="532.714" gradientUnits="userSpaceOnUse"><stop stop-color="#5DDD93"/><stop offset="1" stop-color="#27AE60"/></linearGradient><linearGradient id="paint3_linear" x1="449.917" y1="31.698" x2="484.861" y2="435.857" gradientUnits="userSpaceOnUse"><stop stop-color="#5DDD93"/><stop offset="1" stop-color="#27AE60"/></linearGradient><linearGradient id="paint4_linear" x1="561.454" y1="387.686" x2="583.294" y2="640.286" gradientUnits="userSpaceOnUse"><stop stop-color="#5DDD93"/><stop offset="1" stop-color="#27AE60"/></linearGradient><linearGradient id="paint5_linear" x1="161.449" y1="301.686" x2="183.289" y2="554.286" gradientUnits="userSpaceOnUse"><stop stop-color="#5DDD93"/><stop offset="1" stop-color="#27AE60"/></linearGradient><linearGradient id="paint6_linear" x1="149.49" y1="540.337" x2="153.858" y2="590.857" gradientUnits="userSpaceOnUse"><stop stop-color="#5DDD93"/><stop offset="1" stop-color="#27AE60"/></linearGradient></defs></svg>