<svg width="1134" height="1008" viewBox="0 0 1134 1008" fill="none" xmlns="http://www.w3.org/2000/svg">
<g clip-path="url(#clip0)">
<g filter="url(#filter0_dd)">
<path d="M740.603 396.553H425.546C408.99 396.553 395.57 410.422 395.57 427.532V699.65C395.57 716.759 408.99 730.629 425.546 730.629H740.603C757.159 730.629 770.579 716.759 770.579 699.65V427.532C770.579 410.422 757.159 396.553 740.603 396.553Z" fill="white" fill-opacity="0.01"/>
</g>
<path d="M740.603 396.553H425.546C408.99 396.553 395.57 410.422 395.57 427.532V699.65C395.57 716.759 408.99 730.629 425.546 730.629H740.603C757.159 730.629 770.579 716.759 770.579 699.65V427.532C770.579 410.422 757.159 396.553 740.603 396.553Z" fill="white"/>
<g filter="url(#filter1_d)">
<path d="M423.132 421.007C423.132 422.352 422.747 423.665 422.024 424.782C421.302 425.899 420.277 426.769 419.075 427.284C417.874 427.798 416.552 427.933 415.277 427.671C414.003 427.408 412.831 426.762 411.912 425.811C410.993 424.861 410.367 423.651 410.113 422.333C409.86 421.015 409.989 419.651 410.487 418.408C410.984 417.168 411.827 416.107 412.909 415.36C413.989 414.613 415.26 414.215 416.56 414.215C418.303 414.215 419.976 414.931 421.208 416.204C422.44 417.479 423.132 419.206 423.132 421.007Z" fill="#FF3951" fill-opacity="0.01"/>
</g>
<path d="M423.132 421.007C423.132 422.352 422.747 423.665 422.024 424.782C421.302 425.899 420.277 426.769 419.075 427.284C417.874 427.798 416.552 427.933 415.277 427.671C414.003 427.408 412.831 426.762 411.912 425.811C410.993 424.861 410.367 423.651 410.113 422.333C409.86 421.015 409.989 419.651 410.487 418.408C410.984 417.168 411.827 416.107 412.909 415.36C413.989 414.613 415.26 414.215 416.56 414.215C418.303 414.215 419.976 414.931 421.208 416.204C422.44 417.479 423.132 419.206 423.132 421.007Z" fill="#FF3951"/>
<g filter="url(#filter2_d)">
<path d="M442.273 421.007C442.273 422.352 441.888 423.665 441.165 424.782C440.443 425.899 439.418 426.769 438.216 427.284C437.015 427.798 435.693 427.933 434.418 427.671C433.144 427.408 431.972 426.762 431.053 425.811C430.134 424.861 429.508 423.651 429.254 422.333C429.001 421.015 429.13 419.651 429.628 418.408C430.125 417.168 430.967 416.107 432.05 415.36C433.13 414.613 434.401 414.215 435.701 414.215C437.444 414.215 439.116 414.931 440.348 416.204C441.58 417.479 442.273 419.206 442.273 421.007Z" fill="#FFC226" fill-opacity="0.01"/>
</g>
<path d="M442.273 421.007C442.273 422.352 441.888 423.665 441.165 424.782C440.443 425.899 439.418 426.769 438.216 427.284C437.015 427.798 435.693 427.933 434.418 427.671C433.144 427.408 431.972 426.762 431.053 425.811C430.134 424.861 429.508 423.651 429.254 422.333C429.001 421.015 429.13 419.651 429.628 418.408C430.125 417.168 430.967 416.107 432.05 415.36C433.13 414.613 434.401 414.215 435.701 414.215C437.444 414.215 439.116 414.931 440.348 416.204C441.58 417.479 442.273 419.206 442.273 421.007Z" fill="#FFC226"/>
<g filter="url(#filter3_d)">
<path d="M461.416 421.007C461.416 422.352 461.029 423.665 460.308 424.782C459.586 425.899 458.559 426.769 457.357 427.284C456.156 427.798 454.834 427.933 453.56 427.671C452.285 427.408 451.114 426.762 450.194 425.811C449.275 424.861 448.649 423.651 448.396 422.333C448.142 421.015 448.273 419.651 448.77 418.408C449.266 417.168 450.11 416.107 451.191 415.36C452.271 414.613 453.542 414.215 454.842 414.215C456.585 414.215 458.258 414.931 459.49 416.204C460.723 417.479 461.416 419.206 461.416 421.007Z" fill="#9AE886" fill-opacity="0.01"/>
</g>
<path d="M461.416 421.007C461.416 422.352 461.029 423.665 460.308 424.782C459.586 425.899 458.559 426.769 457.357 427.284C456.156 427.798 454.834 427.933 453.56 427.671C452.285 427.408 451.114 426.762 450.194 425.811C449.275 424.861 448.649 423.651 448.396 422.333C448.142 421.015 448.273 419.651 448.77 418.408C449.266 417.168 450.11 416.107 451.191 415.36C452.271 414.613 453.542 414.215 454.842 414.215C456.585 414.215 458.258 414.931 459.49 416.204C460.723 417.479 461.416 419.206 461.416 421.007Z" fill="#9AE886"/>
<path d="M770.579 434.776H395.57V437.039H770.579V434.776Z" fill="#F5F7FC"/>
<path d="M739.936 463.806H608.285C604.974 463.806 602.289 466.58 602.289 470.001C602.289 473.423 604.974 476.197 608.285 476.197H739.936C743.247 476.197 745.932 473.423 745.932 470.001C745.932 466.58 743.247 463.806 739.936 463.806Z" fill="#EFF0F7"/>
<path d="M690.807 485.491H608.285C604.974 485.491 602.289 488.265 602.289 491.687C602.289 495.109 604.974 497.883 608.285 497.883H690.807C694.118 497.883 696.802 495.109 696.802 491.687C696.802 488.265 694.118 485.491 690.807 485.491Z" fill="#EFF0F7"/>
<g filter="url(#filter4_dd)">
<path d="M964.523 27.6509H671.375C654.819 27.6509 641.399 41.5206 641.399 58.6297V333.629C641.399 350.739 654.819 364.608 671.375 364.608H964.523C981.078 364.608 994.499 350.739 994.499 333.629V58.6297C994.499 41.5206 981.078 27.6509 964.523 27.6509Z" fill="white" fill-opacity="0.01"/>
</g>
<path d="M964.523 27.6509H671.375C654.819 27.6509 641.399 41.5206 641.399 58.6297V333.629C641.399 350.739 654.819 364.608 671.375 364.608H964.523C981.078 364.608 994.499 350.739 994.499 333.629V58.6297C994.499 41.5206 981.078 27.6509 964.523 27.6509Z" fill="white"/>
<g filter="url(#filter5_d)">
<path d="M668.524 53.6747C668.524 55.0183 668.138 56.3316 667.416 57.4487C666.694 58.5657 665.667 59.4363 664.466 59.9506C663.264 60.4647 661.944 60.5991 660.668 60.337C659.393 60.0749 658.222 59.428 657.304 58.478C656.383 57.528 655.758 56.3177 655.503 55C655.25 53.6823 655.381 52.3165 655.878 51.0753C656.376 49.834 657.218 48.7731 658.299 48.0267C659.379 47.2802 660.65 46.8818 661.951 46.8818C663.694 46.8818 665.366 47.5976 666.599 48.8715C667.831 50.1453 668.524 51.8732 668.524 53.6747Z" fill="#FF3951" fill-opacity="0.01"/>
</g>
<path d="M668.524 53.6747C668.524 55.0183 668.138 56.3316 667.416 57.4487C666.694 58.5657 665.667 59.4363 664.466 59.9506C663.264 60.4647 661.944 60.5991 660.668 60.337C659.393 60.0749 658.222 59.428 657.304 58.478C656.383 57.528 655.758 56.3177 655.503 55C655.25 53.6823 655.381 52.3165 655.878 51.0753C656.376 49.834 657.218 48.7731 658.299 48.0267C659.379 47.2802 660.65 46.8818 661.951 46.8818C663.694 46.8818 665.366 47.5976 666.599 48.8715C667.831 50.1453 668.524 51.8732 668.524 53.6747Z" fill="#FF3951"/>
<g filter="url(#filter6_d)">
<path d="M689.163 53.6757C689.163 55.0191 688.778 56.3324 688.055 57.4495C687.333 58.5666 686.306 59.4373 685.106 59.9514C683.904 60.4655 682.583 60.6001 681.308 60.338C680.032 60.0759 678.862 59.4289 677.943 58.479C677.023 57.5289 676.398 56.3185 676.143 55.0008C675.89 53.6831 676.02 52.3173 676.518 51.0761C677.015 49.8349 677.857 48.7739 678.938 48.0276C680.019 47.2812 681.29 46.8828 682.591 46.8828C684.334 46.8828 686.005 47.5984 687.238 48.8723C688.47 50.1463 689.163 51.874 689.163 53.6757Z" fill="#FFC226" fill-opacity="0.01"/>
</g>
<path d="M689.163 53.6757C689.163 55.0191 688.778 56.3324 688.055 57.4495C687.333 58.5666 686.306 59.4373 685.106 59.9514C683.904 60.4655 682.583 60.6001 681.308 60.338C680.032 60.0759 678.862 59.4289 677.943 58.479C677.023 57.5289 676.398 56.3185 676.143 55.0008C675.89 53.6831 676.02 52.3173 676.518 51.0761C677.015 49.8349 677.857 48.7739 678.938 48.0276C680.019 47.2812 681.29 46.8828 682.591 46.8828C684.334 46.8828 686.005 47.5984 687.238 48.8723C688.47 50.1463 689.163 51.874 689.163 53.6757Z" fill="#FFC226"/>
<g filter="url(#filter7_d)">
<path d="M709.803 53.6757C709.803 55.0191 709.418 56.3324 708.695 57.4495C707.973 58.5666 706.946 59.4373 705.746 59.9514C704.545 60.4655 703.223 60.6001 701.948 60.338C700.672 60.0759 699.502 59.4289 698.583 58.479C697.663 57.5289 697.038 56.3185 696.783 55.0008C696.53 53.6831 696.66 52.3173 697.158 51.0761C697.655 49.8349 698.498 48.7739 699.578 48.0276C700.659 47.2812 701.93 46.8828 703.231 46.8828C704.974 46.8828 706.645 47.5984 707.879 48.8723C709.111 50.1463 709.803 51.874 709.803 53.6757Z" fill="#9AE886" fill-opacity="0.01"/>
</g>
<path d="M709.803 53.6757C709.803 55.0191 709.418 56.3324 708.695 57.4495C707.973 58.5666 706.946 59.4373 705.746 59.9514C704.545 60.4655 703.223 60.6001 701.948 60.338C700.672 60.0759 699.502 59.4289 698.583 58.479C697.663 57.5289 697.038 56.3185 696.783 55.0008C696.53 53.6831 696.66 52.3173 697.158 51.0761C697.655 49.8349 698.498 48.7739 699.578 48.0276C700.659 47.2812 701.93 46.8828 703.231 46.8828C704.974 46.8828 706.645 47.5984 707.879 48.8723C709.111 50.1463 709.803 51.874 709.803 53.6757Z" fill="#9AE886"/>
<path d="M994.126 67.4434H641.026V69.7076H994.126V67.4434Z" fill="#F5F7FC"/>
<path d="M911.097 95.1807H680.106C676.795 95.1807 674.111 97.9547 674.111 101.376C674.111 104.798 676.795 107.572 680.106 107.572H911.097C914.408 107.572 917.092 104.798 917.092 101.376C917.092 97.9547 914.408 95.1807 911.097 95.1807Z" fill="#EFF0F7"/>
<path d="M759.289 116.865H680.106C676.795 116.865 674.111 119.639 674.111 123.061C674.111 126.483 676.795 129.257 680.106 129.257H759.289C762.602 129.257 765.284 126.483 765.284 123.061C765.284 119.639 762.602 116.865 759.289 116.865Z" fill="#EFF0F7"/>
<path d="M956.508 152.998H679.391C676.474 152.998 674.111 155.442 674.111 158.454C674.111 161.469 676.474 163.911 679.391 163.911H956.508C959.424 163.911 961.788 161.469 961.788 158.454C961.788 155.442 959.424 152.998 956.508 152.998Z" fill="#F5F7FC"/>
<g filter="url(#filter8_d)">
<path d="M821.248 152.998H688.751C685.834 152.998 683.471 155.44 683.471 158.454C683.471 161.469 685.834 163.911 688.749 163.911H821.248C824.165 163.911 826.528 161.469 826.528 158.454C826.528 155.44 824.165 152.998 821.248 152.998Z" fill="#FF3951" fill-opacity="0.01"/>
</g>
<path d="M821.248 152.998H688.751C685.834 152.998 683.471 155.44 683.471 158.454C683.471 161.469 685.834 163.911 688.749 163.911H821.248C824.165 163.911 826.528 161.469 826.528 158.454C826.528 155.44 824.165 152.998 821.248 152.998Z" fill="#624DE3"/>
<path d="M955.901 190.042H679.998C676.747 190.042 674.111 192.766 674.111 196.126C674.111 199.487 676.747 202.212 679.998 202.212H955.901C959.152 202.212 961.788 199.487 961.788 196.126C961.788 192.766 959.152 190.042 955.901 190.042Z" fill="#F5F7FC"/>
<g filter="url(#filter9_d)">
<path d="M901.433 190.042H688.751C685.834 190.042 683.471 192.484 683.471 195.498C683.471 198.511 685.834 200.955 688.749 200.955H901.433C904.349 200.955 906.713 198.511 906.713 195.498C906.713 192.484 904.349 190.042 901.433 190.042Z" fill="#FFC226" fill-opacity="0.01"/>
</g>
<path d="M901.433 190.042H688.751C685.834 190.042 683.471 192.484 683.471 195.498C683.471 198.511 685.834 200.955 688.749 200.955H901.433C904.349 200.955 906.713 198.511 906.713 195.498C906.713 192.484 904.349 190.042 901.433 190.042Z" fill="#CAB7FF"/>
<path d="M956.508 227.084H679.391C676.474 227.084 674.111 229.527 674.111 232.541C674.111 235.556 676.474 237.998 679.391 237.998H956.508C959.424 237.998 961.788 235.556 961.788 232.541C961.788 229.527 959.424 227.084 956.508 227.084Z" fill="#F5F7FC"/>
<g filter="url(#filter10_d)">
<path d="M734.145 227.084H688.751C685.834 227.084 683.471 229.527 683.471 232.541C683.471 235.556 685.834 237.998 688.751 237.998H734.145C737.062 237.998 739.425 235.556 739.425 232.541C739.425 229.527 737.062 227.084 734.145 227.084Z" fill="#FF3951" fill-opacity="0.01"/>
</g>
<path d="M734.145 227.084H688.751C685.834 227.084 683.471 229.527 683.471 232.541C683.471 235.556 685.834 237.998 688.751 237.998H734.145C737.062 237.998 739.425 235.556 739.425 232.541C739.425 229.527 737.062 227.084 734.145 227.084Z" fill="#624DE3"/>
<path d="M956.508 264.128H679.391C676.474 264.128 674.111 266.573 674.111 269.585C674.111 272.6 676.474 275.042 679.391 275.042H956.508C959.424 275.042 961.788 272.6 961.788 269.585C961.788 266.573 959.424 264.128 956.508 264.128Z" fill="#F5F7FC"/>
<g filter="url(#filter11_d)">
<path d="M855.515 264.129H688.751C685.834 264.129 683.471 266.572 683.471 269.586C683.471 272.599 685.834 275.043 688.751 275.043H855.515C858.432 275.043 860.796 272.599 860.796 269.586C860.796 266.572 858.432 264.129 855.515 264.129Z" fill="#FFC226" fill-opacity="0.01"/>
</g>
<path d="M855.515 264.129H688.751C685.834 264.129 683.471 266.572 683.471 269.586C683.471 272.599 685.834 275.043 688.751 275.043H855.515C858.432 275.043 860.796 272.599 860.796 269.586C860.796 266.572 858.432 264.129 855.515 264.129Z" fill="#CAB7FF"/>
<path d="M956.508 301.172H679.391C676.474 301.172 674.111 303.616 674.111 306.629C674.111 309.643 676.474 312.087 679.391 312.087H956.508C959.424 312.087 961.788 309.643 961.788 306.629C961.788 303.616 959.424 301.172 956.508 301.172Z" fill="#F5F7FC"/>
<g filter="url(#filter12_d)">
<path d="M881.833 301.172H688.751C685.834 301.172 683.471 303.616 683.471 306.629C683.471 309.643 685.834 312.087 688.751 312.087H881.833C884.749 312.087 887.113 309.643 887.113 306.629C887.113 303.616 884.749 301.172 881.833 301.172Z" fill="#FF3951" fill-opacity="0.01"/>
</g>
<path d="M881.833 301.172H688.751C685.834 301.172 683.471 303.616 683.471 306.629C683.471 309.643 685.834 312.087 688.751 312.087H881.833C884.749 312.087 887.113 309.643 887.113 306.629C887.113 303.616 884.749 301.172 881.833 301.172Z" fill="#624DE3"/>
<path d="M591.735 588.401C591.735 638.394 552.52 678.92 504.147 678.92C455.773 678.92 416.558 638.394 416.558 588.401C416.558 538.409 455.773 497.883 504.147 497.883C552.52 497.883 591.735 538.409 591.735 588.401ZM455.806 588.401C455.806 615.993 477.448 638.361 504.147 638.361C530.845 638.361 552.489 615.993 552.489 588.401C552.489 560.81 530.845 538.442 504.147 538.442C477.448 538.442 455.806 560.81 455.806 588.401Z" fill="#F5F7FC"/>
<g filter="url(#filter13_d)">
<path d="M513.39 518.67C522.877 520.013 531.985 523.409 540.118 528.636C548.249 533.864 555.223 540.805 560.584 549.008C565.944 557.21 569.571 566.486 571.225 576.235C572.882 585.984 572.528 595.983 570.19 605.582" stroke="#FFC226" stroke-opacity="0.01" stroke-width="38.9689" stroke-linecap="round"/>
</g>
<path d="M513.39 518.67C522.877 520.013 531.985 523.409 540.118 528.636C548.249 533.864 555.223 540.805 560.584 549.008C565.944 557.21 569.571 566.486 571.225 576.235C572.882 585.984 572.528 595.983 570.19 605.582" stroke="#CAB7FF" stroke-width="38.9689" stroke-linecap="round"/>
<g filter="url(#filter14_d)">
<path d="M448.986 547.121C459.245 532.481 474.561 522.481 491.76 519.192C508.96 515.905 526.724 519.583 541.371 529.462" stroke="#FF8139" stroke-opacity="0.01" stroke-width="38.9689" stroke-linecap="round"/>
</g>
<path d="M448.986 547.121C459.245 532.481 474.561 522.481 491.76 519.192C508.96 515.905 526.724 519.583 541.371 529.462" stroke="#14142B" stroke-width="38.9689" stroke-linecap="round"/>
<g filter="url(#filter15_d)">
<path d="M517.546 657.408C504.617 660.089 491.212 658.833 478.96 653.793C466.709 648.754 456.137 640.146 448.527 629.016C440.916 617.887 436.598 604.713 436.093 591.094C435.588 577.478 438.92 564 445.683 552.303" stroke="#FF3951" stroke-opacity="0.01" stroke-width="38.9689" stroke-linecap="round"/>
</g>
<path d="M517.546 657.408C504.617 660.089 491.212 658.833 478.96 653.793C466.709 648.754 456.137 640.146 448.527 629.016C440.916 617.887 436.598 604.713 436.093 591.094C435.588 577.478 438.92 564 445.683 552.303" stroke="#FF3951" stroke-width="38.9689" stroke-linecap="round"/>
<g filter="url(#filter16_d)">
<path d="M638.197 565.167C643.164 565.167 647.19 561.007 647.19 555.874C647.19 550.741 643.164 546.58 638.197 546.58C633.23 546.58 629.205 550.741 629.205 555.874C629.205 561.007 633.23 565.167 638.197 565.167Z" fill="#FF3951" fill-opacity="0.01"/>
</g>
<path d="M638.197 565.167C643.164 565.167 647.19 561.007 647.19 555.874C647.19 550.741 643.164 546.58 638.197 546.58C633.23 546.58 629.205 550.741 629.205 555.874C629.205 561.007 633.23 565.167 638.197 565.167Z" fill="#171347"/>
<path d="M731.333 551.226H659.181C656.697 551.226 654.684 553.306 654.684 555.872C654.684 558.439 656.697 560.519 659.181 560.519H731.333C733.815 560.519 735.829 558.439 735.829 555.872C735.829 553.306 733.815 551.226 731.333 551.226Z" fill="#EFF0F7"/>
<g filter="url(#filter17_d)">
<path d="M638.197 597.695C643.164 597.695 647.19 593.534 647.19 588.401C647.19 583.268 643.164 579.107 638.197 579.107C633.23 579.107 629.205 583.268 629.205 588.401C629.205 593.534 633.23 597.695 638.197 597.695Z" fill="#FF8139" fill-opacity="0.01"/>
</g>
<path d="M638.197 597.695C643.164 597.695 647.19 593.534 647.19 588.401C647.19 583.268 643.164 579.107 638.197 579.107C633.23 579.107 629.205 583.268 629.205 588.401C629.205 593.534 633.23 597.695 638.197 597.695Z" fill="#7545FF"/>
<path d="M731.333 583.754H659.181C656.697 583.754 654.684 585.834 654.684 588.401C654.684 590.967 656.697 593.048 659.181 593.048H731.333C733.815 593.048 735.829 590.967 735.829 588.401C735.829 585.834 733.815 583.754 731.333 583.754Z" fill="#EFF0F7"/>
<g filter="url(#filter18_d)">
<path d="M638.197 630.222C643.164 630.222 647.19 626.062 647.19 620.928C647.19 615.795 643.164 611.635 638.197 611.635C633.23 611.635 629.205 615.795 629.205 620.928C629.205 626.062 633.23 630.222 638.197 630.222Z" fill="#FFC226" fill-opacity="0.01"/>
</g>
<path d="M638.197 630.222C643.164 630.222 647.19 626.062 647.19 620.928C647.19 615.795 643.164 611.635 638.197 611.635C633.23 611.635 629.205 615.795 629.205 620.928C629.205 626.062 633.23 630.222 638.197 630.222Z" fill="#CAB7FF"/>
<path d="M731.333 616.282H659.181C656.697 616.282 654.684 618.362 654.684 620.929C654.684 623.495 656.697 625.575 659.181 625.575H731.333C733.815 625.575 735.829 623.495 735.829 620.929C735.829 618.362 733.815 616.282 731.333 616.282Z" fill="#EFF0F7"/>
<g filter="url(#filter19_dd)">
<path d="M574.744 24.7827H259.686C243.131 24.7827 229.71 38.6524 229.71 55.7616V330.761C229.71 347.87 243.131 361.74 259.686 361.74H574.744C591.3 361.74 604.72 347.87 604.72 330.761V55.7616C604.72 38.6524 591.3 24.7827 574.744 24.7827Z" fill="white" fill-opacity="0.01"/>
</g>
<path d="M574.744 24.7827H259.686C243.131 24.7827 229.71 38.6524 229.71 55.7616V330.761C229.71 347.87 243.131 361.74 259.686 361.74H574.744C591.3 361.74 604.72 347.87 604.72 330.761V55.7616C604.72 38.6524 591.3 24.7827 574.744 24.7827Z" fill="white"/>
<path d="M604.72 65.8882H229.71V68.1526H604.72V65.8882Z" fill="#F5F7FC"/>
<path d="M533.318 93.6255H301.157C298.169 93.6255 295.747 96.129 295.747 99.2172C295.747 102.305 298.169 104.809 301.157 104.809H533.318C536.305 104.809 538.728 102.305 538.728 99.2172C538.728 96.129 536.305 93.6255 533.318 93.6255Z" fill="#EFF0F7"/>
<path d="M491.754 114.102H342.699C339.711 114.102 337.288 116.605 337.288 119.693C337.288 122.782 339.711 125.285 342.699 125.285H491.754C494.743 125.285 497.165 122.782 497.165 119.693C497.165 116.605 494.743 114.102 491.754 114.102Z" fill="#EFF0F7"/>
<g filter="url(#filter20_d)">
<path d="M505.645 192.101V319.266C505.645 324.398 509.671 328.56 514.638 328.56C519.604 328.56 523.631 324.398 523.631 319.266V192.101C523.631 186.968 519.604 182.807 514.638 182.807C509.671 182.807 505.645 186.968 505.645 192.101Z" fill="#FFC226" fill-opacity="0.01"/>
</g>
<path d="M505.645 192.101V319.266C505.645 324.398 509.671 328.56 514.638 328.56C519.604 328.56 523.631 324.398 523.631 319.266V192.101C523.631 186.968 519.604 182.807 514.638 182.807C509.671 182.807 505.645 186.968 505.645 192.101Z" fill="#CAB7FF"/>
<path d="M466.676 211.506V319.243C466.676 324.376 470.702 328.536 475.669 328.536C480.635 328.536 484.662 324.376 484.662 319.243V211.506C484.662 206.373 480.635 202.212 475.669 202.212C470.702 202.212 466.676 206.373 466.676 211.506Z" fill="#624DE3"/>
<g filter="url(#filter21_d)">
<path d="M427.707 279.457V319.243C427.707 324.376 431.733 328.537 436.7 328.537C441.666 328.537 445.693 324.376 445.693 319.243V279.457C445.693 274.324 441.666 270.163 436.7 270.163C431.733 270.163 427.707 274.324 427.707 279.457Z" fill="#FFC226" fill-opacity="0.01"/>
</g>
<path d="M427.707 279.457V319.243C427.707 324.376 431.733 328.537 436.7 328.537C441.666 328.537 445.693 324.376 445.693 319.243V279.457C445.693 274.324 441.666 270.163 436.7 270.163C431.733 270.163 427.707 274.324 427.707 279.457Z" fill="#CAB7FF"/>
<path d="M388.739 177.677V319.243C388.739 324.376 392.765 328.537 397.732 328.537C402.697 328.537 406.724 324.376 406.724 319.243V177.677C406.724 172.544 402.697 168.384 397.732 168.384C392.765 168.384 388.739 172.544 388.739 177.677Z" fill="#624DE3"/>
<g filter="url(#filter22_d)">
<path d="M349.77 164.997V319.242C349.77 324.376 353.796 328.536 358.763 328.536C363.728 328.536 367.756 324.376 367.756 319.242V164.997C367.756 159.864 363.728 155.704 358.763 155.704C353.796 155.704 349.77 159.864 349.77 164.997Z" fill="#FFC226" fill-opacity="0.01"/>
</g>
<path d="M349.77 164.997V319.242C349.77 324.376 353.796 328.536 358.763 328.536C363.728 328.536 367.756 324.376 367.756 319.242V164.997C367.756 159.864 363.728 155.704 358.763 155.704C353.796 155.704 349.77 159.864 349.77 164.997Z" fill="#CAB7FF"/>
<path d="M310.801 228.329V319.243C310.801 324.376 314.827 328.537 319.794 328.537C324.76 328.537 328.786 324.376 328.786 319.243V228.329C328.786 223.196 324.76 219.036 319.794 219.036C314.827 219.036 310.801 223.196 310.801 228.329Z" fill="#624DE3"/>
<g filter="url(#filter23_d)">
<path d="M258.772 52.1205C258.772 53.4641 258.386 54.7774 257.664 55.8944C256.942 57.0115 255.915 57.8821 254.714 58.3964C253.513 58.9105 252.191 59.0449 250.916 58.7828C249.641 58.5208 248.47 57.8738 247.551 56.9238C246.632 55.9738 246.006 54.7635 245.752 53.4458C245.498 52.1281 245.629 50.7623 246.126 49.5211C246.624 48.2798 247.466 47.2189 248.547 46.4725C249.628 45.726 250.899 45.3276 252.199 45.3276C253.942 45.3276 255.614 46.0434 256.847 47.3173C258.079 48.5911 258.772 50.3189 258.772 52.1205Z" fill="#FF3951" fill-opacity="0.01"/>
</g>
<path d="M258.772 52.1205C258.772 53.4641 258.386 54.7774 257.664 55.8944C256.942 57.0115 255.915 57.8821 254.714 58.3964C253.513 58.9105 252.191 59.0449 250.916 58.7828C249.641 58.5208 248.47 57.8738 247.551 56.9238C246.632 55.9738 246.006 54.7635 245.752 53.4458C245.498 52.1281 245.629 50.7623 246.126 49.5211C246.624 48.2798 247.466 47.2189 248.547 46.4725C249.628 45.726 250.899 45.3276 252.199 45.3276C253.942 45.3276 255.614 46.0434 256.847 47.3173C258.079 48.5911 258.772 50.3189 258.772 52.1205Z" fill="#FF3951"/>
<g filter="url(#filter24_d)">
<path d="M277.913 52.1205C277.913 53.4641 277.527 54.7774 276.805 55.8944C276.083 57.0115 275.056 57.8821 273.855 58.3964C272.654 58.9105 271.332 59.0449 270.057 58.7828C268.782 58.5208 267.611 57.8738 266.692 56.9238C265.773 55.9738 265.147 54.7635 264.893 53.4458C264.64 52.1281 264.77 50.7623 265.267 49.5211C265.765 48.2798 266.607 47.2189 267.688 46.4725C268.769 45.726 270.04 45.3276 271.34 45.3276C273.083 45.3276 274.755 46.0434 275.988 47.3173C277.22 48.5911 277.913 50.3189 277.913 52.1205Z" fill="#FFC226" fill-opacity="0.01"/>
</g>
<path d="M277.913 52.1205C277.913 53.4641 277.527 54.7774 276.805 55.8944C276.083 57.0115 275.056 57.8821 273.855 58.3964C272.654 58.9105 271.332 59.0449 270.057 58.7828C268.782 58.5208 267.611 57.8738 266.692 56.9238C265.773 55.9738 265.147 54.7635 264.893 53.4458C264.64 52.1281 264.77 50.7623 265.267 49.5211C265.765 48.2798 266.607 47.2189 267.688 46.4725C268.769 45.726 270.04 45.3276 271.34 45.3276C273.083 45.3276 274.755 46.0434 275.988 47.3173C277.22 48.5911 277.913 50.3189 277.913 52.1205Z" fill="#FFC226"/>
<g filter="url(#filter25_d)">
<path d="M297.054 52.1205C297.054 53.4641 296.669 54.7774 295.946 55.8944C295.224 57.0115 294.198 57.8821 292.996 58.3964C291.795 58.9105 290.474 59.0449 289.199 58.7828C287.924 58.5208 286.753 57.8738 285.833 56.9238C284.914 55.9738 284.288 54.7635 284.035 53.4458C283.781 52.1281 283.911 50.7623 284.408 49.5211C284.906 48.2798 285.749 47.2189 286.829 46.4725C287.91 45.726 289.181 45.3276 290.481 45.3276C292.224 45.3276 293.896 46.0434 295.129 47.3173C296.362 48.5911 297.054 50.3189 297.054 52.1205Z" fill="#9AE886" fill-opacity="0.01"/>
</g>
<path d="M297.054 52.1205C297.054 53.4641 296.669 54.7774 295.946 55.8944C295.224 57.0115 294.198 57.8821 292.996 58.3964C291.795 58.9105 290.474 59.0449 289.199 58.7828C287.924 58.5208 286.753 57.8738 285.833 56.9238C284.914 55.9738 284.288 54.7635 284.035 53.4458C283.781 52.1281 283.911 50.7623 284.408 49.5211C284.906 48.2798 285.749 47.2189 286.829 46.4725C287.91 45.726 289.181 45.3276 290.481 45.3276C292.224 45.3276 293.896 46.0434 295.129 47.3173C296.362 48.5911 297.054 50.3189 297.054 52.1205Z" fill="#9AE886"/>
</g>
<path d="M311.526 847.457H353.532V855.085H311.526V847.457Z" fill="#4E4B66"/>
<path d="M288.752 959.139H293.279L330.285 780.65L332.391 770.48L339.045 738.44L341.505 726.478L350.815 681.642L354.064 665.958H337.902L335.285 681.642L333.553 691.956L332.391 698.812L325.758 738.44L323.632 751.174L288.752 959.139Z" fill="#4E4B66"/>
<path d="M337.902 665.958L335.285 681.642H350.815L354.064 665.958H337.902Z" fill="#14142B"/>
<path d="M323.632 751.174L330.285 780.65L332.391 770.479L339.045 738.439L341.505 726.477L333.553 691.955L332.391 698.811L325.758 738.439L323.632 751.174Z" fill="#14142B"/>
<path d="M310.739 665.958L313.986 681.642L325.758 738.44L332.391 770.48L371.524 959.139H376.031L339.045 738.44L332.391 698.812L329.517 681.642L326.879 665.958H310.739Z" fill="#4E4B66"/>
<path d="M310.739 665.958L313.986 681.642H329.518L326.879 665.958H310.739Z" fill="#14142B"/>
<path d="M30.8382 847.457H72.8445V855.085H30.8382V847.457Z" fill="#4E4B66"/>
<path d="M8.06423 959.139H12.5913L49.5973 780.65L51.7033 770.48L58.3573 738.44L60.8176 726.478L70.1279 681.642L73.3765 665.958H57.2162L54.5976 681.642L52.8655 691.956L51.7033 698.812L45.0703 738.44L42.9447 751.174L8.06423 959.139Z" fill="#4E4B66"/>
<path d="M57.2162 665.958L54.5976 681.642H70.1279L73.3765 665.958H57.2162Z" fill="#14142B"/>
<path d="M42.9448 751.174L49.5974 780.65L51.7034 770.479L58.3573 738.439L60.8176 726.477L52.8655 691.955L51.7034 698.811L45.0704 738.439L42.9448 751.174Z" fill="#14142B"/>
<path d="M30.0514 665.958L33.3 681.642L45.0706 738.44L51.7036 770.48L90.817 959.139H95.344L58.3575 738.44L51.7036 698.812L48.8302 681.642L46.1921 665.958H30.0514Z" fill="#4E4B66"/>
<path d="M30.0514 665.958L33.3001 681.642H48.8303L46.1922 665.958H30.0514Z" fill="#14142B"/>
<path d="M4.87323 644.476H393.838C396.157 644.476 398.039 646.42 398.039 648.817V661.617C398.039 664.013 396.157 665.958 393.838 665.958H4.87323C2.553 665.958 0.672454 664.015 0.672454 661.617V648.817C0.672454 646.42 2.553 644.476 4.87323 644.476Z" fill="#4E4B66"/>
<path d="M300.68 644.476H401.045C403.28 644.476 405.158 642.743 405.411 640.449L412.481 576.316C412.778 573.623 410.739 571.261 408.115 571.261H312.672C310.437 571.261 308.56 572.995 308.306 575.289L300.68 644.476Z" fill="#D9DBE9"/>
<path d="M306.349 639.551H396.46C398.693 639.551 400.572 637.819 400.824 635.525L407.369 576.164H313.338L306.349 639.551Z" fill="white"/>
<path d="M270.071 639.551H404.239V644.454H270.071V639.551Z" fill="#D9DBE9"/>
<path d="M240.938 639.551H375.107V644.454H240.938V639.551Z" fill="#EFF0F7"/>
<path d="M313.003 579.256L313.338 576.164H407.369L407.015 579.256H313.003Z" fill="white"/>
<path d="M170.5 585.822L168.512 589.005L166.374 592.497C164.983 594.839 163.636 597.226 162.289 599.634C159.637 604.453 157.07 609.337 154.697 614.288C149.926 624.037 145.929 634.17 142.743 644.587C141.973 647.15 141.29 649.714 140.605 652.277L139.728 656.145L139.364 658.067L139.172 659.04C139.172 659.349 139.044 659.769 139.044 659.681C139.044 659.592 138.873 659.681 138.658 659.106C138.429 658.595 138.076 658.154 137.632 657.825C137.269 657.604 137.205 657.826 137.397 658.024C137.839 658.439 138.336 658.789 138.873 659.063C140.699 659.99 142.632 660.673 144.625 661.096C147.046 661.679 149.494 662.129 151.959 662.443C157.049 663.129 162.652 663.461 167.913 663.747H168.448C170.18 663.841 171.828 664.552 173.11 665.759C174.393 666.965 175.232 668.593 175.484 670.368C175.736 672.14 175.386 673.951 174.492 675.487C173.599 677.024 172.22 678.194 170.586 678.798C164.681 680.986 158.577 682.549 152.367 683.461C145.423 684.632 138.328 684.444 131.453 682.908C129.23 682.345 127.078 681.522 125.037 680.455C122.456 679.102 120.126 677.292 118.15 675.107C115.843 672.515 114.133 669.418 113.147 666.047C112.31 663.003 112.013 659.828 112.271 656.675C112.271 655.836 112.271 655.526 112.398 655.106L112.548 653.891L112.826 651.416C113.062 649.803 113.275 648.168 113.532 646.554C114.066 643.327 114.665 640.123 115.414 636.984C118.341 624.565 122.453 612.476 127.689 600.895C130.276 595.193 133.035 589.58 136.05 584.121C137.547 581.381 139.129 578.685 140.755 576.01C141.567 574.662 142.401 573.336 143.278 571.987C144.154 570.64 144.967 569.425 146.08 567.833C148.382 564.632 151.793 562.474 155.599 561.81C159.405 561.144 163.311 562.026 166.504 564.267C169.697 566.509 171.929 569.937 172.732 573.838C173.537 577.74 172.853 581.812 170.821 585.204L170.5 585.822Z" fill="#CAB7FF"/>
<path d="M227.683 496.626C227.897 498.129 228.838 499.212 229.821 499.08C230.805 498.947 231.361 497.599 231.147 496.118C230.933 494.638 229.992 493.533 229.009 493.665C228.024 493.798 227.468 495.146 227.683 496.626Z" fill="#14142B"/>
<path d="M228.71 499.234C231.087 503.526 237.729 509.685 237.435 510.925C237.141 512.165 235.5 512.472 234.344 512.884C233.188 513.297 231.958 513.443 230.742 513.311L228.71 499.234Z" fill="#FF97B8"/>
<path d="M221.374 489.157C221.556 489.142 221.724 489.055 221.845 488.914C222.591 488.113 223.514 487.508 224.533 487.15C225.553 486.793 226.639 486.693 227.705 486.859C227.927 486.905 228.16 486.86 228.352 486.732C228.544 486.604 228.679 486.404 228.731 486.174C228.775 485.945 228.73 485.708 228.606 485.514C228.482 485.319 228.289 485.183 228.067 485.135C226.726 484.905 225.351 485.014 224.058 485.453C222.766 485.891 221.595 486.647 220.647 487.655C220.489 487.824 220.401 488.049 220.401 488.285C220.401 488.52 220.489 488.745 220.647 488.914C220.744 489.008 220.859 489.078 220.985 489.12C221.111 489.162 221.244 489.175 221.374 489.157Z" fill="#14142B"/>
<path d="M185.319 513.091C185.939 527.014 184.913 552.163 174.455 559.788C174.455 559.788 176.06 574.043 200.374 577.8C227.083 581.91 215.129 566.042 215.129 566.042C201.058 560.208 203.047 549.069 207.109 538.97L185.319 513.091Z" fill="#FFD5BD"/>
<path d="M170.264 565.359C169.217 559.059 168.126 551.877 172.725 550.772C177.771 549.556 203.903 553.159 212.157 559.612C220.412 566.065 216.178 577.293 216.178 577.293L170.264 565.359Z" fill="white"/>
<path d="M240.728 588.829C241.712 611.106 240.728 655.283 226.101 722.158H129.4C128.801 708.257 142.68 648.323 141.482 582.463C141.423 579.162 142 575.882 143.179 572.814C144.358 569.745 146.116 566.95 148.351 564.59C150.586 562.231 153.254 560.356 156.197 559.072C159.14 557.789 162.302 557.123 165.497 557.114C167.4 557.114 169.41 557.114 171.485 557.357C185.165 558.341 198.776 560.172 212.244 562.839C216.264 563.79 220.177 564.894 223.727 566.021C228.489 567.551 232.678 570.562 235.72 574.645C238.763 578.727 240.512 583.68 240.728 588.829Z" fill="#0048F0"/>
<path opacity="0.2" d="M226.121 628.917C224.582 640.232 221.032 659.858 233.841 681.56C235.295 672.565 236.472 664.146 237.434 656.278L226.121 628.917Z" fill="#14142B"/>
<path d="M301.482 656.3L317.755 650.51L311.127 632.83C307.428 633.385 303.945 634.967 301.049 637.407C298.152 639.848 295.952 643.055 294.682 646.687L301.482 656.3Z" fill="#FFD5BD"/>
<path d="M325.986 645.732C326.843 643.739 329.45 632.478 327.718 631.455C325.986 630.432 310.739 632.914 310.739 632.914L317.369 650.659C317.369 650.659 325.129 647.723 325.986 645.732Z" fill="#FFD5BD"/>
<path d="M240.621 586.772C241.518 590.021 242.63 593.801 243.7 597.336C244.77 600.873 245.838 604.496 247.079 608.055C249.388 615.172 251.933 622.177 254.606 629.028C257.279 635.88 260.273 642.532 263.502 648.742C266.453 654.617 270.039 660.126 274.195 665.162L258.52 662.664C261.535 661.317 264.635 659.925 267.758 658.245C270.88 656.565 274.066 655.063 277.209 653.294L286.833 648.056C290.04 646.311 293.248 644.41 296.52 642.775L296.862 642.597C298.39 641.806 300.132 641.573 301.803 641.933C303.477 642.295 304.982 643.23 306.074 644.587C307.168 645.944 307.784 647.645 307.823 649.41C307.862 651.176 307.323 652.902 306.293 654.31C303.9 657.576 301.344 660.712 298.637 663.703C295.964 666.687 293.162 669.516 290.254 672.301C287.346 675.085 284.267 677.714 281.059 680.234C277.851 682.753 274.451 685.184 270.837 687.439C268.522 688.867 265.82 689.473 263.14 689.165C260.461 688.858 257.952 687.654 255.995 685.737L255.162 684.919C248.825 678.569 243.325 671.383 238.803 663.548C234.51 656.343 230.687 648.849 227.362 641.117C224.005 633.537 221.118 625.846 218.487 618.111C217.183 614.243 215.921 610.354 214.787 606.441C213.654 602.53 212.649 598.685 211.558 594.354C210.535 590.389 211.078 586.164 213.066 582.613C215.056 579.061 218.329 576.472 222.165 575.414C226.002 574.355 230.089 574.916 233.525 576.971C236.963 579.027 239.468 582.409 240.492 586.374L240.621 586.772Z" fill="#CAB7FF"/>
<path d="M179.118 500.913C182.86 519.036 184.144 529.843 194.451 537.864C209.955 549.932 230.613 538.174 232.195 519.234C233.606 502.195 227.276 475.41 208.885 470.791C204.832 469.755 200.592 469.807 196.564 470.941C192.537 472.076 188.857 474.256 185.874 477.275C182.892 480.293 180.706 484.049 179.523 488.186C178.341 492.323 178.201 496.705 179.118 500.913Z" fill="#FFD5BD"/>
<path d="M216.905 502.814C225.288 502.151 224.797 498.151 222.915 495.212C221.033 492.273 215.913 484.306 218.745 481.709C221.576 479.111 230.399 484.891 228.005 473.355C225.609 461.819 209.87 447.21 196.119 456.161C168.726 451.498 159.766 462.924 164.042 473.487C142.293 483.433 157.99 503.566 166.651 503.566C158.931 510.682 186.414 534.131 189.147 532.451C191.882 530.771 223.021 519.987 216.905 502.814Z" fill="#14142B"/>
<path d="M199.967 461.951C199.683 461.947 199.403 461.885 199.141 461.767C198.881 461.649 198.645 461.479 198.449 461.266C195.262 457.954 191.29 455.564 186.929 454.334C182.569 453.105 177.973 453.08 173.6 454.261C173.05 454.394 172.472 454.296 171.991 453.99C171.51 453.683 171.167 453.193 171.034 452.625C170.906 452.057 171 451.459 171.297 450.962C171.592 450.465 172.067 450.11 172.616 449.973C177.718 448.628 183.07 448.678 188.148 450.12C193.225 451.561 197.851 454.344 201.572 458.194C201.97 458.609 202.194 459.169 202.194 459.752C202.194 460.336 201.97 460.896 201.572 461.311C201.362 461.526 201.111 461.695 200.834 461.805C200.558 461.915 200.264 461.965 199.967 461.951Z" fill="#14142B"/>
<path d="M171.633 523.699C171.351 523.7 171.073 523.645 170.812 523.535C170.552 523.425 170.315 523.263 170.115 523.058C164.084 516.782 161.561 511.876 162.331 507.588C162.691 505.968 163.433 504.466 164.493 503.216C165.553 501.966 166.897 501.008 168.404 500.428C168.918 500.176 169.507 500.145 170.042 500.342C170.577 500.538 171.015 500.947 171.259 501.478C171.503 502.008 171.534 502.617 171.343 503.17C171.153 503.723 170.756 504.176 170.244 504.428C167.998 505.533 166.801 506.814 166.544 508.339C166.287 509.865 167.142 513.688 173.152 519.921C173.352 520.126 173.512 520.369 173.62 520.64C173.729 520.909 173.785 521.197 173.785 521.489C173.785 521.782 173.729 522.07 173.62 522.339C173.512 522.608 173.352 522.852 173.152 523.058C172.952 523.263 172.715 523.425 172.455 523.535C172.194 523.645 171.914 523.7 171.633 523.699Z" fill="#14142B"/>
<path d="M206.599 501.4C208.034 505.763 210.813 509.52 214.51 512.096C219.408 515.433 222.723 511.654 222.081 506.196C221.503 501.267 218.253 493.598 212.992 492.427C207.732 491.256 204.952 496.118 206.599 501.4Z" fill="#FFD5BD"/>
<path d="M373.805 968.686C376.114 968.686 378.36 968.354 379.108 967.294C379.299 967.009 379.403 966.669 379.403 966.321C379.403 965.974 379.299 965.634 379.108 965.349C378.963 965.091 378.769 964.866 378.538 964.688C378.305 964.508 378.042 964.381 377.761 964.31C374.746 963.471 368.436 967.184 368.159 967.36C368.085 967.402 368.025 967.467 367.99 967.547C367.955 967.627 367.948 967.716 367.966 967.802C367.977 967.891 368.013 967.974 368.071 968.042C368.128 968.108 368.204 968.156 368.288 968.178C370.11 968.502 371.955 968.673 373.805 968.686ZM376.67 965.062C376.944 965.061 377.217 965.098 377.482 965.172C377.66 965.207 377.826 965.281 377.973 965.388C378.122 965.494 378.245 965.631 378.337 965.792C378.637 966.343 378.531 966.609 378.337 966.764C377.482 967.978 372.906 968.001 369.549 967.515C371.773 966.219 374.222 965.385 376.755 965.062H376.67Z" fill="#3F80FD"/>
<path d="M368.33 968.178H368.501C370.64 967.184 375.023 963.139 374.681 961.017C374.681 960.531 374.275 959.912 373.099 959.78C372.675 959.734 372.246 959.777 371.839 959.906C371.43 960.036 371.052 960.248 370.726 960.531C368.415 962.498 367.924 967.537 367.903 967.736C367.9 967.813 367.915 967.891 367.949 967.961C367.983 968.03 368.033 968.089 368.095 968.133C368.165 968.179 368.249 968.195 368.33 968.178ZM372.757 960.598H373.014C373.784 960.598 373.826 960.996 373.847 961.084C374.04 962.365 371.111 965.504 368.865 966.917C369.069 964.786 369.906 962.773 371.259 961.151C371.679 960.789 372.21 960.592 372.757 960.598Z" fill="#3F80FD"/>
<path d="M347.78 967.736H365.871L362.428 924.463H344.337L347.78 967.736Z" fill="#FFD5BD"/>
<path d="M365.892 965.57H346.154C345.81 965.557 345.474 965.685 345.219 965.923C344.962 966.164 344.807 966.496 344.785 966.851L343.61 983.383C343.594 983.811 343.663 984.239 343.811 984.64C343.96 985.042 344.182 985.409 344.47 985.72C344.757 986.031 345.101 986.28 345.482 986.451C345.863 986.623 346.273 986.714 346.689 986.72C353.788 986.587 364.01 986.167 372.97 986.167C383.427 986.167 384.518 986.741 396.793 986.741C404.213 986.741 405.154 978.985 401.946 978.299C387.362 975.095 383.79 974.741 370.447 966.962C369.068 966.104 367.5 965.625 365.892 965.57Z" fill="#14142B"/>
<path opacity="0.2" d="M362.407 924.485L364.204 946.785H346.112L344.337 924.485H362.407Z" fill="#14142B"/>
<path d="M261.277 968.685C262.802 968.868 264.335 968.432 265.555 967.47C265.781 967.148 265.902 966.762 265.902 966.364C265.902 965.968 265.781 965.581 265.555 965.26C265.414 965.001 265.22 964.775 264.988 964.6C264.756 964.425 264.489 964.303 264.208 964.243C261.577 963.602 256.574 967.138 256.36 967.293C256.295 967.344 256.245 967.412 256.215 967.49C256.185 967.567 256.175 967.652 256.189 967.735C256.201 967.818 256.239 967.895 256.297 967.954C256.354 968.014 256.428 968.053 256.509 968.066C258.072 968.454 259.671 968.661 261.277 968.685ZM263.544 965.127C263.722 965.104 263.901 965.104 264.079 965.127C264.244 965.162 264.401 965.232 264.537 965.337C264.674 965.439 264.788 965.571 264.87 965.723C265.255 966.452 265.02 966.762 264.87 966.85C264.1 967.911 260.401 967.911 257.707 967.448C259.419 966.244 261.37 965.451 263.417 965.127H263.544Z" fill="#3F80FD"/>
<path d="M256.616 968.178H256.81C258.691 967.118 262.304 963.028 261.92 960.952C261.856 960.623 261.685 960.328 261.436 960.115C261.187 959.902 260.874 959.784 260.551 959.779C260.226 959.739 259.896 959.768 259.583 959.868C259.27 959.966 258.98 960.133 258.733 960.355C256.595 962.122 256.189 967.516 256.189 967.736C256.179 967.818 256.193 967.901 256.227 967.974C256.261 968.048 256.315 968.112 256.381 968.157C256.457 968.186 256.538 968.194 256.616 968.178ZM260.251 960.598H260.445C261 960.598 261.065 960.93 261.086 961.04C261.3 962.277 258.948 965.459 257.13 966.83C257.26 964.701 258.005 962.661 259.268 960.973C259.543 960.733 259.891 960.6 260.251 960.598Z" fill="#3F80FD"/>
<path d="M240.064 967.736H258.135L267.222 924.463H249.153L240.064 967.736Z" fill="#FFD5BD"/>
<path d="M259.418 965.57H239.124C238.764 965.567 238.414 965.693 238.132 965.926C237.852 966.161 237.658 966.486 237.585 966.851L234.013 983.383C233.926 983.786 233.929 984.206 234.02 984.61C234.112 985.012 234.292 985.388 234.545 985.709C234.798 986.031 235.119 986.288 235.482 986.463C235.846 986.638 236.242 986.725 236.644 986.72C243.743 986.586 247.186 986.167 256.124 986.167C261.62 986.167 268.657 986.741 276.247 986.741C283.84 986.741 284.802 978.985 281.722 978.299C267.801 975.138 266.754 970.807 262.369 966.652C261.548 965.93 260.497 965.544 259.418 965.57Z" fill="#14142B"/>
<path d="M197.125 722.158C197.125 722.158 297.418 753.606 299.899 795.244C304.455 871.93 268.058 937.28 268.058 937.28H240.942C240.942 937.28 251.249 904.882 254.948 835.421C259.589 748.126 99.867 837.454 129.4 722.158H197.125Z" fill="#171347"/>
<g opacity="0.2">
<path opacity="0.2" d="M249.131 924.485H267.222L262.54 946.785H244.447L249.131 924.485Z" fill="#14142B"/>
</g>
<path d="M176.143 740.037C176.143 740.037 305.841 748.877 310.973 820.017C316.855 901.788 318.566 955.159 318.566 955.159H291.706C291.706 955.159 277.891 905.014 266.045 832.923C262.473 811.333 218.164 807.619 176.228 805.055C140.089 802.845 112.331 800.636 109.294 759.264L109.765 740.037H176.143Z" fill="#171347"/>
<path d="M325.129 947.734C325.279 947.734 323.397 960.996 323.397 960.996H286.167L285.161 949.26L325.129 947.734Z" fill="#3F80FD"/>
<path d="M226.291 947.734C226.44 947.734 222.87 960.996 222.87 960.996H185.661L186.344 949.26L226.291 947.734Z" fill="#3F80FD"/>
<path d="M170.306 799.177L152.15 671.726C151.663 668.276 149.989 665.122 147.437 662.842C144.885 660.562 141.624 659.306 138.25 659.306H31.134C29.1162 659.306 27.1209 659.754 25.2851 660.623C23.4494 661.491 21.8167 662.758 20.4976 664.337C19.1786 665.918 18.2041 667.771 17.6412 669.774C17.0782 671.778 16.9396 673.884 17.2337 675.947L34.7691 799.177C34.7691 800.595 35.0407 801.999 35.5658 803.31C36.0923 804.62 36.8624 805.809 37.8342 806.811C38.8046 807.814 39.9584 808.607 41.227 809.148C42.4957 809.689 43.854 809.965 45.2262 809.962H240.491C240.491 808.544 240.219 807.139 239.694 805.83C239.167 804.52 238.397 803.33 237.426 802.329C236.455 801.326 235.301 800.533 234.033 799.992C232.764 799.451 231.406 799.174 230.034 799.177H170.306Z" fill="#3F80FD"/>
<path opacity="0.5" d="M170.306 799.177L152.15 671.726C151.663 668.276 149.989 665.122 147.437 662.842C144.885 660.562 141.624 659.306 138.25 659.306H31.134C29.1162 659.306 27.1209 659.754 25.2851 660.623C23.4494 661.491 21.8167 662.758 20.4976 664.337C19.1786 665.918 18.2041 667.771 17.6412 669.774C17.0782 671.778 16.9396 673.884 17.2337 675.947L34.7691 799.177C34.7691 800.595 35.0407 801.999 35.5658 803.31C36.0923 804.62 36.8624 805.809 37.8342 806.811C38.8046 807.814 39.9584 808.607 41.227 809.148C42.4957 809.689 43.854 809.965 45.2262 809.962H240.491C240.491 808.544 240.219 807.139 239.694 805.83C239.167 804.52 238.397 803.33 237.426 802.329C236.455 801.326 235.301 800.533 234.033 799.992C232.764 799.451 231.406 799.174 230.034 799.177H170.306Z" fill="white"/>
<path opacity="0.3" d="M138.249 659.306H31.1337C29.1159 659.306 27.1206 659.754 25.2848 660.623C23.4491 661.491 21.8164 662.758 20.4973 664.337C19.1783 665.918 18.2037 667.771 17.6408 669.774C17.0779 671.778 16.9393 673.884 17.2333 675.947L34.7687 799.177C34.7687 800.595 35.0404 801.999 35.5655 803.31C36.092 804.62 36.8621 805.809 37.8339 806.811C38.8043 807.814 39.9581 808.607 41.2267 809.148C42.4954 809.689 43.8536 809.965 45.2259 809.962H158.801L138.249 659.306Z" fill="#3F80FD"/>
<path d="M36.1383 1006.21H30.0864L45.226 809.962H51.3003L36.1383 1006.21Z" fill="#3F80FD"/>
<path opacity="0.6" d="M36.1383 1006.21H30.0864L45.226 809.962H51.3003L36.1383 1006.21Z" fill="white"/>
<path d="M139.105 1006.21H133.053L148.215 809.962H154.267L139.105 1006.21Z" fill="#3F80FD"/>
<path opacity="0.6" d="M139.105 1006.21H133.053L148.215 809.962H154.267L139.105 1006.21Z" fill="white"/>
<path d="M148.429 1006.21H142.356L127.215 809.962H133.267L148.429 1006.21Z" fill="#3F80FD"/>
<path opacity="0.7" d="M148.429 1006.21H142.356L127.215 809.962H133.267L148.429 1006.21Z" fill="white"/>
<path d="M251.396 1006.21H245.344L230.183 809.962H236.234L251.396 1006.21Z" fill="#3F80FD"/>
<path opacity="0.7" d="M251.396 1006.21H245.344L230.183 809.962H236.234L251.396 1006.21Z" fill="white"/>
<g clip-path="url(#clip1)">
<path d="M810.264 371.143L784.81 352.883C784.81 352.883 782.367 340.002 779.223 336.977C774.903 333.765 757.25 325.716 751.181 327.941C746.417 330.044 746.437 356.184 751.181 357.507C755.926 358.833 774.903 364.914 774.903 364.914L802.064 387.637L810.264 371.143Z" fill="#FFD5BD"/>
<path d="M968.267 376.944C968.267 376.944 967.129 378.04 965.241 379.991C960.791 384.482 950.806 393.545 940.458 403.249C919.765 420.786 894.232 440.383 878.375 438.885C849.92 436.211 787.836 384.108 787.836 384.108L799.53 361.919C799.53 361.919 844.747 392.984 871.909 399.507C899.07 406.03 943.046 322.14 964.155 316.286L968.267 376.944Z" fill="#0048F0"/>
<path d="M802.789 360.329C803.568 360.701 803.892 361.664 803.508 362.456L791.155 387.899C790.631 388.973 789.181 389.065 788.536 388.065L785.301 383.048C784.997 382.579 784.962 381.977 785.208 381.474L796.229 358.862C796.598 358.106 797.48 357.789 798.222 358.145L802.789 360.329Z" fill="#14142A"/>
<path opacity="0.2" d="M965.319 379.991C960.868 384.482 951.686 393.545 940.615 403.249C945.633 379.562 961.593 360.021 961.593 360.021L965.319 379.991Z" fill="#14142B"/>
<path d="M967.569 986.547L946.589 988.819L942.657 942.061L963.636 939.762L967.569 986.547Z" fill="#FFD5BD"/>
<path d="M1072.28 984.968H1051.95L1050.27 936.287H1070.63L1072.28 984.968Z" fill="#FFD5BD"/>
<path d="M1049.11 982.535H1073.81C1074.64 982.535 1075.36 983.123 1075.54 983.979L1079.55 1002.69C1079.86 1004.4 1078.78 1006.06 1077.12 1006.38C1076.94 1006.41 1076.76 1006.44 1076.58 1006.44C1068.58 1006.3 1062.76 1005.79 1052.73 1005.79C1046.54 1005.79 1027.89 1006.46 1019.36 1006.46C1010.82 1006.46 1009.71 997.746 1013.2 996.945C1028.88 993.417 1040.67 988.524 1045.69 983.872C1046.62 982.99 1047.84 982.508 1049.11 982.535Z" fill="#171347"/>
<path d="M1042.41 986.224C1041.03 986.331 1039.64 985.958 1038.5 985.155C1037.75 984.487 1037.36 983.497 1037.49 982.481C1037.47 981.893 1037.8 981.331 1038.32 981.091C1040.57 979.889 1047.14 984.059 1047.86 984.54C1048.05 984.62 1048.15 984.835 1048.1 985.021C1048.07 985.235 1047.92 985.396 1047.73 985.45C1046 985.903 1044.22 986.171 1042.41 986.224ZM1039.38 981.866C1039.17 981.84 1038.94 981.893 1038.76 982.001C1038.63 982.001 1038.47 982.188 1038.45 982.589C1038.37 983.257 1038.6 983.925 1039.09 984.38C1041.37 985.45 1043.96 985.583 1046.34 984.753C1044.22 983.337 1041.86 982.348 1039.38 981.866Z" fill="#FF3951"/>
<path d="M1047.61 985.475H1047.37C1045.28 984.299 1041.22 979.674 1041.63 977.455C1041.79 976.68 1042.43 976.146 1043.18 976.146C1043.93 976.039 1044.66 976.279 1045.23 976.787C1047.58 978.764 1048.07 984.807 1048.1 985.101C1048.1 985.288 1048.02 985.448 1047.86 985.555C1047.76 985.555 1047.68 985.528 1047.61 985.475ZM1043.52 976.947H1043.29C1042.66 976.947 1042.61 977.322 1042.59 977.455C1042.33 978.819 1044.92 982.321 1047.01 983.952C1046.88 981.545 1046.03 979.272 1044.6 977.375C1044.32 977.108 1043.93 976.947 1043.52 976.947Z" fill="#FF3951"/>
<path d="M944.364 981.867H969.068C969.897 981.867 970.621 982.455 970.803 983.31L974.812 1002.02C975.123 1003.73 974.036 1005.39 972.381 1005.71C972.199 1005.74 972.018 1005.77 971.838 1005.77C963.844 1005.63 958.023 1005.13 947.986 1005.13C941.804 1005.13 923.153 1005.79 914.616 1005.79C906.08 1005.79 904.968 997.079 908.46 996.276C924.137 992.747 935.932 987.855 940.95 983.203C941.882 982.322 943.097 981.841 944.364 981.867Z" fill="#171347"/>
<path d="M937.639 985.556C936.269 985.663 934.871 985.29 933.733 984.487C932.983 983.819 932.595 982.829 932.724 981.813C932.698 981.225 933.035 980.663 933.553 980.423C935.803 979.221 942.373 983.39 943.097 983.872C943.278 983.952 943.383 984.167 943.329 984.353C943.304 984.567 943.149 984.728 942.968 984.781C941.235 985.235 939.449 985.503 937.639 985.556ZM934.613 981.118C934.405 981.091 934.173 981.145 933.991 981.251C933.862 981.251 933.707 981.44 933.681 981.84C933.604 982.509 933.836 983.177 934.328 983.632C936.604 984.701 939.191 984.835 941.571 984.005C939.449 982.589 937.096 981.6 934.613 981.118Z" fill="#FF3951"/>
<path d="M942.839 984.807H942.606C940.51 983.631 936.449 979.007 936.863 976.787C937.018 976.013 937.665 975.478 938.416 975.478C939.165 975.371 939.889 975.611 940.458 976.119C942.813 978.097 943.304 984.139 943.329 984.434C943.329 984.621 943.252 984.781 943.097 984.887C942.994 984.887 942.917 984.861 942.839 984.807ZM938.751 976.279H938.519C937.898 976.279 937.847 976.654 937.819 976.787C937.562 978.152 940.149 981.654 942.244 983.285C942.114 980.877 941.261 978.605 939.838 976.708C939.554 976.441 939.165 976.279 938.751 976.279Z" fill="#FF3951"/>
<path opacity="0.2" d="M963.636 939.762L942.657 942.061L944.701 966.176L965.68 963.903L963.636 939.762Z" fill="#14142B"/>
<path opacity="0.2" d="M1070.63 936.313H1050.27L1051.15 961.416H1071.51L1070.63 936.313Z" fill="#14142B"/>
<path d="M1062.22 509.273H954.298C943.952 567.178 911.926 772.116 934.974 954.732L971.501 950.054C971.501 950.054 968.113 707.636 1000.37 618.025C1004.09 665.984 1008.49 716.938 1012.32 744.153C1021.71 810.987 1041.81 957.057 1041.81 957.057H1079.01C1079.01 957.057 1071.4 817.242 1067.89 751.558C1064.03 680.26 1062.38 523.977 1062.22 509.273Z" fill="#EE283C"/>
<path opacity="0.2" d="M1000.37 618.025C995.067 633.743 991.031 649.865 988.315 666.279C985.288 623.505 997.369 578.326 997.369 578.326L1000.37 618.025Z" fill="#14142B"/>
<path d="M930.126 960.751C930.5 962.325 931.97 963.346 933.521 963.108L973.114 957.021C974.727 956.774 975.862 955.253 975.685 953.578L974.969 946.822C974.783 945.075 973.245 943.825 971.557 944.054L930.938 949.546C929.145 949.789 927.953 951.588 928.384 953.402L930.126 960.751Z" fill="#D9DBE9"/>
<path d="M1037.02 954.613C1037.2 956.19 1038.49 957.379 1040.03 957.379H1078.17C1079.85 957.379 1081.21 955.976 1081.21 954.243V946.904C1081.21 945.194 1079.88 943.8 1078.23 943.767L1039.16 943.011C1037.32 942.975 1035.87 944.627 1036.09 946.516L1037.02 954.613Z" fill="#D9DBE9"/>
<path d="M953.393 510.61H1062.04V523.978L951.996 522.588L953.393 510.61Z" fill="#14142B"/>
<path d="M1025.6 504.596H1024.75C1023.92 504.596 1023.24 505.297 1023.24 506.164V526.767C1023.24 527.633 1023.92 528.335 1024.75 528.335H1025.6C1026.44 528.335 1027.12 527.633 1027.12 526.767V506.164C1027.12 505.297 1026.44 504.596 1025.6 504.596Z" fill="#6E7191"/>
<path d="M970.63 504.596H969.785C968.947 504.596 968.267 505.297 968.267 506.164V526.767C968.267 527.633 968.947 528.335 969.785 528.335H970.63C971.467 528.335 972.147 527.633 972.147 526.767V506.164C972.147 505.297 971.467 504.596 970.63 504.596Z" fill="#6E7191"/>
<path d="M999.895 508.284H985.866C984.189 508.284 982.831 509.689 982.831 511.42V520.119C982.831 521.85 984.189 523.255 985.866 523.255H999.895C1001.57 523.255 1002.93 521.85 1002.93 520.119V511.42C1002.93 509.689 1001.57 508.284 999.895 508.284Z" fill="white"/>
<path d="M964.155 316.286C964.155 316.286 1032.81 312.944 1083.95 326.284C1083.95 326.284 1061.37 443.778 1062.22 510.612H953.393C953.393 510.612 946.331 385.259 964.155 316.286Z" fill="#0048F0"/>
<path d="M1001.7 325.191C1000.78 325.246 1000.12 326.132 1000.3 327.067L1002.76 339.632C1002.8 339.855 1002.81 340.053 1002.76 340.275C1001.6 345.311 986.37 411.744 982.824 447.516C982.778 447.985 982.942 448.435 983.266 448.768L987.973 453.59C988.476 454.106 989.256 454.192 989.854 453.8L997.632 448.697C998.065 448.413 998.33 447.922 998.338 447.392C998.461 439.068 999.687 371.673 1007.41 341.777C1007.49 341.462 1007.67 341.197 1007.91 340.991L1020.39 330.428C1021.32 329.643 1021.04 328.106 1019.9 327.724L1011.01 324.744C1010.83 324.684 1010.65 324.659 1010.46 324.67L1001.7 325.191Z" fill="#14142B"/>
<path d="M985.237 220.552C985.237 220.552 980.994 249.505 995.868 260.652C1010.74 271.8 1010.74 217.879 1010.74 217.879L985.237 220.552Z" fill="#14142B"/>
<path d="M1044.91 318.798C1035.01 328.101 1010.74 324.653 1010.74 324.653C1010.74 324.653 995.584 320.375 998.765 315.483C1007.69 313.959 1012.01 309.655 1013.79 304.148C1014.78 300.726 1015.09 297.144 1014.7 293.615C1014.55 291.637 1014.31 289.686 1013.95 287.734L1043.93 264.663C1040.03 279.928 1035.21 307.811 1044.91 318.798Z" fill="#FFD5BD"/>
<path opacity="0.2" d="M1037.02 279.367C1035.83 298.08 1021.04 303.106 1013.74 304.149C1014.73 300.727 1015.04 297.144 1014.65 293.616L1037.02 279.367Z" fill="#14142B"/>
<path d="M1039.04 283.67C1032.63 293.481 1020.68 297.652 1009.84 293.856C1002.98 291.61 997.188 286.745 993.669 280.248C993.178 279.393 992.738 278.484 992.324 277.575C985.003 259.878 982.675 228.92 1000.78 217.318C1013.69 208.95 1030.71 212.96 1038.81 226.3C1041.09 230.043 1042.48 234.294 1042.9 238.705C1045.12 259.316 1047.37 271.426 1039.04 283.67Z" fill="#FFD5BD"/>
<path d="M1013.72 249.745C1014.11 251.376 1013.36 252.9 1012.29 253.087C1011.23 253.274 1010.15 252.071 1009.86 250.413C1009.58 248.756 1010.25 247.259 1011.29 247.072C1012.32 246.885 1013.41 248.034 1013.72 249.745Z" fill="#14142B"/>
<path d="M995.429 252.954C995.817 254.585 995.067 256.135 994.006 256.322C992.945 256.509 991.885 255.28 991.6 253.649C991.316 252.018 991.962 250.467 993.023 250.28C994.084 250.093 995.17 251.296 995.429 252.954Z" fill="#14142B"/>
<path d="M1001.38 252.767C1000.29 258.194 998.482 263.461 996.024 268.406C998.559 269.636 1001.51 269.636 1004.04 268.406L1001.38 252.767Z" fill="#FF97B8"/>
<path d="M1018.37 242.609C1018.04 242.715 1017.65 242.635 1017.39 242.395C1015.66 240.603 1013.2 239.801 1010.77 240.176C1010.25 240.309 1009.73 239.989 1009.6 239.454C1009.47 238.919 1009.79 238.385 1010.3 238.251C1013.35 237.69 1016.49 238.679 1018.68 240.924C1019.05 241.299 1019.07 241.913 1018.71 242.288L1018.68 242.314C1018.61 242.421 1018.5 242.528 1018.37 242.609Z" fill="#14142B"/>
<path d="M1008.08 276.72C1012.89 276.64 1017.36 274.127 1020.06 269.983C1020.21 269.743 1020.13 269.422 1019.9 269.288L1019.87 269.262C1019.64 269.128 1019.36 269.181 1019.2 269.422C1016.64 273.191 1012.5 275.49 1008.05 275.624C1007.79 275.651 1007.59 275.865 1007.56 276.132C1007.56 276.399 1007.79 276.64 1008.05 276.64L1008.08 276.72Z" fill="#14142B"/>
<path d="M986.504 247.821C986.349 247.928 986.142 247.981 985.961 247.981C985.443 247.848 985.159 247.286 985.288 246.778C985.288 246.778 985.288 246.778 985.288 246.752C986.09 243.65 988.289 241.138 991.212 240.042C991.704 239.881 992.221 240.149 992.376 240.656C992.376 240.683 992.376 240.683 992.402 240.71C992.557 241.245 992.273 241.779 991.755 241.94C989.505 242.875 987.797 244.854 987.151 247.286C987.021 247.554 986.789 247.767 986.504 247.821Z" fill="#14142B"/>
<path d="M1024.09 215.661V224.885C1027.3 226.034 1029.16 229.483 1028.41 232.904C1026.47 240.925 1032.08 252.259 1038.32 256.296C1038.32 256.296 1038.11 252.955 1040.9 253.382C1043.7 253.81 1045.02 271.213 1040.7 280.116C1040.7 280.116 1047.81 271.668 1050.19 252.955C1052.36 235.631 1051.25 221.596 1047.14 215.528L1024.09 215.661Z" fill="#14142B"/>
<path d="M1047.14 218.334C1047.14 218.334 1053.84 202.722 1028.85 199.166C1003.86 195.611 977.528 205.849 977.528 205.849C977.528 205.849 976.234 230.605 997.42 230.364C1018.06 230.123 1047.14 218.334 1047.14 218.334Z" fill="#14142B"/>
<path d="M1054.28 253.97C1052.83 258.996 1049.52 263.246 1045.07 265.759C1039.15 269.047 1034.72 263.914 1035.14 257.365C1035.55 251.51 1039.04 242.581 1045.61 242.073C1052.18 241.565 1056.04 247.767 1054.28 253.97Z" fill="#FFD5BD"/>
<path d="M1040.49 306.982L1011.8 320.349L1010.12 309.656L999.593 313.479C995.791 314.842 993.411 318.745 993.851 322.862L995.015 334.625L1009.58 326.391L1016.82 337.084L1051.28 319.948L1040.49 306.982Z" fill="#CAB7FF"/>
<path opacity="0.2" d="M1074.53 381.569C1072.72 393.412 1070.83 406.431 1069.1 419.85C1062.12 405.522 1061.37 388.841 1066.98 373.896L1074.53 381.569Z" fill="#14142B"/>
<path d="M1083.95 326.284C1096.31 332.165 1136.49 415.441 1133.82 462.463C1131.24 508.285 1062.04 565.415 1062.04 565.415C1062.04 565.415 1047.06 552.85 1044.97 542.05C1044.97 542.05 1093.73 489.84 1095.02 462.463C1096.29 435.57 1067.86 387.61 1067.86 387.61C1067.86 387.61 1064.63 367.56 1070.45 350.184C1076.27 332.807 1083.95 326.284 1083.95 326.284Z" fill="#0048F0"/>
<path d="M1044.97 530.928C1044.97 530.928 1056.24 557.074 1065.66 562.367C1065.66 562.367 1067.7 571.215 1059.5 583.246C1051.3 595.276 1019.69 553.919 1044.97 530.928Z" fill="#CAB7FF"/>
</g>
<defs>
<filter id="filter0_dd" x="373.088" y="372.572" width="419.973" height="389.532" filterUnits="userSpaceOnUse" color-interpolation-filters="sRGB">
<feFlood flood-opacity="0" result="BackgroundImageFix"/>
<feColorMatrix in="SourceAlpha" type="matrix" values="0 0 0 0 0 0 0 0 0 0 0 0 0 0 0 0 0 0 127 0" result="hardAlpha"/>
<feOffset dy="10.4916"/>
<feGaussianBlur stdDeviation="10.4916"/>
<feColorMatrix type="matrix" values="0 0 0 0 0.078875 0 0 0 0 0.0770833 0 0 0 0 0.166667 0 0 0 0.03 0"/>
<feBlend mode="normal" in2="BackgroundImageFix" result="effect1_dropShadow"/>
<feColorMatrix in="SourceAlpha" type="matrix" values="0 0 0 0 0 0 0 0 0 0 0 0 0 0 0 0 0 0 127 0" result="hardAlpha"/>
<feOffset dy="-1.4988"/>
<feGaussianBlur stdDeviation="11.241"/>
<feColorMatrix type="matrix" values="0 0 0 0 0.078875 0 0 0 0 0.0770833 0 0 0 0 0.166667 0 0 0 0.02 0"/>
<feBlend mode="normal" in2="effect1_dropShadow" result="effect2_dropShadow"/>
<feBlend mode="normal" in="SourceGraphic" in2="effect2_dropShadow" result="shape"/>
</filter>
<filter id="filter1_d" x="397.997" y="405.223" width="37.1258" height="37.5667" filterUnits="userSpaceOnUse" color-interpolation-filters="sRGB">
<feFlood flood-opacity="0" result="BackgroundImageFix"/>
<feColorMatrix in="SourceAlpha" type="matrix" values="0 0 0 0 0 0 0 0 0 0 0 0 0 0 0 0 0 0 127 0" result="hardAlpha"/>
<feOffset dy="2.9976"/>
<feGaussianBlur stdDeviation="5.99521"/>
<feColorMatrix type="matrix" values="0 0 0 0 1 0 0 0 0 0.223529 0 0 0 0 0.317647 0 0 0 0.14 0"/>
<feBlend mode="normal" in2="BackgroundImageFix" result="effect1_dropShadow"/>
<feBlend mode="normal" in="SourceGraphic" in2="effect1_dropShadow" result="shape"/>
</filter>
<filter id="filter2_d" x="418.636" y="406.721" width="34.1282" height="34.5691" filterUnits="userSpaceOnUse" color-interpolation-filters="sRGB">
<feFlood flood-opacity="0" result="BackgroundImageFix"/>
<feColorMatrix in="SourceAlpha" type="matrix" values="0 0 0 0 0 0 0 0 0 0 0 0 0 0 0 0 0 0 127 0" result="hardAlpha"/>
<feOffset dy="2.9976"/>
<feGaussianBlur stdDeviation="5.24581"/>
<feColorMatrix type="matrix" values="0 0 0 0 1 0 0 0 0 0.760784 0 0 0 0 0.14902 0 0 0 0.14 0"/>
<feBlend mode="normal" in2="BackgroundImageFix" result="effect1_dropShadow"/>
<feBlend mode="normal" in="SourceGraphic" in2="effect1_dropShadow" result="shape"/>
</filter>
<filter id="filter3_d" x="439.277" y="408.22" width="31.1318" height="31.5715" filterUnits="userSpaceOnUse" color-interpolation-filters="sRGB">
<feFlood flood-opacity="0" result="BackgroundImageFix"/>
<feColorMatrix in="SourceAlpha" type="matrix" values="0 0 0 0 0 0 0 0 0 0 0 0 0 0 0 0 0 0 127 0" result="hardAlpha"/>
<feOffset dy="2.9976"/>
<feGaussianBlur stdDeviation="4.49641"/>
<feColorMatrix type="matrix" values="0 0 0 0 0.603922 0 0 0 0 0.909804 0 0 0 0 0.52549 0 0 0 0.29 0"/>
<feBlend mode="normal" in2="BackgroundImageFix" result="effect1_dropShadow"/>
<feBlend mode="normal" in="SourceGraphic" in2="effect1_dropShadow" result="shape"/>
</filter>
<filter id="filter4_dd" x="614.42" y="3.67005" width="407.057" height="396.909" filterUnits="userSpaceOnUse" color-interpolation-filters="sRGB">
<feFlood flood-opacity="0" result="BackgroundImageFix"/>
<feColorMatrix in="SourceAlpha" type="matrix" values="0 0 0 0 0 0 0 0 0 0 0 0 0 0 0 0 0 0 127 0" result="hardAlpha"/>
<feOffset dy="8.99281"/>
<feGaussianBlur stdDeviation="13.4892"/>
<feColorMatrix type="matrix" values="0 0 0 0 0.0987208 0 0 0 0 0.0910417 0 0 0 0 0.475 0 0 0 0.02 0"/>
<feBlend mode="normal" in2="BackgroundImageFix" result="effect1_dropShadow"/>
<feColorMatrix in="SourceAlpha" type="matrix" values="0 0 0 0 0 0 0 0 0 0 0 0 0 0 0 0 0 0 127 0" result="hardAlpha"/>
<feOffset dy="-1.4988"/>
<feGaussianBlur stdDeviation="11.241"/>
<feColorMatrix type="matrix" values="0 0 0 0 0.078875 0 0 0 0 0.0770833 0 0 0 0 0.166667 0 0 0 0.04 0"/>
<feBlend mode="normal" in2="effect1_dropShadow" result="effect2_dropShadow"/>
<feBlend mode="normal" in="SourceGraphic" in2="effect2_dropShadow" result="shape"/>
</filter>
<filter id="filter5_d" x="643.387" y="37.889" width="37.127" height="37.5666" filterUnits="userSpaceOnUse" color-interpolation-filters="sRGB">
<feFlood flood-opacity="0" result="BackgroundImageFix"/>
<feColorMatrix in="SourceAlpha" type="matrix" values="0 0 0 0 0 0 0 0 0 0 0 0 0 0 0 0 0 0 127 0" result="hardAlpha"/>
<feOffset dy="2.9976"/>
<feGaussianBlur stdDeviation="5.99521"/>
<feColorMatrix type="matrix" values="0 0 0 0 1 0 0 0 0 0.223529 0 0 0 0 0.317647 0 0 0 0.14 0"/>
<feBlend mode="normal" in2="BackgroundImageFix" result="effect1_dropShadow"/>
<feBlend mode="normal" in="SourceGraphic" in2="effect1_dropShadow" result="shape"/>
</filter>
<filter id="filter6_d" x="665.525" y="39.3888" width="34.1293" height="34.5689" filterUnits="userSpaceOnUse" color-interpolation-filters="sRGB">
<feFlood flood-opacity="0" result="BackgroundImageFix"/>
<feColorMatrix in="SourceAlpha" type="matrix" values="0 0 0 0 0 0 0 0 0 0 0 0 0 0 0 0 0 0 127 0" result="hardAlpha"/>
<feOffset dy="2.9976"/>
<feGaussianBlur stdDeviation="5.24581"/>
<feColorMatrix type="matrix" values="0 0 0 0 1 0 0 0 0 0.760784 0 0 0 0 0.14902 0 0 0 0.14 0"/>
<feBlend mode="normal" in2="BackgroundImageFix" result="effect1_dropShadow"/>
<feBlend mode="normal" in="SourceGraphic" in2="effect1_dropShadow" result="shape"/>
</filter>
<filter id="filter7_d" x="687.664" y="40.8876" width="31.1317" height="31.5713" filterUnits="userSpaceOnUse" color-interpolation-filters="sRGB">
<feFlood flood-opacity="0" result="BackgroundImageFix"/>
<feColorMatrix in="SourceAlpha" type="matrix" values="0 0 0 0 0 0 0 0 0 0 0 0 0 0 0 0 0 0 127 0" result="hardAlpha"/>
<feOffset dy="2.9976"/>
<feGaussianBlur stdDeviation="4.49641"/>
<feColorMatrix type="matrix" values="0 0 0 0 0.603922 0 0 0 0 0.909804 0 0 0 0 0.52549 0 0 0 0.29 0"/>
<feBlend mode="normal" in2="BackgroundImageFix" result="effect1_dropShadow"/>
<feBlend mode="normal" in="SourceGraphic" in2="effect1_dropShadow" result="shape"/>
</filter>
<filter id="filter8_d" x="671.48" y="145.504" width="167.038" height="34.8945" filterUnits="userSpaceOnUse" color-interpolation-filters="sRGB">
<feFlood flood-opacity="0" result="BackgroundImageFix"/>
<feColorMatrix in="SourceAlpha" type="matrix" values="0 0 0 0 0 0 0 0 0 0 0 0 0 0 0 0 0 0 127 0" result="hardAlpha"/>
<feOffset dy="4.49641"/>
<feGaussianBlur stdDeviation="5.99521"/>
<feColorMatrix type="matrix" values="0 0 0 0 1 0 0 0 0 0.223529 0 0 0 0 0.317647 0 0 0 0.15 0"/>
<feBlend mode="normal" in2="BackgroundImageFix" result="effect1_dropShadow"/>
<feBlend mode="normal" in="SourceGraphic" in2="effect1_dropShadow" result="shape"/>
</filter>
<filter id="filter9_d" x="671.48" y="181.049" width="247.223" height="34.8947" filterUnits="userSpaceOnUse" color-interpolation-filters="sRGB">
<feFlood flood-opacity="0" result="BackgroundImageFix"/>
<feColorMatrix in="SourceAlpha" type="matrix" values="0 0 0 0 0 0 0 0 0 0 0 0 0 0 0 0 0 0 127 0" result="hardAlpha"/>
<feOffset dy="2.9976"/>
<feGaussianBlur stdDeviation="5.99521"/>
<feColorMatrix type="matrix" values="0 0 0 0 0.890196 0 0 0 0 0.795294 0 0 0 0 0.458824 0 0 0 0.31 0"/>
<feBlend mode="normal" in2="BackgroundImageFix" result="effect1_dropShadow"/>
<feBlend mode="normal" in="SourceGraphic" in2="effect1_dropShadow" result="shape"/>
</filter>
<filter id="filter10_d" x="671.48" y="219.59" width="79.9356" height="34.8947" filterUnits="userSpaceOnUse" color-interpolation-filters="sRGB">
<feFlood flood-opacity="0" result="BackgroundImageFix"/>
<feColorMatrix in="SourceAlpha" type="matrix" values="0 0 0 0 0 0 0 0 0 0 0 0 0 0 0 0 0 0 127 0" result="hardAlpha"/>
<feOffset dy="4.49641"/>
<feGaussianBlur stdDeviation="5.99521"/>
<feColorMatrix type="matrix" values="0 0 0 0 1 0 0 0 0 0.223529 0 0 0 0 0.317647 0 0 0 0.15 0"/>
<feBlend mode="normal" in2="BackgroundImageFix" result="effect1_dropShadow"/>
<feBlend mode="normal" in="SourceGraphic" in2="effect1_dropShadow" result="shape"/>
</filter>
<filter id="filter11_d" x="671.48" y="255.137" width="201.306" height="34.8947" filterUnits="userSpaceOnUse" color-interpolation-filters="sRGB">
<feFlood flood-opacity="0" result="BackgroundImageFix"/>
<feColorMatrix in="SourceAlpha" type="matrix" values="0 0 0 0 0 0 0 0 0 0 0 0 0 0 0 0 0 0 127 0" result="hardAlpha"/>
<feOffset dy="2.9976"/>
<feGaussianBlur stdDeviation="5.99521"/>
<feColorMatrix type="matrix" values="0 0 0 0 0.890196 0 0 0 0 0.795294 0 0 0 0 0.458824 0 0 0 0.31 0"/>
<feBlend mode="normal" in2="BackgroundImageFix" result="effect1_dropShadow"/>
<feBlend mode="normal" in="SourceGraphic" in2="effect1_dropShadow" result="shape"/>
</filter>
<filter id="filter12_d" x="671.48" y="293.678" width="227.623" height="34.8962" filterUnits="userSpaceOnUse" color-interpolation-filters="sRGB">
<feFlood flood-opacity="0" result="BackgroundImageFix"/>
<feColorMatrix in="SourceAlpha" type="matrix" values="0 0 0 0 0 0 0 0 0 0 0 0 0 0 0 0 0 0 127 0" result="hardAlpha"/>
<feOffset dy="4.49641"/>
<feGaussianBlur stdDeviation="5.99521"/>
<feColorMatrix type="matrix" values="0 0 0 0 1 0 0 0 0 0.223529 0 0 0 0 0.317647 0 0 0 0.15 0"/>
<feBlend mode="normal" in2="BackgroundImageFix" result="effect1_dropShadow"/>
<feBlend mode="normal" in="SourceGraphic" in2="effect1_dropShadow" result="shape"/>
</filter>
<filter id="filter13_d" x="481.912" y="493.188" width="121.813" height="149.868" filterUnits="userSpaceOnUse" color-interpolation-filters="sRGB">
<feFlood flood-opacity="0" result="BackgroundImageFix"/>
<feColorMatrix in="SourceAlpha" type="matrix" values="0 0 0 0 0 0 0 0 0 0 0 0 0 0 0 0 0 0 127 0" result="hardAlpha"/>
<feOffset dy="5.99521"/>
<feGaussianBlur stdDeviation="5.99521"/>
<feColorMatrix type="matrix" values="0 0 0 0 1 0 0 0 0 0.760784 0 0 0 0 0.14902 0 0 0 0.21 0"/>
<feBlend mode="normal" in2="BackgroundImageFix" result="effect1_dropShadow"/>
<feBlend mode="normal" in="SourceGraphic" in2="effect1_dropShadow" result="shape"/>
</filter>
<filter id="filter14_d" x="417.509" y="492.538" width="155.338" height="92.0543" filterUnits="userSpaceOnUse" color-interpolation-filters="sRGB">
<feFlood flood-opacity="0" result="BackgroundImageFix"/>
<feColorMatrix in="SourceAlpha" type="matrix" values="0 0 0 0 0 0 0 0 0 0 0 0 0 0 0 0 0 0 127 0" result="hardAlpha"/>
<feOffset dy="5.99521"/>
<feGaussianBlur stdDeviation="5.99521"/>
<feColorMatrix type="matrix" values="0 0 0 0 1 0 0 0 0 0.505882 0 0 0 0 0.223529 0 0 0 0.16 0"/>
<feBlend mode="normal" in2="BackgroundImageFix" result="effect1_dropShadow"/>
<feBlend mode="normal" in="SourceGraphic" in2="effect1_dropShadow" result="shape"/>
</filter>
<filter id="filter15_d" x="392.578" y="517.827" width="168.437" height="193.414" filterUnits="userSpaceOnUse" color-interpolation-filters="sRGB">
<feFlood flood-opacity="0" result="BackgroundImageFix"/>
<feColorMatrix in="SourceAlpha" type="matrix" values="0 0 0 0 0 0 0 0 0 0 0 0 0 0 0 0 0 0 127 0" result="hardAlpha"/>
<feOffset dy="8.99281"/>
<feGaussianBlur stdDeviation="11.9904"/>
<feColorMatrix type="matrix" values="0 0 0 0 1 0 0 0 0 0.223529 0 0 0 0 0.317647 0 0 0 0.34 0"/>
<feBlend mode="normal" in2="BackgroundImageFix" result="effect1_dropShadow"/>
<feBlend mode="normal" in="SourceGraphic" in2="effect1_dropShadow" result="shape"/>
</filter>
<filter id="filter16_d" x="617.214" y="540.585" width="41.9664" height="42.5681" filterUnits="userSpaceOnUse" color-interpolation-filters="sRGB">
<feFlood flood-opacity="0" result="BackgroundImageFix"/>
<feColorMatrix in="SourceAlpha" type="matrix" values="0 0 0 0 0 0 0 0 0 0 0 0 0 0 0 0 0 0 127 0" result="hardAlpha"/>
<feOffset dy="5.99521"/>
<feGaussianBlur stdDeviation="5.99521"/>
<feColorMatrix type="matrix" values="0 0 0 0 1 0 0 0 0 0.223529 0 0 0 0 0.317647 0 0 0 0.19 0"/>
<feBlend mode="normal" in2="BackgroundImageFix" result="effect1_dropShadow"/>
<feBlend mode="normal" in="SourceGraphic" in2="effect1_dropShadow" result="shape"/>
</filter>
<filter id="filter17_d" x="623.209" y="579.107" width="29.976" height="30.5777" filterUnits="userSpaceOnUse" color-interpolation-filters="sRGB">
<feFlood flood-opacity="0" result="BackgroundImageFix"/>
<feColorMatrix in="SourceAlpha" type="matrix" values="0 0 0 0 0 0 0 0 0 0 0 0 0 0 0 0 0 0 127 0" result="hardAlpha"/>
<feOffset dy="5.99521"/>
<feGaussianBlur stdDeviation="2.9976"/>
<feColorMatrix type="matrix" values="0 0 0 0 1 0 0 0 0 0.505882 0 0 0 0 0.223529 0 0 0 0.13 0"/>
<feBlend mode="normal" in2="BackgroundImageFix" result="effect1_dropShadow"/>
<feBlend mode="normal" in="SourceGraphic" in2="effect1_dropShadow" result="shape"/>
</filter>
<filter id="filter18_d" x="618.713" y="610.136" width="38.9688" height="39.5706" filterUnits="userSpaceOnUse" color-interpolation-filters="sRGB">
<feFlood flood-opacity="0" result="BackgroundImageFix"/>
<feColorMatrix in="SourceAlpha" type="matrix" values="0 0 0 0 0 0 0 0 0 0 0 0 0 0 0 0 0 0 127 0" result="hardAlpha"/>
<feOffset dy="8.99281"/>
<feGaussianBlur stdDeviation="5.24581"/>
<feColorMatrix type="matrix" values="0 0 0 0 1 0 0 0 0 0.760784 0 0 0 0 0.14902 0 0 0 0.44 0"/>
<feBlend mode="normal" in2="BackgroundImageFix" result="effect1_dropShadow"/>
<feBlend mode="normal" in="SourceGraphic" in2="effect1_dropShadow" result="shape"/>
</filter>
<filter id="filter19_dd" x="202.732" y="0.801884" width="428.967" height="396.909" filterUnits="userSpaceOnUse" color-interpolation-filters="sRGB">
<feFlood flood-opacity="0" result="BackgroundImageFix"/>
<feColorMatrix in="SourceAlpha" type="matrix" values="0 0 0 0 0 0 0 0 0 0 0 0 0 0 0 0 0 0 127 0" result="hardAlpha"/>
<feOffset dy="8.99281"/>
<feGaussianBlur stdDeviation="13.4892"/>
<feColorMatrix type="matrix" values="0 0 0 0 0.0987208 0 0 0 0 0.0910417 0 0 0 0 0.475 0 0 0 0.02 0"/>
<feBlend mode="normal" in2="BackgroundImageFix" result="effect1_dropShadow"/>
<feColorMatrix in="SourceAlpha" type="matrix" values="0 0 0 0 0 0 0 0 0 0 0 0 0 0 0 0 0 0 127 0" result="hardAlpha"/>
<feOffset dy="-1.4988"/>
<feGaussianBlur stdDeviation="11.241"/>
<feColorMatrix type="matrix" values="0 0 0 0 0.078875 0 0 0 0 0.0770833 0 0 0 0 0.166667 0 0 0 0.04 0"/>
<feBlend mode="normal" in2="effect1_dropShadow" result="effect2_dropShadow"/>
<feBlend mode="normal" in="SourceGraphic" in2="effect2_dropShadow" result="shape"/>
</filter>
<filter id="filter20_d" x="489.158" y="172.316" width="50.9592" height="178.726" filterUnits="userSpaceOnUse" color-interpolation-filters="sRGB">
<feFlood flood-opacity="0" result="BackgroundImageFix"/>
<feColorMatrix in="SourceAlpha" type="matrix" values="0 0 0 0 0 0 0 0 0 0 0 0 0 0 0 0 0 0 127 0" result="hardAlpha"/>
<feOffset dy="5.99521"/>
<feGaussianBlur stdDeviation="8.24341"/>
<feColorMatrix type="matrix" values="0 0 0 0 1 0 0 0 0 0.760784 0 0 0 0 0.14902 0 0 0 0.22 0"/>
<feBlend mode="normal" in2="BackgroundImageFix" result="effect1_dropShadow"/>
<feBlend mode="normal" in="SourceGraphic" in2="effect1_dropShadow" result="shape"/>
</filter>
<filter id="filter21_d" x="411.22" y="259.671" width="50.9593" height="91.3471" filterUnits="userSpaceOnUse" color-interpolation-filters="sRGB">
<feFlood flood-opacity="0" result="BackgroundImageFix"/>
<feColorMatrix in="SourceAlpha" type="matrix" values="0 0 0 0 0 0 0 0 0 0 0 0 0 0 0 0 0 0 127 0" result="hardAlpha"/>
<feOffset dy="5.99521"/>
<feGaussianBlur stdDeviation="8.24341"/>
<feColorMatrix type="matrix" values="0 0 0 0 1 0 0 0 0 0.760784 0 0 0 0 0.14902 0 0 0 0.22 0"/>
<feBlend mode="normal" in2="BackgroundImageFix" result="effect1_dropShadow"/>
<feBlend mode="normal" in="SourceGraphic" in2="effect1_dropShadow" result="shape"/>
</filter>
<filter id="filter22_d" x="333.283" y="145.212" width="50.9597" height="205.806" filterUnits="userSpaceOnUse" color-interpolation-filters="sRGB">
<feFlood flood-opacity="0" result="BackgroundImageFix"/>
<feColorMatrix in="SourceAlpha" type="matrix" values="0 0 0 0 0 0 0 0 0 0 0 0 0 0 0 0 0 0 127 0" result="hardAlpha"/>
<feOffset dy="5.99521"/>
<feGaussianBlur stdDeviation="8.24341"/>
<feColorMatrix type="matrix" values="0 0 0 0 1 0 0 0 0 0.760784 0 0 0 0 0.14902 0 0 0 0.22 0"/>
<feBlend mode="normal" in2="BackgroundImageFix" result="effect1_dropShadow"/>
<feBlend mode="normal" in="SourceGraphic" in2="effect1_dropShadow" result="shape"/>
</filter>
<filter id="filter23_d" x="233.635" y="36.3348" width="37.1267" height="37.5666" filterUnits="userSpaceOnUse" color-interpolation-filters="sRGB">
<feFlood flood-opacity="0" result="BackgroundImageFix"/>
<feColorMatrix in="SourceAlpha" type="matrix" values="0 0 0 0 0 0 0 0 0 0 0 0 0 0 0 0 0 0 127 0" result="hardAlpha"/>
<feOffset dy="2.9976"/>
<feGaussianBlur stdDeviation="5.99521"/>
<feColorMatrix type="matrix" values="0 0 0 0 1 0 0 0 0 0.223529 0 0 0 0 0.317647 0 0 0 0.14 0"/>
<feBlend mode="normal" in2="BackgroundImageFix" result="effect1_dropShadow"/>
<feBlend mode="normal" in="SourceGraphic" in2="effect1_dropShadow" result="shape"/>
</filter>
<filter id="filter24_d" x="254.275" y="37.8336" width="34.1292" height="34.569" filterUnits="userSpaceOnUse" color-interpolation-filters="sRGB">
<feFlood flood-opacity="0" result="BackgroundImageFix"/>
<feColorMatrix in="SourceAlpha" type="matrix" values="0 0 0 0 0 0 0 0 0 0 0 0 0 0 0 0 0 0 127 0" result="hardAlpha"/>
<feOffset dy="2.9976"/>
<feGaussianBlur stdDeviation="5.24581"/>
<feColorMatrix type="matrix" values="0 0 0 0 1 0 0 0 0 0.760784 0 0 0 0 0.14902 0 0 0 0.14 0"/>
<feBlend mode="normal" in2="BackgroundImageFix" result="effect1_dropShadow"/>
<feBlend mode="normal" in="SourceGraphic" in2="effect1_dropShadow" result="shape"/>
</filter>
<filter id="filter25_d" x="274.915" y="39.3324" width="31.1316" height="31.5713" filterUnits="userSpaceOnUse" color-interpolation-filters="sRGB">
<feFlood flood-opacity="0" result="BackgroundImageFix"/>
<feColorMatrix in="SourceAlpha" type="matrix" values="0 0 0 0 0 0 0 0 0 0 0 0 0 0 0 0 0 0 127 0" result="hardAlpha"/>
<feOffset dy="2.9976"/>
<feGaussianBlur stdDeviation="4.49641"/>
<feColorMatrix type="matrix" values="0 0 0 0 0.603922 0 0 0 0 0.909804 0 0 0 0 0.52549 0 0 0 0.29 0"/>
<feBlend mode="normal" in2="BackgroundImageFix" result="effect1_dropShadow"/>
<feBlend mode="normal" in="SourceGraphic" in2="effect1_dropShadow" result="shape"/>
</filter>
<clipPath id="clip0">
<rect width="819.845" height="763.629" fill="white" transform="translate(201.996)"/>
</clipPath>
<clipPath id="clip1">
<rect width="386.95" height="809.194" fill="white" transform="matrix(-1 0 0 1 1133.95 198.416)"/>
</clipPath>
</defs>
</svg>
