<svg width="547" height="493" viewBox="0 0 547 493" fill="none" xmlns="http://www.w3.org/2000/svg">
<g filter="url(#filter0_dd)">
<path d="M359.359 256.015H149.153C138.107 256.015 129.153 264.969 129.153 276.015V451.695C129.153 462.741 138.107 471.695 149.153 471.695H359.359C370.405 471.695 379.359 462.741 379.359 451.695V276.015C379.359 264.969 370.405 256.015 359.359 256.015Z" fill="white" fill-opacity="0.01"/>
</g>
<path d="M359.359 256.015H149.153C138.107 256.015 129.153 264.969 129.153 276.015V451.695C129.153 462.741 138.107 471.695 149.153 471.695H359.359C370.405 471.695 379.359 462.741 379.359 451.695V276.015C379.359 264.969 370.405 256.015 359.359 256.015Z" fill="white"/>
<g filter="url(#filter1_d)">
<path d="M147.542 271.804C147.542 272.672 147.285 273.52 146.803 274.241C146.321 274.962 145.637 275.524 144.835 275.856C144.034 276.188 143.152 276.275 142.301 276.106C141.451 275.936 140.669 275.519 140.056 274.905C139.443 274.292 139.025 273.511 138.856 272.66C138.687 271.809 138.773 270.928 139.105 270.126C139.437 269.325 139.999 268.64 140.721 268.158C141.442 267.676 142.29 267.419 143.157 267.419C144.32 267.419 145.436 267.881 146.258 268.703C147.08 269.526 147.542 270.641 147.542 271.804Z" fill="#FF3951" fill-opacity="0.01"/>
</g>
<path d="M147.542 271.804C147.542 272.672 147.285 273.52 146.803 274.241C146.321 274.962 145.637 275.524 144.835 275.856C144.034 276.188 143.152 276.275 142.301 276.106C141.451 275.936 140.669 275.519 140.056 274.905C139.443 274.292 139.025 273.511 138.856 272.66C138.687 271.809 138.773 270.928 139.105 270.126C139.437 269.325 139.999 268.64 140.721 268.158C141.442 267.676 142.29 267.419 143.157 267.419C144.32 267.419 145.436 267.881 146.258 268.703C147.08 269.526 147.542 270.641 147.542 271.804Z" fill="#FF3951"/>
<g filter="url(#filter2_d)">
<path d="M160.313 271.804C160.313 272.672 160.056 273.52 159.574 274.241C159.092 274.962 158.408 275.524 157.606 275.856C156.805 276.188 155.923 276.275 155.072 276.106C154.222 275.936 153.44 275.519 152.827 274.905C152.214 274.292 151.796 273.511 151.627 272.66C151.458 271.809 151.544 270.928 151.876 270.126C152.208 269.325 152.77 268.64 153.492 268.158C154.213 267.676 155.061 267.419 155.928 267.419C157.091 267.419 158.207 267.881 159.029 268.703C159.851 269.526 160.313 270.641 160.313 271.804Z" fill="#FFC226" fill-opacity="0.01"/>
</g>
<path d="M160.313 271.804C160.313 272.672 160.056 273.52 159.574 274.241C159.092 274.962 158.408 275.524 157.606 275.856C156.805 276.188 155.923 276.275 155.072 276.106C154.222 275.936 153.44 275.519 152.827 274.905C152.214 274.292 151.796 273.511 151.627 272.66C151.458 271.809 151.544 270.928 151.876 270.126C152.208 269.325 152.77 268.64 153.492 268.158C154.213 267.676 155.061 267.419 155.928 267.419C157.091 267.419 158.207 267.881 159.029 268.703C159.851 269.526 160.313 270.641 160.313 271.804Z" fill="#FFC226"/>
<g filter="url(#filter3_d)">
<path d="M173.085 271.804C173.085 272.672 172.827 273.52 172.346 274.241C171.864 274.962 171.179 275.524 170.377 275.856C169.576 276.188 168.694 276.275 167.844 276.106C166.993 275.936 166.212 275.519 165.598 274.905C164.985 274.292 164.567 273.511 164.398 272.66C164.229 271.809 164.316 270.928 164.648 270.126C164.979 269.325 165.542 268.64 166.263 268.158C166.984 267.676 167.832 267.419 168.699 267.419C169.862 267.419 170.978 267.881 171.8 268.703C172.623 269.526 173.085 270.641 173.085 271.804Z" fill="#9AE886" fill-opacity="0.01"/>
</g>
<path d="M173.085 271.804C173.085 272.672 172.827 273.52 172.346 274.241C171.864 274.962 171.179 275.524 170.377 275.856C169.576 276.188 168.694 276.275 167.844 276.106C166.993 275.936 166.212 275.519 165.598 274.905C164.985 274.292 164.567 273.511 164.398 272.66C164.229 271.809 164.316 270.928 164.648 270.126C164.979 269.325 165.542 268.64 166.263 268.158C166.984 267.676 167.832 267.419 168.699 267.419C169.862 267.419 170.978 267.881 171.8 268.703C172.623 269.526 173.085 270.641 173.085 271.804Z" fill="#9AE886"/>
<path d="M379.359 280.693H129.153V282.154H379.359V280.693Z" fill="#F5F7FC"/>
<path d="M358.914 299.434H271.076C268.867 299.434 267.076 301.225 267.076 303.434C267.076 305.643 268.867 307.434 271.076 307.434H358.914C361.123 307.434 362.914 305.643 362.914 303.434C362.914 301.225 361.123 299.434 358.914 299.434Z" fill="#EFF0F7"/>
<path d="M326.135 313.434H271.076C268.867 313.434 267.076 315.225 267.076 317.434C267.076 319.643 268.867 321.434 271.076 321.434H326.135C328.344 321.434 330.135 319.643 330.135 317.434C330.135 315.225 328.344 313.434 326.135 313.434Z" fill="#EFF0F7"/>
<g filter="url(#filter4_dd)">
<path d="M508.758 17.8518H313.17C302.124 17.8518 293.17 26.8061 293.17 37.8518V215.392C293.17 226.438 302.124 235.392 313.17 235.392H508.758C519.804 235.392 528.758 226.438 528.758 215.392V37.8518C528.758 26.8061 519.804 17.8518 508.758 17.8518Z" fill="white" fill-opacity="0.01"/>
</g>
<path d="M508.758 17.8518H313.17C302.124 17.8518 293.17 26.8061 293.17 37.8518V215.392C293.17 226.438 302.124 235.392 313.17 235.392H508.758C519.804 235.392 528.758 226.438 528.758 215.392V37.8518C528.758 26.8061 519.804 17.8518 508.758 17.8518Z" fill="white"/>
<g filter="url(#filter5_d)">
<path d="M311.267 34.6533C311.267 35.5207 311.01 36.3686 310.528 37.0898C310.046 37.8109 309.361 38.373 308.56 38.705C307.758 39.0369 306.877 39.1237 306.026 38.9545C305.175 38.7853 304.394 38.3676 303.781 37.7543C303.167 37.141 302.75 36.3596 302.58 35.5089C302.411 34.6582 302.498 33.7764 302.83 32.9751C303.162 32.1737 303.724 31.4888 304.445 31.0069C305.166 30.525 306.014 30.2678 306.882 30.2678C308.045 30.2678 309.16 30.7299 309.983 31.5523C310.805 32.3747 311.267 33.4902 311.267 34.6533Z" fill="#FF3951" fill-opacity="0.01"/>
</g>
<path d="M311.267 34.6533C311.267 35.5207 311.01 36.3686 310.528 37.0898C310.046 37.8109 309.361 38.373 308.56 38.705C307.758 39.0369 306.877 39.1237 306.026 38.9545C305.175 38.7853 304.394 38.3676 303.781 37.7543C303.167 37.141 302.75 36.3596 302.58 35.5089C302.411 34.6582 302.498 33.7764 302.83 32.9751C303.162 32.1737 303.724 31.4888 304.445 31.0069C305.166 30.525 306.014 30.2678 306.882 30.2678C308.045 30.2678 309.16 30.7299 309.983 31.5523C310.805 32.3747 311.267 33.4902 311.267 34.6533Z" fill="#FF3951"/>
<g filter="url(#filter6_d)">
<path d="M325.038 34.6536C325.038 35.5209 324.781 36.3688 324.299 37.09C323.817 37.8112 323.132 38.3733 322.331 38.7052C321.529 39.0371 320.648 39.124 319.797 38.9548C318.946 38.7856 318.165 38.3679 317.552 37.7546C316.938 37.1412 316.521 36.3598 316.351 35.5091C316.182 34.6584 316.269 33.7766 316.601 32.9753C316.933 32.174 317.495 31.489 318.216 31.0072C318.937 30.5253 319.785 30.2681 320.653 30.2681C321.816 30.2681 322.931 30.7301 323.754 31.5525C324.576 32.375 325.038 33.4904 325.038 34.6536Z" fill="#FFC226" fill-opacity="0.01"/>
</g>
<path d="M325.038 34.6536C325.038 35.5209 324.781 36.3688 324.299 37.09C323.817 37.8112 323.132 38.3733 322.331 38.7052C321.529 39.0371 320.648 39.124 319.797 38.9548C318.946 38.7856 318.165 38.3679 317.552 37.7546C316.938 37.1412 316.521 36.3598 316.351 35.5091C316.182 34.6584 316.269 33.7766 316.601 32.9753C316.933 32.174 317.495 31.489 318.216 31.0072C318.937 30.5253 319.785 30.2681 320.653 30.2681C321.816 30.2681 322.931 30.7301 323.754 31.5525C324.576 32.375 325.038 33.4904 325.038 34.6536Z" fill="#FFC226"/>
<g filter="url(#filter7_d)">
<path d="M338.809 34.6536C338.809 35.5209 338.552 36.3688 338.07 37.09C337.588 37.8112 336.903 38.3733 336.102 38.7052C335.301 39.0371 334.419 39.124 333.568 38.9548C332.717 38.7856 331.936 38.3679 331.323 37.7546C330.709 37.1412 330.292 36.3598 330.122 35.5091C329.953 34.6584 330.04 33.7766 330.372 32.9753C330.704 32.174 331.266 31.489 331.987 31.0072C332.708 30.5253 333.556 30.2681 334.424 30.2681C335.587 30.2681 336.702 30.7301 337.525 31.5525C338.347 32.375 338.809 33.4904 338.809 34.6536Z" fill="#9AE886" fill-opacity="0.01"/>
</g>
<path d="M338.809 34.6536C338.809 35.5209 338.552 36.3688 338.07 37.09C337.588 37.8112 336.903 38.3733 336.102 38.7052C335.301 39.0371 334.419 39.124 333.568 38.9548C332.717 38.7856 331.936 38.3679 331.323 37.7546C330.709 37.1412 330.292 36.3598 330.122 35.5091C329.953 34.6584 330.04 33.7766 330.372 32.9753C330.704 32.174 331.266 31.489 331.987 31.0072C332.708 30.5253 333.556 30.2681 334.424 30.2681C335.587 30.2681 336.702 30.7301 337.525 31.5525C338.347 32.375 338.809 33.4904 338.809 34.6536Z" fill="#9AE886"/>
<path d="M528.509 43.5413H292.921V45.0031H528.509V43.5413Z" fill="#F5F7FC"/>
<path d="M473.112 61.4487H318.995C316.786 61.4487 314.995 63.2396 314.995 65.4487C314.995 67.6579 316.786 69.4487 318.995 69.4487H473.112C475.321 69.4487 477.112 67.6579 477.112 65.4487C477.112 63.2396 475.321 61.4487 473.112 61.4487Z" fill="#EFF0F7"/>
<path d="M371.826 75.4487H318.995C316.786 75.4487 314.995 77.2396 314.995 79.4487C314.995 81.6579 316.786 83.4487 318.995 83.4487H371.826C374.036 83.4487 375.826 81.6579 375.826 79.4487C375.826 77.2396 374.036 75.4487 371.826 75.4487Z" fill="#EFF0F7"/>
<path d="M503.41 98.7764H318.518C316.572 98.7764 314.995 100.354 314.995 102.299C314.995 104.245 316.572 105.822 318.518 105.822H503.41C505.356 105.822 506.933 104.245 506.933 102.299C506.933 100.354 505.356 98.7764 503.41 98.7764Z" fill="#F5F7FC"/>
<g filter="url(#filter8_d)">
<path d="M413.165 98.7761H324.763C322.817 98.7761 321.24 100.353 321.24 102.299C321.24 104.245 322.817 105.822 324.762 105.822H413.165C415.111 105.822 416.688 104.245 416.688 102.299C416.688 100.353 415.111 98.7761 413.165 98.7761Z" fill="#FF3951" fill-opacity="0.01"/>
</g>
<path d="M413.165 98.7761H324.763C322.817 98.7761 321.24 100.353 321.24 102.299C321.24 104.245 322.817 105.822 324.762 105.822H413.165C415.111 105.822 416.688 104.245 416.688 102.299C416.688 100.353 415.111 98.7761 413.165 98.7761Z" fill="#FF3951"/>
<path d="M503.005 122.692H318.923C316.754 122.692 314.995 124.451 314.995 126.62C314.995 128.79 316.754 130.549 318.923 130.549H503.005C505.174 130.549 506.933 128.79 506.933 126.62C506.933 124.451 505.174 122.692 503.005 122.692Z" fill="#F5F7FC"/>
<g filter="url(#filter9_d)">
<path d="M466.664 122.692H324.763C322.817 122.692 321.24 124.269 321.24 126.215C321.24 128.16 322.817 129.738 324.762 129.738H466.664C468.61 129.738 470.187 128.16 470.187 126.215C470.187 124.269 468.61 122.692 466.664 122.692Z" fill="#FFC226" fill-opacity="0.01"/>
</g>
<path d="M466.664 122.692H324.763C322.817 122.692 321.24 124.269 321.24 126.215C321.24 128.16 322.817 129.738 324.762 129.738H466.664C468.61 129.738 470.187 128.16 470.187 126.215C470.187 124.269 468.61 122.692 466.664 122.692Z" fill="#FFC226"/>
<path d="M503.41 146.607H318.518C316.572 146.607 314.995 148.184 314.995 150.13C314.995 152.076 316.572 153.653 318.518 153.653H503.41C505.356 153.653 506.933 152.076 506.933 150.13C506.933 148.184 505.356 146.607 503.41 146.607Z" fill="#F5F7FC"/>
<g filter="url(#filter10_d)">
<path d="M355.05 146.607H324.763C322.817 146.607 321.24 148.184 321.24 150.13C321.24 152.076 322.817 153.653 324.763 153.653H355.05C356.996 153.653 358.573 152.076 358.573 150.13C358.573 148.184 356.996 146.607 355.05 146.607Z" fill="#FF3951" fill-opacity="0.01"/>
</g>
<path d="M355.05 146.607H324.763C322.817 146.607 321.24 148.184 321.24 150.13C321.24 152.076 322.817 153.653 324.763 153.653H355.05C356.996 153.653 358.573 152.076 358.573 150.13C358.573 148.184 356.996 146.607 355.05 146.607Z" fill="#FF3951"/>
<path d="M503.41 170.522H318.518C316.572 170.522 314.995 172.1 314.995 174.045C314.995 175.991 316.572 177.568 318.518 177.568H503.41C505.356 177.568 506.933 175.991 506.933 174.045C506.933 172.1 505.356 170.522 503.41 170.522Z" fill="#F5F7FC"/>
<g filter="url(#filter11_d)">
<path d="M436.028 170.523H324.763C322.817 170.523 321.24 172.1 321.24 174.046C321.24 175.991 322.817 177.569 324.763 177.569H436.028C437.974 177.569 439.551 175.991 439.551 174.046C439.551 172.1 437.974 170.523 436.028 170.523Z" fill="#FFC226" fill-opacity="0.01"/>
</g>
<path d="M436.028 170.523H324.763C322.817 170.523 321.24 172.1 321.24 174.046C321.24 175.991 322.817 177.569 324.763 177.569H436.028C437.974 177.569 439.551 175.991 439.551 174.046C439.551 172.1 437.974 170.523 436.028 170.523Z" fill="#FFC226"/>
<path d="M503.41 194.438H318.518C316.572 194.438 314.995 196.016 314.995 197.961C314.995 199.907 316.572 201.485 318.518 201.485H503.41C505.356 201.485 506.933 199.907 506.933 197.961C506.933 196.016 505.356 194.438 503.41 194.438Z" fill="#F5F7FC"/>
<g filter="url(#filter12_d)">
<path d="M453.587 194.438H324.763C322.817 194.438 321.24 196.016 321.24 197.961C321.24 199.907 322.817 201.485 324.763 201.485H453.587C455.533 201.485 457.11 199.907 457.11 197.961C457.11 196.016 455.533 194.438 453.587 194.438Z" fill="#FF3951" fill-opacity="0.01"/>
</g>
<path d="M453.587 194.438H324.763C322.817 194.438 321.24 196.016 321.24 197.961C321.24 199.907 322.817 201.485 324.763 201.485H453.587C455.533 201.485 457.11 199.907 457.11 197.961C457.11 196.016 455.533 194.438 453.587 194.438Z" fill="#FF3951"/>
<path d="M260.034 379.873C260.034 412.148 233.87 438.312 201.595 438.312C169.32 438.312 143.156 412.148 143.156 379.873C143.156 347.598 169.32 321.434 201.595 321.434C233.87 321.434 260.034 347.598 260.034 379.873ZM169.342 379.873C169.342 397.686 183.782 412.127 201.595 412.127C219.408 412.127 233.849 397.686 233.849 379.873C233.849 362.06 219.408 347.619 201.595 347.619C183.782 347.619 169.342 362.06 169.342 379.873Z" fill="#F5F7FC"/>
<g filter="url(#filter13_d)">
<path d="M207.762 334.855C214.092 335.722 220.169 337.914 225.595 341.289C231.02 344.664 235.673 349.145 239.25 354.441C242.826 359.736 245.246 365.725 246.35 372.019C247.455 378.313 247.219 384.768 245.659 390.965" stroke="#FFC226" stroke-opacity="0.01" stroke-width="26" stroke-linecap="round"/>
</g>
<path d="M207.762 334.855C214.092 335.722 220.169 337.914 225.595 341.289C231.02 344.664 235.673 349.145 239.25 354.441C242.826 359.736 245.246 365.725 246.35 372.019C247.455 378.313 247.219 384.768 245.659 390.965" stroke="#FFC226" stroke-width="26" stroke-linecap="round"/>
<g filter="url(#filter14_d)">
<path d="M164.792 353.223C171.637 343.771 181.856 337.315 193.331 335.192C204.807 333.07 216.659 335.444 226.431 341.822" stroke="#FF8139" stroke-opacity="0.01" stroke-width="26" stroke-linecap="round"/>
</g>
<path d="M164.792 353.223C171.637 343.771 181.856 337.315 193.331 335.192C204.807 333.07 216.659 335.444 226.431 341.822" stroke="#FF8139" stroke-width="26" stroke-linecap="round"/>
<g filter="url(#filter15_d)">
<path d="M210.535 424.424C201.909 426.155 192.965 425.344 184.791 422.09C176.617 418.837 169.563 413.28 164.486 406.094C159.408 398.909 156.527 390.404 156.19 381.612C155.853 372.821 158.076 364.12 162.588 356.568" stroke="#FF3951" stroke-opacity="0.01" stroke-width="26" stroke-linecap="round"/>
</g>
<path d="M210.535 424.424C201.909 426.155 192.965 425.344 184.791 422.09C176.617 418.837 169.563 413.28 164.486 406.094C159.408 398.909 156.527 390.404 156.19 381.612C155.853 372.821 158.076 364.12 162.588 356.568" stroke="#FF3951" stroke-width="26" stroke-linecap="round"/>
<g filter="url(#filter16_d)">
<path d="M291.034 364.873C294.348 364.873 297.034 362.187 297.034 358.873C297.034 355.559 294.348 352.873 291.034 352.873C287.72 352.873 285.034 355.559 285.034 358.873C285.034 362.187 287.72 364.873 291.034 364.873Z" fill="#FF3951" fill-opacity="0.01"/>
</g>
<path d="M291.034 364.873C294.348 364.873 297.034 362.187 297.034 358.873C297.034 355.559 294.348 352.873 291.034 352.873C287.72 352.873 285.034 355.559 285.034 358.873C285.034 362.187 287.72 364.873 291.034 364.873Z" fill="#FF3951"/>
<path d="M353.174 355.873H305.034C303.377 355.873 302.034 357.216 302.034 358.873C302.034 360.53 303.377 361.873 305.034 361.873H353.174C354.83 361.873 356.174 360.53 356.174 358.873C356.174 357.216 354.83 355.873 353.174 355.873Z" fill="#EFF0F7"/>
<g filter="url(#filter17_d)">
<path d="M291.034 385.873C294.348 385.873 297.034 383.187 297.034 379.873C297.034 376.559 294.348 373.873 291.034 373.873C287.72 373.873 285.034 376.559 285.034 379.873C285.034 383.187 287.72 385.873 291.034 385.873Z" fill="#FF8139" fill-opacity="0.01"/>
</g>
<path d="M291.034 385.873C294.348 385.873 297.034 383.187 297.034 379.873C297.034 376.559 294.348 373.873 291.034 373.873C287.72 373.873 285.034 376.559 285.034 379.873C285.034 383.187 287.72 385.873 291.034 385.873Z" fill="#FF8139"/>
<path d="M353.174 376.873H305.034C303.377 376.873 302.034 378.216 302.034 379.873C302.034 381.53 303.377 382.873 305.034 382.873H353.174C354.83 382.873 356.174 381.53 356.174 379.873C356.174 378.216 354.83 376.873 353.174 376.873Z" fill="#EFF0F7"/>
<g filter="url(#filter18_d)">
<path d="M291.034 406.873C294.348 406.873 297.034 404.187 297.034 400.873C297.034 397.559 294.348 394.873 291.034 394.873C287.72 394.873 285.034 397.559 285.034 400.873C285.034 404.187 287.72 406.873 291.034 406.873Z" fill="#FFC226" fill-opacity="0.01"/>
</g>
<path d="M291.034 406.873C294.348 406.873 297.034 404.187 297.034 400.873C297.034 397.559 294.348 394.873 291.034 394.873C287.72 394.873 285.034 397.559 285.034 400.873C285.034 404.187 287.72 406.873 291.034 406.873Z" fill="#FFC226"/>
<path d="M353.174 397.873H305.034C303.377 397.873 302.034 399.216 302.034 400.873C302.034 402.53 303.377 403.873 305.034 403.873H353.174C354.83 403.873 356.174 402.53 356.174 400.873C356.174 399.216 354.83 397.873 353.174 397.873Z" fill="#EFF0F7"/>
<g filter="url(#filter19_dd)">
<path d="M248.698 16H38.4915C27.4458 16 18.4915 24.9543 18.4915 36V213.54C18.4915 224.586 27.4458 233.54 38.4915 233.54H248.698C259.744 233.54 268.698 224.586 268.698 213.54V36C268.698 24.9543 259.744 16 248.698 16Z" fill="white" fill-opacity="0.01"/>
</g>
<path d="M248.698 16H38.4915C27.4458 16 18.4915 24.9543 18.4915 36V213.54C18.4915 224.586 27.4458 233.54 38.4915 233.54H248.698C259.744 233.54 268.698 224.586 268.698 213.54V36C268.698 24.9543 259.744 16 248.698 16Z" fill="white"/>
<path d="M268.698 42.5378H18.4915V43.9997H268.698V42.5378Z" fill="#F5F7FC"/>
<path d="M221.058 60.4453H66.1608C64.167 60.4453 62.5508 62.0616 62.5508 64.0553C62.5508 66.0491 64.167 67.6653 66.1608 67.6653H221.058C223.051 67.6653 224.668 66.0491 224.668 64.0553C224.668 62.0616 223.051 60.4453 221.058 60.4453Z" fill="#EFF0F7"/>
<path d="M193.327 73.665H93.8773C91.8836 73.665 90.2673 75.2813 90.2673 77.275C90.2673 79.2688 91.8836 80.885 93.8773 80.885H193.327C195.321 80.885 196.937 79.2688 196.937 77.275C196.937 75.2813 195.321 73.665 193.327 73.665Z" fill="#EFF0F7"/>
<g filter="url(#filter20_d)">
<path d="M202.595 124.021V206.119C202.595 209.432 205.281 212.119 208.595 212.119C211.908 212.119 214.595 209.432 214.595 206.119V124.021C214.595 120.707 211.908 118.021 208.595 118.021C205.281 118.021 202.595 120.707 202.595 124.021Z" fill="#FFC226" fill-opacity="0.01"/>
</g>
<path d="M202.595 124.021V206.119C202.595 209.432 205.281 212.119 208.595 212.119C211.908 212.119 214.595 209.432 214.595 206.119V124.021C214.595 120.707 211.908 118.021 208.595 118.021C205.281 118.021 202.595 120.707 202.595 124.021Z" fill="#FFC226"/>
<path d="M176.595 136.549V206.104C176.595 209.418 179.281 212.104 182.595 212.104C185.908 212.104 188.595 209.418 188.595 206.104V136.549C188.595 133.235 185.908 130.549 182.595 130.549C179.281 130.549 176.595 133.235 176.595 136.549Z" fill="#FF8139"/>
<g filter="url(#filter21_d)">
<path d="M150.595 180.418V206.104C150.595 209.418 153.281 212.104 156.595 212.104C159.908 212.104 162.595 209.418 162.595 206.104V180.418C162.595 177.104 159.908 174.418 156.595 174.418C153.281 174.418 150.595 177.104 150.595 180.418Z" fill="#FFC226" fill-opacity="0.01"/>
</g>
<path d="M150.595 180.418V206.104C150.595 209.418 153.281 212.104 156.595 212.104C159.908 212.104 162.595 209.418 162.595 206.104V180.418C162.595 177.104 159.908 174.418 156.595 174.418C153.281 174.418 150.595 177.104 150.595 180.418Z" fill="#FFC226"/>
<path d="M124.595 114.709V206.104C124.595 209.418 127.281 212.104 130.595 212.104C133.908 212.104 136.595 209.418 136.595 206.104V114.709C136.595 111.395 133.908 108.709 130.595 108.709C127.281 108.709 124.595 111.395 124.595 114.709Z" fill="#FF8139"/>
<g filter="url(#filter22_d)">
<path d="M98.5947 106.523V206.104C98.5947 209.418 101.281 212.104 104.595 212.104C107.908 212.104 110.595 209.418 110.595 206.104V106.523C110.595 103.209 107.908 100.523 104.595 100.523C101.281 100.523 98.5947 103.209 98.5947 106.523Z" fill="#FFC226" fill-opacity="0.01"/>
</g>
<path d="M98.5947 106.523V206.104C98.5947 209.418 101.281 212.104 104.595 212.104C107.908 212.104 110.595 209.418 110.595 206.104V106.523C110.595 103.209 107.908 100.523 104.595 100.523C101.281 100.523 98.5947 103.209 98.5947 106.523Z" fill="#FFC226"/>
<path d="M72.5947 147.41V206.104C72.5947 209.418 75.281 212.104 78.5947 212.104C81.9084 212.104 84.5947 209.418 84.5947 206.104V147.41C84.5947 144.096 81.9084 141.41 78.5947 141.41C75.281 141.41 72.5947 144.096 72.5947 147.41Z" fill="#FF8139"/>
<g filter="url(#filter23_d)">
<path d="M37.8808 33.6499C37.8808 34.5173 37.6236 35.3652 37.1418 36.0863C36.6599 36.8075 35.975 37.3696 35.1736 37.7016C34.3723 38.0335 33.4905 38.1203 32.6398 37.9511C31.7891 37.7819 31.0077 37.3642 30.3943 36.7509C29.781 36.1376 29.3633 35.3562 29.1941 34.5055C29.0249 33.6548 29.1118 32.773 29.4437 31.9717C29.7756 31.1703 30.3377 30.4854 31.0589 30.0035C31.7801 29.5216 32.628 29.2644 33.4953 29.2644C34.6585 29.2644 35.7739 29.7265 36.5964 30.5489C37.4188 31.3713 37.8808 32.4868 37.8808 33.6499Z" fill="#FF3951" fill-opacity="0.01"/>
</g>
<path d="M37.8808 33.6499C37.8808 34.5173 37.6236 35.3652 37.1418 36.0863C36.6599 36.8075 35.975 37.3696 35.1736 37.7016C34.3723 38.0335 33.4905 38.1203 32.6398 37.9511C31.7891 37.7819 31.0077 37.3642 30.3943 36.7509C29.781 36.1376 29.3633 35.3562 29.1941 34.5055C29.0249 33.6548 29.1118 32.773 29.4437 31.9717C29.7756 31.1703 30.3377 30.4854 31.0589 30.0035C31.7801 29.5216 32.628 29.2644 33.4953 29.2644C34.6585 29.2644 35.7739 29.7265 36.5964 30.5489C37.4188 31.3713 37.8808 32.4868 37.8808 33.6499Z" fill="#FF3951"/>
<g filter="url(#filter24_d)">
<path d="M50.6521 33.6499C50.6521 34.5173 50.3949 35.3652 49.913 36.0863C49.4311 36.8075 48.7462 37.3696 47.9448 37.7016C47.1435 38.0335 46.2617 38.1203 45.411 37.9511C44.5603 37.7819 43.7789 37.3642 43.1656 36.7509C42.5523 36.1376 42.1346 35.3562 41.9654 34.5055C41.7962 33.6548 41.883 32.773 42.2149 31.9717C42.5469 31.1703 43.109 30.4854 43.8302 30.0035C44.5513 29.5216 45.3992 29.2644 46.2666 29.2644C47.4297 29.2644 48.5452 29.7265 49.3676 30.5489C50.19 31.3713 50.6521 32.4868 50.6521 33.6499Z" fill="#FFC226" fill-opacity="0.01"/>
</g>
<path d="M50.6521 33.6499C50.6521 34.5173 50.3949 35.3652 49.913 36.0863C49.4311 36.8075 48.7462 37.3696 47.9448 37.7016C47.1435 38.0335 46.2617 38.1203 45.411 37.9511C44.5603 37.7819 43.7789 37.3642 43.1656 36.7509C42.5523 36.1376 42.1346 35.3562 41.9654 34.5055C41.7962 33.6548 41.883 32.773 42.2149 31.9717C42.5469 31.1703 43.109 30.4854 43.8302 30.0035C44.5513 29.5216 45.3992 29.2644 46.2666 29.2644C47.4297 29.2644 48.5452 29.7265 49.3676 30.5489C50.19 31.3713 50.6521 32.4868 50.6521 33.6499Z" fill="#FFC226"/>
<g filter="url(#filter25_d)">
<path d="M63.4231 33.6499C63.4231 34.5173 63.1659 35.3652 62.684 36.0863C62.2021 36.8075 61.5172 37.3696 60.7158 37.7016C59.9145 38.0335 59.0327 38.1203 58.182 37.9511C57.3313 37.7819 56.5499 37.3642 55.9366 36.7509C55.3233 36.1376 54.9056 35.3562 54.7364 34.5055C54.5672 33.6548 54.654 32.773 54.9859 31.9717C55.3179 31.1703 55.88 30.4854 56.6011 30.0035C57.3223 29.5216 58.1702 29.2644 59.0376 29.2644C60.2007 29.2644 61.3162 29.7265 62.1386 30.5489C62.961 31.3713 63.4231 32.4868 63.4231 33.6499Z" fill="#9AE886" fill-opacity="0.01"/>
</g>
<path d="M63.4231 33.6499C63.4231 34.5173 63.1659 35.3652 62.684 36.0863C62.2021 36.8075 61.5172 37.3696 60.7158 37.7016C59.9145 38.0335 59.0327 38.1203 58.182 37.9511C57.3313 37.7819 56.5499 37.3642 55.9366 36.7509C55.3233 36.1376 54.9056 35.3562 54.7364 34.5055C54.5672 33.6548 54.654 32.773 54.9859 31.9717C55.3179 31.1703 55.88 30.4854 56.6011 30.0035C57.3223 29.5216 58.1702 29.2644 59.0376 29.2644C60.2007 29.2644 61.3162 29.7265 62.1386 30.5489C62.961 31.3713 63.4231 32.4868 63.4231 33.6499Z" fill="#9AE886"/>
<defs>
<filter id="filter0_dd" x="114.153" y="240.015" width="280.206" height="252.68" filterUnits="userSpaceOnUse" color-interpolation-filters="sRGB">
<feFlood flood-opacity="0" result="BackgroundImageFix"/>
<feColorMatrix in="SourceAlpha" type="matrix" values="0 0 0 0 0 0 0 0 0 0 0 0 0 0 0 0 0 0 127 0"/>
<feOffset dy="7"/>
<feGaussianBlur stdDeviation="7"/>
<feColorMatrix type="matrix" values="0 0 0 0 0.078875 0 0 0 0 0.0770833 0 0 0 0 0.166667 0 0 0 0.03 0"/>
<feBlend mode="normal" in2="BackgroundImageFix" result="effect1_dropShadow"/>
<feColorMatrix in="SourceAlpha" type="matrix" values="0 0 0 0 0 0 0 0 0 0 0 0 0 0 0 0 0 0 127 0"/>
<feOffset dy="-1"/>
<feGaussianBlur stdDeviation="7.5"/>
<feColorMatrix type="matrix" values="0 0 0 0 0.078875 0 0 0 0 0.0770833 0 0 0 0 0.166667 0 0 0 0.02 0"/>
<feBlend mode="normal" in2="effect1_dropShadow" result="effect2_dropShadow"/>
<feBlend mode="normal" in="SourceGraphic" in2="effect2_dropShadow" result="shape"/>
</filter>
<filter id="filter1_d" x="130.772" y="261.419" width="24.7703" height="24.7711" filterUnits="userSpaceOnUse" color-interpolation-filters="sRGB">
<feFlood flood-opacity="0" result="BackgroundImageFix"/>
<feColorMatrix in="SourceAlpha" type="matrix" values="0 0 0 0 0 0 0 0 0 0 0 0 0 0 0 0 0 0 127 0"/>
<feOffset dy="2"/>
<feGaussianBlur stdDeviation="4"/>
<feColorMatrix type="matrix" values="0 0 0 0 1 0 0 0 0 0.223529 0 0 0 0 0.317647 0 0 0 0.14 0"/>
<feBlend mode="normal" in2="BackgroundImageFix" result="effect1_dropShadow"/>
<feBlend mode="normal" in="SourceGraphic" in2="effect1_dropShadow" result="shape"/>
</filter>
<filter id="filter2_d" x="144.543" y="262.419" width="22.7703" height="22.7711" filterUnits="userSpaceOnUse" color-interpolation-filters="sRGB">
<feFlood flood-opacity="0" result="BackgroundImageFix"/>
<feColorMatrix in="SourceAlpha" type="matrix" values="0 0 0 0 0 0 0 0 0 0 0 0 0 0 0 0 0 0 127 0"/>
<feOffset dy="2"/>
<feGaussianBlur stdDeviation="3.5"/>
<feColorMatrix type="matrix" values="0 0 0 0 1 0 0 0 0 0.760784 0 0 0 0 0.14902 0 0 0 0.14 0"/>
<feBlend mode="normal" in2="BackgroundImageFix" result="effect1_dropShadow"/>
<feBlend mode="normal" in="SourceGraphic" in2="effect1_dropShadow" result="shape"/>
</filter>
<filter id="filter3_d" x="158.314" y="263.419" width="20.7711" height="20.7711" filterUnits="userSpaceOnUse" color-interpolation-filters="sRGB">
<feFlood flood-opacity="0" result="BackgroundImageFix"/>
<feColorMatrix in="SourceAlpha" type="matrix" values="0 0 0 0 0 0 0 0 0 0 0 0 0 0 0 0 0 0 127 0"/>
<feOffset dy="2"/>
<feGaussianBlur stdDeviation="3"/>
<feColorMatrix type="matrix" values="0 0 0 0 0.603922 0 0 0 0 0.909804 0 0 0 0 0.52549 0 0 0 0.29 0"/>
<feBlend mode="normal" in2="BackgroundImageFix" result="effect1_dropShadow"/>
<feBlend mode="normal" in="SourceGraphic" in2="effect1_dropShadow" result="shape"/>
</filter>
<filter id="filter4_dd" x="275.17" y="1.85181" width="271.588" height="257.54" filterUnits="userSpaceOnUse" color-interpolation-filters="sRGB">
<feFlood flood-opacity="0" result="BackgroundImageFix"/>
<feColorMatrix in="SourceAlpha" type="matrix" values="0 0 0 0 0 0 0 0 0 0 0 0 0 0 0 0 0 0 127 0"/>
<feOffset dy="6"/>
<feGaussianBlur stdDeviation="9"/>
<feColorMatrix type="matrix" values="0 0 0 0 0.0987208 0 0 0 0 0.0910417 0 0 0 0 0.475 0 0 0 0.02 0"/>
<feBlend mode="normal" in2="BackgroundImageFix" result="effect1_dropShadow"/>
<feColorMatrix in="SourceAlpha" type="matrix" values="0 0 0 0 0 0 0 0 0 0 0 0 0 0 0 0 0 0 127 0"/>
<feOffset dy="-1"/>
<feGaussianBlur stdDeviation="7.5"/>
<feColorMatrix type="matrix" values="0 0 0 0 0.078875 0 0 0 0 0.0770833 0 0 0 0 0.166667 0 0 0 0.04 0"/>
<feBlend mode="normal" in2="effect1_dropShadow" result="effect2_dropShadow"/>
<feBlend mode="normal" in="SourceGraphic" in2="effect2_dropShadow" result="shape"/>
</filter>
<filter id="filter5_d" x="294.496" y="24.2678" width="24.7711" height="24.771" filterUnits="userSpaceOnUse" color-interpolation-filters="sRGB">
<feFlood flood-opacity="0" result="BackgroundImageFix"/>
<feColorMatrix in="SourceAlpha" type="matrix" values="0 0 0 0 0 0 0 0 0 0 0 0 0 0 0 0 0 0 127 0"/>
<feOffset dy="2"/>
<feGaussianBlur stdDeviation="4"/>
<feColorMatrix type="matrix" values="0 0 0 0 1 0 0 0 0 0.223529 0 0 0 0 0.317647 0 0 0 0.14 0"/>
<feBlend mode="normal" in2="BackgroundImageFix" result="effect1_dropShadow"/>
<feBlend mode="normal" in="SourceGraphic" in2="effect1_dropShadow" result="shape"/>
</filter>
<filter id="filter6_d" x="309.267" y="25.2681" width="22.7711" height="22.7709" filterUnits="userSpaceOnUse" color-interpolation-filters="sRGB">
<feFlood flood-opacity="0" result="BackgroundImageFix"/>
<feColorMatrix in="SourceAlpha" type="matrix" values="0 0 0 0 0 0 0 0 0 0 0 0 0 0 0 0 0 0 127 0"/>
<feOffset dy="2"/>
<feGaussianBlur stdDeviation="3.5"/>
<feColorMatrix type="matrix" values="0 0 0 0 1 0 0 0 0 0.760784 0 0 0 0 0.14902 0 0 0 0.14 0"/>
<feBlend mode="normal" in2="BackgroundImageFix" result="effect1_dropShadow"/>
<feBlend mode="normal" in="SourceGraphic" in2="effect1_dropShadow" result="shape"/>
</filter>
<filter id="filter7_d" x="324.038" y="26.2681" width="20.7711" height="20.7709" filterUnits="userSpaceOnUse" color-interpolation-filters="sRGB">
<feFlood flood-opacity="0" result="BackgroundImageFix"/>
<feColorMatrix in="SourceAlpha" type="matrix" values="0 0 0 0 0 0 0 0 0 0 0 0 0 0 0 0 0 0 127 0"/>
<feOffset dy="2"/>
<feGaussianBlur stdDeviation="3"/>
<feColorMatrix type="matrix" values="0 0 0 0 0.603922 0 0 0 0 0.909804 0 0 0 0 0.52549 0 0 0 0.29 0"/>
<feBlend mode="normal" in2="BackgroundImageFix" result="effect1_dropShadow"/>
<feBlend mode="normal" in="SourceGraphic" in2="effect1_dropShadow" result="shape"/>
</filter>
<filter id="filter8_d" x="313.24" y="93.7761" width="111.448" height="23.0459" filterUnits="userSpaceOnUse" color-interpolation-filters="sRGB">
<feFlood flood-opacity="0" result="BackgroundImageFix"/>
<feColorMatrix in="SourceAlpha" type="matrix" values="0 0 0 0 0 0 0 0 0 0 0 0 0 0 0 0 0 0 127 0"/>
<feOffset dy="3"/>
<feGaussianBlur stdDeviation="4"/>
<feColorMatrix type="matrix" values="0 0 0 0 1 0 0 0 0 0.223529 0 0 0 0 0.317647 0 0 0 0.15 0"/>
<feBlend mode="normal" in2="BackgroundImageFix" result="effect1_dropShadow"/>
<feBlend mode="normal" in="SourceGraphic" in2="effect1_dropShadow" result="shape"/>
</filter>
<filter id="filter9_d" x="313.24" y="116.692" width="164.947" height="23.046" filterUnits="userSpaceOnUse" color-interpolation-filters="sRGB">
<feFlood flood-opacity="0" result="BackgroundImageFix"/>
<feColorMatrix in="SourceAlpha" type="matrix" values="0 0 0 0 0 0 0 0 0 0 0 0 0 0 0 0 0 0 127 0"/>
<feOffset dy="2"/>
<feGaussianBlur stdDeviation="4"/>
<feColorMatrix type="matrix" values="0 0 0 0 0.890196 0 0 0 0 0.795294 0 0 0 0 0.458824 0 0 0 0.31 0"/>
<feBlend mode="normal" in2="BackgroundImageFix" result="effect1_dropShadow"/>
<feBlend mode="normal" in="SourceGraphic" in2="effect1_dropShadow" result="shape"/>
</filter>
<filter id="filter10_d" x="313.24" y="141.607" width="53.333" height="23.046" filterUnits="userSpaceOnUse" color-interpolation-filters="sRGB">
<feFlood flood-opacity="0" result="BackgroundImageFix"/>
<feColorMatrix in="SourceAlpha" type="matrix" values="0 0 0 0 0 0 0 0 0 0 0 0 0 0 0 0 0 0 127 0"/>
<feOffset dy="3"/>
<feGaussianBlur stdDeviation="4"/>
<feColorMatrix type="matrix" values="0 0 0 0 1 0 0 0 0 0.223529 0 0 0 0 0.317647 0 0 0 0.15 0"/>
<feBlend mode="normal" in2="BackgroundImageFix" result="effect1_dropShadow"/>
<feBlend mode="normal" in="SourceGraphic" in2="effect1_dropShadow" result="shape"/>
</filter>
<filter id="filter11_d" x="313.24" y="164.523" width="134.311" height="23.046" filterUnits="userSpaceOnUse" color-interpolation-filters="sRGB">
<feFlood flood-opacity="0" result="BackgroundImageFix"/>
<feColorMatrix in="SourceAlpha" type="matrix" values="0 0 0 0 0 0 0 0 0 0 0 0 0 0 0 0 0 0 127 0"/>
<feOffset dy="2"/>
<feGaussianBlur stdDeviation="4"/>
<feColorMatrix type="matrix" values="0 0 0 0 0.890196 0 0 0 0 0.795294 0 0 0 0 0.458824 0 0 0 0.31 0"/>
<feBlend mode="normal" in2="BackgroundImageFix" result="effect1_dropShadow"/>
<feBlend mode="normal" in="SourceGraphic" in2="effect1_dropShadow" result="shape"/>
</filter>
<filter id="filter12_d" x="313.24" y="189.438" width="151.87" height="23.047" filterUnits="userSpaceOnUse" color-interpolation-filters="sRGB">
<feFlood flood-opacity="0" result="BackgroundImageFix"/>
<feColorMatrix in="SourceAlpha" type="matrix" values="0 0 0 0 0 0 0 0 0 0 0 0 0 0 0 0 0 0 127 0"/>
<feOffset dy="3"/>
<feGaussianBlur stdDeviation="4"/>
<feColorMatrix type="matrix" values="0 0 0 0 1 0 0 0 0 0.223529 0 0 0 0 0.317647 0 0 0 0.15 0"/>
<feBlend mode="normal" in2="BackgroundImageFix" result="effect1_dropShadow"/>
<feBlend mode="normal" in="SourceGraphic" in2="effect1_dropShadow" result="shape"/>
</filter>
<filter id="filter13_d" x="186.76" y="317.854" width="81.2737" height="98.1146" filterUnits="userSpaceOnUse" color-interpolation-filters="sRGB">
<feFlood flood-opacity="0" result="BackgroundImageFix"/>
<feColorMatrix in="SourceAlpha" type="matrix" values="0 0 0 0 0 0 0 0 0 0 0 0 0 0 0 0 0 0 127 0"/>
<feOffset dy="4"/>
<feGaussianBlur stdDeviation="4"/>
<feColorMatrix type="matrix" values="0 0 0 0 1 0 0 0 0 0.760784 0 0 0 0 0.14902 0 0 0 0.21 0"/>
<feBlend mode="normal" in2="BackgroundImageFix" result="effect1_dropShadow"/>
<feBlend mode="normal" in="SourceGraphic" in2="effect1_dropShadow" result="shape"/>
</filter>
<filter id="filter14_d" x="143.791" y="317.434" width="103.641" height="60.7897" filterUnits="userSpaceOnUse" color-interpolation-filters="sRGB">
<feFlood flood-opacity="0" result="BackgroundImageFix"/>
<feColorMatrix in="SourceAlpha" type="matrix" values="0 0 0 0 0 0 0 0 0 0 0 0 0 0 0 0 0 0 127 0"/>
<feOffset dy="4"/>
<feGaussianBlur stdDeviation="4"/>
<feColorMatrix type="matrix" values="0 0 0 0 1 0 0 0 0 0.505882 0 0 0 0 0.223529 0 0 0 0.16 0"/>
<feBlend mode="normal" in2="BackgroundImageFix" result="effect1_dropShadow"/>
<feBlend mode="normal" in="SourceGraphic" in2="effect1_dropShadow" result="shape"/>
</filter>
<filter id="filter15_d" x="127.157" y="333.566" width="112.381" height="126.746" filterUnits="userSpaceOnUse" color-interpolation-filters="sRGB">
<feFlood flood-opacity="0" result="BackgroundImageFix"/>
<feColorMatrix in="SourceAlpha" type="matrix" values="0 0 0 0 0 0 0 0 0 0 0 0 0 0 0 0 0 0 127 0"/>
<feOffset dy="6"/>
<feGaussianBlur stdDeviation="8"/>
<feColorMatrix type="matrix" values="0 0 0 0 1 0 0 0 0 0.223529 0 0 0 0 0.317647 0 0 0 0.34 0"/>
<feBlend mode="normal" in2="BackgroundImageFix" result="effect1_dropShadow"/>
<feBlend mode="normal" in="SourceGraphic" in2="effect1_dropShadow" result="shape"/>
</filter>
<filter id="filter16_d" x="277.034" y="348.873" width="28" height="28" filterUnits="userSpaceOnUse" color-interpolation-filters="sRGB">
<feFlood flood-opacity="0" result="BackgroundImageFix"/>
<feColorMatrix in="SourceAlpha" type="matrix" values="0 0 0 0 0 0 0 0 0 0 0 0 0 0 0 0 0 0 127 0"/>
<feOffset dy="4"/>
<feGaussianBlur stdDeviation="4"/>
<feColorMatrix type="matrix" values="0 0 0 0 1 0 0 0 0 0.223529 0 0 0 0 0.317647 0 0 0 0.19 0"/>
<feBlend mode="normal" in2="BackgroundImageFix" result="effect1_dropShadow"/>
<feBlend mode="normal" in="SourceGraphic" in2="effect1_dropShadow" result="shape"/>
</filter>
<filter id="filter17_d" x="281.034" y="373.873" width="20" height="20" filterUnits="userSpaceOnUse" color-interpolation-filters="sRGB">
<feFlood flood-opacity="0" result="BackgroundImageFix"/>
<feColorMatrix in="SourceAlpha" type="matrix" values="0 0 0 0 0 0 0 0 0 0 0 0 0 0 0 0 0 0 127 0"/>
<feOffset dy="4"/>
<feGaussianBlur stdDeviation="2"/>
<feColorMatrix type="matrix" values="0 0 0 0 1 0 0 0 0 0.505882 0 0 0 0 0.223529 0 0 0 0.13 0"/>
<feBlend mode="normal" in2="BackgroundImageFix" result="effect1_dropShadow"/>
<feBlend mode="normal" in="SourceGraphic" in2="effect1_dropShadow" result="shape"/>
</filter>
<filter id="filter18_d" x="278.034" y="393.873" width="26" height="26" filterUnits="userSpaceOnUse" color-interpolation-filters="sRGB">
<feFlood flood-opacity="0" result="BackgroundImageFix"/>
<feColorMatrix in="SourceAlpha" type="matrix" values="0 0 0 0 0 0 0 0 0 0 0 0 0 0 0 0 0 0 127 0"/>
<feOffset dy="6"/>
<feGaussianBlur stdDeviation="3.5"/>
<feColorMatrix type="matrix" values="0 0 0 0 1 0 0 0 0 0.760784 0 0 0 0 0.14902 0 0 0 0.44 0"/>
<feBlend mode="normal" in2="BackgroundImageFix" result="effect1_dropShadow"/>
<feBlend mode="normal" in="SourceGraphic" in2="effect1_dropShadow" result="shape"/>
</filter>
<filter id="filter19_dd" x="0.491516" y="0" width="286.206" height="257.54" filterUnits="userSpaceOnUse" color-interpolation-filters="sRGB">
<feFlood flood-opacity="0" result="BackgroundImageFix"/>
<feColorMatrix in="SourceAlpha" type="matrix" values="0 0 0 0 0 0 0 0 0 0 0 0 0 0 0 0 0 0 127 0"/>
<feOffset dy="6"/>
<feGaussianBlur stdDeviation="9"/>
<feColorMatrix type="matrix" values="0 0 0 0 0.0987208 0 0 0 0 0.0910417 0 0 0 0 0.475 0 0 0 0.02 0"/>
<feBlend mode="normal" in2="BackgroundImageFix" result="effect1_dropShadow"/>
<feColorMatrix in="SourceAlpha" type="matrix" values="0 0 0 0 0 0 0 0 0 0 0 0 0 0 0 0 0 0 127 0"/>
<feOffset dy="-1"/>
<feGaussianBlur stdDeviation="7.5"/>
<feColorMatrix type="matrix" values="0 0 0 0 0.078875 0 0 0 0 0.0770833 0 0 0 0 0.166667 0 0 0 0.04 0"/>
<feBlend mode="normal" in2="effect1_dropShadow" result="effect2_dropShadow"/>
<feBlend mode="normal" in="SourceGraphic" in2="effect2_dropShadow" result="shape"/>
</filter>
<filter id="filter20_d" x="191.595" y="111.021" width="34" height="116.098" filterUnits="userSpaceOnUse" color-interpolation-filters="sRGB">
<feFlood flood-opacity="0" result="BackgroundImageFix"/>
<feColorMatrix in="SourceAlpha" type="matrix" values="0 0 0 0 0 0 0 0 0 0 0 0 0 0 0 0 0 0 127 0"/>
<feOffset dy="4"/>
<feGaussianBlur stdDeviation="5.5"/>
<feColorMatrix type="matrix" values="0 0 0 0 1 0 0 0 0 0.760784 0 0 0 0 0.14902 0 0 0 0.22 0"/>
<feBlend mode="normal" in2="BackgroundImageFix" result="effect1_dropShadow"/>
<feBlend mode="normal" in="SourceGraphic" in2="effect1_dropShadow" result="shape"/>
</filter>
<filter id="filter21_d" x="139.595" y="167.418" width="34" height="59.686" filterUnits="userSpaceOnUse" color-interpolation-filters="sRGB">
<feFlood flood-opacity="0" result="BackgroundImageFix"/>
<feColorMatrix in="SourceAlpha" type="matrix" values="0 0 0 0 0 0 0 0 0 0 0 0 0 0 0 0 0 0 127 0"/>
<feOffset dy="4"/>
<feGaussianBlur stdDeviation="5.5"/>
<feColorMatrix type="matrix" values="0 0 0 0 1 0 0 0 0 0.760784 0 0 0 0 0.14902 0 0 0 0.22 0"/>
<feBlend mode="normal" in2="BackgroundImageFix" result="effect1_dropShadow"/>
<feBlend mode="normal" in="SourceGraphic" in2="effect1_dropShadow" result="shape"/>
</filter>
<filter id="filter22_d" x="87.5947" y="93.5229" width="34.0003" height="133.581" filterUnits="userSpaceOnUse" color-interpolation-filters="sRGB">
<feFlood flood-opacity="0" result="BackgroundImageFix"/>
<feColorMatrix in="SourceAlpha" type="matrix" values="0 0 0 0 0 0 0 0 0 0 0 0 0 0 0 0 0 0 127 0"/>
<feOffset dy="4"/>
<feGaussianBlur stdDeviation="5.5"/>
<feColorMatrix type="matrix" values="0 0 0 0 1 0 0 0 0 0.760784 0 0 0 0 0.14902 0 0 0 0.22 0"/>
<feBlend mode="normal" in2="BackgroundImageFix" result="effect1_dropShadow"/>
<feBlend mode="normal" in="SourceGraphic" in2="effect1_dropShadow" result="shape"/>
</filter>
<filter id="filter23_d" x="21.1099" y="23.2644" width="24.7709" height="24.771" filterUnits="userSpaceOnUse" color-interpolation-filters="sRGB">
<feFlood flood-opacity="0" result="BackgroundImageFix"/>
<feColorMatrix in="SourceAlpha" type="matrix" values="0 0 0 0 0 0 0 0 0 0 0 0 0 0 0 0 0 0 127 0"/>
<feOffset dy="2"/>
<feGaussianBlur stdDeviation="4"/>
<feColorMatrix type="matrix" values="0 0 0 0 1 0 0 0 0 0.223529 0 0 0 0 0.317647 0 0 0 0.14 0"/>
<feBlend mode="normal" in2="BackgroundImageFix" result="effect1_dropShadow"/>
<feBlend mode="normal" in="SourceGraphic" in2="effect1_dropShadow" result="shape"/>
</filter>
<filter id="filter24_d" x="34.8811" y="24.2644" width="22.771" height="22.771" filterUnits="userSpaceOnUse" color-interpolation-filters="sRGB">
<feFlood flood-opacity="0" result="BackgroundImageFix"/>
<feColorMatrix in="SourceAlpha" type="matrix" values="0 0 0 0 0 0 0 0 0 0 0 0 0 0 0 0 0 0 127 0"/>
<feOffset dy="2"/>
<feGaussianBlur stdDeviation="3.5"/>
<feColorMatrix type="matrix" values="0 0 0 0 1 0 0 0 0 0.760784 0 0 0 0 0.14902 0 0 0 0.14 0"/>
<feBlend mode="normal" in2="BackgroundImageFix" result="effect1_dropShadow"/>
<feBlend mode="normal" in="SourceGraphic" in2="effect1_dropShadow" result="shape"/>
</filter>
<filter id="filter25_d" x="48.6521" y="25.2644" width="20.771" height="20.771" filterUnits="userSpaceOnUse" color-interpolation-filters="sRGB">
<feFlood flood-opacity="0" result="BackgroundImageFix"/>
<feColorMatrix in="SourceAlpha" type="matrix" values="0 0 0 0 0 0 0 0 0 0 0 0 0 0 0 0 0 0 127 0"/>
<feOffset dy="2"/>
<feGaussianBlur stdDeviation="3"/>
<feColorMatrix type="matrix" values="0 0 0 0 0.603922 0 0 0 0 0.909804 0 0 0 0 0.52549 0 0 0 0.29 0"/>
<feBlend mode="normal" in2="BackgroundImageFix" result="effect1_dropShadow"/>
<feBlend mode="normal" in="SourceGraphic" in2="effect1_dropShadow" result="shape"/>
</filter>
</defs>
</svg>
