<svg width="255" height="516" viewBox="0 0 255 516" fill="none" xmlns="http://www.w3.org/2000/svg">
<path d="M213.309 110.143L230.083 98.4993C230.083 98.4993 231.693 90.2853 233.765 88.3563C236.612 86.3079 248.245 81.1754 252.245 82.5943C255.384 83.9355 255.371 100.604 252.245 101.448C249.118 102.293 236.612 106.171 236.612 106.171L218.713 120.661L213.309 110.143Z" fill="#FFD5BD"/>
<path d="M109.185 113.842C109.185 113.842 109.935 114.541 111.179 115.785C114.112 118.649 120.692 124.428 127.511 130.616C141.148 141.799 157.974 154.295 168.424 153.34C187.176 151.635 228.089 118.41 228.089 118.41L220.383 104.261C220.383 104.261 190.585 124.07 172.685 128.23C154.786 132.389 125.806 78.8952 111.895 75.1619L109.185 113.842Z" fill="#FF3951"/>
<path d="M218.235 103.248C217.722 103.485 217.508 104.099 217.761 104.604L225.902 120.828C226.247 121.513 227.203 121.572 227.628 120.934L229.76 117.735C229.96 117.436 229.983 117.052 229.821 116.731L222.558 102.312C222.315 101.83 221.734 101.628 221.245 101.855L218.235 103.248Z" fill="#14142A"/>
<path opacity="0.2" d="M111.128 115.785C114.061 118.649 120.112 124.428 127.408 130.616C124.101 115.512 113.583 103.051 113.583 103.051L111.128 115.785Z" fill="#14142B"/>
<path d="M109.645 502.568L123.471 504.017L126.062 474.201L112.237 472.735L109.645 502.568Z" fill="#FFD5BD"/>
<path d="M40.6384 501.562H54.0375L55.1455 470.519H41.7294L40.6384 501.562Z" fill="#FFD5BD"/>
<path d="M55.9126 500.01H39.6326C39.0871 500.01 38.6097 500.385 38.4904 500.931L35.8481 512.864C35.6436 513.955 36.3595 515.012 37.4506 515.217C37.5699 515.234 37.6892 515.251 37.8085 515.251C43.0761 515.165 46.9117 514.841 53.526 514.841C57.6003 514.841 69.8912 515.268 75.5168 515.268C81.1423 515.268 81.8754 509.71 79.574 509.199C69.2434 506.949 61.47 503.829 58.1628 500.863C57.5491 500.3 56.7479 499.993 55.9126 500.01Z" fill="#2E353A"/>
<path d="M60.3276 502.363C61.2311 502.431 62.1517 502.193 62.9018 501.681C63.3961 501.255 63.6518 500.624 63.5666 499.976C63.5836 499.601 63.362 499.243 63.0211 499.09C61.538 498.323 57.208 500.982 56.7307 501.289C56.6114 501.34 56.5432 501.477 56.5773 501.596C56.5943 501.732 56.6966 501.835 56.8159 501.869C57.9581 502.158 59.1343 502.329 60.3276 502.363ZM62.3222 499.584C62.4585 499.567 62.612 499.601 62.7313 499.67C62.8165 499.67 62.9188 499.789 62.9358 500.045C62.987 500.471 62.8336 500.897 62.5097 501.187C61.0095 501.869 59.3048 501.954 57.7365 501.425C59.1344 500.522 60.6856 499.891 62.3222 499.584Z" fill="#FF3951"/>
<path d="M56.9011 501.885H57.0546C58.4354 501.135 61.1118 498.186 60.839 496.771C60.7368 496.277 60.3106 495.936 59.8162 495.936C59.3218 495.868 58.8445 496.021 58.4695 496.345C56.9182 497.606 56.5943 501.459 56.5773 501.647C56.5773 501.766 56.6284 501.868 56.7307 501.936C56.7989 501.936 56.85 501.919 56.9011 501.885ZM59.5946 496.447H59.748C60.1571 496.447 60.1912 496.686 60.2082 496.771C60.3787 497.641 58.674 499.874 57.2932 500.914C57.3784 499.379 57.941 497.93 58.8786 496.72C59.0661 496.55 59.3218 496.447 59.5946 496.447Z" fill="#FF3951"/>
<path d="M124.937 499.584H108.657C108.111 499.584 107.634 499.959 107.514 500.504L104.872 512.437C104.667 513.528 105.383 514.585 106.474 514.79C106.594 514.807 106.713 514.824 106.832 514.824C112.1 514.739 115.936 514.415 122.55 514.415C126.624 514.415 138.915 514.841 144.541 514.841C150.166 514.841 150.899 509.284 148.598 508.772C138.267 506.522 130.494 503.402 127.187 500.436C126.573 499.874 125.772 499.567 124.937 499.584Z" fill="#2E353A"/>
<path d="M129.369 501.937C130.272 502.005 131.193 501.767 131.943 501.255C132.437 500.829 132.693 500.198 132.608 499.55C132.625 499.175 132.403 498.817 132.062 498.664C130.579 497.897 126.249 500.556 125.772 500.863C125.653 500.914 125.584 501.051 125.619 501.17C125.636 501.306 125.738 501.409 125.857 501.443C126.999 501.732 128.176 501.903 129.369 501.937ZM131.363 499.107C131.5 499.09 131.653 499.124 131.773 499.192C131.858 499.192 131.96 499.312 131.977 499.567C132.028 499.994 131.875 500.42 131.551 500.71C130.051 501.392 128.346 501.477 126.778 500.948C128.176 500.045 129.727 499.414 131.363 499.107Z" fill="#FF3951"/>
<path d="M125.942 501.459H126.096C127.477 500.709 130.153 497.76 129.88 496.345C129.778 495.851 129.352 495.51 128.857 495.51C128.363 495.442 127.886 495.595 127.511 495.919C125.959 497.18 125.636 501.033 125.619 501.221C125.619 501.34 125.67 501.442 125.772 501.51C125.84 501.51 125.891 501.493 125.942 501.459ZM128.636 496.021H128.789C129.198 496.021 129.232 496.26 129.25 496.345C129.42 497.215 127.715 499.448 126.334 500.488C126.42 498.953 126.982 497.504 127.92 496.294C128.107 496.124 128.363 496.021 128.636 496.021Z" fill="#FF3951"/>
<path opacity="0.2" d="M112.237 472.735L126.062 474.201L124.715 489.578L110.89 488.129L112.237 472.735Z" fill="#14142B"/>
<path opacity="0.2" d="M41.7294 470.536H55.1455L54.5659 486.543H41.1498L41.7294 470.536Z" fill="#14142B"/>
<path d="M47.27 198.225H118.391C125.209 235.149 146.314 365.832 131.125 482.281L107.054 479.298C107.054 479.298 109.287 324.715 88.0297 267.573C85.5749 298.155 82.6769 330.647 80.1539 348.001C73.9658 390.619 60.7202 483.764 60.7202 483.764H36.2064C36.2064 483.764 41.2182 394.608 43.5366 352.723C46.0767 307.258 47.1677 207.601 47.27 198.225Z" fill="#4E4B66"/>
<path opacity="0.2" d="M88.0295 267.573C91.5242 277.596 94.1835 287.876 95.9735 298.343C97.968 271.067 90.007 242.258 90.007 242.258L88.0295 267.573Z" fill="#14142B"/>
<path d="M134.32 486.119C134.074 487.123 133.105 487.774 132.083 487.622L105.991 483.741C104.928 483.583 104.18 482.613 104.297 481.545L104.769 477.237C104.891 476.123 105.905 475.326 107.017 475.472L133.785 478.974C134.967 479.129 135.752 480.276 135.468 481.433L134.32 486.119Z" fill="#D9DBE9"/>
<path d="M63.8784 482.205C63.7591 483.211 62.9058 483.969 61.8923 483.969H36.7573C35.6527 483.969 34.7573 483.074 34.7573 481.969V477.289C34.7573 476.199 35.63 475.31 36.7198 475.289L62.4667 474.807C63.6794 474.784 64.633 475.837 64.4903 477.042L63.8784 482.205Z" fill="#D9DBE9"/>
<path d="M118.987 199.077H47.3892V207.601L119.908 206.715L118.987 199.077Z" fill="#14142B"/>
<path d="M71.4026 195.242H71.9597C72.512 195.242 72.9597 195.689 72.9597 196.242V209.38C72.9597 209.932 72.512 210.38 71.9597 210.38H71.4026C70.8504 210.38 70.4026 209.932 70.4026 209.38V196.242C70.4026 195.689 70.8504 195.242 71.4026 195.242Z" fill="#6E7191"/>
<path d="M107.628 195.242H108.185C108.737 195.242 109.185 195.689 109.185 196.242V209.38C109.185 209.932 108.737 210.38 108.185 210.38H107.628C107.076 210.38 106.628 209.932 106.628 209.38V196.242C106.628 195.689 107.076 195.242 107.628 195.242Z" fill="#6E7191"/>
<path d="M88.342 197.594H97.5876C98.6922 197.594 99.5876 198.49 99.5876 199.594V205.141C99.5876 206.245 98.6922 207.141 97.5876 207.141H88.342C87.2375 207.141 86.342 206.245 86.342 205.141V199.594C86.342 198.49 87.2375 197.594 88.342 197.594Z" fill="white"/>
<path d="M111.895 75.162C111.895 75.162 66.6524 73.0311 32.9502 81.5376C32.9502 81.5376 47.8324 156.46 47.2698 199.078H118.987C118.987 199.078 123.641 119.144 111.895 75.162Z" fill="#FF3951"/>
<path d="M87.1511 80.8407C87.7587 80.8756 88.1944 81.4407 88.0738 82.0372L86.4539 90.0493C86.4251 90.1919 86.4226 90.3179 86.4564 90.4595C87.2214 93.6705 97.2551 136.033 99.592 158.844C99.6227 159.143 99.5145 159.43 99.3007 159.642L96.1991 162.717C95.8677 163.046 95.3531 163.101 94.9591 162.851L89.8339 159.597C89.5485 159.416 89.3739 159.103 89.3687 158.765C89.2874 153.457 88.4791 110.481 83.3883 91.4171C83.3347 91.2164 83.2212 91.0475 83.0605 90.9159L74.8363 84.1805C74.2244 83.6794 74.4089 82.6999 75.1612 82.4557L81.015 80.5558C81.1331 80.5175 81.2573 80.5015 81.3812 80.5086L87.1511 80.8407Z" fill="#14142B"/>
<path d="M98.0022 14.1158C98.0022 14.1158 100.798 32.5779 90.9958 39.6865C81.1937 46.7952 81.1937 12.4111 81.1937 12.4111L98.0022 14.1158Z" fill="#14142B"/>
<path d="M58.6746 76.7641C65.2037 82.6965 81.1939 80.4974 81.1939 80.4974C81.1939 80.4974 91.1835 77.7699 89.0867 74.6503C83.2054 73.6786 80.3586 70.934 79.1823 67.4223C78.5345 65.2402 78.33 62.9559 78.5857 60.7057C78.6879 59.4442 78.8414 58.1998 79.08 56.9553L59.3224 42.2437C61.8965 51.9776 65.0673 69.7577 58.6746 76.7641Z" fill="#FFD5BD"/>
<path opacity="0.2" d="M63.8739 51.6199C64.6581 63.5529 74.409 66.7577 79.2163 67.4226C78.5685 65.2405 78.3639 62.9562 78.6196 60.706L63.8739 51.6199Z" fill="#14142B"/>
<path d="M62.5443 54.3643C66.772 60.6206 74.6477 63.2799 81.7905 60.8593C86.308 59.4273 90.1265 56.3247 92.4449 52.1823C92.7688 51.6368 93.0587 51.0572 93.3314 50.4776C98.1558 39.1924 99.69 19.4518 87.757 12.0533C79.2505 6.71757 68.0335 9.27464 62.6977 17.7812C61.1976 20.1678 60.277 22.8782 60.0042 25.691C58.5382 38.8344 57.0551 46.5567 62.5443 54.3643Z" fill="#FFD5BD"/>
<path d="M79.2332 32.7313C78.9774 33.7712 79.4718 34.7429 80.1708 34.8622C80.8697 34.9816 81.5857 34.2144 81.7732 33.1575C81.9607 32.1006 81.5175 31.146 80.8356 31.0266C80.1537 30.9073 79.4377 31.6403 79.2332 32.7313Z" fill="#14142B"/>
<path d="M91.2855 34.777C91.0298 35.8169 91.5242 36.8056 92.2231 36.9249C92.922 37.0443 93.621 36.2601 93.8085 35.2202C93.996 34.1803 93.5698 33.1916 92.8709 33.0723C92.172 32.953 91.456 33.7201 91.2855 34.777Z" fill="#14142B"/>
<path d="M87.3646 34.6577C88.0806 38.1183 89.2738 41.4766 90.8933 44.6303C89.2227 45.4145 87.2794 45.4145 85.6087 44.6303L87.3646 34.6577Z" fill="#FF97B8"/>
<path d="M76.1649 28.1803C76.3865 28.2484 76.6422 28.1973 76.8127 28.0439C77.9548 26.9017 79.5743 26.3903 81.1767 26.629C81.5177 26.7142 81.8586 26.5096 81.9438 26.1687C82.029 25.8278 81.8245 25.4868 81.4836 25.4016C79.472 25.0436 77.4093 25.6743 75.9603 27.1063C75.7216 27.345 75.7046 27.737 75.9432 27.9757L75.9603 27.9927C76.0114 28.0609 76.0796 28.1291 76.1649 28.1803Z" fill="#14142B"/>
<path d="M82.9496 49.9322C79.7788 49.881 76.8297 48.2786 75.0568 45.6363C74.9545 45.4829 75.0056 45.2783 75.1591 45.1931L75.1761 45.176C75.3295 45.0908 75.517 45.1249 75.6193 45.2783C77.307 47.682 80.0345 49.148 82.9666 49.2332C83.1371 49.2503 83.2735 49.3867 83.2905 49.5571C83.2905 49.7276 83.1371 49.881 82.9666 49.881L82.9496 49.9322Z" fill="#14142B"/>
<path d="M97.1669 31.504C97.2691 31.5722 97.4055 31.6063 97.5248 31.6063C97.8658 31.521 98.0533 31.163 97.9681 30.8392C97.9681 30.8392 97.9681 30.8392 97.9681 30.8221C97.4396 28.8446 95.9906 27.2422 94.0643 26.5433C93.7404 26.441 93.3994 26.6115 93.2971 26.9354C93.2971 26.9524 93.2972 26.9524 93.2801 26.9695C93.1778 27.3104 93.3653 27.6513 93.7063 27.7536C95.1894 28.3503 96.3145 29.6118 96.7407 31.1631C96.8259 31.3335 96.9793 31.4699 97.1669 31.504Z" fill="#14142B"/>
<path d="M72.3975 10.9966V16.8779C70.2836 17.6109 69.0562 19.81 69.5506 21.992C70.8291 27.1062 67.1299 34.3341 63.0215 36.9083C63.0215 36.9083 63.1579 34.7774 61.3168 35.0501C59.4757 35.3229 58.6063 46.4205 61.4532 52.0972C61.4532 52.0972 56.7652 46.7104 55.1969 34.7774C53.7649 23.7308 54.498 14.7811 57.2085 10.9114L72.3975 10.9966Z" fill="#14142B"/>
<path d="M57.2086 12.7011C57.2086 12.7011 52.7934 2.74559 69.2609 0.478325C85.7284 -1.78894 103.082 4.74011 103.082 4.74011C103.082 4.74011 103.935 20.5257 89.9732 20.3723C76.3696 20.2189 57.2086 12.7011 57.2086 12.7011Z" fill="#14142B"/>
<path d="M52.5032 35.4249C53.4578 38.6298 55.6399 41.3403 58.572 42.9427C62.4758 45.0395 65.3908 41.7664 65.1181 37.5899C64.8453 33.8566 62.544 28.1628 58.214 27.8389C53.884 27.515 51.344 31.47 52.5032 35.4249Z" fill="#FFD5BD"/>
<path d="M61.5893 69.2295L80.4946 77.7531L81.6027 70.9342L88.5409 73.3719C91.0468 74.2413 92.6151 76.7302 92.3253 79.3555L91.5582 86.8562L81.9606 81.6057L77.1875 88.4246L54.4807 77.4973L61.5893 69.2295Z" fill="#FFE6E9"/>
<path opacity="0.2" d="M39.1554 116.791C40.3487 124.343 41.5931 132.645 42.7353 141.202C47.338 132.065 47.8324 121.428 44.1332 111.898L39.1554 116.791Z" fill="#14142B"/>
<path d="M32.9501 81.5374C24.8016 85.2877 -1.67262 138.39 0.0832311 168.375C1.78794 197.594 47.389 234.024 47.389 234.024C47.389 234.024 57.2593 226.012 58.6401 219.125C58.6401 219.125 26.5063 185.832 25.6539 168.375C24.8186 151.226 43.5534 120.643 43.5534 120.643C43.5534 120.643 45.6843 107.858 41.8487 96.7775C38.0131 85.6968 32.9501 81.5374 32.9501 81.5374Z" fill="#FF3951"/>
<path d="M58.6404 212.033C58.6404 212.033 51.2079 228.706 45.0027 232.081C45.0027 232.081 43.656 237.723 49.0599 245.395C54.4639 253.066 75.2955 226.694 58.6404 212.033Z" fill="#6E7191"/>
</svg>
