<svg width="600" height="418" viewBox="0 0 600 418" fill="none" xmlns="http://www.w3.org/2000/svg">
<path d="M273.549 271.223H24.797C12.7589 271.223 3 280.982 3 293.02V371.811C3 383.849 12.7589 393.608 24.797 393.608H273.549C285.587 393.608 295.346 383.849 295.346 371.811V293.02C295.346 280.982 285.587 271.223 273.549 271.223Z" fill="#B2DEFF"/>
<path d="M475.206 0H174.794C162.757 0 153 9.38536 153 20.9628V397.037C153 408.615 162.757 418 174.794 418H475.206C487.243 418 497 408.615 497 397.037V20.9628C497 9.38536 487.243 0 475.206 0Z" fill="#E9F7FF"/>
<path d="M153 23H446.425C452.943 23 459.194 25.5676 463.802 30.1381C468.411 34.7085 471 40.9073 471 47.3709V368.629C471 375.093 468.411 381.292 463.802 385.862C459.194 390.432 452.943 393 446.425 393H153" fill="#C4E6FF"/>
<path d="M453.385 69.688H22.978V130.374H453.385V69.688Z" fill="#E9F7FF"/>
<path d="M453.385 128.33H22.978V130.374H453.385V128.33Z" fill="#B2DEFF"/>
<path d="M61.827 108.08H53.014C52.1601 108.079 51.3413 107.74 50.7373 107.136C50.1333 106.532 49.7933 105.714 49.792 104.86V96.046C49.7931 95.1919 50.1329 94.3731 50.7369 93.7692C51.341 93.1654 52.1599 92.8258 53.014 92.825H61.827C62.6811 92.8258 63.5 93.1654 64.1041 93.7692C64.7081 94.3731 65.0479 95.1919 65.049 96.046V104.86C65.0477 105.714 64.7077 106.532 64.1037 107.136C63.4997 107.74 62.6809 108.079 61.827 108.08V108.08ZM53.014 94.435C52.5869 94.4353 52.1774 94.6051 51.8755 94.9072C51.5736 95.2093 51.404 95.6189 51.404 96.046V104.86C51.4045 105.287 51.5743 105.696 51.8761 105.998C52.178 106.3 52.5872 106.469 53.014 106.47H61.827C62.254 106.47 62.6635 106.3 62.9655 105.998C63.2675 105.696 63.4375 105.287 63.438 104.86V96.046C63.4377 95.6188 63.2679 95.2092 62.9658 94.9072C62.6638 94.6051 62.2542 94.4353 61.827 94.435H53.014Z" fill="#47A1FF"/>
<path d="M140.1 106.176H106.805C105.447 106.176 104.144 105.636 103.183 104.676C102.223 103.715 101.683 102.412 101.683 101.054C101.683 99.6956 102.223 98.3928 103.183 97.4322C104.144 96.4716 105.447 95.932 106.805 95.932H140.1C141.458 95.932 142.761 96.4716 143.722 97.4322C144.682 98.3928 145.222 99.6956 145.222 101.054C145.222 102.412 144.682 103.715 143.722 104.676C142.761 105.636 141.458 106.176 140.1 106.176V106.176Z" fill="#B2DEFF"/>
<path d="M242.541 106.176H155.892C154.534 106.176 153.231 105.636 152.27 104.676C151.31 103.715 150.77 102.412 150.77 101.054C150.77 99.6956 151.31 98.3928 152.27 97.4322C153.231 96.4716 154.534 95.932 155.892 95.932H242.541C243.899 95.932 245.202 96.4716 246.163 97.4322C247.123 98.3928 247.663 99.6956 247.663 101.054C247.663 102.412 247.123 103.715 246.163 104.676C245.202 105.636 243.899 106.176 242.541 106.176V106.176Z" fill="#B2DEFF"/>
<path d="M421.117 92.774H353.133C350.901 92.774 349.092 94.5832 349.092 96.815V107.813C349.092 110.045 350.901 111.854 353.133 111.854H421.117C423.349 111.854 425.158 110.045 425.158 107.813V96.815C425.158 94.5832 423.349 92.774 421.117 92.774Z" fill="#A4F8D6"/>
<path d="M363.5 102.527C362.993 102.899 362.371 103.081 361.744 103.04H360.286V105.558H358.832V98.558H361.839C362.44 98.5263 363.03 98.7196 363.496 99.1C363.715 99.3174 363.884 99.5802 363.991 99.8699C364.098 100.16 364.141 100.469 364.115 100.777C364.148 101.096 364.11 101.418 364.004 101.721C363.897 102.023 363.725 102.299 363.5 102.527V102.527ZM362.379 100C362.156 99.8323 361.88 99.7497 361.601 99.767H360.282V101.829H361.6C361.882 101.847 362.16 101.757 362.378 101.577C362.479 101.471 362.556 101.345 362.604 101.207C362.652 101.069 362.669 100.922 362.656 100.777C362.67 100.635 362.653 100.492 362.605 100.357C362.557 100.223 362.48 100.101 362.379 100V100Z" fill="#00C459"/>
<path d="M365.576 98.555H367.064V102.855C367.042 103.214 367.1 103.574 367.234 103.908C367.366 104.09 367.539 104.239 367.739 104.341C367.94 104.444 368.162 104.497 368.387 104.497C368.612 104.497 368.833 104.444 369.034 104.341C369.234 104.239 369.407 104.09 369.539 103.908C369.673 103.574 369.731 103.214 369.709 102.855V98.555H371.2V102.855C371.231 103.454 371.112 104.052 370.854 104.594C370.551 104.951 370.173 105.238 369.747 105.435C369.322 105.632 368.859 105.734 368.39 105.734C367.921 105.734 367.458 105.632 367.033 105.435C366.607 105.238 366.23 104.951 365.926 104.594C365.668 104.052 365.549 103.454 365.58 102.855L365.576 98.555Z" fill="#00C459"/>
<path d="M378.117 99.3C378.336 99.6127 378.449 99.9874 378.439 100.369C378.457 100.74 378.342 101.106 378.114 101.4C377.964 101.568 377.783 101.704 377.58 101.8C377.911 101.909 378.196 102.127 378.389 102.417C378.578 102.725 378.673 103.082 378.662 103.444C378.668 103.838 378.559 104.226 378.35 104.56C378.211 104.792 378.024 104.992 377.802 105.147C377.581 105.302 377.329 105.409 377.063 105.46C376.737 105.525 376.405 105.557 376.073 105.555H372.918V98.555H376.3C376.64 98.5259 376.983 98.5784 377.299 98.7079C377.614 98.8375 377.895 99.0404 378.117 99.3V99.3ZM374.317 99.77V101.314H376.017C376.275 101.325 376.531 101.265 376.757 101.141C376.856 101.074 376.934 100.981 376.984 100.873C377.035 100.765 377.055 100.645 377.042 100.526C377.057 100.392 377.028 100.257 376.961 100.141C376.893 100.025 376.79 99.9331 376.666 99.88C376.398 99.7995 376.118 99.7624 375.838 99.77H374.317ZM374.317 102.47V104.337H376.017C376.259 104.348 376.502 104.306 376.726 104.214C376.881 104.131 377.008 104.004 377.091 103.848C377.173 103.692 377.206 103.515 377.187 103.34C377.2 103.184 377.163 103.028 377.083 102.893C377.003 102.759 376.883 102.652 376.74 102.589C376.517 102.503 376.279 102.462 376.04 102.47H374.317Z" fill="#00C459"/>
<path d="M380.213 98.555H381.676V104.298H385.173V105.558H380.213V98.555Z" fill="#00C459"/>
<path d="M387.782 98.555H386.328V105.558H387.782V98.555Z" fill="#00C459"/>
<path d="M390.5 103.4C390.521 103.659 390.614 103.907 390.767 104.117C390.93 104.277 391.127 104.398 391.342 104.473C391.558 104.548 391.787 104.574 392.014 104.55C392.304 104.559 392.594 104.52 392.872 104.436C393.054 104.393 393.215 104.288 393.328 104.14C393.442 103.992 393.502 103.81 393.497 103.623C393.5 103.514 393.473 103.407 393.419 103.312C393.365 103.218 393.287 103.139 393.192 103.086C392.886 102.928 392.558 102.818 392.219 102.759L391.461 102.592C390.922 102.504 390.402 102.322 389.925 102.055C389.687 101.884 389.497 101.656 389.373 101.39C389.249 101.125 389.195 100.832 389.217 100.54C389.211 100.245 389.27 99.9517 389.389 99.6816C389.509 99.4115 389.686 99.171 389.909 98.977C390.487 98.524 391.213 98.3023 391.945 98.355C392.629 98.3352 393.301 98.5416 393.856 98.942C394.118 99.1402 394.33 99.3974 394.474 99.6928C394.618 99.9881 394.691 100.313 394.686 100.642H393.28C393.279 100.454 393.226 100.27 393.126 100.111C393.026 99.9521 392.883 99.8242 392.714 99.742C392.441 99.6173 392.143 99.5574 391.843 99.567C391.519 99.5509 391.197 99.6301 390.917 99.795C390.808 99.8614 390.719 99.9552 390.659 100.067C390.598 100.179 390.568 100.305 390.572 100.432C390.568 100.548 390.598 100.663 390.659 100.763C390.719 100.862 390.807 100.942 390.912 100.992C391.21 101.124 391.523 101.221 391.843 101.282L393.072 101.571C393.507 101.653 393.919 101.827 394.282 102.08C394.492 102.252 394.659 102.471 394.768 102.719C394.876 102.968 394.925 103.239 394.908 103.51C394.913 103.814 394.849 104.116 394.721 104.392C394.593 104.668 394.403 104.912 394.167 105.104C393.566 105.562 392.821 105.787 392.067 105.738C391.292 105.782 390.525 105.562 389.892 105.113C389.633 104.911 389.426 104.649 389.288 104.351C389.15 104.052 389.086 103.725 389.1 103.396L390.5 103.4Z" fill="#00C459"/>
<path d="M396.214 105.558V98.555H397.668V101.225H400.39V98.555H401.844V105.558H400.39V102.432H397.668V105.558H396.214Z" fill="#00C459"/>
<path d="M408.72 99.795H405.015V101.282H408.416V102.498H405.015V104.298H408.892V105.558H403.585V98.555H408.72V99.795Z" fill="#00C459"/>
<path d="M414.426 98.707C414.911 98.8627 415.331 99.1751 415.619 99.595C415.859 99.9349 416.029 100.319 416.119 100.726C416.205 101.106 416.25 101.495 416.252 101.885C416.278 102.709 416.085 103.526 415.692 104.251C415.462 104.667 415.12 105.011 414.705 105.242C414.289 105.473 413.817 105.583 413.342 105.558H410.323V98.558H413.342C413.709 98.5537 414.074 98.6039 414.426 98.707V98.707ZM411.743 99.771V104.341H413.1C413.42 104.353 413.734 104.26 413.996 104.075C414.257 103.891 414.45 103.625 414.546 103.32C414.705 102.893 414.781 102.44 414.77 101.985C414.802 101.418 414.687 100.853 414.435 100.344C414.285 100.137 414.081 99.9744 413.846 99.8735C413.611 99.7727 413.354 99.7372 413.1 99.771H411.743Z" fill="#00C459"/>
<path d="M453.385 130.06H22.978V190.746H453.385V130.06Z" fill="#F4FBFF"/>
<path d="M453.385 188.701H22.978V190.745H453.385V188.701Z" fill="#B2DEFF"/>
<path d="M61.827 168.451H53.014C52.1601 168.45 51.3413 168.111 50.7373 167.507C50.1333 166.903 49.7933 166.085 49.792 165.231V156.417C49.7931 155.563 50.1329 154.744 50.7369 154.14C51.341 153.536 52.1599 153.197 53.014 153.196H61.827C62.6811 153.197 63.5 153.536 64.1041 154.14C64.7081 154.744 65.0479 155.563 65.049 156.417V165.231C65.0477 166.085 64.7077 166.903 64.1037 167.507C63.4997 168.111 62.6809 168.45 61.827 168.451V168.451ZM53.014 154.807C52.5871 154.807 52.1777 154.977 51.8758 155.279C51.574 155.581 51.4043 155.99 51.404 156.417V165.231C51.4045 165.658 51.5743 166.067 51.8761 166.369C52.178 166.671 52.5872 166.84 53.014 166.841H61.827C62.254 166.841 62.6635 166.671 62.9655 166.369C63.2675 166.067 63.4375 165.658 63.438 165.231V156.417C63.4375 155.99 63.2675 155.581 62.9655 155.279C62.6635 154.977 62.254 154.807 61.827 154.807H53.014Z" fill="#47A1FF"/>
<path d="M129.926 166.547H106.805C105.447 166.547 104.144 166.007 103.183 165.047C102.223 164.086 101.683 162.783 101.683 161.425C101.683 160.067 102.223 158.764 103.183 157.803C104.144 156.843 105.447 156.303 106.805 156.303H129.926C131.284 156.303 132.587 156.843 133.548 157.803C134.508 158.764 135.048 160.067 135.048 161.425C135.048 162.783 134.508 164.086 133.548 165.047C132.587 166.007 131.284 166.547 129.926 166.547V166.547Z" fill="#B2DEFF"/>
<path d="M260.682 166.547H145.719C144.361 166.547 143.058 166.007 142.097 165.047C141.137 164.086 140.597 162.783 140.597 161.425C140.597 160.067 141.137 158.764 142.097 157.803C143.058 156.843 144.361 156.303 145.719 156.303H260.682C262.04 156.303 263.343 156.843 264.304 157.803C265.264 158.764 265.804 160.067 265.804 161.425C265.804 162.783 265.264 164.086 264.304 165.047C263.343 166.007 262.04 166.547 260.682 166.547V166.547Z" fill="#B2DEFF"/>
<path d="M421.117 149.117H353.133C350.901 149.117 349.092 150.926 349.092 153.158V164.155C349.092 166.387 350.901 168.196 353.133 168.196H421.117C423.349 168.196 425.158 166.387 425.158 164.155V153.158C425.158 150.926 423.349 149.117 421.117 149.117Z" fill="#A4F8D6"/>
<path d="M363.5 158.87C362.994 159.243 362.372 159.425 361.744 159.384H360.286V161.9H358.832V154.9H361.839C362.44 154.868 363.03 155.062 363.496 155.442C363.715 155.659 363.884 155.922 363.991 156.211C364.098 156.501 364.14 156.81 364.115 157.118C364.148 157.437 364.11 157.76 364.004 158.063C363.898 158.366 363.726 158.642 363.5 158.87ZM362.383 156.348C362.16 156.18 361.884 156.098 361.605 156.115H360.286V158.177H361.6C361.882 158.195 362.16 158.105 362.378 157.925C362.479 157.819 362.556 157.693 362.603 157.555C362.651 157.417 362.669 157.27 362.656 157.125C362.67 156.983 362.653 156.84 362.605 156.705C362.557 156.571 362.48 156.449 362.379 156.348H362.383Z" fill="#00C459"/>
<path d="M365.576 154.9H367.064V159.2C367.042 159.56 367.1 159.92 367.234 160.255C367.366 160.437 367.539 160.585 367.739 160.688C367.94 160.79 368.162 160.843 368.386 160.843C368.611 160.843 368.833 160.79 369.033 160.688C369.234 160.585 369.407 160.437 369.539 160.255C369.673 159.92 369.731 159.56 369.709 159.2V154.9H371.2V159.2C371.231 159.799 371.112 160.397 370.854 160.939C370.55 161.296 370.173 161.583 369.747 161.78C369.322 161.977 368.859 162.079 368.39 162.079C367.921 162.079 367.458 161.977 367.033 161.78C366.607 161.583 366.229 161.296 365.926 160.939C365.668 160.397 365.549 159.799 365.58 159.2L365.576 154.9Z" fill="#00C459"/>
<path d="M378.117 155.645C378.336 155.958 378.449 156.332 378.439 156.714C378.457 157.085 378.342 157.451 378.114 157.745C377.965 157.913 377.783 158.049 377.58 158.145C377.911 158.255 378.196 158.472 378.389 158.762C378.578 159.07 378.673 159.427 378.662 159.788C378.668 160.183 378.559 160.57 378.35 160.905C378.211 161.137 378.024 161.337 377.802 161.492C377.581 161.647 377.329 161.754 377.063 161.805C376.737 161.87 376.405 161.902 376.073 161.9H372.918V154.9H376.3C376.64 154.871 376.983 154.923 377.299 155.053C377.615 155.182 377.895 155.385 378.117 155.645V155.645ZM374.317 156.115V157.659H376.017C376.275 157.671 376.531 157.611 376.757 157.485C376.856 157.418 376.934 157.325 376.985 157.217C377.035 157.109 377.055 156.989 377.042 156.87C377.057 156.736 377.028 156.601 376.961 156.485C376.893 156.369 376.79 156.278 376.666 156.225C376.398 156.145 376.118 156.107 375.838 156.115H374.317ZM374.317 158.815V160.682H376.017C376.26 160.693 376.502 160.651 376.726 160.558C376.881 160.475 377.008 160.347 377.09 160.192C377.173 160.036 377.206 159.859 377.187 159.684C377.2 159.528 377.164 159.372 377.084 159.237C377.003 159.102 376.883 158.996 376.74 158.933C376.517 158.846 376.279 158.806 376.04 158.815H374.317Z" fill="#00C459"/>
<path d="M380.213 154.899H381.676V160.643H385.173V161.902H380.213V154.899Z" fill="#00C459"/>
<path d="M387.782 154.899H386.328V161.901H387.782V154.899Z" fill="#00C459"/>
<path d="M390.5 159.74C390.521 159.999 390.614 160.247 390.767 160.457C390.93 160.616 391.127 160.738 391.342 160.812C391.558 160.887 391.787 160.914 392.014 160.89C392.304 160.899 392.594 160.86 392.872 160.776C393.054 160.733 393.215 160.628 393.328 160.48C393.442 160.332 393.502 160.15 393.497 159.963C393.5 159.854 393.473 159.747 393.419 159.652C393.365 159.558 393.287 159.479 393.192 159.426C392.886 159.268 392.558 159.158 392.219 159.099L391.461 158.932C390.922 158.844 390.402 158.662 389.925 158.396C389.687 158.225 389.497 157.996 389.373 157.731C389.249 157.465 389.195 157.172 389.217 156.88C389.211 156.585 389.27 156.292 389.389 156.022C389.509 155.752 389.686 155.511 389.909 155.317C390.487 154.864 391.213 154.642 391.945 154.694C392.629 154.675 393.301 154.881 393.856 155.281C394.118 155.479 394.33 155.737 394.474 156.032C394.618 156.327 394.691 156.652 394.686 156.981H393.28C393.28 156.793 393.227 156.609 393.127 156.45C393.026 156.29 392.883 156.163 392.714 156.081C392.441 155.955 392.143 155.895 391.843 155.905C391.519 155.889 391.197 155.968 390.917 156.133C390.808 156.199 390.719 156.293 390.659 156.405C390.598 156.517 390.568 156.643 390.572 156.77C390.568 156.886 390.598 157.001 390.659 157.1C390.719 157.2 390.807 157.28 390.912 157.33C391.21 157.462 391.522 157.56 391.843 157.62L393.072 157.91C393.507 157.991 393.919 158.165 394.282 158.418C394.492 158.59 394.659 158.809 394.767 159.057C394.876 159.306 394.924 159.577 394.908 159.848C394.913 160.152 394.849 160.454 394.721 160.73C394.593 161.006 394.403 161.25 394.167 161.442C393.566 161.9 392.821 162.125 392.067 162.076C391.292 162.12 390.525 161.9 389.892 161.451C389.633 161.249 389.426 160.987 389.288 160.689C389.15 160.39 389.086 160.063 389.1 159.734L390.5 159.74Z" fill="#00C459"/>
<path d="M396.214 161.902V154.899H397.668V157.569H400.39V154.899H401.844V161.902H400.39V158.776H397.668V161.902H396.214Z" fill="#00C459"/>
<path d="M408.72 156.139H405.015V157.626H408.416V158.842H405.015V160.643H408.892V161.902H403.585V154.899H408.72V156.139Z" fill="#00C459"/>
<path d="M414.426 155.051C414.911 155.207 415.33 155.52 415.619 155.94C415.859 156.28 416.029 156.664 416.119 157.07C416.205 157.45 416.25 157.839 416.252 158.229C416.278 159.053 416.085 159.87 415.692 160.595C415.462 161.011 415.12 161.355 414.705 161.586C414.289 161.817 413.817 161.927 413.342 161.902H410.323V154.902H413.342C413.709 154.897 414.074 154.947 414.426 155.051V155.051ZM411.743 156.115V160.686H413.1C413.42 160.698 413.734 160.604 413.996 160.419C414.257 160.235 414.45 159.969 414.546 159.664C414.705 159.237 414.781 158.784 414.77 158.329C414.802 157.762 414.687 157.197 414.435 156.688C414.285 156.481 414.081 156.318 413.846 156.218C413.611 156.117 413.354 156.081 413.1 156.115H411.743Z" fill="#00C459"/>
<path d="M453.385 250.802H22.978V311.488H453.385V250.802Z" fill="#F4FBFF"/>
<path d="M453.385 309.444H22.978V311.488H453.385V309.444Z" fill="#B2DEFF"/>
<path d="M61.827 289.194H53.014C52.1599 289.193 51.341 288.854 50.7369 288.25C50.1329 287.646 49.7931 286.827 49.792 285.973V277.159C49.7933 276.305 50.1333 275.487 50.7373 274.883C51.3413 274.279 52.1601 273.94 53.014 273.939H61.827C62.6809 273.94 63.4997 274.279 64.1037 274.883C64.7077 275.487 65.0477 276.305 65.049 277.159V285.973C65.0479 286.827 64.7081 287.646 64.1041 288.25C63.5 288.854 62.6811 289.193 61.827 289.194ZM53.014 275.549C52.5872 275.55 52.178 275.719 51.8761 276.021C51.5743 276.323 51.4045 276.732 51.404 277.159V285.973C51.4043 286.4 51.5739 286.809 51.8758 287.112C52.1776 287.414 52.587 287.583 53.014 287.584H61.827C62.2541 287.583 62.6636 287.414 62.9656 287.112C63.2676 286.81 63.4375 286.4 63.438 285.973V277.159C63.4375 276.732 63.2675 276.323 62.9655 276.021C62.6635 275.719 62.254 275.549 61.827 275.549H53.014Z" fill="#47A1FF"/>
<path d="M150.816 287.29H106.805C105.447 287.29 104.144 286.75 103.183 285.79C102.223 284.829 101.683 283.526 101.683 282.168C101.683 280.81 102.223 279.507 103.183 278.546C104.144 277.586 105.447 277.046 106.805 277.046H150.816C152.174 277.046 153.477 277.586 154.438 278.546C155.398 279.507 155.938 280.81 155.938 282.168C155.938 283.526 155.398 284.829 154.438 285.79C153.477 286.75 152.174 287.29 150.816 287.29V287.29Z" fill="#0065EB"/>
<path d="M421.117 268.633H353.133C350.901 268.633 349.092 270.442 349.092 272.674V283.672C349.092 285.904 350.901 287.713 353.133 287.713H421.117C423.349 287.713 425.158 285.904 425.158 283.672V272.674C425.158 270.442 423.349 268.633 421.117 268.633Z" fill="#A4F8D6"/>
<path d="M363.5 278.386C362.993 278.759 362.372 278.941 361.744 278.9H360.286V281.417H358.832V274.417H361.839C362.439 274.385 363.03 274.578 363.496 274.958C363.715 275.175 363.884 275.438 363.991 275.728C364.098 276.018 364.14 276.327 364.115 276.635C364.148 276.954 364.11 277.277 364.004 277.58C363.898 277.882 363.725 278.158 363.5 278.386V278.386ZM362.383 275.863C362.159 275.696 361.884 275.613 361.605 275.631H360.286V277.693H361.6C361.882 277.711 362.16 277.621 362.378 277.441C362.479 277.335 362.556 277.209 362.603 277.071C362.651 276.933 362.669 276.786 362.656 276.641C362.67 276.499 362.653 276.355 362.605 276.221C362.557 276.086 362.48 275.964 362.379 275.863H362.383Z" fill="#00C459"/>
<path d="M365.576 274.415H367.064V278.715C367.042 279.075 367.1 279.435 367.234 279.769C367.366 279.951 367.539 280.1 367.739 280.202C367.94 280.305 368.161 280.358 368.386 280.358C368.612 280.358 368.833 280.305 369.034 280.202C369.234 280.1 369.407 279.951 369.539 279.769C369.673 279.435 369.731 279.075 369.709 278.715V274.415H371.2V278.715C371.231 279.314 371.112 279.912 370.854 280.453C370.551 280.811 370.173 281.098 369.748 281.295C369.322 281.492 368.859 281.594 368.39 281.594C367.921 281.594 367.458 281.492 367.032 281.295C366.607 281.098 366.229 280.811 365.926 280.453C365.668 279.911 365.549 279.314 365.58 278.715L365.576 274.415Z" fill="#00C459"/>
<path d="M378.117 275.16C378.336 275.473 378.449 275.848 378.439 276.23C378.457 276.601 378.342 276.966 378.114 277.26C377.965 277.428 377.783 277.564 377.58 277.66C377.911 277.77 378.196 277.987 378.389 278.278C378.578 278.586 378.673 278.943 378.662 279.304C378.668 279.699 378.559 280.086 378.35 280.421C378.22 280.635 378.05 280.822 377.85 280.972C377.616 281.147 377.345 281.267 377.058 281.323C376.732 281.388 376.4 281.42 376.068 281.418H372.913V274.418H376.3C376.64 274.388 376.982 274.44 377.298 274.569C377.614 274.698 377.895 274.901 378.117 275.16V275.16ZM374.317 275.631V277.175H376.017C376.275 277.186 376.531 277.126 376.757 277.001C376.856 276.934 376.934 276.841 376.985 276.733C377.035 276.625 377.055 276.505 377.042 276.386C377.057 276.252 377.028 276.117 376.961 276.001C376.893 275.885 376.79 275.793 376.666 275.74C376.398 275.66 376.118 275.623 375.838 275.631H374.317ZM374.317 278.331V280.2H376.017C376.26 280.212 376.502 280.169 376.726 280.076C376.881 279.993 377.008 279.866 377.091 279.71C377.173 279.554 377.206 279.377 377.187 279.202C377.2 279.046 377.164 278.89 377.083 278.755C377.003 278.621 376.883 278.515 376.74 278.452C376.517 278.365 376.279 278.325 376.04 278.333L374.317 278.331Z" fill="#00C459"/>
<path d="M380.213 274.415H381.676V280.158H385.173V281.417H380.213V274.415Z" fill="#00C459"/>
<path d="M387.782 274.415H386.328V281.417H387.782V274.415Z" fill="#00C459"/>
<path d="M390.5 279.256C390.521 279.515 390.614 279.763 390.767 279.973C390.93 280.132 391.127 280.253 391.342 280.328C391.558 280.403 391.787 280.429 392.014 280.405C392.304 280.414 392.594 280.375 392.872 280.291C393.053 280.248 393.215 280.144 393.328 279.996C393.442 279.848 393.502 279.665 393.497 279.479C393.5 279.37 393.473 279.263 393.419 279.168C393.365 279.074 393.287 278.995 393.192 278.942C392.886 278.783 392.558 278.673 392.219 278.614L391.461 278.448C390.922 278.359 390.402 278.178 389.925 277.911C389.687 277.74 389.497 277.511 389.373 277.246C389.249 276.981 389.195 276.688 389.217 276.396C389.211 276.101 389.27 275.808 389.389 275.538C389.509 275.268 389.686 275.027 389.909 274.833C390.487 274.38 391.213 274.158 391.945 274.21C392.629 274.191 393.301 274.397 393.856 274.797C394.118 274.995 394.33 275.252 394.474 275.548C394.618 275.843 394.691 276.168 394.686 276.497H393.28C393.28 276.309 393.227 276.125 393.127 275.966C393.026 275.806 392.883 275.679 392.714 275.597C392.441 275.471 392.143 275.411 391.843 275.421C391.519 275.405 391.197 275.485 390.917 275.649C390.809 275.716 390.72 275.809 390.659 275.921C390.599 276.033 390.568 276.159 390.572 276.286C390.568 276.402 390.598 276.517 390.659 276.617C390.719 276.717 390.807 276.797 390.912 276.847C391.21 276.978 391.523 277.076 391.843 277.137L393.072 277.426C393.507 277.508 393.919 277.682 394.282 277.935C394.492 278.106 394.659 278.325 394.767 278.574C394.876 278.822 394.924 279.093 394.908 279.364C394.913 279.669 394.849 279.97 394.721 280.247C394.593 280.523 394.403 280.767 394.167 280.959C393.566 281.416 392.821 281.641 392.067 281.593C391.292 281.637 390.525 281.417 389.892 280.968C389.633 280.766 389.426 280.504 389.288 280.206C389.15 279.907 389.086 279.58 389.1 279.251L390.5 279.256Z" fill="#00C459"/>
<path d="M396.214 281.417V274.415H397.668V277.085H400.39V274.415H401.844V281.417H400.39V278.291H397.668V281.417H396.214Z" fill="#00C459"/>
<path d="M408.72 275.654H405.015V277.142H408.416V278.358H405.015V280.158H408.892V281.417H403.585V274.415H408.72V275.654Z" fill="#00C459"/>
<path d="M414.426 274.567C414.911 274.723 415.331 275.035 415.619 275.455C415.86 275.795 416.03 276.179 416.119 276.586C416.205 276.966 416.25 277.355 416.252 277.745C416.278 278.569 416.085 279.385 415.692 280.11C415.463 280.527 415.12 280.87 414.705 281.101C414.289 281.332 413.817 281.442 413.342 281.417H410.323V274.417H413.342C413.709 274.413 414.074 274.463 414.426 274.567V274.567ZM411.743 275.631V280.201H413.1C413.42 280.213 413.734 280.119 413.996 279.935C414.257 279.75 414.45 279.485 414.546 279.18C414.705 278.753 414.781 278.3 414.77 277.845C414.802 277.278 414.687 276.712 414.435 276.203C414.285 275.996 414.081 275.834 413.846 275.733C413.611 275.632 413.353 275.597 413.1 275.631H411.743Z" fill="#00C459"/>
<path d="M441.527 371.859H34.837C33.2796 371.859 31.7375 371.552 30.2986 370.957C28.8597 370.361 27.5524 369.487 26.4511 368.386C25.3499 367.285 24.4764 365.977 23.8804 364.538C23.2845 363.1 22.9779 361.557 22.978 360V311.173H453.385V360C453.385 361.557 453.078 363.099 452.483 364.538C451.887 365.977 451.013 367.284 449.912 368.386C448.811 369.487 447.504 370.36 446.065 370.956C444.626 371.552 443.084 371.859 441.527 371.859V371.859Z" fill="#E9F7FF"/>
<path d="M61.827 349.566H53.014C52.1598 349.565 51.3409 349.225 50.7369 348.621C50.1328 348.017 49.7931 347.198 49.792 346.344V337.531C49.7931 336.677 50.1329 335.858 50.7369 335.254C51.341 334.65 52.1599 334.311 53.014 334.31H61.827C62.6811 334.311 63.5 334.65 64.1041 335.254C64.7081 335.858 65.0479 336.677 65.049 337.531V346.344C65.0479 347.198 64.7081 348.017 64.1041 348.621C63.5001 349.225 62.6812 349.565 61.827 349.566V349.566ZM53.014 335.92C52.587 335.921 52.1776 336.09 51.8758 336.392C51.5739 336.695 51.4043 337.104 51.404 337.531V346.344C51.404 346.771 51.5736 347.181 51.8755 347.483C52.1774 347.785 52.5869 347.955 53.014 347.955H61.827C62.2542 347.955 62.6638 347.785 62.9658 347.483C63.2679 347.181 63.4377 346.771 63.438 346.344V337.531C63.4375 337.104 63.2676 336.694 62.9656 336.392C62.6636 336.09 62.2541 335.921 61.827 335.92H53.014Z" fill="#47A1FF"/>
<path d="M140.1 347.661H106.805C105.447 347.661 104.144 347.121 103.183 346.161C102.223 345.2 101.683 343.897 101.683 342.539C101.683 341.181 102.223 339.878 103.183 338.917C104.144 337.957 105.447 337.417 106.805 337.417H140.1C141.458 337.417 142.761 337.957 143.722 338.917C144.682 339.878 145.222 341.181 145.222 342.539C145.222 343.897 144.682 345.2 143.722 346.161C142.761 347.121 141.458 347.661 140.1 347.661V347.661Z" fill="#B2DEFF"/>
<path d="M242.541 347.661H155.892C154.534 347.661 153.231 347.121 152.27 346.161C151.31 345.2 150.77 343.897 150.77 342.539C150.77 341.181 151.31 339.878 152.27 338.917C153.231 337.957 154.534 337.417 155.892 337.417H242.541C243.899 337.417 245.202 337.957 246.163 338.917C247.123 339.878 247.663 341.181 247.663 342.539C247.663 343.897 247.123 345.2 246.163 346.161C245.202 347.121 243.899 347.661 242.541 347.661V347.661Z" fill="#B2DEFF"/>
<path d="M421.117 330.952H353.133C350.901 330.952 349.092 332.761 349.092 334.993V345.99C349.092 348.222 350.901 350.031 353.133 350.031H421.117C423.349 350.031 425.158 348.222 425.158 345.99V334.993C425.158 332.761 423.349 330.952 421.117 330.952Z" fill="#A4F8D6"/>
<path d="M363.5 340.705C362.994 341.078 362.372 341.26 361.744 341.219H360.286V343.736H358.832V336.736H361.839C362.44 336.704 363.03 336.898 363.496 337.278C363.715 337.495 363.884 337.758 363.991 338.047C364.098 338.337 364.14 338.646 364.115 338.954C364.148 339.273 364.11 339.596 364.004 339.898C363.898 340.201 363.725 340.477 363.5 340.705V340.705ZM362.383 338.183C362.16 338.015 361.884 337.932 361.605 337.95H360.286V340.012H361.6C361.882 340.03 362.16 339.94 362.378 339.76C362.479 339.654 362.556 339.528 362.603 339.39C362.651 339.252 362.669 339.105 362.656 338.96C362.67 338.818 362.653 338.675 362.605 338.54C362.557 338.406 362.48 338.284 362.379 338.183H362.383Z" fill="#00C459"/>
<path d="M365.576 336.734H367.064V341.034C367.042 341.394 367.1 341.754 367.234 342.089C367.366 342.271 367.539 342.419 367.739 342.522C367.94 342.624 368.162 342.677 368.386 342.677C368.611 342.677 368.833 342.624 369.033 342.522C369.234 342.419 369.407 342.271 369.539 342.089C369.673 341.754 369.731 341.394 369.709 341.034V336.734H371.2V341.034C371.231 341.633 371.112 342.231 370.854 342.773C370.55 343.13 370.173 343.417 369.747 343.614C369.322 343.811 368.859 343.913 368.39 343.913C367.921 343.913 367.458 343.811 367.033 343.614C366.607 343.417 366.229 343.13 365.926 342.773C365.668 342.231 365.549 341.633 365.58 341.034L365.576 336.734Z" fill="#00C459"/>
<path d="M378.117 337.48C378.336 337.793 378.449 338.167 378.439 338.549C378.457 338.92 378.342 339.286 378.114 339.58C377.965 339.748 377.783 339.884 377.58 339.98C377.911 340.09 378.196 340.307 378.389 340.597C378.578 340.905 378.673 341.262 378.662 341.623C378.668 342.018 378.559 342.405 378.35 342.74C378.211 342.972 378.024 343.172 377.802 343.327C377.581 343.482 377.329 343.589 377.063 343.64C376.737 343.705 376.405 343.736 376.073 343.734H372.918V336.734H376.3C376.64 336.705 376.983 336.757 377.299 336.887C377.615 337.017 377.895 337.22 378.117 337.48V337.48ZM374.317 337.95V339.494H376.017C376.275 339.506 376.531 339.446 376.757 339.32C376.856 339.253 376.934 339.16 376.985 339.052C377.035 338.944 377.055 338.824 377.042 338.705C377.057 338.571 377.028 338.436 376.961 338.32C376.893 338.204 376.79 338.113 376.666 338.06C376.398 337.979 376.118 337.942 375.838 337.95H374.317ZM374.317 340.65V342.518H376.017C376.26 342.529 376.502 342.487 376.726 342.394C376.881 342.311 377.008 342.183 377.09 342.028C377.173 341.872 377.206 341.695 377.187 341.52C377.2 341.364 377.164 341.208 377.084 341.073C377.003 340.938 376.883 340.832 376.74 340.769C376.517 340.682 376.279 340.642 376.04 340.65H374.317Z" fill="#00C459"/>
<path d="M380.213 336.734H381.676V342.478H385.173V343.736H380.213V336.734Z" fill="#00C459"/>
<path d="M387.782 336.734H386.328V343.736H387.782V336.734Z" fill="#00C459"/>
<path d="M390.5 341.575C390.521 341.834 390.614 342.082 390.767 342.292C390.93 342.451 391.127 342.573 391.342 342.648C391.558 342.722 391.787 342.749 392.014 342.725C392.304 342.734 392.594 342.695 392.872 342.61C393.053 342.567 393.215 342.463 393.328 342.315C393.442 342.167 393.502 341.984 393.497 341.798C393.5 341.689 393.473 341.582 393.419 341.487C393.365 341.393 393.287 341.314 393.192 341.261C392.886 341.102 392.558 340.992 392.219 340.934L391.461 340.767C390.922 340.679 390.402 340.497 389.925 340.231C389.687 340.06 389.497 339.831 389.373 339.566C389.249 339.3 389.195 339.007 389.217 338.715C389.211 338.42 389.27 338.127 389.389 337.857C389.509 337.587 389.686 337.346 389.909 337.152C390.487 336.699 391.213 336.477 391.945 336.529C392.629 336.51 393.301 336.716 393.856 337.116C394.118 337.314 394.33 337.571 394.474 337.867C394.618 338.162 394.691 338.487 394.686 338.816H393.28C393.28 338.628 393.227 338.444 393.127 338.285C393.026 338.125 392.883 337.998 392.714 337.916C392.441 337.79 392.143 337.73 391.843 337.74C391.519 337.724 391.197 337.803 390.917 337.968C390.809 338.034 390.72 338.128 390.659 338.24C390.598 338.351 390.568 338.477 390.572 338.604C390.568 338.72 390.598 338.835 390.659 338.935C390.719 339.035 390.807 339.115 390.912 339.165C391.21 339.297 391.522 339.395 391.843 339.455L393.072 339.745C393.507 339.826 393.919 340 394.282 340.253C394.492 340.425 394.659 340.644 394.767 340.893C394.876 341.141 394.924 341.412 394.908 341.683C394.913 341.987 394.849 342.289 394.721 342.565C394.593 342.841 394.403 343.085 394.167 343.277C393.566 343.735 392.821 343.96 392.067 343.911C391.292 343.955 390.525 343.735 389.892 343.286C389.633 343.084 389.426 342.822 389.288 342.524C389.15 342.225 389.086 341.898 389.1 341.569L390.5 341.575Z" fill="#00C459"/>
<path d="M396.214 343.736V336.734H397.668V339.404H400.39V336.734H401.844V343.736H400.39V340.61H397.668V343.736H396.214Z" fill="#00C459"/>
<path d="M408.72 337.974H405.015V339.461H408.416V340.677H405.015V342.478H408.892V343.736H403.585V336.734H408.72V337.974Z" fill="#00C459"/>
<path d="M414.426 336.886C414.911 337.042 415.33 337.355 415.619 337.775C415.859 338.115 416.029 338.499 416.119 338.905C416.205 339.285 416.25 339.674 416.252 340.064C416.278 340.888 416.085 341.705 415.692 342.43C415.462 342.846 415.12 343.19 414.705 343.42C414.289 343.651 413.817 343.761 413.342 343.736H410.323V336.736H413.342C413.709 336.732 414.074 336.782 414.426 336.886V336.886ZM411.743 337.95V342.521H413.1C413.42 342.533 413.734 342.439 413.996 342.254C414.257 342.07 414.45 341.804 414.546 341.499C414.705 341.072 414.781 340.619 414.77 340.164C414.802 339.597 414.687 339.032 414.435 338.523C414.285 338.316 414.081 338.153 413.846 338.053C413.611 337.952 413.354 337.916 413.1 337.95H411.743Z" fill="#00C459"/>
<path d="M453.385 191.59H22.978V252.276H453.385V191.59Z" fill="#E9F7FF"/>
<path d="M453.385 250.232H22.978V252.276H453.385V250.232Z" fill="#B2DEFF"/>
<path d="M61.827 229.982H53.014C52.1599 229.981 51.341 229.642 50.7369 229.038C50.1329 228.434 49.7931 227.615 49.792 226.761V217.947C49.7931 217.093 50.1329 216.274 50.737 215.671C51.3411 215.067 52.16 214.728 53.014 214.727H61.827C62.681 214.728 63.4999 215.067 64.104 215.671C64.7081 216.274 65.0479 217.093 65.049 217.947V226.761C65.0479 227.615 64.7081 228.434 64.1041 229.038C63.5 229.642 62.6811 229.981 61.827 229.982V229.982ZM53.014 216.337C52.5871 216.337 52.1777 216.507 51.8758 216.809C51.574 217.111 51.4043 217.52 51.404 217.947V226.761C51.4043 227.188 51.574 227.597 51.8758 227.899C52.1777 228.201 52.5871 228.371 53.014 228.371H61.827C62.254 228.371 62.6635 228.201 62.9655 227.899C63.2675 227.597 63.4375 227.188 63.438 226.761V217.947C63.4375 217.52 63.2675 217.111 62.9655 216.809C62.6635 216.507 62.254 216.337 61.827 216.337H53.014Z" fill="#47A1FF"/>
<path d="M198.221 228.077H106.805C105.447 228.077 104.144 227.537 103.183 226.577C102.223 225.616 101.683 224.313 101.683 222.955C101.683 221.597 102.223 220.294 103.183 219.333C104.144 218.373 105.447 217.833 106.805 217.833H198.221C199.579 217.833 200.882 218.373 201.843 219.333C202.803 220.294 203.343 221.597 203.343 222.955C203.343 224.313 202.803 225.616 201.843 226.577C200.882 227.537 199.579 228.077 198.221 228.077Z" fill="#B2DEFF"/>
<path d="M224.258 228.077H214.014C212.656 228.077 211.353 227.537 210.392 226.577C209.432 225.616 208.892 224.313 208.892 222.955C208.892 221.597 209.432 220.294 210.392 219.333C211.353 218.373 212.656 217.833 214.014 217.833H224.258C225.616 217.833 226.919 218.373 227.88 219.333C228.84 220.294 229.38 221.597 229.38 222.955C229.38 224.313 228.84 225.616 227.88 226.577C226.919 227.537 225.616 228.077 224.258 228.077Z" fill="#B2DEFF"/>
<path d="M421.117 212.459H353.133C350.901 212.459 349.092 214.268 349.092 216.5V227.497C349.092 229.729 350.901 231.538 353.133 231.538H421.117C423.349 231.538 425.158 229.729 425.158 227.497V216.5C425.158 214.268 423.349 212.459 421.117 212.459Z" fill="#FFEC7D"/>
<path d="M373.391 218.394C373.876 218.55 374.295 218.863 374.584 219.282C374.824 219.622 374.994 220.006 375.084 220.413C375.17 220.793 375.215 221.182 375.217 221.572C375.243 222.396 375.049 223.213 374.656 223.938C374.427 224.354 374.085 224.698 373.669 224.929C373.254 225.16 372.782 225.269 372.307 225.244H369.288V218.244H372.307C372.674 218.24 373.039 218.29 373.391 218.394ZM370.708 219.458V224.028H372.06C372.38 224.04 372.694 223.947 372.956 223.762C373.217 223.578 373.41 223.312 373.506 223.007C373.664 222.58 373.74 222.127 373.73 221.672C373.762 221.105 373.646 220.539 373.395 220.03C373.245 219.823 373.041 219.661 372.806 219.56C372.571 219.46 372.313 219.424 372.06 219.458H370.708Z" fill="#FCBB00"/>
<path d="M381.094 218.422C381.348 218.53 381.573 218.698 381.749 218.911C381.897 219.088 382.016 219.287 382.102 219.501C382.192 219.736 382.236 219.986 382.232 220.237C382.229 220.58 382.143 220.916 381.98 221.218C381.804 221.546 381.505 221.791 381.149 221.9C381.435 221.999 381.677 222.195 381.834 222.453C381.99 222.798 382.059 223.175 382.034 223.553V224.024C382.027 224.241 382.04 224.459 382.073 224.674C382.087 224.756 382.118 224.834 382.165 224.903C382.211 224.972 382.272 225.03 382.343 225.074V225.249H380.73C380.686 225.094 380.654 224.969 380.63 224.874C380.592 224.676 380.571 224.475 380.568 224.274L380.559 223.623C380.592 223.307 380.51 222.99 380.327 222.73C380.088 222.553 379.79 222.473 379.494 222.506H378.07V225.252H376.64V218.252H379.989C380.365 218.24 380.739 218.298 381.094 218.422V218.422ZM378.07 219.458V221.339H379.645C379.884 221.351 380.122 221.313 380.345 221.225C380.486 221.151 380.601 221.036 380.675 220.895C380.749 220.755 380.779 220.595 380.76 220.437C380.781 220.271 380.754 220.103 380.684 219.951C380.613 219.8 380.501 219.671 380.36 219.581C380.147 219.487 379.915 219.444 379.683 219.458H378.07Z" fill="#FCBB00"/>
<path d="M385.927 218.242H387.583L390.061 225.242H388.474L388.012 223.803H385.433L384.958 225.242H383.428L385.927 218.242ZM385.827 222.598H387.62L386.735 219.843L385.827 222.598Z" fill="#FCBB00"/>
<path d="M391.242 218.251H396.236V219.482H392.696V221.092H395.798V222.308H392.696V225.244H391.242V218.251Z" fill="#FCBB00"/>
<path d="M402.566 218.242V219.482H400.471V225.244H398.998V219.482H396.894V218.242H402.566Z" fill="#FCBB00"/>
<path d="M453.385 69.762H22.978V31.774C22.978 29.4666 23.8946 27.2537 25.5262 25.6222C27.1577 23.9906 29.3706 23.074 31.678 23.074H444.689C446.996 23.074 449.209 23.9906 450.841 25.6222C452.472 27.2537 453.389 29.4666 453.389 31.774L453.385 69.762Z" fill="#283848"/>
<path d="M591.6 346.25H539.46C537.581 346.25 535.779 345.504 534.45 344.175C533.121 342.846 532.375 341.044 532.375 339.165L531.947 289.515C531.947 287.648 532.689 285.857 534.009 284.536C535.33 283.216 537.121 282.474 538.988 282.474L591.215 282.395C593.091 282.413 594.883 283.171 596.202 284.505C597.521 285.838 598.259 287.639 598.256 289.515L598.685 339.165C598.685 341.044 597.939 342.846 596.61 344.175C595.281 345.504 593.479 346.25 591.6 346.25V346.25Z" fill="#8BCBFF"/>
<path d="M532.017 319.2H290.932C287.909 319.2 285.009 317.999 282.871 315.861C280.733 313.723 279.532 310.823 279.532 307.8L278.843 273.614C278.843 270.609 280.037 267.726 282.162 265.601C284.287 263.476 287.17 262.282 290.175 262.282L531.399 262.155C534.417 262.184 537.302 263.405 539.425 265.551C541.547 267.697 542.736 270.595 542.731 273.614L543.42 307.8C543.42 309.297 543.125 310.78 542.552 312.163C541.979 313.547 541.139 314.803 540.08 315.862C539.021 316.921 537.764 317.76 536.38 318.333C534.997 318.906 533.514 319.2 532.017 319.2V319.2Z" fill="#00D981"/>
<path d="M356.858 298.528V283.228H361.816C363.045 283.179 364.276 283.256 365.489 283.458C366.372 283.693 367.148 284.222 367.689 284.958C368.31 285.825 368.622 286.874 368.575 287.939C368.602 288.759 368.427 289.572 368.065 290.308C367.759 290.908 367.313 291.425 366.765 291.817C366.285 292.162 365.741 292.408 365.165 292.542C364.107 292.712 363.036 292.785 361.965 292.761H359.95V298.533L356.858 298.528ZM359.947 285.815V290.157H361.638C362.46 290.203 363.283 290.122 364.08 289.917C364.472 289.772 364.809 289.509 365.046 289.165C365.282 288.814 365.404 288.399 365.396 287.976C365.415 287.471 365.239 286.977 364.905 286.598C364.58 286.237 364.142 285.997 363.663 285.919C362.926 285.831 362.182 285.797 361.44 285.819L359.947 285.815Z" fill="white"/>
<path d="M372.805 283.226H375.895V291.514C375.869 292.368 375.908 293.223 376.01 294.071C376.127 294.673 376.463 295.211 376.954 295.58C377.553 295.989 378.271 296.189 378.995 296.149C379.698 296.199 380.398 296.01 380.979 295.611C381.402 295.287 381.688 294.816 381.779 294.291C381.89 293.429 381.935 292.56 381.915 291.691V283.225H385.005V291.263C385.044 292.566 384.96 293.869 384.754 295.156C384.612 295.864 384.294 296.524 383.83 297.077C383.338 297.63 382.721 298.058 382.03 298.324C381.088 298.666 380.089 298.824 379.087 298.789C377.956 298.844 376.826 298.672 375.763 298.282C375.07 297.992 374.456 297.541 373.972 296.967C373.557 296.474 373.261 295.892 373.106 295.267C372.87 293.987 372.769 292.685 372.806 291.384L372.805 283.226Z" fill="white"/>
<path d="M389.986 283.226H396.1C397.006 283.207 397.911 283.258 398.809 283.377C399.382 283.469 399.928 283.684 400.409 284.009C400.891 284.342 401.293 284.779 401.584 285.287C401.9 285.83 402.062 286.449 402.054 287.078C402.055 287.78 401.853 288.467 401.471 289.056C401.09 289.646 400.545 290.111 399.904 290.397C400.752 290.614 401.507 291.101 402.054 291.785C402.557 292.447 402.822 293.26 402.805 294.092C402.803 294.797 402.637 295.493 402.32 296.123C402.019 296.753 401.563 297.295 400.994 297.699C400.376 298.113 399.663 298.362 398.922 298.424C398.407 298.48 397.165 298.513 395.196 298.524H389.987L389.986 283.226ZM393.075 285.773V289.312H395.1C396.304 289.312 397.052 289.294 397.344 289.259C397.81 289.224 398.25 289.031 398.591 288.711C398.744 288.553 398.863 288.366 398.941 288.16C399.019 287.955 399.055 287.736 399.045 287.516C399.064 287.096 398.924 286.684 398.654 286.362C398.346 286.044 397.931 285.853 397.49 285.825C397.184 285.79 396.304 285.773 394.849 285.773H393.075ZM393.075 291.859V295.95H395.936C396.644 295.972 397.352 295.941 398.055 295.857C398.488 295.787 398.884 295.572 399.177 295.246C399.48 294.883 399.635 294.419 399.611 293.946C399.623 293.531 399.506 293.123 399.277 292.777C399.039 292.446 398.7 292.2 398.311 292.077C397.411 291.884 396.49 291.811 395.571 291.858L393.075 291.859Z" fill="white"/>
<path d="M407.207 298.528V283.351H410.297V295.95H417.98V298.528H407.207Z" fill="white"/>
<path d="M424.888 283.226H421.798V298.529H424.888V283.226Z" fill="white"/>
<path d="M428.759 293.549L431.765 293.257C431.863 294.103 432.252 294.89 432.865 295.481C433.501 295.982 434.297 296.234 435.105 296.191C435.905 296.249 436.701 296.026 437.354 295.559C437.585 295.387 437.773 295.165 437.905 294.909C438.036 294.653 438.106 294.37 438.111 294.082C438.12 293.746 438.007 293.417 437.792 293.158C437.485 292.845 437.102 292.617 436.681 292.495C436.319 292.37 435.494 292.148 434.207 291.827C432.945 291.596 431.752 291.078 430.721 290.314C430.274 289.936 429.916 289.464 429.672 288.932C429.429 288.4 429.305 287.82 429.311 287.235C429.311 286.456 429.541 285.695 429.974 285.048C430.439 284.35 431.105 283.809 431.884 283.497C432.842 283.119 433.866 282.939 434.896 282.965C436.447 282.85 437.986 283.299 439.233 284.228C439.714 284.648 440.1 285.166 440.364 285.748C440.628 286.33 440.763 286.961 440.762 287.6L437.672 287.735C437.611 287.082 437.307 286.475 436.821 286.035C436.245 285.649 435.556 285.468 434.864 285.519C434.121 285.477 433.383 285.67 432.756 286.071C432.601 286.176 432.475 286.318 432.389 286.484C432.304 286.65 432.261 286.835 432.265 287.022C432.265 287.202 432.307 287.379 432.387 287.54C432.467 287.701 432.582 287.841 432.725 287.95C433.599 288.466 434.562 288.813 435.564 288.974C436.715 289.208 437.835 289.577 438.899 290.074C439.593 290.429 440.178 290.967 440.59 291.629C441.018 292.368 441.229 293.213 441.2 294.066C441.201 294.941 440.947 295.797 440.47 296.53C439.977 297.301 439.254 297.898 438.403 298.236C437.341 298.639 436.209 298.829 435.073 298.795C433.474 298.901 431.891 298.425 430.616 297.454C429.52 296.438 428.855 295.04 428.759 293.549Z" fill="white"/>
<path d="M445.522 298.528V283.226H448.612V289.249H454.666V283.226H457.756V298.528H454.666V291.838H448.612V298.528H445.522Z" fill="white"/>
<path d="M462.66 298.528V283.226H474.007V285.815H465.75V289.207H473.433V291.785H465.75V295.95H474.299V298.528H462.66Z" fill="white"/>
<path d="M478.618 283.226H484.266C485.245 283.193 486.225 283.292 487.178 283.518C488.059 283.773 488.856 284.26 489.485 284.927C490.146 285.638 490.644 286.484 490.946 287.406C491.308 288.577 491.477 289.799 491.446 291.024C491.469 292.128 491.31 293.228 490.977 294.28C490.652 295.297 490.09 296.222 489.338 296.98C488.718 297.55 487.975 297.968 487.166 298.201C486.276 298.443 485.354 298.552 484.432 298.524H478.617L478.618 283.226ZM481.708 285.815V295.95H484.015C484.641 295.971 485.268 295.922 485.883 295.804C486.345 295.699 486.774 295.481 487.131 295.168C487.526 294.755 487.805 294.246 487.94 293.691C488.176 292.777 488.282 291.834 488.253 290.891C488.286 289.972 488.181 289.053 487.94 288.166C487.776 287.607 487.474 287.097 487.063 286.684C486.662 286.316 486.167 286.067 485.633 285.964C484.794 285.838 483.945 285.789 483.097 285.818L481.708 285.815Z" fill="white"/>
<path fill-rule="evenodd" clip-rule="evenodd" d="M338.594 287.819H337.572V285.774C337.553 284.43 337.006 283.147 336.049 282.203C335.092 281.26 333.802 280.731 332.457 280.731C331.113 280.731 329.823 281.26 328.866 282.203C327.909 283.147 327.362 284.43 327.343 285.774V287.819H326.321C325.779 287.821 325.26 288.037 324.877 288.42C324.494 288.804 324.278 289.323 324.276 289.865V300.093C324.278 300.635 324.494 301.154 324.877 301.537C325.26 301.92 325.779 302.136 326.321 302.138H338.594C339.136 302.137 339.656 301.921 340.039 301.538C340.423 301.155 340.639 300.635 340.641 300.093V289.865C340.639 289.323 340.423 288.803 340.039 288.42C339.656 288.037 339.136 287.821 338.594 287.819V287.819ZM332.458 297.025C332.053 297.025 331.658 296.905 331.321 296.68C330.985 296.455 330.723 296.136 330.568 295.762C330.413 295.388 330.372 294.977 330.451 294.58C330.53 294.183 330.725 293.818 331.011 293.532C331.297 293.246 331.662 293.051 332.059 292.972C332.456 292.893 332.867 292.934 333.241 293.089C333.615 293.244 333.934 293.506 334.159 293.842C334.384 294.179 334.504 294.574 334.504 294.979C334.502 295.521 334.286 296.04 333.903 296.424C333.519 296.807 333 297.023 332.458 297.025V297.025ZM329.287 287.819H335.628V285.774C335.613 284.943 335.273 284.151 334.68 283.568C334.087 282.986 333.289 282.659 332.457 282.659C331.626 282.659 330.828 282.986 330.235 283.568C329.642 284.151 329.302 284.943 329.287 285.774V287.819Z" fill="white"/>
<path d="M553.6 377.935H488.176C485.763 377.935 483.448 376.976 481.741 375.27C480.035 373.563 479.076 371.248 479.076 368.835L478.526 341.564C478.526 339.166 479.479 336.867 481.174 335.171C482.87 333.476 485.169 332.523 487.567 332.523L553.104 332.423C555.512 332.446 557.813 333.42 559.507 335.132C561.2 336.845 562.148 339.157 562.144 341.565L562.693 368.836C562.693 371.248 561.735 373.561 560.03 375.268C558.325 376.974 556.012 377.933 553.6 377.935Z" fill="#0065EB"/>
<path d="M553.6 378.325H488.176C485.661 378.321 483.251 377.321 481.472 375.543C479.694 373.764 478.694 371.354 478.69 368.839L478.14 341.575C478.141 339.074 479.134 336.675 480.902 334.905C482.67 333.135 485.069 332.14 487.57 332.137L553.106 332.037C555.62 332.053 558.024 333.066 559.792 334.853C561.56 336.64 562.547 339.055 562.536 341.569L563.086 368.832C563.084 371.348 562.084 373.76 560.306 375.54C558.528 377.32 556.116 378.321 553.6 378.325ZM553.106 332.817L487.57 332.917C485.276 332.919 483.077 333.832 481.455 335.453C479.833 337.075 478.921 339.274 478.918 341.568L479.468 368.831C479.469 371.141 480.387 373.355 482.019 374.989C483.651 376.623 485.865 377.542 488.175 377.545H553.6C555.908 377.543 558.121 376.625 559.753 374.992C561.386 373.36 562.304 371.147 562.306 368.839L561.756 341.575C561.768 339.267 560.864 337.049 559.243 335.407C557.621 333.765 555.415 332.834 553.107 332.817H553.106Z" fill="#8BCBFF"/>
<path d="M496.4 355.231C496.4 353.984 496.895 352.789 497.777 351.908C498.658 351.026 499.853 350.531 501.1 350.531H507.162V347.651H501.1C499.09 347.651 497.162 348.45 495.741 349.871C494.32 351.292 493.521 353.22 493.521 355.23C493.521 357.24 494.32 359.168 495.741 360.589C497.162 362.011 499.09 362.809 501.1 362.809H507.162V359.929H501.1C499.854 359.929 498.659 359.434 497.777 358.553C496.896 357.672 496.401 356.477 496.4 355.231V355.231ZM502.614 356.747H514.74V353.715H502.618L502.614 356.747ZM516.256 347.647H510.2V350.527H516.263C517.51 350.527 518.705 351.022 519.586 351.904C520.468 352.785 520.963 353.98 520.963 355.227C520.963 356.474 520.468 357.669 519.586 358.55C518.705 359.432 517.51 359.927 516.263 359.927H510.2V362.807H516.263C518.273 362.807 520.201 362.008 521.622 360.587C523.044 359.166 523.842 357.238 523.842 355.228C523.842 353.218 523.044 351.29 521.622 349.869C520.201 348.447 518.273 347.649 516.263 347.649L516.256 347.647Z" fill="white"/>
<path d="M532.178 362.777H543.573V360.594H535.642V360.494L539.429 356.777C542.419 353.821 543.308 352.47 543.308 350.566V350.542C543.308 347.852 541.022 345.842 537.823 345.842C534.568 345.842 532.039 348.001 532.039 350.98V351.049H534.487V350.98C534.505 350.559 534.608 350.147 534.788 349.767C534.969 349.386 535.224 349.046 535.538 348.767C535.853 348.487 536.22 348.273 536.619 348.138C537.017 348.003 537.439 347.949 537.859 347.98C538.231 347.955 538.604 348.006 538.955 348.131C539.306 348.256 539.627 348.452 539.899 348.706C540.171 348.961 540.388 349.269 540.536 349.611C540.684 349.953 540.76 350.321 540.759 350.694V350.717C540.759 352.01 540.259 352.887 538.046 355.104L532.181 361.004L532.178 362.777Z" fill="white"/>
<path d="M555.487 221.786H448.208C445.158 221.786 442.233 220.574 440.076 218.418C437.92 216.261 436.708 213.336 436.708 210.286L436.013 171.795C436.013 170.294 436.309 168.807 436.883 167.42C437.458 166.033 438.3 164.773 439.362 163.711C440.423 162.649 441.684 161.807 443.071 161.233C444.458 160.658 445.945 160.363 447.446 160.363L554.864 160.235C557.909 160.264 560.819 161.495 562.961 163.661C565.102 165.826 566.301 168.75 566.296 171.795L566.996 210.286C566.996 211.797 566.698 213.293 566.12 214.689C565.541 216.085 564.693 217.353 563.625 218.421C562.556 219.489 561.287 220.336 559.891 220.913C558.494 221.491 556.998 221.787 555.487 221.786V221.786Z" fill="#003CBE"/>
<path d="M496.564 196.169H498.364L499.745 192.234H505.215L506.596 196.169H508.396L503.326 182.419H501.626L496.564 196.169ZM502.404 184.639H502.557L504.71 190.776H500.251L502.404 184.639ZM510.6 199.6H512.257V194.55H512.41C512.727 195.114 513.194 195.581 513.758 195.898C514.322 196.216 514.963 196.372 515.61 196.35C518.22 196.35 519.916 194.263 519.916 191.043V191.024C519.916 187.824 518.21 185.716 515.61 185.716C514.96 185.694 514.318 185.852 513.753 186.173C513.188 186.495 512.723 186.966 512.41 187.536H512.257V185.9H510.6V199.6ZM515.231 194.883C513.363 194.883 512.22 193.416 512.22 191.044V191.025C512.22 188.652 513.363 187.185 515.231 187.185C517.099 187.185 518.223 188.633 518.223 191.025V191.044C518.222 193.434 517.107 194.882 515.23 194.882L515.231 194.883ZM522.511 199.6H524.168V194.55H524.322C524.639 195.115 525.105 195.581 525.67 195.899C526.234 196.216 526.875 196.372 527.522 196.35C530.133 196.35 531.828 194.263 531.828 191.043V191.024C531.828 187.824 530.128 185.716 527.522 185.716C526.872 185.693 526.229 185.851 525.664 186.173C525.099 186.494 524.635 186.966 524.322 187.536H524.168V185.9H522.51L522.511 199.6ZM527.141 194.883C525.274 194.883 524.13 193.416 524.13 191.044V191.025C524.13 188.652 525.274 187.185 527.141 187.185C529.008 187.185 530.134 188.633 530.134 191.025V191.044C530.133 193.434 529.018 194.882 527.14 194.882L527.141 194.883ZM537.947 196.351C540.281 196.351 542.063 195.084 542.063 193.251V193.232C542.063 191.765 541.129 190.926 539.196 190.459L537.613 190.078C536.404 189.778 535.889 189.345 535.889 188.649V188.63C535.889 187.725 536.784 187.096 538.004 187.096C538.48 187.033 538.964 187.135 539.374 187.385C539.785 187.634 540.098 188.016 540.262 188.468H541.891C541.662 186.791 540.167 185.714 538.014 185.714C535.832 185.714 534.193 187 534.193 188.706V188.716C534.193 190.192 535.06 191.031 536.985 191.488L538.575 191.869C539.844 192.169 540.366 192.66 540.366 193.356V193.375C540.366 194.309 539.385 194.966 538.004 194.966C537.501 195.032 536.991 194.928 536.555 194.671C536.118 194.414 535.78 194.018 535.594 193.546H533.894C534.087 195.244 535.659 196.35 537.946 196.35L537.947 196.351Z" fill="#E9F7FF"/>
<path d="M480.827 189.706H482.127C482.64 189.706 483.148 189.807 483.621 190.003C484.095 190.199 484.526 190.487 484.888 190.85C485.251 191.212 485.538 191.643 485.735 192.117C485.931 192.59 486.032 193.098 486.032 193.611C486.032 194.124 485.931 194.632 485.735 195.105C485.538 195.579 485.251 196.01 484.888 196.372C484.526 196.735 484.095 197.023 483.621 197.219C483.148 197.415 482.64 197.516 482.127 197.516H480.827V202.069C480.825 202.931 480.482 203.757 479.873 204.367C479.263 204.977 478.437 205.321 477.575 205.323H471.975V202.723C471.951 201.98 471.639 201.275 471.104 200.757C470.57 200.24 469.855 199.951 469.112 199.951C468.368 199.951 467.653 200.24 467.119 200.757C466.584 201.275 466.272 201.98 466.248 202.723V205.323H460.653C459.791 205.321 458.964 204.978 458.354 204.368C457.744 203.758 457.401 202.931 457.399 202.069V196.469H460C460.746 196.449 461.455 196.139 461.976 195.604C462.497 195.069 462.788 194.352 462.788 193.606C462.788 192.86 462.497 192.143 461.976 191.608C461.455 191.073 460.746 190.763 460 190.743H457.412V185.148C457.411 184.287 457.752 183.461 458.359 182.851C458.966 182.241 459.791 181.897 460.652 181.895H465.208V180.595C465.208 179.56 465.619 178.567 466.351 177.834C467.084 177.102 468.077 176.691 469.112 176.691C470.147 176.691 471.14 177.102 471.873 177.834C472.605 178.567 473.016 179.56 473.016 180.595V181.895H477.57C478.432 181.897 479.258 182.24 479.868 182.849C480.478 183.459 480.822 184.285 480.824 185.147V189.7L480.827 189.706ZM477.573 204.021C478.09 204.019 478.585 203.813 478.951 203.447C479.316 203.081 479.522 202.586 479.524 202.069V196.215H482.124C482.814 196.215 483.477 195.941 483.965 195.452C484.453 194.964 484.728 194.302 484.728 193.611C484.728 192.921 484.453 192.259 483.965 191.771C483.477 191.282 482.814 191.008 482.124 191.008H479.524V185.153C479.522 184.636 479.316 184.14 478.951 183.774C478.586 183.408 478.09 183.201 477.573 183.199H471.717V180.599C471.717 179.909 471.443 179.248 470.955 178.761C470.468 178.273 469.807 177.999 469.117 177.999C468.427 177.999 467.766 178.273 467.279 178.761C466.791 179.248 466.517 179.909 466.517 180.599V183.199H460.66C460.144 183.201 459.65 183.408 459.287 183.775C458.923 184.141 458.72 184.636 458.721 185.152V189.446H460C461.105 189.446 462.164 189.885 462.945 190.666C463.726 191.447 464.165 192.506 464.165 193.611C464.165 194.716 463.726 195.775 462.945 196.556C462.164 197.337 461.105 197.776 460 197.776H458.7V202.069C458.702 202.586 458.908 203.082 459.274 203.448C459.639 203.814 460.135 204.021 460.652 204.023H464.952V202.723C464.969 201.63 465.415 200.587 466.194 199.82C466.973 199.053 468.023 198.623 469.116 198.623C470.21 198.623 471.26 199.053 472.039 199.82C472.818 200.587 473.264 201.63 473.281 202.723V204.023H477.575L477.573 204.021Z" fill="#E5E5E5" stroke="#E9F7FF"/>
<path d="M561.454 324.334H549.28C549.113 324.334 548.952 324.267 548.834 324.149C548.715 324.03 548.649 323.869 548.649 323.702V302.062C548.649 301.979 548.665 301.897 548.697 301.82C548.728 301.743 548.775 301.674 548.833 301.615C548.892 301.556 548.962 301.509 549.038 301.477C549.115 301.446 549.197 301.429 549.28 301.429H554.691C554.854 301.435 555.009 301.505 555.122 301.623C555.236 301.741 555.299 301.898 555.299 302.061C555.299 302.225 555.236 302.382 555.122 302.5C555.009 302.618 554.854 302.688 554.691 302.694H549.912V323.07H561.454C561.622 323.07 561.782 323.137 561.901 323.255C562.019 323.374 562.086 323.534 562.086 323.702C562.086 323.87 562.019 324.03 561.901 324.149C561.782 324.267 561.622 324.334 561.454 324.334V324.334ZM576.331 312.834C576.163 312.834 576.003 312.767 575.884 312.648C575.766 312.53 575.699 312.369 575.699 312.201V302.691H570.921C570.753 302.691 570.593 302.624 570.474 302.506C570.356 302.387 570.289 302.227 570.289 302.059C570.289 301.891 570.356 301.731 570.474 301.612C570.593 301.494 570.753 301.427 570.921 301.427H576.331C576.414 301.427 576.496 301.443 576.573 301.475C576.65 301.507 576.72 301.553 576.779 301.612C576.837 301.67 576.884 301.74 576.916 301.817C576.948 301.894 576.964 301.976 576.964 302.059V312.2C576.965 312.284 576.949 312.366 576.917 312.444C576.886 312.521 576.839 312.591 576.78 312.65C576.721 312.71 576.651 312.757 576.574 312.789C576.497 312.821 576.414 312.837 576.331 312.837V312.834Z" fill="#E9F7FF"/>
<path d="M576.331 309.456H549.28C549.117 309.45 548.963 309.38 548.849 309.262C548.736 309.145 548.673 308.988 548.673 308.824C548.673 308.661 548.736 308.504 548.849 308.387C548.963 308.269 549.117 308.199 549.28 308.193H576.331C576.416 308.19 576.501 308.203 576.58 308.234C576.66 308.264 576.733 308.31 576.794 308.369C576.855 308.428 576.904 308.499 576.938 308.577C576.971 308.655 576.988 308.739 576.988 308.824C576.988 308.91 576.971 308.994 576.938 309.072C576.904 309.15 576.855 309.221 576.794 309.28C576.733 309.339 576.66 309.385 576.58 309.415C576.501 309.446 576.416 309.459 576.331 309.456V309.456ZM570.921 305.399H566.863C566.695 305.399 566.535 305.332 566.416 305.214C566.298 305.095 566.231 304.935 566.231 304.767V302.694H559.381V304.767C559.381 304.85 559.365 304.932 559.333 305.009C559.301 305.086 559.254 305.156 559.196 305.214C559.137 305.273 559.067 305.319 558.99 305.351C558.913 305.383 558.831 305.399 558.748 305.399H554.691C554.523 305.399 554.363 305.332 554.244 305.214C554.126 305.095 554.059 304.935 554.059 304.767V299.357C554.059 299.274 554.075 299.192 554.107 299.115C554.139 299.038 554.185 298.968 554.244 298.909C554.302 298.851 554.372 298.804 554.449 298.772C554.526 298.74 554.608 298.724 554.691 298.724H558.748C558.831 298.724 558.914 298.74 558.99 298.772C559.067 298.804 559.137 298.85 559.196 298.909C559.255 298.968 559.301 299.038 559.333 299.115C559.365 299.191 559.381 299.274 559.381 299.357V301.429H566.231V299.357C566.231 299.274 566.247 299.192 566.279 299.115C566.311 299.038 566.357 298.968 566.416 298.909C566.474 298.851 566.544 298.804 566.621 298.772C566.698 298.74 566.78 298.724 566.863 298.724H570.921C571.004 298.724 571.086 298.74 571.163 298.772C571.24 298.804 571.31 298.851 571.368 298.909C571.427 298.968 571.473 299.038 571.505 299.115C571.537 299.192 571.553 299.274 571.553 299.357V304.767C571.553 304.85 571.537 304.932 571.505 305.009C571.473 305.086 571.427 305.156 571.368 305.215C571.31 305.273 571.24 305.32 571.163 305.352C571.086 305.384 571.004 305.4 570.921 305.4V305.399ZM567.495 304.135H570.289V299.988H567.5L567.495 304.135ZM555.323 304.135H558.116V299.988H555.323V304.135Z" fill="#E9F7FF"/>
<path d="M572.274 331.1C570.544 331.1 568.853 330.587 567.415 329.625C565.976 328.664 564.855 327.298 564.194 325.7C563.532 324.101 563.359 322.343 563.696 320.646C564.034 318.949 564.867 317.391 566.09 316.168C567.314 314.944 568.872 314.111 570.569 313.774C572.266 313.437 574.024 313.61 575.623 314.272C577.221 314.934 578.587 316.055 579.548 317.494C580.509 318.932 581.022 320.623 581.022 322.353C581.02 324.672 580.097 326.896 578.457 328.536C576.817 330.176 574.593 331.098 572.274 331.1ZM572.274 314.87C570.794 314.87 569.347 315.309 568.117 316.131C566.886 316.953 565.927 318.122 565.361 319.489C564.794 320.857 564.646 322.361 564.935 323.813C565.223 325.264 565.936 326.598 566.983 327.644C568.029 328.691 569.363 329.403 570.814 329.692C572.266 329.981 573.77 329.833 575.138 329.266C576.505 328.7 577.674 327.741 578.496 326.51C579.318 325.28 579.757 323.833 579.757 322.353C579.755 320.369 578.967 318.466 577.564 317.062C576.161 315.659 574.258 314.869 572.274 314.867V314.87Z" fill="#E9F7FF"/>
<path d="M575.655 324.334H572.275C572.107 324.334 571.947 324.267 571.828 324.149C571.71 324.03 571.643 323.87 571.643 323.702V318.968C571.643 318.8 571.71 318.64 571.828 318.521C571.947 318.403 572.107 318.336 572.275 318.336C572.443 318.336 572.603 318.403 572.722 318.521C572.84 318.64 572.907 318.8 572.907 318.968V323.068H575.655C575.823 323.068 575.983 323.135 576.102 323.253C576.22 323.372 576.287 323.532 576.287 323.7C576.287 323.868 576.22 324.028 576.102 324.147C575.983 324.265 575.823 324.332 575.655 324.332V324.334Z" fill="#E9F7FF"/>
</svg>
