<svg width="568" height="747" viewBox="0 0 568 747" fill="none" xmlns="http://www.w3.org/2000/svg">
<path d="M385.731 259.394L386.287 245.532C386.287 245.532 389.999 241.855 389.999 239.47C389.999 237.085 385.731 223.438 383.866 222.792C382.001 222.147 371.977 226.899 371.797 229.966C371.618 233.032 376.998 244.312 377.93 245.137L376.442 259.86L385.731 259.394Z" fill="#FFD5BD"/>
<path d="M536.782 240.259L532.012 226.54C529.981 225.089 528.095 223.443 526.381 221.627C525.072 219.833 532.371 206.904 533.447 206.904C536.983 208.222 540.297 210.073 543.274 212.391C544.35 213.682 538.647 224.227 538.647 224.227L545.731 236.063L536.782 240.259Z" fill="#FFD5BD"/>
<path d="M509.031 238.764C515.612 239.41 547.236 272.395 547.236 272.395L533.933 235.441C533.744 234.916 534.022 234.337 534.551 234.156L543.599 231.065C544.038 230.915 544.508 231.063 544.75 231.458C548.06 236.853 570.571 274.392 565.151 288.84C559.305 304.424 507.102 268.701 507.102 268.701L509.031 238.764Z" fill="#FF3951"/>
<path d="M407.861 641.351L400.49 631.721L412.972 619.67L424.323 608.731L434.994 618.702L420.647 630.699L407.861 641.351Z" fill="#FFD5BD"/>
<path d="M400.06 628.762C401.154 627.991 410.282 641.674 410.282 641.674C410.282 641.674 408.256 656.02 412.38 665.148C416.505 674.276 408.489 673.577 401.818 664.861L385.355 643.342C380.621 637.083 388.852 636.886 400.06 628.762Z" fill="#14142B"/>
<path d="M410.139 644.328C410.139 644.328 416.254 642.356 416.971 645.655C417.778 649.457 410.139 644.328 410.139 644.328ZM410.139 644.328C410.139 644.328 416.308 648.919 414.676 650.999C412.201 654.12 410.139 644.328 410.139 644.328Z" stroke="#FF3951" stroke-width="0.538836" stroke-linecap="round" stroke-linejoin="round"/>
<path opacity="0.2" d="M420.648 630.699L412.973 619.67L424.324 608.731L434.995 618.702L420.648 630.699Z" fill="black"/>
<path d="M481.62 656.612H469.479L467.489 639.719L465.695 624.225L480.096 621.876L480.903 640.275L481.62 656.612Z" fill="#FFD5BD"/>
<path d="M466.877 655.841C466.877 654.496 483.34 655.554 483.34 655.554C483.34 655.554 493.454 665.83 503.264 668.107C513.073 670.385 507.603 676.339 496.593 676.339H469.478C461.677 676.339 466.555 669.703 466.877 655.841Z" fill="#14142B"/>
<path d="M485.367 657.276C485.367 657.276 487.519 651.214 490.568 652.649C494.154 654.317 485.367 657.276 485.367 657.276ZM485.367 657.276C485.367 657.276 492.774 655.16 493.419 657.706C494.406 661.58 485.367 657.276 485.367 657.276Z" stroke="#FF3951" stroke-width="0.538836" stroke-linecap="round" stroke-linejoin="round"/>
<path opacity="0.2" d="M480.903 640.652L467.489 640.06L465.695 624.386L480.096 621.965L480.903 640.652Z" fill="black"/>
<path d="M511.892 364.769C511.892 364.769 547.759 449.503 553.372 486.714C558.985 523.925 431.678 623.561 431.678 623.561L418.658 609.717C418.658 609.717 513.381 512.34 513.381 495.591C513.381 478.841 476.439 402.339 476.439 402.339C476.439 402.339 472.87 371.476 511.892 364.769Z" fill="#14142B"/>
<path opacity="0.2" d="M488.234 533.286L485.939 577.169C472.937 589.148 460.348 599.962 450.575 608.139C448.328 598.471 447.471 588.531 448.028 578.621C460.904 564.705 475.878 548.135 488.234 533.286Z" fill="black"/>
<path opacity="0.2" d="M493.401 439.191C484.686 419.465 476.437 402.303 476.437 402.303C476.19 398.779 476.535 395.239 477.459 391.83C478.696 390.992 480.076 390.384 481.53 390.037C481.53 390.037 492.128 406.768 493.401 439.191Z" fill="black"/>
<path d="M447.298 170.302C447.298 170.302 458.183 156.727 475.991 159.758C493.799 162.788 490.714 195.731 490.714 195.731C494.041 198.578 496.517 202.288 497.872 206.452C499.226 210.616 499.405 215.072 498.389 219.331C494.91 234.27 454.292 242.913 438.762 232.53C423.232 222.147 435.175 189.204 442.725 184.541C450.275 179.879 447.298 170.302 447.298 170.302Z" fill="#14142B"/>
<path d="M481.872 390.126L484.042 509.417V631.506H463.724C415.197 400.169 448.463 342.173 448.463 342.173H448.588C448.588 342.083 448.588 341.976 448.696 341.904C456.497 324.581 507.606 337.349 507.606 337.349C511.282 351.696 513.542 380.873 513.542 380.873L481.872 390.126Z" fill="#14142B"/>
<path d="M448.174 333.242V341.922L507.353 337.385V327.127L448.174 333.242Z" fill="#14142B"/>
<path d="M468.008 329.659L465.07 329.808L465.833 344.763L468.77 344.613L468.008 329.659Z" fill="#FF3951"/>
<path d="M493.678 329.202L480.746 330.36L481.625 340.166L494.556 339.008L493.678 329.202Z" fill="white"/>
<path d="M504.185 325.652L501.248 325.802L502.011 340.757L504.948 340.607L504.185 325.652Z" fill="#FF3951"/>
<path opacity="0.6" d="M468.008 329.659L465.07 329.808L465.833 344.763L468.77 344.613L468.008 329.659Z" fill="white"/>
<path opacity="0.6" d="M504.185 325.652L501.248 325.802L502.011 340.757L504.948 340.607L504.185 325.652Z" fill="white"/>
<path d="M507.603 328.167L448.424 333.278C447.025 311.274 445.626 297.089 432.589 257.959C431.459 254.534 430.24 250.894 428.895 247.056C436.931 244.49 445.142 242.506 453.463 241.12C462.245 239.56 471.126 238.626 480.04 238.323C491.553 238.323 504.787 239.524 504.787 239.524C504.787 239.524 506.67 239.972 507.854 252.185C508.912 263.554 509.97 286.473 507.603 328.167Z" fill="#FFC226"/>
<path d="M475.075 251.324C460.477 249.531 456.102 243.218 456.102 243.218C465.355 234.485 457.662 219.349 457.662 219.349L475.218 222.631C474.806 225.079 474.578 227.555 474.537 230.038C474.393 240.69 479.217 240.797 479.217 240.797C482.374 246.554 475.075 251.324 475.075 251.324Z" fill="#FFD5BD"/>
<path opacity="0.2" d="M475.289 222.631C474.877 225.079 474.649 227.555 474.607 230.037C466.143 228.065 457.732 219.278 457.732 219.278L475.289 222.631Z" fill="black"/>
<path d="M459.633 174.014C474.517 170.428 481.152 177.332 485.905 192.396C491.805 211.226 490.782 225.841 471.217 226.164C444.587 226.594 434.939 179.879 459.633 174.014Z" fill="#FFD5BD"/>
<path d="M476.098 193.938C477.816 195.879 479.761 197.606 481.89 199.085C481.596 199.811 481.104 200.44 480.47 200.9C479.835 201.359 479.085 201.632 478.303 201.685L476.098 193.938Z" fill="#FF97B8"/>
<path d="M466.697 194.781C467.02 196 466.697 197.148 465.818 197.363C464.94 197.578 464.025 196.771 463.774 195.57C463.523 194.368 463.774 193.203 464.653 192.988C465.531 192.772 466.392 193.561 466.697 194.781Z" fill="#14142B"/>
<path d="M464.314 193.114L466.7 191.32C466.7 191.32 465.983 193.939 464.314 193.114Z" fill="#14142B"/>
<path d="M481.747 190.585C482.07 191.786 481.657 192.952 480.85 193.167C480.043 193.382 479.057 192.557 478.806 191.374C478.555 190.19 478.895 189.007 479.702 188.791C480.509 188.576 481.424 189.365 481.747 190.585Z" fill="#14142B"/>
<path d="M479.379 188.899L481.747 187.106C481.747 187.106 481.011 189.742 479.379 188.899Z" fill="#14142B"/>
<path d="M464.117 184.541C462.907 184.677 461.744 185.089 460.718 185.745C459.692 186.401 458.831 187.284 458.199 188.325" stroke="#14142B" stroke-width="0.808253" stroke-linecap="round" stroke-linejoin="round"/>
<path d="M474.787 181.385C475.744 180.889 476.801 180.616 477.878 180.585C478.955 180.554 480.026 180.766 481.01 181.206" stroke="#14142B" stroke-width="0.808253" stroke-linecap="round" stroke-linejoin="round"/>
<path d="M477.583 207.962C477.28 209.806 477.106 211.67 477.063 213.539L476.095 213.682C471.665 214.274 469.406 213.073 468.258 211.584C467.713 210.835 467.35 209.97 467.2 209.056C467.126 208.538 467.126 208.013 467.2 207.495C470.107 208.354 473.166 208.574 476.166 208.141C476.991 208.069 477.583 207.962 477.583 207.962Z" fill="#14142B"/>
<path d="M476.059 208.141L475.88 209.791C471.701 210.329 468.706 210.15 467.2 209.056C467.126 208.538 467.126 208.013 467.2 207.495C470.073 208.338 473.094 208.558 476.059 208.141Z" fill="white"/>
<path d="M476.098 213.664C471.669 214.256 469.409 213.055 468.262 211.566C469.94 211.371 471.64 211.475 473.283 211.871C474.388 212.155 475.374 212.783 476.098 213.664Z" fill="#FF97B8"/>
<path d="M449.323 202.905C449.323 202.905 453.376 189.042 450.094 179.861C450.094 179.861 476.707 160.834 485.261 190.405C485.261 190.405 481.853 163.147 456.137 168.617C430.421 174.086 439.406 211.477 455.241 219.493C455.241 219.529 446.83 211.602 449.323 202.905Z" fill="#14142B"/>
<path d="M452.496 205.505C451.942 203.822 450.744 202.427 449.165 201.624C447.586 200.821 445.753 200.675 444.067 201.219C439.566 202.797 439.62 212.786 451.617 212.355C453.339 212.284 453.895 210.454 452.496 205.505Z" fill="#FFD5BD"/>
<path d="M507.837 252.095C485.6 263.088 451.528 260.524 432.518 257.87C431.389 254.444 430.169 250.804 428.824 246.966C436.861 244.401 445.071 242.417 453.393 241.03C462.174 239.471 471.056 238.536 479.969 238.233C491.483 238.233 504.717 239.434 504.717 239.434C504.717 239.434 506.654 239.883 507.837 252.095Z" fill="#FFD5BD"/>
<path d="M439.865 241.651C440.708 241.256 441.703 241.489 442.246 242.246C445.672 247.022 457.32 264.604 457.733 283.424C458.187 304.136 445.256 395.059 443.656 406.218C443.57 406.816 442.977 407.196 442.396 407.031L426.605 402.565C426.113 402.426 425.804 401.942 425.885 401.437C427.3 392.617 438.323 319.262 425.74 248.257L439.865 241.651Z" fill="#FF3951"/>
<path d="M490.303 238.09C490.303 238.09 497.204 259.878 496.343 275.049C495.482 290.221 511.891 364.912 511.891 364.912L516.661 376.389L511.945 330.068C511.945 330.068 514.796 262.084 509.04 238.771L490.303 238.09Z" fill="#FF3951"/>
<path d="M459.635 174.014C459.635 174.014 465.14 192.754 448.372 201.237C428.108 211.495 430.045 233.66 449.807 236.475C449.807 236.475 429.848 234.467 425.974 221.429C422.1 208.392 433.147 188.325 433.147 188.325C433.147 188.325 427.086 177.296 443.459 168.598C452.641 163.757 459.635 174.014 459.635 174.014Z" fill="#14142B"/>
<path d="M461.105 628.583L486.499 624.853L484.383 635.003L463.419 637.818L461.105 628.583Z" fill="#FF3951"/>
<path d="M418.658 605.001L435.694 623.526L427.176 628.403L414.031 614.451L418.658 605.001Z" fill="#FF3951"/>
<path d="M519.586 198.17C516.519 192.683 510.619 190.172 506.28 192.575C501.94 194.978 501.025 201.344 504.074 206.832C507.123 212.32 513.04 214.812 517.38 212.427C521.72 210.042 522.653 203.64 519.586 198.17Z" fill="#FF8139"/>
<path d="M554.394 178.946L543.849 159.56C543.849 159.56 536.497 175.359 525.916 181.277L531.296 190.889L532.139 192.396L537.519 202.008C548.099 196.09 565.405 198.081 565.405 198.081L554.394 178.946Z" fill="#FF8139"/>
<path d="M518.865 209.522C518.865 209.522 526.487 220.551 533.606 224.586C533.852 224.719 534.137 224.76 534.41 224.701C534.684 224.642 534.927 224.486 535.095 224.263L541.174 216.749C541.278 216.607 541.35 216.443 541.384 216.27C541.418 216.097 541.413 215.918 541.371 215.747C541.328 215.576 541.248 215.416 541.136 215.279C541.025 215.143 540.885 215.032 540.726 214.956C537.731 213.629 530.737 210.221 526.702 205.451C521.466 199.21 518.865 209.522 518.865 209.522Z" fill="#FF8139"/>
<path d="M565.277 198.655C562.856 199.999 555.97 192.306 549.908 181.457C543.847 170.607 540.942 160.726 543.327 159.363C545.712 158 552.634 165.711 558.696 176.543C564.757 187.375 567.716 197.292 565.277 198.655Z" fill="white"/>
<path d="M564.29 195.444C562.496 196.467 557.117 190.405 552.041 181.708C551.755 181.223 551.468 180.703 551.181 180.183C550.894 179.663 550.499 178.964 550.176 178.39C545.532 169.603 543.236 162.035 545.03 161.031C546.823 160.027 552.866 166.787 558.175 176.292C563.483 185.796 566.227 194.368 564.29 195.444Z" fill="#4E4B66"/>
<path d="M516.322 214.436C516.322 214.436 513.721 212.642 509.005 204.142C503.894 194.996 504.038 192.45 504.038 192.45L527.655 179.233C527.655 179.233 527.942 182.551 532.73 191.123C537.519 199.695 539.904 201.219 539.904 201.219L516.322 214.436Z" fill="#FFC226"/>
<path d="M552.045 181.708C551.758 181.224 551.471 180.703 551.184 180.183C550.897 179.663 550.502 178.964 550.18 178.39L552.619 177.619C552.879 177.538 553.159 177.556 553.407 177.668C553.655 177.781 553.853 177.98 553.964 178.229L554.161 178.587C554.316 178.809 554.383 179.08 554.35 179.348C554.317 179.616 554.186 179.863 553.981 180.04L552.045 181.708Z" fill="white"/>
<path opacity="0.2" d="M552.045 181.708C551.758 181.224 551.471 180.703 551.184 180.183C550.897 179.663 550.502 178.964 550.18 178.39L552.619 177.619C552.879 177.538 553.159 177.556 553.407 177.668C553.655 177.781 553.853 177.98 553.964 178.229L554.161 178.587C554.316 178.809 554.383 179.08 554.35 179.348C554.317 179.616 554.186 179.863 553.981 180.04L552.045 181.708Z" fill="black"/>
<path d="M425.74 248.24C417.508 251.826 388.08 304.37 388.08 304.37L387.506 254.695L374.218 252.902C374.218 252.902 366.13 323.361 383.453 327.396C400.777 331.431 432.554 281.201 432.554 281.201L425.74 248.24Z" fill="#FF3951"/>
<path d="M457.732 171.791C457.732 171.791 465.354 177.296 459.687 191.661" stroke="#14142B" stroke-width="0.557662" stroke-linecap="round" stroke-linejoin="round"/>
<path d="M489.08 194.566C489.08 194.566 510.044 208.141 496.451 225.626" stroke="#14142B" stroke-width="0.557662" stroke-linecap="round" stroke-linejoin="round"/>
<path d="M436.774 121.968C365.392 132.022 270.306 160.355 188.643 195.892C135.506 219.012 42.8173 265.041 19.1309 313.515C12.0396 328.086 11.9749 341.588 18.969 353.715C25.9632 365.841 42.202 374.277 65.095 380.024V377.369C43.2382 371.848 27.6632 363.866 21.1385 352.517C14.6139 341.168 14.6624 328.345 21.3814 314.583C38.4297 279.677 99.7745 237.226 189.76 198.111C271.1 162.589 365.942 134.402 437.114 124.38C437.434 124.335 437.723 124.165 437.917 123.907C438.112 123.649 438.196 123.324 438.151 123.004C438.105 122.684 437.935 122.395 437.677 122.201C437.419 122.007 437.094 121.923 436.774 121.968Z" fill="white"/>
<g filter="url(#filter0_d)">
<path d="M18.2325 313.076L18.2318 313.077C11.0221 327.891 10.9142 341.751 18.1028 354.215C25.3158 366.721 41.9215 375.237 64.8515 380.994L66.095 381.306V380.024V377.369V376.59L65.3399 376.399C43.5095 370.885 28.3091 362.983 22.0055 352.018C15.6749 341.007 15.6795 328.541 22.28 315.022C30.6888 297.805 50.1118 278.586 78.7882 258.748C107.435 238.93 145.206 218.568 190.159 199.028L190.16 199.027C271.434 163.534 366.189 135.377 437.254 125.37L437.114 124.38L437.254 125.37C437.836 125.288 438.362 124.978 438.716 124.508C439.07 124.038 439.223 123.447 439.141 122.864C439.059 122.282 438.749 121.756 438.279 121.402C437.809 121.048 437.217 120.896 436.635 120.978C365.145 131.047 269.971 159.41 188.244 194.976C161.655 206.544 125.148 223.854 92.3136 244.347C59.5294 264.809 30.2109 288.562 18.2325 313.076Z" fill="#FF3951" fill-opacity="0.01" stroke="#FF3951" stroke-opacity="0.01" stroke-width="2"/>
<path d="M18.9064 355.03C19.2446 355.227 19.6294 355.331 20.0209 355.33C20.4431 355.332 20.8568 355.212 21.2126 354.986C21.6949 354.694 22.0483 354.23 22.2004 353.687C22.3544 353.137 22.2898 352.548 22.0201 352.045L22.0129 352.031L22.0053 352.018C15.643 340.959 15.679 328.542 22.28 315.022L22.2806 315.021C30.6569 297.805 50.0632 278.586 78.7216 258.748C107.35 238.93 145.101 218.568 190.013 199.028L189.677 198.256L190.013 199.027C271.435 163.599 366.124 135.377 437.254 125.37C437.836 125.288 438.362 124.978 438.716 124.508C439.07 124.038 439.223 123.447 439.141 122.864C439.059 122.282 438.749 121.756 438.279 121.402C437.809 121.048 437.217 120.896 436.635 120.978C365.145 131.047 269.971 159.41 188.244 194.976C161.655 206.544 125.148 223.854 92.3136 244.347C59.5294 264.809 30.2109 288.562 18.2325 313.076H18.2321C11.0229 327.857 10.9143 341.747 18.0997 354.209C18.291 354.549 18.5694 354.833 18.9064 355.03Z" fill="#FF3951" fill-opacity="0.01" stroke="#FF3951" stroke-opacity="0.01" stroke-width="2"/>
</g>
<path d="M18.2325 313.076L18.2318 313.077C11.0221 327.891 10.9142 341.751 18.1028 354.215C25.3158 366.721 41.9215 375.237 64.8515 380.994L66.095 381.306V380.024V377.369V376.59L65.3399 376.399C43.5095 370.885 28.3091 362.983 22.0055 352.018C15.6749 341.007 15.6795 328.541 22.28 315.022C30.6888 297.805 50.1118 278.586 78.7882 258.748C107.435 238.93 145.206 218.568 190.159 199.028L190.16 199.027C271.434 163.534 366.189 135.377 437.254 125.37L437.114 124.38L437.254 125.37C437.836 125.288 438.362 124.978 438.716 124.508C439.07 124.038 439.223 123.447 439.141 122.864C439.059 122.282 438.749 121.756 438.279 121.402C437.809 121.048 437.217 120.896 436.635 120.978C365.145 131.047 269.971 159.41 188.244 194.976C161.655 206.544 125.148 223.854 92.3136 244.347C59.5294 264.809 30.2109 288.562 18.2325 313.076Z" fill="#FF3951" stroke="#FF3951" stroke-width="2"/>
<path d="M18.9064 355.03C19.2446 355.227 19.6294 355.331 20.0209 355.33C20.4431 355.332 20.8568 355.212 21.2126 354.986C21.6949 354.694 22.0483 354.23 22.2004 353.687C22.3544 353.137 22.2898 352.548 22.0201 352.045L22.0129 352.031L22.0053 352.018C15.643 340.959 15.679 328.542 22.28 315.022L22.2806 315.021C30.6569 297.805 50.0632 278.586 78.7216 258.748C107.35 238.93 145.101 218.568 190.013 199.028L189.677 198.256L190.013 199.027C271.435 163.599 366.124 135.377 437.254 125.37C437.836 125.288 438.362 124.978 438.716 124.508C439.07 124.038 439.223 123.447 439.141 122.864C439.059 122.282 438.749 121.756 438.279 121.402C437.809 121.048 437.217 120.896 436.635 120.978C365.145 131.047 269.971 159.41 188.244 194.976C161.655 206.544 125.148 223.854 92.3136 244.347C59.5294 264.809 30.2109 288.562 18.2325 313.076H18.2321C11.0229 327.857 10.9143 341.747 18.0997 354.209C18.291 354.549 18.5694 354.833 18.9064 355.03Z" fill="#FF3951" stroke="#FF3951" stroke-width="2"/>
<g filter="url(#filter1_d)">
<path d="M467.416 134.719L551.993 89.339L478.34 113.63L467.416 134.719Z" fill="#FF3951" fill-opacity="0.01"/>
<path d="M450.07 93.6538C449.013 93.7058 448.625 95.0692 449.496 95.6699L462.945 104.944L467.421 134.719L478.345 113.63L500.271 124.658C503.752 126.409 507.935 125.969 510.975 123.531L551.987 90.6523C552.824 89.9813 552.312 88.6313 551.241 88.6839L450.07 93.6538Z" fill="#FF3951" fill-opacity="0.01"/>
</g>
<path d="M467.416 134.719L551.993 89.339L478.34 113.63L467.416 134.719Z" fill="#FF3951"/>
<path opacity="0.3" d="M467.416 134.719L552.031 89.3577L478.34 113.63L467.416 134.719Z" fill="#14142B"/>
<path d="M450.07 93.6538C449.013 93.7058 448.625 95.0692 449.496 95.6699L462.945 104.944L467.421 134.719L478.345 113.63L500.271 124.658C503.752 126.409 507.935 125.969 510.975 123.531L551.987 90.6523C552.824 89.9813 552.312 88.6313 551.241 88.6839L450.07 93.6538Z" fill="#FF3951"/>
<path opacity="0.2" d="M462.943 104.944L552.042 89.3549L478.344 113.63L467.42 134.719L462.943 104.944Z" fill="#14142B"/>
<g filter="url(#filter2_dd)">
<path d="M338.572 48H104.147C85.6679 48 70.6875 62.9804 70.6875 81.4597V636.134C70.6875 654.614 85.6679 669.594 104.147 669.594H338.572C357.051 669.594 372.031 654.614 372.031 636.134V81.4597C372.031 62.9804 357.051 48 338.572 48Z" fill="white"/>
</g>
<path d="M338.572 48H104.147C85.6679 48 70.6875 62.9804 70.6875 81.4597V636.134C70.6875 654.614 85.6679 669.594 104.147 669.594H338.572C357.051 669.594 372.031 654.614 372.031 636.134V81.4597C372.031 62.9804 357.051 48 338.572 48Z" fill="white"/>
<path d="M358.036 621.709V96.1587C358.036 77.8827 343.22 63.067 324.944 63.067H117.777C99.5012 63.067 84.6855 77.8827 84.6855 96.1588V621.709C84.6855 639.985 99.5012 654.8 117.777 654.8H324.944C343.22 654.8 358.036 639.985 358.036 621.709Z" fill="#F4F6FC"/>
<g filter="url(#filter3_d)">
<path fill-rule="evenodd" clip-rule="evenodd" d="M110.391 97.4075H128.274C134.786 97.4075 138.462 101.101 138.481 107.613V125.498C138.481 132.008 134.786 135.703 128.274 135.703H110.391C103.879 135.703 100.186 132.008 100.186 125.498V107.613C100.186 101.101 103.879 97.4075 110.391 97.4075ZM119.427 127.776C120.253 127.776 120.94 127.163 121.017 126.34V106.828C121.093 106.235 120.808 105.639 120.291 105.316C119.753 104.99 119.102 104.99 118.587 105.316C118.068 105.639 117.783 106.235 117.838 106.828V126.34C117.936 127.163 118.623 127.776 119.427 127.776ZM128.237 127.776C129.041 127.776 129.729 127.163 129.827 126.34V120.06C129.882 119.445 129.597 118.872 129.078 118.547C128.563 118.221 127.912 118.221 127.376 118.547C126.857 118.872 126.571 119.445 126.648 120.06V126.34C126.725 127.163 127.412 127.776 128.237 127.776ZM112.093 126.34C112.017 127.163 111.329 127.776 110.504 127.776C109.681 127.776 108.991 127.163 108.917 126.34V113.109C108.859 112.513 109.145 111.922 109.663 111.596C110.179 111.271 110.831 111.271 111.348 111.596C111.864 111.922 112.153 112.513 112.093 113.109V126.34Z" fill="#FF3951" fill-opacity="0.01"/>
</g>
<path d="M134.608 101.512H103.559V130.173H134.608V101.512Z" fill="white"/>
<path fill-rule="evenodd" clip-rule="evenodd" d="M110.391 97H128.274C134.786 97 138.462 100.693 138.481 107.205V125.09C138.481 131.601 134.786 135.296 128.274 135.296H110.391C103.879 135.296 100.186 131.601 100.186 125.09V107.205C100.186 100.693 103.879 97 110.391 97ZM119.427 127.368C120.253 127.368 120.94 126.755 121.017 125.932V106.421C121.093 105.828 120.808 105.232 120.291 104.909C119.753 104.583 119.102 104.583 118.587 104.909C118.068 105.232 117.783 105.828 117.838 106.421V125.932C117.936 126.755 118.623 127.368 119.427 127.368ZM128.237 127.368C129.041 127.368 129.729 126.755 129.827 125.932V119.652C129.882 119.037 129.597 118.464 129.078 118.139C128.563 117.813 127.912 117.813 127.376 118.139C126.857 118.464 126.571 119.037 126.648 119.652V125.932C126.725 126.755 127.412 127.368 128.237 127.368ZM112.093 125.932C112.017 126.755 111.329 127.368 110.504 127.368C109.681 127.368 108.991 126.755 108.917 125.932V112.701C108.859 112.106 109.145 111.514 109.663 111.188C110.179 110.863 110.831 110.863 111.348 111.188C111.864 111.514 112.153 112.106 112.093 112.701V125.932Z" fill="#FF3951"/>
<path d="M113.024 113.766C113.024 112.426 111.938 111.339 110.597 111.339C109.257 111.339 108.17 112.426 108.17 113.766V125.711C108.17 127.051 109.257 128.138 110.597 128.138C111.938 128.138 113.024 127.051 113.024 125.711V113.766Z" fill="white"/>
<path d="M121.762 107.4C121.762 106.06 120.676 104.973 119.335 104.973C117.995 104.973 116.908 106.06 116.908 107.4V125.711C116.908 127.051 117.995 128.138 119.335 128.138C120.676 128.138 121.762 127.051 121.762 125.711V107.4Z" fill="white"/>
<path d="M130.499 119.012C130.499 117.672 129.413 116.585 128.072 116.585C126.732 116.585 125.645 117.672 125.645 119.012V125.711C125.645 127.051 126.732 128.138 128.072 128.138C129.413 128.138 130.499 127.051 130.499 125.711V119.012Z" fill="white"/>
<path opacity="0.74" d="M293.137 312.688H149.586C145.168 312.688 141.586 316.27 141.586 320.688C141.586 325.106 145.168 328.688 149.586 328.688H293.137C297.555 328.688 301.137 325.106 301.137 320.688C301.137 316.27 297.555 312.688 293.137 312.688Z" fill="#A0A3BD"/>
<path opacity="0.74" d="M196.359 550.317H119.191C114.773 550.317 111.191 553.899 111.191 558.317C111.191 562.735 114.773 566.317 119.191 566.317H196.359C200.777 566.317 204.359 562.735 204.359 558.317C204.359 553.899 200.777 550.317 196.359 550.317Z" fill="#A0A3BD"/>
<path opacity="0.74" d="M318.31 550.317H251.582C247.164 550.317 243.582 553.899 243.582 558.317C243.582 562.735 247.164 566.317 251.582 566.317H318.31C322.729 566.317 326.31 562.735 326.31 558.317C326.31 553.899 322.729 550.317 318.31 550.317Z" fill="#A0A3BD"/>
<path opacity="0.3" d="M330.018 108.555H260.248C255.83 108.555 252.248 112.137 252.248 116.555C252.248 120.973 255.83 124.555 260.248 124.555H330.018C334.436 124.555 338.018 120.973 338.018 116.555C338.018 112.137 334.436 108.555 330.018 108.555Z" fill="#A0A3BD"/>
<path opacity="0.9" d="M330.017 336.688H112.703C108.285 336.688 104.703 340.27 104.703 344.688C104.703 349.106 108.285 352.688 112.703 352.688H330.017C334.435 352.688 338.017 349.106 338.017 344.688C338.017 340.27 334.435 336.688 330.017 336.688Z" fill="#D9DBE9"/>
<g filter="url(#filter4_d)">
<path d="M256.85 366.688H185.871C177.035 366.688 169.871 373.851 169.871 382.688C169.871 391.525 177.035 398.688 185.871 398.688H256.85C265.687 398.688 272.85 391.525 272.85 382.688C272.85 373.851 265.687 366.688 256.85 366.688Z" fill="#FF3951" fill-opacity="0.01"/>
</g>
<path d="M256.979 366.688H186C177.163 366.688 170 373.851 170 382.688C170 391.525 177.163 398.688 186 398.688H256.979C265.816 398.688 272.979 391.525 272.979 382.688C272.979 373.851 265.816 366.688 256.979 366.688Z" fill="#FF3951"/>
<g filter="url(#filter5_d)">
<path d="M256.361 586.317H186.361C177.524 586.317 170.361 593.48 170.361 602.317C170.361 611.153 177.524 618.317 186.361 618.317H256.361C265.197 618.317 272.361 611.153 272.361 602.317C272.361 593.48 265.197 586.317 256.361 586.317Z" fill="#FF3951" fill-opacity="0.01"/>
</g>
<path d="M256 586.317H186C177.163 586.317 170 593.48 170 602.317C170 611.153 177.163 618.317 186 618.317H256C264.837 618.317 272 611.153 272 602.317C272 593.48 264.837 586.317 256 586.317Z" fill="#FF3951"/>
<path opacity="0.18" d="M327.536 145.188H115.186C106.902 145.188 100.186 151.904 100.186 160.188V280.883C100.186 289.167 106.902 295.883 115.186 295.883H327.536C335.82 295.883 342.536 289.167 342.536 280.883V160.188C342.536 151.904 335.82 145.188 327.536 145.188Z" fill="#A0A3BD"/>
<path opacity="0.19" d="M200.366 429.387H115.186C106.902 429.387 100.186 436.103 100.186 444.387V527.317C100.186 535.601 106.902 542.317 115.186 542.317H200.366C208.65 542.317 215.366 535.601 215.366 527.317V444.387C215.366 436.103 208.65 429.387 200.366 429.387Z" fill="#A0A3BD"/>
<path opacity="0.19" d="M327.535 429.387H242.355C234.071 429.387 227.355 436.103 227.355 444.387V527.317C227.355 535.601 234.071 542.317 242.355 542.317H327.535C335.819 542.317 342.535 535.601 342.535 527.317V444.387C342.535 436.103 335.819 429.387 327.535 429.387Z" fill="#A0A3BD"/>
<path d="M70.0762 260.564H68.2757C67.9401 260.564 67.668 260.836 67.668 261.172V302.972C67.668 303.308 67.9401 303.58 68.2757 303.58H70.0762C70.4119 303.58 70.684 303.308 70.684 302.972V261.172C70.684 260.836 70.4119 260.564 70.0762 260.564Z" fill="white"/>
<path d="M70.0762 205.726H68.2757C67.9401 205.726 67.668 205.998 67.668 206.334V248.386C67.668 248.721 67.9401 248.994 68.2757 248.994H70.0762C70.4119 248.994 70.684 248.721 70.684 248.386V206.334C70.684 205.998 70.4119 205.726 70.0762 205.726Z" fill="white"/>
<path d="M70.0762 166.986H68.2757C67.9401 166.986 67.668 167.258 67.668 167.594V185.496C67.668 185.832 67.9401 186.104 68.2757 186.104H70.0762C70.4119 186.104 70.684 185.832 70.684 185.496V167.594C70.684 167.258 70.4119 166.986 70.0762 166.986Z" fill="white"/>
<path d="M374.441 221.322H372.641C372.305 221.322 372.033 221.594 372.033 221.93V287.88C372.033 288.215 372.305 288.487 372.641 288.487H374.441C374.777 288.487 375.049 288.215 375.049 287.88V221.93C375.049 221.594 374.777 221.322 374.441 221.322Z" fill="white"/>
<path fill-rule="evenodd" clip-rule="evenodd" d="M297.62 63.0672C296.544 63.1869 296.006 63.8495 296.006 65.5328C296.006 79.6686 285.211 83.8418 279.813 84.1614H163.859C146.984 84.1614 147.193 70.7187 147.25 67.089C147.252 66.9112 147.255 66.7565 147.255 66.6286C147.255 63.8932 146.434 63.0697 144.246 63.0672H297.62ZM297.62 63.0672C297.875 63.0389 298.16 63.041 298.476 63.0672H297.62Z" fill="white"/>
<defs>
<filter id="filter0_d" x="0.767578" y="111.956" width="450.395" height="284.632" filterUnits="userSpaceOnUse" color-interpolation-filters="sRGB">
<feFlood flood-opacity="0" result="BackgroundImageFix"/>
<feColorMatrix in="SourceAlpha" type="matrix" values="0 0 0 0 0 0 0 0 0 0 0 0 0 0 0 0 0 0 127 0"/>
<feOffset dy="3"/>
<feGaussianBlur stdDeviation="5.5"/>
<feColorMatrix type="matrix" values="0 0 0 0 1 0 0 0 0 0.223529 0 0 0 0 0.317647 0 0 0 0.18 0"/>
<feBlend mode="normal" in2="BackgroundImageFix" result="effect1_dropShadow"/>
<feBlend mode="normal" in="SourceGraphic" in2="effect1_dropShadow" result="shape"/>
</filter>
<filter id="filter1_d" x="433.526" y="84.2565" width="134.369" height="77.0173" filterUnits="userSpaceOnUse" color-interpolation-filters="sRGB">
<feFlood flood-opacity="0" result="BackgroundImageFix"/>
<feColorMatrix in="SourceAlpha" type="matrix" values="0 0 0 0 0 0 0 0 0 0 0 0 0 0 0 0 0 0 127 0"/>
<feOffset dy="11.0645"/>
<feGaussianBlur stdDeviation="7.74518"/>
<feColorMatrix type="matrix" values="0 0 0 0 1 0 0 0 0 0.223529 0 0 0 0 0.317647 0 0 0 0.26 0"/>
<feBlend mode="normal" in2="BackgroundImageFix" result="effect1_dropShadow"/>
<feBlend mode="normal" in="SourceGraphic" in2="effect1_dropShadow" result="shape"/>
</filter>
<filter id="filter2_dd" x="8.2293" y="0.00180149" width="426.26" height="746.51" filterUnits="userSpaceOnUse" color-interpolation-filters="sRGB">
<feFlood flood-opacity="0" result="BackgroundImageFix"/>
<feColorMatrix in="SourceAlpha" type="matrix" values="0 0 0 0 0 0 0 0 0 0 0 0 0 0 0 0 0 0 127 0"/>
<feOffset dy="14.46"/>
<feGaussianBlur stdDeviation="31.2291"/>
<feColorMatrix type="matrix" values="0 0 0 0 0.0358494 0 0 0 0 0.0349653 0 0 0 0 0.0791667 0 0 0 0.05 0"/>
<feBlend mode="normal" in2="BackgroundImageFix" result="effect1_dropShadow"/>
<feColorMatrix in="SourceAlpha" type="matrix" values="0 0 0 0 0 0 0 0 0 0 0 0 0 0 0 0 0 0 127 0"/>
<feOffset dy="24"/>
<feGaussianBlur stdDeviation="22"/>
<feColorMatrix type="matrix" values="0 0 0 0 1 0 0 0 0 0.223529 0 0 0 0 0.317647 0 0 0 0.01 0"/>
<feBlend mode="normal" in2="effect1_dropShadow" result="effect2_dropShadow"/>
<feBlend mode="normal" in="SourceGraphic" in2="effect2_dropShadow" result="shape"/>
</filter>
<filter id="filter3_d" x="96.6647" y="94.8922" width="45.3378" height="45.3383" filterUnits="userSpaceOnUse" color-interpolation-filters="sRGB">
<feFlood flood-opacity="0" result="BackgroundImageFix"/>
<feColorMatrix in="SourceAlpha" type="matrix" values="0 0 0 0 0 0 0 0 0 0 0 0 0 0 0 0 0 0 127 0"/>
<feOffset dy="1.00611"/>
<feGaussianBlur stdDeviation="1.76069"/>
<feColorMatrix type="matrix" values="0 0 0 0 1 0 0 0 0 0.223529 0 0 0 0 0.317647 0 0 0 0.42 0"/>
<feBlend mode="normal" in2="BackgroundImageFix" result="effect1_dropShadow"/>
<feBlend mode="normal" in="SourceGraphic" in2="effect1_dropShadow" result="shape"/>
</filter>
<filter id="filter4_d" x="157.871" y="359.688" width="126.979" height="56" filterUnits="userSpaceOnUse" color-interpolation-filters="sRGB">
<feFlood flood-opacity="0" result="BackgroundImageFix"/>
<feColorMatrix in="SourceAlpha" type="matrix" values="0 0 0 0 0 0 0 0 0 0 0 0 0 0 0 0 0 0 127 0"/>
<feOffset dy="5"/>
<feGaussianBlur stdDeviation="6"/>
<feColorMatrix type="matrix" values="0 0 0 0 1 0 0 0 0 0.223529 0 0 0 0 0.317647 0 0 0 0.28 0"/>
<feBlend mode="normal" in2="BackgroundImageFix" result="effect1_dropShadow"/>
<feBlend mode="normal" in="SourceGraphic" in2="effect1_dropShadow" result="shape"/>
</filter>
<filter id="filter5_d" x="158.361" y="579.317" width="126" height="56" filterUnits="userSpaceOnUse" color-interpolation-filters="sRGB">
<feFlood flood-opacity="0" result="BackgroundImageFix"/>
<feColorMatrix in="SourceAlpha" type="matrix" values="0 0 0 0 0 0 0 0 0 0 0 0 0 0 0 0 0 0 127 0"/>
<feOffset dy="5"/>
<feGaussianBlur stdDeviation="6"/>
<feColorMatrix type="matrix" values="0 0 0 0 1 0 0 0 0 0.223529 0 0 0 0 0.317647 0 0 0 0.28 0"/>
<feBlend mode="normal" in2="BackgroundImageFix" result="effect1_dropShadow"/>
<feBlend mode="normal" in="SourceGraphic" in2="effect1_dropShadow" result="shape"/>
</filter>
</defs>
</svg>
