<svg width="612" height="620" viewBox="0 0 612 620" fill="none" xmlns="http://www.w3.org/2000/svg">
<g filter="url(#filter0_d)">
<path d="M178.098 28.919L103.897 42.0026C88.4898 44.7193 78.2023 59.4114 80.919 74.8184L94.1024 149.586C96.8191 164.993 111.511 175.28 126.918 172.563L201.119 159.48C216.526 156.763 226.814 142.071 224.097 126.664L210.914 51.8969C208.197 36.4899 193.505 26.2023 178.098 28.919Z" fill="white" fill-opacity="0.01"/>
</g>
<path d="M178.098 28.919L103.897 42.0026C88.4898 44.7193 78.2023 59.4114 80.919 74.8184L94.1024 149.586C96.8191 164.993 111.511 175.28 126.918 172.563L201.119 159.48C216.526 156.763 226.814 142.071 224.097 126.664L210.914 51.8969C208.197 36.4899 193.505 26.2023 178.098 28.919Z" fill="white"/>
<g filter="url(#filter1_d)">
<path d="M192.198 84.3837L160.686 121.526C158.519 124.08 154.842 124.728 151.933 123.07L109.618 98.9448L141.13 61.8022C143.296 59.2487 146.974 58.6003 149.883 60.2588L192.198 84.3837Z" fill="#C6283B" fill-opacity="0.01"/>
<path d="M149.883 60.2596C148.429 59.4303 146.782 59.1778 145.229 59.4518L156.589 123.878C158.142 123.604 159.604 122.804 160.687 121.527L192.199 84.3845L149.883 60.2596Z" fill="#C6283B" fill-opacity="0.01"/>
<g filter="url(#filter2_d)">
<path d="M186.172 93.5989L181.305 65.9963C180.406 60.8988 177.407 58.7989 172.31 59.6977L119.862 68.9457C114.764 69.8445 112.664 72.8435 113.563 77.941L118.43 105.544L152.54 125.076C155.284 126.648 158.759 126.035 160.799 123.62L186.172 93.5989Z" fill="white" fill-opacity="0.01"/>
<g filter="url(#filter3_d)">
<path d="M156.842 82.4192C158.398 82.1448 159.437 80.6606 159.163 79.1042C158.888 77.5478 157.404 76.5085 155.848 76.783L128.768 81.5578C127.212 81.8323 126.173 83.3165 126.447 84.8729C126.721 86.4293 128.206 87.4685 129.762 87.1941L156.842 82.4192Z" fill="#FF3951" fill-opacity="0.01"/>
</g>
<g filter="url(#filter4_d)">
<path d="M171.014 90.2904C172.57 90.0159 173.609 88.5317 173.335 86.9753C173.06 85.4189 171.576 84.3797 170.02 84.6541L130.543 91.615C128.986 91.8895 127.947 93.3736 128.222 94.93C128.496 96.4864 129.98 97.5257 131.537 97.2512L171.014 90.2904Z" fill="#FF3951" fill-opacity="0.01"/>
</g>
</g>
<path d="M192.198 84.384L160.685 121.527C158.519 124.08 154.841 124.729 151.932 123.07L109.617 98.9451L117.29 142.459C117.957 146.244 121.566 148.771 125.351 148.104L194.225 135.96C198.01 135.292 200.538 131.683 199.87 127.898L192.198 84.384Z" fill="#FF3951" fill-opacity="0.01"/>
<path d="M160.684 121.527C159.601 122.803 158.14 123.604 156.586 123.878L159.787 142.032L194.224 135.96C198.009 135.292 200.536 131.683 199.869 127.898L192.196 84.384L160.684 121.527Z" fill="#FF3951" fill-opacity="0.01"/>
<path d="M160.684 121.527C158.518 124.08 154.84 124.729 151.931 123.07L147.482 120.533L120.374 147.1C121.796 148.016 123.553 148.421 125.35 148.104L194.224 135.96C196.022 135.643 197.534 134.662 198.557 133.314L163.998 117.621L160.684 121.527Z" fill="#FF3951" fill-opacity="0.01"/>
<path d="M198.557 133.314L163.998 117.621L160.685 121.527C159.601 122.803 158.14 123.604 156.587 123.878L159.788 142.032L194.225 135.96C196.022 135.643 197.535 134.662 198.557 133.314Z" fill="#FF3951" fill-opacity="0.01"/>
</g>
<path d="M192.199 84.3837L160.687 121.526C158.52 124.08 154.843 124.728 151.934 123.07L109.619 98.9448L141.131 61.8022C143.297 59.2487 146.975 58.6003 149.884 60.2588L192.199 84.3837Z" fill="#C6283B"/>
<path d="M149.884 60.2596C148.43 59.4303 146.783 59.1778 145.23 59.4518L156.59 123.878C158.143 123.604 159.605 122.804 160.688 121.527L192.2 84.3845L149.884 60.2596Z" fill="#C6283B"/>
<g filter="url(#filter5_d)">
<path d="M186.173 93.5989L181.306 65.9963C180.407 60.8988 177.408 58.7989 172.311 59.6977L119.863 68.9457C114.765 69.8445 112.665 72.8435 113.564 77.941L118.431 105.544L152.541 125.076C155.285 126.648 158.76 126.035 160.8 123.62L186.173 93.5989Z" fill="white" fill-opacity="0.01"/>
</g>
<path d="M186.173 93.5989L181.306 65.9963C180.407 60.8988 177.408 58.7989 172.311 59.6977L119.863 68.9457C114.765 69.8445 112.665 72.8435 113.564 77.941L118.431 105.544L152.541 125.076C155.285 126.648 158.76 126.035 160.8 123.62L186.173 93.5989Z" fill="white"/>
<g filter="url(#filter6_d)">
<path d="M156.843 82.4192C158.399 82.1448 159.438 80.6606 159.164 79.1042C158.889 77.5478 157.405 76.5085 155.849 76.783L128.769 81.5578C127.213 81.8323 126.174 83.3165 126.448 84.8729C126.722 86.4293 128.207 87.4685 129.763 87.1941L156.843 82.4192Z" fill="#FF3951" fill-opacity="0.01"/>
</g>
<path d="M156.843 82.4192C158.399 82.1448 159.438 80.6606 159.164 79.1042C158.889 77.5478 157.405 76.5085 155.849 76.783L128.769 81.5578C127.213 81.8323 126.174 83.3165 126.448 84.8729C126.722 86.4293 128.207 87.4685 129.763 87.1941L156.843 82.4192Z" fill="#FF3951"/>
<g filter="url(#filter7_d)">
<path d="M171.015 90.2904C172.571 90.0159 173.61 88.5317 173.336 86.9753C173.061 85.4189 171.577 84.3797 170.021 84.6541L130.544 91.615C128.987 91.8895 127.948 93.3736 128.222 94.93C128.497 96.4864 129.981 97.5257 131.538 97.2512L171.015 90.2904Z" fill="#FF3951" fill-opacity="0.01"/>
</g>
<path d="M171.015 90.2904C172.571 90.0159 173.61 88.5317 173.336 86.9753C173.061 85.4189 171.577 84.3797 170.021 84.6541L130.544 91.615C128.987 91.8895 127.948 93.3736 128.222 94.93C128.497 96.4864 129.981 97.5257 131.538 97.2512L171.015 90.2904Z" fill="#FF3951"/>
<path d="M192.199 84.384L160.686 121.527C158.52 124.08 154.842 124.729 151.933 123.07L109.618 98.9451L117.291 142.459C117.958 146.244 121.567 148.771 125.352 148.104L194.226 135.96C198.011 135.292 200.539 131.683 199.871 127.898L192.199 84.384Z" fill="#FF3951"/>
<path d="M160.685 121.527C159.602 122.803 158.141 123.604 156.587 123.878L159.788 142.032L194.225 135.96C198.01 135.292 200.537 131.683 199.87 127.898L192.197 84.384L160.685 121.527Z" fill="#FF3951"/>
<path d="M160.685 121.527C158.519 124.08 154.841 124.729 151.932 123.07L147.483 120.533L120.375 147.1C121.797 148.016 123.554 148.421 125.351 148.104L194.225 135.96C196.023 135.643 197.535 134.662 198.558 133.314L163.999 117.621L160.685 121.527Z" fill="#FF3951"/>
<path d="M198.558 133.314L163.999 117.621L160.686 121.527C159.602 122.803 158.141 123.604 156.588 123.878L159.789 142.032L194.226 135.96C196.023 135.643 197.536 134.662 198.558 133.314Z" fill="#FF3951"/>
<g filter="url(#filter8_d)">
<path d="M227.124 379.581L150.565 359.067C132.427 354.207 113.783 364.971 108.923 383.109L88.4092 459.668C83.5492 477.806 94.313 496.449 112.451 501.309L189.01 521.823C207.148 526.683 225.791 515.919 230.651 497.782L251.165 421.222C256.025 403.084 245.262 384.441 227.124 379.581Z" fill="white" fill-opacity="0.01"/>
</g>
<path d="M227.124 379.581L150.565 359.067C132.427 354.207 113.783 364.971 108.923 383.109L88.4092 459.668C83.5492 477.806 94.313 496.449 112.451 501.309L189.01 521.823C207.148 526.683 225.791 515.919 230.651 497.782L251.165 421.222C256.025 403.084 245.262 384.441 227.124 379.581Z" fill="white"/>
<g filter="url(#filter9_d)">
<path d="M130.602 426.233C131.296 423.643 129.759 420.981 127.169 420.287C124.58 419.593 121.917 421.13 121.223 423.72L108.15 472.509C107.456 475.099 108.993 477.761 111.583 478.455C114.173 479.149 116.835 477.612 117.529 475.022L130.602 426.233Z" fill="#FFC226" fill-opacity="0.01"/>
<path d="M157.335 411.975C158.029 409.385 156.492 406.723 153.902 406.029C151.313 405.335 148.65 406.872 147.956 409.462L129.528 478.237C128.834 480.827 130.371 483.489 132.961 484.183C135.551 484.877 138.213 483.34 138.907 480.75L157.335 411.975Z" fill="#FFC226" fill-opacity="0.01"/>
<path d="M173.36 437.69C174.054 435.1 172.517 432.438 169.927 431.744C167.338 431.05 164.675 432.587 163.981 435.177L150.908 483.966C150.214 486.556 151.751 489.218 154.341 489.912C156.931 490.606 159.593 489.069 160.287 486.479L173.36 437.69Z" fill="#FFC226" fill-opacity="0.01"/>
<path d="M201.433 418.432C202.127 415.842 200.59 413.18 198 412.486C195.411 411.792 192.748 413.329 192.054 415.918L172.286 489.694C171.592 492.284 173.129 494.946 175.719 495.64C178.309 496.334 180.971 494.797 181.665 492.207L201.433 418.432Z" fill="#FFC226" fill-opacity="0.01"/>
<path d="M228.376 407.565C229.07 404.975 227.533 402.313 224.943 401.619C222.354 400.925 219.691 402.462 218.997 405.052L194.708 495.702C194.014 498.292 195.551 500.954 198.141 501.648C200.731 502.342 203.393 500.805 204.087 498.215L228.376 407.565Z" fill="#FFC226" fill-opacity="0.01"/>
</g>
<path d="M130.602 426.233C131.296 423.643 129.759 420.981 127.169 420.287C124.58 419.593 121.917 421.13 121.223 423.72L108.15 472.509C107.456 475.099 108.993 477.761 111.583 478.455C114.173 479.149 116.835 477.612 117.529 475.022L130.602 426.233Z" fill="#FFC226"/>
<path d="M157.335 411.975C158.029 409.385 156.492 406.723 153.902 406.029C151.313 405.335 148.65 406.872 147.956 409.462L129.528 478.237C128.834 480.827 130.371 483.489 132.961 484.183C135.551 484.877 138.213 483.34 138.907 480.75L157.335 411.975Z" fill="#FFC226"/>
<path d="M173.36 437.69C174.054 435.1 172.517 432.438 169.927 431.744C167.338 431.05 164.675 432.587 163.981 435.177L150.908 483.966C150.214 486.556 151.751 489.218 154.341 489.912C156.931 490.606 159.593 489.069 160.287 486.479L173.36 437.69Z" fill="#FFC226"/>
<path d="M201.433 418.432C202.127 415.842 200.59 413.18 198 412.486C195.411 411.792 192.748 413.329 192.054 415.918L172.286 489.694C171.592 492.284 173.129 494.946 175.719 495.64C178.309 496.334 180.971 494.797 181.665 492.207L201.433 418.432Z" fill="#FFC226"/>
<path d="M228.376 407.565C229.07 404.975 227.533 402.313 224.943 401.619C222.354 400.925 219.691 402.462 218.997 405.052L194.708 495.702C194.014 498.292 195.551 500.954 198.141 501.648C200.731 502.342 203.393 500.805 204.087 498.215L228.376 407.565Z" fill="#FFC226"/>
<g filter="url(#filter10_d)">
<g filter="url(#filter11_d)">
<path d="M501.898 357.724L437.16 372.278C418.84 376.396 407.327 394.587 411.445 412.907L425.999 477.645C430.117 495.966 448.308 507.479 466.628 503.36L531.366 488.807C549.687 484.688 561.2 466.498 557.081 448.178L542.528 383.439C538.409 365.119 520.219 353.606 501.898 357.724Z" fill="white" fill-opacity="0.01"/>
</g>
</g>
<g filter="url(#filter12_d)">
<path d="M501.898 357.724L437.16 372.278C418.84 376.396 407.327 394.587 411.445 412.907L425.999 477.645C430.117 495.966 448.308 507.479 466.628 503.36L531.366 488.807C549.687 484.688 561.2 466.498 557.081 448.178L542.528 383.439C538.409 365.119 520.219 353.606 501.898 357.724Z" fill="white" fill-opacity="0.01"/>
</g>
<path d="M501.898 357.724L437.16 372.278C418.84 376.396 407.327 394.587 411.445 412.907L425.999 477.645C430.117 495.966 448.308 507.479 466.628 503.36L531.366 488.807C549.687 484.688 561.2 466.498 557.081 448.178L542.528 383.439C538.409 365.119 520.219 353.606 501.898 357.724Z" fill="white"/>
<path d="M501.982 358.095L437.243 372.648C419.128 376.721 407.743 394.708 411.816 412.823L426.369 477.562C430.442 495.677 448.429 507.062 466.545 502.989L531.283 488.436C549.399 484.363 560.783 466.376 556.71 448.26L542.157 383.522C538.084 365.406 520.097 354.022 501.982 358.095Z" stroke="#EFF0F7" stroke-width="0.75974"/>
<path d="M526.597 407.676C539.226 431.055 530.51 460.245 507.131 472.873C483.752 485.501 454.562 476.786 441.934 453.407C429.306 430.028 438.021 400.838 461.4 388.21C484.779 375.581 513.969 384.297 526.597 407.676ZM457.544 444.975C465.516 459.733 483.941 465.234 498.699 457.263C513.457 449.291 518.958 430.865 510.987 416.108C503.015 401.35 484.59 395.848 469.832 403.82C455.074 411.791 449.573 430.217 457.544 444.975Z" fill="#F5F7FC"/>
<g filter="url(#filter13_d)">
<path d="M518.679 411.953C523.029 420.007 524.417 429.333 522.6 438.305C520.783 447.277 515.876 455.328 508.734 461.055" stroke="#FF3951" stroke-opacity="0.01" stroke-width="18" stroke-linecap="round"/>
</g>
<path d="M518.679 411.953C523.029 420.007 524.417 429.333 522.6 438.305C520.783 447.277 515.876 455.328 508.734 461.055" stroke="#FF3951" stroke-width="18" stroke-linecap="round"/>
<g filter="url(#filter14_d)">
<path d="M470.119 392.857C475.418 390.868 481.078 390.019 486.727 390.365C492.377 390.711 497.89 392.245 502.907 394.866C507.923 397.488 512.331 401.138 515.841 405.578C519.352 410.018 521.886 415.149 523.279 420.635" stroke="#FF8139" stroke-width="15.7218" stroke-linecap="round"/>
</g>
<g filter="url(#filter15_d)">
<path d="M470.52 393.924C475.669 391.991 481.168 391.166 486.658 391.502C492.147 391.838 497.505 393.329 502.379 395.876C507.254 398.423 511.537 401.97 514.948 406.284C518.359 410.599 520.821 415.585 522.175 420.915" stroke="#FF8139" stroke-opacity="0.01" stroke-width="18" stroke-linecap="round"/>
</g>
<path d="M470.52 393.924C475.669 391.991 481.168 391.166 486.658 391.502C492.147 391.838 497.505 393.329 502.379 395.876C507.254 398.423 511.537 401.97 514.948 406.284C518.359 410.599 520.821 415.585 522.175 420.915" stroke="#FF8139" stroke-width="18" stroke-linecap="round"/>
<g filter="url(#filter16_d)">
<path d="M445.491 425.413C446.808 415.455 451.906 406.385 459.728 400.083C467.551 393.781 477.499 390.731 487.509 391.564" stroke="#FFC226" stroke-opacity="0.01" stroke-width="18" stroke-linecap="round"/>
</g>
<path d="M445.491 425.413C446.808 415.455 451.906 406.385 459.728 400.083C467.551 393.781 477.499 390.731 487.509 391.564" stroke="#FFC226" stroke-width="18" stroke-linecap="round"/>
<defs>
<filter id="filter0_d" x="48.3159" y="0.336887" width="208.384" height="208.851" filterUnits="userSpaceOnUse" color-interpolation-filters="sRGB">
<feFlood flood-opacity="0" result="BackgroundImageFix"/>
<feColorMatrix in="SourceAlpha" type="matrix" values="0 0 0 0 0 0 0 0 0 0 0 0 0 0 0 0 0 0 127 0"/>
<feOffset dy="4.021"/>
<feGaussianBlur stdDeviation="16.084"/>
<feColorMatrix type="matrix" values="0 0 0 0 0.929167 0 0 0 0 0.361756 0 0 0 0 0.0425868 0 0 0 0.16 0"/>
<feBlend mode="normal" in2="BackgroundImageFix" result="effect1_dropShadow"/>
<feBlend mode="normal" in="SourceGraphic" in2="effect1_dropShadow" result="shape"/>
</filter>
<filter id="filter1_d" x="93.8927" y="49.1705" width="121.808" height="120.314" filterUnits="userSpaceOnUse" color-interpolation-filters="sRGB">
<feFlood flood-opacity="0" result="BackgroundImageFix"/>
<feColorMatrix in="SourceAlpha" type="matrix" values="0 0 0 0 0 0 0 0 0 0 0 0 0 0 0 0 0 0 127 0"/>
<feOffset dy="5.54973"/>
<feGaussianBlur stdDeviation="7.86211"/>
<feColorMatrix type="matrix" values="0 0 0 0 1 0 0 0 0 0.223529 0 0 0 0 0.317647 0 0 0 0.41 0"/>
<feBlend mode="normal" in2="BackgroundImageFix" result="effect1_dropShadow"/>
<feBlend mode="normal" in="SourceGraphic" in2="effect1_dropShadow" result="shape"/>
</filter>
<filter id="filter2_d" x="110.586" y="56.7207" width="78.3608" height="71.997" filterUnits="userSpaceOnUse" color-interpolation-filters="sRGB">
<feFlood flood-opacity="0" result="BackgroundImageFix"/>
<feColorMatrix in="SourceAlpha" type="matrix" values="0 0 0 0 0 0 0 0 0 0 0 0 0 0 0 0 0 0 127 0"/>
<feOffset/>
<feGaussianBlur stdDeviation="1.38743"/>
<feColorMatrix type="matrix" values="0 0 0 0 1 0 0 0 0 0.223529 0 0 0 0 0.317647 0 0 0 0.04 0"/>
<feBlend mode="normal" in2="BackgroundImageFix" result="effect1_dropShadow"/>
<feBlend mode="normal" in="SourceGraphic" in2="effect1_dropShadow" result="shape"/>
</filter>
<filter id="filter3_d" x="122.633" y="73.894" width="40.3437" height="18.039" filterUnits="userSpaceOnUse" color-interpolation-filters="sRGB">
<feFlood flood-opacity="0" result="BackgroundImageFix"/>
<feColorMatrix in="SourceAlpha" type="matrix" values="0 0 0 0 0 0 0 0 0 0 0 0 0 0 0 0 0 0 127 0"/>
<feOffset dy="0.924955"/>
<feGaussianBlur stdDeviation="1.885"/>
<feColorMatrix type="matrix" values="0 0 0 0 1 0 0 0 0 0.223529 0 0 0 0 0.317647 0 0 0 0.33 0"/>
<feBlend mode="normal" in2="BackgroundImageFix" result="effect1_dropShadow"/>
<feBlend mode="normal" in="SourceGraphic" in2="effect1_dropShadow" result="shape"/>
</filter>
<filter id="filter4_d" x="124.408" y="81.7651" width="52.7413" height="20.225" filterUnits="userSpaceOnUse" color-interpolation-filters="sRGB">
<feFlood flood-opacity="0" result="BackgroundImageFix"/>
<feColorMatrix in="SourceAlpha" type="matrix" values="0 0 0 0 0 0 0 0 0 0 0 0 0 0 0 0 0 0 127 0"/>
<feOffset dy="0.924955"/>
<feGaussianBlur stdDeviation="1.885"/>
<feColorMatrix type="matrix" values="0 0 0 0 1 0 0 0 0 0.223529 0 0 0 0 0.317647 0 0 0 0.33 0"/>
<feBlend mode="normal" in2="BackgroundImageFix" result="effect1_dropShadow"/>
<feBlend mode="normal" in="SourceGraphic" in2="effect1_dropShadow" result="shape"/>
</filter>
<filter id="filter5_d" x="110.587" y="56.7207" width="78.3608" height="71.997" filterUnits="userSpaceOnUse" color-interpolation-filters="sRGB">
<feFlood flood-opacity="0" result="BackgroundImageFix"/>
<feColorMatrix in="SourceAlpha" type="matrix" values="0 0 0 0 0 0 0 0 0 0 0 0 0 0 0 0 0 0 127 0"/>
<feOffset/>
<feGaussianBlur stdDeviation="1.38743"/>
<feColorMatrix type="matrix" values="0 0 0 0 1 0 0 0 0 0.223529 0 0 0 0 0.317647 0 0 0 0.04 0"/>
<feBlend mode="normal" in2="BackgroundImageFix" result="effect1_dropShadow"/>
<feBlend mode="normal" in="SourceGraphic" in2="effect1_dropShadow" result="shape"/>
</filter>
<filter id="filter6_d" x="122.634" y="73.894" width="40.3437" height="18.039" filterUnits="userSpaceOnUse" color-interpolation-filters="sRGB">
<feFlood flood-opacity="0" result="BackgroundImageFix"/>
<feColorMatrix in="SourceAlpha" type="matrix" values="0 0 0 0 0 0 0 0 0 0 0 0 0 0 0 0 0 0 127 0"/>
<feOffset dy="0.924955"/>
<feGaussianBlur stdDeviation="1.885"/>
<feColorMatrix type="matrix" values="0 0 0 0 1 0 0 0 0 0.223529 0 0 0 0 0.317647 0 0 0 0.33 0"/>
<feBlend mode="normal" in2="BackgroundImageFix" result="effect1_dropShadow"/>
<feBlend mode="normal" in="SourceGraphic" in2="effect1_dropShadow" result="shape"/>
</filter>
<filter id="filter7_d" x="124.409" y="81.7651" width="52.7413" height="20.225" filterUnits="userSpaceOnUse" color-interpolation-filters="sRGB">
<feFlood flood-opacity="0" result="BackgroundImageFix"/>
<feColorMatrix in="SourceAlpha" type="matrix" values="0 0 0 0 0 0 0 0 0 0 0 0 0 0 0 0 0 0 127 0"/>
<feOffset dy="0.924955"/>
<feGaussianBlur stdDeviation="1.885"/>
<feColorMatrix type="matrix" values="0 0 0 0 1 0 0 0 0 0.223529 0 0 0 0 0.317647 0 0 0 0.33 0"/>
<feBlend mode="normal" in2="BackgroundImageFix" result="effect1_dropShadow"/>
<feBlend mode="normal" in="SourceGraphic" in2="effect1_dropShadow" result="shape"/>
</filter>
<filter id="filter8_d" x="0.327663" y="280.298" width="338.919" height="338.919" filterUnits="userSpaceOnUse" color-interpolation-filters="sRGB">
<feFlood flood-opacity="0" result="BackgroundImageFix"/>
<feColorMatrix in="SourceAlpha" type="matrix" values="0 0 0 0 0 0 0 0 0 0 0 0 0 0 0 0 0 0 127 0"/>
<feOffset dy="9.31228"/>
<feGaussianBlur stdDeviation="43.4573"/>
<feColorMatrix type="matrix" values="0 0 0 0 0.6625 0 0 0 0 0.104896 0 0 0 0 0.172484 0 0 0 0.16 0"/>
<feBlend mode="normal" in2="BackgroundImageFix" result="effect1_dropShadow"/>
<feBlend mode="normal" in="SourceGraphic" in2="effect1_dropShadow" result="shape"/>
</filter>
<filter id="filter9_d" x="100.741" y="395.244" width="135.045" height="114.848" filterUnits="userSpaceOnUse" color-interpolation-filters="sRGB">
<feFlood flood-opacity="0" result="BackgroundImageFix"/>
<feColorMatrix in="SourceAlpha" type="matrix" values="0 0 0 0 0 0 0 0 0 0 0 0 0 0 0 0 0 0 127 0"/>
<feOffset dy="1.0347"/>
<feGaussianBlur stdDeviation="3.62144"/>
<feColorMatrix type="matrix" values="0 0 0 0 1 0 0 0 0 0.760784 0 0 0 0 0.14902 0 0 0 0.32 0"/>
<feBlend mode="normal" in2="BackgroundImageFix" result="effect1_dropShadow"/>
<feBlend mode="normal" in="SourceGraphic" in2="effect1_dropShadow" result="shape"/>
</filter>
<filter id="filter10_d" x="356.61" y="316.889" width="255.306" height="255.306" filterUnits="userSpaceOnUse" color-interpolation-filters="sRGB">
<feFlood flood-opacity="0" result="BackgroundImageFix"/>
<feColorMatrix in="SourceAlpha" type="matrix" values="0 0 0 0 0 0 0 0 0 0 0 0 0 0 0 0 0 0 127 0"/>
<feOffset dy="14"/>
<feGaussianBlur stdDeviation="27"/>
<feColorMatrix type="matrix" values="0 0 0 0 0.078875 0 0 0 0 0.0770833 0 0 0 0 0.166667 0 0 0 0.26 0"/>
<feBlend mode="normal" in2="BackgroundImageFix" result="effect1_dropShadow"/>
<feBlend mode="normal" in="SourceGraphic" in2="effect1_dropShadow" result="shape"/>
</filter>
<filter id="filter11_d" x="392.376" y="343.214" width="183.774" height="183.774" filterUnits="userSpaceOnUse" color-interpolation-filters="sRGB">
<feFlood flood-opacity="0" result="BackgroundImageFix"/>
<feColorMatrix in="SourceAlpha" type="matrix" values="0 0 0 0 0 0 0 0 0 0 0 0 0 0 0 0 0 0 127 0"/>
<feOffset dy="4.55844"/>
<feGaussianBlur stdDeviation="9.11688"/>
<feColorMatrix type="matrix" values="0 0 0 0 0.078875 0 0 0 0 0.0770833 0 0 0 0 0.166667 0 0 0 0.03 0"/>
<feBlend mode="normal" in2="BackgroundImageFix" result="effect1_dropShadow"/>
<feBlend mode="normal" in="SourceGraphic" in2="effect1_dropShadow" result="shape"/>
</filter>
<filter id="filter12_d" x="385.754" y="336.592" width="197.018" height="197.018" filterUnits="userSpaceOnUse" color-interpolation-filters="sRGB">
<feFlood flood-opacity="0" result="BackgroundImageFix"/>
<feColorMatrix in="SourceAlpha" type="matrix" values="0 0 0 0 0 0 0 0 0 0 0 0 0 0 0 0 0 0 127 0"/>
<feOffset dy="4.55844"/>
<feGaussianBlur stdDeviation="9.11688"/>
<feColorMatrix type="matrix" values="0 0 0 0 0.078875 0 0 0 0 0.0770833 0 0 0 0 0.166667 0 0 0 0.03 0"/>
<feBlend mode="normal" in2="BackgroundImageFix" result="effect1_dropShadow"/>
<feBlend mode="normal" in="SourceGraphic" in2="effect1_dropShadow" result="shape"/>
</filter>
<filter id="filter13_d" x="490.059" y="396.905" width="51.9944" height="86.4539" filterUnits="userSpaceOnUse" color-interpolation-filters="sRGB">
<feFlood flood-opacity="0" result="BackgroundImageFix"/>
<feColorMatrix in="SourceAlpha" type="matrix" values="0 0 0 0 0 0 0 0 0 0 0 0 0 0 0 0 0 0 127 0"/>
<feOffset dy="3.6281"/>
<feGaussianBlur stdDeviation="4.83747"/>
<feColorMatrix type="matrix" values="0 0 0 0 1 0 0 0 0 0.223529 0 0 0 0 0.317647 0 0 0 0.16 0"/>
<feBlend mode="normal" in2="BackgroundImageFix" result="effect1_dropShadow"/>
<feBlend mode="normal" in="SourceGraphic" in2="effect1_dropShadow" result="shape"/>
</filter>
<filter id="filter14_d" x="457.418" y="380.01" width="78.5607" height="55.7439" filterUnits="userSpaceOnUse" color-interpolation-filters="sRGB">
<feFlood flood-opacity="0" result="BackgroundImageFix"/>
<feColorMatrix in="SourceAlpha" type="matrix" values="0 0 0 0 0 0 0 0 0 0 0 0 0 0 0 0 0 0 127 0"/>
<feOffset dy="2.41873"/>
<feGaussianBlur stdDeviation="2.41873"/>
<feColorMatrix type="matrix" values="0 0 0 0 1 0 0 0 0 0.521569 0 0 0 0 0.219608 0 0 0 0.18 0"/>
<feBlend mode="normal" in2="BackgroundImageFix" result="effect1_dropShadow"/>
<feBlend mode="normal" in="SourceGraphic" in2="effect1_dropShadow" result="shape"/>
</filter>
<filter id="filter15_d" x="456.68" y="380.01" width="79.3345" height="57.1632" filterUnits="userSpaceOnUse" color-interpolation-filters="sRGB">
<feFlood flood-opacity="0" result="BackgroundImageFix"/>
<feColorMatrix in="SourceAlpha" type="matrix" values="0 0 0 0 0 0 0 0 0 0 0 0 0 0 0 0 0 0 127 0"/>
<feOffset dy="2.41873"/>
<feGaussianBlur stdDeviation="2.41873"/>
<feColorMatrix type="matrix" values="0 0 0 0 1 0 0 0 0 0.521569 0 0 0 0 0.219608 0 0 0 0.18 0"/>
<feBlend mode="normal" in2="BackgroundImageFix" result="effect1_dropShadow"/>
<feBlend mode="normal" in="SourceGraphic" in2="effect1_dropShadow" result="shape"/>
</filter>
<filter id="filter16_d" x="431.652" y="380.01" width="69.6945" height="61.6598" filterUnits="userSpaceOnUse" color-interpolation-filters="sRGB">
<feFlood flood-opacity="0" result="BackgroundImageFix"/>
<feColorMatrix in="SourceAlpha" type="matrix" values="0 0 0 0 0 0 0 0 0 0 0 0 0 0 0 0 0 0 127 0"/>
<feOffset dy="2.41873"/>
<feGaussianBlur stdDeviation="2.41873"/>
<feColorMatrix type="matrix" values="0 0 0 0 1 0 0 0 0 0.760784 0 0 0 0 0.14902 0 0 0 0.18 0"/>
<feBlend mode="normal" in2="BackgroundImageFix" result="effect1_dropShadow"/>
<feBlend mode="normal" in="SourceGraphic" in2="effect1_dropShadow" result="shape"/>
</filter>
</defs>
</svg>
