<svg width="433" height="388" viewBox="0 0 433 388" fill="none" xmlns="http://www.w3.org/2000/svg">
<rect x="64" y="61" width="279" height="34" rx="8" fill="white" stroke="#E6E7EA" stroke-width="2"/>
<rect x="102" y="74" width="212" height="8" rx="4" fill="white" stroke="#E6E7EA" stroke-width="2"/>
<path fill-rule="evenodd" clip-rule="evenodd" d="M83 85C86.866 85 90 81.866 90 78C90 74.134 86.866 71 83 71C79.134 71 76 74.134 76 78C76 81.866 79.134 85 83 85ZM83.0002 83.173C85.8577 83.173 88.1741 80.8566 88.1741 77.9991C88.1741 75.1416 85.8577 72.8252 83.0002 72.8252C80.1427 72.8252 77.8263 75.1416 77.8263 77.9991C77.8263 80.8566 80.1427 83.173 83.0002 83.173Z" fill="#E6E7EA"/>
<circle cx="83.0003" cy="77.9997" r="3.34783" fill="#E6E7EA"/>
<rect x="127" y="161" width="305" height="34" rx="8" fill="white" stroke="#E6E7EA" stroke-width="2"/>
<rect x="165" y="174" width="228" height="8" rx="4" fill="white" stroke="#E6E7EA" stroke-width="2"/>
<path fill-rule="evenodd" clip-rule="evenodd" d="M146 185C149.866 185 153 181.866 153 178C153 174.134 149.866 171 146 171C142.134 171 139 174.134 139 178C139 181.866 142.134 185 146 185ZM146 183.173C148.858 183.173 151.174 180.857 151.174 177.999C151.174 175.142 148.858 172.825 146 172.825C143.143 172.825 140.826 175.142 140.826 177.999C140.826 180.857 143.143 183.173 146 183.173Z" fill="#E6E7EA"/>
<circle cx="146" cy="178" r="3.34783" fill="#E6E7EA"/>
<rect x="1" y="111" width="305" height="34" rx="8" fill="white" stroke="#E6E7EA" stroke-width="2"/>
<rect x="39" y="124" width="212" height="8" rx="4" fill="white" stroke="#E6E7EA" stroke-width="2"/>
<path fill-rule="evenodd" clip-rule="evenodd" d="M20 135C23.866 135 27 131.866 27 128C27 124.134 23.866 121 20 121C16.134 121 13 124.134 13 128C13 131.866 16.134 135 20 135ZM20.0002 133.173C22.8577 133.173 25.1741 130.857 25.1741 127.999C25.1741 125.142 22.8577 122.825 20.0002 122.825C17.1427 122.825 14.8263 125.142 14.8263 127.999C14.8263 130.857 17.1427 133.173 20.0002 133.173Z" fill="#E6E7EA"/>
<circle cx="20.0003" cy="128" r="3.34783" fill="#E6E7EA"/>
<rect x="118" y="211" width="275" height="34" rx="8" fill="white" stroke="#E6E7EA" stroke-width="2"/>
<rect x="126" y="224" width="212" height="8" rx="4" fill="white" stroke="#E6E7EA" stroke-width="2"/>
<rect x="64" y="161" width="250" height="34" rx="8" fill="white" stroke="#E6E7EA" stroke-width="2"/>
<rect x="102" y="174" width="212" height="8" rx="4" fill="white" stroke="#E6E7EA" stroke-width="2"/>
<path fill-rule="evenodd" clip-rule="evenodd" d="M83 185C86.866 185 90 181.866 90 178C90 174.134 86.866 171 83 171C79.134 171 76 174.134 76 178C76 181.866 79.134 185 83 185ZM83.0002 183.173C85.8577 183.173 88.1741 180.857 88.1741 177.999C88.1741 175.142 85.8577 172.825 83.0002 172.825C80.1427 172.825 77.8263 175.142 77.8263 177.999C77.8263 180.857 80.1427 183.173 83.0002 183.173Z" fill="#E6E7EA"/>
<circle cx="83.0003" cy="178" r="3.34783" fill="#E6E7EA"/>
<rect x="127" y="261" width="305" height="34" rx="8" fill="white" stroke="#E6E7EA" stroke-width="2"/>
<rect x="165" y="274" width="239" height="8" rx="4" fill="white" stroke="#E6E7EA" stroke-width="2"/>
<path fill-rule="evenodd" clip-rule="evenodd" d="M146 285C149.866 285 153 281.866 153 278C153 274.134 149.866 271 146 271C142.134 271 139 274.134 139 278C139 281.866 142.134 285 146 285ZM146 283.173C148.858 283.173 151.174 280.857 151.174 277.999C151.174 275.142 148.858 272.825 146 272.825C143.143 272.825 140.826 275.142 140.826 277.999C140.826 280.857 143.143 283.173 146 283.173Z" fill="#E6E7EA"/>
<circle cx="146" cy="278" r="3.34783" fill="#E6E7EA"/>
<path fill-rule="evenodd" clip-rule="evenodd" d="M228.188 265.782C231.136 265.782 233.525 263.393 233.525 260.446C233.525 257.498 231.136 255.109 228.188 255.109C225.241 255.109 222.852 257.498 222.852 260.446C222.852 263.393 225.241 265.782 228.188 265.782ZM228.188 264.389C230.367 264.389 232.133 262.623 232.133 260.445C232.133 258.266 230.367 256.5 228.188 256.5C226.01 256.5 224.244 258.266 224.244 260.445C224.244 262.623 226.01 264.389 228.188 264.389Z" fill="#E6E7EA"/>
<circle cx="228.188" cy="260.445" r="2.5523" fill="#E6E7EA"/>
<rect x="197.693" y="219.277" width="161.624" height="6.09901" rx="3.0495" fill="white" stroke="#E6E7EA" stroke-width="1.52475"/>
<path fill-rule="evenodd" clip-rule="evenodd" d="M183.208 227.664C186.155 227.664 188.545 225.274 188.545 222.327C188.545 219.38 186.155 216.99 183.208 216.99C180.261 216.99 177.871 219.38 177.871 222.327C177.871 225.274 180.261 227.664 183.208 227.664ZM183.208 226.271C185.387 226.271 187.153 224.505 187.153 222.326C187.153 220.148 185.387 218.382 183.208 218.382C181.03 218.382 179.264 220.148 179.264 222.326C179.264 224.505 181.03 226.271 183.208 226.271Z" fill="#E6E7EA"/>
<circle cx="183.208" cy="222.327" r="2.5523" fill="#E6E7EA"/>
<path fill-rule="evenodd" clip-rule="evenodd" d="M228.188 189.545C231.136 189.545 233.525 187.155 233.525 184.208C233.525 181.261 231.136 178.871 228.188 178.871C225.241 178.871 222.852 181.261 222.852 184.208C222.852 187.155 225.241 189.545 228.188 189.545ZM228.188 188.152C230.367 188.152 232.133 186.386 232.133 184.207C232.133 182.029 230.367 180.263 228.188 180.263C226.01 180.263 224.244 182.029 224.244 184.207C224.244 186.386 226.01 188.152 228.188 188.152Z" fill="#E6E7EA"/>
<circle cx="228.188" cy="184.208" r="2.5523" fill="#E6E7EA"/>
<rect x="96" y="1" width="272" height="386" rx="7.57389" fill="white" stroke="#E6E7EA" stroke-width="2"/>
<line x1="108" y1="38" x2="355" y2="38" stroke="#E6E7EA" stroke-width="2"/>
<rect x="121" y="277" width="223" height="61" rx="3.0495" fill="white" stroke="#E6E7EA" stroke-width="2"/>
<rect x="279.267" y="353.455" width="64.0396" height="21.3465" rx="3.0495" fill="#0071E1" stroke="#0071E1" stroke-width="1.52475"/>
<rect x="206.079" y="353.455" width="64.0396" height="21.3465" rx="3.0495" fill="white" stroke="#E6E7EA" stroke-width="2"/>
<rect x="145" y="254" width="47" height="6" rx="3" fill="white" stroke="#E6E7EA" stroke-width="2"/>
<rect x="314" y="254" width="8" height="8" rx="4" fill="#338DE7"/>
<rect x="325" y="254" width="8" height="8" rx="4" fill="#0071E1"/>
<rect x="336" y="254" width="8" height="8" rx="4" fill="white" stroke="#E6E7EA" stroke-width="2"/>
<circle cx="128.5" cy="257.5" r="8.5" fill="white" stroke="#E6E7EA" stroke-width="2"/>
<path fill-rule="evenodd" clip-rule="evenodd" d="M137 75.0001C137 72.791 138.791 71.0001 141 71.0001H293C295.209 71.0001 297 72.791 297 75.0001V78.5579C297 80.7671 298.791 82.5579 301 82.5579H319.485C321.695 82.5579 323.485 84.3488 323.485 86.5579V89.7395C323.485 91.9486 321.695 93.7395 319.485 93.7395H253C250.791 93.7395 249 95.5303 249 97.7395V101C249 103.209 247.209 105 245 105H141C138.791 105 137 103.209 137 101V85.0001V80.0001V75.0001Z" fill="#CCE3F9"/>
<rect x="137" y="55" width="84" height="6" rx="3" fill="white" stroke="#E6E7EA" stroke-width="2"/>
<rect x="113" y="51" width="15" height="15" rx="3.0495" fill="white" stroke="#E6E7EA" stroke-width="2"/>
<path fill-rule="evenodd" clip-rule="evenodd" d="M137.466 140.178C137.466 137.969 139.256 136.178 141.466 136.178H295.089C297.298 136.178 299.089 137.969 299.089 140.178V143.769C299.089 145.978 297.298 147.769 295.089 147.769H239.05C236.841 147.769 235.05 149.56 235.05 151.769V154C235.05 156.209 236.841 158 239.05 158H251C253.209 158 255 159.791 255 162V166C255 168.209 253.209 170 251 170H141C138.791 170 137 168.209 137 166V158.233C137 158.104 137.104 158 137.233 158V158C137.361 158 137.466 157.896 137.466 157.767V147.769V147.769V140.178Z" fill="#CCE3F9"/>
<rect x="137" y="121" width="117" height="6" rx="3" fill="white" stroke="#E6E7EA" stroke-width="2"/>
<rect x="113" y="116" width="15" height="15" rx="3.0495" fill="white" stroke="#E6E7EA" stroke-width="2"/>
<path fill-rule="evenodd" clip-rule="evenodd" d="M270.119 205.742C270.119 203.533 268.328 201.742 266.119 201.742H141.466C139.256 201.742 137.466 203.533 137.466 205.742V213.122V213.122V219.742C137.466 221.952 139.256 223.742 141.466 223.742H286.703C288.912 223.742 290.703 221.952 290.703 219.742V217.122C290.703 214.913 288.912 213.122 286.703 213.122L274.119 213.122C271.91 213.122 270.119 211.331 270.119 209.122V205.742Z" fill="#CCE3F9"/>
<rect x="137" y="186" width="117" height="6" rx="3" fill="white" stroke="#E6E7EA" stroke-width="2"/>
<rect x="113" y="182" width="15" height="15" rx="3.0495" fill="white" stroke="#E6E7EA" stroke-width="2"/>
<path d="M162.576 16.48L160.152 23.08H160.128L157.716 16.48H156.072L159.36 25H160.872L164.172 16.48H162.576ZM165.822 17.728C166.338 17.728 166.71 17.368 166.71 16.852C166.71 16.324 166.338 15.952 165.822 15.952C165.294 15.952 164.922 16.324 164.922 16.852C164.922 17.368 165.294 17.728 165.822 17.728ZM165.102 25H166.53V18.772H165.102V25ZM172.719 19.588C172.371 19.06 171.699 18.628 170.727 18.628C168.891 18.628 167.847 20.104 167.847 21.892C167.847 23.668 168.891 25.144 170.727 25.144C171.699 25.144 172.431 24.76 172.827 24.112V25H174.147V16H172.719V19.588ZM172.779 21.892C172.779 23.008 172.119 23.884 171.027 23.884C169.947 23.884 169.275 23.008 169.275 21.892C169.275 20.752 169.947 19.888 171.027 19.888C172.119 19.888 172.779 20.752 172.779 21.892ZM180.132 22.96C179.868 23.584 179.304 23.92 178.62 23.92C177.624 23.92 176.988 23.284 176.88 22.3H181.62C181.62 22.3 181.632 22.084 181.632 21.856C181.632 20.032 180.42 18.628 178.572 18.628C176.724 18.628 175.476 20.068 175.476 21.88C175.476 23.74 176.7 25.144 178.584 25.144C179.94 25.144 180.972 24.412 181.416 23.296L180.132 22.96ZM178.572 19.792C179.496 19.792 180.096 20.38 180.216 21.244H176.904C177.048 20.392 177.648 19.792 178.572 19.792ZM185.758 25.144C187.75 25.144 188.998 23.644 188.998 21.892C188.998 20.14 187.75 18.628 185.758 18.628C183.778 18.628 182.53 20.14 182.53 21.892C182.53 23.644 183.778 25.144 185.758 25.144ZM183.958 21.892C183.958 20.68 184.726 19.888 185.758 19.888C186.802 19.888 187.57 20.68 187.57 21.892C187.57 23.092 186.802 23.884 185.758 23.884C184.726 23.884 183.958 23.092 183.958 21.892ZM196.126 23.884C195.106 23.884 194.458 23.056 194.458 21.892C194.458 20.716 195.106 19.888 196.126 19.888C196.894 19.888 197.47 20.356 197.638 21.028L199.006 20.692C198.682 19.624 197.806 18.628 196.138 18.628C194.302 18.628 193.03 20.08 193.03 21.892C193.03 23.692 194.302 25.144 196.138 25.144C197.806 25.144 198.682 24.148 199.006 23.08L197.638 22.744C197.47 23.416 196.894 23.884 196.126 23.884ZM204.005 22.084V22.468C204.005 23.308 203.441 24.028 202.289 24.028C201.533 24.028 201.209 23.728 201.209 23.248C201.209 22.828 201.437 22.516 202.349 22.36L204.005 22.084ZM202.001 25.144C202.937 25.144 203.729 24.844 204.173 24.316C204.329 24.688 204.761 25.072 205.469 25.072C205.745 25.072 205.925 25.024 205.925 25.024V23.872C205.925 23.872 205.865 23.884 205.805 23.884C205.553 23.884 205.397 23.764 205.397 23.464V20.956C205.397 19.528 204.533 18.628 202.709 18.628C200.945 18.628 200.177 19.516 199.985 20.524L201.353 20.752C201.449 20.152 201.893 19.804 202.673 19.804C203.525 19.804 204.005 20.164 204.005 20.92V21.004L202.205 21.268C200.561 21.508 199.817 22.204 199.817 23.26C199.817 24.328 200.489 25.144 202.001 25.144ZM208.612 25V16H207.184V25H208.612ZM211.765 25V16H210.337V25H211.765ZM214.209 17.728C214.725 17.728 215.097 17.368 215.097 16.852C215.097 16.324 214.725 15.952 214.209 15.952C213.681 15.952 213.309 16.324 213.309 16.852C213.309 17.368 213.681 17.728 214.209 17.728ZM213.489 25H214.917V18.772H213.489V25ZM217.961 18.772H216.641V25H218.069V21.388C218.069 20.416 218.633 19.852 219.533 19.852C220.385 19.852 220.769 20.416 220.769 21.268V25H222.197V21.088C222.197 19.636 221.393 18.628 219.881 18.628C218.861 18.628 218.225 19.108 217.961 19.6V18.772ZM226.26 23.164C227.796 23.164 228.756 22.168 228.756 20.896C228.756 20.596 228.696 20.32 228.6 20.056C228.6 20.056 228.576 19.972 228.576 19.792C228.576 19.42 228.828 19.204 229.236 19.204C229.44 19.204 229.5 19.216 229.5 19.216V17.98C229.5 17.98 229.356 17.956 229.152 17.956C228.444 17.956 227.856 18.34 227.604 18.94C227.232 18.748 226.776 18.628 226.26 18.628C224.724 18.628 223.764 19.624 223.764 20.896C223.764 21.532 223.98 22.036 224.364 22.432C223.992 22.648 223.62 23.08 223.62 23.728C223.62 23.932 223.668 24.496 224.136 24.832C223.908 24.988 223.464 25.36 223.464 26.044C223.464 27.124 224.256 27.748 226.332 27.748C228.408 27.748 229.308 26.74 229.308 25.732C229.308 24.736 228.792 23.872 227.304 23.872H225.264C225.036 23.872 224.832 23.752 224.832 23.464C224.832 23.128 225.156 22.972 225.216 22.96C225.504 23.068 225.9 23.164 226.26 23.164ZM225.072 20.896C225.072 20.272 225.504 19.828 226.26 19.828C227.016 19.828 227.448 20.272 227.448 20.896C227.448 21.52 227.016 21.964 226.26 21.964C225.504 21.964 225.072 21.52 225.072 20.896ZM227.268 25.144C227.724 25.144 228 25.36 228 25.744C228 26.296 227.412 26.56 226.308 26.56C225.096 26.56 224.724 26.32 224.724 25.78C224.724 25.66 224.772 25.336 225.072 25.144H227.268ZM233.85 18.772H232.854V19.912H233.85V25H235.278V19.912H236.382V18.772H235.278V18.196C235.278 17.512 235.506 17.272 236.082 17.272C236.274 17.272 236.346 17.296 236.346 17.296V16.036C236.346 16.036 236.142 16 235.866 16C234.678 16 233.85 16.648 233.85 18.112V18.772ZM241.573 22.96C241.309 23.584 240.745 23.92 240.061 23.92C239.065 23.92 238.429 23.284 238.321 22.3H243.061C243.061 22.3 243.073 22.084 243.073 21.856C243.073 20.032 241.861 18.628 240.013 18.628C238.165 18.628 236.917 20.068 236.917 21.88C236.917 23.74 238.141 25.144 240.025 25.144C241.381 25.144 242.413 24.412 242.857 23.296L241.573 22.96ZM240.013 19.792C240.937 19.792 241.537 20.38 241.657 21.244H238.345C238.489 20.392 239.089 19.792 240.013 19.792ZM248.22 22.084V22.468C248.22 23.308 247.656 24.028 246.504 24.028C245.748 24.028 245.424 23.728 245.424 23.248C245.424 22.828 245.652 22.516 246.564 22.36L248.22 22.084ZM246.216 25.144C247.152 25.144 247.944 24.844 248.388 24.316C248.544 24.688 248.976 25.072 249.684 25.072C249.96 25.072 250.14 25.024 250.14 25.024V23.872C250.14 23.872 250.08 23.884 250.02 23.884C249.768 23.884 249.612 23.764 249.612 23.464V20.956C249.612 19.528 248.748 18.628 246.924 18.628C245.16 18.628 244.392 19.516 244.2 20.524L245.568 20.752C245.664 20.152 246.108 19.804 246.888 19.804C247.74 19.804 248.22 20.164 248.22 20.92V21.004L246.42 21.268C244.776 21.508 244.032 22.204 244.032 23.26C244.032 24.328 244.704 25.144 246.216 25.144ZM254.066 23.728C254.066 23.728 253.862 23.788 253.622 23.788C253.13 23.788 252.926 23.548 252.926 23.056V19.912H254.09V18.772H252.926V17.152H251.498V18.772H250.55V19.912H251.498V23.2C251.498 24.376 252.05 25.036 253.322 25.036C253.802 25.036 254.066 24.964 254.066 24.964V23.728ZM259.251 22.36C259.251 23.38 258.699 23.92 257.811 23.92C256.947 23.92 256.599 23.356 256.599 22.504V18.772H255.171V22.696C255.171 24.148 255.951 25.144 257.463 25.144C258.471 25.144 259.095 24.688 259.359 24.196V25H260.679V18.772H259.251V22.36ZM265.763 18.724C265.763 18.724 265.619 18.712 265.559 18.712C264.479 18.712 263.951 19.24 263.723 19.636V18.772H262.403V25H263.831V21.76C263.831 20.56 264.431 20.032 265.439 20.032C265.595 20.032 265.763 20.056 265.763 20.056V18.724ZM270.776 22.96C270.512 23.584 269.948 23.92 269.264 23.92C268.268 23.92 267.632 23.284 267.524 22.3H272.264C272.264 22.3 272.276 22.084 272.276 21.856C272.276 20.032 271.064 18.628 269.216 18.628C267.368 18.628 266.12 20.068 266.12 21.88C266.12 23.74 267.344 25.144 269.228 25.144C270.584 25.144 271.616 24.412 272.06 23.296L270.776 22.96ZM269.216 19.792C270.14 19.792 270.74 20.38 270.86 21.244H267.548C267.692 20.392 268.292 19.792 269.216 19.792Z" fill="#666D80"/>
<path d="M141.974 19.0049H145.386V20.1485H141.974V19.0049Z" fill="#666D80"/>
<path d="M145.386 20.7203H141.974V21.8638H145.386V20.7203Z" fill="#666D80"/>
<path fill-rule="evenodd" clip-rule="evenodd" d="M141.974 15.5742H143.111V16.146H144.248V15.5742H145.386V16.146H146.523C147.151 16.146 147.66 16.658 147.66 17.2896V23.5792C147.66 24.2107 147.151 24.7227 146.523 24.7227H140.837C140.209 24.7227 139.699 24.2107 139.699 23.5792V17.2896C139.699 16.658 140.209 16.146 140.837 16.146H141.974V15.5742ZM144.248 17.2896V17.8613H145.386V17.2896H145.954C146.268 17.2896 146.523 17.5456 146.523 17.8613V23.0074C146.523 23.3232 146.268 23.5792 145.954 23.5792H141.405C141.091 23.5792 140.837 23.3232 140.837 23.0074V17.8613C140.837 17.5456 141.091 17.2896 141.405 17.2896H141.974V17.8613H143.111V17.2896H144.248Z" fill="#666D80"/>
<line x1="127.5" y1="11" x2="127.5" y2="29" stroke="#E6E7EA"/>
<path fill-rule="evenodd" clip-rule="evenodd" d="M111.536 19.8517L113.727 17.6234C113.968 17.377 114.361 17.377 114.603 17.6234C114.845 17.8693 114.845 18.2684 114.603 18.5143L112.851 20.2971L114.603 22.0799C114.845 22.3263 114.845 22.7254 114.603 22.9719C114.361 23.2177 113.968 23.2177 113.727 22.9719L111.536 20.7431C111.294 20.4966 111.294 20.0981 111.536 19.8517V19.8517Z" fill="#666D80"/>
<line x1="108" y1="235" x2="355" y2="235" stroke="#E6E7EA" stroke-width="2"/>
</svg>
