<?xml version="1.0" encoding="UTF-8"?> <svg xmlns="http://www.w3.org/2000/svg" width="498" height="348" viewBox="0 0 498 348" fill="none"><rect x="35" y="35" width="462" height="312" rx="16" fill="white" stroke="#E6E7EA" stroke-width="2"></rect><path opacity="0.6" d="M89.8374 133H91.6974L88.6134 124.996H86.4774L83.3814 133H85.2534L85.7574 131.62H89.3334L89.8374 133ZM87.5454 126.472L88.8654 130.144H86.2134L87.5454 126.472ZM97.9565 133H99.6005V124.996H97.8965V130.18L94.1885 124.996H92.4365V133H94.1405V127.624L97.9565 133ZM101.179 133H104.335C106.843 133 108.583 131.416 108.583 129.004C108.583 126.592 106.843 124.996 104.335 124.996H101.179V133ZM102.883 131.5V126.496H104.335C105.979 126.496 106.843 127.588 106.843 129.004C106.843 130.36 105.919 131.5 104.335 131.5H102.883Z" fill="#666D80"></path><path fill-rule="evenodd" clip-rule="evenodd" d="M116.249 128.495C115.749 127.997 116 127 116.999 127C117.998 127 119.991 127 120.995 127C121.999 127 122.251 127.995 121.749 128.495L119.749 130.7C119.299 131.1 118.699 131.1 118.252 130.7L116.249 128.495Z" fill="#E6E7EA"></path><path opacity="0.6" d="M89.8374 265H91.6974L88.6134 256.996H86.4774L83.3814 265H85.2534L85.7574 263.62H89.3334L89.8374 265ZM87.5454 258.472L88.8654 262.144H86.2134L87.5454 258.472ZM97.9565 265H99.6005V256.996H97.8965V262.18L94.1885 256.996H92.4365V265H94.1405V259.624L97.9565 265ZM101.179 265H104.335C106.843 265 108.583 263.416 108.583 261.004C108.583 258.592 106.843 256.996 104.335 256.996H101.179V265ZM102.883 263.5V258.496H104.335C105.979 258.496 106.843 259.588 106.843 261.004C106.843 262.36 105.919 263.5 104.335 263.5H102.883Z" fill="#666D80"></path><path fill-rule="evenodd" clip-rule="evenodd" d="M116.249 260.495C115.749 259.997 116 259 116.999 259C117.998 259 119.991 259 120.995 259C121.999 259 122.251 259.995 121.749 260.495L119.749 262.7C119.299 263.1 118.699 263.1 118.252 262.7L116.249 260.495Z" fill="#E6E7EA"></path><rect x="67" y="67" width="398" height="36" rx="8" fill="white" stroke="#E6E7EA" stroke-width="2"></rect><rect x="145" y="111" width="320" height="36" rx="8" fill="white" stroke="#E6E7EA" stroke-width="2"></rect><path fill-rule="evenodd" clip-rule="evenodd" d="M443.249 128.495C442.749 127.997 443 127 443.999 127C444.998 127 446.991 127 447.995 127C448.999 127 449.251 127.995 448.749 128.495L446.749 130.7C446.299 131.1 445.699 131.1 445.252 130.7L443.249 128.495Z" fill="#E6E7EA"></path><path d="M185.363 130.789C185.506 131.988 186.331 133.154 188.355 133.154C190.214 133.154 191.446 132.164 191.446 130.767C191.446 127.665 187.266 128.897 187.266 127.335C187.266 126.829 187.75 126.455 188.509 126.455C189.345 126.455 189.829 126.95 189.862 127.632L191.413 127.346C191.248 126.059 190.236 125.025 188.531 125.025C186.727 125.025 185.682 126.114 185.682 127.434C185.682 130.492 189.818 129.282 189.818 130.822C189.818 131.394 189.301 131.724 188.443 131.724C187.431 131.724 186.98 131.163 186.914 130.47L185.363 130.789ZM194.413 133V129.777H197.823V128.303H194.413V126.664H197.988V125.19H192.807V133H194.413ZM201.94 133C204.602 133 206.054 131.361 206.054 129.095C206.054 126.829 204.602 125.19 201.94 125.19H199.135V133H201.94ZM204.36 129.095C204.36 130.558 203.601 131.526 201.896 131.526H200.741V126.664H201.896C203.601 126.664 204.36 127.632 204.36 129.095ZM206.979 129.084C206.979 131.526 208.662 133.143 210.906 133.143C212.732 133.143 214.206 132.12 214.624 130.426L212.974 130.085C212.743 131.064 211.951 131.614 210.906 131.614C209.476 131.614 208.673 130.624 208.673 129.084C208.673 127.544 209.476 126.554 210.906 126.554C211.951 126.554 212.743 127.104 212.974 128.083L214.624 127.742C214.206 126.048 212.732 125.025 210.906 125.025C208.662 125.025 206.979 126.642 206.979 129.084ZM216.433 133.088C217.038 133.088 217.489 132.659 217.489 132.043C217.489 131.438 217.038 130.987 216.433 130.987C215.817 130.987 215.377 131.438 215.377 132.043C215.377 132.659 215.817 133.088 216.433 133.088ZM216.433 129.249C217.038 129.249 217.489 128.82 217.489 128.204C217.489 127.599 217.038 127.148 216.433 127.148C215.817 127.148 215.377 127.599 215.377 128.204C215.377 128.82 215.817 129.249 216.433 129.249ZM221.081 130.789C221.224 131.988 222.049 133.154 224.073 133.154C225.932 133.154 227.164 132.164 227.164 130.767C227.164 127.665 222.984 128.897 222.984 127.335C222.984 126.829 223.468 126.455 224.227 126.455C225.063 126.455 225.547 126.95 225.58 127.632L227.131 127.346C226.966 126.059 225.954 125.025 224.249 125.025C222.445 125.025 221.4 126.114 221.4 127.434C221.4 130.492 225.536 129.282 225.536 130.822C225.536 131.394 225.019 131.724 224.161 131.724C223.149 131.724 222.698 131.163 222.632 130.47L221.081 130.789ZM232.144 131.119C231.935 131.581 231.517 131.79 231 131.79C230.219 131.79 229.713 131.361 229.603 130.569H233.783C233.783 130.569 233.805 130.36 233.805 130.107C233.805 128.402 232.65 127.104 230.945 127.104C229.24 127.104 228.052 128.402 228.052 130.107C228.052 131.878 229.251 133.132 230.956 133.132C232.287 133.132 233.167 132.461 233.585 131.449L232.144 131.119ZM230.934 128.358C231.66 128.358 232.133 128.798 232.243 129.447H229.625C229.757 128.787 230.219 128.358 230.934 128.358ZM234.751 129.205C234.751 129.722 234.905 130.184 235.191 130.536C234.883 130.767 234.586 131.152 234.586 131.713C234.586 131.933 234.663 132.45 235.125 132.78C234.751 133 234.41 133.396 234.41 133.946C234.41 134.925 235.147 135.53 237.05 135.53C239.162 135.53 240.108 134.672 240.108 133.517C240.108 132.538 239.492 131.801 238.128 131.801H236.236C236.082 131.801 235.884 131.68 235.884 131.438C235.884 131.24 236.016 131.108 236.016 131.108C236.016 131.108 236.368 131.317 237.094 131.317C238.535 131.317 239.437 130.426 239.437 129.205C239.437 128.875 239.371 128.567 239.25 128.303V128.193C239.25 127.819 239.591 127.687 239.789 127.687C240.031 127.687 240.053 127.709 240.053 127.72V126.499C240.053 126.499 240.031 126.466 239.723 126.466C239.052 126.466 238.502 126.785 238.304 127.335C237.974 127.181 237.534 127.093 237.094 127.093C235.653 127.093 234.751 128.061 234.751 129.205ZM238.04 133.176C238.546 133.176 238.689 133.352 238.689 133.627C238.689 134.012 238.282 134.287 237.127 134.287C236.159 134.287 235.84 134.045 235.84 133.616C235.84 133.462 235.917 133.286 236.148 133.176H238.04ZM237.094 130.107C236.522 130.107 236.115 129.766 236.115 129.205C236.115 128.644 236.489 128.303 237.094 128.303C237.699 128.303 238.073 128.644 238.073 129.205C238.073 129.766 237.666 130.107 237.094 130.107ZM246.014 129.722C246.014 128.919 246.399 128.446 247.136 128.446C247.829 128.446 248.06 128.941 248.06 129.579V133H249.622V129.403C249.622 128.061 248.918 127.104 247.532 127.104C246.707 127.104 246.124 127.357 245.618 127.918C245.288 127.412 244.727 127.104 243.946 127.104C243.121 127.104 242.549 127.445 242.285 127.94V127.236H240.844V133H242.406V129.689C242.406 128.919 242.802 128.446 243.528 128.446C244.221 128.446 244.452 128.941 244.452 129.579V133H246.014V129.722ZM254.724 131.119C254.515 131.581 254.097 131.79 253.58 131.79C252.799 131.79 252.293 131.361 252.183 130.569H256.363C256.363 130.569 256.385 130.36 256.385 130.107C256.385 128.402 255.23 127.104 253.525 127.104C251.82 127.104 250.632 128.402 250.632 130.107C250.632 131.878 251.831 133.132 253.536 133.132C254.867 133.132 255.747 132.461 256.165 131.449L254.724 131.119ZM253.514 128.358C254.24 128.358 254.713 128.798 254.823 129.447H252.205C252.337 128.787 252.799 128.358 253.514 128.358ZM258.882 127.236H257.441V133H259.003V129.7C259.003 128.93 259.421 128.446 260.18 128.446C260.873 128.446 261.159 128.908 261.159 129.579V133H262.721V129.403C262.721 128.028 261.984 127.104 260.598 127.104C259.74 127.104 259.146 127.445 258.882 127.94V127.236ZM266.807 131.614C266.807 131.614 266.653 131.669 266.444 131.669C266.037 131.669 265.861 131.493 265.861 131.108V128.468H266.818V127.236H265.861V125.806H264.299V127.236H263.518V128.468H264.299V131.273C264.299 132.384 264.805 133.033 266.07 133.033C266.543 133.033 266.807 132.967 266.807 132.967V131.614ZM271.27 126.015C271.589 126.015 271.831 125.795 271.831 125.476C271.831 125.146 271.589 124.915 271.27 124.915C270.94 124.915 270.709 125.146 270.709 125.476C270.709 125.795 270.94 126.015 271.27 126.015ZM270.874 133H271.655V127.401H270.874V133ZM273.075 131.416C273.196 132.329 273.834 133.132 275.363 133.132C276.881 133.132 277.596 132.329 277.596 131.482C277.596 129.128 274.153 130.437 274.153 128.886C274.153 128.38 274.582 127.951 275.451 127.951C276.342 127.951 276.76 128.435 276.826 129.04L277.574 128.787C277.42 128.072 276.859 127.269 275.473 127.269C274.142 127.269 273.394 128.061 273.394 128.919C273.394 131.218 276.837 129.898 276.837 131.504C276.837 132.065 276.309 132.45 275.363 132.45C274.406 132.45 273.922 131.977 273.856 131.273L273.075 131.416ZM287.47 131.526H283.455V129.777H287.305V128.303H283.455V126.664H287.47V125.19H281.849V133H287.47V131.526ZM290.174 127.236H288.733V133H290.295V129.7C290.295 128.93 290.713 128.446 291.472 128.446C292.165 128.446 292.451 128.908 292.451 129.579V133H294.013V129.403C294.013 128.028 293.276 127.104 291.89 127.104C291.032 127.104 290.438 127.445 290.174 127.94V127.236ZM298.099 131.614C298.099 131.614 297.945 131.669 297.736 131.669C297.329 131.669 297.153 131.493 297.153 131.108V128.468H298.11V127.236H297.153V125.806H295.591V127.236H294.81V128.468H295.591V131.273C295.591 132.384 296.097 133.033 297.362 133.033C297.835 133.033 298.099 132.967 298.099 132.967V131.614ZM302.677 131.119C302.468 131.581 302.05 131.79 301.533 131.79C300.752 131.79 300.246 131.361 300.136 130.569H304.316C304.316 130.569 304.338 130.36 304.338 130.107C304.338 128.402 303.183 127.104 301.478 127.104C299.773 127.104 298.585 128.402 298.585 130.107C298.585 131.878 299.784 133.132 301.489 133.132C302.82 133.132 303.7 132.461 304.118 131.449L302.677 131.119ZM301.467 128.358C302.193 128.358 302.666 128.798 302.776 129.447H300.158C300.29 128.787 300.752 128.358 301.467 128.358ZM308.65 127.192C308.65 127.192 308.518 127.181 308.463 127.181C307.484 127.181 307.044 127.643 306.835 127.984V127.236H305.394V133H306.956V130.129C306.956 129.073 307.429 128.622 308.342 128.622C308.485 128.622 308.65 128.655 308.65 128.655V127.192ZM311.059 132.384C311.356 132.78 311.95 133.132 312.764 133.132C314.436 133.132 315.415 131.79 315.415 130.118C315.415 128.446 314.436 127.104 312.764 127.104C311.95 127.104 311.301 127.412 310.938 127.94V127.236H309.497V135.288H311.059V132.384ZM311.015 130.118C311.015 129.183 311.565 128.479 312.434 128.479C313.303 128.479 313.853 129.183 313.853 130.118C313.853 131.053 313.303 131.757 312.434 131.757C311.565 131.757 311.015 131.053 311.015 130.118ZM319.736 127.192C319.736 127.192 319.604 127.181 319.549 127.181C318.57 127.181 318.13 127.643 317.921 127.984V127.236H316.48V133H318.042V130.129C318.042 129.073 318.515 128.622 319.428 128.622C319.571 128.622 319.736 128.655 319.736 128.655V127.192ZM321.364 126.488C321.914 126.488 322.31 126.103 322.31 125.553C322.31 125.003 321.914 124.607 321.364 124.607C320.814 124.607 320.418 125.003 320.418 125.553C320.418 126.103 320.814 126.488 321.364 126.488ZM320.583 133H322.145V127.236H320.583V133ZM323.14 131.317C323.272 132.307 323.921 133.132 325.615 133.132C327.177 133.132 328.057 132.318 328.057 131.284C328.057 128.919 324.889 129.887 324.889 128.919C324.889 128.6 325.175 128.358 325.681 128.358C326.242 128.358 326.528 128.688 326.561 129.106L328.035 128.831C327.903 128.028 327.276 127.104 325.692 127.104C324.273 127.104 323.382 127.962 323.382 129.007C323.382 131.295 326.561 130.382 326.561 131.35C326.561 131.669 326.253 131.878 325.659 131.878C325.01 131.878 324.724 131.515 324.691 131.097L323.14 131.317ZM332.82 131.119C332.611 131.581 332.193 131.79 331.676 131.79C330.895 131.79 330.389 131.361 330.279 130.569H334.459C334.459 130.569 334.481 130.36 334.481 130.107C334.481 128.402 333.326 127.104 331.621 127.104C329.916 127.104 328.728 128.402 328.728 130.107C328.728 131.878 329.927 133.132 331.632 133.132C332.963 133.132 333.843 132.461 334.261 131.449L332.82 131.119ZM331.61 128.358C332.336 128.358 332.809 128.798 332.919 129.447H330.301C330.433 128.787 330.895 128.358 331.61 128.358Z" fill="#666D80"></path><g opacity="0.6"><path fill-rule="evenodd" clip-rule="evenodd" d="M171.5 135H162.5C161.675 135 161 134.325 161 133.5V124.5C161 123.675 161.675 123 162.5 123H171.5C172.325 123 173 123.675 173 124.5V133.5C173 134.325 172.325 135 171.5 135ZM171.5 124.5H162.5V133.5H171.5V124.5ZM164.15 128.625L166.55 131.025C166.775 131.325 167.225 131.325 167.525 131.025L169.85 128.625C170.075 128.325 170.075 127.95 169.85 127.65C169.55 127.35 169.1 127.35 168.875 127.65L167 129.6L165.125 127.65C164.825 127.35 164.375 127.35 164.15 127.65C163.925 127.95 163.925 128.325 164.15 128.625Z" fill="#666D80"></path></g><rect x="145" y="243" width="320" height="36" rx="8" fill="white" stroke="#E6E7EA" stroke-width="2"></rect><path fill-rule="evenodd" clip-rule="evenodd" d="M443.249 260.495C442.749 259.997 443 259 443.999 259C444.998 259 446.991 259 447.995 259C448.999 259 449.251 259.995 448.749 260.495L446.749 262.7C446.299 263.1 445.699 263.1 445.252 262.7L443.249 260.495Z" fill="#E6E7EA"></path><path d="M192.293 265L190.588 261.865C191.501 261.491 191.974 260.666 191.974 259.632C191.974 258.202 191.072 257.19 189.367 257.19H185.825V265H187.431V262.041H188.971L190.434 265H192.293ZM190.368 259.632C190.368 260.204 190.038 260.567 189.367 260.567H187.431V258.664H189.367C190.038 258.664 190.368 259.06 190.368 259.632ZM196.856 263.119C196.647 263.581 196.229 263.79 195.712 263.79C194.931 263.79 194.425 263.361 194.315 262.569H198.495C198.495 262.569 198.517 262.36 198.517 262.107C198.517 260.402 197.362 259.104 195.657 259.104C193.952 259.104 192.764 260.402 192.764 262.107C192.764 263.878 193.963 265.132 195.668 265.132C196.999 265.132 197.879 264.461 198.297 263.449L196.856 263.119ZM195.646 260.358C196.372 260.358 196.845 260.798 196.955 261.447H194.337C194.469 260.787 194.931 260.358 195.646 260.358ZM199.462 261.205C199.462 261.722 199.616 262.184 199.902 262.536C199.594 262.767 199.297 263.152 199.297 263.713C199.297 263.933 199.374 264.45 199.836 264.78C199.462 265 199.121 265.396 199.121 265.946C199.121 266.925 199.858 267.53 201.761 267.53C203.873 267.53 204.819 266.672 204.819 265.517C204.819 264.538 204.203 263.801 202.839 263.801H200.947C200.793 263.801 200.595 263.68 200.595 263.438C200.595 263.24 200.727 263.108 200.727 263.108C200.727 263.108 201.079 263.317 201.805 263.317C203.246 263.317 204.148 262.426 204.148 261.205C204.148 260.875 204.082 260.567 203.961 260.303V260.193C203.961 259.819 204.302 259.687 204.5 259.687C204.742 259.687 204.764 259.709 204.764 259.72V258.499C204.764 258.499 204.742 258.466 204.434 258.466C203.763 258.466 203.213 258.785 203.015 259.335C202.685 259.181 202.245 259.093 201.805 259.093C200.364 259.093 199.462 260.061 199.462 261.205ZM202.751 265.176C203.257 265.176 203.4 265.352 203.4 265.627C203.4 266.012 202.993 266.287 201.838 266.287C200.87 266.287 200.551 266.045 200.551 265.616C200.551 265.462 200.628 265.286 200.859 265.176H202.751ZM201.805 262.107C201.233 262.107 200.826 261.766 200.826 261.205C200.826 260.644 201.2 260.303 201.805 260.303C202.41 260.303 202.784 260.644 202.784 261.205C202.784 261.766 202.377 262.107 201.805 262.107ZM206.337 258.488C206.887 258.488 207.283 258.103 207.283 257.553C207.283 257.003 206.887 256.607 206.337 256.607C205.787 256.607 205.391 257.003 205.391 257.553C205.391 258.103 205.787 258.488 206.337 258.488ZM205.556 265H207.118V259.236H205.556V265ZM211.215 265.132C213.063 265.132 214.24 263.757 214.24 262.118C214.24 260.479 213.063 259.104 211.215 259.104C209.367 259.104 208.19 260.479 208.19 262.118C208.19 263.757 209.367 265.132 211.215 265.132ZM209.752 262.118C209.752 261.084 210.39 260.479 211.215 260.479C212.04 260.479 212.678 261.084 212.678 262.118C212.678 263.152 212.04 263.757 211.215 263.757C210.39 263.757 209.752 263.152 209.752 262.118ZM216.751 259.236H215.31V265H216.872V261.7C216.872 260.93 217.29 260.446 218.049 260.446C218.742 260.446 219.028 260.908 219.028 261.579V265H220.59V261.403C220.59 260.028 219.853 259.104 218.467 259.104C217.609 259.104 217.015 259.445 216.751 259.94V259.236ZM225.465 258.015C225.784 258.015 226.026 257.795 226.026 257.476C226.026 257.146 225.784 256.915 225.465 256.915C225.135 256.915 224.904 257.146 224.904 257.476C224.904 257.795 225.135 258.015 225.465 258.015ZM225.069 265H225.85V259.401H225.069V265ZM227.27 263.416C227.391 264.329 228.029 265.132 229.558 265.132C231.076 265.132 231.791 264.329 231.791 263.482C231.791 261.128 228.348 262.437 228.348 260.886C228.348 260.38 228.777 259.951 229.646 259.951C230.537 259.951 230.955 260.435 231.021 261.04L231.769 260.787C231.615 260.072 231.054 259.269 229.668 259.269C228.337 259.269 227.589 260.061 227.589 260.919C227.589 263.218 231.032 261.898 231.032 263.504C231.032 264.065 230.504 264.45 229.558 264.45C228.601 264.45 228.117 263.977 228.051 263.273L227.27 263.416ZM237.607 259.841L241.017 265H242.634V257.19H241.072V262.349L237.662 257.19H236.045V265H237.607V259.841ZM252.039 261.095C252.039 258.752 250.345 257.025 247.98 257.025C245.615 257.025 243.921 258.752 243.921 261.095C243.921 263.438 245.615 265.165 247.98 265.165C250.345 265.165 252.039 263.438 252.039 261.095ZM250.345 261.095C250.345 262.635 249.366 263.636 247.98 263.636C246.594 263.636 245.615 262.635 245.615 261.095C245.615 259.555 246.594 258.554 247.98 258.554C249.366 258.554 250.345 259.555 250.345 261.095ZM253.918 265L254.391 263.658H257.603L258.076 265H259.803L256.866 257.19H255.172L252.235 265H253.918ZM256.008 259.17L257.086 262.217H254.908L255.986 259.17H256.008ZM262.075 257.19H260.601V265H262.141V259.676L264.341 262.503H264.385L266.585 259.676V265H268.125V257.19H266.651L264.363 260.215L262.075 257.19Z" fill="#666D80"></path><g opacity="0.6"><path fill-rule="evenodd" clip-rule="evenodd" d="M171.5 267H162.5C161.675 267 161 266.325 161 265.5V256.5C161 255.675 161.675 255 162.5 255H171.5C172.325 255 173 255.675 173 256.5V265.5C173 266.325 172.325 267 171.5 267ZM171.5 256.5H162.5V265.5H171.5V256.5ZM164.15 260.625L166.55 263.025C166.775 263.325 167.225 263.325 167.525 263.025L169.85 260.625C170.075 260.325 170.075 259.95 169.85 259.65C169.55 259.35 169.1 259.35 168.875 259.65L167 261.6L165.125 259.65C164.825 259.35 164.375 259.35 164.15 259.65C163.925 259.95 163.925 260.325 164.15 260.625Z" fill="#666D80"></path></g><rect x="211" y="155" width="254" height="36" rx="8" fill="white" stroke="#E6E7EA" stroke-width="2"></rect><path fill-rule="evenodd" clip-rule="evenodd" d="M443.249 172.495C442.749 171.997 443 171 443.999 171C444.998 171 446.991 171 447.995 171C448.999 171 449.251 171.995 448.749 172.495L446.749 174.7C446.299 175.1 445.699 175.1 445.252 174.7L443.249 172.495Z" fill="#E6E7EA"></path><path d="M251.462 173.084C251.462 175.526 253.145 177.143 255.389 177.143C257.215 177.143 258.689 176.12 259.107 174.426L257.457 174.085C257.226 175.064 256.434 175.614 255.389 175.614C253.959 175.614 253.156 174.624 253.156 173.084C253.156 171.544 253.959 170.554 255.389 170.554C256.434 170.554 257.226 171.104 257.457 172.083L259.107 171.742C258.689 170.048 257.215 169.025 255.389 169.025C253.145 169.025 251.462 170.642 251.462 173.084ZM262.863 177.132C264.711 177.132 265.888 175.757 265.888 174.118C265.888 172.479 264.711 171.104 262.863 171.104C261.015 171.104 259.838 172.479 259.838 174.118C259.838 175.757 261.015 177.132 262.863 177.132ZM261.4 174.118C261.4 173.084 262.038 172.479 262.863 172.479C263.688 172.479 264.326 173.084 264.326 174.118C264.326 175.152 263.688 175.757 262.863 175.757C262.038 175.757 261.4 175.152 261.4 174.118ZM272.128 173.722C272.128 172.919 272.513 172.446 273.25 172.446C273.943 172.446 274.174 172.941 274.174 173.579V177H275.736V173.403C275.736 172.061 275.032 171.104 273.646 171.104C272.821 171.104 272.238 171.357 271.732 171.918C271.402 171.412 270.841 171.104 270.06 171.104C269.235 171.104 268.663 171.445 268.399 171.94V171.236H266.958V177H268.52V173.689C268.52 172.919 268.916 172.446 269.642 172.446C270.335 172.446 270.566 172.941 270.566 173.579V177H272.128V173.722ZM278.672 176.384C278.969 176.78 279.563 177.132 280.377 177.132C282.049 177.132 283.028 175.79 283.028 174.118C283.028 172.446 282.049 171.104 280.377 171.104C279.563 171.104 278.914 171.412 278.551 171.94V171.236H277.11V179.288H278.672V176.384ZM278.628 174.118C278.628 173.183 279.178 172.479 280.047 172.479C280.916 172.479 281.466 173.183 281.466 174.118C281.466 175.053 280.916 175.757 280.047 175.757C279.178 175.757 278.628 175.053 278.628 174.118ZM285.434 173.139C285.5 172.677 285.808 172.391 286.501 172.391C287.205 172.391 287.546 172.677 287.546 173.238V173.282L286.017 173.535C284.477 173.788 283.773 174.437 283.773 175.438C283.773 176.373 284.4 177.132 285.797 177.132C286.699 177.132 287.326 176.857 287.788 176.362C288.041 176.923 288.558 177.077 289.097 177.077C289.383 177.077 289.504 177.033 289.504 177.033V175.845C289.504 175.845 289.46 175.856 289.339 175.856C289.13 175.856 289.031 175.724 289.031 175.482V173.249C289.031 171.907 288.195 171.104 286.501 171.104C284.818 171.104 284.103 171.951 283.938 172.864L285.434 173.139ZM287.546 174.393V174.602C287.546 175.394 287.062 175.922 286.149 175.922C285.489 175.922 285.28 175.68 285.28 175.317C285.28 174.965 285.533 174.767 286.171 174.646L287.546 174.393ZM291.925 171.236H290.484V177H292.046V173.7C292.046 172.93 292.464 172.446 293.223 172.446C293.916 172.446 294.202 172.908 294.202 173.579V177H295.764V173.403C295.764 172.028 295.027 171.104 293.641 171.104C292.783 171.104 292.189 171.445 291.925 171.94V171.236ZM298.459 176.912L298.338 177.198C298.03 177.946 297.645 178.056 297.183 178.056C297.007 178.056 296.886 178.034 296.886 178.034V179.376C296.886 179.376 297.139 179.409 297.359 179.409C298.404 179.409 299.174 178.914 299.757 177.473L302.254 171.236H300.626L299.229 175.086L297.843 171.236H296.182L298.459 176.912ZM305.383 175.317C305.515 176.307 306.164 177.132 307.858 177.132C309.42 177.132 310.3 176.318 310.3 175.284C310.3 172.919 307.132 173.887 307.132 172.919C307.132 172.6 307.418 172.358 307.924 172.358C308.485 172.358 308.771 172.688 308.804 173.106L310.278 172.831C310.146 172.028 309.519 171.104 307.935 171.104C306.516 171.104 305.625 171.962 305.625 173.007C305.625 175.295 308.804 174.382 308.804 175.35C308.804 175.669 308.496 175.878 307.902 175.878C307.253 175.878 306.967 175.515 306.934 175.097L305.383 175.317ZM312.115 170.488C312.665 170.488 313.061 170.103 313.061 169.553C313.061 169.003 312.665 168.607 312.115 168.607C311.565 168.607 311.169 169.003 311.169 169.553C311.169 170.103 311.565 170.488 312.115 170.488ZM311.334 177H312.896V171.236H311.334V177ZM319.017 172.523V171.236H314.21V172.589H317.048L314.166 175.713V177H319.061V175.647H316.124L319.017 172.523ZM323.743 175.119C323.534 175.581 323.116 175.79 322.599 175.79C321.818 175.79 321.312 175.361 321.202 174.569H325.382C325.382 174.569 325.404 174.36 325.404 174.107C325.404 172.402 324.249 171.104 322.544 171.104C320.839 171.104 319.651 172.402 319.651 174.107C319.651 175.878 320.85 177.132 322.555 177.132C323.886 177.132 324.766 176.461 325.184 175.449L323.743 175.119ZM322.533 172.358C323.259 172.358 323.732 172.798 323.842 173.447H321.224C321.356 172.787 321.818 172.358 322.533 172.358ZM329.955 170.015C330.274 170.015 330.516 169.795 330.516 169.476C330.516 169.146 330.274 168.915 329.955 168.915C329.625 168.915 329.394 169.146 329.394 169.476C329.394 169.795 329.625 170.015 329.955 170.015ZM329.559 177H330.34V171.401H329.559V177ZM331.76 175.416C331.881 176.329 332.519 177.132 334.048 177.132C335.566 177.132 336.281 176.329 336.281 175.482C336.281 173.128 332.838 174.437 332.838 172.886C332.838 172.38 333.267 171.951 334.136 171.951C335.027 171.951 335.445 172.435 335.511 173.04L336.259 172.787C336.105 172.072 335.544 171.269 334.158 171.269C332.827 171.269 332.079 172.061 332.079 172.919C332.079 175.218 335.522 173.898 335.522 175.504C335.522 176.065 334.994 176.45 334.048 176.45C333.091 176.45 332.607 175.977 332.541 175.273L331.76 175.416ZM342.8 175.339C344.186 175.339 345.033 174.47 345.033 173.304C345.033 172.985 344.967 172.699 344.846 172.435C344.813 172.347 344.78 172.193 344.78 172.017C344.78 171.621 345.077 171.379 345.462 171.379C345.649 171.379 345.77 171.39 345.77 171.39V170.675C345.748 170.675 345.66 170.664 345.484 170.664C344.824 170.664 344.285 171.038 344.131 171.621C343.779 171.401 343.328 171.269 342.8 171.269C341.414 171.269 340.567 172.138 340.567 173.304C340.567 173.887 340.776 174.393 341.161 174.756C340.82 174.932 340.413 175.262 340.413 175.878C340.413 176.329 340.6 176.648 340.897 176.846C340.732 176.945 340.27 177.297 340.27 177.957C340.27 178.947 340.996 179.497 342.866 179.497C344.824 179.497 345.561 178.672 345.561 177.803C345.561 176.978 345.066 176.373 343.768 176.373H341.733C341.326 176.373 341.15 176.131 341.15 175.823C341.15 175.306 341.656 175.13 341.689 175.119C342.008 175.262 342.382 175.339 342.8 175.339ZM342.8 174.657C341.887 174.657 341.326 174.14 341.326 173.304C341.326 172.468 341.887 171.951 342.8 171.951C343.713 171.951 344.274 172.468 344.274 173.304C344.274 174.14 343.713 174.657 342.8 174.657ZM343.845 177.099C344.373 177.099 344.802 177.275 344.802 177.803C344.802 178.408 344.208 178.76 342.866 178.76C341.59 178.76 341.029 178.496 341.029 177.88C341.029 177.484 341.315 177.187 341.568 177.099H343.845ZM349.539 171.357C349.539 171.357 349.407 171.346 349.352 171.346C348.318 171.346 347.768 171.885 347.559 172.27V171.401H346.811V177H347.592V173.821C347.592 172.655 348.307 172.083 349.264 172.083C349.407 172.083 349.539 172.094 349.539 172.094V171.357ZM354.545 175.262C354.259 175.955 353.632 176.428 352.774 176.428C351.597 176.428 350.86 175.559 350.783 174.426H355.436C355.436 174.426 355.447 174.25 355.447 174.129C355.447 172.545 354.424 171.269 352.752 171.269C351.069 171.269 350.002 172.644 350.002 174.195C350.002 175.768 350.992 177.132 352.763 177.132C353.962 177.132 354.831 176.472 355.227 175.559L354.545 175.262ZM352.752 171.973C353.852 171.973 354.567 172.71 354.666 173.788H350.805C350.937 172.754 351.663 171.973 352.752 171.973ZM359.041 171.94C360.097 171.94 360.625 172.413 360.625 173.359V173.513L358.667 173.766C357.215 173.953 356.555 174.558 356.555 175.46C356.555 176.472 357.182 177.132 358.513 177.132C359.426 177.132 360.24 176.758 360.669 176.131C360.757 176.692 361.219 177.022 361.725 177.022C361.967 177.022 362.077 176.989 362.077 176.989V176.34C362.077 176.34 362.033 176.362 361.879 176.362C361.571 176.362 361.406 176.175 361.406 175.823V173.37C361.406 172.127 360.691 171.269 359.074 171.269C357.6 171.269 356.907 171.973 356.72 172.897L357.457 173.051C357.611 172.259 358.216 171.94 359.041 171.94ZM360.625 174.129V174.778C360.625 175.57 359.954 176.483 358.623 176.483C357.996 176.483 357.325 176.263 357.325 175.46C357.325 174.899 357.699 174.525 358.766 174.382L360.625 174.129ZM365.48 176.263C365.48 176.263 365.227 176.318 364.985 176.318C364.446 176.318 364.215 176.032 364.215 175.438V172.061H365.502V171.401H364.215V169.806H363.434V171.401H362.367V172.061H363.434V175.493C363.434 176.505 363.94 177.022 364.886 177.022C365.282 177.022 365.48 176.967 365.48 176.967V176.263ZM370.766 175.262C370.48 175.955 369.853 176.428 368.995 176.428C367.818 176.428 367.081 175.559 367.004 174.426H371.657C371.657 174.426 371.668 174.25 371.668 174.129C371.668 172.545 370.645 171.269 368.973 171.269C367.29 171.269 366.223 172.644 366.223 174.195C366.223 175.768 367.213 177.132 368.984 177.132C370.183 177.132 371.052 176.472 371.448 175.559L370.766 175.262ZM368.973 171.973C370.073 171.973 370.788 172.71 370.887 173.788H367.026C367.158 172.754 367.884 171.973 368.973 171.973ZM375.889 171.357C375.889 171.357 375.757 171.346 375.702 171.346C374.668 171.346 374.118 171.885 373.909 172.27V171.401H373.161V177H373.942V173.821C373.942 172.655 374.657 172.083 375.614 172.083C375.757 172.083 375.889 172.094 375.889 172.094V171.357ZM382.152 176.263C382.152 176.263 381.899 176.318 381.657 176.318C381.118 176.318 380.887 176.032 380.887 175.438V172.061H382.174V171.401H380.887V169.806H380.106V171.401H379.039V172.061H380.106V175.493C380.106 176.505 380.612 177.022 381.558 177.022C381.954 177.022 382.152 176.967 382.152 176.967V176.263ZM384.212 168.75H383.431V177H384.212V173.689C384.212 172.545 384.949 171.951 385.895 171.951C386.896 171.951 387.369 172.567 387.369 173.579V177H388.15V173.425C388.15 172.182 387.413 171.269 386.027 171.269C384.982 171.269 384.41 171.841 384.212 172.182V168.75ZM392.106 171.94C393.162 171.94 393.69 172.413 393.69 173.359V173.513L391.732 173.766C390.28 173.953 389.62 174.558 389.62 175.46C389.62 176.472 390.247 177.132 391.578 177.132C392.491 177.132 393.305 176.758 393.734 176.131C393.822 176.692 394.284 177.022 394.79 177.022C395.032 177.022 395.142 176.989 395.142 176.989V176.34C395.142 176.34 395.098 176.362 394.944 176.362C394.636 176.362 394.471 176.175 394.471 175.823V173.37C394.471 172.127 393.756 171.269 392.139 171.269C390.665 171.269 389.972 171.973 389.785 172.897L390.522 173.051C390.676 172.259 391.281 171.94 392.106 171.94ZM393.69 174.129V174.778C393.69 175.57 393.019 176.483 391.688 176.483C391.061 176.483 390.39 176.263 390.39 175.46C390.39 174.899 390.764 174.525 391.831 174.382L393.69 174.129ZM397.134 171.401H396.386V177H397.167V173.667C397.167 172.545 397.904 171.951 398.85 171.951C399.851 171.951 400.324 172.567 400.324 173.579V177H401.105V173.425C401.105 172.182 400.368 171.269 398.982 171.269C397.893 171.269 397.332 171.896 397.134 172.259V171.401ZM410.723 175.68H409.062V169.19H407.764L405.828 169.729V170.774H407.456V175.68H405.795V177H410.723V175.68ZM414.464 177.165C416.367 177.165 417.302 175.46 417.302 173.095C417.302 170.73 416.367 169.025 414.464 169.025C412.561 169.025 411.626 170.73 411.626 173.095C411.626 175.46 412.561 177.165 414.464 177.165ZM414.464 170.543C415.278 170.543 415.674 171.324 415.674 173.095C415.674 174.866 415.278 175.647 414.464 175.647C413.65 175.647 413.254 174.866 413.254 173.095C413.254 171.324 413.65 170.543 414.464 170.543ZM420.866 177.165C422.769 177.165 423.704 175.46 423.704 173.095C423.704 170.73 422.769 169.025 420.866 169.025C418.963 169.025 418.028 170.73 418.028 173.095C418.028 175.46 418.963 177.165 420.866 177.165ZM420.866 170.543C421.68 170.543 422.076 171.324 422.076 173.095C422.076 174.866 421.68 175.647 420.866 175.647C420.052 175.647 419.656 174.866 419.656 173.095C419.656 171.324 420.052 170.543 420.866 170.543ZM427.268 177.165C429.171 177.165 430.106 175.46 430.106 173.095C430.106 170.73 429.171 169.025 427.268 169.025C425.365 169.025 424.43 170.73 424.43 173.095C424.43 175.46 425.365 177.165 427.268 177.165ZM427.268 170.543C428.082 170.543 428.478 171.324 428.478 173.095C428.478 174.866 428.082 175.647 427.268 175.647C426.454 175.647 426.058 174.866 426.058 173.095C426.058 171.324 426.454 170.543 427.268 170.543Z" fill="#666D80"></path><g opacity="0.6"><path fill-rule="evenodd" clip-rule="evenodd" d="M238.25 174.5H236V171.5H238.25C238.7 171.5 239 171.2 239 170.75C239 170.3 238.7 170 238.25 170H236V167.75C236 167.3 235.7 167 235.25 167C234.8 167 234.5 167.3 234.5 167.75V170H231.5V167.75C231.5 167.3 231.2 167 230.75 167C230.3 167 230 167.3 230 167.75V170H227.75C227.3 170 227 170.3 227 170.75C227 171.2 227.3 171.5 227.75 171.5H230V174.5H227.75C227.3 174.5 227 174.8 227 175.25C227 175.7 227.3 176 227.75 176H230V178.25C230 178.7 230.3 179 230.75 179C231.2 179 231.5 178.7 231.5 178.25V176H234.5V178.25C234.5 178.7 234.8 179 235.25 179C235.7 179 236 178.7 236 178.25V176H238.25C238.7 176 239 175.7 239 175.25C239 174.8 238.7 174.5 238.25 174.5ZM231.5 174.5V171.5H234.5V174.5H231.5Z" fill="#666D80"></path></g><rect x="211" y="199" width="254" height="36" rx="8" fill="white" stroke="#E6E7EA" stroke-width="2"></rect><path fill-rule="evenodd" clip-rule="evenodd" d="M443.249 216.495C442.749 215.997 443 215 443.999 215C444.998 215 446.991 215 447.995 215C448.999 215 449.251 215.995 448.749 216.495L446.749 218.7C446.299 219.1 445.699 219.1 445.252 218.7L443.249 216.495Z" fill="#E6E7EA"></path><path d="M256.896 219.526H253.431V213.19H251.825V221H256.896V219.526ZM258.512 214.488C259.062 214.488 259.458 214.103 259.458 213.553C259.458 213.003 259.062 212.607 258.512 212.607C257.962 212.607 257.566 213.003 257.566 213.553C257.566 214.103 257.962 214.488 258.512 214.488ZM257.731 221H259.293V215.236H257.731V221ZM263.247 219.746C262.411 219.746 261.927 219.086 261.927 218.118C261.927 217.15 262.411 216.49 263.247 216.49C263.819 216.49 264.281 216.842 264.402 217.359L265.964 217.095C265.755 216.16 264.908 215.104 263.258 215.104C261.586 215.104 260.365 216.402 260.365 218.118C260.365 219.834 261.586 221.132 263.258 221.132C264.908 221.132 265.755 220.076 265.964 219.141L264.402 218.877C264.281 219.394 263.819 219.746 263.247 219.746ZM270.558 219.119C270.349 219.581 269.931 219.79 269.414 219.79C268.633 219.79 268.127 219.361 268.017 218.569H272.197C272.197 218.569 272.219 218.36 272.219 218.107C272.219 216.402 271.064 215.104 269.359 215.104C267.654 215.104 266.466 216.402 266.466 218.107C266.466 219.878 267.665 221.132 269.37 221.132C270.701 221.132 271.581 220.461 271.999 219.449L270.558 219.119ZM269.348 216.358C270.074 216.358 270.547 216.798 270.657 217.447H268.039C268.171 216.787 268.633 216.358 269.348 216.358ZM274.716 215.236H273.275V221H274.837V217.7C274.837 216.93 275.255 216.446 276.014 216.446C276.707 216.446 276.993 216.908 276.993 217.579V221H278.555V217.403C278.555 216.028 277.818 215.104 276.432 215.104C275.574 215.104 274.98 215.445 274.716 215.94V215.236ZM279.495 219.317C279.627 220.307 280.276 221.132 281.97 221.132C283.532 221.132 284.412 220.318 284.412 219.284C284.412 216.919 281.244 217.887 281.244 216.919C281.244 216.6 281.53 216.358 282.036 216.358C282.597 216.358 282.883 216.688 282.916 217.106L284.39 216.831C284.258 216.028 283.631 215.104 282.047 215.104C280.628 215.104 279.737 215.962 279.737 217.007C279.737 219.295 282.916 218.382 282.916 219.35C282.916 219.669 282.608 219.878 282.014 219.878C281.365 219.878 281.079 219.515 281.046 219.097L279.495 219.317ZM289.174 219.119C288.965 219.581 288.547 219.79 288.03 219.79C287.249 219.79 286.743 219.361 286.633 218.569H290.813C290.813 218.569 290.835 218.36 290.835 218.107C290.835 216.402 289.68 215.104 287.975 215.104C286.27 215.104 285.082 216.402 285.082 218.107C285.082 219.878 286.281 221.132 287.986 221.132C289.317 221.132 290.197 220.461 290.615 219.449L289.174 219.119ZM287.964 216.358C288.69 216.358 289.163 216.798 289.273 217.447H286.655C286.787 216.787 287.249 216.358 287.964 216.358ZM295.884 215.852C295.587 215.456 294.993 215.104 294.179 215.104C292.507 215.104 291.528 216.446 291.528 218.118C291.528 219.79 292.507 221.132 294.179 221.132C294.993 221.132 295.642 220.824 296.005 220.296V221H297.446V212.75H295.884V215.852ZM295.928 218.118C295.928 219.053 295.378 219.757 294.509 219.757C293.64 219.757 293.09 219.053 293.09 218.118C293.09 217.183 293.64 216.479 294.509 216.479C295.378 216.479 295.928 217.183 295.928 218.118ZM301.291 219.317C301.423 220.307 302.072 221.132 303.766 221.132C305.328 221.132 306.208 220.318 306.208 219.284C306.208 216.919 303.04 217.887 303.04 216.919C303.04 216.6 303.326 216.358 303.832 216.358C304.393 216.358 304.679 216.688 304.712 217.106L306.186 216.831C306.054 216.028 305.427 215.104 303.843 215.104C302.424 215.104 301.533 215.962 301.533 217.007C301.533 219.295 304.712 218.382 304.712 219.35C304.712 219.669 304.404 219.878 303.81 219.878C303.161 219.878 302.875 219.515 302.842 219.097L301.291 219.317ZM310.97 219.119C310.761 219.581 310.343 219.79 309.826 219.79C309.045 219.79 308.539 219.361 308.429 218.569H312.609C312.609 218.569 312.631 218.36 312.631 218.107C312.631 216.402 311.476 215.104 309.771 215.104C308.066 215.104 306.878 216.402 306.878 218.107C306.878 219.878 308.077 221.132 309.782 221.132C311.113 221.132 311.993 220.461 312.411 219.449L310.97 219.119ZM309.76 216.358C310.486 216.358 310.959 216.798 311.069 217.447H308.451C308.583 216.787 309.045 216.358 309.76 216.358ZM315.029 217.139C315.095 216.677 315.403 216.391 316.096 216.391C316.8 216.391 317.141 216.677 317.141 217.238V217.282L315.612 217.535C314.072 217.788 313.368 218.437 313.368 219.438C313.368 220.373 313.995 221.132 315.392 221.132C316.294 221.132 316.921 220.857 317.383 220.362C317.636 220.923 318.153 221.077 318.692 221.077C318.978 221.077 319.099 221.033 319.099 221.033V219.845C319.099 219.845 319.055 219.856 318.934 219.856C318.725 219.856 318.626 219.724 318.626 219.482V217.249C318.626 215.907 317.79 215.104 316.096 215.104C314.413 215.104 313.698 215.951 313.533 216.864L315.029 217.139ZM317.141 218.393V218.602C317.141 219.394 316.657 219.922 315.744 219.922C315.084 219.922 314.875 219.68 314.875 219.317C314.875 218.965 315.128 218.767 315.766 218.646L317.141 218.393ZM322.666 219.614C322.666 219.614 322.512 219.669 322.303 219.669C321.896 219.669 321.72 219.493 321.72 219.108V216.468H322.677V215.236H321.72V213.806H320.158V215.236H319.377V216.468H320.158V219.273C320.158 220.384 320.664 221.033 321.929 221.033C322.402 221.033 322.666 220.967 322.666 220.967V219.614ZM323.194 219.317C323.326 220.307 323.975 221.132 325.669 221.132C327.231 221.132 328.111 220.318 328.111 219.284C328.111 216.919 324.943 217.887 324.943 216.919C324.943 216.6 325.229 216.358 325.735 216.358C326.296 216.358 326.582 216.688 326.615 217.106L328.089 216.831C327.957 216.028 327.33 215.104 325.746 215.104C324.327 215.104 323.436 215.962 323.436 217.007C323.436 219.295 326.615 218.382 326.615 219.35C326.615 219.669 326.307 219.878 325.713 219.878C325.064 219.878 324.778 219.515 324.745 219.097L323.194 219.317ZM332.64 214.015C332.959 214.015 333.201 213.795 333.201 213.476C333.201 213.146 332.959 212.915 332.64 212.915C332.31 212.915 332.079 213.146 332.079 213.476C332.079 213.795 332.31 214.015 332.64 214.015ZM332.244 221H333.025V215.401H332.244V221ZM334.445 219.416C334.566 220.329 335.204 221.132 336.733 221.132C338.251 221.132 338.966 220.329 338.966 219.482C338.966 217.128 335.523 218.437 335.523 216.886C335.523 216.38 335.952 215.951 336.821 215.951C337.712 215.951 338.13 216.435 338.196 217.04L338.944 216.787C338.79 216.072 338.229 215.269 336.843 215.269C335.512 215.269 334.764 216.061 334.764 216.919C334.764 219.218 338.207 217.898 338.207 219.504C338.207 220.065 337.679 220.45 336.733 220.45C335.776 220.45 335.292 219.977 335.226 219.273L334.445 219.416ZM345.486 219.339C346.872 219.339 347.719 218.47 347.719 217.304C347.719 216.985 347.653 216.699 347.532 216.435C347.499 216.347 347.466 216.193 347.466 216.017C347.466 215.621 347.763 215.379 348.148 215.379C348.335 215.379 348.456 215.39 348.456 215.39V214.675C348.434 214.675 348.346 214.664 348.17 214.664C347.51 214.664 346.971 215.038 346.817 215.621C346.465 215.401 346.014 215.269 345.486 215.269C344.1 215.269 343.253 216.138 343.253 217.304C343.253 217.887 343.462 218.393 343.847 218.756C343.506 218.932 343.099 219.262 343.099 219.878C343.099 220.329 343.286 220.648 343.583 220.846C343.418 220.945 342.956 221.297 342.956 221.957C342.956 222.947 343.682 223.497 345.552 223.497C347.51 223.497 348.247 222.672 348.247 221.803C348.247 220.978 347.752 220.373 346.454 220.373H344.419C344.012 220.373 343.836 220.131 343.836 219.823C343.836 219.306 344.342 219.13 344.375 219.119C344.694 219.262 345.068 219.339 345.486 219.339ZM345.486 218.657C344.573 218.657 344.012 218.14 344.012 217.304C344.012 216.468 344.573 215.951 345.486 215.951C346.399 215.951 346.96 216.468 346.96 217.304C346.96 218.14 346.399 218.657 345.486 218.657ZM346.531 221.099C347.059 221.099 347.488 221.275 347.488 221.803C347.488 222.408 346.894 222.76 345.552 222.76C344.276 222.76 343.715 222.496 343.715 221.88C343.715 221.484 344.001 221.187 344.254 221.099H346.531ZM352.224 215.357C352.224 215.357 352.092 215.346 352.037 215.346C351.003 215.346 350.453 215.885 350.244 216.27V215.401H349.496V221H350.277V217.821C350.277 216.655 350.992 216.083 351.949 216.083C352.092 216.083 352.224 216.094 352.224 216.094V215.357ZM357.23 219.262C356.944 219.955 356.317 220.428 355.459 220.428C354.282 220.428 353.545 219.559 353.468 218.426H358.121C358.121 218.426 358.132 218.25 358.132 218.129C358.132 216.545 357.109 215.269 355.437 215.269C353.754 215.269 352.687 216.644 352.687 218.195C352.687 219.768 353.677 221.132 355.448 221.132C356.647 221.132 357.516 220.472 357.912 219.559L357.23 219.262ZM355.437 215.973C356.537 215.973 357.252 216.71 357.351 217.788H353.49C353.622 216.754 354.348 215.973 355.437 215.973ZM361.727 215.94C362.783 215.94 363.311 216.413 363.311 217.359V217.513L361.353 217.766C359.901 217.953 359.241 218.558 359.241 219.46C359.241 220.472 359.868 221.132 361.199 221.132C362.112 221.132 362.926 220.758 363.355 220.131C363.443 220.692 363.905 221.022 364.411 221.022C364.653 221.022 364.763 220.989 364.763 220.989V220.34C364.763 220.34 364.719 220.362 364.565 220.362C364.257 220.362 364.092 220.175 364.092 219.823V217.37C364.092 216.127 363.377 215.269 361.76 215.269C360.286 215.269 359.593 215.973 359.406 216.897L360.143 217.051C360.297 216.259 360.902 215.94 361.727 215.94ZM363.311 218.129V218.778C363.311 219.57 362.64 220.483 361.309 220.483C360.682 220.483 360.011 220.263 360.011 219.46C360.011 218.899 360.385 218.525 361.452 218.382L363.311 218.129ZM368.166 220.263C368.166 220.263 367.913 220.318 367.671 220.318C367.132 220.318 366.901 220.032 366.901 219.438V216.061H368.188V215.401H366.901V213.806H366.12V215.401H365.053V216.061H366.12V219.493C366.12 220.505 366.626 221.022 367.572 221.022C367.968 221.022 368.166 220.967 368.166 220.967V220.263ZM373.451 219.262C373.165 219.955 372.538 220.428 371.68 220.428C370.503 220.428 369.766 219.559 369.689 218.426H374.342C374.342 218.426 374.353 218.25 374.353 218.129C374.353 216.545 373.33 215.269 371.658 215.269C369.975 215.269 368.908 216.644 368.908 218.195C368.908 219.768 369.898 221.132 371.669 221.132C372.868 221.132 373.737 220.472 374.133 219.559L373.451 219.262ZM371.658 215.973C372.758 215.973 373.473 216.71 373.572 217.788H369.711C369.843 216.754 370.569 215.973 371.658 215.973ZM378.575 215.357C378.575 215.357 378.443 215.346 378.388 215.346C377.354 215.346 376.804 215.885 376.595 216.27V215.401H375.847V221H376.628V217.821C376.628 216.655 377.343 216.083 378.3 216.083C378.443 216.083 378.575 216.094 378.575 216.094V215.357ZM384.838 220.263C384.838 220.263 384.585 220.318 384.343 220.318C383.804 220.318 383.573 220.032 383.573 219.438V216.061H384.86V215.401H383.573V213.806H382.792V215.401H381.725V216.061H382.792V219.493C382.792 220.505 383.298 221.022 384.244 221.022C384.64 221.022 384.838 220.967 384.838 220.967V220.263ZM386.897 212.75H386.116V221H386.897V217.689C386.897 216.545 387.634 215.951 388.58 215.951C389.581 215.951 390.054 216.567 390.054 217.579V221H390.835V217.425C390.835 216.182 390.098 215.269 388.712 215.269C387.667 215.269 387.095 215.841 386.897 216.182V212.75ZM394.791 215.94C395.847 215.94 396.375 216.413 396.375 217.359V217.513L394.417 217.766C392.965 217.953 392.305 218.558 392.305 219.46C392.305 220.472 392.932 221.132 394.263 221.132C395.176 221.132 395.99 220.758 396.419 220.131C396.507 220.692 396.969 221.022 397.475 221.022C397.717 221.022 397.827 220.989 397.827 220.989V220.34C397.827 220.34 397.783 220.362 397.629 220.362C397.321 220.362 397.156 220.175 397.156 219.823V217.37C397.156 216.127 396.441 215.269 394.824 215.269C393.35 215.269 392.657 215.973 392.47 216.897L393.207 217.051C393.361 216.259 393.966 215.94 394.791 215.94ZM396.375 218.129V218.778C396.375 219.57 395.704 220.483 394.373 220.483C393.746 220.483 393.075 220.263 393.075 219.46C393.075 218.899 393.449 218.525 394.516 218.382L396.375 218.129ZM399.819 215.401H399.071V221H399.852V217.667C399.852 216.545 400.589 215.951 401.535 215.951C402.536 215.951 403.009 216.567 403.009 217.579V221H403.79V217.425C403.79 216.182 403.053 215.269 401.667 215.269C400.578 215.269 400.017 215.896 399.819 216.259V215.401ZM407.986 218.943C408.173 220.296 409.185 221.165 410.714 221.165C412.353 221.165 413.475 220.065 413.475 218.701C413.475 217.909 413.134 217.271 412.331 216.963C413.068 216.644 413.387 216.017 413.387 215.324C413.387 213.96 412.386 213.025 410.78 213.025C409.24 213.025 408.261 214.004 408.129 215.291L409.658 215.555C409.68 215.016 409.999 214.466 410.78 214.466C411.495 214.466 411.836 214.895 411.836 215.423C411.836 215.962 411.484 216.336 410.703 216.336H409.977V217.667H410.681C411.539 217.667 411.88 218.107 411.88 218.701C411.88 219.295 411.429 219.724 410.714 219.724C409.933 219.724 409.548 219.251 409.493 218.635L407.986 218.943ZM417.149 221.165C419.052 221.165 419.987 219.46 419.987 217.095C419.987 214.73 419.052 213.025 417.149 213.025C415.246 213.025 414.311 214.73 414.311 217.095C414.311 219.46 415.246 221.165 417.149 221.165ZM417.149 214.543C417.963 214.543 418.359 215.324 418.359 217.095C418.359 218.866 417.963 219.647 417.149 219.647C416.335 219.647 415.939 218.866 415.939 217.095C415.939 215.324 416.335 214.543 417.149 214.543Z" fill="#666D80"></path><g opacity="0.6"><path fill-rule="evenodd" clip-rule="evenodd" d="M238.25 218.5H236V215.5H238.25C238.7 215.5 239 215.2 239 214.75C239 214.3 238.7 214 238.25 214H236V211.75C236 211.3 235.7 211 235.25 211C234.8 211 234.5 211.3 234.5 211.75V214H231.5V211.75C231.5 211.3 231.2 211 230.75 211C230.3 211 230 211.3 230 211.75V214H227.75C227.3 214 227 214.3 227 214.75C227 215.2 227.3 215.5 227.75 215.5H230V218.5H227.75C227.3 218.5 227 218.8 227 219.25C227 219.7 227.3 220 227.75 220H230V222.25C230 222.7 230.3 223 230.75 223C231.2 223 231.5 222.7 231.5 222.25V220H234.5V222.25C234.5 222.7 234.8 223 235.25 223C235.7 223 236 222.7 236 222.25V220H238.25C238.7 220 239 219.7 239 219.25C239 218.8 238.7 218.5 238.25 218.5ZM231.5 218.5V215.5H234.5V218.5H231.5Z" fill="#666D80"></path></g><path fill-rule="evenodd" clip-rule="evenodd" d="M443.249 84.4953C442.749 83.9969 443 83 443.999 83C444.998 83 446.991 83 447.995 83C448.999 83 449.251 83.9949 448.749 84.4953L446.749 86.7C446.299 87.1 445.699 87.1 445.252 86.7L443.249 84.4953Z" fill="#E6E7EA"></path><g opacity="0.6"><path fill-rule="evenodd" clip-rule="evenodd" d="M94.25 86.5H92V83.5H94.25C94.7 83.5 95 83.2 95 82.75C95 82.3 94.7 82 94.25 82H92V79.75C92 79.3 91.7 79 91.25 79C90.8 79 90.5 79.3 90.5 79.75V82H87.5V79.75C87.5 79.3 87.2 79 86.75 79C86.3 79 86 79.3 86 79.75V82H83.75C83.3 82 83 82.3 83 82.75C83 83.2 83.3 83.5 83.75 83.5H86V86.5H83.75C83.3 86.5 83 86.8 83 87.25C83 87.7 83.3 88 83.75 88H86V90.25C86 90.7 86.3 91 86.75 91C87.2 91 87.5 90.7 87.5 90.25V88H90.5V90.25C90.5 90.7 90.8 91 91.25 91C91.7 91 92 90.7 92 90.25V88H94.25C94.7 88 95 87.7 95 87.25C95 86.8 94.7 86.5 94.25 86.5ZM87.5 86.5V83.5H90.5V86.5H87.5Z" fill="#666D80"></path></g><path d="M161.408 173.004C161.408 175.416 163.172 177.144 165.584 177.144C168.008 177.144 169.772 175.416 169.772 173.004C169.772 170.592 168.008 168.864 165.584 168.864C163.172 168.864 161.408 170.592 161.408 173.004ZM168.02 173.004C168.02 174.492 167.06 175.632 165.584 175.632C164.108 175.632 163.16 174.492 163.16 173.004C163.16 171.504 164.108 170.376 165.584 170.376C167.06 170.376 168.02 171.504 168.02 173.004ZM175.492 177H177.448L175.648 173.952C176.512 173.748 177.4 172.992 177.4 171.576C177.4 170.088 176.38 168.996 174.712 168.996H170.968V177H172.672V174.132H173.92L175.492 177ZM175.66 171.564C175.66 172.236 175.144 172.668 174.46 172.668H172.672V170.46H174.46C175.144 170.46 175.66 170.892 175.66 171.564Z" fill="#838C96"></path><path fill-rule="evenodd" clip-rule="evenodd" d="M185.249 172.495C184.749 171.997 185 171 185.999 171C186.998 171 188.991 171 189.995 171C190.999 171 191.251 171.995 190.749 172.495L188.749 174.7C188.299 175.1 187.699 175.1 187.252 174.7L185.249 172.495Z" fill="#BCC4CC"></path><path d="M161.408 217.004C161.408 219.416 163.172 221.144 165.584 221.144C168.008 221.144 169.772 219.416 169.772 217.004C169.772 214.592 168.008 212.864 165.584 212.864C163.172 212.864 161.408 214.592 161.408 217.004ZM168.02 217.004C168.02 218.492 167.06 219.632 165.584 219.632C164.108 219.632 163.16 218.492 163.16 217.004C163.16 215.504 164.108 214.376 165.584 214.376C167.06 214.376 168.02 215.504 168.02 217.004ZM175.492 221H177.448L175.648 217.952C176.512 217.748 177.4 216.992 177.4 215.576C177.4 214.088 176.38 212.996 174.712 212.996H170.968V221H172.672V218.132H173.92L175.492 221ZM175.66 215.564C175.66 216.236 175.144 216.668 174.46 216.668H172.672V214.46H174.46C175.144 214.46 175.66 214.892 175.66 215.564Z" fill="#838C96"></path><path fill-rule="evenodd" clip-rule="evenodd" d="M185.249 216.495C184.749 215.997 185 215 185.999 215C186.998 215 188.991 215 189.995 215C190.999 215 191.251 215.995 190.749 216.495L188.749 218.7C188.299 219.1 187.699 219.1 187.252 218.7L185.249 216.495Z" fill="#BCC4CC"></path><g clip-path="url(#clip0)"><path d="M107.396 313H109.256L106.172 304.996H104.036L100.94 313H102.812L103.316 311.62H106.892L107.396 313ZM105.104 306.472L106.424 310.144H103.772L105.104 306.472ZM109.995 313H113.151C115.659 313 117.399 311.416 117.399 309.004C117.399 306.592 115.659 304.996 113.151 304.996H109.995V313ZM111.699 311.5V306.496H113.151C114.795 306.496 115.659 307.588 115.659 309.004C115.659 310.36 114.735 311.5 113.151 311.5H111.699ZM118.608 313H121.764C124.272 313 126.012 311.416 126.012 309.004C126.012 306.592 124.272 304.996 121.764 304.996H118.608V313ZM120.312 311.5V306.496H121.764C123.408 306.496 124.272 307.588 124.272 309.004C124.272 310.36 123.348 311.5 121.764 311.5H120.312ZM134.816 313H136.772L134.972 309.952C135.836 309.748 136.724 308.992 136.724 307.576C136.724 306.088 135.704 304.996 134.036 304.996H130.292V313H131.996V310.132H133.244L134.816 313ZM134.984 307.564C134.984 308.236 134.468 308.668 133.784 308.668H131.996V306.46H133.784C134.468 306.46 134.984 306.892 134.984 307.564ZM138.003 309.808C138.003 311.776 139.143 313.144 141.591 313.144C144.015 313.144 145.155 311.788 145.155 309.796V304.996H143.427V309.748C143.427 310.864 142.815 311.632 141.591 311.632C140.343 311.632 139.731 310.864 139.731 309.748V304.996H138.003V309.808ZM146.733 313H151.821V311.5H148.437V304.996H146.733V313ZM153.015 313H158.679V311.524H154.719V309.664H158.595V308.2H154.719V306.46H158.679V304.996H153.015V313Z" fill="#A1ABB4"></path></g><path fill-rule="evenodd" clip-rule="evenodd" d="M89 303.001C85.6865 303.001 83 305.687 83 309C83 312.314 85.6865 314.999 89 314.999C92.3135 314.999 95 312.314 95 309C95 305.687 92.3135 303.001 89 303.001ZM89 313.499C86.5182 313.499 84.4992 311.482 84.4992 309C84.4992 306.518 86.5182 304.501 89 304.501C91.481 304.501 93.5 306.518 93.5 309C93.5 311.482 91.481 313.499 89 313.499ZM91.2575 308.25H89.7492V306.742C89.7492 306.332 89.4178 306 89.0075 306H88.9918C88.5823 306 88.25 306.332 88.25 306.742V308.25H86.7425C86.3323 308.25 86 308.582 86 308.992V309.007C86 309.418 86.3323 309.75 86.7425 309.75H88.25V311.257C88.25 311.668 88.5823 312 88.9918 312H89.0075C89.4178 312 89.7492 311.668 89.7492 311.257V309.75H91.2575C91.667 309.75 92 309.418 92 309.007V308.992C92 308.582 91.667 308.25 91.2575 308.25Z" fill="#BCC4CC"></path><rect x="1" y="1" width="175" height="172" rx="16" fill="white" stroke="#E6E7EA" stroke-width="2"></rect><rect x="58" y="33" width="48" height="4" rx="2" fill="#FFD4D7"></rect><rect x="122" y="32" width="6" height="6" rx="3" fill="white" stroke="#E6E7EA" stroke-width="2"></rect><rect x="134" y="32" width="6" height="6" rx="3" fill="white" stroke="#E6E7EA" stroke-width="2"></rect><rect x="146" y="32" width="6" height="6" rx="3" fill="white" stroke="#E6E7EA" stroke-width="2"></rect><rect x="58" y="33" width="39" height="4" rx="2" fill="#E81D2E"></rect><path d="M29.7771 40.21C31.9471 40.21 33.1791 39.006 33.1791 37.312C33.1791 36.36 32.7171 35.38 31.7511 34.862C32.5771 34.4 32.9551 33.546 32.9551 32.692C32.9551 31.096 31.7791 29.85 29.7771 29.85C27.7751 29.85 26.6131 31.082 26.6131 32.664C26.6131 33.518 26.9911 34.386 27.7891 34.862C26.8231 35.366 26.3611 36.36 26.3611 37.312C26.3611 39.006 27.6071 40.21 29.7771 40.21ZM29.7771 35.688C30.8271 35.688 31.4711 36.318 31.4711 37.2C31.4711 38.012 30.9251 38.726 29.7771 38.726C28.6291 38.726 28.0831 38.012 28.0831 37.2C28.0831 36.318 28.7271 35.688 29.7771 35.688ZM29.7771 34.162C28.7691 34.162 28.2091 33.546 28.2091 32.706C28.2091 31.992 28.7131 31.32 29.7771 31.32C30.8411 31.32 31.3591 32.02 31.3591 32.734C31.3591 33.574 30.7711 34.162 29.7771 34.162ZM37.9256 40.21C40.0956 40.21 41.3276 39.006 41.3276 37.312C41.3276 36.36 40.8656 35.38 39.8996 34.862C40.7256 34.4 41.1036 33.546 41.1036 32.692C41.1036 31.096 39.9276 29.85 37.9256 29.85C35.9236 29.85 34.7616 31.082 34.7616 32.664C34.7616 33.518 35.1396 34.386 35.9376 34.862C34.9716 35.366 34.5096 36.36 34.5096 37.312C34.5096 39.006 35.7556 40.21 37.9256 40.21ZM37.9256 35.688C38.9756 35.688 39.6196 36.318 39.6196 37.2C39.6196 38.012 39.0736 38.726 37.9256 38.726C36.7776 38.726 36.2316 38.012 36.2316 37.2C36.2316 36.318 36.8756 35.688 37.9256 35.688ZM37.9256 34.162C36.9176 34.162 36.3576 33.546 36.3576 32.706C36.3576 31.992 36.8616 31.32 37.9256 31.32C38.9896 31.32 39.5076 32.02 39.5076 32.734C39.5076 33.574 38.9196 34.162 37.9256 34.162Z" fill="#666D80"></path><rect x="58" y="68" width="48" height="4" rx="2" fill="#FFD4D7"></rect><rect x="122" y="67" width="6" height="6" rx="3" fill="#FFA8AF" stroke="#FFA8AF" stroke-width="2"></rect><rect x="134" y="67" width="6" height="6" rx="3" fill="#FF7D88" stroke="#FF7D88" stroke-width="2"></rect><rect x="146" y="67" width="6" height="6" rx="3" fill="white" stroke="#E6E7EA" stroke-width="2"></rect><rect x="58" y="68" width="35" height="4" rx="2" fill="#E81D2E"></rect><path d="M27.8171 67.874V66.6H31.3871C29.7351 68.882 28.7831 71.598 28.2651 75H30.0431C30.5471 71.654 31.2331 69.344 33.3331 66.572V65.06H26.1651V67.874H27.8171ZM37.8416 64.85C35.7556 64.85 34.3276 66.39 34.3276 68.266C34.3276 70.058 35.5176 71.57 37.5056 71.57C38.1496 71.57 38.6116 71.36 38.9476 71.136C38.1776 72.55 36.9176 73.922 35.8116 75H37.9116C39.8716 72.9 41.3696 70.744 41.3696 68.434C41.3696 66.46 40.0256 64.85 37.8416 64.85ZM36.0636 68.266C36.0636 67.132 36.8056 66.348 37.8416 66.348C38.8916 66.348 39.6196 67.132 39.6196 68.266C39.6196 69.4 38.8916 70.184 37.8416 70.184C36.8056 70.184 36.0636 69.4 36.0636 68.266Z" fill="#666D80"></path><rect x="58" y="103" width="48" height="4" rx="2" fill="#FFD4D7"></rect><rect x="122" y="102" width="6" height="6" rx="3" fill="#FFA8AF" stroke="#FFA8AF" stroke-width="2"></rect><rect x="134" y="102" width="6" height="6" rx="3" fill="#FF7D88" stroke="#FF7D88" stroke-width="2"></rect><rect x="146" y="102" width="6" height="6" rx="3" fill="#E81D2E" stroke="#E81D2E" stroke-width="2"></rect><rect x="58" y="103" width="23" height="4" rx="2" fill="#E81D2E"></rect><path d="M26.4311 107.704C26.7531 109.216 27.9711 110.21 29.7771 110.21C31.8771 110.21 33.2631 108.712 33.2631 106.724C33.2631 105.114 32.3671 103.392 30.1271 103.392C29.2311 103.392 28.5871 103.826 28.3771 104.036L28.7131 101.628H32.6891V100.06H27.4251L26.5991 105.828H28.1391C28.2091 105.66 28.6991 104.862 29.7771 104.862C30.8831 104.862 31.5551 105.604 31.5551 106.724C31.5551 107.886 30.8551 108.656 29.7771 108.656C28.7691 108.656 28.2371 107.998 28.0971 107.298L26.4311 107.704ZM36.2596 103.504C36.2456 103.434 36.2316 103.294 36.2316 103.098C36.2316 102.146 36.7356 101.418 37.8416 101.418C38.8076 101.418 39.4376 102.034 39.4376 102.958C39.4376 103.686 39.1576 104.232 38.4996 104.848L34.5796 108.586V110H41.3416V108.432H36.9176L39.4656 106.178C40.6836 105.1 41.1596 104.218 41.1596 102.916C41.1596 101.138 39.9276 99.85 37.8416 99.85C35.8536 99.85 34.5516 101.152 34.5516 103.07V103.238L36.2596 103.504Z" fill="#666D80"></path><rect x="58" y="138" width="48" height="4" rx="2" fill="#FFD4D7"></rect><rect x="122" y="137" width="6" height="6" rx="3" fill="white" stroke="#E6E7EA" stroke-width="2"></rect><rect x="134" y="137" width="6" height="6" rx="3" fill="white" stroke="#E6E7EA" stroke-width="2"></rect><rect x="146" y="137" width="6" height="6" rx="3" fill="white" stroke="#E6E7EA" stroke-width="2"></rect><rect x="58" y="138" width="17" height="4" rx="2" fill="#E81D2E"></rect><path d="M33.0671 143.586H30.8831V135.06H29.5111L27.0471 135.62V136.74H29.1751V143.586H26.9911V145H33.0671V143.586ZM38.0096 145.21C40.0956 145.21 41.5236 143.67 41.5236 141.794C41.5236 140.002 40.3336 138.504 38.3456 138.504C37.7016 138.504 37.2256 138.714 36.9036 138.938C37.6596 137.524 38.9196 136.138 40.0396 135.06H37.9396C35.9796 137.16 34.4816 139.33 34.4816 141.626C34.4816 143.6 35.8256 145.21 38.0096 145.21ZM39.7876 141.794C39.7876 142.942 39.0456 143.712 38.0096 143.712C36.9596 143.712 36.2316 142.942 36.2316 141.794C36.2316 140.66 36.9596 139.89 38.0096 139.89C39.0456 139.89 39.7876 140.66 39.7876 141.794Z" fill="#666D80"></path><defs><clipPath id="clip0"><rect width="59" height="12" fill="white" transform="translate(101 303)"></rect></clipPath></defs></svg> 