<svg width="454" height="362" viewBox="0 0 454 362" fill="none" xmlns="http://www.w3.org/2000/svg">
<rect x="44" y="33" width="373" height="296" rx="12" fill="white" stroke="#E6E7EA" stroke-width="2"/>
<rect x="76" y="97" width="309" height="72" rx="8" fill="white" stroke="#E6E7EA" stroke-width="2"/>
<ellipse cx="110.042" cy="133" rx="17.9579" ry="18" stroke="#E5E5E5" stroke-width="2"/>
<mask id="mask0" mask-type="alpha" maskUnits="userSpaceOnUse" x="92" y="115" width="36" height="36">
<ellipse cx="109.958" cy="133" rx="17.9579" ry="18" fill="#FFC600"/>
</mask>
<g mask="url(#mask0)">
<path d="M113.15 139.77C113.15 140.753 113.11 141.503 113.21 142.579C114.381 145.721 122.258 144.838 122.624 150.898H97.191C97.557 144.838 105.468 145.721 106.64 142.579C106.739 141.503 106.702 140.753 106.702 139.77C102.766 139.336 100.932 138.191 100.855 138.141C100.757 138.075 100.685 137.974 100.665 137.858C100.645 137.741 100.677 137.628 100.746 137.534C102.337 135.384 102.39 134.442 101.802 131.482C101.613 130.526 101.613 130.107 101.613 129.433V129.433C101.613 124.705 104.56 121.763 109.304 121.763C110.283 121.763 111.753 122.073 113.258 123.556C116.813 123.666 118.231 126.614 118.231 129.433C118.231 129.848 118.231 130.865 117.903 131.832C117.075 134.272 117.452 135.455 119.067 137.521C119.143 137.617 119.171 137.738 119.149 137.858C119.127 137.977 119.064 138.09 118.959 138.154L118.957 138.156C118.852 138.22 117.057 139.336 113.15 139.77Z" stroke="#E5E5E5" stroke-width="2"/>
</g>
<rect x="144" y="121" width="172" height="8" rx="4" fill="white" stroke="#E6E7EA" stroke-width="2"/>
<rect x="144" y="137" width="153" height="8" rx="4" fill="white" stroke="#E6E7EA" stroke-width="2"/>
<rect x="76" y="1" width="309" height="72" rx="8" fill="white" stroke="#E6E7EA" stroke-width="2"/>
<circle cx="109.998" cy="37.0013" r="17.998" stroke="#E5E5E5" stroke-width="2"/>
<mask id="mask1" mask-type="alpha" maskUnits="userSpaceOnUse" x="92" y="19" width="36" height="36">
<circle cx="110" cy="36.998" r="17.998" fill="#2693FF"/>
</mask>
<g mask="url(#mask1)">
<path d="M114.164 48.0014C114.021 46.7408 114.078 45.8617 114.078 44.711C114.778 44.4118 116.552 42.5041 116.761 40.8924C117.312 40.8558 118.18 40.4193 118.435 38.6917C118.569 37.7637 118.027 37.2418 117.693 37.077C118.588 34.8823 120.448 28.0908 114.257 27.3887C113.617 26.476 111.985 26.0151 109.866 26.0151C101.38 26.1433 100.358 31.2408 102.219 37.077C101.886 37.2418 101.343 37.7637 101.478 38.6917C101.736 40.4193 102.601 40.8558 103.151 40.8924C103.361 42.5041 105.183 44.4118 105.887 44.711C105.887 45.8617 105.94 46.7408 105.797 48.0014C104.12 51.6826 92.273 50.6478 91.7489 57.7477H128.163C127.639 50.6478 115.841 51.6826 114.164 48.0014Z" stroke="#E5E5E5" stroke-width="2"/>
</g>
<rect x="144" y="25" width="148" height="8" rx="4" fill="white" stroke="#E6E7EA" stroke-width="2"/>
<rect x="144" y="41" width="105" height="8" rx="4" fill="white" stroke="#E6E7EA" stroke-width="2"/>
<rect x="76" y="193" width="309" height="72" rx="8" fill="white" stroke="#E6E7EA" stroke-width="2"/>
<circle cx="109.998" cy="229.001" r="17.998" stroke="#E5E5E5" stroke-width="2"/>
<mask id="mask2" mask-type="alpha" maskUnits="userSpaceOnUse" x="92" y="211" width="36" height="36">
<circle cx="110" cy="228.998" r="17.998" fill="#2693FF"/>
</mask>
<g mask="url(#mask2)">
<path d="M114.164 240.001C114.021 238.741 114.078 237.862 114.078 236.711C114.778 236.412 116.552 234.504 116.761 232.892C117.312 232.856 118.18 232.419 118.435 230.692C118.569 229.764 118.027 229.242 117.693 229.077C118.588 226.882 120.448 220.091 114.257 219.389C113.617 218.476 111.985 218.015 109.866 218.015C101.38 218.143 100.358 223.241 102.219 229.077C101.886 229.242 101.343 229.764 101.478 230.692C101.736 232.419 102.601 232.856 103.151 232.892C103.361 234.504 105.183 236.412 105.887 236.711C105.887 237.862 105.94 238.741 105.797 240.001C104.12 243.683 92.273 242.648 91.7489 249.748H128.163C127.639 242.648 115.841 243.683 114.164 240.001Z" stroke="#E5E5E5" stroke-width="2"/>
</g>
<rect x="144" y="217" width="148" height="8" rx="4" fill="white" stroke="#E6E7EA" stroke-width="2"/>
<rect x="144" y="233" width="105" height="8" rx="4" fill="white" stroke="#E6E7EA" stroke-width="2"/>
<rect x="76" y="289" width="309" height="72" rx="8" fill="white" stroke="#E6E7EA" stroke-width="2"/>
<ellipse cx="110.042" cy="325" rx="17.9579" ry="18" stroke="#E5E5E5" stroke-width="2"/>
<mask id="mask3" mask-type="alpha" maskUnits="userSpaceOnUse" x="92" y="307" width="36" height="36">
<ellipse cx="109.958" cy="325" rx="17.9579" ry="18" fill="#FFC600"/>
</mask>
<g mask="url(#mask3)">
<path d="M113.15 331.77C113.15 332.753 113.11 333.503 113.21 334.579C114.381 337.721 122.258 336.838 122.624 342.898H97.191C97.557 336.838 105.468 337.721 106.64 334.579C106.739 333.503 106.702 332.753 106.702 331.77C102.766 331.336 100.932 330.191 100.855 330.141C100.757 330.075 100.685 329.974 100.665 329.858C100.645 329.741 100.677 329.628 100.746 329.534C102.337 327.384 102.39 326.442 101.802 323.482C101.613 322.526 101.613 322.107 101.613 321.433V321.433C101.613 316.705 104.56 313.763 109.304 313.763C110.283 313.763 111.753 314.073 113.258 315.556C116.813 315.666 118.231 318.614 118.231 321.433C118.231 321.848 118.231 322.865 117.903 323.832C117.075 326.272 117.452 327.455 119.067 329.521C119.143 329.617 119.171 329.738 119.149 329.858C119.127 329.977 119.064 330.09 118.959 330.154L118.957 330.156C118.852 330.22 117.057 331.336 113.15 331.77Z" stroke="#E5E5E5" stroke-width="2"/>
</g>
<rect x="144" y="313" width="172" height="8" rx="4" fill="white" stroke="#E6E7EA" stroke-width="2"/>
<rect x="144" y="329" width="153" height="8" rx="4" fill="white" stroke="#E6E7EA" stroke-width="2"/>
<g filter="url(#filter0_d)">
<path fill-rule="evenodd" clip-rule="evenodd" d="M32 142C32 133.163 39.1634 126 48 126H414C422.837 126 430 133.163 430 142V220C430 228.837 422.837 236 414 236H48C39.1634 236 32 228.837 32 220V142Z" fill="white"/>
</g>
<path d="M97.624 153.64H89.096V155.48H92.392V165H94.328V155.48H97.624V153.64ZM101.412 165.192C104.068 165.192 105.732 163.192 105.732 160.856C105.732 158.52 104.068 156.504 101.412 156.504C98.772 156.504 97.108 158.52 97.108 160.856C97.108 163.192 98.772 165.192 101.412 165.192ZM99.012 160.856C99.012 159.24 100.036 158.184 101.412 158.184C102.804 158.184 103.828 159.24 103.828 160.856C103.828 162.456 102.804 163.512 101.412 163.512C100.036 163.512 99.012 162.456 99.012 160.856ZM114.728 160.232C114.728 158.888 115.464 158.136 116.6 158.136C117.752 158.136 118.168 158.952 118.168 160.024V165H120.072V159.784C120.072 157.896 119.048 156.504 117.048 156.504C115.768 156.504 114.872 157.016 114.232 157.816C113.768 157.016 112.936 156.504 111.736 156.504C110.408 156.504 109.608 157.144 109.256 157.8V156.696H107.496V165H109.4V160.168C109.4 158.904 110.12 158.136 111.256 158.136C112.392 158.136 112.824 158.936 112.824 160.024V165H114.728V160.232ZM122.261 162.776L121.381 167.096H123.077L124.389 162.776H122.261ZM132.499 158.728V155.432H135.283C136.547 155.432 137.123 156.104 137.123 157.096C137.123 158.088 136.547 158.728 135.283 158.728H132.499ZM132.499 160.52H135.267C137.907 160.52 139.075 159.032 139.075 157.096C139.075 155.16 137.971 153.64 135.267 153.64H130.563V165H132.499V160.52ZM144.96 156.632C144.96 156.632 144.768 156.616 144.688 156.616C143.248 156.616 142.544 157.32 142.24 157.848V156.696H140.48V165H142.384V160.68C142.384 159.08 143.184 158.376 144.528 158.376C144.736 158.376 144.96 158.408 144.96 158.408V156.632ZM149.74 165.192C152.396 165.192 154.06 163.192 154.06 160.856C154.06 158.52 152.396 156.504 149.74 156.504C147.1 156.504 145.436 158.52 145.436 160.856C145.436 163.192 147.1 165.192 149.74 165.192ZM147.34 160.856C147.34 159.24 148.364 158.184 149.74 158.184C151.132 158.184 152.156 159.24 152.156 160.856C152.156 162.456 151.132 163.512 149.74 163.512C148.364 163.512 147.34 162.456 147.34 160.856ZM161.776 157.784C161.312 157.08 160.416 156.504 159.12 156.504C156.672 156.504 155.28 158.472 155.28 160.856C155.28 163.224 156.672 165.192 159.12 165.192C160.416 165.192 161.392 164.68 161.92 163.816V165H163.68V153H161.776V157.784ZM161.856 160.856C161.856 162.344 160.976 163.512 159.52 163.512C158.08 163.512 157.184 162.344 157.184 160.856C157.184 159.336 158.08 158.184 159.52 158.184C160.976 158.184 161.856 159.336 161.856 160.856ZM171.356 161.48C171.356 162.84 170.62 163.56 169.436 163.56C168.284 163.56 167.82 162.808 167.82 161.672V156.696H165.916V161.928C165.916 163.864 166.956 165.192 168.972 165.192C170.316 165.192 171.148 164.584 171.5 163.928V165H173.26V156.696H171.356V161.48ZM179.142 163.512C177.782 163.512 176.918 162.408 176.918 160.856C176.918 159.288 177.782 158.184 179.142 158.184C180.166 158.184 180.934 158.808 181.158 159.704L182.982 159.256C182.55 157.832 181.382 156.504 179.158 156.504C176.71 156.504 175.014 158.44 175.014 160.856C175.014 163.256 176.71 165.192 179.158 165.192C181.382 165.192 182.55 163.864 182.982 162.44L181.158 161.992C180.934 162.888 180.166 163.512 179.142 163.512ZM188.349 163.304C188.349 163.304 188.077 163.384 187.757 163.384C187.101 163.384 186.829 163.064 186.829 162.408V158.216H188.381V156.696H186.829V154.536H184.925V156.696H183.661V158.216H184.925V162.6C184.925 164.168 185.661 165.048 187.357 165.048C187.997 165.048 188.349 164.952 188.349 164.952V163.304ZM201.29 160.232C201.29 158.888 202.026 158.136 203.162 158.136C204.314 158.136 204.73 158.952 204.73 160.024V165H206.634V159.784C206.634 157.896 205.61 156.504 203.61 156.504C202.33 156.504 201.434 157.016 200.794 157.816C200.33 157.016 199.498 156.504 198.298 156.504C196.97 156.504 196.17 157.144 195.818 157.8V156.696H194.058V165H195.962V160.168C195.962 158.904 196.682 158.136 197.818 158.136C198.954 158.136 199.386 158.936 199.386 160.024V165H201.29V160.232ZM213.975 161.112V161.624C213.975 162.744 213.223 163.704 211.687 163.704C210.679 163.704 210.247 163.304 210.247 162.664C210.247 162.104 210.551 161.688 211.767 161.48L213.975 161.112ZM211.303 165.192C212.551 165.192 213.607 164.792 214.199 164.088C214.407 164.584 214.983 165.096 215.927 165.096C216.295 165.096 216.535 165.032 216.535 165.032V163.496C216.535 163.496 216.455 163.512 216.375 163.512C216.039 163.512 215.831 163.352 215.831 162.952V159.608C215.831 157.704 214.679 156.504 212.247 156.504C209.895 156.504 208.871 157.688 208.615 159.032L210.439 159.336C210.567 158.536 211.159 158.072 212.199 158.072C213.335 158.072 213.975 158.552 213.975 159.56V159.672L211.575 160.024C209.383 160.344 208.391 161.272 208.391 162.68C208.391 164.104 209.287 165.192 211.303 165.192ZM219.975 156.696H218.215V165H220.119V160.184C220.119 158.888 220.871 158.136 222.071 158.136C223.207 158.136 223.719 158.888 223.719 160.024V165H225.623V159.784C225.623 157.848 224.551 156.504 222.535 156.504C221.174 156.504 220.327 157.144 219.975 157.8V156.696ZM232.975 161.112V161.624C232.975 162.744 232.223 163.704 230.687 163.704C229.679 163.704 229.247 163.304 229.247 162.664C229.247 162.104 229.551 161.688 230.767 161.48L232.975 161.112ZM230.303 165.192C231.551 165.192 232.607 164.792 233.199 164.088C233.407 164.584 233.983 165.096 234.927 165.096C235.295 165.096 235.535 165.032 235.535 165.032V163.496C235.535 163.496 235.455 163.512 235.375 163.512C235.039 163.512 234.831 163.352 234.831 162.952V159.608C234.831 157.704 233.679 156.504 231.247 156.504C228.895 156.504 227.871 157.688 227.615 159.032L229.439 159.336C229.567 158.536 230.159 158.072 231.199 158.072C232.335 158.072 232.975 158.552 232.975 159.56V159.672L230.575 160.024C228.383 160.344 227.391 161.272 227.391 162.68C227.391 164.104 228.287 165.192 230.303 165.192ZM240.399 162.552C242.447 162.552 243.727 161.224 243.727 159.528C243.727 159.128 243.647 158.76 243.519 158.408C243.519 158.408 243.487 158.296 243.487 158.056C243.487 157.56 243.823 157.272 244.367 157.272C244.639 157.272 244.719 157.288 244.719 157.288V155.64C244.719 155.64 244.527 155.608 244.255 155.608C243.311 155.608 242.527 156.12 242.191 156.92C241.695 156.664 241.087 156.504 240.399 156.504C238.351 156.504 237.071 157.832 237.071 159.528C237.071 160.376 237.359 161.048 237.871 161.576C237.375 161.864 236.879 162.44 236.879 163.304C236.879 163.576 236.943 164.328 237.567 164.776C237.263 164.984 236.671 165.48 236.671 166.392C236.671 167.832 237.727 168.664 240.495 168.664C243.263 168.664 244.463 167.32 244.463 165.976C244.463 164.648 243.775 163.496 241.791 163.496H239.071C238.767 163.496 238.495 163.336 238.495 162.952C238.495 162.504 238.927 162.296 239.007 162.28C239.391 162.424 239.919 162.552 240.399 162.552ZM238.815 159.528C238.815 158.696 239.391 158.104 240.399 158.104C241.407 158.104 241.983 158.696 241.983 159.528C241.983 160.36 241.407 160.952 240.399 160.952C239.391 160.952 238.815 160.36 238.815 159.528ZM241.743 165.192C242.351 165.192 242.719 165.48 242.719 165.992C242.719 166.728 241.935 167.08 240.463 167.08C238.847 167.08 238.351 166.76 238.351 166.04C238.351 165.88 238.414 165.448 238.815 165.192H241.743ZM251.519 162.28C251.167 163.112 250.415 163.56 249.503 163.56C248.175 163.56 247.327 162.712 247.183 161.4H253.503C253.503 161.4 253.519 161.112 253.519 160.808C253.519 158.376 251.903 156.504 249.439 156.504C246.975 156.504 245.311 158.424 245.311 160.84C245.311 163.32 246.943 165.192 249.455 165.192C251.263 165.192 252.639 164.216 253.231 162.728L251.519 162.28ZM249.439 158.056C250.671 158.056 251.471 158.84 251.631 159.992H247.215C247.407 158.856 248.207 158.056 249.439 158.056ZM259.741 156.632C259.741 156.632 259.549 156.616 259.469 156.616C258.029 156.616 257.325 157.32 257.021 157.848V156.696H255.261V165H257.165V160.68C257.165 159.08 257.965 158.376 259.309 158.376C259.517 158.376 259.741 158.408 259.741 158.408V156.632Z" fill="#666D80"/>
<path d="M98.268 182.06H97.246V186.47H91.436V182.06H90.414V192H91.436V187.436H97.246V192H98.268V182.06ZM106.159 189.788C105.795 190.67 104.997 191.272 103.905 191.272C102.407 191.272 101.469 190.166 101.371 188.724H107.293C107.293 188.724 107.307 188.5 107.307 188.346C107.307 186.33 106.005 184.706 103.877 184.706C101.735 184.706 100.377 186.456 100.377 188.43C100.377 190.432 101.637 192.168 103.891 192.168C105.417 192.168 106.523 191.328 107.027 190.166L106.159 189.788ZM103.877 185.602C105.277 185.602 106.187 186.54 106.313 187.912H101.399C101.567 186.596 102.491 185.602 103.877 185.602ZM108.824 194.156C108.698 194.156 108.586 194.142 108.586 194.142V195.052C108.586 195.052 108.67 195.066 108.866 195.066C109.874 195.066 110.798 194.604 111.456 193.05L114.9 184.874H113.85L111.4 190.852L108.978 184.874H107.9L110.882 192L110.574 192.756C110.112 193.848 109.552 194.156 108.824 194.156ZM115.002 190.684L114.274 193.526H115.156L116.178 190.684H115.002ZM128.269 192H129.305L131.797 184.874H130.747L128.801 190.824L126.869 184.874H125.833L123.873 190.824L121.955 184.874H120.891L123.355 192H124.391L126.337 186.134H126.351L128.269 192ZM138.288 189.788C137.924 190.67 137.126 191.272 136.034 191.272C134.536 191.272 133.598 190.166 133.5 188.724H139.422C139.422 188.724 139.436 188.5 139.436 188.346C139.436 186.33 138.134 184.706 136.006 184.706C133.864 184.706 132.506 186.456 132.506 188.43C132.506 190.432 133.766 192.168 136.02 192.168C137.546 192.168 138.652 191.328 139.156 190.166L138.288 189.788ZM136.006 185.602C137.406 185.602 138.316 186.54 138.442 187.912H133.528C133.696 186.596 134.62 185.602 136.006 185.602ZM142.233 182.06H141.253V186.204H142.233V182.06ZM148.063 184.818C148.063 184.818 147.895 184.804 147.825 184.804C146.509 184.804 145.809 185.49 145.543 185.98V184.874H144.591V192H145.585V187.954C145.585 186.47 146.495 185.742 147.713 185.742C147.895 185.742 148.063 185.756 148.063 185.756V184.818ZM154.435 189.788C154.071 190.67 153.273 191.272 152.181 191.272C150.683 191.272 149.745 190.166 149.647 188.724H155.569C155.569 188.724 155.583 188.5 155.583 188.346C155.583 186.33 154.281 184.706 152.153 184.706C150.011 184.706 148.653 186.456 148.653 188.43C148.653 190.432 149.913 192.168 152.167 192.168C153.693 192.168 154.799 191.328 155.303 190.166L154.435 189.788ZM152.153 185.602C153.553 185.602 154.463 186.54 154.589 187.912H149.675C149.843 186.596 150.767 185.602 152.153 185.602ZM164.592 184.818C164.592 184.818 164.424 184.804 164.354 184.804C163.038 184.804 162.338 185.49 162.072 185.98V184.874H161.12V192H162.114V187.954C162.114 186.47 163.024 185.742 164.242 185.742C164.424 185.742 164.592 185.756 164.592 185.756V184.818ZM170.964 189.788C170.6 190.67 169.802 191.272 168.71 191.272C167.212 191.272 166.274 190.166 166.176 188.724H172.098C172.098 188.724 172.112 188.5 172.112 188.346C172.112 186.33 170.81 184.706 168.682 184.706C166.54 184.706 165.182 186.456 165.182 188.43C165.182 190.432 166.442 192.168 168.696 192.168C170.222 192.168 171.328 191.328 171.832 190.166L170.964 189.788ZM168.682 185.602C170.082 185.602 170.992 186.54 171.118 187.912H166.204C166.372 186.596 167.296 185.602 168.682 185.602ZM175.007 192V181.5H174.013V192H175.007ZM182.708 189.788C182.344 190.67 181.546 191.272 180.454 191.272C178.956 191.272 178.018 190.166 177.92 188.724H183.842C183.842 188.724 183.856 188.5 183.856 188.346C183.856 186.33 182.554 184.706 180.426 184.706C178.284 184.706 176.926 186.456 176.926 188.43C176.926 190.432 178.186 192.168 180.44 192.168C181.966 192.168 183.072 191.328 183.576 190.166L182.708 189.788ZM180.426 185.602C181.826 185.602 182.736 186.54 182.862 187.912H177.948C178.116 186.596 179.04 185.602 180.426 185.602ZM188.431 185.56C189.775 185.56 190.447 186.162 190.447 187.366V187.562L187.955 187.884C186.107 188.122 185.267 188.892 185.267 190.04C185.267 191.328 186.065 192.168 187.759 192.168C188.921 192.168 189.957 191.692 190.503 190.894C190.615 191.608 191.203 192.028 191.847 192.028C192.155 192.028 192.295 191.986 192.295 191.986V191.16C192.295 191.16 192.239 191.188 192.043 191.188C191.651 191.188 191.441 190.95 191.441 190.502V187.38C191.441 185.798 190.531 184.706 188.473 184.706C186.597 184.706 185.715 185.602 185.477 186.778L186.415 186.974C186.611 185.966 187.381 185.56 188.431 185.56ZM190.447 188.346V189.172C190.447 190.18 189.593 191.342 187.899 191.342C187.101 191.342 186.247 191.062 186.247 190.04C186.247 189.326 186.723 188.85 188.081 188.668L190.447 188.346ZM193.234 189.984C193.388 191.146 194.2 192.168 196.146 192.168C198.078 192.168 198.988 191.146 198.988 190.068C198.988 187.072 194.606 188.738 194.606 186.764C194.606 186.12 195.152 185.574 196.258 185.574C197.392 185.574 197.924 186.19 198.008 186.96L198.96 186.638C198.764 185.728 198.05 184.706 196.286 184.706C194.592 184.706 193.64 185.714 193.64 186.806C193.64 189.732 198.022 188.052 198.022 190.096C198.022 190.81 197.35 191.3 196.146 191.3C194.928 191.3 194.312 190.698 194.228 189.802L193.234 189.984ZM201.437 183.11C201.843 183.11 202.151 182.83 202.151 182.424C202.151 182.004 201.843 181.71 201.437 181.71C201.017 181.71 200.723 182.004 200.723 182.424C200.723 182.83 201.017 183.11 201.437 183.11ZM200.933 192H201.927V184.874H200.933V192ZM205.33 184.874H204.378V192H205.372V187.758C205.372 186.33 206.31 185.574 207.514 185.574C208.788 185.574 209.39 186.358 209.39 187.646V192H210.384V187.45C210.384 185.868 209.446 184.706 207.682 184.706C206.296 184.706 205.582 185.504 205.33 185.966V184.874ZM215.461 189.886C217.225 189.886 218.303 188.78 218.303 187.296C218.303 186.89 218.219 186.526 218.065 186.19C218.023 186.078 217.981 185.882 217.981 185.658C217.981 185.154 218.359 184.846 218.849 184.846C219.087 184.846 219.241 184.86 219.241 184.86V183.95C219.213 183.95 219.101 183.936 218.877 183.936C218.037 183.936 217.351 184.412 217.155 185.154C216.707 184.874 216.133 184.706 215.461 184.706C213.697 184.706 212.619 185.812 212.619 187.296C212.619 188.038 212.885 188.682 213.375 189.144C212.941 189.368 212.423 189.788 212.423 190.572C212.423 191.146 212.661 191.552 213.039 191.804C212.829 191.93 212.241 192.378 212.241 193.218C212.241 194.478 213.165 195.178 215.545 195.178C218.037 195.178 218.975 194.128 218.975 193.022C218.975 191.972 218.345 191.202 216.693 191.202H214.103C213.585 191.202 213.361 190.894 213.361 190.502C213.361 189.844 214.005 189.62 214.047 189.606C214.453 189.788 214.929 189.886 215.461 189.886ZM215.461 189.018C214.299 189.018 213.585 188.36 213.585 187.296C213.585 186.232 214.299 185.574 215.461 185.574C216.623 185.574 217.337 186.232 217.337 187.296C217.337 188.36 216.623 189.018 215.461 189.018ZM216.791 192.126C217.463 192.126 218.009 192.35 218.009 193.022C218.009 193.792 217.253 194.24 215.545 194.24C213.921 194.24 213.207 193.904 213.207 193.12C213.207 192.616 213.571 192.238 213.893 192.126H216.791ZM227.1 191.062C227.1 191.062 226.778 191.132 226.47 191.132C225.784 191.132 225.49 190.768 225.49 190.012V185.714H227.128V184.874H225.49V182.844H224.496V184.874H223.138V185.714H224.496V190.082C224.496 191.37 225.14 192.028 226.344 192.028C226.848 192.028 227.1 191.958 227.1 191.958V191.062ZM229.722 181.5H228.728V192H229.722V187.786C229.722 186.33 230.66 185.574 231.864 185.574C233.138 185.574 233.74 186.358 233.74 187.646V192H234.734V187.45C234.734 185.868 233.796 184.706 232.032 184.706C230.702 184.706 229.974 185.434 229.722 185.868V181.5ZM239.769 185.56C241.113 185.56 241.785 186.162 241.785 187.366V187.562L239.293 187.884C237.445 188.122 236.605 188.892 236.605 190.04C236.605 191.328 237.403 192.168 239.097 192.168C240.259 192.168 241.295 191.692 241.841 190.894C241.953 191.608 242.541 192.028 243.185 192.028C243.493 192.028 243.633 191.986 243.633 191.986V191.16C243.633 191.16 243.577 191.188 243.381 191.188C242.989 191.188 242.779 190.95 242.779 190.502V187.38C242.779 185.798 241.869 184.706 239.811 184.706C237.935 184.706 237.053 185.602 236.815 186.778L237.753 186.974C237.949 185.966 238.719 185.56 239.769 185.56ZM241.785 188.346V189.172C241.785 190.18 240.931 191.342 239.237 191.342C238.439 191.342 237.585 191.062 237.585 190.04C237.585 189.326 238.061 188.85 239.419 188.668L241.785 188.346ZM247.964 191.062C247.964 191.062 247.642 191.132 247.334 191.132C246.648 191.132 246.354 190.768 246.354 190.012V185.714H247.992V184.874H246.354V182.844H245.36V184.874H244.002V185.714H245.36V190.082C245.36 191.37 246.004 192.028 247.208 192.028C247.712 192.028 247.964 191.958 247.964 191.958V191.062ZM255.734 190.852L253.312 184.874H252.234L255.216 192H256.224L259.234 184.874H258.198L255.734 190.852ZM261.183 183.11C261.589 183.11 261.897 182.83 261.897 182.424C261.897 182.004 261.589 181.71 261.183 181.71C260.763 181.71 260.469 182.004 260.469 182.424C260.469 182.83 260.763 183.11 261.183 183.11ZM260.679 192H261.673V184.874H260.679V192ZM269.612 186.162C269.136 185.308 268.254 184.706 266.952 184.706C264.768 184.706 263.592 186.47 263.592 188.444C263.592 190.404 264.768 192.168 266.952 192.168C268.254 192.168 269.164 191.594 269.654 190.684V192H270.606V181.5H269.612V186.162ZM269.654 188.444C269.654 189.998 268.744 191.272 267.148 191.272C265.552 191.272 264.6 189.998 264.6 188.444C264.6 186.862 265.552 185.602 267.148 185.602C268.744 185.602 269.654 186.862 269.654 188.444ZM278.302 189.788C277.938 190.67 277.14 191.272 276.048 191.272C274.55 191.272 273.612 190.166 273.514 188.724H279.436C279.436 188.724 279.45 188.5 279.45 188.346C279.45 186.33 278.148 184.706 276.02 184.706C273.878 184.706 272.52 186.456 272.52 188.43C272.52 190.432 273.78 192.168 276.034 192.168C277.56 192.168 278.666 191.328 279.17 190.166L278.302 189.788ZM276.02 185.602C277.42 185.602 278.33 186.54 278.456 187.912H273.542C273.71 186.596 274.634 185.602 276.02 185.602ZM284.445 192.168C286.699 192.168 288.085 190.404 288.085 188.444C288.085 186.484 286.699 184.706 284.445 184.706C282.205 184.706 280.819 186.484 280.819 188.444C280.819 190.404 282.205 192.168 284.445 192.168ZM281.827 188.444C281.827 186.834 282.863 185.602 284.445 185.602C286.041 185.602 287.077 186.834 287.077 188.444C287.077 190.04 286.041 191.272 284.445 191.272C282.863 191.272 281.827 190.04 281.827 188.444ZM296.61 191.272C295.112 191.272 294.104 190.082 294.104 188.444C294.104 186.792 295.112 185.602 296.61 185.602C297.758 185.602 298.542 186.232 298.878 187.226L299.802 186.862C299.368 185.658 298.276 184.706 296.61 184.706C294.44 184.706 293.096 186.484 293.096 188.444C293.096 190.39 294.44 192.168 296.61 192.168C298.276 192.168 299.368 191.216 299.802 190.012L298.878 189.648C298.542 190.642 297.758 191.272 296.61 191.272ZM304.246 185.56C305.59 185.56 306.262 186.162 306.262 187.366V187.562L303.77 187.884C301.922 188.122 301.082 188.892 301.082 190.04C301.082 191.328 301.88 192.168 303.574 192.168C304.736 192.168 305.772 191.692 306.318 190.894C306.43 191.608 307.018 192.028 307.662 192.028C307.97 192.028 308.11 191.986 308.11 191.986V191.16C308.11 191.16 308.054 191.188 307.858 191.188C307.466 191.188 307.256 190.95 307.256 190.502V187.38C307.256 185.798 306.346 184.706 304.288 184.706C302.412 184.706 301.53 185.602 301.292 186.778L302.23 186.974C302.426 185.966 303.196 185.56 304.246 185.56ZM306.262 188.346V189.172C306.262 190.18 305.408 191.342 303.714 191.342C302.916 191.342 302.062 191.062 302.062 190.04C302.062 189.326 302.538 188.85 303.896 188.668L306.262 188.346ZM310.687 192V181.5H309.693V192H310.687ZM314.132 192V181.5H313.138V192H314.132ZM317.087 183.11C317.493 183.11 317.801 182.83 317.801 182.424C317.801 182.004 317.493 181.71 317.087 181.71C316.667 181.71 316.373 182.004 316.373 182.424C316.373 182.83 316.667 183.11 317.087 183.11ZM316.583 192H317.577V184.874H316.583V192ZM320.981 184.874H320.029V192H321.023V187.758C321.023 186.33 321.961 185.574 323.165 185.574C324.439 185.574 325.041 186.358 325.041 187.646V192H326.035V187.45C326.035 185.868 325.097 184.706 323.333 184.706C321.947 184.706 321.233 185.504 320.981 185.966V184.874ZM331.112 189.886C332.876 189.886 333.954 188.78 333.954 187.296C333.954 186.89 333.87 186.526 333.716 186.19C333.674 186.078 333.632 185.882 333.632 185.658C333.632 185.154 334.01 184.846 334.5 184.846C334.738 184.846 334.892 184.86 334.892 184.86V183.95C334.864 183.95 334.752 183.936 334.528 183.936C333.688 183.936 333.002 184.412 332.806 185.154C332.358 184.874 331.784 184.706 331.112 184.706C329.348 184.706 328.27 185.812 328.27 187.296C328.27 188.038 328.536 188.682 329.026 189.144C328.592 189.368 328.074 189.788 328.074 190.572C328.074 191.146 328.312 191.552 328.69 191.804C328.48 191.93 327.892 192.378 327.892 193.218C327.892 194.478 328.816 195.178 331.196 195.178C333.688 195.178 334.626 194.128 334.626 193.022C334.626 191.972 333.996 191.202 332.344 191.202H329.754C329.236 191.202 329.012 190.894 329.012 190.502C329.012 189.844 329.656 189.62 329.698 189.606C330.104 189.788 330.58 189.886 331.112 189.886ZM331.112 189.018C329.95 189.018 329.236 188.36 329.236 187.296C329.236 186.232 329.95 185.574 331.112 185.574C332.274 185.574 332.988 186.232 332.988 187.296C332.988 188.36 332.274 189.018 331.112 189.018ZM332.442 192.126C333.114 192.126 333.66 192.35 333.66 193.022C333.66 193.792 332.904 194.24 331.196 194.24C329.572 194.24 328.858 193.904 328.858 193.12C328.858 192.616 329.222 192.238 329.544 192.126H332.442ZM340.175 184.874H338.789V185.714H340.175V192H341.169V185.714H342.779V184.874H341.169V183.656C341.169 182.746 341.603 182.41 342.373 182.41C342.625 182.41 342.765 182.438 342.765 182.438V181.528C342.765 181.528 342.583 181.5 342.289 181.5C341.043 181.5 340.175 182.2 340.175 183.698V184.874ZM349.3 189.788C348.936 190.67 348.138 191.272 347.046 191.272C345.548 191.272 344.61 190.166 344.512 188.724H350.434C350.434 188.724 350.448 188.5 350.448 188.346C350.448 186.33 349.146 184.706 347.018 184.706C344.876 184.706 343.518 186.456 343.518 188.43C343.518 190.432 344.778 192.168 347.032 192.168C348.558 192.168 349.664 191.328 350.168 190.166L349.3 189.788ZM347.018 185.602C348.418 185.602 349.328 186.54 349.454 187.912H344.54C344.708 186.596 345.632 185.602 347.018 185.602ZM355.023 185.56C356.367 185.56 357.039 186.162 357.039 187.366V187.562L354.547 187.884C352.699 188.122 351.859 188.892 351.859 190.04C351.859 191.328 352.657 192.168 354.351 192.168C355.513 192.168 356.549 191.692 357.095 190.894C357.207 191.608 357.795 192.028 358.439 192.028C358.747 192.028 358.887 191.986 358.887 191.986V191.16C358.887 191.16 358.831 191.188 358.635 191.188C358.243 191.188 358.033 190.95 358.033 190.502V187.38C358.033 185.798 357.123 184.706 355.065 184.706C353.189 184.706 352.307 185.602 352.069 186.778L353.007 186.974C353.203 185.966 353.973 185.56 355.023 185.56ZM357.039 188.346V189.172C357.039 190.18 356.185 191.342 354.491 191.342C353.693 191.342 352.839 191.062 352.839 190.04C352.839 189.326 353.315 188.85 354.673 188.668L357.039 188.346ZM363.218 191.062C363.218 191.062 362.896 191.132 362.588 191.132C361.902 191.132 361.608 190.768 361.608 190.012V185.714H363.246V184.874H361.608V182.844H360.614V184.874H359.256V185.714H360.614V190.082C360.614 191.37 361.258 192.028 362.462 192.028C362.966 192.028 363.218 191.958 363.218 191.958V191.062ZM369.703 189.088C369.703 190.6 368.751 191.3 367.603 191.3C366.329 191.3 365.769 190.516 365.769 189.228V184.874H364.775V189.438C364.775 191.02 365.671 192.168 367.435 192.168C368.793 192.168 369.507 191.426 369.745 190.964V192H370.697V184.874H369.703V189.088ZM376.616 184.818C376.616 184.818 376.448 184.804 376.378 184.804C375.062 184.804 374.362 185.49 374.096 185.98V184.874H373.144V192H374.138V187.954C374.138 186.47 375.048 185.742 376.266 185.742C376.448 185.742 376.616 185.756 376.616 185.756V184.818ZM382.988 189.788C382.624 190.67 381.826 191.272 380.734 191.272C379.236 191.272 378.298 190.166 378.2 188.724H384.122C384.122 188.724 384.136 188.5 384.136 188.346C384.136 186.33 382.834 184.706 380.706 184.706C378.564 184.706 377.206 186.456 377.206 188.43C377.206 190.432 378.466 192.168 380.72 192.168C382.246 192.168 383.352 191.328 383.856 190.166L382.988 189.788ZM380.706 185.602C382.106 185.602 383.016 186.54 383.142 187.912H378.228C378.396 186.596 379.32 185.602 380.706 185.602ZM90.148 213.156C90.022 213.156 89.91 213.142 89.91 213.142V214.052C89.91 214.052 89.994 214.066 90.19 214.066C91.198 214.066 92.122 213.604 92.78 212.05L96.224 203.874H95.174L92.724 209.852L90.302 203.874H89.224L92.206 211L91.898 211.756C91.436 212.848 90.876 213.156 90.148 213.156ZM100.517 211.168C102.771 211.168 104.157 209.404 104.157 207.444C104.157 205.484 102.771 203.706 100.517 203.706C98.2771 203.706 96.8911 205.484 96.8911 207.444C96.8911 209.404 98.2771 211.168 100.517 211.168ZM97.8991 207.444C97.8991 205.834 98.9351 204.602 100.517 204.602C102.113 204.602 103.149 205.834 103.149 207.444C103.149 209.04 102.113 210.272 100.517 210.272C98.9351 210.272 97.8991 209.04 97.8991 207.444ZM110.922 208.088C110.922 209.6 109.97 210.3 108.822 210.3C107.548 210.3 106.988 209.516 106.988 208.228V203.874H105.994V208.438C105.994 210.02 106.89 211.168 108.654 211.168C110.012 211.168 110.726 210.426 110.964 209.964V211H111.916V203.874H110.922V208.088ZM124.495 211H125.531L128.023 203.874H126.973L125.027 209.824L123.095 203.874H122.059L120.099 209.824L118.181 203.874H117.117L119.581 211H120.617L122.563 205.134H122.577L124.495 211ZM134.515 208.788C134.151 209.67 133.353 210.272 132.261 210.272C130.763 210.272 129.825 209.166 129.727 207.724H135.649C135.649 207.724 135.663 207.5 135.663 207.346C135.663 205.33 134.361 203.706 132.233 203.706C130.091 203.706 128.733 205.456 128.733 207.43C128.733 209.432 129.993 211.168 132.247 211.168C133.773 211.168 134.879 210.328 135.383 209.166L134.515 208.788ZM132.233 204.602C133.633 204.602 134.543 205.54 134.669 206.912H129.755C129.923 205.596 130.847 204.602 132.233 204.602ZM141.036 203.818C141.036 203.818 140.868 203.804 140.798 203.804C139.482 203.804 138.782 204.49 138.516 204.98V203.874H137.564V211H138.558V206.954C138.558 205.47 139.468 204.742 140.686 204.742C140.868 204.742 141.036 204.756 141.036 204.756V203.818ZM147.407 208.788C147.043 209.67 146.245 210.272 145.153 210.272C143.655 210.272 142.717 209.166 142.619 207.724H148.541C148.541 207.724 148.555 207.5 148.555 207.346C148.555 205.33 147.253 203.706 145.125 203.706C142.983 203.706 141.625 205.456 141.625 207.43C141.625 209.432 142.885 211.168 145.139 211.168C146.665 211.168 147.771 210.328 148.275 209.166L147.407 208.788ZM145.125 204.602C146.525 204.602 147.435 205.54 147.561 206.912H142.647C142.815 205.596 143.739 204.602 145.125 204.602ZM156.767 204.56C158.111 204.56 158.783 205.162 158.783 206.366V206.562L156.291 206.884C154.443 207.122 153.603 207.892 153.603 209.04C153.603 210.328 154.401 211.168 156.095 211.168C157.257 211.168 158.293 210.692 158.839 209.894C158.951 210.608 159.539 211.028 160.183 211.028C160.491 211.028 160.631 210.986 160.631 210.986V210.16C160.631 210.16 160.575 210.188 160.379 210.188C159.987 210.188 159.777 209.95 159.777 209.502V206.38C159.777 204.798 158.867 203.706 156.809 203.706C154.933 203.706 154.051 204.602 153.813 205.778L154.751 205.974C154.947 204.966 155.717 204.56 156.767 204.56ZM158.783 207.346V208.172C158.783 209.18 157.929 210.342 156.235 210.342C155.437 210.342 154.583 210.062 154.583 209.04C154.583 208.326 155.059 207.85 156.417 207.668L158.783 207.346ZM162.536 203.874H161.15V204.714H162.536V211H163.53V204.714H165.14V203.874H163.53V202.656C163.53 201.746 163.964 201.41 164.734 201.41C164.986 201.41 165.126 201.438 165.126 201.438V200.528C165.126 200.528 164.944 200.5 164.65 200.5C163.404 200.5 162.536 201.2 162.536 202.698V203.874ZM169.46 210.062C169.46 210.062 169.138 210.132 168.83 210.132C168.144 210.132 167.85 209.768 167.85 209.012V204.714H169.488V203.874H167.85V201.844H166.856V203.874H165.498V204.714H166.856V209.082C166.856 210.37 167.5 211.028 168.704 211.028C169.208 211.028 169.46 210.958 169.46 210.958V210.062ZM176.187 208.788C175.823 209.67 175.025 210.272 173.933 210.272C172.435 210.272 171.497 209.166 171.399 207.724H177.321C177.321 207.724 177.335 207.5 177.335 207.346C177.335 205.33 176.033 203.706 173.905 203.706C171.763 203.706 170.405 205.456 170.405 207.43C170.405 209.432 171.665 211.168 173.919 211.168C175.445 211.168 176.551 210.328 177.055 209.166L176.187 208.788ZM173.905 204.602C175.305 204.602 176.215 205.54 176.341 206.912H171.427C171.595 205.596 172.519 204.602 173.905 204.602ZM182.708 203.818C182.708 203.818 182.54 203.804 182.47 203.804C181.154 203.804 180.454 204.49 180.188 204.98V203.874H179.236V211H180.23V206.954C180.23 205.47 181.14 204.742 182.358 204.742C182.54 204.742 182.708 204.756 182.708 204.756V203.818ZM183.207 211.112C183.641 211.112 183.977 210.804 183.977 210.356C183.977 209.922 183.641 209.6 183.207 209.6C182.759 209.6 182.437 209.922 182.437 210.356C182.437 210.804 182.759 211.112 183.207 211.112ZM195.858 201.06H188.48V202.04H191.658V211H192.68V202.04H195.858V201.06ZM201.37 208.788C201.006 209.67 200.208 210.272 199.116 210.272C197.618 210.272 196.68 209.166 196.582 207.724H202.504C202.504 207.724 202.518 207.5 202.518 207.346C202.518 205.33 201.216 203.706 199.088 203.706C196.946 203.706 195.588 205.456 195.588 207.43C195.588 209.432 196.848 211.168 199.102 211.168C200.628 211.168 201.734 210.328 202.238 209.166L201.37 208.788ZM199.088 204.602C200.488 204.602 201.398 205.54 201.524 206.912H196.61C196.778 205.596 197.702 204.602 199.088 204.602ZM205.413 211V200.5H204.419V211H205.413ZM208.858 211V200.5H207.864V211H208.858ZM219.805 208.088C219.805 209.6 218.853 210.3 217.705 210.3C216.431 210.3 215.871 209.516 215.871 208.228V203.874H214.877V208.438C214.877 210.02 215.773 211.168 217.537 211.168C218.895 211.168 219.609 210.426 219.847 209.964V211H220.799V203.874H219.805V208.088ZM222.601 208.984C222.755 210.146 223.567 211.168 225.513 211.168C227.445 211.168 228.355 210.146 228.355 209.068C228.355 206.072 223.973 207.738 223.973 205.764C223.973 205.12 224.519 204.574 225.625 204.574C226.759 204.574 227.291 205.19 227.375 205.96L228.327 205.638C228.131 204.728 227.417 203.706 225.653 203.706C223.959 203.706 223.007 204.714 223.007 205.806C223.007 208.732 227.389 207.052 227.389 209.096C227.389 209.81 226.717 210.3 225.513 210.3C224.295 210.3 223.679 209.698 223.595 208.802L222.601 208.984ZM240.433 211H241.469L243.961 203.874H242.911L240.965 209.824L239.033 203.874H237.997L236.037 209.824L234.119 203.874H233.055L235.519 211H236.555L238.501 205.134H238.515L240.433 211ZM246.511 200.5H245.517V211H246.511V206.786C246.511 205.33 247.449 204.574 248.653 204.574C249.927 204.574 250.529 205.358 250.529 206.646V211H251.523V206.45C251.523 204.868 250.585 203.706 248.821 203.706C247.491 203.706 246.763 204.434 246.511 204.868V200.5ZM256.558 204.56C257.902 204.56 258.574 205.162 258.574 206.366V206.562L256.082 206.884C254.234 207.122 253.394 207.892 253.394 209.04C253.394 210.328 254.192 211.168 255.886 211.168C257.048 211.168 258.084 210.692 258.63 209.894C258.742 210.608 259.33 211.028 259.974 211.028C260.282 211.028 260.422 210.986 260.422 210.986V210.16C260.422 210.16 260.366 210.188 260.17 210.188C259.778 210.188 259.568 209.95 259.568 209.502V206.38C259.568 204.798 258.658 203.706 256.6 203.706C254.724 203.706 253.842 204.602 253.604 205.778L254.542 205.974C254.738 204.966 255.508 204.56 256.558 204.56ZM258.574 207.346V208.172C258.574 209.18 257.72 210.342 256.026 210.342C255.228 210.342 254.374 210.062 254.374 209.04C254.374 208.326 254.85 207.85 256.208 207.668L258.574 207.346ZM264.753 210.062C264.753 210.062 264.431 210.132 264.123 210.132C263.437 210.132 263.143 209.768 263.143 209.012V204.714H264.781V203.874H263.143V201.844H262.149V203.874H260.791V204.714H262.149V209.082C262.149 210.37 262.793 211.028 263.997 211.028C264.501 211.028 264.753 210.958 264.753 210.958V210.062ZM269.947 213.156C269.821 213.156 269.709 213.142 269.709 213.142V214.052C269.709 214.052 269.793 214.066 269.989 214.066C270.997 214.066 271.921 213.604 272.579 212.05L276.023 203.874H274.973L272.523 209.852L270.101 203.874H269.023L272.005 211L271.697 211.756C271.235 212.848 270.675 213.156 269.947 213.156ZM280.316 211.168C282.57 211.168 283.956 209.404 283.956 207.444C283.956 205.484 282.57 203.706 280.316 203.706C278.076 203.706 276.69 205.484 276.69 207.444C276.69 209.404 278.076 211.168 280.316 211.168ZM277.698 207.444C277.698 205.834 278.734 204.602 280.316 204.602C281.912 204.602 282.948 205.834 282.948 207.444C282.948 209.04 281.912 210.272 280.316 210.272C278.734 210.272 277.698 209.04 277.698 207.444ZM290.721 208.088C290.721 209.6 289.769 210.3 288.621 210.3C287.347 210.3 286.787 209.516 286.787 208.228V203.874H285.793V208.438C285.793 210.02 286.689 211.168 288.453 211.168C289.811 211.168 290.525 210.426 290.763 209.964V211H291.715V203.874H290.721V208.088ZM300.696 210.062C300.696 210.062 300.374 210.132 300.066 210.132C299.38 210.132 299.086 209.768 299.086 209.012V204.714H300.724V203.874H299.086V201.844H298.092V203.874H296.734V204.714H298.092V209.082C298.092 210.37 298.736 211.028 299.94 211.028C300.444 211.028 300.696 210.958 300.696 210.958V210.062ZM303.317 200.5H302.323V211H303.317V206.786C303.317 205.33 304.255 204.574 305.459 204.574C306.733 204.574 307.335 205.358 307.335 206.646V211H308.329V206.45C308.329 204.868 307.391 203.706 305.627 203.706C304.297 203.706 303.569 204.434 303.317 204.868V200.5ZM311.195 202.11C311.601 202.11 311.909 201.83 311.909 201.424C311.909 201.004 311.601 200.71 311.195 200.71C310.775 200.71 310.481 201.004 310.481 201.424C310.481 201.83 310.775 202.11 311.195 202.11ZM310.691 211H311.685V203.874H310.691V211ZM315.088 203.874H314.136V211H315.13V206.758C315.13 205.33 316.068 204.574 317.272 204.574C318.546 204.574 319.148 205.358 319.148 206.646V211H320.142V206.45C320.142 204.868 319.204 203.706 317.44 203.706C316.054 203.706 315.34 204.504 315.088 204.966V203.874ZM327.431 203.874L323.497 207.836V200.5H322.503V211H323.497V209.054L325.107 207.486L327.753 211H328.985L325.807 206.814L328.761 203.874H327.431ZM330.339 208.704H331.165L331.333 201.06H330.171L330.339 208.704ZM330.759 211.112C331.179 211.112 331.501 210.804 331.501 210.384C331.501 209.95 331.179 209.642 330.759 209.642C330.325 209.642 330.003 209.95 330.003 210.384C330.003 210.804 330.325 211.112 330.759 211.112ZM337.631 211.112C338.065 211.112 338.401 210.804 338.401 210.356C338.401 209.922 338.065 209.6 337.631 209.6C337.183 209.6 336.861 209.922 336.861 210.356C336.861 210.804 337.183 211.112 337.631 211.112ZM337.631 205.288C338.065 205.288 338.401 204.966 338.401 204.532C338.401 204.084 338.065 203.762 337.631 203.762C337.183 203.762 336.861 204.084 336.861 204.532C336.861 204.966 337.183 205.288 337.631 205.288ZM341.269 206.912C341.269 209.25 340.751 211.364 339.631 213.324H340.639C341.689 211.644 342.291 209.334 342.291 206.912C342.291 204.49 341.689 202.18 340.639 200.5H339.631C340.751 202.474 341.269 204.574 341.269 206.912Z" fill="#666D80"/>
<path fill-rule="evenodd" clip-rule="evenodd" d="M40.9866 209.342C57.0275 206.612 69.1674 193.815 69.1674 178.44C69.1674 161.076 53.6838 147 34.5837 147C15.4837 147 0 161.076 0 178.44C0 193.525 11.6875 206.13 27.2799 209.177C28.3648 210.727 27.8517 212.6 26.2084 213.904C25.9417 214.116 26.0504 214.592 26.3895 214.623C34.5812 215.371 37.2013 212.838 39.3131 210.796C39.8751 210.253 40.4011 209.744 40.9866 209.342Z" fill="#0079F2"/>
<mask id="mask4" mask-type="alpha" maskUnits="userSpaceOnUse" x="16" y="160" width="37" height="37">
<path fill-rule="evenodd" clip-rule="evenodd" d="M34.6969 196.272C44.483 196.272 52.4163 188.339 52.4163 178.553C52.4163 168.767 44.483 160.833 34.6969 160.833C24.9107 160.833 16.9775 168.767 16.9775 178.553C16.9775 188.339 24.9107 196.272 34.6969 196.272Z" fill="white"/>
</mask>
<g mask="url(#mask4)">
<path fill-rule="evenodd" clip-rule="evenodd" d="M27.7396 191.345C24.2094 192.827 27.3113 196.272 31.1399 196.272H38.5754C42.291 196.272 45.5544 192.777 42.0677 191.493C41.0886 191.133 39.7803 190.486 38.0163 189.249C37.8304 189.119 37.7138 188.9 37.7138 188.673V188.673C37.7138 188.462 37.8086 188.264 37.9667 188.125C39.7217 186.584 41.0898 184.412 41.1162 183.947V183.947C41.1287 183.732 41.2942 183.56 41.5035 183.508C42.0927 183.363 42.5329 182.938 42.7411 182.249C42.9603 181.524 43.264 180.008 43.357 179.534C43.3759 179.438 43.3871 179.332 43.3775 179.234V179.234C43.2714 178.153 42.3162 176.769 42.5205 175.703C42.7013 174.759 42.687 173.9 42.3149 173.222C41.7165 172.132 40.6958 171.144 39.8305 170.251C39.1326 169.531 38.0828 169.025 36.7967 168.974C35.0566 168.8 31.3657 171.1 29.8136 169.916C29.1881 169.438 28.4046 168.932 28.1045 169.66V169.66C27.6728 170.706 26.677 172.719 26.4592 173.83C26.337 174.453 26.3415 175.262 26.5553 176.291C26.7485 177.221 26.1283 178.272 26.0244 179.216V179.216C26.0125 179.325 26.025 179.443 26.046 179.55C26.1421 180.04 26.441 181.532 26.6571 182.249C26.8645 182.937 27.3024 183.362 27.8885 183.508C28.098 183.56 28.2645 183.731 28.277 183.947V183.947C28.3037 184.418 29.6618 186.643 31.437 188.188C31.5853 188.317 31.6743 188.366 31.6743 188.562V188.562C31.6743 188.773 31.5654 189.113 31.3929 189.234C29.8404 190.326 28.6541 190.961 27.7396 191.345Z" fill="white"/>
</g>
<path opacity="0.2" fill-rule="evenodd" clip-rule="evenodd" d="M34.6968 196.272C45.7201 196.272 54.6562 188.339 54.6562 178.553C54.6562 168.767 45.7201 160.833 34.6968 160.833C23.6735 160.833 14.7374 168.767 14.7374 178.553C14.7374 188.339 23.6735 196.272 34.6968 196.272Z" fill="white"/>
<defs>
<filter id="filter0_d" x="8" y="110" width="446" height="158" filterUnits="userSpaceOnUse" color-interpolation-filters="sRGB">
<feFlood flood-opacity="0" result="BackgroundImageFix"/>
<feColorMatrix in="SourceAlpha" type="matrix" values="0 0 0 0 0 0 0 0 0 0 0 0 0 0 0 0 0 0 127 0"/>
<feOffset dy="8"/>
<feGaussianBlur stdDeviation="12"/>
<feColorMatrix type="matrix" values="0 0 0 0 0.278431 0 0 0 0 0.313726 0 0 0 0 0.34902 0 0 0 0.1 0"/>
<feBlend mode="normal" in2="BackgroundImageFix" result="effect1_dropShadow"/>
<feBlend mode="normal" in="SourceGraphic" in2="effect1_dropShadow" result="shape"/>
</filter>
</defs>
</svg>
