<?xml version="1.0" encoding="UTF-8"?> <svg xmlns="http://www.w3.org/2000/svg" width="432" height="328" viewBox="0 0 432 328" fill="none"><rect x="38.3911" y="1" width="392" height="288" rx="8" fill="white" stroke="#E6E7EA" stroke-width="2"></rect><rect x="52" y="15" width="59" height="13" rx="4" fill="white" stroke="#E6E7EA" stroke-width="2"></rect><rect x="359.333" y="10.79" width="59.2029" height="17.1377" rx="3" fill="white" stroke="#E6E7EA" stroke-width="2"></rect><line x1="38.3911" y1="37.7178" x2="431" y2="37.7178" stroke="#E6E7EA" stroke-width="2"></line><rect x="19.6953" y="19.6953" width="392" height="288" rx="8" fill="white" stroke="#E6E7EA" stroke-width="2"></rect><rect x="340.637" y="29.4854" width="59.2029" height="17.1377" rx="3" fill="white" stroke="#E6E7EA" stroke-width="2"></rect><rect x="33" y="34" width="59" height="13" rx="4" fill="white" stroke="#E6E7EA" stroke-width="2"></rect><line x1="19.6953" y1="56.4131" x2="412.304" y2="56.4131" stroke="#E6E7EA" stroke-width="2"></line><rect x="1" y="38.3916" width="392" height="288" rx="8" fill="white" stroke="#E6E7EA" stroke-width="2"></rect><g opacity="0.4"><path d="M15.6995 56.3701V54.1235H17.5971C18.4587 54.1235 18.8513 54.5815 18.8513 55.2577C18.8513 55.9339 18.4587 56.3701 17.5971 56.3701H15.6995ZM15.6995 57.5915H17.5862C19.3856 57.5915 20.1818 56.5773 20.1818 55.2577C20.1818 53.9381 19.4293 52.9021 17.5862 52.9021H14.3799V60.6452H15.6995V57.5915Z" fill="#666D80"></path><path d="M24.1933 54.9414C24.1933 54.9414 24.0624 54.9305 24.0079 54.9305C23.0264 54.9305 22.5465 55.4104 22.3393 55.7703V54.9851H21.1397V60.6452H22.4375V57.7006C22.4375 56.61 22.9828 56.1302 23.8989 56.1302C24.0406 56.1302 24.1933 56.152 24.1933 56.152V54.9414Z" fill="#666D80"></path><path d="M27.4514 60.776C29.2618 60.776 30.396 59.4128 30.396 57.8206C30.396 56.2283 29.2618 54.8542 27.4514 54.8542C25.652 54.8542 24.5178 56.2283 24.5178 57.8206C24.5178 59.4128 25.652 60.776 27.4514 60.776ZM25.8155 57.8206C25.8155 56.7191 26.5135 55.9993 27.4514 55.9993C28.4002 55.9993 29.0982 56.7191 29.0982 57.8206C29.0982 58.9111 28.4002 59.6309 27.4514 59.6309C26.5135 59.6309 25.8155 58.9111 25.8155 57.8206Z" fill="#666D80"></path><path d="M35.6551 55.7267C35.3389 55.2468 34.7281 54.8542 33.8448 54.8542C32.1762 54.8542 31.2274 56.1956 31.2274 57.8206C31.2274 59.4346 32.1762 60.776 33.8448 60.776C34.7281 60.776 35.3934 60.4271 35.7533 59.8381V60.6452H36.9529V52.4658H35.6551V55.7267ZM35.7097 57.8206C35.7097 58.8348 35.1098 59.6309 34.1174 59.6309C33.1359 59.6309 32.5252 58.8348 32.5252 57.8206C32.5252 56.7845 33.1359 55.9993 34.1174 55.9993C35.1098 55.9993 35.7097 56.7845 35.7097 57.8206Z" fill="#666D80"></path><path d="M42.1849 58.2459C42.1849 59.1729 41.6832 59.6636 40.8762 59.6636C40.091 59.6636 39.7747 59.1511 39.7747 58.3768V54.9851H38.4769V58.5513C38.4769 59.8709 39.1858 60.776 40.5599 60.776C41.476 60.776 42.0431 60.3616 42.283 59.9145V60.6452H43.4827V54.9851H42.1849V58.2459Z" fill="#666D80"></path><path d="M47.4923 59.6309C46.5653 59.6309 45.9764 58.8784 45.9764 57.8206C45.9764 56.7518 46.5653 55.9993 47.4923 55.9993C48.1902 55.9993 48.7137 56.4246 48.8664 57.0353L50.1097 56.73C49.8152 55.7594 49.0191 54.8542 47.5032 54.8542C45.8346 54.8542 44.6786 56.1738 44.6786 57.8206C44.6786 59.4564 45.8346 60.776 47.5032 60.776C49.0191 60.776 49.8152 59.8709 50.1097 58.9002L48.8664 58.5949C48.7137 59.2056 48.1902 59.6309 47.4923 59.6309Z" fill="#666D80"></path><path d="M53.7675 59.4892C53.7675 59.4892 53.5821 59.5437 53.364 59.5437C52.9169 59.5437 52.7315 59.3256 52.7315 58.8784V56.0211H53.7893V54.9851H52.7315V53.5128H51.4337V54.9851H50.5721V56.0211H51.4337V59.0093C51.4337 60.0781 51.9354 60.6779 53.0914 60.6779C53.5276 60.6779 53.7675 60.6125 53.7675 60.6125V59.4892Z" fill="#666D80"></path><path d="M58.025 60.6452L58.5812 59.1511H62.0492L62.6054 60.6452H64.045L61.035 52.9021H59.6281L56.629 60.6452H58.025ZM60.3261 54.5379L61.613 57.9514H59.0174L60.3043 54.5379H60.3261Z" fill="#666D80"></path></g><line x1="1" y1="74.1084" x2="393.609" y2="74.1084" stroke="#E6E7EA" stroke-width="2"></line><rect x="321.942" y="48.1816" width="59.2029" height="17.1377" rx="3" fill="#0071E1"></rect><path d="M337.765 57.8526C337.839 58.5257 338.307 59.1738 339.41 59.1738C340.469 59.1738 341.167 58.6503 341.167 57.8464C341.167 56.0765 338.712 56.8306 338.712 55.8584C338.712 55.4658 339.03 55.2477 339.547 55.2477C340.114 55.2477 340.407 55.5904 340.413 56.0267L341.149 55.8896C341.074 55.1293 340.525 54.5684 339.547 54.5684C338.562 54.5684 337.964 55.1729 337.964 55.8771C337.964 57.647 340.401 56.7994 340.401 57.8776C340.401 58.2764 340.052 58.4945 339.447 58.4945C338.849 58.4945 338.531 58.1767 338.5 57.7031L337.765 57.8526Z" fill="white"></path><path d="M344.02 57.7155C344.02 58.2452 343.733 58.5257 343.272 58.5257C342.823 58.5257 342.643 58.2328 342.643 57.7903V55.8522H341.901V57.89C341.901 58.6441 342.306 59.1613 343.091 59.1613C343.615 59.1613 343.939 58.9245 344.076 58.669V59.0865H344.761V55.8522H344.02V57.7155Z" fill="white"></path><path d="M346.398 56.276V54.4126H345.657V59.0865H346.342V58.6254C346.554 58.9619 346.934 59.1613 347.433 59.1613C348.392 59.1613 348.935 58.3948 348.935 57.4725C348.935 56.5439 348.392 55.7774 347.433 55.7774C346.934 55.7774 346.579 56.0018 346.398 56.276ZM346.373 57.4725C346.373 56.8804 346.716 56.4318 347.283 56.4318C347.844 56.4318 348.193 56.8804 348.193 57.4725C348.193 58.052 347.844 58.507 347.283 58.507C346.716 58.507 346.373 58.052 346.373 57.4725Z" fill="white"></path><path d="M352.435 57.2294C352.435 56.706 352.722 56.4131 353.165 56.4131C353.613 56.4131 353.775 56.7309 353.775 57.1484V59.0865H354.517V57.0549C354.517 56.3196 354.118 55.7774 353.339 55.7774C352.84 55.7774 352.491 55.9768 352.242 56.2884C352.061 55.9768 351.737 55.7774 351.27 55.7774C350.753 55.7774 350.441 56.0267 350.304 56.2822V55.8522H349.619V59.0865H350.36V57.2045C350.36 56.7122 350.641 56.4131 351.083 56.4131C351.526 56.4131 351.694 56.7247 351.694 57.1484V59.0865H352.435V57.2294Z" fill="white"></path><path d="M355.756 55.31C356.024 55.31 356.217 55.1231 356.217 54.8551C356.217 54.5809 356.024 54.3877 355.756 54.3877C355.482 54.3877 355.288 54.5809 355.288 54.8551C355.288 55.1231 355.482 55.31 355.756 55.31ZM355.382 59.0865H356.123V55.8522H355.382V59.0865Z" fill="white"></path><path d="M358.471 58.426C358.471 58.426 358.365 58.4571 358.24 58.4571C357.985 58.4571 357.879 58.3325 357.879 58.077V56.4442H358.483V55.8522H357.879V55.0109H357.137V55.8522H356.645V56.4442H357.137V58.1518C357.137 58.7625 357.424 59.1052 358.085 59.1052C358.334 59.1052 358.471 59.0678 358.471 59.0678V58.426Z" fill="white"></path><path d="M361.069 55.31C361.337 55.31 361.53 55.1231 361.53 54.8551C361.53 54.5809 361.337 54.3877 361.069 54.3877C360.794 54.3877 360.601 54.5809 360.601 54.8551C360.601 55.1231 360.794 55.31 361.069 55.31ZM360.695 59.0865H361.436V55.8522H360.695V59.0865Z" fill="white"></path><path d="M364.65 56.276C364.469 56.0018 364.12 55.7774 363.616 55.7774C362.662 55.7774 362.12 56.5439 362.12 57.4725C362.12 58.3948 362.662 59.1613 363.616 59.1613C364.12 59.1613 364.501 58.9619 364.706 58.6254V59.0865H365.392V54.4126H364.65V56.276ZM364.681 57.4725C364.681 58.052 364.339 58.507 363.771 58.507C363.211 58.507 362.862 58.052 362.862 57.4725C362.862 56.8804 363.211 56.4318 363.771 56.4318C364.339 56.4318 364.681 56.8804 364.681 57.4725Z" fill="white"></path><path d="M368.5 58.0271C368.363 58.3512 368.07 58.5257 367.715 58.5257C367.197 58.5257 366.867 58.1954 366.811 57.6844H369.273C369.273 57.6844 369.279 57.5722 369.279 57.4538C369.279 56.5065 368.649 55.7774 367.69 55.7774C366.73 55.7774 366.082 56.5252 366.082 57.4662C366.082 58.4322 366.717 59.1613 367.696 59.1613C368.4 59.1613 368.936 58.7812 369.167 58.2016L368.5 58.0271ZM367.69 56.3819C368.17 56.3819 368.481 56.6873 368.543 57.136H366.823C366.898 56.6935 367.21 56.3819 367.69 56.3819Z" fill="white"></path><path d="M371.952 57.5722V57.7716C371.952 58.2078 371.659 58.5818 371.06 58.5818C370.668 58.5818 370.5 58.426 370.5 58.1767C370.5 57.9586 370.618 57.7965 371.092 57.7155L371.952 57.5722ZM370.911 59.1613C371.397 59.1613 371.808 59.0055 372.039 58.7313C372.12 58.9245 372.344 59.1239 372.712 59.1239C372.855 59.1239 372.949 59.099 372.949 59.099V58.5007C372.949 58.5007 372.918 58.507 372.886 58.507C372.756 58.507 372.674 58.4447 372.674 58.2889V56.9864C372.674 56.2448 372.226 55.7774 371.279 55.7774C370.362 55.7774 369.964 56.2386 369.864 56.762L370.574 56.8804C370.624 56.5689 370.855 56.3881 371.26 56.3881C371.702 56.3881 371.952 56.5751 371.952 56.9677V57.0113L371.017 57.1484C370.163 57.2731 369.777 57.6345 369.777 58.1829C369.777 58.7376 370.126 59.1613 370.911 59.1613Z" fill="white"></path><path d="M330.135 54.4131V56.3752H328.174V57.1317H330.135V59.087H330.887V57.1317H332.848V56.3752H330.887V54.4131H330.135Z" fill="white"></path><rect x="203.972" y="205.081" width="143.875" height="90.3929" rx="6" fill="white" stroke="#E6E7EA" stroke-width="2"></rect><mask id="mask0" maskUnits="userSpaceOnUse" x="209" y="243" width="133" height="52"><rect x="209.999" y="243.498" width="131.823" height="51.2226" fill="#C4C4C4"></rect></mask><g mask="url(#mask0)"><g opacity="0.1"><circle cx="276.022" cy="281.845" r="31.4153" fill="white" stroke="black" stroke-width="2"></circle><path d="M277.766 251.242C276.113 252.374 272.088 254.996 269.212 256.427" stroke="black" stroke-width="2" stroke-linecap="round"></path><path d="M287.669 253.427C284.098 256.112 273.531 262.972 259.833 268.936M294.894 257.626C290.448 260.906 278.635 268.691 266.945 273.593M246.26 289.641C256.079 285.898 277.974 276.928 287.005 270.986C296.036 265.044 299.245 262.982 299.72 262.694" stroke="black" stroke-width="2" stroke-linecap="round"></path><path d="M304.326 269.649C298.55 273.735 285.091 282.751 277.467 286.125C271.643 288.096 267.849 283.767 262.488 286.822C257.182 289.648 256.161 293.961 254.292 295.494C253.381 296.242 252.089 297.22 249.613 297.745" stroke="black" stroke-width="2" stroke-linecap="round"></path><path d="M251.858 301.453C252.466 300.954 254.322 299.92 256.883 299.772C260.085 299.586 263.468 301.629 268.544 298.747C273.62 295.865 274.8 291.056 277.88 289.384C280.96 287.711 292.431 282.513 300.752 276.299" stroke="black" stroke-width="2" stroke-linecap="round"></path><path d="M269.89 292.279C269.923 291.154 269.384 288.998 266.961 289.375C263.932 289.847 262.105 290.369 261.141 292.318C260.178 294.267 260.757 295.865 262.416 296.029C264.075 296.193 265.202 296.875 267.104 295.722C267.959 295.204 268.301 294.802 268.357 294.573" stroke="black" stroke-width="2" stroke-linecap="round"></path><path d="M260.529 308.675C266.087 306.801 279.528 301.487 288.832 295.223M306.908 283.876C304.267 285.737 298.38 289.748 295.96 290.902" stroke="black" stroke-width="2" stroke-linecap="round"></path><path d="M304.437 293.953C298.111 298.633 282.958 308.884 272.955 312.452" stroke="black" stroke-width="2" stroke-linecap="round"></path><path d="M245.197 282.095C248.09 281.186 254.744 278.999 258.214 277.519M246.19 274.085C248.265 273.542 254.059 271.694 256.295 270.494" stroke="black" stroke-width="2" stroke-linecap="round"></path><path d="M250.38 264.918C254.147 263.414 262.024 260.199 263.392 259.369" stroke="black" stroke-width="2" stroke-linecap="round"></path><circle cx="265.374" cy="292.87" r="1.70733" transform="rotate(13.7772 265.374 292.87)" fill="white" stroke="black" stroke-width="2" stroke-linecap="round"></circle><circle cx="294.209" cy="270.325" r="1.70733" transform="rotate(13.7772 294.209 270.325)" fill="white" stroke="black" stroke-width="2" stroke-linecap="round"></circle><circle cx="266.702" cy="257.754" r="1.70733" transform="rotate(13.7772 266.702 257.754)" fill="white" stroke="black" stroke-width="2" stroke-linecap="round"></circle><circle cx="293.052" cy="292.86" r="1.70733" transform="rotate(13.7772 293.052 292.86)" fill="white" stroke="black" stroke-width="2" stroke-linecap="round"></circle><circle cx="280.591" cy="294.173" r="4.06508" transform="rotate(13.7772 280.591 294.173)" fill="white" stroke="black" stroke-width="2" stroke-linecap="round"></circle><mask id="path-32-outside-1" maskUnits="userSpaceOnUse" x="216.037" y="252.051" width="120" height="65" fill="black"><rect fill="white" x="216.037" y="252.051" width="120" height="65"></rect><path fill-rule="evenodd" clip-rule="evenodd" d="M303.531 264.044C309.584 263.382 313.732 264.149 314.824 266.476C317.381 271.929 302.196 283.88 280.906 293.864C259.617 303.849 240.285 307.523 237.728 302.07C236.526 299.507 239.246 295.382 244.679 290.693C244.446 290.065 244.221 289.318 244.024 288.433C243.642 286.722 243.472 284.906 243.408 283.311C226.715 294.304 216.847 305.089 219.452 310.642C223.225 318.687 251.748 314.393 283.16 299.661C314.572 284.929 336.978 266.169 333.205 258.124C330.638 252.65 316.611 252.765 298.012 258.039C298.665 258.591 299.266 259.164 299.772 259.747C300.976 261.134 303.249 263.722 303.531 264.044Z"></path></mask><path fill-rule="evenodd" clip-rule="evenodd" d="M303.531 264.044C309.584 263.382 313.732 264.149 314.824 266.476C317.381 271.929 302.196 283.88 280.906 293.864C259.617 303.849 240.285 307.523 237.728 302.07C236.526 299.507 239.246 295.382 244.679 290.693C244.446 290.065 244.221 289.318 244.024 288.433C243.642 286.722 243.472 284.906 243.408 283.311C226.715 294.304 216.847 305.089 219.452 310.642C223.225 318.687 251.748 314.393 283.16 299.661C314.572 284.929 336.978 266.169 333.205 258.124C330.638 252.65 316.611 252.765 298.012 258.039C298.665 258.591 299.266 259.164 299.772 259.747C300.976 261.134 303.249 263.722 303.531 264.044Z" fill="white"></path><path d="M314.824 266.476L316.635 265.627V265.627L314.824 266.476ZM303.531 264.044L302.029 265.363L302.715 266.145L303.749 266.032L303.531 264.044ZM280.906 293.864L281.755 295.675L280.906 293.864ZM237.728 302.07L239.539 301.221L237.728 302.07ZM244.679 290.693L245.985 292.207L247.037 291.299L246.554 289.997L244.679 290.693ZM244.024 288.433L242.072 288.869L244.024 288.433ZM243.408 283.311L245.406 283.231L245.265 279.693L242.308 281.64L243.408 283.311ZM219.452 310.642L217.641 311.491L219.452 310.642ZM283.16 299.661L284.009 301.471L283.16 299.661ZM333.205 258.124L331.395 258.973V258.973L333.205 258.124ZM298.012 258.039L297.466 256.115L293.851 257.14L296.721 259.566L298.012 258.039ZM299.772 259.747L301.282 258.435V258.435L299.772 259.747ZM316.635 265.627C315.688 263.608 313.599 262.627 311.444 262.181C309.225 261.721 306.442 261.713 303.314 262.056L303.749 266.032C306.673 265.712 308.99 265.757 310.632 266.097C312.338 266.451 312.868 267.017 313.013 267.326L316.635 265.627ZM281.755 295.675C292.492 290.639 301.759 285.078 308.058 280.032C311.194 277.519 313.691 275.058 315.248 272.781C316.731 270.611 317.752 268.01 316.635 265.627L313.013 267.326C313.174 267.669 313.256 268.607 311.946 270.523C310.709 272.332 308.558 274.505 305.557 276.91C299.58 281.698 290.609 287.104 280.057 292.053L281.755 295.675ZM235.918 302.919C237.032 305.296 239.706 306.2 242.348 306.481C245.131 306.777 248.671 306.48 252.666 305.721C260.687 304.196 271.005 300.717 281.755 295.675L280.057 292.053C269.518 296.996 259.526 300.346 251.919 301.791C248.101 302.517 244.998 302.74 242.771 302.503C240.405 302.252 239.703 301.57 239.539 301.221L235.918 302.919ZM243.372 289.179C240.586 291.584 238.379 293.939 237.018 296.12C235.715 298.209 234.866 300.678 235.918 302.919L239.539 301.221C239.388 300.899 239.298 300.023 240.412 298.237C241.469 296.542 243.339 294.491 245.985 292.207L243.372 289.179ZM242.072 288.869C242.287 289.835 242.536 290.669 242.804 291.389L246.554 289.997C246.355 289.461 246.155 288.802 245.976 287.997L242.072 288.869ZM241.41 283.391C241.476 285.055 241.655 287 242.072 288.869L245.976 287.997C245.629 286.444 245.468 284.756 245.406 283.231L241.41 283.391ZM242.308 281.64C233.885 287.188 227.087 292.743 222.697 297.689C220.508 300.156 218.841 302.557 217.903 304.805C216.969 307.041 216.656 309.391 217.641 311.491L221.262 309.793C220.945 309.116 220.888 308.036 221.594 306.345C222.296 304.665 223.65 302.642 225.689 300.344C229.756 295.761 236.238 290.427 244.508 284.981L242.308 281.64ZM217.641 311.491C219.043 314.481 222.474 315.856 226.313 316.374C230.286 316.91 235.407 316.637 241.268 315.666C253.018 313.72 268.179 308.896 284.009 301.471L282.311 297.85C266.729 305.158 251.922 309.847 240.614 311.72C234.946 312.658 230.266 312.871 226.848 312.41C223.296 311.931 221.747 310.825 221.262 309.793L217.641 311.491ZM284.009 301.471C299.826 294.053 313.437 285.595 322.657 277.922C327.255 274.095 330.85 270.391 333.064 267.039C335.198 263.807 336.434 260.298 335.016 257.275L331.395 258.973C331.863 259.973 331.713 261.825 329.726 264.834C327.819 267.722 324.556 271.137 320.098 274.847C311.205 282.248 297.906 290.536 282.311 297.85L284.009 301.471ZM335.016 257.275C334.058 255.232 332.136 253.941 329.889 253.168C327.634 252.392 324.815 252.049 321.619 252.051C315.215 252.055 306.863 253.45 297.466 256.115L298.557 259.963C307.76 257.354 315.721 256.054 321.622 256.051C324.579 256.049 326.91 256.373 328.588 256.951C330.275 257.531 331.069 258.279 331.395 258.973L335.016 257.275ZM301.282 258.435C300.691 257.756 300.012 257.111 299.303 256.511L296.721 259.566C297.318 260.072 297.84 260.573 298.262 261.058L301.282 258.435ZM305.034 262.724C304.75 262.401 302.482 259.817 301.282 258.435L298.262 261.058C299.47 262.45 301.747 265.043 302.029 265.363L305.034 262.724Z" fill="black" mask="url(#path-32-outside-1)"></path></g></g><path d="M204.17 240.131H347.945" stroke="#E6E7EA" stroke-width="2"></path><rect x="219.039" y="220.147" width="48.2095" height="6.02619" rx="3.0131" stroke="#E5E5E5" stroke-width="2"></rect><rect x="305.665" y="215.627" width="30.131" height="15.0655" rx="7.53274" stroke="#E5E5E5" stroke-width="2"></rect><rect x="203.875" y="100.688" width="143.875" height="90.3929" rx="6" fill="white" stroke="#E6E7EA" stroke-width="2"></rect><path d="M204.073 135.738H347.847" stroke="#E6E7EA" stroke-width="2"></path><rect x="218.941" y="115.755" width="48.2095" height="6.02619" rx="3.0131" stroke="#E5E5E5" stroke-width="2"></rect><rect x="305.567" y="111.234" width="30.131" height="15.0655" rx="7.53274" stroke="#E5E5E5" stroke-width="2"></rect><rect x="47" y="205.081" width="143.875" height="90.3929" rx="6" fill="white" stroke="#E6E7EA" stroke-width="2"></rect><path d="M47.1982 240.132H190.972" stroke="#E6E7EA" stroke-width="2"></path><rect x="62.0664" y="220.147" width="48.2095" height="6.02619" rx="3.0131" stroke="#E5E5E5" stroke-width="2"></rect><rect x="148.693" y="215.627" width="30.131" height="15.0655" rx="7.53274" stroke="#E5E5E5" stroke-width="2"></rect><rect x="47" y="100.688" width="143.875" height="90.3929" rx="6" fill="#0071E1"></rect><rect opacity="0.1" x="144.424" y="111.514" width="35.1811" height="17.3199" rx="8.65997" fill="white"></rect><path d="M168.044 122.115H166.862V117.5H166.12L164.786 117.803V118.409H165.938V122.115H164.756V122.88H168.044V122.115Z" fill="white"></path><path d="M169.153 119.023V118.334H171.085C170.191 119.569 169.676 121.039 169.396 122.88H170.358C170.631 121.069 171.002 119.819 172.139 118.318V117.5H168.259V119.023H169.153Z" fill="white"></path><path fill-rule="evenodd" clip-rule="evenodd" d="M159.038 123.422C159.038 123.721 158.796 123.963 158.497 123.963C158.198 123.963 157.956 123.721 157.956 123.422V122.881C157.956 122.296 157.875 121.788 156.949 121.502C156.552 122.009 155.942 122.339 155.25 122.339C154.558 122.339 153.948 122.009 153.552 121.502C152.626 121.788 152.544 122.296 152.544 122.881V123.422C152.544 123.721 152.302 123.963 152.003 123.963C151.704 123.963 151.462 123.721 151.462 123.422V122.881C151.462 121.872 151.812 121.001 153.122 120.537C153.102 120.418 153.086 120.299 153.086 120.174V118.551C153.086 117.356 154.054 116.387 155.25 116.387C156.446 116.387 157.415 117.356 157.415 118.551V120.174C157.415 120.299 157.398 120.418 157.378 120.537C158.688 121.001 159.038 121.872 159.038 122.881V123.422ZM156.333 118.551C156.333 117.954 155.848 117.469 155.25 117.469C154.653 117.469 154.168 117.954 154.168 118.551V120.174C154.168 120.772 154.653 121.257 155.25 121.257C155.848 121.257 156.333 120.772 156.333 120.174V118.551Z" fill="white"></path><path d="M66.48 115.9L64.46 121.4H64.44L62.43 115.9H61.06L63.8 123H65.06L67.81 115.9H66.48ZM74.4052 123L72.7752 120.05C73.7152 119.75 74.1652 118.99 74.1652 118.05C74.1652 116.81 73.3952 115.9 71.8252 115.9H68.7052V123H69.9152V120.2H71.5452L72.9852 123H74.4052ZM72.9452 118.05C72.9452 118.66 72.5852 119.08 71.8352 119.08H69.9152V117.02H71.8352C72.5852 117.02 72.9452 117.44 72.9452 118.05ZM79.9214 121.59L78.5014 117.81H77.2414L79.3514 123H80.4714L82.5914 117.81H81.3614L79.9214 121.59ZM83.9606 116.94C84.3906 116.94 84.7006 116.64 84.7006 116.21C84.7006 115.77 84.3906 115.46 83.9606 115.46C83.5206 115.46 83.2106 115.77 83.2106 116.21C83.2106 116.64 83.5206 116.94 83.9606 116.94ZM83.3606 123H84.5506V117.81H83.3606V123ZM89.7076 118.49C89.4176 118.05 88.8576 117.69 88.0476 117.69C86.5176 117.69 85.6476 118.92 85.6476 120.41C85.6476 121.89 86.5176 123.12 88.0476 123.12C88.8576 123.12 89.4676 122.8 89.7976 122.26V123H90.8976V115.5H89.7076V118.49ZM89.7576 120.41C89.7576 121.34 89.2076 122.07 88.2976 122.07C87.3976 122.07 86.8376 121.34 86.8376 120.41C86.8376 119.46 87.3976 118.74 88.2976 118.74C89.2076 118.74 89.7576 119.46 89.7576 120.41ZM97.125 120.75C97.125 120.75 97.135 120.57 97.135 120.38C97.135 118.86 96.125 117.69 94.585 117.69C93.045 117.69 92.005 118.89 92.005 120.4C92.005 121.95 93.025 123.12 94.595 123.12C95.805 123.12 96.725 122.39 97.035 121.36H95.835C95.645 121.82 95.175 122.1 94.625 122.1C93.795 122.1 93.265 121.57 93.175 120.75H97.125ZM94.585 118.66C95.355 118.66 95.855 119.15 95.955 119.87H93.195C93.315 119.16 93.815 118.66 94.585 118.66ZM100.574 123.12C102.234 123.12 103.274 121.87 103.274 120.41C103.274 118.95 102.234 117.69 100.574 117.69C98.9239 117.69 97.8839 118.95 97.8839 120.41C97.8839 121.87 98.9239 123.12 100.574 123.12ZM99.0739 120.41C99.0739 119.4 99.7139 118.74 100.574 118.74C101.444 118.74 102.084 119.4 102.084 120.41C102.084 121.41 101.444 122.07 100.574 122.07C99.7139 122.07 99.0739 121.41 99.0739 120.41ZM106.634 120.41C106.634 121.91 107.694 123.12 109.224 123.12C110.764 123.12 111.544 122.05 111.684 121.12H110.464C110.324 121.68 109.854 122.07 109.214 122.07C108.364 122.07 107.824 121.38 107.824 120.41C107.824 119.43 108.364 118.74 109.214 118.74C109.854 118.74 110.324 119.13 110.464 119.69H111.684C111.544 118.76 110.764 117.69 109.224 117.69C107.694 117.69 106.634 118.9 106.634 120.41ZM115.838 120.56V120.89C115.838 121.59 115.368 122.19 114.408 122.19C113.838 122.19 113.488 122 113.488 121.51C113.488 121.15 113.728 120.88 114.458 120.77L115.838 120.56ZM114.168 123.12C114.998 123.12 115.598 122.85 115.948 122.32C115.948 122.74 116.008 123 116.018 123H117.148C117.058 122.79 116.998 122.36 116.998 122.02V119.63C116.998 118.44 116.278 117.69 114.758 117.69C113.188 117.69 112.568 118.53 112.468 119.44H113.628C113.708 118.96 114.078 118.67 114.728 118.67C115.438 118.67 115.838 118.99 115.838 119.62V119.7L114.338 119.91C112.968 120.1 112.348 120.67 112.348 121.55C112.348 122.44 112.878 123.12 114.168 123.12ZM119.599 123V115.5H118.409V123H119.599ZM122.226 123V115.5H121.036V123H122.226ZM125.443 123.12C126.893 123.12 127.613 122.38 127.613 121.5C127.613 119.4 124.633 120.29 124.633 119.28C124.633 118.9 124.933 118.66 125.523 118.66C126.133 118.66 126.413 119.04 126.453 119.41H127.593C127.543 118.71 127.043 117.69 125.553 117.69C124.273 117.69 123.493 118.45 123.493 119.32C123.493 121.43 126.473 120.45 126.473 121.55C126.473 121.91 126.133 122.14 125.513 122.14C124.783 122.14 124.423 121.79 124.393 121.34H123.243C123.303 122.29 123.923 123.12 125.443 123.12Z" fill="white"></path><g opacity="0.4"><circle cx="84.3457" cy="158.602" r="12.4487" stroke="white" stroke-width="1.07812"></circle><circle cx="118.58" cy="158.602" r="12.4487" stroke="white" stroke-width="1.07812"></circle><path d="M155.069 161.025C155.069 161.68 154.539 162.21 153.884 162.21H148.552C147.897 162.21 147.367 161.68 147.367 161.025V156.286C147.367 155.631 147.897 155.101 148.552 155.101H153.884C154.539 155.101 155.069 155.631 155.069 156.286V161.025ZM158.05 161.618H157.943L155.087 160.146V157.165L157.943 155.693H158.05V161.618Z" stroke="white" stroke-width="1.09465"></path><circle cx="152.814" cy="158.602" r="12.4487" stroke="white" stroke-width="1.07812"></circle><path d="M84.3452 153.156C83.4896 153.156 82.7891 153.857 82.7891 154.712V157.435C82.7891 158.291 83.4896 158.992 84.3452 158.992C85.2007 158.992 85.9012 158.291 85.9012 157.435V154.712C85.9012 153.857 85.2007 153.156 84.3452 153.156Z" stroke="white" stroke-width="1.07812"></path><path d="M88.2355 157.824C88.2355 159.933 86.488 161.654 84.3453 161.654M84.3453 161.654C82.2026 161.654 80.4551 159.933 80.4551 157.824M84.3453 161.654V164.827" stroke="white" stroke-width="1.07812"></path><path d="M124.909 157.773C125.105 157.942 125.193 158.295 125.193 158.911C125.193 159.434 125.126 159.97 125.092 160.147C124.951 160.73 124.498 160.985 124.139 160.928C124.04 160.915 123.633 160.83 122.984 160.706C122.377 160.589 121.626 160.452 121.495 160.436C121.179 160.377 120.921 160.106 120.827 159.741C120.776 159.548 120.593 158.752 120.512 158.41C120.25 158.324 119.573 158.149 118.355 158.149C117.152 158.129 116.48 158.273 116.207 158.352C116.128 158.724 115.959 159.484 115.873 159.722C115.774 160.078 115.533 160.342 115.244 160.397C114.985 160.46 112.747 160.862 112.57 160.89C112.371 160.921 112.168 160.864 112.003 160.725C111.837 160.588 111.72 160.388 111.678 160.147C111.645 159.974 111.577 159.435 111.577 158.911C111.577 158.295 111.671 157.943 111.881 157.763C113.042 156.765 115.225 156.268 118.385 156.268C122.677 156.268 124.318 157.208 124.909 157.773Z" stroke="white" stroke-width="1.07812"></path></g></svg> 