<svg xmlns="http://www.w3.org/2000/svg" width="358" height="400" viewBox="0 0 358 400">
  <g id="Analytics_Card" data-name="Analytics Card" transform="translate(-64 -32)">
    <g id="Group_98" data-name="Group 98">
      <rect id="Rectangle_125" data-name="Rectangle 125" width="358" height="400" rx="24" transform="translate(64 32)" fill="#fff"/>
    </g>
    <circle id="Ellipse_55" data-name="Ellipse 55" cx="105" cy="105" r="105" transform="translate(138 132)" opacity="0.6" stroke="#e6eaf5" stroke-linecap="round" stroke-width="8" fill="none"/>
    <circle id="Ellipse_56" data-name="Ellipse 56" cx="71" cy="71" r="71" transform="translate(172 166)" opacity="0.6" stroke="#e6eaf5" stroke-linecap="round" stroke-width="8" fill="none"/>
    <path id="Path_422" data-name="Path 422" d="M243,166a71,71,0,1,1-50.9,120.5" fill="none" stroke="#f2b8ec" stroke-linecap="round" stroke-width="8"/>
    <circle id="Ellipse_57" data-name="Ellipse 57" cx="37" cy="37" r="37" transform="translate(206 200)" opacity="0.6" stroke="#e6eaf5" stroke-linecap="round" stroke-width="8" fill="none"/>
    <path id="Path_423" data-name="Path 423" d="M243,274a37,37,0,0,0,0-74" fill="none" stroke="#4ddffd" stroke-linecap="round" stroke-width="8"/>
    <path id="Path_424" data-name="Path 424" d="M138,237A105,105,0,1,0,243,132" fill="none" stroke="#6a35ff" stroke-linecap="round" stroke-width="8"/>
    <path id="Path_425" data-name="Path 425" d="M142.278,88h8.28V86.344H144.15V82.33h5.022V80.674H144.15V77.056h6.21V75.4h-8.082Zm13.509-9.216a3.636,3.636,0,0,0-3.906,3.114h1.62a2.061,2.061,0,0,1,2.232-1.71c1.4,0,2.2.756,2.2,1.854,0,.324-.2.54-.612.54h-1.89c-2.142,0-3.528,1.08-3.528,2.826a2.768,2.768,0,0,0,3.078,2.736,3.131,3.131,0,0,0,2.952-1.62V88h1.746V82.15C159.675,80.134,158.127,78.784,155.787,78.784Zm-.468,7.974c-1.008,0-1.692-.558-1.692-1.386,0-.954.774-1.566,1.962-1.566h2.34v.216A2.466,2.466,0,0,1,155.319,86.758Zm11.635-6.318V78.928h-1.1a2.27,2.27,0,0,0-2.412,1.746V78.928H161.7V88h1.746V83.9c0-1.98.54-3.456,2.2-3.456ZM168.4,88h1.746V83.086a2.5,2.5,0,0,1,2.43-2.736,2.157,2.157,0,0,1,2.124,2.412V88h1.746V82.42a3.322,3.322,0,0,0-3.384-3.636,2.981,2.981,0,0,0-2.916,1.746v-1.6H168.4Zm10.176-12.87v2.2h1.944v-2.2ZM178.679,88h1.746V78.928h-1.746Zm3.955,0h1.746V83.086a2.5,2.5,0,0,1,2.43-2.736,2.157,2.157,0,0,1,2.124,2.412V88h1.746V82.42a3.322,3.322,0,0,0-3.384-3.636,2.981,2.981,0,0,0-2.916,1.746v-1.6h-1.746ZM199.7,78.928v1.206a3.574,3.574,0,0,0-2.88-1.35c-2.772,0-4.338,1.98-4.338,4.68s1.566,4.68,4.356,4.68a3.287,3.287,0,0,0,2.862-1.3v1.476a1.784,1.784,0,0,1-1.8,1.89h-4.194v1.458h4.374a3.163,3.163,0,0,0,3.366-3.24v-9.5Zm-2.664,7.686c-1.674,0-2.772-1.242-2.772-3.15s1.1-3.15,2.772-3.15c1.692,0,2.79,1.242,2.79,3.15S198.731,86.614,197.039,86.614ZM208.055,88h4.9c2.61,0,4.23-1.4,4.23-3.69a3.2,3.2,0,0,0-2.2-3.2,2.79,2.79,0,0,0,1.62-2.466c0-2.07-1.53-3.24-3.888-3.24h-4.662Zm1.854-7.506V76.966h2.7c1.422,0,2.178.612,2.178,1.764,0,1.17-.756,1.764-2.16,1.764Zm0,5.85V82.132h2.79c1.764,0,2.628.738,2.628,2.106s-.864,2.106-2.628,2.106Zm16.4-7.416h-1.8l-2.394,6.8-2.376-6.8h-1.8l3.366,9.162-1.224,3.582h1.674l1.368-4ZM231.944,88h1.872V83h3.006c2.538,0,4.068-1.566,4.068-3.8s-1.53-3.8-4.068-3.8h-4.878Zm1.872-6.624V77.02h2.952a2.179,2.179,0,1,1,0,4.356ZM242.524,88h1.746V75.13h-1.746Zm7.5-9.216a3.636,3.636,0,0,0-3.906,3.114h1.62a2.062,2.062,0,0,1,2.232-1.71c1.4,0,2.2.756,2.2,1.854,0,.324-.2.54-.612.54h-1.89c-2.142,0-3.528,1.08-3.528,2.826a2.768,2.768,0,0,0,3.078,2.736,3.131,3.131,0,0,0,2.952-1.62V88h1.746V82.15C253.912,80.134,252.364,78.784,250.024,78.784Zm-.468,7.974c-1.008,0-1.692-.558-1.692-1.386,0-.954.774-1.566,1.962-1.566h2.34v.216A2.466,2.466,0,0,1,249.556,86.758Zm7.334-10.674v2.844h-1.854V80.44h1.854v4.59A2.77,2.77,0,0,0,259.9,88h1.422V86.488H260.04a1.329,1.329,0,0,1-1.4-1.512V80.44h2.682V78.928h-2.682V76.084ZM263.851,88H265.6V80.44h2.736V78.928H265.6V78.1a1.32,1.32,0,0,1,1.368-1.458h1.368V75.13h-1.494a2.76,2.76,0,0,0-2.988,2.916v.882H262V80.44h1.854Zm9.566.144a4.68,4.68,0,1,0-4.68-4.68A4.5,4.5,0,0,0,273.417,88.144Zm0-1.53a3.163,3.163,0,1,1,2.88-3.15A2.889,2.889,0,0,1,273.417,86.614Zm11.627-6.174V78.928h-1.1a2.27,2.27,0,0,0-2.412,1.746V78.928h-1.746V88h1.746V83.9c0-1.98.54-3.456,2.2-3.456ZM286.485,88h1.746V82.726a2.164,2.164,0,0,1,2.214-2.412c1.188,0,1.908.972,1.908,2.412V88H294.1V82.726a2.164,2.164,0,0,1,2.214-2.412c1.206,0,1.926.972,1.926,2.412V88h1.746V82.24c0-2.106-1.224-3.456-3.186-3.456a3.1,3.1,0,0,0-2.952,1.854,2.8,2.8,0,0,0-2.934-1.854,2.74,2.74,0,0,0-2.682,1.764v-1.62h-1.746Zm22.905,0h1.872V77.056H315.2V75.4h-9.756v1.656h3.942Zm13.8-9.072h-1.8l-2.394,6.8-2.376-6.8h-1.8l3.366,9.162-1.224,3.582h1.674l1.368-4Zm1.41,12.744h1.746v-4.95a3.253,3.253,0,0,0,2.808,1.422c2.754,0,4.392-1.98,4.392-4.68s-1.566-4.68-4.3-4.68a3.341,3.341,0,0,0-2.9,1.494v-1.35H324.6Zm4.392-5.058c-1.692,0-2.79-1.26-2.79-3.15s1.1-3.15,2.79-3.15c1.674,0,2.79,1.26,2.79,3.15S330.663,86.614,328.989,86.614Zm12.738-1.566a2.228,2.228,0,0,1-2.448,1.6,2.868,2.868,0,0,1-2.844-2.88h6.93c.018-.162.036-.45.036-.684a4.087,4.087,0,0,0-4.3-4.3c-2.79,0-4.374,2.088-4.374,4.626a4.521,4.521,0,0,0,4.554,4.734c2.232,0,3.87-1.224,4.194-3.1Zm-2.628-4.86a2.367,2.367,0,0,1,2.538,2.3h-5.148A2.485,2.485,0,0,1,339.1,80.188Z" fill="#7b88a8"/>
    <rect id="Rectangle_126" data-name="Rectangle 126" width="8" height="8" rx="4" transform="translate(117 385)" fill="#9672ff"/>
    <path id="Path_426" data-name="Path 426" d="M131.994,394h1.456v-9.8h-1.456Zm3.319,0h1.358v-3.822a1.947,1.947,0,0,1,1.89-2.128,1.677,1.677,0,0,1,1.652,1.876V394h1.358v-4.34a2.584,2.584,0,0,0-2.632-2.828,2.318,2.318,0,0,0-2.268,1.358v-1.246h-1.358Zm10.476.112c1.6,0,2.646-.826,2.646-2.114,0-3.22-4.032-1.428-4.032-3.178,0-.546.49-.91,1.218-.91a1.4,1.4,0,0,1,1.484,1.134h1.274c-.07-1.33-1.162-2.212-2.758-2.212-1.47,0-2.506.812-2.506,2.03,0,3.01,4,1.288,4,3.164,0,.518-.518.952-1.33.952a1.409,1.409,0,0,1-1.582-1.274h-1.274A2.575,2.575,0,0,0,145.789,394.112Zm4.774-9.38v2.212h-1.442v1.176h1.442v3.57A2.155,2.155,0,0,0,152.9,394h1.106v-1.176h-.994a1.034,1.034,0,0,1-1.092-1.176V388.12h2.086v-1.176h-2.086v-2.212Zm7.169,2.1a2.828,2.828,0,0,0-3.038,2.422h1.26a1.6,1.6,0,0,1,1.736-1.33c1.092,0,1.708.588,1.708,1.442,0,.252-.154.42-.476.42h-1.47c-1.666,0-2.744.84-2.744,2.2a2.153,2.153,0,0,0,2.394,2.128,2.435,2.435,0,0,0,2.3-1.26V394h1.358v-4.55C160.756,387.882,159.552,386.832,157.732,386.832Zm-.364,6.2c-.784,0-1.316-.434-1.316-1.078,0-.742.6-1.218,1.526-1.218h1.82v.168A1.918,1.918,0,0,1,157.368,393.034Zm10.239-6.09v.938a2.78,2.78,0,0,0-2.24-1.05c-2.156,0-3.374,1.54-3.374,3.64s1.218,3.64,3.388,3.64a2.557,2.557,0,0,0,2.226-1.008v1.148a1.387,1.387,0,0,1-1.4,1.47h-3.262v1.134h3.4a2.46,2.46,0,0,0,2.618-2.52v-7.392Zm-2.072,5.978a2.468,2.468,0,1,1,2.17-2.45A2.176,2.176,0,0,1,165.535,392.922Zm9.3-4.8v-1.176h-.854a1.766,1.766,0,0,0-1.876,1.358v-1.358h-1.358V394h1.358v-3.192c0-1.54.42-2.688,1.708-2.688Zm3.66-1.288a2.828,2.828,0,0,0-3.038,2.422h1.26a1.6,1.6,0,0,1,1.736-1.33c1.092,0,1.708.588,1.708,1.442,0,.252-.154.42-.476.42h-1.47c-1.666,0-2.744.84-2.744,2.2a2.153,2.153,0,0,0,2.394,2.128,2.435,2.435,0,0,0,2.3-1.26V394h1.358v-4.55C181.523,387.882,180.319,386.832,178.5,386.832Zm-.364,6.2c-.784,0-1.316-.434-1.316-1.078,0-.742.6-1.218,1.526-1.218h1.82v.168A1.918,1.918,0,0,1,178.135,393.034ZM183.1,394h1.358v-4.1a1.683,1.683,0,0,1,1.722-1.876c.924,0,1.484.756,1.484,1.876V394h1.358v-4.1a1.683,1.683,0,0,1,1.722-1.876c.938,0,1.5.756,1.5,1.876V394H193.6v-4.48a2.509,2.509,0,0,0-4.774-1.246,2.178,2.178,0,0,0-2.282-1.442,2.131,2.131,0,0,0-2.086,1.372v-1.26H183.1Z" fill="#7b88a8"/>
    <rect id="Rectangle_127" data-name="Rectangle 127" width="8" height="8" rx="4" transform="translate(219 385)" fill="#f2b8ec"/>
    <path id="Path_427" data-name="Path 427" d="M233.994,394H237a4.9,4.9,0,1,0,0-9.8h-3.01Zm1.456-1.288v-7.224h1.47a3.613,3.613,0,0,1,0,7.224Zm11.994-4.592v-1.176h-.854a1.766,1.766,0,0,0-1.876,1.358v-1.358h-1.358V394h1.358v-3.192c0-1.54.42-2.688,1.708-2.688Zm1.037-4.13V385.7h1.512V383.99Zm.084,10.01h1.358v-7.056h-1.358Zm6.716.112c2.17,0,3.388-1.54,3.388-3.64s-1.218-3.64-3.374-3.64a2.57,2.57,0,0,0-2.226,1.148v-3.99h-1.358V394h1.358v-1.05A2.559,2.559,0,0,0,255.281,394.112Zm-.154-1.19a2.468,2.468,0,1,1,2.17-2.45A2.186,2.186,0,0,1,255.127,392.922Zm8.522,1.19c2.17,0,3.388-1.54,3.388-3.64s-1.218-3.64-3.374-3.64a2.57,2.57,0,0,0-2.226,1.148v-3.99h-1.358V394h1.358v-1.05A2.559,2.559,0,0,0,263.649,394.112Zm-.154-1.19a2.468,2.468,0,1,1,2.17-2.45A2.186,2.186,0,0,1,263.495,392.922Zm8.521,1.19c2.17,0,3.388-1.54,3.388-3.64s-1.218-3.64-3.374-3.64a2.57,2.57,0,0,0-2.226,1.148v-3.99h-1.358V394H269.8v-1.05A2.559,2.559,0,0,0,272.016,394.112Zm-.154-1.19a2.468,2.468,0,1,1,2.17-2.45A2.186,2.186,0,0,1,271.862,392.922ZM276.813,394h1.358V383.99h-1.358Zm8.2-2.3a1.733,1.733,0,0,1-1.9,1.246,2.231,2.231,0,0,1-2.212-2.24h5.39c.014-.126.028-.35.028-.532a3.179,3.179,0,0,0-3.346-3.346,3.336,3.336,0,0,0-3.4,3.6,3.516,3.516,0,0,0,3.542,3.682,3.047,3.047,0,0,0,3.262-2.408Zm-2.044-3.78a1.841,1.841,0,0,1,1.974,1.792h-4A1.933,1.933,0,0,1,282.966,387.924Z" fill="#7b88a8"/>
    <rect id="Rectangle_128" data-name="Rectangle 128" width="8" height="8" rx="4" transform="translate(311 385)" fill="#4ddffd"/>
    <path id="Path_428" data-name="Path 428" d="M328.22,394h1.456v-8.512h3.066V384.2h-7.588v1.288h3.066Zm6.475,0h1.26l1.6-5.264,1.61,5.264h1.26l2.184-7.056h-1.372l-1.442,5.25-1.582-5.25h-1.288l-1.6,5.25-1.456-5.25h-1.358Zm8.917-10.01V385.7h1.512V383.99ZM343.7,394h1.358v-7.056H343.7Zm11.784-5.88v-1.176h-2.086v-2.212h-1.358v2.212h-3.094v-2.212h-1.358v2.212h-1.442v1.176h1.442v3.57a2.155,2.155,0,0,0,2.338,2.31h1.106v-1.176h-.994a1.034,1.034,0,0,1-1.092-1.176V388.12h3.094v3.57a2.155,2.155,0,0,0,2.338,2.31h1.106v-1.176h-.994a1.04,1.04,0,0,1-1.092-1.176V388.12Zm6.053,3.584a1.733,1.733,0,0,1-1.9,1.246,2.231,2.231,0,0,1-2.212-2.24h5.39c.014-.126.028-.35.028-.532a3.178,3.178,0,0,0-3.346-3.346,3.336,3.336,0,0,0-3.4,3.6,3.516,3.516,0,0,0,3.542,3.682,3.047,3.047,0,0,0,3.262-2.408Zm-2.044-3.78a1.841,1.841,0,0,1,1.974,1.792h-4A1.933,1.933,0,0,1,359.489,387.924Zm8.817.2v-1.176h-.854a1.766,1.766,0,0,0-1.876,1.358v-1.358h-1.358V394h1.358v-3.192c0-1.54.42-2.688,1.708-2.688Z" fill="#7b88a8"/>
    <g id="Group_99" data-name="Group 99">
      <path id="Path_429" data-name="Path 429" d="M105,169a18,18,0,0,0-18,18v12a18,18,0,0,0,18,18h20.787a8,8,0,0,1,5.656,2.343l1.8,1.8a8,8,0,0,0,11.313,0l1.8-1.8A8,8,0,0,1,152.012,217H171a18,18,0,0,0,18-18V187a18,18,0,0,0-18-18Z" fill="#fff" fill-rule="evenodd"/>
      <path id="Path_430" data-name="Path 430" d="M88,187a17,17,0,0,1,17-17v-2a19,19,0,0,0-19,19Zm0,12V187H86v12Zm17,17a17,17,0,0,1-17-17H86a19,19,0,0,0,19,19Zm20.787,0H105v2h20.787Zm4.949,4.05,1.8,1.8,1.415-1.414-1.8-1.8Zm14.527,1.8,1.8-1.8-1.414-1.414-1.8,1.8ZM171,216H152.012v2H171Zm17-17a17,17,0,0,1-17,17v2a19,19,0,0,0,19-19Zm0-12v12h2V187Zm-17-17a17,17,0,0,1,17,17h2a19,19,0,0,0-19-19Zm-66,0h66v-2H105Zm42.062,50.05a7,7,0,0,1,4.95-2.05v-2a9,9,0,0,0-6.364,2.636Zm-14.527,1.8a9,9,0,0,0,12.728,0l-1.414-1.414a7,7,0,0,1-9.9,0ZM125.787,218a7,7,0,0,1,4.949,2.05l1.415-1.414A9,9,0,0,0,125.787,216Z" fill="#f8faff"/>
    </g>
    <path id="Path_431" data-name="Path 431" d="M110.276,196.578c0-6.006-8.382-3.454-8.382-6.864,0-1.078.946-1.782,2.464-1.782a2.545,2.545,0,0,1,2.816,2.244h2.772a4.769,4.769,0,0,0-4.2-4.62V183.62H103.39v1.87c-2.6.33-4.334,1.958-4.334,4.224,0,5.9,8.272,3.608,8.272,6.908,0,1.364-1.144,2.024-2.794,2.024a2.918,2.918,0,0,1-3.146-2.816H98.594a5.3,5.3,0,0,0,4.8,5.258v1.936l2.354.022v-1.958C108.472,200.736,110.276,199.086,110.276,196.578Zm7.56-10.978h-2.772c-.176,1.672-.88,2.156-2.068,2.156h-1.1v2.508h1.21a2.607,2.607,0,0,0,1.826-.594V201h2.9Zm8.094,15.576c3.036,0,5.676-1.716,5.676-4.686a3.753,3.753,0,0,0-2.574-3.608,3.707,3.707,0,0,0,1.936-3.322c0-2.288-2.2-4.136-5.17-4.136-2.794,0-5.192,1.8-5.236,4.8h2.75a2.194,2.194,0,0,1,2.42-2.288c1.452,0,2.42.726,2.42,1.914a2.032,2.032,0,0,1-2.266,2h-1.364v2.42h1.408c1.694,0,2.794.792,2.794,2.156,0,1.386-1.1,2.222-2.794,2.222-1.606,0-2.9-.88-2.9-2.508H120.21C120.21,199.262,122.762,201.176,125.93,201.176Zm7.222.682v2.134h1.21a3.021,3.021,0,0,0,3.278-3.322v-2.6h-2.684v2.354c0,.9-.33,1.43-.99,1.43Zm12.575-.682c3.234,0,5.72-1.8,5.72-4.686a3.988,3.988,0,0,0-2.618-3.784,3.681,3.681,0,0,0,1.98-3.146c0-2.42-2.09-4.136-5.082-4.136s-5.082,1.716-5.082,4.136a3.7,3.7,0,0,0,1.958,3.146,4.081,4.081,0,0,0-2.618,3.784C139.985,199.372,142.493,201.176,145.727,201.176Zm0-9.614c-1.452,0-2.354-.726-2.354-1.892s.9-1.892,2.354-1.892c1.43,0,2.376.726,2.376,1.892S147.157,191.562,145.727,191.562Zm0,7.106c-1.738,0-2.9-.836-2.9-2.244,0-1.386,1.166-2.266,2.9-2.266,1.76,0,2.86.88,2.86,2.266C148.587,197.832,147.487,198.668,145.727,198.668Zm13.209,2.508c3.036,0,5.676-1.716,5.676-4.686a3.753,3.753,0,0,0-2.574-3.608,3.707,3.707,0,0,0,1.936-3.322c0-2.288-2.2-4.136-5.17-4.136-2.794,0-5.192,1.8-5.236,4.8h2.75a2.194,2.194,0,0,1,2.42-2.288c1.452,0,2.42.726,2.42,1.914a2.032,2.032,0,0,1-2.266,2h-1.364v2.42h1.408c1.694,0,2.794.792,2.794,2.156,0,1.386-1.1,2.222-2.794,2.222-1.606,0-2.9-.88-2.9-2.508h-2.816C153.216,199.262,155.768,201.176,158.936,201.176Zm7.142-10.23H169c-.044-1.87.88-3.124,2.53-3.124a2.242,2.242,0,0,1,2.442,2.354,2.883,2.883,0,0,1-1.892,2.618l-2.464,1.232c-1.474.726-3.564,2.354-3.564,4.84l.022,2.134H176.9v-2.53h-7.964c0-.946,1.056-1.694,1.936-2.156l2.376-1.188c2.442-1.21,3.652-2.86,3.652-4.928,0-2.882-2.2-4.774-5.368-4.774C168.168,185.424,166.012,187.536,166.078,190.946Z" fill="#6a35ff"/>
  </g>
</svg>
