<svg width="375" height="302" viewBox="0 0 375 302" fill="none" xmlns="http://www.w3.org/2000/svg">
<g clip-path="url(#clip0)">
<rect width="375" height="301.015" fill="white"/>
<g filter="url(#filter0_d)">
<path d="M379.905 -2H0.296785C-11.4651 -2 -21 7.53488 -21 19.2968V282.199C-21 293.961 -11.4651 303.495 0.296785 303.495H379.905C391.667 303.495 401.201 293.961 401.201 282.199V19.2968C401.201 7.53488 391.667 -2 379.905 -2Z" fill="white" fill-opacity="0.01"/>
</g>
<path d="M379.905 -2H0.296785C-11.4651 -2 -21 7.53488 -21 19.2968V282.199C-21 293.961 -11.4651 303.495 0.296785 303.495H379.905C391.667 303.495 401.201 293.961 401.201 282.199V19.2968C401.201 7.53488 391.667 -2 379.905 -2Z" fill="white"/>
<path d="M379.905 -1.69611H0.29696C-11.2971 -1.69611 -20.696 7.70274 -20.696 19.2969V282.199C-20.696 293.793 -11.2971 303.192 0.29696 303.192H379.905C391.499 303.192 400.898 293.793 400.898 282.199V19.2969C400.898 7.70274 391.499 -1.69611 379.905 -1.69611Z" stroke="#C5CCD8" stroke-opacity="0.3" stroke-width="0.607716"/>
<path d="M231.863 63.2181H23.623C20.4639 63.2181 17.9021 65.7799 17.9021 68.939C17.9021 72.098 20.4639 74.6598 23.623 74.6598H231.863C235.022 74.6598 237.584 72.098 237.584 68.939C237.584 65.7799 235.022 63.2181 231.863 63.2181Z" fill="#E4E8F4"/>
<path d="M207.835 38.0462H24.7672C20.9754 38.0462 17.9021 41.1198 17.9021 44.9113C17.9021 48.7027 20.9754 51.7763 24.7672 51.7763H207.835C211.627 51.7763 214.7 48.7027 214.7 44.9113C214.7 41.1198 211.627 38.0462 207.835 38.0462Z" fill="#C0C9E2"/>
<path d="M183.808 181.64C183.808 227.454 146.669 264.593 100.855 264.593C55.0409 264.593 17.9021 227.454 17.9021 181.64C17.9021 135.826 55.0409 98.6876 100.855 98.6876C146.669 98.6876 183.808 135.826 183.808 181.64ZM34.4927 181.64C34.4927 218.292 64.2035 248.003 100.855 248.003C137.506 248.003 167.217 218.292 167.217 181.64C167.217 144.989 137.506 115.278 100.855 115.278C64.2035 115.278 34.4927 144.989 34.4927 181.64Z" fill="#F1F4F8"/>
<path d="M183.808 181.64C183.808 200.266 177.539 218.351 166.01 232.982L152.979 222.713C162.202 211.009 167.217 196.541 167.217 181.64H183.808Z" fill="#0B63F4"/>
<path d="M166.015 232.976C157.918 243.252 147.506 251.468 135.63 256.952C123.752 262.436 110.745 265.034 97.6728 264.532C84.5995 264.03 71.8305 260.443 60.4082 254.064C48.987 247.686 39.2352 238.696 31.9502 227.83L45.7318 218.592C51.5591 227.285 59.3601 234.477 68.4975 239.58C77.636 244.683 87.8512 247.552 98.309 247.953C108.767 248.355 119.172 246.277 128.674 241.89C138.177 237.502 146.506 230.93 152.982 222.708L166.015 232.976Z" fill="#6938F5"/>
<path d="M32.1116 228.068C22.4937 213.827 17.536 196.951 17.9232 179.771C18.3104 162.591 24.0235 145.956 34.273 132.163C44.5225 118.37 58.803 108.101 75.1407 102.773C91.4784 97.4473 109.068 97.3248 125.478 102.426L120.553 118.269C107.425 114.189 93.3537 114.286 80.2838 118.547C67.2138 122.809 55.7892 131.024 47.5889 142.059C39.3897 153.093 34.8188 166.401 34.5098 180.145C34.1998 193.889 38.1655 207.39 45.8601 218.783L32.1116 228.068Z" fill="#FF3868"/>
<path d="M315.388 128.436H265.044C261.885 128.436 259.323 130.998 259.323 134.157C259.323 137.316 261.885 139.878 265.044 139.878H315.388C318.547 139.878 321.109 137.316 321.109 134.157C321.109 130.998 318.547 128.436 315.388 128.436Z" fill="#E4E8F4"/>
<path d="M357.723 176.492H265.044C261.885 176.492 259.323 179.053 259.323 182.212C259.323 185.372 261.885 187.933 265.044 187.933H357.723C360.882 187.933 363.443 185.372 363.443 182.212C363.443 179.053 360.882 176.492 357.723 176.492Z" fill="#E4E8F4"/>
<path d="M334.839 224.547H265.044C261.885 224.547 259.323 227.109 259.323 230.268C259.323 233.427 261.885 235.989 265.044 235.989H334.839C337.998 235.989 340.56 233.427 340.56 230.268C340.56 227.109 337.998 224.547 334.839 224.547Z" fill="#E4E8F4"/>
<path d="M239.872 144.455C245.56 144.455 250.17 139.845 250.17 134.157C250.17 128.469 245.56 123.859 239.872 123.859C234.184 123.859 229.575 128.469 229.575 134.157C229.575 139.845 234.184 144.455 239.872 144.455Z" fill="#FF3868"/>
<path d="M239.872 192.51C245.56 192.51 250.17 187.9 250.17 182.212C250.17 176.525 245.56 171.915 239.872 171.915C234.184 171.915 229.575 176.525 229.575 182.212C229.575 187.9 234.184 192.51 239.872 192.51Z" fill="#6938F5"/>
<path d="M239.872 240.565C245.56 240.565 250.17 235.956 250.17 230.268C250.17 224.58 245.56 219.97 239.872 219.97C234.184 219.97 229.575 224.58 229.575 230.268C229.575 235.956 234.184 240.565 239.872 240.565Z" fill="#0B63F4"/>
</g>
<defs>
<filter id="filter0_d" x="-94.2273" y="-52.3438" width="591.539" height="474.833" filterUnits="userSpaceOnUse" color-interpolation-filters="sRGB">
<feFlood flood-opacity="0" result="BackgroundImageFix"/>
<feColorMatrix in="SourceAlpha" type="matrix" values="0 0 0 0 0 0 0 0 0 0 0 0 0 0 0 0 0 0 127 0" result="hardAlpha"/>
<feOffset dx="11.4418" dy="34.3253"/>
<feGaussianBlur stdDeviation="42.3345"/>
<feColorMatrix type="matrix" values="0 0 0 0 0.0572917 0 0 0 0 0.19525 0 0 0 0 0.55 0 0 0 0.25 0"/>
<feBlend mode="normal" in2="BackgroundImageFix" result="effect1_dropShadow"/>
<feBlend mode="normal" in="SourceGraphic" in2="effect1_dropShadow" result="shape"/>
</filter>
<clipPath id="clip0">
<rect width="375" height="301.015" fill="white"/>
</clipPath>
</defs>
</svg>
