<svg width="708" height="517" viewBox="0 0 708 517" fill="none" xmlns="http://www.w3.org/2000/svg">
<g filter="url(#filter0_dd)">
<path d="M692.26 0.401978H15.083C3.32661 0.401978 -6.20386 9.93244 -6.20386 21.6889V495.713C-6.20386 507.469 3.32661 517 15.083 517H692.26C704.017 517 713.548 507.469 713.548 495.713V21.6889C713.548 9.93244 704.017 0.401978 692.26 0.401978Z" fill="white" fill-opacity="0.01"/>
</g>
<path d="M692.26 0.401978H15.083C3.32661 0.401978 -6.20386 9.93244 -6.20386 21.6889V495.713C-6.20386 507.469 3.32661 517 15.083 517H692.26C704.017 517 713.548 507.469 713.548 495.713V21.6889C713.548 9.93244 704.017 0.401978 692.26 0.401978Z" fill="white"/>
<path d="M672.605 123.683H265.143C255.738 123.683 248.114 131.307 248.114 140.712V457.186C248.114 466.592 255.738 474.216 265.143 474.216H672.605C682.009 474.216 689.634 466.592 689.634 457.186V140.712C689.634 131.307 682.009 123.683 672.605 123.683Z" fill="#F3F6FC"/>
<path d="M213.859 123.683H39.5736C30.1684 123.683 22.5441 131.307 22.5441 140.712V272.692C22.5441 282.097 30.1684 289.721 39.5736 289.721H213.859C223.263 289.721 230.888 282.097 230.888 272.692V140.712C230.888 131.307 223.263 123.683 213.859 123.683Z" fill="#F3F6FC"/>
<path d="M213.859 308.179H39.5736C30.1684 308.179 22.5441 315.804 22.5441 325.21V457.189C22.5441 466.593 30.1684 474.218 39.5736 474.218H213.859C223.263 474.218 230.888 466.593 230.888 457.189V325.21C230.888 315.804 223.263 308.179 213.859 308.179Z" fill="#F3F6FC"/>
<path d="M33.1092 46.7642C38.9441 46.7642 43.6742 42.0341 43.6742 36.1993C43.6742 30.3644 38.9441 25.6343 33.1092 25.6343C27.2744 25.6343 22.5443 30.3644 22.5443 36.1993C22.5443 42.0341 27.2744 46.7642 33.1092 46.7642Z" fill="#F8334A"/>
<path d="M64.457 46.7642C70.2915 46.7642 75.0222 42.0341 75.0222 36.1993C75.0222 30.3644 70.2915 25.6343 64.457 25.6343C58.6225 25.6343 53.8918 30.3644 53.8918 36.1993C53.8918 42.0341 58.6225 46.7642 64.457 46.7642Z" fill="#F7C31D"/>
<path d="M95.8025 46.7633C101.637 46.7633 106.368 42.0333 106.368 36.1984C106.368 30.3636 101.637 25.6335 95.8025 25.6335C89.968 25.6335 85.2373 30.3636 85.2373 36.1984C85.2373 42.0333 89.968 46.7633 95.8025 46.7633Z" fill="#38D535"/>
<path d="M463.672 68.8893H41.0587C30.8335 68.8893 22.5443 77.1785 22.5443 87.4035C22.5443 97.6292 30.8335 105.918 41.0587 105.918H463.672C473.898 105.918 482.187 97.6292 482.187 87.4035C482.187 77.1785 473.898 68.8893 463.672 68.8893Z" fill="#F3F6FC"/>
<path d="M617.289 68.8873H518.404C508.178 68.8873 499.889 77.1765 499.889 87.4012V87.4023C499.889 97.6269 508.178 105.916 518.404 105.916H617.289C627.515 105.916 635.804 97.6269 635.804 87.4023V87.4012C635.804 77.1765 627.515 68.8873 617.289 68.8873Z" fill="#F3F6FC"/>
<path d="M678.388 68.8873H664.33C658.119 68.8873 653.084 73.9225 653.084 80.1335V94.6709C653.084 100.882 658.119 105.917 664.33 105.917H678.388C684.599 105.917 689.635 100.882 689.635 94.6709V80.1335C689.635 73.9225 684.599 68.8873 678.388 68.8873Z" fill="#F3F6FC"/>
<path d="M164.685 83.9141H44.5815C42.6551 83.9141 41.0934 85.4763 41.0934 87.4023C41.0934 89.3283 42.6551 90.8905 44.5815 90.8905H164.685C166.611 90.8905 168.173 89.3283 168.173 87.4023C168.173 85.4763 166.611 83.9141 164.685 83.9141Z" fill="#C0C9E2"/>
<path d="M227.401 83.9141H180.815C178.889 83.9141 177.326 85.4763 177.326 87.4023C177.326 89.3283 178.889 90.8905 180.815 90.8905H227.401C229.326 90.8905 230.889 89.3283 230.889 87.4023C230.889 85.4763 229.326 83.9141 227.401 83.9141Z" fill="#C0C9E2"/>
<path d="M559.602 83.9141H519.311C517.385 83.9141 515.823 85.4763 515.823 87.4023C515.823 89.3283 517.385 90.8905 519.311 90.8905H559.602C561.528 90.8905 563.09 89.3283 563.09 87.4023C563.09 85.4763 561.528 83.9141 559.602 83.9141Z" fill="#C0C9E2"/>
<path d="M461.781 83.9141H447.272C445.346 83.9141 443.784 85.4763 443.784 87.4023C443.784 89.3283 445.346 90.8905 447.272 90.8905H461.781C463.707 90.8905 465.269 89.3283 465.269 87.4023C465.269 85.4763 463.707 83.9141 461.781 83.9141Z" fill="#C0C9E2"/>
<path d="M615.082 83.9141H600.573C598.647 83.9141 597.085 85.4763 597.085 87.4023C597.085 89.3283 598.647 90.8905 600.573 90.8905H615.082C617.007 90.8905 618.57 89.3283 618.57 87.4023C618.57 85.4763 617.007 83.9141 615.082 83.9141Z" fill="#C0C9E2"/>
<path d="M670.147 91.5521C670.817 92.2218 671.901 92.2218 672.571 91.5521L678.317 85.8054C679.015 85.1068 679.015 83.9729 678.317 83.2744C677.618 82.5758 676.485 82.5758 675.787 83.2744L671.359 87.7025L666.932 83.2744C666.233 82.5758 665.099 82.5758 664.401 83.2744C663.702 83.9729 663.702 85.1068 664.401 85.8054L670.147 91.5521Z" fill="#C0C9E2"/>
<path d="M651.699 210.497H286.048C281.746 210.497 278.259 213.984 278.259 218.287C278.259 222.589 281.746 226.077 286.048 226.077H651.699C656.002 226.077 659.489 222.589 659.489 218.287C659.489 213.984 656.002 210.497 651.699 210.497Z" fill="#D3DEF5"/>
<path d="M278.259 218.287C278.259 213.984 281.746 210.497 286.048 210.497H454.412V226.076H286.048C281.746 226.076 278.259 222.589 278.259 218.287Z" fill="#2253FF"/>
<path d="M539.158 210.496H446.709V226.076H539.158V210.496Z" fill="#F13D6F"/>
<path d="M603.103 210.496H539.158V226.076H603.103V210.496Z" fill="#693CF3"/>
<path d="M297.804 270.536H283.93C280.866 270.536 278.382 273.02 278.382 276.086V289.958C278.382 293.022 280.866 295.506 283.93 295.506H297.804C300.868 295.506 303.352 293.022 303.352 289.958V276.086C303.352 273.02 300.868 270.536 297.804 270.536Z" fill="#2253FF"/>
<path d="M297.804 316.715H283.93C280.866 316.715 278.382 319.199 278.382 322.264V336.136C278.382 339.2 280.866 341.684 283.93 341.684H297.804C300.868 341.684 303.352 339.2 303.352 336.136V322.264C303.352 319.199 300.868 316.715 297.804 316.715Z" fill="#F13D6F"/>
<path d="M297.804 362.892H283.93C280.866 362.892 278.382 365.376 278.382 368.44V382.313C278.382 385.378 280.866 387.862 283.93 387.862H297.804C300.868 387.862 303.352 385.378 303.352 382.313V368.44C303.352 365.376 300.868 362.892 297.804 362.892Z" fill="#693CF3"/>
<path d="M297.804 409.07H283.93C280.866 409.07 278.382 411.554 278.382 414.618V428.492C278.382 431.556 280.866 434.04 283.93 434.04H297.804C300.868 434.04 303.352 431.556 303.352 428.492V414.618C303.352 411.554 300.868 409.07 297.804 409.07Z" fill="#D3DEF5"/>
<path d="M440.989 276.982H326.64C323.481 276.982 320.92 279.543 320.92 282.702C320.92 285.862 323.481 288.423 326.64 288.423H440.989C444.148 288.423 446.709 285.862 446.709 282.702C446.709 279.543 444.148 276.982 440.989 276.982Z" fill="#96A4CA"/>
<path d="M440.989 323.479H326.64C323.481 323.479 320.92 326.04 320.92 329.199C320.92 332.359 323.481 334.92 326.64 334.92H440.989C444.148 334.92 446.709 332.359 446.709 329.199C446.709 326.04 444.148 323.479 440.989 323.479Z" fill="#96A4CA"/>
<path d="M440.989 369.656H326.64C323.481 369.656 320.92 372.217 320.92 375.376C320.92 378.536 323.481 381.097 326.64 381.097H440.989C444.148 381.097 446.709 378.536 446.709 375.376C446.709 372.217 444.148 369.656 440.989 369.656Z" fill="#96A4CA"/>
<path d="M440.989 415.834H326.64C323.481 415.834 320.92 418.395 320.92 421.555C320.92 424.715 323.481 427.276 326.64 427.276H440.989C444.148 427.276 446.709 424.715 446.709 421.555C446.709 418.395 444.148 415.834 440.989 415.834Z" fill="#96A4CA"/>
<path d="M551.415 276.982H479.088C475.929 276.982 473.368 279.543 473.368 282.702C473.368 285.862 475.929 288.423 479.088 288.423H551.415C554.574 288.423 557.135 285.862 557.135 282.702C557.135 279.543 554.574 276.982 551.415 276.982Z" fill="#C0C9E2"/>
<path d="M551.415 323.479H479.088C475.929 323.479 473.368 326.04 473.368 329.199C473.368 332.359 475.929 334.92 479.088 334.92H551.415C554.574 334.92 557.135 332.359 557.135 329.199C557.135 326.04 554.574 323.479 551.415 323.479Z" fill="#C0C9E2"/>
<path d="M551.415 369.656H479.088C475.929 369.656 473.368 372.217 473.368 375.376C473.368 378.536 475.929 381.097 479.088 381.097H551.415C554.574 381.097 557.135 378.536 557.135 375.376C557.135 372.217 554.574 369.656 551.415 369.656Z" fill="#C0C9E2"/>
<path d="M551.415 415.834H479.088C475.929 415.834 473.368 418.395 473.368 421.555C473.368 424.715 475.929 427.276 479.088 427.276H551.415C554.574 427.276 557.135 424.715 557.135 421.555C557.135 418.395 554.574 415.834 551.415 415.834Z" fill="#C0C9E2"/>
<path d="M653.77 276.982H626.963C623.804 276.982 621.243 279.543 621.243 282.702C621.243 285.862 623.804 288.423 626.963 288.423H653.77C656.929 288.423 659.491 285.862 659.491 282.702C659.491 279.543 656.929 276.982 653.77 276.982Z" fill="#C0C9E2"/>
<path d="M653.77 323.479H626.963C623.804 323.479 621.243 326.04 621.243 329.2C621.243 332.359 623.804 334.92 626.963 334.92H653.77C656.929 334.92 659.491 332.359 659.491 329.2C659.491 326.04 656.929 323.479 653.77 323.479Z" fill="#C0C9E2"/>
<path d="M653.77 369.656H626.963C623.804 369.656 621.243 372.217 621.243 375.377C621.243 378.536 623.804 381.097 626.963 381.097H653.77C656.929 381.097 659.491 378.536 659.491 375.377C659.491 372.217 656.929 369.656 653.77 369.656Z" fill="#C0C9E2"/>
<path d="M653.77 415.834H626.963C623.804 415.834 621.243 418.395 621.243 421.555C621.243 424.715 623.804 427.276 626.963 427.276H653.77C656.929 427.276 659.491 424.715 659.491 421.555C659.491 418.395 656.929 415.834 653.77 415.834Z" fill="#C0C9E2"/>
<path d="M355.265 163.86H290.174C283.661 163.86 278.382 169.14 278.382 175.652C278.382 182.163 283.661 187.442 290.174 187.442H355.265C361.778 187.442 367.057 182.163 367.057 175.652C367.057 169.14 361.778 163.86 355.265 163.86Z" fill="#D4DDF0"/>
<path d="M484.247 177.116H387.402C384.551 177.116 382.24 179.428 382.24 182.279C382.24 185.131 384.551 187.442 387.402 187.442H484.247C487.099 187.442 489.411 185.131 489.411 182.279C489.411 179.428 487.099 177.116 484.247 177.116Z" fill="#C0C9E2"/>
<path fill-rule="evenodd" clip-rule="evenodd" d="M125.946 206.568V148.663C94.2969 149.05 68.7593 174.826 68.7593 206.568C68.7593 236.117 90.893 260.498 119.485 264.034L126.669 206.568H125.946Z" fill="#2253FF"/>
<path fill-rule="evenodd" clip-rule="evenodd" d="M182.94 192.449L125.786 206.97V148.666C126.028 148.663 126.269 148.662 126.512 148.662C153.687 148.662 176.515 167.276 182.94 192.449Z" fill="#693CF3"/>
<path fill-rule="evenodd" clip-rule="evenodd" d="M184.672 206.529C184.672 238.679 158.609 264.742 126.458 264.742C124.012 264.742 121.602 264.592 119.235 264.299L126.008 206.726L182.948 192.411C184.074 196.931 184.672 201.66 184.672 206.529Z" fill="#F13D6F"/>
<path d="M57.9263 473.167V357.745C57.9263 350.692 63.6442 344.974 70.698 344.974H83.5575C90.6113 344.974 96.3292 350.692 96.3292 357.745V473.167H57.9263Z" fill="#2253FF"/>
<path d="M107.514 473.167V417.816C107.514 410.762 113.232 405.043 120.286 405.043H133.147C140.2 405.043 145.918 410.762 145.918 417.816V473.167H107.514Z" fill="#693CF3"/>
<path d="M157.102 473.167V397.674C157.102 390.62 162.82 384.901 169.874 384.901H182.734C189.787 384.901 195.505 390.62 195.505 397.674V473.167H157.102Z" fill="#F13D6F"/>
<defs>
<filter id="filter0_dd" x="-60.2039" y="-29.598" width="803.605" height="584.598" filterUnits="userSpaceOnUse" color-interpolation-filters="sRGB">
<feFlood flood-opacity="0" result="BackgroundImageFix"/>
<feColorMatrix in="SourceAlpha" type="matrix" values="0 0 0 0 0 0 0 0 0 0 0 0 0 0 0 0 0 0 127 0" result="hardAlpha"/>
<feOffset dy="4.77647"/>
<feGaussianBlur stdDeviation="14.9265"/>
<feColorMatrix type="matrix" values="0 0 0 0 0.133333 0 0 0 0 0.32549 0 0 0 0 1 0 0 0 0.1 0"/>
<feBlend mode="normal" in2="BackgroundImageFix" result="effect1_dropShadow"/>
<feColorMatrix in="SourceAlpha" type="matrix" values="0 0 0 0 0 0 0 0 0 0 0 0 0 0 0 0 0 0 127 0" result="hardAlpha"/>
<feOffset dx="-20" dy="4"/>
<feGaussianBlur stdDeviation="17"/>
<feColorMatrix type="matrix" values="0 0 0 0 0.0346875 0 0 0 0 0.0765563 0 0 0 0 0.225 0 0 0 0.17 0"/>
<feBlend mode="normal" in2="effect1_dropShadow" result="effect2_dropShadow"/>
<feBlend mode="normal" in="SourceGraphic" in2="effect2_dropShadow" result="shape"/>
</filter>
</defs>
</svg>
