<svg width="544" height="489" viewBox="0 0 544 489" fill="none" xmlns="http://www.w3.org/2000/svg">
<path d="M521.627 0.19458H22.7565C10.3999 0.19458 0.383057 10.2114 0.383057 22.5679V466.504C0.383057 478.861 10.3999 488.877 22.7565 488.877H521.627C533.983 488.877 544 478.861 544 466.504V22.5679C544 10.2114 533.983 0.19458 521.627 0.19458Z" fill="white"/>
<path d="M506.072 51.5583H36.453C27.5733 51.5583 20.375 58.7568 20.375 67.6357V68.5284C20.375 77.4072 27.5733 84.6057 36.453 84.6057H506.072C514.952 84.6057 522.15 77.4072 522.15 68.5284V67.6357C522.15 58.7568 514.952 51.5583 506.072 51.5583Z" fill="#F3F6FC"/>
<path d="M178.068 63.4255H40.592C38.0245 63.4255 35.9426 65.5074 35.9426 68.0749C35.9426 70.6432 38.0245 72.7251 40.592 72.7251H178.068C180.635 72.7251 182.717 70.6432 182.717 68.0749C182.717 65.5074 180.635 63.4255 178.068 63.4255Z" fill="#C0C9E2"/>
<path d="M223.515 63.4255H191.136C188.569 63.4255 186.487 65.5074 186.487 68.0749C186.487 70.6432 188.569 72.7251 191.136 72.7251H223.515C226.083 72.7251 228.165 70.6432 228.165 68.0749C228.165 65.5074 226.083 63.4255 223.515 63.4255Z" fill="#C0C9E2"/>
<path d="M252.537 93.7281H33.8799C26.4218 93.7281 20.375 99.7743 20.375 107.233V354.982C20.375 362.441 26.4218 368.487 33.8799 368.487H252.537C259.995 368.487 266.042 362.441 266.042 354.982V107.233C266.042 99.7743 259.995 93.7281 252.537 93.7281Z" fill="#F2F4F8"/>
<path d="M28.3546 34.9955C32.7612 34.9955 36.3344 31.4228 36.3344 27.0159C36.3344 22.609 32.7612 19.0365 28.3546 19.0365C23.948 19.0365 20.3752 22.609 20.3752 27.0159C20.3752 31.4228 23.948 34.9955 28.3546 34.9955Z" fill="#F8334A"/>
<path d="M52.0303 34.9955C56.4369 34.9955 60.0101 31.4228 60.0101 27.0159C60.0101 22.609 56.4369 19.0365 52.0303 19.0365C47.6237 19.0365 44.0505 22.609 44.0505 27.0159C44.0505 31.4228 47.6237 34.9955 52.0303 34.9955Z" fill="#F7C31D"/>
<path d="M75.706 34.9955C80.1134 34.9955 83.6858 31.4228 83.6858 27.0159C83.6858 22.609 80.1134 19.0365 75.706 19.0365C71.2994 19.0365 67.7271 22.609 67.7271 27.0159C67.7271 31.4228 71.2994 34.9955 75.706 34.9955Z" fill="#38D535"/>
<path d="M201.921 391.153H66.4937C64.5024 391.153 62.8877 392.768 62.8877 394.759C62.8877 396.75 64.5024 398.365 66.4937 398.365H201.921C203.912 398.365 205.527 396.75 205.527 394.759C205.527 392.768 203.912 391.153 201.921 391.153Z" fill="#C0C9E2"/>
<path d="M423.091 391.153H338.95C336.959 391.153 335.344 392.768 335.344 394.759C335.344 396.75 336.959 398.365 338.95 398.365H423.091C425.082 398.365 426.697 396.75 426.697 394.759C426.697 392.768 425.082 391.153 423.091 391.153Z" fill="#C0C9E2"/>
<path d="M223.958 434.425H66.8944C64.6819 434.425 62.8877 436.219 62.8877 438.432C62.8877 440.645 64.6819 442.439 66.8944 442.439H223.958C226.17 442.439 227.964 440.645 227.964 438.432C227.964 436.219 226.17 434.425 223.958 434.425Z" fill="#C0C9E2"/>
<path d="M483.592 434.425H339.351C337.138 434.425 335.344 436.219 335.344 438.432C335.344 440.645 337.138 442.439 339.351 442.439H483.592C485.805 442.439 487.599 440.645 487.599 438.432C487.599 436.219 485.805 434.425 483.592 434.425Z" fill="#C0C9E2"/>
<path d="M146.184 404.487H66.9546C64.8455 404.487 63.1362 406.197 63.1362 408.306C63.1362 410.414 64.8455 412.124 66.9546 412.124H146.184C148.293 412.124 150.003 410.414 150.003 408.306C150.003 406.197 148.293 404.487 146.184 404.487Z" fill="#E4E8F4"/>
<path d="M488.801 404.776H338.95C336.959 404.776 335.344 406.39 335.344 408.382C335.344 410.373 336.959 411.988 338.95 411.988H488.801C490.792 411.988 492.407 410.373 492.407 408.382C492.407 406.39 490.792 404.776 488.801 404.776Z" fill="#E4E8F4"/>
<path d="M433.909 448.849H339.351C337.138 448.849 335.344 450.644 335.344 452.856C335.344 455.069 337.138 456.863 339.351 456.863H433.909C436.122 456.863 437.916 455.069 437.916 452.856C437.916 450.644 436.122 448.849 433.909 448.849Z" fill="#E4E8F4"/>
<path d="M157.045 448.048H66.4937C64.5024 448.048 62.8877 449.663 62.8877 451.654C62.8877 453.645 64.5024 455.26 66.4937 455.26H157.045C159.037 455.26 160.651 453.645 160.651 451.654C160.651 449.663 159.037 448.048 157.045 448.048Z" fill="#E4E8F4"/>
<path d="M178.551 326.426H100.303C98.1941 326.426 96.4849 328.135 96.4849 330.244C96.4849 332.353 98.1941 334.063 100.303 334.063H178.551C180.66 334.063 182.37 332.353 182.37 330.244C182.37 328.135 180.66 326.426 178.551 326.426Z" fill="#E4E7ED"/>
<path d="M37.4724 418.653C46.9155 418.653 54.5699 410.999 54.5699 401.556C54.5699 392.113 46.9155 384.458 37.4724 384.458C28.0294 384.458 20.375 392.113 20.375 401.556C20.375 410.999 28.0294 418.653 37.4724 418.653Z" fill="#DDE9FE"/>
<path d="M41.0488 397.087C41.0488 399.063 39.4493 400.662 37.4732 400.662C35.4971 400.662 33.8984 399.063 33.8984 397.087C33.8984 395.111 35.4971 393.511 37.4732 393.511C39.4493 393.511 41.0488 395.111 41.0488 397.087Z" fill="#3180FF"/>
<path d="M37.4731 403.343C34.7886 403.343 29.4292 404.691 29.4292 407.366V408.706C29.4292 409.198 29.8307 409.6 30.3227 409.6H44.6234C45.1163 409.6 45.5178 409.198 45.5178 408.706V407.366C45.5178 404.691 40.1584 403.343 37.4731 403.343Z" fill="#3180FF"/>
<path d="M309.39 418.653C318.832 418.653 326.488 410.999 326.488 401.556C326.488 392.113 318.832 384.458 309.39 384.458C299.947 384.458 292.293 392.113 292.293 401.556C292.293 410.999 299.947 418.653 309.39 418.653Z" fill="#DDE9FE"/>
<path d="M312.965 397.087C312.965 399.063 311.366 400.662 309.39 400.662C307.414 400.662 305.814 399.063 305.814 397.087C305.814 395.111 307.414 393.512 309.39 393.512C311.366 393.512 312.965 395.111 312.965 397.087Z" fill="#3180FF"/>
<path d="M309.39 403.344C306.706 403.344 301.346 404.691 301.346 407.366V408.706C301.346 409.198 301.748 409.6 302.24 409.6H316.54C317.032 409.6 317.434 409.198 317.434 408.706V407.366C317.434 404.691 312.075 403.344 309.39 403.344Z" fill="#3180FF"/>
<path d="M37.4724 462.096C46.9155 462.096 54.5699 454.442 54.5699 444.999C54.5699 435.556 46.9155 427.902 37.4724 427.902C28.0294 427.902 20.375 435.556 20.375 444.999C20.375 454.442 28.0294 462.096 37.4724 462.096Z" fill="#DDE9FE"/>
<path d="M41.0488 440.53C41.0488 442.506 39.4493 444.105 37.4732 444.105C35.4971 444.105 33.8984 442.506 33.8984 440.53C33.8984 438.554 35.4971 436.955 37.4732 436.955C39.4493 436.955 41.0488 438.554 41.0488 440.53Z" fill="#3180FF"/>
<path d="M37.4731 446.787C34.7886 446.787 29.4292 448.135 29.4292 450.809V452.149C29.4292 452.642 29.8307 453.044 30.3227 453.044H44.6234C45.1163 453.044 45.5178 452.642 45.5178 452.149V450.809C45.5178 448.135 40.1584 446.787 37.4731 446.787Z" fill="#3180FF"/>
<path d="M309.39 462.096C318.832 462.096 326.488 454.442 326.488 444.999C326.488 435.556 318.832 427.902 309.39 427.902C299.947 427.902 292.293 435.556 292.293 444.999C292.293 454.442 299.947 462.096 309.39 462.096Z" fill="#DDE9FE"/>
<path d="M312.965 440.53C312.965 442.506 311.366 444.105 309.39 444.105C307.414 444.105 305.814 442.506 305.814 440.53C305.814 438.554 307.414 436.955 309.39 436.955C311.366 436.955 312.965 438.554 312.965 440.53Z" fill="#3180FF"/>
<path d="M309.39 446.787C306.706 446.787 301.346 448.135 301.346 450.809V452.149C301.346 452.641 301.748 453.043 302.24 453.043H316.54C317.032 453.043 317.434 452.641 317.434 452.149V450.809C317.434 448.135 312.075 446.787 309.39 446.787Z" fill="#3180FF"/>
<path d="M192.811 368.486H228.677V208.205C228.677 204.653 225.798 201.774 222.246 201.774H199.242C195.69 201.774 192.811 204.653 192.811 208.205V368.486Z" fill="#0B63F4"/>
<path d="M147.94 368.486H183.806V252.766C183.806 249.214 180.927 246.335 177.375 246.335H154.372C150.82 246.335 147.94 249.214 147.94 252.766V368.486Z" fill="#FF3868"/>
<path d="M103.071 368.486H138.937V159.699C138.937 156.147 136.057 153.268 132.506 153.268H109.502C105.95 153.268 103.071 156.147 103.071 159.699V368.486Z" fill="#0B63F4"/>
<path d="M57.7424 368.486H94.0681V208.205C94.0681 204.653 91.1889 201.774 87.6365 201.774H64.1732C60.6217 201.774 57.7424 204.653 57.7424 208.205V368.486Z" fill="#6938F5"/>
<path d="M509.008 93.8547H290.351C282.892 93.8547 276.846 99.9009 276.846 107.36V355.108C276.846 362.567 282.892 368.613 290.351 368.613H509.008C516.467 368.613 522.513 362.567 522.513 355.108V107.36C522.513 99.9009 516.467 93.8547 509.008 93.8547Z" fill="#F2F4F8"/>
<path fill-rule="evenodd" clip-rule="evenodd" d="M398.414 230.72V160.366C359.961 160.837 328.933 192.155 328.933 230.72C328.934 266.623 355.826 296.246 390.565 300.544L399.294 230.72H398.414Z" fill="#FF3868"/>
<path fill-rule="evenodd" clip-rule="evenodd" d="M467.662 213.562L398.22 231.205V160.372C398.515 160.368 398.809 160.366 399.104 160.366C432.12 160.366 459.853 182.979 467.662 213.562Z" fill="#0B63F4"/>
<path fill-rule="evenodd" clip-rule="evenodd" d="M398.628 301.402H399.449C438.324 301.181 469.769 269.6 469.769 230.674C469.769 224.756 469.043 219.009 467.674 213.517L398.491 230.91L390.261 300.864C393.004 301.204 395.797 301.386 398.628 301.402Z" fill="#6938F5"/>
</svg>
