<svg width="239" height="431" viewBox="0 0 239 431" fill="none" xmlns="http://www.w3.org/2000/svg">
<path d="M219.443 0.742432H19.4197C8.8944 0.742432 0.361816 9.29722 0.361816 19.8501V411.416C0.361816 421.969 8.8944 430.524 19.4197 430.524H219.443C229.969 430.524 238.501 421.969 238.501 411.416V19.8501C238.501 9.29722 229.969 0.742432 219.443 0.742432Z" fill="white"/>
<path d="M219.443 1.01477H19.4197C9.04473 1.01477 0.633789 9.44751 0.633789 19.8499V411.416C0.633789 421.818 9.04473 430.252 19.4197 430.252H219.443C229.818 430.252 238.229 421.818 238.229 411.416V19.8499C238.229 9.44751 229.818 1.01477 219.443 1.01477Z" stroke="#C5CCD8" stroke-opacity="0.3" stroke-width="0.548149"/>
<path d="M205.103 45.8854H33.7615C23.2358 45.8854 14.7029 54.4407 14.7029 64.9928V396.311C14.7029 406.864 23.2358 415.419 33.7615 415.419H205.103C215.629 415.419 224.161 406.864 224.161 396.311V64.9928C224.161 54.4407 215.629 45.8854 205.103 45.8854Z" fill="#EFF4FA"/>
<path d="M23.2452 21.8126C27.1863 21.8126 30.3819 18.609 30.3819 14.6571C30.3819 10.7052 27.1863 7.50159 23.2452 7.50159C19.303 7.50159 16.1082 10.7052 16.1082 14.6571C16.1082 18.609 19.303 21.8126 23.2452 21.8126Z" fill="#F8334A"/>
<path d="M46.7058 21.8126C50.648 21.8126 53.8425 18.609 53.8425 14.6571C53.8425 10.7052 50.648 7.50159 46.7058 7.50159C42.7647 7.50159 39.5691 10.7052 39.5691 14.6571C39.5691 18.609 42.7647 21.8126 46.7058 21.8126Z" fill="#F6C31D"/>
<path d="M70.1663 21.8126C74.1085 21.8126 77.303 18.609 77.303 14.6571C77.303 10.7052 74.1085 7.50159 70.1663 7.50159C66.2252 7.50159 63.0295 10.7052 63.0295 14.6571C63.0295 18.609 66.2252 21.8126 70.1663 21.8126Z" fill="#38D435"/>
<path d="M198.418 88.2273H34.3163C30.7962 88.2273 27.9438 91.087 27.9438 94.6164C27.9438 98.1445 30.7962 101.004 34.3163 101.004H198.418C201.938 101.004 204.791 98.1445 204.791 94.6164C204.791 91.087 201.938 88.2273 198.418 88.2273Z" fill="#93A9CC"/>
<path d="M170.149 112.922H62.5856C59.0654 112.922 56.2119 115.782 56.2119 119.312C56.2119 122.841 59.0654 125.702 62.5856 125.702H170.149C173.669 125.702 176.522 122.841 176.522 119.312C176.522 115.782 173.669 112.922 170.149 112.922Z" fill="#93A9CC"/>
<path d="M196.806 151.916H35.9273C32.8328 151.916 30.325 154.431 30.325 157.533C30.325 160.635 32.8328 163.15 35.9273 163.15H196.806C199.901 163.15 202.409 160.635 202.409 157.533C202.409 154.431 199.901 151.916 196.806 151.916Z" fill="#C6D0E2"/>
<path d="M196.806 176.395H35.9273C32.8328 176.395 30.325 178.91 30.325 182.012C30.325 185.114 32.8328 187.629 35.9273 187.629H196.806C199.901 187.629 202.409 185.114 202.409 182.012C202.409 178.91 199.901 176.395 196.806 176.395Z" fill="#C6D0E2"/>
<path d="M173.419 200.23H59.3121C56.2176 200.23 53.7097 202.745 53.7097 205.847C53.7097 208.949 56.2176 211.464 59.3121 211.464H173.419C176.514 211.464 179.022 208.949 179.022 205.847C179.022 202.745 176.514 200.23 173.419 200.23Z" fill="#C6D0E2"/>
<path d="M195.901 237.993H36.8322C34.7476 237.993 33.0581 239.687 33.0581 241.777V275.317C33.0581 277.407 34.7476 279.101 36.8322 279.101H195.901C197.985 279.101 199.675 277.407 199.675 275.317V241.777C199.675 239.687 197.985 237.993 195.901 237.993Z" fill="#2173F7"/>
<path d="M189.576 334.011C189.576 342.658 182.586 349.666 173.961 349.666C165.335 349.666 158.346 342.658 158.346 334.011C158.346 325.363 165.335 318.355 173.961 318.355C182.586 318.355 189.576 325.363 189.576 334.011Z" fill="#C6D0E2"/>
<path fill-rule="evenodd" clip-rule="evenodd" d="M92.7759 338.547C94.2749 336.359 97.4964 336.359 98.9955 338.547L133.175 388.391C133.534 388.914 134.293 388.941 134.69 388.446L150.194 369.015C151.705 367.122 154.577 367.122 156.088 369.015L189.875 411.358C191.851 413.836 190.092 417.507 186.927 417.507H153.14H45.8065C42.7672 417.507 40.9742 414.09 42.6955 411.579L92.7759 338.547Z" fill="#C6D0E2"/>
</svg>
