<svg viewBox="0 0 179.34 193.1" xmlns="http://www.w3.org/2000/svg"><circle cx="132.09" cy="165.36" fill="#fff7f1" r="27.74"/><path d="m175 131.15-20-16.46a12 12 0 0 0 -7.7-2.69h-127.3a20 20 0 0 1 -20-20v-72a20 20 0 0 1 20-20h139.31a20 20 0 0 1 20 20v109a2.69 2.69 0 0 1 -4.31 2.15z" fill="#fff"/><rect fill="#ffb6cb" height="7.93" rx="3.96" width="70.35" x="19.82" y="23.78"/><rect fill="#ffb6cb" height="7.93" rx="3.96" width="32.7" x="95.78" y="23.78"/><rect fill="#ffb6cb" height="7.93" rx="3.96" width="23.45" x="133.76" y="23.78"/><rect fill="#e5eaf6" height="7.93" rx="3.96" width="89.16" x="19.82" y="42.28"/><rect fill="#e5eaf6" height="7.93" rx="3.96" width="41.28" x="115.93" y="42.28"/><rect fill="#6ad5e1" height="7.93" rx="3.96" transform="matrix(-1 0 0 -1 239.23 129.47)" width="75.19" x="82.02" y="60.77"/><rect fill="#6ad5e1" height="7.93" rx="3.96" transform="matrix(-1 0 0 -1 122.31 129.47)" width="30.5" x="45.91" y="60.77"/><rect fill="#6ad5e1" height="7.93" rx="3.96" transform="matrix(-1 0 0 -1 60.44 129.47)" width="20.81" x="19.82" y="60.77"/><rect fill="#e5eaf6" height="7.93" rx="3.96" width="60.22" x="19.82" y="79.27"/><rect fill="#e5eaf6" height="7.93" rx="3.96" width="37.54" x="85.65" y="79.27"/><rect fill="#e5eaf6" height="7.93" rx="3.96" width="28.73" x="128.48" y="79.27"/><g fill="#ff92af"><path d="m132.09 150.74a14.62 14.62 0 1 1 -14.62 14.62 14.6 14.6 0 0 1 14.62-14.62zm0-1.59a16.21 16.21 0 1 0 16.21 16.21 16.23 16.23 0 0 0 -16.21-16.21z"/><path d="m126.56 159a.79.79 0 0 1 0 1.58.79.79 0 1 1 0-1.58zm0-1.58a2.37 2.37 0 1 0 2.37 2.37 2.38 2.38 0 0 0 -2.37-2.34z"/><path d="m122.53 166.14a.79.79 0 0 0 -.69 1c1.11 3.94 4.74 8.12 10.25 8.09s9.15-4.15 10.25-8.09a.79.79 0 1 0 -1.53-.43c-.94 3.36-4 7-8.72 6.94s-7.78-3.58-8.72-6.94a.79.79 0 0 0 -.84-.58z"/><path d="m137.62 159a.79.79 0 0 0 0 1.58.79.79 0 0 0 0-1.58zm0-1.58a2.37 2.37 0 1 1 -2.37 2.37 2.38 2.38 0 0 1 2.37-2.34z"/></g></svg>