<svg xmlns="http://www.w3.org/2000/svg" xmlns:xlink="http://www.w3.org/1999/xlink" viewBox="0 0 178.35 180.33"><defs><style>.cls-1,.cls-9{fill:none;}.cls-2{clip-path:url(#clip-path);}.cls-3{fill:#ffb6cb;}.cls-4{fill:#fff;}.cls-5{fill:#f3f5fb;}.cls-6{fill:#e5eaf6;}.cls-7{fill:#dcf4f7;}.cls-8{fill:#fccb5b;}.cls-9{stroke:#ff7f9a;stroke-miterlimit:10;stroke-width:0.4px;}.cls-10{fill:url(#New_Pattern_2);}</style><clipPath id="clip-path"><rect class="cls-1" width="12" height="12"/></clipPath><pattern id="New_Pattern_2" data-name="New Pattern 2" width="12" height="12" patternTransform="matrix(0.04, 0, 0, -0.04, 43.11, -59.53)" patternUnits="userSpaceOnUse" viewBox="0 0 12 12"><rect class="cls-1" width="12" height="12"/><g class="cls-2"><circle class="cls-3" cx="12" cy="3" r="2"/><circle class="cls-3" cx="6" r="2"/><circle class="cls-3" cy="3" r="2"/><circle class="cls-3" cx="12" cy="9" r="2"/><circle class="cls-3" cx="6" cy="6" r="2"/><circle class="cls-3" cy="9" r="2"/><circle class="cls-3" cx="6" cy="12" r="2"/></g></pattern></defs><title>hero-right</title><g id="Layer_2" data-name="Layer 2"><g id="Layer_1-2" data-name="Layer 1"><rect class="cls-4" width="178.35" height="180.33" rx="20"/><rect class="cls-5" x="46.59" y="140.8" width="85.16" height="7.93" rx="3.96"/><rect class="cls-6" x="58.72" y="101.13" width="60.9" height="11.23" rx="3.99"/><rect class="cls-5" x="38.59" y="124.98" width="101.16" height="7.93" rx="3.96"/><circle class="cls-7" cx="89.17" cy="50.28" r="27.74"/><path class="cls-8" d="M98.65,67.63l-1.72-5.25a57.29,57.29,0,0,0-1.27-9.26h0c0-1-.13-3.77-.26-4.59a.58.58,0,0,0,0-.14C96.14,46,98.11,40.2,98.27,40s-.12-.8-.59-.8a5.27,5.27,0,0,0-2.9,1.77c.21-4.31.71-8.13.71-8.33s-.11-.9-.5-.9A6.48,6.48,0,0,0,91.67,35h0l-1.19-4.31c0-.24-.18-.58-.45-.58-1.83,0-2.15,3.47-2.15,4.19,0,.33.48,3.08,1,6v0l.08.42.18,1,.32,1.76.26,1.23c.12.62.23,1.18.33,1.65l0,.18h0a30.58,30.58,0,0,0-4.59-2.88c-.45,0-8.4,4-9.59,5.5-.24,0-1.1.28-1.1.57s4.14,7.7,4.91,8.4,5.66,4.76,5.66,4.76c.21.9,1.8,6,1.76,6.88H99.1ZM94.78,41c0,.61-.06,3-.08,4.2C94.68,43.78,94.72,42.35,94.78,41ZM89.06,52.67c0,.16-4.31,3.32-5,3.32s-4.18-5.33-5.9-6.15c1.68.37,6.35-2,6.55-2s3.73,2.5,3.9,2.66A8.2,8.2,0,0,1,89.06,52.67Z"/><path class="cls-9" d="M90.48,30.69c0,.25,4.81,17,4.93,17.84"/><path class="cls-9" d="M75.94,49.15c.39.18,2.13.68,2.34.75"/><g id="Shadows"><path class="cls-10" d="M91.67,35A6.48,6.48,0,0,1,95,31.7c.39,0,.5.6.5.9a106.8,106.8,0,0,0-.77,13.29"/><path class="cls-10" d="M94.69,45.82s.06-4.16.09-4.89a5.27,5.27,0,0,1,2.9-1.77c.47,0,.79.5.59.8s-2.13,6-2.89,8.44Z"/><path class="cls-10" d="M89.11,41.38l.37,2.06.39,1.87.24,1.19.93.69,1.73,1.33,1.41,1.25.51.61L95,51l.44,1.24.22.81-.08-2.45-.14-1.92s-.05-.3-.19-.82C93,49.21,89,40.9,88.9,40.29Z"/></g><path class="cls-9" d="M98.65,67.63a47.88,47.88,0,0,1-1.72-5.25M78.12,49.84c1.68.37,6.35-2,6.55-2s3.73,2.5,3.9,2.66a8.2,8.2,0,0,1,.49,2.13c0,.16-4.31,3.32-5,3.32S79.84,50.66,78.12,49.84Zm21,19.92-.45-2.13a47.88,47.88,0,0,1-1.72-5.25c0-.73-.62-10.49-2.75-12.62a47,47,0,0,0-8.65-6.11c-.45,0-8.4,4-9.59,5.5-.24,0-1.1.28-1.1.57s4.14,7.7,4.91,8.4,5.66,4.76,5.66,4.76c.21.9,1.8,6,1.76,6.88"/><path class="cls-9" d="M90.12,46.52c-.7-3.24-2.24-11.63-2.24-12.22s.32-4.19,2.15-4.19c.27,0,.43.34.45.58s4.81,17,4.93,17.84.25,3.57.26,4.59"/><path class="cls-9" d="M91.67,35A6.48,6.48,0,0,1,95,31.7c.39,0,.5.6.5.9a106.8,106.8,0,0,0-.77,13.29"/><path class="cls-9" d="M94.78,40.93a5.27,5.27,0,0,1,2.9-1.77c.47,0,.79.5.59.8s-2.13,6-2.89,8.44"/></g></g></svg>