<?xml version="1.0" encoding="utf-8"?>
<!-- Generator: Adobe Illustrator 16.0.0, SVG Export Plug-In . SVG Version: 6.00 Build 0)  -->
<!DOCTYPE svg PUBLIC "-//W3C//DTD SVG 1.1//EN" "http://www.w3.org/Graphics/SVG/1.1/DTD/svg11.dtd">
<svg version="1.1" id="Layer_1" xmlns="http://www.w3.org/2000/svg" xmlns:xlink="http://www.w3.org/1999/xlink" x="0px" y="0px"
	 width="720px" height="557px" viewBox="-85 -202.25 720 557" enable-background="new -85 -202.25 720 557" xml:space="preserve">
<path fill="#DAE5FF" d="M93.495-75.432h453.12c17.063,0,30.895,15.122,30.895,33.774v354.633c0,18.653-13.831,33.774-30.895,33.774
	H93.495c-17.063,0-30.895-15.121-30.895-33.774V-41.657C62.6-60.31,76.432-75.432,93.495-75.432z"/>
<g>
	
		<image overflow="visible" opacity="0.01" width="933" height="539" xlink:href="BA81DD76.png"  transform="matrix(1 0 0 1 -91.5 -10.5)">
	</image>
	<g>
		
			<image overflow="visible" opacity="0.1" width="572" height="179" xlink:href="BA81DD7A.png"  transform="matrix(1 0 0 1 87.5 167.5)">
		</image>
		<g>
			
				<image overflow="visible" opacity="0.01" width="522" height="131" xlink:href="BA81DD7D.png"  transform="matrix(1 0 0 1 111.5 188.5)">
			</image>
			<g>
				<path fill="#FFFFFF" d="M129.538,191.106h484.015c8.53,0,15.447,6.917,15.447,15.447v92.684c0,8.531-6.917,15.447-15.447,15.447
					H129.538c-8.531,0-15.447-6.916-15.447-15.447v-92.684C114.091,198.023,121.007,191.106,129.538,191.106z"/>
			</g>
		</g>
	</g>
</g>
<g opacity="0.48">
	<path fill="#4E5A85" d="M479.677,222.001h108.131c5.687,0,10.298,4.611,10.298,10.298v41.193c0,5.687-4.611,10.298-10.298,10.298
		H479.677c-5.688,0-10.299-4.611-10.299-10.298v-41.193C469.378,226.612,473.989,222.001,479.677,222.001z"/>
	<path fill="#7E8BB6" d="M510.571,245.172h46.342c4.265,0,7.724,3.458,7.724,7.724l0,0c0,4.266-3.459,7.724-7.724,7.724h-46.342
		c-4.266,0-7.724-3.458-7.724-7.724l0,0C502.848,248.63,506.306,245.172,510.571,245.172z"/>
</g>
<path opacity="0.2" fill="#4E5A85" enable-background="new    " d="M245.393,232.299H402.44c4.265,0,7.724,3.459,7.724,7.724l0,0
	c0,4.266-3.459,7.724-7.724,7.724H245.393c-4.265,0-7.724-3.458-7.724-7.724l0,0C237.669,235.758,241.127,232.299,245.393,232.299z"
	/>
<path opacity="0.2" fill="#4E5A85" enable-background="new    " d="M245.393,258.045h111.993c4.265,0,7.724,3.458,7.724,7.724l0,0
	c0,4.265-3.459,7.724-7.724,7.724H245.393c-4.265,0-7.724-3.459-7.724-7.724l0,0C237.669,261.503,241.127,258.045,245.393,258.045z"
	/>
<defs>
	<filter id="Adobe_OpacityMaskFilter" filterUnits="userSpaceOnUse" x="134.688" y="183.589" width="78.678" height="144.587">
		<feColorMatrix  type="matrix" values="1 0 0 0 0  0 1 0 0 0  0 0 1 0 0  0 0 0 1 0"/>
	</filter>
</defs>
<mask maskUnits="userSpaceOnUse" x="134.688" y="183.589" width="78.678" height="144.587" id="mask0">
	<circle fill="#FEECD0" filter="url(#Adobe_OpacityMaskFilter)" cx="175.88" cy="214.896" r="41.192"/>
</mask>
<g mask="url(#mask0)">
	<rect x="134.688" y="183.589" fill="none" width="78.678" height="144.587"/>
</g>
<path fill="#0059F7" d="M80.935-111.344L80.935-111.344c29.93,0,54.192,24.263,54.192,54.192l0,0
	c0,29.93-24.263,54.193-54.192,54.193l0,0c-29.93,0-54.192-24.263-54.192-54.193l0,0C26.742-87.081,51.005-111.344,80.935-111.344z"
	/>
<image overflow="visible" width="163" height="192" xlink:href="BA81DD7E.jpg"  transform="matrix(0.4559 0 0 0.4559 -61.6626 71.9761)">
</image>
<path fill="#CCD2E9" d="M80.935-34.572c-12.471,0-22.579-10.108-22.579-22.58c0-12.471,10.108-22.581,22.579-22.581
	s22.579,10.11,22.579,22.581C103.514-44.68,93.405-34.572,80.935-34.572z M83.191-57.152v-11.29h-4.514v15.806h13.547v-4.516H83.191
	z"/>
<g>
	
		<image overflow="visible" opacity="0.01" width="850" height="519" xlink:href="BA81DD7E.png"  transform="matrix(1 0 0 1 -282.5 -136.5)">
	</image>
	<g>
		
			<image overflow="visible" opacity="0.1" width="490" height="159" xlink:href="BA81DD7B.png"  transform="matrix(1 0 0 1 -102.5 41.5)">
		</image>
		<g>
			
				<image overflow="visible" opacity="0.01" width="440" height="111" xlink:href="BA81DD75.png"  transform="matrix(1 0 0 1 -78.5 62.5)">
			</image>
			<g>
				<path fill="#FFFFFF" d="M-62.767,64.797h406.442c7.163,0,12.972,5.808,12.972,12.972v77.829c0,7.164-5.809,12.972-12.972,12.972
					H-62.767c-7.164,0-12.972-5.808-12.972-12.972V77.769C-75.738,70.604-69.931,64.797-62.767,64.797z"/>
			</g>
		</g>
	</g>
</g>
<path fill="#0059F7" d="M231.256,90.74h90.801c4.775,0,8.647,3.871,8.647,8.647v34.591c0,4.776-3.872,8.648-8.647,8.648h-90.801
	c-4.776,0-8.648-3.872-8.648-8.648V99.388C222.607,94.611,226.48,90.74,231.256,90.74z"/>
<path fill="#689EFF" d="M257.199,110.197h38.914c3.581,0,6.486,2.904,6.486,6.486l0,0c0,3.582-2.905,6.486-6.486,6.486h-38.914
	c-3.582,0-6.486-2.904-6.486-6.486l0,0C250.713,113.101,253.617,110.197,257.199,110.197z"/>
<circle fill="#2DB27C" cx="-23.852" cy="116.683" r="34.591"/>
<defs>
	<filter id="Adobe_OpacityMaskFilter_1_" filterUnits="userSpaceOnUse" x="-63.285" y="55.173" width="81.289" height="178.144">
		<feColorMatrix  type="matrix" values="1 0 0 0 0  0 1 0 0 0  0 0 1 0 0  0 0 0 1 0"/>
	</filter>
</defs>
<mask maskUnits="userSpaceOnUse" x="-63.285" y="55.173" width="81.289" height="178.144" id="mask1">
	<circle fill="#FEECD0" filter="url(#Adobe_OpacityMaskFilter_1_)" cx="-23.852" cy="85.613" r="34.591"/>
</mask>
<g mask="url(#mask1)">
	<rect x="-63.285" y="55.173" fill="none" width="81.289" height="178.144"/>
</g>
<path opacity="0.2" fill="#4E5A85" enable-background="new    " d="M34.52,99.388h138.363c3.582,0,6.486,2.904,6.486,6.486l0,0
	c0,3.582-2.904,6.486-6.486,6.486H34.52c-3.582,0-6.486-2.904-6.486-6.486l0,0C28.034,102.292,30.938,99.388,34.52,99.388z"/>
<path opacity="0.2" fill="#4E5A85" enable-background="new    " d="M34.52,121.007h99.449c3.582,0,6.486,2.904,6.486,6.486l0,0
	c0,3.582-2.904,6.486-6.486,6.486H34.52c-3.582,0-6.486-2.904-6.486-6.486l0,0C28.034,123.911,30.938,121.007,34.52,121.007z"/>
<path fill="#FFFFFF" d="M230.106,131.866c-0.483-0.644-0.965-1.77-1.931-3.218c-0.482-0.805-1.931-2.414-2.414-3.058
	c-0.322-0.644-0.322-0.965-0.161-1.609c0.161-0.965,1.126-1.77,2.252-1.77c0.805,0,1.609,0.644,2.253,1.126
	c0.322,0.322,0.805,0.965,1.126,1.287s0.322,0.483,0.644,0.805c0.322,0.482,0.482,0.805,0.322,0.161
	c-0.161-0.804-0.322-2.092-0.644-3.379c-0.161-0.965-0.322-1.126-0.483-1.77c-0.161-0.805-0.322-1.287-0.483-2.092
	c-0.161-0.483-0.322-1.77-0.482-2.414c-0.161-0.805-0.161-2.253,0.482-2.896c0.483-0.482,1.448-0.644,2.092-0.322
	c0.805,0.483,1.288,1.609,1.448,2.092c0.322,0.805,0.644,1.931,0.805,3.218c0.322,1.609,0.805,4.022,0.805,4.505
	c0-0.644-0.161-1.77,0-2.414c0.161-0.483,0.482-1.126,1.126-1.287c0.482-0.161,0.965-0.161,1.448-0.161
	c0.483,0.161,0.966,0.483,1.288,0.805c0.644,0.965,0.644,3.057,0.644,2.896c0.161-0.644,0.161-1.931,0.483-2.575
	c0.161-0.322,0.804-0.644,1.126-0.805c0.483-0.161,1.126-0.161,1.609,0c0.322,0,0.965,0.483,1.126,0.805
	c0.322,0.483,0.482,2.092,0.644,2.735c0,0.161,0.161-0.644,0.482-1.126c0.644-0.965,2.896-1.287,3.058,0.966c0,1.126,0,0.965,0,1.77
	c0,0.805,0,1.288,0,1.931s-0.161,2.092-0.322,2.735c-0.161,0.483-0.644,1.609-1.126,2.253c0,0-1.77,1.931-1.931,2.896
	c-0.161,0.965-0.161,0.965-0.161,1.609s0.161,1.448,0.161,1.448s-1.287,0.161-1.931,0c-0.644-0.161-1.448-1.287-1.609-1.77
	c-0.322-0.483-0.804-0.483-1.126,0c-0.322,0.644-1.126,1.77-1.77,1.77c-1.126,0.161-3.379,0-4.988,0c0,0,0.322-1.609-0.322-2.253
	c-0.483-0.482-1.288-1.287-1.77-1.77L230.106,131.866z"/>
<path fill="none" stroke="#000000" stroke-width="0.75" stroke-linecap="round" stroke-linejoin="round" d="M230.106,131.866
	c-0.483-0.644-0.965-1.77-1.931-3.218c-0.482-0.805-1.931-2.414-2.414-3.058c-0.322-0.644-0.322-0.965-0.161-1.609
	c0.161-0.965,1.126-1.77,2.252-1.77c0.805,0,1.609,0.644,2.253,1.126c0.322,0.322,0.805,0.965,1.126,1.287s0.322,0.483,0.644,0.805
	c0.322,0.482,0.482,0.805,0.322,0.161c-0.161-0.804-0.322-2.092-0.644-3.379c-0.161-0.965-0.322-1.126-0.483-1.77
	c-0.161-0.805-0.322-1.287-0.483-2.092c-0.161-0.483-0.322-1.77-0.482-2.414c-0.161-0.805-0.161-2.253,0.482-2.896
	c0.483-0.482,1.448-0.644,2.092-0.322c0.805,0.483,1.288,1.609,1.448,2.092c0.322,0.805,0.644,1.931,0.805,3.218
	c0.322,1.609,0.805,4.022,0.805,4.505c0-0.644-0.161-1.77,0-2.414c0.161-0.483,0.482-1.126,1.126-1.287
	c0.482-0.161,0.965-0.161,1.448-0.161c0.483,0.161,0.966,0.483,1.288,0.805c0.644,0.965,0.644,3.057,0.644,2.896
	c0.161-0.644,0.161-1.931,0.483-2.575c0.161-0.322,0.804-0.644,1.126-0.805c0.483-0.161,1.126-0.161,1.609,0
	c0.322,0,0.965,0.483,1.126,0.805c0.322,0.483,0.482,2.092,0.644,2.735c0,0.161,0.161-0.644,0.482-1.126
	c0.644-0.965,2.896-1.287,3.058,0.966c0,1.126,0,0.965,0,1.77c0,0.805,0,1.288,0,1.931s-0.161,2.092-0.322,2.735
	c-0.161,0.483-0.644,1.609-1.126,2.253c0,0-1.77,1.931-1.931,2.896c-0.161,0.965-0.161,0.965-0.161,1.609s0.161,1.448,0.161,1.448
	s-1.287,0.161-1.931,0c-0.644-0.161-1.448-1.287-1.609-1.77c-0.322-0.483-0.804-0.483-1.126,0c-0.322,0.644-1.126,1.77-1.77,1.77
	c-1.126,0.161-3.379,0-4.988,0c0,0,0.322-1.609-0.322-2.253c-0.483-0.482-1.288-1.287-1.77-1.77L230.106,131.866z"/>
<path fill="none" stroke="#000000" stroke-width="0.75" stroke-linecap="round" d="M243.462,132.349v-5.471"/>
<path fill="none" stroke="#000000" stroke-width="0.75" stroke-linecap="round" d="M240.244,132.349l-0.161-5.471"/>
<path fill="none" stroke="#000000" stroke-width="0.75" stroke-linecap="round" d="M237.025,126.878v5.471"/>
<circle cx="443.038" cy="-52.452" r="2.5"/>
<circle cx="443.038" cy="-43.452" r="2.5"/>
<g>
	
		<image overflow="visible" opacity="0.01" width="658" height="717" xlink:href="BA81DD77.png"  transform="matrix(1 0 0 1 170.5 -382.5)">
	</image>
	<g>
		
			<image overflow="visible" opacity="0.1" width="298" height="357" xlink:href="BA81DD74.png"  transform="matrix(1 0 0 1 349.5 -204.5)">
		</image>
		<g>
			
				<image overflow="visible" opacity="0.01" width="248" height="309" xlink:href="F4C50269.png"  transform="matrix(1 0 0 1 373.5 -183.5)">
			</image>
			<g>
				<g>
					<path fill="#FFFFFF" d="M391.233-180.938h210.609c8.309,0,15.044,6.735,15.044,15.043v272.288
						c0,8.308-6.735,15.043-15.044,15.043H391.233c-8.309,0-15.044-6.736-15.044-15.043v-272.288
						C376.189-174.202,382.925-180.938,391.233-180.938z"/>
				</g>
			</g>
		</g>
	</g>
</g>
<path fill="#9D9D9D" d="M414.622,66.453c-0.255-1.23-1.278-2.813-3.836-2.813c-2.094,0-3.74,1.6-3.74,3.373
	c0,1.695,1.15,2.75,2.765,3.101l1.614,0.353c1.136,0.239,1.695,0.942,1.695,1.757c0,0.991-0.768,1.807-2.334,1.807
	c-1.711,0-2.605-1.168-2.718-2.43l-1.502,0.479c0.208,1.616,1.502,3.375,4.235,3.375c2.414,0,3.917-1.6,3.917-3.357
	c0-1.583-1.055-2.766-2.941-3.181l-1.695-0.368c-0.958-0.208-1.454-0.831-1.454-1.647c0-1.055,0.911-1.886,2.19-1.886
	c1.582,0,2.27,1.12,2.397,1.934L414.622,66.453z M418.57,65.093h-1.375v1.248c0,0.671-0.352,1.183-1.183,1.183h-0.415v1.359h1.47
	v4.22c0,1.391,0.832,2.189,2.143,2.189c0.512,0,0.896-0.096,1.023-0.143V73.87c-0.128,0.032-0.4,0.063-0.591,0.063
	c-0.785,0-1.072-0.351-1.072-1.055v-3.996h1.663v-1.359h-1.663V65.093z M427.307,74.285c0,0.319,0.031,0.752,0.063,0.927h1.438
	c-0.032-0.272-0.08-0.815-0.08-1.422v-6.267h-1.503v4.636c0,1.167-0.606,1.967-1.822,1.967c-1.262,0-1.741-0.929-1.741-1.982v-4.621
	h-1.503v4.844c0,1.742,1.086,3.085,2.878,3.085C425.932,75.453,426.891,75.083,427.307,74.285z M432.109,71.345
	c0-1.583,0.896-2.703,2.27-2.703c1.375,0,2.207,1.087,2.207,2.67c0,1.582-0.848,2.781-2.222,2.781
	C432.925,74.094,432.109,72.927,432.109,71.345z M436.602,74.173c0,0.463,0.048,0.864,0.08,1.04h1.455
	c-0.018-0.129-0.081-0.688-0.081-1.422V63.639h-1.485v4.972c-0.257-0.623-0.991-1.294-2.351-1.294c-2.174,0-3.644,1.854-3.644,4.029
	c0,2.284,1.39,4.075,3.644,4.075c1.199,0,2.014-0.64,2.382-1.375V74.173z M441.587,70.578c0.064-0.991,0.832-1.967,2.095-1.967
	c1.357,0,2.077,0.864,2.109,1.967H441.587z M446.016,72.576c-0.288,0.862-0.912,1.551-2.158,1.551c-1.296,0-2.286-0.96-2.318-2.334
	h5.786c0.017-0.096,0.032-0.289,0.032-0.48c0-2.397-1.326-4.029-3.692-4.029c-1.934,0-3.677,1.647-3.677,4.062
	c0,2.604,1.807,4.108,3.869,4.108c1.79,0,3.021-1.072,3.452-2.43L446.016,72.576z M450.779,70.769c0-1.167,0.605-2.11,1.79-2.11
	c1.342,0,1.789,0.862,1.789,1.934v4.619h1.503v-4.875c0-1.71-0.911-3.037-2.749-3.037c-0.896,0-1.807,0.368-2.366,1.327v-1.103
	h-1.471v7.689h1.504V70.769z M460.265,65.093h-1.374v1.248c0,0.671-0.353,1.183-1.184,1.183h-0.415v1.359h1.47v4.22
	c0,1.391,0.832,2.189,2.143,2.189c0.512,0,0.896-0.096,1.022-0.143V73.87c-0.127,0.032-0.399,0.063-0.591,0.063
	c-0.783,0-1.071-0.351-1.071-1.055v-3.996h1.662v-1.359h-1.662V65.093z M463.291,73.214c0.128,0.879,1.022,2.239,3.133,2.239
	c1.903,0,2.813-1.295,2.813-2.383c0-1.134-0.734-1.982-2.125-2.286l-1.248-0.271c-0.59-0.127-0.879-0.463-0.879-0.926
	c0-0.528,0.513-1.024,1.28-1.024c1.213,0,1.533,0.879,1.597,1.279l1.327-0.494c-0.16-0.688-0.814-2.063-2.924-2.063
	c-1.504,0-2.734,1.119-2.734,2.43c0,1.087,0.719,1.902,1.918,2.158l1.311,0.287c0.64,0.144,0.991,0.511,0.991,0.992
	c0,0.543-0.463,1.022-1.311,1.022c-1.087,0-1.694-0.639-1.791-1.438L463.291,73.214z"/>
<path d="M421.794,48.571h-2.189v-6.937h-2.493v-1.487c0.745-0.01,1.369-0.197,1.87-0.56c0.501-0.373,0.804-0.836,0.911-1.391h1.901
	V48.571z M425.938,42.21l-2.095-0.064c-0.054-0.245-0.079-0.485-0.079-0.719c0-0.959,0.341-1.774,1.022-2.446
	c0.683-0.682,1.604-1.022,2.766-1.022c1.129,0,2.035,0.325,2.717,0.975c0.682,0.639,1.022,1.428,1.022,2.365
	c0,1.322-0.671,2.393-2.014,3.213l-1.998,1.215c-0.469,0.298-0.768,0.613-0.895,0.943h4.972v1.901h-7.674
	c0.012-0.97,0.198-1.817,0.56-2.542c0.373-0.725,1.001-1.353,1.886-1.886l1.711-1.022c0.82-0.491,1.23-1.087,1.23-1.791
	c0-0.394-0.138-0.73-0.415-1.007c-0.267-0.277-0.65-0.416-1.151-0.416c-0.531,0-0.943,0.16-1.23,0.479
	c-0.277,0.32-0.416,0.736-0.416,1.247C425.856,41.826,425.884,42.018,425.938,42.21z M435.271,40.755
	c-0.373,0.586-0.559,1.465-0.559,2.637c0,1.173,0.186,2.052,0.559,2.638c0.352,0.565,0.874,0.848,1.566,0.848
	c0.683,0,1.199-0.282,1.551-0.848c0.384-0.575,0.576-1.455,0.576-2.638c0-1.182-0.192-2.062-0.576-2.637
	c-0.352-0.564-0.868-0.847-1.551-0.847C436.146,39.908,435.623,40.19,435.271,40.755z M433.418,47.085
	c-0.607-0.927-0.912-2.158-0.912-3.693c0-1.534,0.305-2.765,0.912-3.692c0.778-1.162,1.917-1.742,3.42-1.742
	c1.502,0,2.638,0.58,3.405,1.742c0.618,0.938,0.927,2.169,0.927,3.692c0,1.524-0.309,2.755-0.927,3.693
	c-0.768,1.162-1.903,1.742-3.405,1.742C435.335,48.827,434.196,48.247,433.418,47.085z M445.214,40.755
	c-0.372,0.586-0.56,1.465-0.56,2.637c0,1.173,0.188,2.052,0.56,2.638c0.353,0.565,0.874,0.848,1.567,0.848
	c0.682,0,1.198-0.282,1.549-0.848c0.385-0.575,0.577-1.455,0.577-2.638c0-1.182-0.192-2.062-0.577-2.637
	c-0.351-0.564-0.867-0.847-1.549-0.847C446.088,39.908,445.566,40.19,445.214,40.755z M443.36,47.085
	c-0.607-0.927-0.912-2.158-0.912-3.693c0-1.534,0.305-2.765,0.912-3.692c0.777-1.162,1.917-1.742,3.421-1.742
	c1.503,0,2.637,0.58,3.404,1.742c0.618,0.938,0.928,2.169,0.928,3.692c0,1.524-0.31,2.755-0.928,3.693
	c-0.768,1.162-1.901,1.742-3.404,1.742C445.277,48.827,444.138,48.247,443.36,47.085z M452.646,42.993h3.021v-3.117h1.79v3.117
	h3.038v1.742h-3.038v3.133h-1.79v-3.133h-3.021V42.993z"/>
<path fill="#9D9D9D" d="M508.862,75.212v-1.454h-5.323v-3.47h4.827v-1.47h-4.827v-3.485h5.323V63.88h-6.89v11.333H508.862z
	 M509.982,75.212h1.791l1.95-2.829l1.98,2.829h1.808c-0.464-0.623-2.366-3.292-2.83-3.917l2.733-3.772h-1.774l-1.854,2.702
	l-1.887-2.702h-1.822l2.766,3.772L509.982,75.212z M520.439,78.25v-4.077c0.415,0.687,1.31,1.248,2.493,1.248
	c2.254,0,3.58-1.774,3.58-4.06c0-2.239-1.23-4.012-3.532-4.012c-1.247,0-2.157,0.606-2.573,1.374v-1.199h-1.455V78.25H520.439z
	 M524.979,71.361c0,1.582-0.878,2.716-2.27,2.716c-1.374,0-2.286-1.135-2.286-2.716c0-1.536,0.912-2.687,2.286-2.687
	C524.115,68.674,524.979,69.825,524.979,71.361z M529.402,70.578c0.063-0.991,0.831-1.967,2.094-1.967
	c1.358,0,2.078,0.864,2.11,1.967H529.402z M533.83,72.576c-0.287,0.862-0.91,1.551-2.158,1.551c-1.294,0-2.285-0.96-2.317-2.334
	h5.787c0.016-0.096,0.031-0.289,0.031-0.48c0-2.397-1.327-4.029-3.692-4.029c-1.934,0-3.677,1.647-3.677,4.062
	c0,2.604,1.807,4.108,3.868,4.108c1.79,0,3.021-1.072,3.453-2.43L533.83,72.576z M541.359,67.444
	c-0.081-0.016-0.289-0.048-0.496-0.048c-0.784,0-1.742,0.289-2.302,1.47v-1.342h-1.471v7.689h1.503v-3.852
	c0-1.695,0.847-2.366,2.11-2.366c0.208,0,0.432,0.016,0.655,0.048V67.444z M544.447,75.212v-7.689h-1.486v7.689H544.447z
	 M542.625,64.615c0,0.59,0.48,1.072,1.072,1.072c0.607,0,1.086-0.481,1.086-1.072c0-0.607-0.479-1.087-1.086-1.087
	C543.105,63.527,542.625,64.007,542.625,64.615z M547.979,70.578c0.063-0.991,0.831-1.967,2.095-1.967
	c1.357,0,2.077,0.864,2.109,1.967H547.979z M552.407,72.576c-0.289,0.862-0.911,1.551-2.158,1.551c-1.296,0-2.285-0.96-2.317-2.334
	h5.786c0.015-0.096,0.032-0.289,0.032-0.48c0-2.397-1.326-4.029-3.693-4.029c-1.935,0-3.676,1.647-3.676,4.062
	c0,2.604,1.807,4.108,3.868,4.108c1.79,0,3.021-1.072,3.452-2.43L552.407,72.576z M557.17,70.769c0-1.167,0.607-2.11,1.791-2.11
	c1.343,0,1.79,0.862,1.79,1.934v4.619h1.502v-4.875c0-1.71-0.91-3.037-2.749-3.037c-0.896,0-1.807,0.368-2.365,1.327v-1.103h-1.472
	v7.689h1.503V70.769z M567.872,68.674c1.311,0,1.87,0.879,2.062,1.63l1.359-0.575c-0.32-1.167-1.375-2.446-3.421-2.446
	c-2.189,0-3.868,1.678-3.868,4.077c0,2.333,1.646,4.092,3.885,4.092c1.998,0,3.1-1.295,3.468-2.399l-1.327-0.575
	c-0.176,0.606-0.703,1.582-2.141,1.582c-1.248,0-2.351-0.943-2.351-2.7C565.538,69.571,566.656,68.674,567.872,68.674z
	 M574.017,70.578c0.063-0.991,0.831-1.967,2.095-1.967c1.357,0,2.077,0.864,2.109,1.967H574.017z M578.444,72.576
	c-0.287,0.862-0.912,1.551-2.158,1.551c-1.294,0-2.285-0.96-2.317-2.334h5.787c0.016-0.096,0.031-0.289,0.031-0.48
	c0-2.397-1.327-4.029-3.693-4.029c-1.933,0-3.676,1.647-3.676,4.062c0,2.604,1.807,4.108,3.868,4.108c1.79,0,3.021-1.072,3.453-2.43
	L578.444,72.576z"/>
<path d="M515.037,48.571h-2.189v-6.937h-2.493v-1.487c0.745-0.01,1.369-0.197,1.87-0.56c0.501-0.373,0.804-0.836,0.911-1.391h1.901
	V48.571z M519.789,40.755c-0.373,0.586-0.56,1.465-0.56,2.637c0,1.173,0.187,2.052,0.56,2.638c0.351,0.565,0.874,0.848,1.566,0.848
	c0.682,0,1.199-0.282,1.55-0.848c0.385-0.575,0.575-1.455,0.575-2.638c0-1.182-0.19-2.062-0.575-2.637
	c-0.351-0.564-0.868-0.847-1.55-0.847C520.663,39.908,520.14,40.19,519.789,40.755z M517.934,47.085
	c-0.605-0.927-0.91-2.158-0.91-3.693c0-1.534,0.305-2.765,0.91-3.692c0.779-1.162,1.919-1.742,3.422-1.742
	c1.502,0,2.638,0.58,3.405,1.742c0.618,0.938,0.926,2.169,0.926,3.692c0,1.524-0.308,2.755-0.926,3.693
	c-0.768,1.162-1.903,1.742-3.405,1.742C519.853,48.827,518.713,48.247,517.934,47.085z M534.399,43.808l-3.947-6.569h2.59
	l2.542,4.492l2.54-4.492h2.479l-3.996,6.569v4.763h-2.207V43.808z M541.876,43.744h3.516c-0.021-0.437-0.181-0.805-0.479-1.103
	c-0.289-0.298-0.714-0.448-1.278-0.448c-0.513,0-0.928,0.16-1.248,0.48C542.068,42.993,541.896,43.35,541.876,43.744z M545.6,45.791
	l1.774,0.527c-0.213,0.725-0.635,1.321-1.263,1.79c-0.618,0.469-1.391,0.704-2.318,0.704c-1.129,0-2.088-0.378-2.876-1.135
	c-0.789-0.768-1.184-1.791-1.184-3.069c0-1.215,0.384-2.206,1.151-2.973c0.768-0.778,1.673-1.167,2.717-1.167
	c1.216,0,2.164,0.362,2.846,1.087c0.693,0.725,1.039,1.721,1.039,2.989c0,0.085-0.005,0.181-0.016,0.288c0,0.106,0,0.192,0,0.256
	l-0.017,0.112h-5.626c0.021,0.512,0.224,0.938,0.607,1.278c0.383,0.342,0.841,0.512,1.375,0.512
	C544.716,46.989,545.313,46.59,545.6,45.791z M548.679,46.43c0-0.671,0.219-1.21,0.656-1.614c0.437-0.405,1.001-0.661,1.695-0.768
	l1.934-0.287c0.395-0.054,0.591-0.24,0.591-0.56c0-0.298-0.117-0.543-0.352-0.735c-0.224-0.192-0.549-0.288-0.976-0.288
	c-0.447,0-0.804,0.123-1.07,0.368c-0.255,0.245-0.399,0.549-0.432,0.911l-1.887-0.4c0.076-0.682,0.411-1.284,1.007-1.806
	c0.598-0.522,1.386-0.783,2.366-0.783c1.172,0,2.036,0.282,2.59,0.847c0.555,0.554,0.831,1.268,0.831,2.142v3.868
	c0,0.469,0.032,0.885,0.096,1.247h-1.95c-0.054-0.234-0.079-0.549-0.079-0.943c-0.501,0.778-1.273,1.167-2.318,1.167
	c-0.809,0-1.465-0.234-1.966-0.703C548.925,47.623,548.679,47.069,548.679,46.43z M551.828,47.213c0.501,0,0.912-0.139,1.23-0.416
	c0.331-0.288,0.496-0.756,0.496-1.407v-0.351l-1.774,0.271c-0.649,0.096-0.975,0.426-0.975,0.991c0,0.255,0.09,0.474,0.272,0.655
	C551.259,47.127,551.508,47.213,551.828,47.213z M562.572,40.675v2.142c-0.214-0.043-0.427-0.064-0.641-0.064
	c-0.607,0-1.098,0.176-1.47,0.527c-0.373,0.341-0.56,0.906-0.56,1.694v3.597h-2.127v-7.864h2.063v1.167
	c0.383-0.821,1.129-1.231,2.237-1.231C562.193,40.643,562.358,40.654,562.572,40.675z M563.442,46.382l1.822-0.399
	c0.022,0.341,0.155,0.628,0.399,0.863c0.256,0.224,0.603,0.335,1.039,0.335c0.33,0,0.587-0.075,0.768-0.224
	c0.181-0.149,0.272-0.335,0.272-0.559c0-0.394-0.283-0.65-0.848-0.768l-1.039-0.24c-0.735-0.159-1.288-0.447-1.662-0.863
	c-0.363-0.416-0.544-0.911-0.544-1.486c0-0.714,0.277-1.322,0.831-1.822c0.564-0.501,1.269-0.751,2.11-0.751
	c0.533,0,1.001,0.08,1.407,0.24c0.404,0.149,0.719,0.346,0.943,0.591c0.224,0.234,0.394,0.475,0.511,0.72s0.191,0.484,0.224,0.719
	l-1.774,0.399c-0.042-0.277-0.17-0.522-0.383-0.735c-0.203-0.213-0.507-0.32-0.912-0.32c-0.277,0-0.517,0.075-0.72,0.224
	c-0.191,0.149-0.287,0.335-0.287,0.559c0,0.384,0.24,0.619,0.719,0.704l1.119,0.24c0.757,0.16,1.332,0.453,1.728,0.879
	c0.404,0.426,0.606,0.938,0.606,1.535c0,0.704-0.266,1.311-0.799,1.822c-0.534,0.511-1.284,0.768-2.254,0.768
	c-0.554,0-1.049-0.08-1.485-0.24c-0.438-0.17-0.778-0.383-1.024-0.639c-0.234-0.267-0.415-0.527-0.544-0.783
	C563.549,46.882,563.475,46.627,563.442,46.382z"/>
<path fill="#E5E5E5" d="M560.477-65.984c0,13.173-3.905,26.05-11.225,37.002c-7.319,10.952-17.722,19.49-29.891,24.53
	c-12.17,5.041-25.561,6.36-38.481,3.79c-12.92-2.57-24.787-8.913-34.101-18.228c-9.314-9.314-15.658-21.181-18.228-34.101
	c-2.57-12.919-1.25-26.311,3.789-38.481c5.041-12.17,13.578-22.572,24.529-29.89c10.955-7.319,23.832-11.225,37.004-11.225v14.377
	c-10.328,0-20.427,3.063-29.015,8.802c-8.59,5.739-15.282,13.895-19.234,23.438c-3.955,9.542-4.987,20.043-2.974,30.174
	c2.015,10.131,6.989,19.437,14.295,26.74c7.303,7.305,16.608,12.279,26.738,14.294c10.132,2.014,20.633,0.98,30.175-2.973
	c9.543-3.953,17.699-10.646,23.438-19.235c5.739-8.588,8.803-18.686,8.803-29.015H560.477z"/>
<path fill="#4E5A85" d="M494.963-132.576c11.678,0.191,23.1,3.45,33.12,9.449c10.021,6,18.288,14.529,23.972,24.733
	c5.685,10.203,8.586,21.722,8.413,33.4c-0.174,11.678-3.417,23.106-9.399,33.136c-5.984,10.03-14.501,18.311-24.695,24.01
	c-10.195,5.7-21.71,8.617-33.388,8.462c-11.679-0.156-23.11-3.379-33.15-9.348c-10.039-5.969-18.334-14.473-24.048-24.659
	l12.538-7.035c4.481,7.988,10.984,14.656,18.857,19.337c7.872,4.679,16.835,7.208,25.993,7.331
	c9.157,0.121,18.187-2.167,26.18-6.636c7.995-4.469,14.673-10.961,19.365-18.827c4.694-7.865,7.234-16.826,7.371-25.983
	c0.136-9.157-2.14-18.189-6.597-26.19c-4.456-8-10.938-14.688-18.797-19.393c-7.857-4.705-16.815-7.26-25.973-7.41L494.963-132.576z
	"/>
<path d="M484.501-72.221v2.758c-0.367,0.304-0.719,0.623-1.055,0.958c-0.335,0.335-0.815,0.911-1.438,1.726
	c-0.607,0.799-1.143,1.639-1.606,2.518c-0.463,0.879-0.903,1.998-1.318,3.357c-0.416,1.358-0.688,2.773-0.815,4.243h-3.429
	c0.128-1.565,0.407-3.069,0.839-4.507c0.448-1.455,0.943-2.654,1.487-3.597c0.559-0.959,1.103-1.798,1.63-2.518
	c0.544-0.735,0.991-1.27,1.342-1.606l0.552-0.479h-8.008v-2.853H484.501z M489.376-68.384c-0.56,0.878-0.84,2.197-0.84,3.956
	c0,1.758,0.28,3.077,0.84,3.957c0.526,0.847,1.311,1.27,2.349,1.27c1.024,0,1.8-0.423,2.326-1.27
	c0.576-0.864,0.864-2.182,0.864-3.957s-0.288-3.093-0.864-3.956c-0.526-0.848-1.302-1.271-2.326-1.271
	C490.687-69.655,489.902-69.232,489.376-68.384z M486.595-58.89c-0.912-1.391-1.367-3.237-1.367-5.539s0.455-4.148,1.367-5.539
	c1.167-1.742,2.877-2.613,5.13-2.613c2.255,0,3.957,0.872,5.107,2.613c0.928,1.407,1.391,3.253,1.391,5.539
	s-0.463,4.132-1.391,5.539c-1.15,1.742-2.853,2.613-5.107,2.613C489.472-56.276,487.762-57.148,486.595-58.89z M502.191-68.552
	c0,0.495,0.152,0.903,0.455,1.222c0.305,0.304,0.68,0.456,1.127,0.456c0.465,0,0.84-0.152,1.128-0.456
	c0.303-0.319,0.455-0.727,0.455-1.222c0-0.496-0.152-0.896-0.455-1.199c-0.288-0.304-0.663-0.456-1.128-0.456
	c-0.447,0-0.822,0.16-1.127,0.479C502.344-69.424,502.191-69.032,502.191-68.552z M500.944-65.771
	c-0.767-0.768-1.15-1.694-1.15-2.781c0-1.087,0.392-2.015,1.175-2.782c0.783-0.767,1.719-1.15,2.805-1.15
	c1.087,0,2.022,0.384,2.806,1.15c0.799,0.768,1.198,1.695,1.198,2.782c0,1.103-0.399,2.03-1.198,2.781
	c-0.783,0.751-1.719,1.126-2.806,1.126C502.67-64.645,501.729-65.02,500.944-65.771z M512.67-60.305c0,0.495,0.15,0.903,0.455,1.223
	c0.303,0.304,0.679,0.455,1.126,0.455c0.465,0,0.84-0.151,1.127-0.455c0.305-0.32,0.457-0.728,0.457-1.223s-0.152-0.896-0.457-1.199
	c-0.287-0.304-0.662-0.456-1.127-0.456c-0.447,0-0.823,0.159-1.126,0.479C512.82-61.176,512.67-60.785,512.67-60.305z
	 M511.422-57.523c-0.768-0.767-1.15-1.694-1.15-2.781c0-1.086,0.391-2.014,1.176-2.782c0.783-0.767,1.718-1.15,2.804-1.15
	c1.088,0,2.023,0.384,2.807,1.15c0.798,0.768,1.197,1.695,1.197,2.782c0,1.103-0.399,2.03-1.197,2.781
	c-0.783,0.751-1.719,1.127-2.807,1.127C513.148-56.396,512.205-56.772,511.422-57.523z M504.925-56.661h-2.781l10.981-15.561h2.781
	L504.925-56.661z"/>
<image overflow="visible" width="122" height="122" xlink:href="F4C5026F.jpg"  transform="matrix(0.619 0 0 0.619 -61.7651 77.9849)">
</image>
<image overflow="visible" width="96" height="96" xlink:href="F4C50269.jpg"  transform="matrix(0.9999 0 0 0.9999 126 202.75)">
</image>
</svg>
